ISO-10303-21;
HEADER;
FILE_DESCRIPTION (( 'STEP AP214' ),
    '1' );
FILE_NAME ('main-shaft_assy.STEP',
    '2026-01-08T13:34:33',
    ( '' ),
    ( '' ),
    'SwSTEP 2.0',
    'SolidWorks 2025',
    '' );
FILE_SCHEMA (( 'AUTOMOTIVE_DESIGN' ));
ENDSEC;

DATA;
#1 = APPLICATION_PROTOCOL_DEFINITION ( 'draft international standard', 'automotive_design', 1998, #44 ) ;
#2 = PRODUCT_DEFINITION_SHAPE ( 'NONE', 'NONE',  #150 ) ;
#3 =( GEOMETRIC_REPRESENTATION_CONTEXT ( 3 ) GLOBAL_UNCERTAINTY_ASSIGNED_CONTEXT ( ( #105 ) ) GLOBAL_UNIT_ASSIGNED_CONTEXT ( ( #49, #9, #59 ) ) REPRESENTATION_CONTEXT ( 'NONE', 'WORKASPACE' ) );
#4 = PRODUCT_DEFINITION_SHAPE ( 'NONE', 'NONE',  #149 ) ;
#5 = PRODUCT_RELATED_PRODUCT_CATEGORY ( 'part', '', ( #57 ) ) ;
#6 = DIRECTION ( 'NONE',  ( 1.000000000000000000, 0.000000000000000000, 0.000000000000000000 ) ) ;
#7 = DIRECTION ( 'NONE',  ( 0.000000000000000000, 0.000000000000000000, 1.000000000000000000 ) ) ;
#8 =( GEOMETRIC_REPRESENTATION_CONTEXT ( 3 ) GLOBAL_UNCERTAINTY_ASSIGNED_CONTEXT ( ( #137 ) ) GLOBAL_UNIT_ASSIGNED_CONTEXT ( ( #78, #103, #67 ) ) REPRESENTATION_CONTEXT ( 'NONE', 'WORKASPACE' ) );
#9 =( NAMED_UNIT ( * ) PLANE_ANGLE_UNIT ( ) SI_UNIT ( $, .RADIAN. ) );
#10 = APPLIED_DOCUMENT_REFERENCE ( #143,'',( #145) ) ;
#11 = PRODUCT_CONTEXT ( 'NONE', #44, 'mechanical' ) ;
#12 = UNCERTAINTY_MEASURE_WITH_UNIT (LENGTH_MEASURE( 1.000000000000000082E-05 ), #74, 'distance_accuracy_value', 'NONE');
#13 = CONTEXT_DEPENDENT_SHAPE_REPRESENTATION ( #83, #4 ) ;
#14 = PROPERTY_DEFINITION ('document property','', #131 ) ;
#15 = PRODUCT_CONTEXT ( 'NONE', #98, 'mechanical' ) ;
#16 = SHAPE_REPRESENTATION ( 'main-shaft_shaft', ( #21 ), #3 ) ;
#17 = APPLICATION_CONTEXT ( 'automotive_design' ) ;
#18 = CARTESIAN_POINT ( 'NONE',  ( 0.000000000000000000, 0.000000000000000000, 0.000000000000000000 ) ) ;
#19 = SHAPE_DEFINITION_REPRESENTATION ( #26, #58 ) ;
#20 = CARTESIAN_POINT ( 'NONE',  ( 987.6325987215517443, 997.6093072629407743, 1008.008802467971691 ) ) ;
#21 = AXIS2_PLACEMENT_3D ( 'NONE', #113, #102, #6 ) ;
#22 = SHAPE_DEFINITION_REPRESENTATION ( #46, #121 ) ;
#23 = ROLE_ASSOCIATION ( #112, #37 ) ;
#24 = DIRECTION ( 'NONE',  ( 1.000000000000000444, -2.431906113969534343E-31, -3.944304526105059027E-31 ) ) ;
#25 = PRODUCT_DEFINITION_FORMATION_WITH_SPECIFIED_SOURCE ( 'Symmetric', '', #61, .NOT_KNOWN. ) ;
#26 = PRODUCT_DEFINITION_SHAPE ( 'NONE', 'NONE',  #132 ) ;
#27 = ROLE_ASSOCIATION ( #70, #94 ) ;
#28 = PRODUCT_DEFINITION_CONTEXT ( 'detailed design', #109, 'design' ) ;
#29 =( REPRESENTATION_RELATIONSHIP ('NONE','NONE', #121, #58 ) REPRESENTATION_RELATIONSHIP_WITH_TRANSFORMATION ( #43 )SHAPE_REPRESENTATION_RELATIONSHIP( ) );
#30 = APPLICATION_PROTOCOL_DEFINITION ( 'draft international standard', 'automotive_design', 1998, #116 ) ;
#31 =( NAMED_UNIT ( * ) SI_UNIT ( $, .STERADIAN. ) SOLID_ANGLE_UNIT ( ) );
#32 = DIRECTION ( 'NONE',  ( 0.9960938903411523659, -2.341930812374878797E-31, -0.08830040557680772506 ) ) ;
#33 = APPLICATION_CONTEXT ( 'automotive_design' ) ;
#34 = PROPERTY_DEFINITION ('document property','', #143 ) ;
#35 = DIRECTION ( 'NONE',  ( 1.000000000000000000, 0.000000000000000000, 0.000000000000000000 ) ) ;
#36 = PROPERTY_DEFINITION ('external definition','', #143 ) ;
#37 = APPLIED_DOCUMENT_REFERENCE ( #131,'',( #132) ) ;
#38 = APPLICATION_CONTEXT ( 'automotive_design' ) ;
#39 = OBJECT_ROLE ('mandatory',$ ) ;
#40 = DIRECTION ( 'NONE',  ( 0.08830040557680772506, 0.000000000000000000, 0.9960938903411523659 ) ) ;
#41 = DIRECTION ( 'NONE',  ( 1.000000000000000000, 0.000000000000000000, 0.000000000000000000 ) ) ;
#42 = APPLICATION_PROTOCOL_DEFINITION ( 'draft international standard', 'automotive_design', 1998, #109 ) ;
#43 = ITEM_DEFINED_TRANSFORMATION ( 'NONE', 'NONE', #144,  #125 ) ;
#44 = APPLICATION_CONTEXT ( 'automotive_design' ) ;
#45 = DIRECTION ( 'NONE',  ( 0.000000000000000000, 0.000000000000000000, 1.000000000000000000 ) ) ;
#46 = PRODUCT_DEFINITION_SHAPE ( 'NONE', 'NONE',  #85 ) ;
#47 =( NAMED_UNIT ( * ) PLANE_ANGLE_UNIT ( ) SI_UNIT ( $, .RADIAN. ) );
#48 = SHAPE_REPRESENTATION ( 'main-shaft_bearing-block', ( #95 ), #55 ) ;
#49 =( LENGTH_UNIT ( ) NAMED_UNIT ( * ) SI_UNIT ( .MILLI., .METRE. ) );
#50 =( NAMED_UNIT ( * ) PLANE_ANGLE_UNIT ( ) SI_UNIT ( $, .RADIAN. ) );
#51 = PROPERTY_DEFINITION_REPRESENTATION ( #36, #48 ) ;
#52 = ITEM_DEFINED_TRANSFORMATION ( 'NONE', 'NONE', #80,  #21 ) ;
#53 = PROPERTY_DEFINITION ('external definition','', #134 ) ;
#54 = PRODUCT_DEFINITION_CONTEXT ( 'detailed design', #33, 'design' ) ;
#55 =( GEOMETRIC_REPRESENTATION_CONTEXT ( 3 ) GLOBAL_UNCERTAINTY_ASSIGNED_CONTEXT ( ( #12 ) ) GLOBAL_UNIT_ASSIGNED_CONTEXT ( ( #74, #50, #31 ) ) REPRESENTATION_CONTEXT ( 'NONE', 'WORKASPACE' ) );
#56 = AXIS2_PLACEMENT_3D ( 'NONE', #20, #40, #32 ) ;
#57 = PRODUCT ( 'main-shaft_flange', 'main-shaft_flange', '', ( #15 ) ) ;
#58 = SHAPE_REPRESENTATION ( 'main-shaft_flange', ( #125 ), #136 ) ;
#59 =( NAMED_UNIT ( * ) SI_UNIT ( $, .STERADIAN. ) SOLID_ANGLE_UNIT ( ) );
#60 = PRODUCT_DEFINITION ( 'General', '', #25, #124 ) ;
#61 = PRODUCT ( 'main-shaft_shaft', 'main-shaft_shaft', '', ( #11 ) ) ;
#62 = CARTESIAN_POINT ( 'NONE',  ( 0.000000000000000000, 0.000000000000000000, 0.000000000000000000 ) ) ;
#63 = EXTERNAL_SOURCE (IDENTIFIER('') ) ;
#64 = PRODUCT_CONTEXT ( 'NONE', #87, 'mechanical' ) ;
#65 = PROPERTY_DEFINITION_REPRESENTATION ( #146, #58 ) ;
#66 = PRODUCT_RELATED_PRODUCT_CATEGORY ( 'part', '', ( #77 ) ) ;
#67 =( NAMED_UNIT ( * ) SI_UNIT ( $, .STERADIAN. ) SOLID_ANGLE_UNIT ( ) );
#68 = APPLIED_EXTERNAL_IDENTIFICATION_ASSIGNMENT ( 'main-shaft_shaft.STEP' , #128, #63,( #134) ) ;
#69 = DOCUMENT_TYPE ( 'geometry' ) ;
#70 = OBJECT_ROLE ('mandatory',$ ) ;
#71 = CARTESIAN_POINT ( 'NONE',  ( 987.6325987215508349, 942.6093072629405469, 1008.008802467971236 ) ) ;
#72 = DIRECTION ( 'NONE',  ( -0.4213421689719036856, 0.000000000000000000, 0.9069017458611776661 ) ) ;
#73 = IDENTIFICATION_ROLE ( 'external document id and location', $) ;
#74 =( LENGTH_UNIT ( ) NAMED_UNIT ( * ) SI_UNIT ( .MILLI., .METRE. ) );
#75 = PRODUCT_DEFINITION_FORMATION_WITH_SPECIFIED_SOURCE ( 'Symmetric', '', #86, .NOT_KNOWN. ) ;
#76 = PRODUCT_DEFINITION_CONTEXT ( 'detailed design', #38, 'design' ) ;
#77 = PRODUCT ( 'main-shaft_assy', 'main-shaft_assy', '', ( #147 ) ) ;
#78 =( LENGTH_UNIT ( ) NAMED_UNIT ( * ) SI_UNIT ( .MILLI., .METRE. ) );
#79 = CONTEXT_DEPENDENT_SHAPE_REPRESENTATION ( #29, #133 ) ;
#80 = AXIS2_PLACEMENT_3D ( 'NONE', #71, #72, #126 ) ;
#81 = APPLICATION_PROTOCOL_DEFINITION ( 'draft international standard', 'automotive_design', 1998, #38 ) ;
#82 = AXIS2_PLACEMENT_3D ( 'NONE', #18, #45, #130 ) ;
#83 =( REPRESENTATION_RELATIONSHIP ('NONE','NONE', #121, #16 ) REPRESENTATION_RELATIONSHIP_WITH_TRANSFORMATION ( #52 )SHAPE_REPRESENTATION_RELATIONSHIP( ) );
#84 = APPLICATION_PROTOCOL_DEFINITION ( 'draft international standard', 'automotive_design', 1998, #33 ) ;
#85 = PRODUCT_DEFINITION ( 'General', '', #140, #54 ) ;
#86 = PRODUCT ( 'main-shaft_bearing-block', 'main-shaft_bearing-block', '', ( #64 ) ) ;
#87 = APPLICATION_CONTEXT ( 'automotive_design' ) ;
#88 =( LENGTH_UNIT ( ) NAMED_UNIT ( * ) SI_UNIT ( .MILLI., .METRE. ) );
#89 = DOCUMENT_TYPE ( 'geometry' ) ;
#90 = PROPERTY_DEFINITION_REPRESENTATION ( #34, #48 ) ;
#91 = PROPERTY_DEFINITION ('document property','', #134 ) ;
#92 = SHAPE_DEFINITION_REPRESENTATION ( #99, #16 ) ;
#93 = EXTERNAL_SOURCE (IDENTIFIER('') ) ;
#94 = APPLIED_DOCUMENT_REFERENCE ( #134,'',( #60) ) ;
#95 = AXIS2_PLACEMENT_3D ( 'NONE', #114, #7, #35 ) ;
#96 = ITEM_DEFINED_TRANSFORMATION ( 'NONE', 'NONE', #56,  #95 ) ;
#97 = APPLIED_EXTERNAL_IDENTIFICATION_ASSIGNMENT ( 'main-shaft_bearing-block.STEP' , #148, #93,( #143) ) ;
#98 = APPLICATION_CONTEXT ( 'automotive_design' ) ;
#99 = PRODUCT_DEFINITION_SHAPE ( 'NONE', 'NONE',  #60 ) ;
#100 = EXTERNAL_SOURCE (IDENTIFIER('') ) ;
#101 =( NAMED_UNIT ( * ) SI_UNIT ( $, .STERADIAN. ) SOLID_ANGLE_UNIT ( ) );
#102 = DIRECTION ( 'NONE',  ( 0.000000000000000000, 0.000000000000000000, 1.000000000000000000 ) ) ;
#103 =( NAMED_UNIT ( * ) PLANE_ANGLE_UNIT ( ) SI_UNIT ( $, .RADIAN. ) );
#104 = PROPERTY_DEFINITION_REPRESENTATION ( #91, #16 ) ;
#105 = UNCERTAINTY_MEASURE_WITH_UNIT (LENGTH_MEASURE( 1.000000000000000082E-05 ), #49, 'distance_accuracy_value', 'NONE');
#106 = CONTEXT_DEPENDENT_SHAPE_REPRESENTATION ( #119, #2 ) ;
#107 = PRODUCT_RELATED_PRODUCT_CATEGORY ( 'part', '', ( #61 ) ) ;
#108 = APPLICATION_PROTOCOL_DEFINITION ( 'draft international standard', 'automotive_design', 1998, #87 ) ;
#109 = APPLICATION_CONTEXT ( 'automotive_design' ) ;
#110 = PRODUCT_DEFINITION_FORMATION_WITH_SPECIFIED_SOURCE ( 'Symmetric', '', #57, .NOT_KNOWN. ) ;
#111 = PRODUCT_RELATED_PRODUCT_CATEGORY ( 'part', '', ( #86 ) ) ;
#112 = OBJECT_ROLE ('mandatory',$ ) ;
#113 = CARTESIAN_POINT ( 'NONE',  ( 0.000000000000000000, 0.000000000000000000, 0.000000000000000000 ) ) ;
#114 = CARTESIAN_POINT ( 'NONE',  ( 0.000000000000000000, 0.000000000000000000, 0.000000000000000000 ) ) ;
#115 = DIRECTION ( 'NONE',  ( 0.000000000000000000, 0.000000000000000000, 1.000000000000000000 ) ) ;
#116 = APPLICATION_CONTEXT ( 'automotive_design' ) ;
#117 = APPLIED_EXTERNAL_IDENTIFICATION_ASSIGNMENT ( 'main-shaft_flange.STEP' , #73, #100,( #131) ) ;
#118 = ROLE_ASSOCIATION ( #39, #10 ) ;
#119 =( REPRESENTATION_RELATIONSHIP ('NONE','NONE', #121, #48 ) REPRESENTATION_RELATIONSHIP_WITH_TRANSFORMATION ( #96 )SHAPE_REPRESENTATION_RELATIONSHIP( ) );
#120 = APPLICATION_PROTOCOL_DEFINITION ( 'draft international standard', 'automotive_design', 1998, #98 ) ;
#121 = SHAPE_REPRESENTATION ( 'main-shaft_assy', ( #82, #80, #56, #144 ), #8 ) ;
#122 = PROPERTY_DEFINITION_REPRESENTATION ( #14, #58 ) ;
#123 = DIRECTION ( 'NONE',  ( -3.944304526105059027E-31, 1.972152263052529514E-31, 1.000000000000000444 ) ) ;
#124 = PRODUCT_DEFINITION_CONTEXT ( 'detailed design', #17, 'design' ) ;
#125 = AXIS2_PLACEMENT_3D ( 'NONE', #62, #115, #41 ) ;
#126 = DIRECTION ( 'NONE',  ( 0.9069017458611776661, -9.860761315262647568E-32, 0.4213421689719036856 ) ) ;
#127 = CARTESIAN_POINT ( 'NONE',  ( 987.6325987215515170, 984.6093072629406606, 1008.008802467971464 ) ) ;
#128 = IDENTIFICATION_ROLE ( 'external document id and location', $) ;
#129 = PRODUCT_DEFINITION_SHAPE ( 'NONE', 'NONE',  #145 ) ;
#130 = DIRECTION ( 'NONE',  ( 1.000000000000000000, 0.000000000000000000, 0.000000000000000000 ) ) ;
#131 = DOCUMENT_FILE ( 'main-shaft_flange.STEP' , '', '', #69, '' ,$ ) ;
#132 = PRODUCT_DEFINITION ( 'General', '', #110, #76 ) ;
#133 = PRODUCT_DEFINITION_SHAPE ( 'NONE', 'NONE',  #151 ) ;
#134 = DOCUMENT_FILE ( 'main-shaft_shaft.STEP' , '', '', #89, '' ,$ ) ;
#135 = DOCUMENT_TYPE ( 'geometry' ) ;
#136 =( GEOMETRIC_REPRESENTATION_CONTEXT ( 3 ) GLOBAL_UNCERTAINTY_ASSIGNED_CONTEXT ( ( #138 ) ) GLOBAL_UNIT_ASSIGNED_CONTEXT ( ( #88, #47, #101 ) ) REPRESENTATION_CONTEXT ( 'NONE', 'WORKASPACE' ) );
#137 = UNCERTAINTY_MEASURE_WITH_UNIT (LENGTH_MEASURE( 1.000000000000000082E-05 ), #78, 'distance_accuracy_value', 'NONE');
#138 = UNCERTAINTY_MEASURE_WITH_UNIT (LENGTH_MEASURE( 1.000000000000000082E-05 ), #88, 'distance_accuracy_value', 'NONE');
#139 = SHAPE_DEFINITION_REPRESENTATION ( #129, #48 ) ;
#140 = PRODUCT_DEFINITION_FORMATION_WITH_SPECIFIED_SOURCE ( 'Symmetric', '', #77, .NOT_KNOWN. ) ;
#141 = APPLICATION_PROTOCOL_DEFINITION ( 'draft international standard', 'automotive_design', 1998, #17 ) ;
#142 = PROPERTY_DEFINITION_REPRESENTATION ( #53, #16 ) ;
#143 = DOCUMENT_FILE ( 'main-shaft_bearing-block.STEP' , '', '', #135, '' ,$ ) ;
#144 = AXIS2_PLACEMENT_3D ( 'NONE', #127, #123, #24 ) ;
#145 = PRODUCT_DEFINITION ( 'General', '', #75, #28 ) ;
#146 = PROPERTY_DEFINITION ('external definition','', #131 ) ;
#147 = PRODUCT_CONTEXT ( 'NONE', #116, 'mechanical' ) ;
#148 = IDENTIFICATION_ROLE ( 'external document id and location', $) ;
#149 = NEXT_ASSEMBLY_USAGE_OCCURRENCE ( 'NAUO9', ' ', ' ', #85, #60, $ ) ;
#150 = NEXT_ASSEMBLY_USAGE_OCCURRENCE ( 'NAUO10', ' ', ' ', #85, #145, $ ) ;
#151 = NEXT_ASSEMBLY_USAGE_OCCURRENCE ( 'NAUO11', ' ', ' ', #85, #132, $ ) ;
ENDSEC;
END-ISO-10303-21;
