ISO-10303-21;
HEADER;
FILE_DESCRIPTION (( 'STEP AP214' ),
    '1' );
FILE_NAME ('main-shaft_bearing-block.STEP',
    '2026-01-08T13:34:32',
    ( '' ),
    ( '' ),
    'SwSTEP 2.0',
    'SolidWorks 2025',
    '' );
FILE_SCHEMA (( 'AUTOMOTIVE_DESIGN' ));
ENDSEC;

DATA;
#1 = CARTESIAN_POINT ( 'NONE',  ( 7.000000000000000000, 21.75000000000000000, 8.250000000000000000 ) ) ;
#2 = DIRECTION ( 'NONE',  ( 1.000000000000000000, -0.000000000000000000, 1.224646799147353207E-16 ) ) ;
#3 = ORIENTED_EDGE ( 'NONE', *, *, #447, .F. ) ;
#4 = EDGE_LOOP ( 'NONE', ( #455, #1092, #138, #574 ) ) ;
#5 = ADVANCED_FACE ( 'NONE', ( #1311, #1130, #927, #1103, #1342, #214 ), #623, .T. ) ;
#6 = PLANE ( 'NONE',  #754 ) ;
#7 = CARTESIAN_POINT ( 'NONE',  ( 7.000000000000000000, 21.75000000000000000, 7.000000000000000888 ) ) ;
#8 = ORIENTED_EDGE ( 'NONE', *, *, #876, .F. ) ;
#9 = EDGE_LOOP ( 'NONE', ( #266, #427, #1049, #448 ) ) ;
#10 = CARTESIAN_POINT ( 'NONE',  ( -7.000000000000000000, 26.75000000000000000, 8.750000000000003553 ) ) ;
#11 = EDGE_CURVE ( 'NONE', #223, #719, #1118, .T. ) ;
#12 = ORIENTED_EDGE ( 'NONE', *, *, #501, .F. ) ;
#13 = AXIS2_PLACEMENT_3D ( 'NONE', #1084, #159, #680 ) ;
#14 = CARTESIAN_POINT ( 'NONE',  ( 7.000000000000000000, 27.00000000000000000, 7.000000000000000888 ) ) ;
#15 = CIRCLE ( 'NONE', #1339, 1.499999999999999556 ) ;
#16 = ORIENTED_EDGE ( 'NONE', *, *, #496, .F. ) ;
#17 = TOROIDAL_SURFACE ( 'NONE', #820, 4.250000000000000000, 0.2500000000000000000 ) ;
#18 = DIRECTION ( 'NONE',  ( -0.000000000000000000, 1.000000000000000000, -0.000000000000000000 ) ) ;
#19 = AXIS2_PLACEMENT_3D ( 'NONE', #631, #720, #1036 ) ;
#20 = CARTESIAN_POINT ( 'NONE',  ( 0.000000000000000000, 15.00000000000000000, 0.000000000000000000 ) ) ;
#21 = EDGE_LOOP ( 'NONE', ( #1147, #1107 ) ) ;
#22 = EDGE_CURVE ( 'NONE', #769, #69, #420, .T. ) ;
#23 = DIRECTION ( 'NONE',  ( 0.000000000000000000, 1.000000000000000000, 0.000000000000000000 ) ) ;
#24 = ORIENTED_EDGE ( 'NONE', *, *, #897, .F. ) ;
#25 = DIRECTION ( 'NONE',  ( -0.000000000000000000, 1.000000000000000000, -0.000000000000000000 ) ) ;
#26 = CARTESIAN_POINT ( 'NONE',  ( 7.000000000000000000, 26.75000000000000000, -5.249999999999999112 ) ) ;
#27 = ADVANCED_FACE ( 'NONE', ( #1249 ), #379, .T. ) ;
#28 = DIRECTION ( 'NONE',  ( 0.000000000000000000, 0.000000000000000000, 1.000000000000000000 ) ) ;
#29 = ORIENTED_EDGE ( 'NONE', *, *, #675, .T. ) ;
#30 = ADVANCED_FACE ( 'NONE', ( #958 ), #523, .F. ) ;
#31 = CARTESIAN_POINT ( 'NONE',  ( -7.000000000000000888, 26.75000000000000000, -5.249999999999996447 ) ) ;
#32 = DIRECTION ( 'NONE',  ( 0.000000000000000000, 0.000000000000000000, -1.000000000000000000 ) ) ;
#33 = DIRECTION ( 'NONE',  ( 0.000000000000000000, 1.000000000000000000, 0.000000000000000000 ) ) ;
#34 = AXIS2_PLACEMENT_3D ( 'NONE', #1108, #1101, #1194 ) ;
#35 = EDGE_LOOP ( 'NONE', ( #829, #625, #933, #12 ) ) ;
#36 = CARTESIAN_POINT ( 'NONE',  ( 1.714505518806294441E-15, 0.2500000000000002220, 13.99999999999999822 ) ) ;
#37 = AXIS2_PLACEMENT_3D ( 'NONE', #1245, #1129, #722 ) ;
#38 = ADVANCED_FACE ( 'NONE', ( #855 ), #461, .F. ) ;
#39 = CIRCLE ( 'NONE', #804, 0.2500000000000002220 ) ;
#40 = LINE ( 'NONE', #477, #175 ) ;
#41 = AXIS2_PLACEMENT_3D ( 'NONE', #869, #1284, #350 ) ;
#42 = CIRCLE ( 'NONE', #1100, 1.500000000000000444 ) ;
#43 = EDGE_LOOP ( 'NONE', ( #1238, #221, #208, #977 ) ) ;
#44 = FACE_OUTER_BOUND ( 'NONE', #1279, .T. ) ;
#45 = DIRECTION ( 'NONE',  ( 0.000000000000000000, 0.000000000000000000, 1.000000000000000000 ) ) ;
#46 = ORIENTED_EDGE ( 'NONE', *, *, #526, .F. ) ;
#47 = DIRECTION ( 'NONE',  ( 0.000000000000000000, 0.000000000000000000, -1.000000000000000000 ) ) ;
#48 = DIRECTION ( 'NONE',  ( 0.000000000000000000, 0.000000000000000000, -1.000000000000000000 ) ) ;
#49 = EDGE_LOOP ( 'NONE', ( #244, #16, #1072, #854 ) ) ;
#50 = CARTESIAN_POINT ( 'NONE',  ( 7.000000000000000000, 27.00000000000000000, -5.249999999999999112 ) ) ;
#51 = DIRECTION ( 'NONE',  ( 0.000000000000000000, 0.000000000000000000, 1.000000000000000000 ) ) ;
#52 = ORIENTED_EDGE ( 'NONE', *, *, #1079, .F. ) ;
#53 = CARTESIAN_POINT ( 'NONE',  ( 0.000000000000000000, 26.75000000000000000, 0.000000000000000000 ) ) ;
#54 = DIRECTION ( 'NONE',  ( -0.000000000000000000, 1.000000000000000000, -0.000000000000000000 ) ) ;
#55 = ORIENTED_EDGE ( 'NONE', *, *, #876, .T. ) ;
#56 = CARTESIAN_POINT ( 'NONE',  ( -7.000000000000000000, 27.00000000000000000, 8.750000000000003553 ) ) ;
#57 = ADVANCED_FACE ( 'NONE', ( #1068 ), #1292, .F. ) ;
#58 = DIRECTION ( 'NONE',  ( 0.000000000000000000, 1.000000000000000000, 0.000000000000000000 ) ) ;
#59 = EDGE_LOOP ( 'NONE', ( #542, #796, #521, #256 ) ) ;
#60 = AXIS2_PLACEMENT_3D ( 'NONE', #286, #673, #689 ) ;
#61 = AXIS2_PLACEMENT_3D ( 'NONE', #227, #442, #1044 ) ;
#62 = CARTESIAN_POINT ( 'NONE',  ( 7.000000000000000000, 21.75000000000000000, 8.500000000000000000 ) ) ;
#63 = AXIS2_PLACEMENT_3D ( 'NONE', #564, #58, #1313 ) ;
#64 = ORIENTED_EDGE ( 'NONE', *, *, #675, .F. ) ;
#65 = AXIS2_PLACEMENT_3D ( 'NONE', #1124, #821, #100 ) ;
#66 = DIRECTION ( 'NONE',  ( 0.000000000000000000, 1.000000000000000000, 0.000000000000000000 ) ) ;
#67 = DIRECTION ( 'NONE',  ( 0.000000000000000000, 1.000000000000000000, 0.000000000000000000 ) ) ;
#68 = EDGE_CURVE ( 'NONE', #518, #786, #1170, .T. ) ;
#69 = VERTEX_POINT ( 'NONE', #36 ) ;
#70 = DIRECTION ( 'NONE',  ( 0.000000000000000000, 0.000000000000000000, 1.000000000000000000 ) ) ;
#71 =( NAMED_UNIT ( * ) PLANE_ANGLE_UNIT ( ) SI_UNIT ( $, .RADIAN. ) );
#72 = EDGE_LOOP ( 'NONE', ( #985, #75 ) ) ;
#73 = CARTESIAN_POINT ( 'NONE',  ( -7.000000000000000000, 21.75000000000000000, 8.500000000000003553 ) ) ;
#74 = DIRECTION ( 'NONE',  ( 0.000000000000000000, 1.000000000000000000, 0.000000000000000000 ) ) ;
#75 = ORIENTED_EDGE ( 'NONE', *, *, #1157, .T. ) ;
#76 = DIRECTION ( 'NONE',  ( 0.000000000000000000, 0.000000000000000000, 1.000000000000000000 ) ) ;
#77 = ADVANCED_FACE ( 'NONE', ( #452 ), #446, .F. ) ;
#78 = CARTESIAN_POINT ( 'NONE',  ( 0.000000000000000000, 27.00000000000000000, 0.000000000000000000 ) ) ;
#79 = DIRECTION ( 'NONE',  ( 0.000000000000000000, 0.000000000000000000, -1.000000000000000000 ) ) ;
#80 = DIRECTION ( 'NONE',  ( 0.000000000000000000, 1.000000000000000000, 0.000000000000000000 ) ) ;
#81 = CIRCLE ( 'NONE', #613, 1.750000000000000666 ) ;
#82 = ADVANCED_FACE ( 'NONE', ( #668 ), #872, .T. ) ;
#83 = AXIS2_PLACEMENT_3D ( 'NONE', #1168, #944, #743 ) ;
#84 = EDGE_LOOP ( 'NONE', ( #666, #228, #568, #802 ) ) ;
#85 = DIRECTION ( 'NONE',  ( 0.000000000000000000, 1.000000000000000000, 0.000000000000000000 ) ) ;
#86 = AXIS2_PLACEMENT_3D ( 'NONE', #261, #670, #1081 ) ;
#87 = TOROIDAL_SURFACE ( 'NONE', #1122, 6.750000000000000000, 0.2500000000000000000 ) ;
#88 = CARTESIAN_POINT ( 'NONE',  ( 7.000000000000000000, 26.75000000000000000, 8.500000000000000000 ) ) ;
#89 =( GEOMETRIC_REPRESENTATION_CONTEXT ( 3 ) GLOBAL_UNCERTAINTY_ASSIGNED_CONTEXT ( ( #92 ) ) GLOBAL_UNIT_ASSIGNED_CONTEXT ( ( #505, #1003, #1231 ) ) REPRESENTATION_CONTEXT ( 'NONE', 'WORKASPACE' ) );
#90 = CARTESIAN_POINT ( 'NONE',  ( 0.000000000000000000, 0.2500000000000000000, 0.000000000000000000 ) ) ;
#91 = VERTEX_POINT ( 'NONE', #1287 ) ;
#92 = UNCERTAINTY_MEASURE_WITH_UNIT (LENGTH_MEASURE( 1.000000000000000082E-05 ), #505, 'distance_accuracy_value', 'NONE');
#93 = CARTESIAN_POINT ( 'NONE',  ( -7.000000000000000000, 26.75000000000000000, 8.500000000000003553 ) ) ;
#94 = DIRECTION ( 'NONE',  ( 0.000000000000000000, 0.000000000000000000, 1.000000000000000000 ) ) ;
#95 = CARTESIAN_POINT ( 'NONE',  ( 1.699197433816952350E-15, 27.00000000000000000, -13.74999999999999822 ) ) ;
#96 = ORIENTED_EDGE ( 'NONE', *, *, #646, .T. ) ;
#97 = CARTESIAN_POINT ( 'NONE',  ( 7.000000000000000000, 21.50000000000000000, 8.500000000000000000 ) ) ;
#98 = EDGE_CURVE ( 'NONE', #309, #790, #857, .T. ) ;
#99 = CARTESIAN_POINT ( 'NONE',  ( 0.000000000000000000, 0.2500000000000002220, 0.000000000000000000 ) ) ;
#100 = DIRECTION ( 'NONE',  ( 0.000000000000000000, 0.000000000000000000, 1.000000000000000000 ) ) ;
#101 = AXIS2_PLACEMENT_3D ( 'NONE', #657, #1064, #1153 ) ;
#102 = AXIS2_PLACEMENT_3D ( 'NONE', #1192, #280, #262 ) ;
#103 = EDGE_CURVE ( 'NONE', #629, #669, #272, .T. ) ;
#104 = DIRECTION ( 'NONE',  ( 0.000000000000000000, 0.000000000000000000, -1.000000000000000000 ) ) ;
#105 = AXIS2_PLACEMENT_3D ( 'NONE', #162, #569, #456 ) ;
#106 = AXIS2_PLACEMENT_3D ( 'NONE', #1060, #319, #1048 ) ;
#107 = ORIENTED_EDGE ( 'NONE', *, *, #1340, .T. ) ;
#108 = DIRECTION ( 'NONE',  ( 0.000000000000000000, 1.000000000000000000, 0.000000000000000000 ) ) ;
#109 = VERTEX_POINT ( 'NONE', #974 ) ;
#110 = DIRECTION ( 'NONE',  ( 0.000000000000000000, 0.000000000000000000, 1.000000000000000000 ) ) ;
#111 = ORIENTED_EDGE ( 'NONE', *, *, #1175, .T. ) ;
#112 = DIRECTION ( 'NONE',  ( 0.000000000000000000, 0.000000000000000000, 1.000000000000000000 ) ) ;
#113 = APPLICATION_CONTEXT ( 'automotive_design' ) ;
#114 = ADVANCED_FACE ( 'NONE', ( #440 ), #354, .F. ) ;
#115 = CARTESIAN_POINT ( 'NONE',  ( -7.000000000000000888, 26.75000000000000000, -6.999999999999997335 ) ) ;
#116 = ORIENTED_EDGE ( 'NONE', *, *, #1157, .F. ) ;
#117 = DIRECTION ( 'NONE',  ( 0.000000000000000000, 0.000000000000000000, 1.000000000000000000 ) ) ;
#118 = EDGE_LOOP ( 'NONE', ( #126, #1152, #783, #871 ) ) ;
#119 = DIRECTION ( 'NONE',  ( -0.000000000000000000, 1.000000000000000000, -0.000000000000000000 ) ) ;
#120 = EDGE_CURVE ( 'NONE', #133, #960, #1269, .T. ) ;
#121 = DIRECTION ( 'NONE',  ( 0.000000000000000000, 1.000000000000000000, 0.000000000000000000 ) ) ;
#122 = VERTEX_POINT ( 'NONE', #770 ) ;
#123 = CIRCLE ( 'NONE', #247, 4.250000000000000000 ) ;
#124 = CARTESIAN_POINT ( 'NONE',  ( -7.000000000000000888, 26.75000000000000000, -6.999999999999997335 ) ) ;
#125 = AXIS2_PLACEMENT_3D ( 'NONE', #649, #473, #352 ) ;
#126 = ORIENTED_EDGE ( 'NONE', *, *, #1220, .F. ) ;
#127 = VECTOR ( 'NONE', #1218, 1000.000000000000000 ) ;
#128 = DIRECTION ( 'NONE',  ( 0.000000000000000000, 0.000000000000000000, 1.000000000000000000 ) ) ;
#129 = UNCERTAINTY_MEASURE_WITH_UNIT (LENGTH_MEASURE( 1.000000000000000082E-05 ), #1057, 'distance_accuracy_value', 'NONE');
#130 = DIRECTION ( 'NONE',  ( 0.000000000000000000, 1.000000000000000000, 0.000000000000000000 ) ) ;
#131 = EDGE_CURVE ( 'NONE', #1200, #1169, #123, .T. ) ;
#132 =( NAMED_UNIT ( * ) SI_UNIT ( $, .STERADIAN. ) SOLID_ANGLE_UNIT ( ) );
#133 = VERTEX_POINT ( 'NONE', #236 ) ;
#134 = DIRECTION ( 'NONE',  ( 0.000000000000000000, 1.000000000000000000, 0.000000000000000000 ) ) ;
#135 = DIRECTION ( 'NONE',  ( 0.000000000000000000, 0.000000000000000000, 1.000000000000000000 ) ) ;
#136 = PRESENTATION_STYLE_ASSIGNMENT (( #848 ) ) ;
#137 = ADVANCED_FACE ( 'NONE', ( #251 ), #651, .F. ) ;
#138 = ORIENTED_EDGE ( 'NONE', *, *, #1141, .F. ) ;
#139 = DIRECTION ( 'NONE',  ( 0.000000000000000000, 1.000000000000000000, 0.000000000000000000 ) ) ;
#140 = EDGE_LOOP ( 'NONE', ( #1080, #932 ) ) ;
#141 = DIRECTION ( 'NONE',  ( 0.000000000000000000, 0.000000000000000000, 1.000000000000000000 ) ) ;
#142 = TOROIDAL_SURFACE ( 'NONE', #166, 1.249999999999999556, 0.2500000000000000000 ) ;
#143 = DIRECTION ( 'NONE',  ( 0.000000000000000000, 1.000000000000000000, 0.000000000000000000 ) ) ;
#144 = EDGE_LOOP ( 'NONE', ( #807, #1241, #1067, #946 ) ) ;
#145 = DIRECTION ( 'NONE',  ( 0.000000000000000000, 0.000000000000000000, 1.000000000000000000 ) ) ;
#146 = AXIS2_PLACEMENT_3D ( 'NONE', #896, #1029, #708 ) ;
#147 = CIRCLE ( 'NONE', #315, 13.99999999999999822 ) ;
#148 = CIRCLE ( 'NONE', #911, 1.499999999999999556 ) ;
#149 = ORIENTED_EDGE ( 'NONE', *, *, #1047, .F. ) ;
#150 = CARTESIAN_POINT ( 'NONE',  ( 0.000000000000000000, 26.75000000000000000, 0.000000000000000000 ) ) ;
#151 = DIRECTION ( 'NONE',  ( 1.000000000000000000, -0.000000000000000000, 1.224646799147353207E-16 ) ) ;
#152 = ORIENTED_EDGE ( 'NONE', *, *, #1319, .T. ) ;
#153 = FACE_OUTER_BOUND ( 'NONE', #942, .T. ) ;
#154 = DIRECTION ( 'NONE',  ( 0.000000000000000000, 0.000000000000000000, 1.000000000000000000 ) ) ;
#155 = VERTEX_POINT ( 'NONE', #1280 ) ;
#156 = DIRECTION ( 'NONE',  ( 0.000000000000000000, 1.000000000000000000, 0.000000000000000000 ) ) ;
#157 = LINE ( 'NONE', #1076, #466 ) ;
#158 = EDGE_LOOP ( 'NONE', ( #953, #527, #596, #307 ) ) ;
#159 = DIRECTION ( 'NONE',  ( -1.000000000000000000, 0.000000000000000000, 0.000000000000000000 ) ) ;
#160 = ADVANCED_FACE ( 'NONE', ( #428 ), #347, .F. ) ;
#161 = EDGE_LOOP ( 'NONE', ( #24, #519, #343, #916 ) ) ;
#162 = CARTESIAN_POINT ( 'NONE',  ( -7.000000000000000000, 26.75000000000000000, 7.000000000000004441 ) ) ;
#163 = PLANE ( 'NONE',  #386 ) ;
#164 = ORIENTED_EDGE ( 'NONE', *, *, #922, .T. ) ;
#165 = CARTESIAN_POINT ( 'NONE',  ( 7.000000000000000000, 21.75000000000000000, -8.249999999999998224 ) ) ;
#166 = AXIS2_PLACEMENT_3D ( 'NONE', #1302, #390, #810 ) ;
#167 = AXIS2_PLACEMENT_3D ( 'NONE', #372, #757, #1163 ) ;
#168 = AXIS2_PLACEMENT_3D ( 'NONE', #90, #297, #1038 ) ;
#169 = DIRECTION ( 'NONE',  ( -1.000000000000000000, 0.000000000000000000, 0.000000000000000000 ) ) ;
#170 = AXIS2_PLACEMENT_3D ( 'NONE', #398, #1323, #1214 ) ;
#171 = EDGE_LOOP ( 'NONE', ( #1212, #1032 ) ) ;
#172 = CIRCLE ( 'NONE', #1035, 7.000000000000000000 ) ;
#173 = DIRECTION ( 'NONE',  ( -0.000000000000000000, -1.000000000000000000, -0.000000000000000000 ) ) ;
#174 = ADVANCED_FACE ( 'NONE', ( #634 ), #723, .T. ) ;
#175 = VECTOR ( 'NONE', #54, 1000.000000000000000 ) ;
#176 = CARTESIAN_POINT ( 'NONE',  ( -7.000000000000000000, 21.50000000000000000, 7.000000000000004441 ) ) ;
#177 = ADVANCED_FACE ( 'NONE', ( #476 ), #383, .F. ) ;
#178 = ORIENTED_EDGE ( 'NONE', *, *, #1030, .F. ) ;
#179 = FACE_OUTER_BOUND ( 'NONE', #144, .T. ) ;
#180 = ORIENTED_EDGE ( 'NONE', *, *, #758, .F. ) ;
#181 = DIRECTION ( 'NONE',  ( 0.000000000000000000, 1.000000000000000000, 0.000000000000000000 ) ) ;
#182 = DIRECTION ( 'NONE',  ( 0.000000000000000000, 1.000000000000000000, 0.000000000000000000 ) ) ;
#183 = EDGE_LOOP ( 'NONE', ( #618, #361, #551, #1190 ) ) ;
#184 = EDGE_CURVE ( 'NONE', #155, #1099, #907, .T. ) ;
#185 = ORIENTED_EDGE ( 'NONE', *, *, #22, .F. ) ;
#186 = DIRECTION ( 'NONE',  ( -0.000000000000000000, 1.000000000000000000, -0.000000000000000000 ) ) ;
#187 = DIRECTION ( 'NONE',  ( 0.000000000000000000, 0.000000000000000000, 1.000000000000000000 ) ) ;
#188 = EDGE_LOOP ( 'NONE', ( #772, #849, #164, #419 ) ) ;
#189 = CIRCLE ( 'NONE', #945, 0.2500000000000002220 ) ;
#190 = CARTESIAN_POINT ( 'NONE',  ( 0.000000000000000000, 14.75000000000000000, 0.000000000000000000 ) ) ;
#191 = CIRCLE ( 'NONE', #948, 1.500000000000000444 ) ;
#192 = AXIS2_PLACEMENT_3D ( 'NONE', #851, #108, #435 ) ;
#193 = CIRCLE ( 'NONE', #951, 4.250000000000000000 ) ;
#194 = DIRECTION ( 'NONE',  ( 0.000000000000000000, 1.000000000000000000, 0.000000000000000000 ) ) ;
#195 = EDGE_CURVE ( 'NONE', #1304, #309, #81, .T. ) ;
#196 = CARTESIAN_POINT ( 'NONE',  ( 8.878689293818310074E-16, 27.00000000000000000, -7.250000000000000000 ) ) ;
#197 = FACE_OUTER_BOUND ( 'NONE', #238, .T. ) ;
#198 = VERTEX_POINT ( 'NONE', #362 ) ;
#199 = CARTESIAN_POINT ( 'NONE',  ( -7.000000000000000000, 21.50000000000000000, 8.500000000000003553 ) ) ;
#200 = EDGE_CURVE ( 'NONE', #719, #223, #1317, .T. ) ;
#201 = DIRECTION ( 'NONE',  ( -0.000000000000000000, -1.000000000000000000, -0.000000000000000000 ) ) ;
#202 = CARTESIAN_POINT ( 'NONE',  ( -7.000000000000000888, 27.00000000000000000, -5.249999999999996447 ) ) ;
#203 = CARTESIAN_POINT ( 'NONE',  ( -7.000000000000000000, 21.50000000000000000, 7.000000000000004441 ) ) ;
#204 = DIRECTION ( 'NONE',  ( -0.000000000000000000, -1.000000000000000000, -0.000000000000000000 ) ) ;
#205 = TOROIDAL_SURFACE ( 'NONE', #547, 1.750000000000000666, 0.2500000000000000000 ) ;
#206 = ORIENTED_EDGE ( 'NONE', *, *, #646, .F. ) ;
#207 = TOROIDAL_SURFACE ( 'NONE', #1322, 1.249999999999999556, 0.2500000000000000000 ) ;
#208 = ORIENTED_EDGE ( 'NONE', *, *, #120, .T. ) ;
#209 = CARTESIAN_POINT ( 'NONE',  ( 7.000000000000000000, 21.75000000000000000, -8.499999999999998224 ) ) ;
#210 = EDGE_CURVE ( 'NONE', #413, #628, #488, .T. ) ;
#211 = AXIS2_PLACEMENT_3D ( 'NONE', #277, #695, #141 ) ;
#212 = AXIS2_PLACEMENT_3D ( 'NONE', #645, #934, #748 ) ;
#213 = VERTEX_POINT ( 'NONE', #465 ) ;
#214 = FACE_OUTER_BOUND ( 'NONE', #1217, .T. ) ;
#215 = DIRECTION ( 'NONE',  ( 0.000000000000000000, 0.000000000000000000, 1.000000000000000000 ) ) ;
#216 = DIRECTION ( 'NONE',  ( -0.000000000000000000, -1.000000000000000000, -0.000000000000000000 ) ) ;
#217 = ADVANCED_FACE ( 'NONE', ( #1308 ), #921, .T. ) ;
#218 = EDGE_LOOP ( 'NONE', ( #555, #1197, #451, #1142 ) ) ;
#219 = DIRECTION ( 'NONE',  ( 0.000000000000000000, 0.000000000000000000, 1.000000000000000000 ) ) ;
#220 = CARTESIAN_POINT ( 'NONE',  ( -7.000000000000000888, 21.75000000000000000, -6.999999999999997335 ) ) ;
#221 = ORIENTED_EDGE ( 'NONE', *, *, #1301, .T. ) ;
#222 = FACE_BOUND ( 'NONE', #140, .T. ) ;
#223 = VERTEX_POINT ( 'NONE', #698 ) ;
#224 = CYLINDRICAL_SURFACE ( 'NONE', #490, 1.500000000000000444 ) ;
#225 = AXIS2_PLACEMENT_3D ( 'NONE', #538, #25, #1148 ) ;
#226 = CIRCLE ( 'NONE', #61, 1.249999999999999334 ) ;
#227 = CARTESIAN_POINT ( 'NONE',  ( 7.000000000000000000, 21.50000000000000000, 7.000000000000000888 ) ) ;
#228 = ORIENTED_EDGE ( 'NONE', *, *, #732, .T. ) ;
#229 = AXIS2_PLACEMENT_3D ( 'NONE', #1, #1213, #1327 ) ;
#230 = CIRCLE ( 'NONE', #1160, 1.749999999999999778 ) ;
#231 = CARTESIAN_POINT ( 'NONE',  ( 0.000000000000000000, 15.00000000000000000, 4.250000000000000000 ) ) ;
#232 = EDGE_CURVE ( 'NONE', #370, #786, #1151, .T. ) ;
#233 = EDGE_LOOP ( 'NONE', ( #310, #298 ) ) ;
#234 = DIRECTION ( 'NONE',  ( -0.000000000000000000, -1.000000000000000000, -0.000000000000000000 ) ) ;
#235 = EDGE_LOOP ( 'NONE', ( #376, #694 ) ) ;
#236 = CARTESIAN_POINT ( 'NONE',  ( 0.000000000000000000, 15.25000000000000000, 7.000000000000000000 ) ) ;
#237 = CARTESIAN_POINT ( 'NONE',  ( 8.572527594031473190E-16, 15.00000000000000000, -7.000000000000000000 ) ) ;
#238 = EDGE_LOOP ( 'NONE', ( #3, #111, #46, #1132 ) ) ;
#239 = CARTESIAN_POINT ( 'NONE',  ( -7.000000000000000000, 26.75000000000000000, 5.500000000000005329 ) ) ;
#240 = ADVANCED_FACE ( 'NONE', ( #903 ), #593, .T. ) ;
#241 = DIRECTION ( 'NONE',  ( -0.000000000000000000, -1.000000000000000000, -0.000000000000000000 ) ) ;
#242 = ORIENTED_EDGE ( 'NONE', *, *, #341, .T. ) ;
#243 = CARTESIAN_POINT ( 'NONE',  ( 0.000000000000000000, 15.00000000000000000, 7.000000000000000000 ) ) ;
#244 = ORIENTED_EDGE ( 'NONE', *, *, #560, .F. ) ;
#245 = FACE_OUTER_BOUND ( 'NONE', #755, .T. ) ;
#246 = ADVANCED_FACE ( 'NONE', ( #179 ), #1334, .T. ) ;
#247 = AXIS2_PLACEMENT_3D ( 'NONE', #1177, #329, #739 ) ;
#248 = DIRECTION ( 'NONE',  ( 0.000000000000000000, -0.000000000000000000, 1.000000000000000000 ) ) ;
#249 = ORIENTED_EDGE ( 'NONE', *, *, #922, .F. ) ;
#250 = EDGE_CURVE ( 'NONE', #1169, #1200, #332, .T. ) ;
#251 = FACE_OUTER_BOUND ( 'NONE', #481, .T. ) ;
#252 = AXIS2_PLACEMENT_3D ( 'NONE', #909, #702, #816 ) ;
#253 = CIRCLE ( 'NONE', #41, 7.250000000000000000 ) ;
#254 = EDGE_LOOP ( 'NONE', ( #558, #306, #474, #185 ) ) ;
#255 = DIRECTION ( 'NONE',  ( 0.000000000000000000, 0.000000000000000000, 1.000000000000000000 ) ) ;
#256 = ORIENTED_EDGE ( 'NONE', *, *, #856, .F. ) ;
#257 = DIRECTION ( 'NONE',  ( 0.000000000000000000, 0.000000000000000000, 1.000000000000000000 ) ) ;
#258 = ADVANCED_FACE ( 'NONE', ( #271 ), #142, .F. ) ;
#259 = CARTESIAN_POINT ( 'NONE',  ( 7.000000000000000000, 26.75000000000000000, -5.500000000000000000 ) ) ;
#260 = ORIENTED_EDGE ( 'NONE', *, *, #976, .T. ) ;
#261 = CARTESIAN_POINT ( 'NONE',  ( 0.000000000000000000, 26.75000000000000000, 0.000000000000000000 ) ) ;
#262 = DIRECTION ( 'NONE',  ( 0.000000000000000000, -0.000000000000000000, 1.000000000000000000 ) ) ;
#263 = EDGE_LOOP ( 'NONE', ( #517, #152, #55, #349 ) ) ;
#264 = DIRECTION ( 'NONE',  ( 0.000000000000000000, 0.000000000000000000, 1.000000000000000000 ) ) ;
#265 = DIRECTION ( 'NONE',  ( -0.000000000000000000, -1.000000000000000000, -0.000000000000000000 ) ) ;
#266 = ORIENTED_EDGE ( 'NONE', *, *, #414, .F. ) ;
#267 = EDGE_CURVE ( 'NONE', #669, #629, #1091, .T. ) ;
#268 = DIRECTION ( 'NONE',  ( -0.000000000000000000, -1.000000000000000000, -0.000000000000000000 ) ) ;
#269 = DIRECTION ( 'NONE',  ( -0.000000000000000000, 1.000000000000000000, -0.000000000000000000 ) ) ;
#270 = ORIENTED_EDGE ( 'NONE', *, *, #303, .T. ) ;
#271 = FACE_OUTER_BOUND ( 'NONE', #434, .T. ) ;
#272 = CIRCLE ( 'NONE', #357, 6.750000000000000000 ) ;
#273 = PRESENTATION_LAYER_ASSIGNMENT (  '', '', ( #818 ) ) ;
#274 = CIRCLE ( 'NONE', #1226, 13.74999999999999822 ) ;
#275 = ORIENTED_EDGE ( 'NONE', *, *, #918, .T. ) ;
#276 = AXIS2_PLACEMENT_3D ( 'NONE', #798, #268, #578 ) ;
#277 = CARTESIAN_POINT ( 'NONE',  ( -7.000000000000000000, 21.75000000000000000, 8.250000000000003553 ) ) ;
#278 = ADVANCED_FACE ( 'NONE', ( #153 ), #205, .T. ) ;
#279 = MECHANICAL_DESIGN_GEOMETRIC_PRESENTATION_REPRESENTATION (  '', ( #863 ), #89 ) ;
#280 = DIRECTION ( 'NONE',  ( 0.000000000000000000, 1.000000000000000000, 0.000000000000000000 ) ) ;
#281 = ORIENTED_EDGE ( 'NONE', *, *, #648, .T. ) ;
#282 = DIRECTION ( 'NONE',  ( 0.000000000000000000, 1.000000000000000000, 0.000000000000000000 ) ) ;
#283 = ORIENTED_EDGE ( 'NONE', *, *, #636, .F. ) ;
#284 = DIRECTION ( 'NONE',  ( 0.000000000000000000, 0.000000000000000000, 1.000000000000000000 ) ) ;
#285 = FACE_OUTER_BOUND ( 'NONE', #409, .T. ) ;
#286 = CARTESIAN_POINT ( 'NONE',  ( 0.000000000000000000, 15.00000000000000000, 0.000000000000000000 ) ) ;
#287 = ORIENTED_EDGE ( 'NONE', *, *, #314, .F. ) ;
#288 = CARTESIAN_POINT ( 'NONE',  ( 8.572527594031473190E-16, 26.75000000000000000, -7.000000000000000000 ) ) ;
#289 = DIRECTION ( 'NONE',  ( 0.000000000000000000, 1.000000000000000000, 0.000000000000000000 ) ) ;
#290 = FACE_OUTER_BOUND ( 'NONE', #1025, .T. ) ;
#291 = AXIS2_PLACEMENT_3D ( 'NONE', #963, #543, #145 ) ;
#292 = CIRCLE ( 'NONE', #525, 1.750000000000000666 ) ;
#293 = DIRECTION ( 'NONE',  ( -1.000000000000000000, 0.000000000000000000, 0.000000000000000000 ) ) ;
#294 = CIRCLE ( 'NONE', #1053, 0.2500000000000002220 ) ;
#295 = CARTESIAN_POINT ( 'NONE',  ( 7.000000000000000000, 21.50000000000000000, 8.250000000000000000 ) ) ;
#296 = CIRCLE ( 'NONE', #929, 0.2500000000000002220 ) ;
#297 = DIRECTION ( 'NONE',  ( -0.000000000000000000, -1.000000000000000000, -0.000000000000000000 ) ) ;
#298 = ORIENTED_EDGE ( 'NONE', *, *, #195, .T. ) ;
#299 = EDGE_CURVE ( 'NONE', #669, #133, #487, .T. ) ;
#300 = FACE_OUTER_BOUND ( 'NONE', #183, .T. ) ;
#301 = CARTESIAN_POINT ( 'NONE',  ( 7.000000000000000000, 21.75000000000000000, -5.500000000000000000 ) ) ;
#302 = EDGE_LOOP ( 'NONE', ( #514, #29, #260, #471 ) ) ;
#303 = EDGE_CURVE ( 'NONE', #337, #413, #189, .T. ) ;
#304 = CARTESIAN_POINT ( 'NONE',  ( 0.000000000000000000, 26.75000000000000000, 7.000000000000000000 ) ) ;
#305 = EDGE_CURVE ( 'NONE', #1042, #786, #360, .T. ) ;
#306 = ORIENTED_EDGE ( 'NONE', *, *, #648, .F. ) ;
#307 = ORIENTED_EDGE ( 'NONE', *, *, #1167, .F. ) ;
#308 = FACE_BOUND ( 'NONE', #171, .T. ) ;
#309 = VERTEX_POINT ( 'NONE', #202 ) ;
#310 = ORIENTED_EDGE ( 'NONE', *, *, #399, .T. ) ;
#311 = VECTOR ( 'NONE', #482, 1000.000000000000000 ) ;
#312 = CARTESIAN_POINT ( 'NONE',  ( 7.000000000000000000, 21.75000000000000000, 5.750000000000001776 ) ) ;
#313 = AXIS2_PLACEMENT_3D ( 'NONE', #327, #731, #28 ) ;
#314 = EDGE_CURVE ( 'NONE', #629, #762, #801, .T. ) ;
#315 = AXIS2_PLACEMENT_3D ( 'NONE', #760, #1259, #1166 ) ;
#316 = CARTESIAN_POINT ( 'NONE',  ( 7.000000000000000000, 21.75000000000000000, 7.000000000000000888 ) ) ;
#317 = TOROIDAL_SURFACE ( 'NONE', #529, 4.250000000000000000, 0.2500000000000000000 ) ;
#318 = EDGE_LOOP ( 'NONE', ( #107, #724 ) ) ;
#319 = DIRECTION ( 'NONE',  ( -0.000000000000000000, -1.000000000000000000, -0.000000000000000000 ) ) ;
#320 = ADVANCED_FACE ( 'NONE', ( #197 ), #882, .F. ) ;
#321 = DIRECTION ( 'NONE',  ( 0.000000000000000000, 0.000000000000000000, 1.000000000000000000 ) ) ;
#322 = ORIENTED_EDGE ( 'NONE', *, *, #1047, .T. ) ;
#323 = CARTESIAN_POINT ( 'NONE',  ( -7.000000000000000000, 21.75000000000000000, 7.000000000000004441 ) ) ;
#324 = DIRECTION ( 'NONE',  ( -1.000000000000000000, 0.000000000000000000, 0.000000000000000000 ) ) ;
#325 = VERTEX_POINT ( 'NONE', #919 ) ;
#326 = CARTESIAN_POINT ( 'NONE',  ( 7.000000000000000000, 21.75000000000000000, -6.999999999999999112 ) ) ;
#327 = CARTESIAN_POINT ( 'NONE',  ( 7.000000000000000000, 26.75000000000000000, 8.750000000000000000 ) ) ;
#328 = ORIENTED_EDGE ( 'NONE', *, *, #1123, .T. ) ;
#329 = DIRECTION ( 'NONE',  ( -0.000000000000000000, -1.000000000000000000, -0.000000000000000000 ) ) ;
#330 = ADVANCED_FACE ( 'NONE', ( #412 ), #1329, .F. ) ;
#331 = DIRECTION ( 'NONE',  ( 0.000000000000000000, 1.000000000000000000, 0.000000000000000000 ) ) ;
#332 = CIRCLE ( 'NONE', #747, 4.250000000000000000 ) ;
#333 = CIRCLE ( 'NONE', #1184, 1.249999999999999334 ) ;
#334 = AXIS2_PLACEMENT_3D ( 'NONE', #220, #216, #1278 ) ;
#335 = DIRECTION ( 'NONE',  ( 0.000000000000000000, 1.000000000000000000, 0.000000000000000000 ) ) ;
#336 = CIRCLE ( 'NONE', #313, 0.2500000000000002220 ) ;
#337 = VERTEX_POINT ( 'NONE', #915 ) ;
#338 = AXIS2_PLACEMENT_3D ( 'NONE', #983, #1191, #374 ) ;
#339 = DIRECTION ( 'NONE',  ( 0.000000000000000000, 0.000000000000000000, 1.000000000000000000 ) ) ;
#340 = AXIS2_PLACEMENT_3D ( 'NONE', #453, #169, #1189 ) ;
#341 = EDGE_CURVE ( 'NONE', #382, #413, #908, .T. ) ;
#342 = DIRECTION ( 'NONE',  ( 0.000000000000000000, 1.000000000000000000, 0.000000000000000000 ) ) ;
#343 = ORIENTED_EDGE ( 'NONE', *, *, #305, .F. ) ;
#344 = CARTESIAN_POINT ( 'NONE',  ( 0.000000000000000000, 0.2500000000000002220, -13.99999999999999822 ) ) ;
#345 = CARTESIAN_POINT ( 'NONE',  ( -7.000000000000000000, 26.75000000000000000, 7.000000000000004441 ) ) ;
#346 = ORIENTED_EDGE ( 'NONE', *, *, #1340, .F. ) ;
#347 = CYLINDRICAL_SURFACE ( 'NONE', #1178, 4.000000000000000000 ) ;
#348 = DIRECTION ( 'NONE',  ( 0.000000000000000000, 0.000000000000000000, 1.000000000000000000 ) ) ;
#349 = ORIENTED_EDGE ( 'NONE', *, *, #120, .F. ) ;
#350 = DIRECTION ( 'NONE',  ( 0.000000000000000000, 0.000000000000000000, 1.000000000000000000 ) ) ;
#351 = ADVANCED_FACE ( 'NONE', ( #931 ), #991, .T. ) ;
#352 = DIRECTION ( 'NONE',  ( 0.000000000000000000, 0.000000000000000000, -1.000000000000000000 ) ) ;
#353 = ORIENTED_EDGE ( 'NONE', *, *, #410, .F. ) ;
#354 = CYLINDRICAL_SURFACE ( 'NONE', #1223, 1.500000000000000444 ) ;
#355 = VERTEX_POINT ( 'NONE', #704 ) ;
#356 = FACE_OUTER_BOUND ( 'NONE', #4, .T. ) ;
#357 = AXIS2_PLACEMENT_3D ( 'NONE', #844, #134, #128 ) ;
#358 = CARTESIAN_POINT ( 'NONE',  ( 7.000000000000000000, 27.00000000000000000, -8.749999999999998224 ) ) ;
#359 = ADVANCED_FACE ( 'NONE', ( #290 ), #500, .T. ) ;
#360 = CIRCLE ( 'NONE', #146, 1.499999999999999556 ) ;
#361 = ORIENTED_EDGE ( 'NONE', *, *, #1274, .T. ) ;
#362 = CARTESIAN_POINT ( 'NONE',  ( 0.000000000000000000, 14.75000000000000000, 4.000000000000000000 ) ) ;
#363 = AXIS2_PLACEMENT_3D ( 'NONE', #579, #74, #663 ) ;
#364 = AXIS2_PLACEMENT_3D ( 'NONE', #546, #173, #449 ) ;
#365 = CARTESIAN_POINT ( 'NONE',  ( 0.000000000000000000, 15.25000000000000000, 0.000000000000000000 ) ) ;
#366 = ORIENTED_EDGE ( 'NONE', *, *, #414, .T. ) ;
#367 = DIRECTION ( 'NONE',  ( -0.000000000000000000, 1.000000000000000000, -0.000000000000000000 ) ) ;
#368 = PLANE ( 'NONE',  #102 ) ;
#369 = ADVANCED_FACE ( 'NONE', ( #1221, #308 ), #1338, .F. ) ;
#370 = VERTEX_POINT ( 'NONE', #827 ) ;
#371 = DIRECTION ( 'NONE',  ( 0.000000000000000000, 1.000000000000000000, 0.000000000000000000 ) ) ;
#372 = CARTESIAN_POINT ( 'NONE',  ( -7.000000000000000000, 21.75000000000000000, 7.000000000000004441 ) ) ;
#373 = EDGE_LOOP ( 'NONE', ( #281, #1056 ) ) ;
#374 = DIRECTION ( 'NONE',  ( 0.000000000000000000, 0.000000000000000000, 1.000000000000000000 ) ) ;
#375 = DIRECTION ( 'NONE',  ( 0.000000000000000000, 0.000000000000000000, 1.000000000000000000 ) ) ;
#376 = ORIENTED_EDGE ( 'NONE', *, *, #493, .T. ) ;
#377 = DIRECTION ( 'NONE',  ( -0.000000000000000000, -1.000000000000000000, -0.000000000000000000 ) ) ;
#378 = EDGE_CURVE ( 'NONE', #611, #628, #422, .T. ) ;
#379 = CYLINDRICAL_SURFACE ( 'NONE', #964, 13.99999999999999822 ) ;
#380 = CARTESIAN_POINT ( 'NONE',  ( 7.000000000000000000, 21.50000000000000000, 7.000000000000000888 ) ) ;
#381 = DIRECTION ( 'NONE',  ( 0.000000000000000000, 0.000000000000000000, 1.000000000000000000 ) ) ;
#382 = VERTEX_POINT ( 'NONE', #301 ) ;
#383 = CYLINDRICAL_SURFACE ( 'NONE', #60, 7.000000000000000000 ) ;
#384 = AXIS2_PLACEMENT_3D ( 'NONE', #323, #139, #339 ) ;
#385 = CIRCLE ( 'NONE', #1224, 13.99999999999999822 ) ;
#386 = AXIS2_PLACEMENT_3D ( 'NONE', #785, #1082, #248 ) ;
#387 = ORIENTED_EDGE ( 'NONE', *, *, #1328, .T. ) ;
#388 = AXIS2_PLACEMENT_3D ( 'NONE', #604, #181, #403 ) ;
#389 = DIRECTION ( 'NONE',  ( -0.000000000000000000, -1.000000000000000000, -0.000000000000000000 ) ) ;
#390 = DIRECTION ( 'NONE',  ( 0.000000000000000000, 1.000000000000000000, 0.000000000000000000 ) ) ;
#391 = PRESENTATION_STYLE_ASSIGNMENT (( #1109 ) ) ;
#392 = FACE_OUTER_BOUND ( 'NONE', #118, .T. ) ;
#393 = CARTESIAN_POINT ( 'NONE',  ( 0.000000000000000000, 0.2500000000000000000, 4.250000000000000000 ) ) ;
#394 = CARTESIAN_POINT ( 'NONE',  ( 7.000000000000000000, 21.75000000000000000, -6.999999999999999112 ) ) ;
#395 = ORIENTED_EDGE ( 'NONE', *, *, #1196, .T. ) ;
#396 = PRODUCT_DEFINITION_CONTEXT ( 'detailed design', #113, 'design' ) ;
#397 = CARTESIAN_POINT ( 'NONE',  ( -7.000000000000000888, 21.50000000000000000, -8.499999999999998224 ) ) ;
#398 = CARTESIAN_POINT ( 'NONE',  ( 7.000000000000000000, 26.75000000000000000, -6.999999999999999112 ) ) ;
#399 = EDGE_CURVE ( 'NONE', #309, #1304, #292, .T. ) ;
#400 = DIRECTION ( 'NONE',  ( -0.000000000000000000, -1.000000000000000000, -0.000000000000000000 ) ) ;
#401 = AXIS2_PLACEMENT_3D ( 'NONE', #1211, #80, #1078 ) ;
#402 = CIRCLE ( 'NONE', #749, 1.250000000000001110 ) ;
#403 = DIRECTION ( 'NONE',  ( 0.000000000000000000, 0.000000000000000000, 1.000000000000000000 ) ) ;
#404 = CIRCLE ( 'NONE', #576, 4.250000000000000000 ) ;
#405 = TOROIDAL_SURFACE ( 'NONE', #192, 1.749999999999999778, 0.2500000000000000000 ) ;
#406 = CIRCLE ( 'NONE', #996, 7.000000000000000000 ) ;
#407 = CARTESIAN_POINT ( 'NONE',  ( 7.000000000000000000, 26.75000000000000000, -8.749999999999998224 ) ) ;
#408 = PRODUCT_DEFINITION ( 'General', '', #840, #396 ) ;
#409 = EDGE_LOOP ( 'NONE', ( #52, #587, #206, #887 ) ) ;
#410 = EDGE_CURVE ( 'NONE', #831, #198, #858, .T. ) ;
#411 = CARTESIAN_POINT ( 'NONE',  ( 0.000000000000000000, 14.75000000000000000, 4.250000000000000000 ) ) ;
#412 = FACE_OUTER_BOUND ( 'NONE', #1283, .T. ) ;
#413 = VERTEX_POINT ( 'NONE', #209 ) ;
#414 = EDGE_CURVE ( 'NONE', #109, #1209, #1336, .T. ) ;
#415 = DIRECTION ( 'NONE',  ( 0.000000000000000000, 0.000000000000000000, 1.000000000000000000 ) ) ;
#416 = DIRECTION ( 'NONE',  ( -0.000000000000000000, 1.000000000000000000, -0.000000000000000000 ) ) ;
#417 = DIRECTION ( 'NONE',  ( 0.000000000000000000, 0.000000000000000000, 1.000000000000000000 ) ) ;
#418 = VERTEX_POINT ( 'NONE', #95 ) ;
#419 = ORIENTED_EDGE ( 'NONE', *, *, #1274, .F. ) ;
#420 = CIRCLE ( 'NONE', #685, 13.99999999999999822 ) ;
#421 = CARTESIAN_POINT ( 'NONE',  ( 0.000000000000000000, 26.75000000000000000, 0.000000000000000000 ) ) ;
#422 = CIRCLE ( 'NONE', #1179, 0.2500000000000002220 ) ;
#423 = EDGE_CURVE ( 'NONE', #69, #769, #385, .T. ) ;
#424 = AXIS2_PLACEMENT_3D ( 'NONE', #736, #143, #549 ) ;
#425 = AXIS2_PLACEMENT_3D ( 'NONE', #421, #331, #1150 ) ;
#426 = TOROIDAL_SURFACE ( 'NONE', #1335, 13.74999999999999822, 0.2500000000000000000 ) ;
#427 = ORIENTED_EDGE ( 'NONE', *, *, #1220, .T. ) ;
#428 = FACE_OUTER_BOUND ( 'NONE', #1000, .T. ) ;
#429 = CARTESIAN_POINT ( 'NONE',  ( 5.204748896376250699E-16, 15.00000000000000000, -4.250000000000000000 ) ) ;
#430 = ORIENTED_EDGE ( 'NONE', *, *, #103, .T. ) ;
#431 = DIRECTION ( 'NONE',  ( 0.000000000000000000, 0.000000000000000000, -1.000000000000000000 ) ) ;
#432 = DIRECTION ( 'NONE',  ( 0.000000000000000000, 0.000000000000000000, 1.000000000000000000 ) ) ;
#433 = ADVANCED_FACE ( 'NONE', ( #512 ), #507, .F. ) ;
#434 = EDGE_LOOP ( 'NONE', ( #1007, #270, #1088, #1176 ) ) ;
#435 = DIRECTION ( 'NONE',  ( 0.000000000000000000, 0.000000000000000000, 1.000000000000000000 ) ) ;
#436 = EDGE_LOOP ( 'NONE', ( #459, #1063 ) ) ;
#437 = SURFACE_STYLE_FILL_AREA ( #530 ) ;
#438 = EDGE_CURVE ( 'NONE', #1286, #769, #614, .T. ) ;
#439 = ORIENTED_EDGE ( 'NONE', *, *, #1149, .T. ) ;
#440 = FACE_OUTER_BOUND ( 'NONE', #741, .T. ) ;
#441 = CIRCLE ( 'NONE', #83, 1.249999999999999334 ) ;
#442 = DIRECTION ( 'NONE',  ( 0.000000000000000000, 1.000000000000000000, 0.000000000000000000 ) ) ;
#443 = CIRCLE ( 'NONE', #883, 13.74999999999999822 ) ;
#444 = ORIENTED_EDGE ( 'NONE', *, *, #981, .T. ) ;
#445 = CIRCLE ( 'NONE', #229, 0.2500000000000002220 ) ;
#446 = CYLINDRICAL_SURFACE ( 'NONE', #225, 4.000000000000000000 ) ;
#447 = EDGE_CURVE ( 'NONE', #734, #744, #226, .T. ) ;
#448 = ORIENTED_EDGE ( 'NONE', *, *, #746, .F. ) ;
#449 = DIRECTION ( 'NONE',  ( 0.000000000000000000, 0.000000000000000000, -1.000000000000000000 ) ) ;
#450 = CARTESIAN_POINT ( 'NONE',  ( 7.000000000000000000, 21.75000000000000000, -5.750000000000000000 ) ) ;
#451 = ORIENTED_EDGE ( 'NONE', *, *, #98, .T. ) ;
#452 = FACE_OUTER_BOUND ( 'NONE', #650, .T. ) ;
#453 = CARTESIAN_POINT ( 'NONE',  ( 0.000000000000000000, 26.75000000000000000, 7.250000000000000000 ) ) ;
#454 = ADVANCED_FACE ( 'NONE', ( #862 ), #1244, .T. ) ;
#455 = ORIENTED_EDGE ( 'NONE', *, *, #103, .F. ) ;
#456 = DIRECTION ( 'NONE',  ( 0.000000000000000000, 0.000000000000000000, 1.000000000000000000 ) ) ;
#457 = ORIENTED_EDGE ( 'NONE', *, *, #483, .F. ) ;
#458 = DIRECTION ( 'NONE',  ( -0.000000000000000000, -1.000000000000000000, -0.000000000000000000 ) ) ;
#459 = ORIENTED_EDGE ( 'NONE', *, *, #184, .T. ) ;
#460 = DIRECTION ( 'NONE',  ( 0.000000000000000000, 0.000000000000000000, 1.000000000000000000 ) ) ;
#461 = TOROIDAL_SURFACE ( 'NONE', #384, 1.249999999999999778, 0.2500000000000000000 ) ;
#462 = FACE_OUTER_BOUND ( 'NONE', #899, .T. ) ;
#463 = AXIS2_PLACEMENT_3D ( 'NONE', #1024, #194, #718 ) ;
#464 = ORIENTED_EDGE ( 'NONE', *, *, #1023, .F. ) ;
#465 = CARTESIAN_POINT ( 'NONE',  ( -7.000000000000000888, 21.50000000000000000, -8.249999999999998224 ) ) ;
#466 = VECTOR ( 'NONE', #901, 1000.000000000000000 ) ;
#467 = AXIS2_PLACEMENT_3D ( 'NONE', #508, #701, #1117 ) ;
#468 = CARTESIAN_POINT ( 'NONE',  ( -7.000000000000000888, 26.75000000000000000, -8.749999999999998224 ) ) ;
#469 = AXIS2_PLACEMENT_3D ( 'NONE', #26, #324, #845 ) ;
#470 = MANIFOLD_SOLID_BREP ( 'Fillet2', #504 ) ;
#471 = ORIENTED_EDGE ( 'NONE', *, *, #1001, .F. ) ;
#472 = DIRECTION ( 'NONE',  ( 0.000000000000000000, 0.000000000000000000, 1.000000000000000000 ) ) ;
#473 = DIRECTION ( 'NONE',  ( 1.000000000000000000, -0.000000000000000000, 1.224646799147353207E-16 ) ) ;
#474 = ORIENTED_EDGE ( 'NONE', *, *, #856, .T. ) ;
#475 = EDGE_CURVE ( 'NONE', #868, #418, #1155, .T. ) ;
#476 = FACE_OUTER_BOUND ( 'NONE', #263, .T. ) ;
#477 = CARTESIAN_POINT ( 'NONE',  ( 0.000000000000000000, 0.000000000000000000, 4.000000000000000000 ) ) ;
#478 = CARTESIAN_POINT ( 'NONE',  ( 0.000000000000000000, 0.2500000000000002220, 0.000000000000000000 ) ) ;
#479 = DIRECTION ( 'NONE',  ( -0.000000000000000000, 1.000000000000000000, -0.000000000000000000 ) ) ;
#480 = DIRECTION ( 'NONE',  ( 0.000000000000000000, 1.000000000000000000, 0.000000000000000000 ) ) ;
#481 = EDGE_LOOP ( 'NONE', ( #998, #540, #1161, #96 ) ) ;
#482 = DIRECTION ( 'NONE',  ( -0.000000000000000000, 1.000000000000000000, -0.000000000000000000 ) ) ;
#483 = EDGE_CURVE ( 'NONE', #355, #91, #924, .T. ) ;
#484 = CARTESIAN_POINT ( 'NONE',  ( 0.000000000000000000, 27.00000000000000000, 0.000000000000000000 ) ) ;
#485 = DIRECTION ( 'NONE',  ( 0.000000000000000000, 0.000000000000000000, 1.000000000000000000 ) ) ;
#486 = CARTESIAN_POINT ( 'NONE',  ( 8.419446744138054255E-16, 15.00000000000000000, -6.750000000000000000 ) ) ;
#487 = CIRCLE ( 'NONE', #13, 0.2500000000000002220 ) ;
#488 = LINE ( 'NONE', #582, #311 ) ;
#489 = AXIS2_PLACEMENT_3D ( 'NONE', #952, #33, #627 ) ;
#490 = AXIS2_PLACEMENT_3D ( 'NONE', #654, #416, #730 ) ;
#491 = CARTESIAN_POINT ( 'NONE',  ( 0.000000000000000000, 0.000000000000000000, 0.000000000000000000 ) ) ;
#492 = AXIS2_PLACEMENT_3D ( 'NONE', #411, #293, #930 ) ;
#493 = EDGE_CURVE ( 'NONE', #1307, #337, #441, .T. ) ;
#494 = CYLINDRICAL_SURFACE ( 'NONE', #65, 1.499999999999999556 ) ;
#495 = DIRECTION ( 'NONE',  ( 0.000000000000000000, 0.000000000000000000, 1.000000000000000000 ) ) ;
#496 = EDGE_CURVE ( 'NONE', #973, #683, #1206, .T. ) ;
#497 = DIRECTION ( 'NONE',  ( 0.000000000000000000, 1.000000000000000000, 0.000000000000000000 ) ) ;
#498 = DIRECTION ( 'NONE',  ( -0.000000000000000000, -1.000000000000000000, -0.000000000000000000 ) ) ;
#499 = EDGE_CURVE ( 'NONE', #676, #213, #595, .T. ) ;
#500 = PLANE ( 'NONE',  #966 ) ;
#501 = EDGE_CURVE ( 'NONE', #418, #868, #443, .T. ) ;
#502 = ORIENTED_EDGE ( 'NONE', *, *, #609, .T. ) ;
#503 = EDGE_LOOP ( 'NONE', ( #283, #1291, #322, #1277 ) ) ;
#504 = CLOSED_SHELL ( 'NONE', ( #278, #904, #174, #721, #433, #57, #320, #258, #894, #589, #1106, #788, #246, #240, #586, #885, #1229, #351, #177, #825, #160, #77, #27, #5, #369, #1186, #841, #956, #217, #570, #1128, #1039, #1126, #114, #359, #330, #630, #1027, #655, #137, #82, #767, #30, #38, #598, #1215, #1133, #454, #535 ) ) ;
#505 =( LENGTH_UNIT ( ) NAMED_UNIT ( * ) SI_UNIT ( .MILLI., .METRE. ) );
#506 = TOROIDAL_SURFACE ( 'NONE', #19, 1.749999999999999556, 0.2500000000000000000 ) ;
#507 = TOROIDAL_SURFACE ( 'NONE', #1321, 1.250000000000000666, 0.2500000000000000000 ) ;
#508 = CARTESIAN_POINT ( 'NONE',  ( 7.000000000000000000, 27.00000000000000000, -6.999999999999999112 ) ) ;
#509 = CIRCLE ( 'NONE', #968, 0.2500000000000002220 ) ;
#510 = PRODUCT ( 'main-shaft_bearing-block', 'main-shaft_bearing-block', '', ( #912 ) ) ;
#511 = AXIS2_PLACEMENT_3D ( 'NONE', #190, #85, #284 ) ;
#512 = FACE_OUTER_BOUND ( 'NONE', #828, .T. ) ;
#513 = EDGE_CURVE ( 'NONE', #1307, #382, #294, .T. ) ;
#514 = ORIENTED_EDGE ( 'NONE', *, *, #526, .T. ) ;
#515 = ORIENTED_EDGE ( 'NONE', *, *, #716, .F. ) ;
#516 = CARTESIAN_POINT ( 'NONE',  ( -7.000000000000000888, 21.75000000000000000, -6.999999999999997335 ) ) ;
#517 = ORIENTED_EDGE ( 'NONE', *, *, #1141, .T. ) ;
#518 = VERTEX_POINT ( 'NONE', #870 ) ;
#519 = ORIENTED_EDGE ( 'NONE', *, *, #232, .T. ) ;
#520 = FILL_AREA_STYLE_COLOUR ( '', #661 ) ;
#521 = ORIENTED_EDGE ( 'NONE', *, *, #423, .F. ) ;
#522 = CARTESIAN_POINT ( 'NONE',  ( 7.000000000000000000, 21.50000000000000000, -6.999999999999999112 ) ) ;
#523 = TOROIDAL_SURFACE ( 'NONE', #101, 1.249999999999999778, 0.2500000000000000000 ) ;
#524 = CARTESIAN_POINT ( 'NONE',  ( 4.898587196589412829E-16, 0.000000000000000000, -4.000000000000000000 ) ) ;
#525 = AXIS2_PLACEMENT_3D ( 'NONE', #622, #400, #1135 ) ;
#526 = EDGE_CURVE ( 'NONE', #1268, #697, #709, .T. ) ;
#527 = ORIENTED_EDGE ( 'NONE', *, *, #493, .F. ) ;
#528 = CIRCLE ( 'NONE', #252, 0.2500000000000002220 ) ;
#529 = AXIS2_PLACEMENT_3D ( 'NONE', #584, #608, #485 ) ;
#530 = FILL_AREA_STYLE ('',( #520 ) ) ;
#531 = ORIENTED_EDGE ( 'NONE', *, *, #98, .F. ) ;
#532 = CARTESIAN_POINT ( 'NONE',  ( 0.000000000000000000, 14.75000000000000000, 0.000000000000000000 ) ) ;
#533 = ADVANCED_BREP_SHAPE_REPRESENTATION ( 'main-shaft_bearing-block', ( #470, #1210 ), #1276 ) ;
#534 = ORIENTED_EDGE ( 'NONE', *, *, #913, .F. ) ;
#535 = ADVANCED_FACE ( 'NONE', ( #955 ), #1294, .T. ) ;
#536 = DIRECTION ( 'NONE',  ( 0.000000000000000000, 0.000000000000000000, 1.000000000000000000 ) ) ;
#537 = ORIENTED_EDGE ( 'NONE', *, *, #1271, .T. ) ;
#538 = CARTESIAN_POINT ( 'NONE',  ( 0.000000000000000000, 0.000000000000000000, 0.000000000000000000 ) ) ;
#539 = FACE_OUTER_BOUND ( 'NONE', #1050, .T. ) ;
#540 = ORIENTED_EDGE ( 'NONE', *, *, #1167, .T. ) ;
#541 = EDGE_CURVE ( 'NONE', #973, #738, #336, .T. ) ;
#542 = ORIENTED_EDGE ( 'NONE', *, *, #703, .F. ) ;
#543 = DIRECTION ( 'NONE',  ( 0.000000000000000000, 1.000000000000000000, 0.000000000000000000 ) ) ;
#544 = AXIS2_PLACEMENT_3D ( 'NONE', #522, #745, #947 ) ;
#545 = ORIENTED_EDGE ( 'NONE', *, *, #232, .F. ) ;
#546 = CARTESIAN_POINT ( 'NONE',  ( 0.000000000000000000, 27.00000000000000000, 0.000000000000000000 ) ) ;
#547 = AXIS2_PLACEMENT_3D ( 'NONE', #980, #781, #257 ) ;
#548 = AXIS2_PLACEMENT_3D ( 'NONE', #394, #823, #1227 ) ;
#549 = DIRECTION ( 'NONE',  ( 0.000000000000000000, 0.000000000000000000, 1.000000000000000000 ) ) ;
#550 = AXIS2_PLACEMENT_3D ( 'NONE', #316, #234, #321 ) ;
#551 = ORIENTED_EDGE ( 'NONE', *, *, #1030, .T. ) ;
#552 = VECTOR ( 'NONE', #591, 1000.000000000000000 ) ;
#553 = DIRECTION ( 'NONE',  ( 0.000000000000000000, 1.000000000000000000, 0.000000000000000000 ) ) ;
#554 = EDGE_CURVE ( 'NONE', #122, #790, #775, .T. ) ;
#555 = ORIENTED_EDGE ( 'NONE', *, *, #1261, .F. ) ;
#556 = DIRECTION ( 'NONE',  ( 0.000000000000000000, 0.000000000000000000, 1.000000000000000000 ) ) ;
#557 = CARTESIAN_POINT ( 'NONE',  ( 7.000000000000000000, 27.00000000000000000, 5.250000000000000888 ) ) ;
#558 = ORIENTED_EDGE ( 'NONE', *, *, #438, .F. ) ;
#559 = DIRECTION ( 'NONE',  ( 0.000000000000000000, 1.000000000000000000, 0.000000000000000000 ) ) ;
#560 = EDGE_CURVE ( 'NONE', #683, #325, #1156, .T. ) ;
#561 = DIRECTION ( 'NONE',  ( 0.000000000000000000, 1.000000000000000000, 0.000000000000000000 ) ) ;
#562 = ORIENTED_EDGE ( 'NONE', *, *, #1309, .T. ) ;
#563 = CYLINDRICAL_SURFACE ( 'NONE', #1228, 1.499999999999999556 ) ;
#564 = CARTESIAN_POINT ( 'NONE',  ( 7.000000000000000000, 26.75000000000000000, -6.999999999999999112 ) ) ;
#565 = ORIENTED_EDGE ( 'NONE', *, *, #961, .F. ) ;
#566 = DIRECTION ( 'NONE',  ( 0.000000000000000000, 0.000000000000000000, 1.000000000000000000 ) ) ;
#567 = CARTESIAN_POINT ( 'NONE',  ( -7.000000000000000888, 21.75000000000000000, -5.749999999999996447 ) ) ;
#568 = ORIENTED_EDGE ( 'NONE', *, *, #797, .F. ) ;
#569 = DIRECTION ( 'NONE',  ( 0.000000000000000000, 1.000000000000000000, 0.000000000000000000 ) ) ;
#570 = ADVANCED_FACE ( 'NONE', ( #1285 ), #860, .F. ) ;
#571 = AXIS2_PLACEMENT_3D ( 'NONE', #588, #282, #986 ) ;
#572 = CARTESIAN_POINT ( 'NONE',  ( -7.000000000000000888, 21.75000000000000000, -6.999999999999997335 ) ) ;
#573 = CIRCLE ( 'NONE', #469, 0.2500000000000002220 ) ;
#574 = ORIENTED_EDGE ( 'NONE', *, *, #299, .F. ) ;
#575 = CARTESIAN_POINT ( 'NONE',  ( 0.000000000000000000, 15.00000000000000000, 0.000000000000000000 ) ) ;
#576 = AXIS2_PLACEMENT_3D ( 'NONE', #1199, #67, #381 ) ;
#577 = ORIENTED_EDGE ( 'NONE', *, *, #184, .F. ) ;
#578 = DIRECTION ( 'NONE',  ( 0.000000000000000000, 0.000000000000000000, 1.000000000000000000 ) ) ;
#579 = CARTESIAN_POINT ( 'NONE',  ( 0.000000000000000000, 14.75000000000000000, 0.000000000000000000 ) ) ;
#580 = EDGE_CURVE ( 'NONE', #91, #355, #191, .T. ) ;
#581 = ORIENTED_EDGE ( 'NONE', *, *, #1282, .F. ) ;
#582 = CARTESIAN_POINT ( 'NONE',  ( 7.000000000000000000, 21.50000000000000000, -8.499999999999998224 ) ) ;
#583 = ORIENTED_EDGE ( 'NONE', *, *, #866, .F. ) ;
#584 = CARTESIAN_POINT ( 'NONE',  ( 0.000000000000000000, 0.2500000000000000000, 0.000000000000000000 ) ) ;
#585 = DIRECTION ( 'NONE',  ( 1.000000000000000000, -0.000000000000000000, 1.224646799147353207E-16 ) ) ;
#586 = ADVANCED_FACE ( 'NONE', ( #462 ), #1272, .T. ) ;
#587 = ORIENTED_EDGE ( 'NONE', *, *, #378, .T. ) ;
#588 = CARTESIAN_POINT ( 'NONE',  ( 0.000000000000000000, 0.2500000000000002220, 0.000000000000000000 ) ) ;
#589 = ADVANCED_FACE ( 'NONE', ( #1097 ), #800, .F. ) ;
#590 = ORIENTED_EDGE ( 'NONE', *, *, #483, .T. ) ;
#591 = DIRECTION ( 'NONE',  ( -0.000000000000000000, 1.000000000000000000, -0.000000000000000000 ) ) ;
#592 = CARTESIAN_POINT ( 'NONE',  ( 0.000000000000000000, 26.75000000000000000, 13.74999999999999822 ) ) ;
#593 = TOROIDAL_SURFACE ( 'NONE', #1069, 4.250000000000000000, 0.2500000000000000000 ) ;
#594 = CARTESIAN_POINT ( 'NONE',  ( 0.000000000000000000, 0.000000000000000000, 0.000000000000000000 ) ) ;
#595 = CIRCLE ( 'NONE', #424, 1.250000000000001110 ) ;
#596 = ORIENTED_EDGE ( 'NONE', *, *, #513, .T. ) ;
#597 = AXIS2_PLACEMENT_3D ( 'NONE', #1290, #480, #884 ) ;
#598 = ADVANCED_FACE ( 'NONE', ( #877 ), #728, .F. ) ;
#599 = AXIS2_PLACEMENT_3D ( 'NONE', #1173, #1087, #1289 ) ;
#600 = AXIS2_PLACEMENT_3D ( 'NONE', #1131, #615, #1144 ) ;
#601 = CARTESIAN_POINT ( 'NONE',  ( 1.683889348827610456E-15, 26.75000000000000000, -13.74999999999999822 ) ) ;
#602 = CARTESIAN_POINT ( 'NONE',  ( -7.000000000000000000, 21.50000000000000000, 8.250000000000003553 ) ) ;
#603 = DIRECTION ( 'NONE',  ( -0.000000000000000000, 1.000000000000000000, -0.000000000000000000 ) ) ;
#604 = CARTESIAN_POINT ( 'NONE',  ( 7.000000000000000000, 26.75000000000000000, 7.000000000000000888 ) ) ;
#605 = CARTESIAN_POINT ( 'NONE',  ( -7.000000000000000888, 21.75000000000000000, -8.249999999999998224 ) ) ;
#606 = CARTESIAN_POINT ( 'NONE',  ( -7.000000000000000888, 21.50000000000000000, -6.999999999999997335 ) ) ;
#607 = ORIENTED_EDGE ( 'NONE', *, *, #1023, .T. ) ;
#608 = DIRECTION ( 'NONE',  ( 0.000000000000000000, 1.000000000000000000, 0.000000000000000000 ) ) ;
#609 = EDGE_CURVE ( 'NONE', #1200, #831, #509, .T. ) ;
#610 = CARTESIAN_POINT ( 'NONE',  ( 0.000000000000000000, 26.75000000000000000, 0.000000000000000000 ) ) ;
#611 = VERTEX_POINT ( 'NONE', #358 ) ;
#612 = DIRECTION ( 'NONE',  ( 0.000000000000000000, 0.000000000000000000, 1.000000000000000000 ) ) ;
#613 = AXIS2_PLACEMENT_3D ( 'NONE', #803, #377, #566 ) ;
#614 = CIRCLE ( 'NONE', #638, 0.2500000000000002220 ) ;
#615 = DIRECTION ( 'NONE',  ( 1.000000000000000000, -0.000000000000000000, 1.224646799147353207E-16 ) ) ;
#616 = AXIS2_PLACEMENT_3D ( 'NONE', #393, #1018, #94 ) ;
#617 = CIRCLE ( 'NONE', #338, 1.749999999999999778 ) ;
#618 = ORIENTED_EDGE ( 'NONE', *, *, #68, .F. ) ;
#619 = DIRECTION ( 'NONE',  ( 0.000000000000000000, 0.000000000000000000, 1.000000000000000000 ) ) ;
#620 = CIRCLE ( 'NONE', #1094, 0.2500000000000002220 ) ;
#621 = PRODUCT_RELATED_PRODUCT_CATEGORY ( 'part', '', ( #510 ) ) ;
#622 = CARTESIAN_POINT ( 'NONE',  ( -7.000000000000000888, 27.00000000000000000, -6.999999999999997335 ) ) ;
#623 = PLANE ( 'NONE',  #817 ) ;
#624 = FACE_OUTER_BOUND ( 'NONE', #59, .T. ) ;
#625 = ORIENTED_EDGE ( 'NONE', *, *, #779, .F. ) ;
#626 = CARTESIAN_POINT ( 'NONE',  ( 7.000000000000000000, 21.75000000000000000, 7.000000000000000888 ) ) ;
#627 = DIRECTION ( 'NONE',  ( 0.000000000000000000, 0.000000000000000000, 1.000000000000000000 ) ) ;
#628 = VERTEX_POINT ( 'NONE', #1208 ) ;
#629 = VERTEX_POINT ( 'NONE', #486 ) ;
#630 = ADVANCED_FACE ( 'NONE', ( #671 ), #163, .T. ) ;
#631 = CARTESIAN_POINT ( 'NONE',  ( 7.000000000000000000, 26.75000000000000000, -6.999999999999999112 ) ) ;
#632 = DIRECTION ( 'NONE',  ( -1.000000000000000000, 0.000000000000000000, 0.000000000000000000 ) ) ;
#633 = ORIENTED_EDGE ( 'NONE', *, *, #1123, .F. ) ;
#634 = FACE_OUTER_BOUND ( 'NONE', #1181, .T. ) ;
#635 = PRODUCT_DEFINITION_SHAPE ( 'NONE', 'NONE',  #408 ) ;
#636 = EDGE_CURVE ( 'NONE', #846, #69, #157, .T. ) ;
#637 = DIRECTION ( 'NONE',  ( 0.000000000000000000, 1.000000000000000000, 0.000000000000000000 ) ) ;
#638 = AXIS2_PLACEMENT_3D ( 'NONE', #832, #713, #1146 ) ;
#639 = CIRCLE ( 'NONE', #1033, 0.2500000000000002220 ) ;
#640 = CIRCLE ( 'NONE', #276, 1.749999999999999778 ) ;
#641 = DIRECTION ( 'NONE',  ( 0.000000000000000000, 1.000000000000000000, 0.000000000000000000 ) ) ;
#642 = AXIS2_PLACEMENT_3D ( 'NONE', #10, #1085, #1171 ) ;
#643 = ORIENTED_EDGE ( 'NONE', *, *, #1115, .F. ) ;
#644 = CARTESIAN_POINT ( 'NONE',  ( -7.000000000000000000, 21.50000000000000000, 5.500000000000005329 ) ) ;
#645 = CARTESIAN_POINT ( 'NONE',  ( 7.000000000000000000, 27.00000000000000000, 7.000000000000000888 ) ) ;
#646 = EDGE_CURVE ( 'NONE', #1262, #628, #992, .T. ) ;
#647 = ORIENTED_EDGE ( 'NONE', *, *, #410, .T. ) ;
#648 = EDGE_CURVE ( 'NONE', #653, #1286, #274, .T. ) ;
#649 = CARTESIAN_POINT ( 'NONE',  ( 7.000000000000000000, 26.75000000000000000, 5.250000000000000888 ) ) ;
#650 = EDGE_LOOP ( 'NONE', ( #633, #366, #537, #874 ) ) ;
#651 = CYLINDRICAL_SURFACE ( 'NONE', #544, 1.499999999999999556 ) ;
#652 = DIRECTION ( 'NONE',  ( -0.000000000000000000, -1.000000000000000000, -0.000000000000000000 ) ) ;
#653 = VERTEX_POINT ( 'NONE', #893 ) ;
#654 = CARTESIAN_POINT ( 'NONE',  ( -7.000000000000000888, 21.50000000000000000, -6.999999999999997335 ) ) ;
#655 = ADVANCED_FACE ( 'NONE', ( #1299 ), #368, .T. ) ;
#656 = ORIENTED_EDGE ( 'NONE', *, *, #499, .T. ) ;
#657 = CARTESIAN_POINT ( 'NONE',  ( 7.000000000000000000, 21.75000000000000000, 7.000000000000000888 ) ) ;
#658 = CARTESIAN_POINT ( 'NONE',  ( 0.000000000000000000, 26.75000000000000000, 0.000000000000000000 ) ) ;
#659 = ORIENTED_EDGE ( 'NONE', *, *, #195, .F. ) ;
#660 = FACE_OUTER_BOUND ( 'NONE', #43, .T. ) ;
#661 = COLOUR_RGB ( '',1.000000000000000000, 0.9490196078431372140, 0.9098039215686274384 ) ;
#662 = AXIS2_PLACEMENT_3D ( 'NONE', #686, #182, #51 ) ;
#663 = DIRECTION ( 'NONE',  ( 0.000000000000000000, 0.000000000000000000, 1.000000000000000000 ) ) ;
#664 = VECTOR ( 'NONE', #959, 1000.000000000000000 ) ;
#665 = EDGE_CURVE ( 'NONE', #1113, #1288, #404, .T. ) ;
#666 = ORIENTED_EDGE ( 'NONE', *, *, #940, .F. ) ;
#667 = COLOUR_RGB ( '',1.000000000000000000, 0.9490196078431372140, 0.9098039215686274384 ) ;
#668 = FACE_OUTER_BOUND ( 'NONE', #235, .T. ) ;
#669 = VERTEX_POINT ( 'NONE', #1306 ) ;
#670 = DIRECTION ( 'NONE',  ( 0.000000000000000000, 1.000000000000000000, 0.000000000000000000 ) ) ;
#671 = FACE_OUTER_BOUND ( 'NONE', #905, .T. ) ;
#672 = ORIENTED_EDGE ( 'NONE', *, *, #1001, .T. ) ;
#673 = DIRECTION ( 'NONE',  ( -0.000000000000000000, 1.000000000000000000, -0.000000000000000000 ) ) ;
#674 = DIRECTION ( 'NONE',  ( 0.000000000000000000, 0.000000000000000000, 1.000000000000000000 ) ) ;
#675 = EDGE_CURVE ( 'NONE', #697, #325, #792, .T. ) ;
#676 = VERTEX_POINT ( 'NONE', #696 ) ;
#677 = FACE_OUTER_BOUND ( 'NONE', #161, .T. ) ;
#678 = DIRECTION ( 'NONE',  ( 1.224646799147353454E-16, 0.000000000000000000, -1.000000000000000000 ) ) ;
#679 = EDGE_LOOP ( 'NONE', ( #733, #430 ) ) ;
#680 = DIRECTION ( 'NONE',  ( 0.000000000000000000, 0.000000000000000000, 1.000000000000000000 ) ) ;
#681 = DIRECTION ( 'NONE',  ( 0.000000000000000000, 0.000000000000000000, 1.000000000000000000 ) ) ;
#682 = EDGE_CURVE ( 'NONE', #223, #518, #639, .T. ) ;
#683 = VERTEX_POINT ( 'NONE', #557 ) ;
#684 = CARTESIAN_POINT ( 'NONE',  ( 7.000000000000000000, 26.75000000000000000, -6.999999999999999112 ) ) ;
#685 = AXIS2_PLACEMENT_3D ( 'NONE', #478, #1040, #112 ) ;
#686 = CARTESIAN_POINT ( 'NONE',  ( 0.000000000000000000, 15.25000000000000000, 0.000000000000000000 ) ) ;
#687 = CIRCLE ( 'NONE', #1230, 0.2500000000000002220 ) ;
#688 = ORIENTED_EDGE ( 'NONE', *, *, #1261, .T. ) ;
#689 = DIRECTION ( 'NONE',  ( 0.000000000000000000, 0.000000000000000000, 1.000000000000000000 ) ) ;
#690 = AXIS2_PLACEMENT_3D ( 'NONE', #1233, #201, #1219 ) ;
#691 = CIRCLE ( 'NONE', #511, 4.000000000000000000 ) ;
#692 = SURFACE_SIDE_STYLE ('',( #699 ) ) ;
#693 = CIRCLE ( 'NONE', #167, 1.499999999999999556 ) ;
#694 = ORIENTED_EDGE ( 'NONE', *, *, #1203, .T. ) ;
#695 = DIRECTION ( 'NONE',  ( -1.000000000000000000, 0.000000000000000000, 0.000000000000000000 ) ) ;
#696 = CARTESIAN_POINT ( 'NONE',  ( -7.000000000000000888, 21.50000000000000000, -5.749999999999996447 ) ) ;
#697 = VERTEX_POINT ( 'NONE', #978 ) ;
#698 = CARTESIAN_POINT ( 'NONE',  ( -7.000000000000000000, 21.50000000000000000, 5.750000000000004441 ) ) ;
#699 = SURFACE_STYLE_FILL_AREA ( #1021 ) ;
#700 = EDGE_LOOP ( 'NONE', ( #545, #979, #989, #925 ) ) ;
#701 = DIRECTION ( 'NONE',  ( -0.000000000000000000, -1.000000000000000000, -0.000000000000000000 ) ) ;
#702 = DIRECTION ( 'NONE',  ( 1.000000000000000000, -0.000000000000000000, 1.224646799147353207E-16 ) ) ;
#703 = EDGE_CURVE ( 'NONE', #1286, #653, #1337, .T. ) ;
#704 = CARTESIAN_POINT ( 'NONE',  ( -7.000000000000000888, 21.75000000000000000, -8.499999999999998224 ) ) ;
#705 = ORIENTED_EDGE ( 'NONE', *, *, #250, .F. ) ;
#706 = CARTESIAN_POINT ( 'NONE',  ( -7.000000000000000888, 21.50000000000000000, -5.499999999999997335 ) ) ;
#707 = AXIS2_PLACEMENT_3D ( 'NONE', #31, #850, #756 ) ;
#708 = DIRECTION ( 'NONE',  ( 0.000000000000000000, 0.000000000000000000, 1.000000000000000000 ) ) ;
#709 = CIRCLE ( 'NONE', #550, 1.499999999999999556 ) ;
#710 = AXIS2_PLACEMENT_3D ( 'NONE', #601, #811, #917 ) ;
#711 = AXIS2_PLACEMENT_3D ( 'NONE', #1158, #727, #1273 ) ;
#712 = CARTESIAN_POINT ( 'NONE',  ( 0.000000000000000000, 0.000000000000000000, 4.250000000000000000 ) ) ;
#713 = DIRECTION ( 'NONE',  ( 1.000000000000000000, -0.000000000000000000, 1.224646799147353207E-16 ) ) ;
#714 = ORIENTED_EDGE ( 'NONE', *, *, #636, .T. ) ;
#715 = DIRECTION ( 'NONE',  ( 0.000000000000000000, 0.000000000000000000, 1.000000000000000000 ) ) ;
#716 = EDGE_CURVE ( 'NONE', #738, #325, #819, .T. ) ;
#717 = CARTESIAN_POINT ( 'NONE',  ( 7.000000000000000000, 27.00000000000000000, 8.750000000000000000 ) ) ;
#718 = DIRECTION ( 'NONE',  ( 0.000000000000000000, 0.000000000000000000, 1.000000000000000000 ) ) ;
#719 = VERTEX_POINT ( 'NONE', #602 ) ;
#720 = DIRECTION ( 'NONE',  ( 0.000000000000000000, 1.000000000000000000, 0.000000000000000000 ) ) ;
#721 = ADVANCED_FACE ( 'NONE', ( #285 ), #1120, .T. ) ;
#722 = DIRECTION ( 'NONE',  ( 1.224646799147353454E-16, 0.000000000000000000, -1.000000000000000000 ) ) ;
#723 = TOROIDAL_SURFACE ( 'NONE', #1028, 1.749999999999999778, 0.2500000000000000000 ) ;
#724 = ORIENTED_EDGE ( 'NONE', *, *, #1079, .T. ) ;
#725 = ORIENTED_EDGE ( 'NONE', *, *, #609, .F. ) ;
#726 = AXIS2_PLACEMENT_3D ( 'NONE', #345, #641, #432 ) ;
#727 = DIRECTION ( 'NONE',  ( -0.000000000000000000, -1.000000000000000000, -0.000000000000000000 ) ) ;
#728 = TOROIDAL_SURFACE ( 'NONE', #597, 1.250000000000000666, 0.2500000000000000000 ) ;
#729 = AXIS2_PLACEMENT_3D ( 'NONE', #380, #791, #766 ) ;
#730 = DIRECTION ( 'NONE',  ( 0.000000000000000000, 0.000000000000000000, 1.000000000000000000 ) ) ;
#731 = DIRECTION ( 'NONE',  ( -1.000000000000000000, 0.000000000000000000, 0.000000000000000000 ) ) ;
#732 = EDGE_CURVE ( 'NONE', #1099, #1010, #528, .T. ) ;
#733 = ORIENTED_EDGE ( 'NONE', *, *, #267, .T. ) ;
#734 = VERTEX_POINT ( 'NONE', #1112 ) ;
#735 = CARTESIAN_POINT ( 'NONE',  ( 0.000000000000000000, 0.2500000000000002220, 0.000000000000000000 ) ) ;
#736 = CARTESIAN_POINT ( 'NONE',  ( -7.000000000000000888, 21.50000000000000000, -6.999999999999997335 ) ) ;
#737 = EDGE_CURVE ( 'NONE', #846, #868, #1207, .T. ) ;
#738 = VERTEX_POINT ( 'NONE', #88 ) ;
#739 = DIRECTION ( 'NONE',  ( 0.000000000000000000, 0.000000000000000000, 1.000000000000000000 ) ) ;
#740 = DIRECTION ( 'NONE',  ( 1.000000000000000000, -0.000000000000000000, 1.224646799147353207E-16 ) ) ;
#741 = EDGE_LOOP ( 'NONE', ( #464, #590, #1300, #439 ) ) ;
#742 = DIRECTION ( 'NONE',  ( 0.000000000000000000, 1.000000000000000000, 0.000000000000000000 ) ) ;
#743 = DIRECTION ( 'NONE',  ( 0.000000000000000000, 0.000000000000000000, 1.000000000000000000 ) ) ;
#744 = VERTEX_POINT ( 'NONE', #295 ) ;
#745 = DIRECTION ( 'NONE',  ( -0.000000000000000000, 1.000000000000000000, -0.000000000000000000 ) ) ;
#746 = EDGE_CURVE ( 'NONE', #1209, #1113, #926, .T. ) ;
#747 = AXIS2_PLACEMENT_3D ( 'NONE', #575, #1325, #70 ) ;
#748 = DIRECTION ( 'NONE',  ( 0.000000000000000000, 0.000000000000000000, 1.000000000000000000 ) ) ;
#749 = AXIS2_PLACEMENT_3D ( 'NONE', #898, #342, #1195 ) ;
#750 = MECHANICAL_DESIGN_GEOMETRIC_PRESENTATION_REPRESENTATION (  '', ( #818 ), #1031 ) ;
#751 = AXIS2_PLACEMENT_3D ( 'NONE', #592, #1225, #812 ) ;
#752 = CIRCLE ( 'NONE', #105, 1.499999999999999556 ) ;
#753 = DIRECTION ( 'NONE',  ( 0.000000000000000000, 0.000000000000000000, 1.000000000000000000 ) ) ;
#754 = AXIS2_PLACEMENT_3D ( 'NONE', #20, #637, #838 ) ;
#755 = EDGE_LOOP ( 'NONE', ( #562, #714, #1193, #149 ) ) ;
#756 = DIRECTION ( 'NONE',  ( 0.000000000000000000, 0.000000000000000000, 1.000000000000000000 ) ) ;
#757 = DIRECTION ( 'NONE',  ( -0.000000000000000000, -1.000000000000000000, -0.000000000000000000 ) ) ;
#758 = EDGE_CURVE ( 'NONE', #213, #355, #39, .T. ) ;
#759 = ORIENTED_EDGE ( 'NONE', *, *, #716, .T. ) ;
#760 = CARTESIAN_POINT ( 'NONE',  ( 0.000000000000000000, 26.75000000000000000, 0.000000000000000000 ) ) ;
#761 = SURFACE_SIDE_STYLE ('',( #437 ) ) ;
#762 = VERTEX_POINT ( 'NONE', #943 ) ;
#763 = CARTESIAN_POINT ( 'NONE',  ( 0.000000000000000000, 0.000000000000000000, 0.000000000000000000 ) ) ;
#764 =( NAMED_UNIT ( * ) SI_UNIT ( $, .STERADIAN. ) SOLID_ANGLE_UNIT ( ) );
#765 = ORIENTED_EDGE ( 'NONE', *, *, #1301, .F. ) ;
#766 = DIRECTION ( 'NONE',  ( 0.000000000000000000, 0.000000000000000000, 1.000000000000000000 ) ) ;
#767 = ADVANCED_FACE ( 'NONE', ( #847 ), #207, .F. ) ;
#768 = DIRECTION ( 'NONE',  ( -0.000000000000000000, -1.000000000000000000, -0.000000000000000000 ) ) ;
#769 = VERTEX_POINT ( 'NONE', #344 ) ;
#770 = CARTESIAN_POINT ( 'NONE',  ( -7.000000000000000888, 26.75000000000000000, -8.499999999999998224 ) ) ;
#771 = VECTOR ( 'NONE', #119, 1000.000000000000000 ) ;
#772 = ORIENTED_EDGE ( 'NONE', *, *, #682, .F. ) ;
#773 = CARTESIAN_POINT ( 'NONE',  ( 0.000000000000000000, 15.25000000000000000, 0.000000000000000000 ) ) ;
#774 = AXIS2_PLACEMENT_3D ( 'NONE', #7, #1121, #1240 ) ;
#775 = CIRCLE ( 'NONE', #1246, 1.500000000000000444 ) ;
#776 = DIRECTION ( 'NONE',  ( -0.000000000000000000, 1.000000000000000000, -0.000000000000000000 ) ) ;
#777 = CIRCLE ( 'NONE', #1159, 7.000000000000000000 ) ;
#778 = EDGE_LOOP ( 'NONE', ( #1077, #534, #444, #935 ) ) ;
#779 = EDGE_CURVE ( 'NONE', #846, #982, #147, .T. ) ;
#780 = CIRCLE ( 'NONE', #212, 1.749999999999999778 ) ;
#781 = DIRECTION ( 'NONE',  ( 0.000000000000000000, 1.000000000000000000, 0.000000000000000000 ) ) ;
#782 = CARTESIAN_POINT ( 'NONE',  ( 0.000000000000000000, 0.000000000000000000, 0.000000000000000000 ) ) ;
#783 = ORIENTED_EDGE ( 'NONE', *, *, #746, .T. ) ;
#784 = DIRECTION ( 'NONE',  ( 0.000000000000000000, 1.000000000000000000, 0.000000000000000000 ) ) ;
#785 = CARTESIAN_POINT ( 'NONE',  ( 7.000000000000000000, 21.50000000000000000, 7.000000000000000888 ) ) ;
#786 = VERTEX_POINT ( 'NONE', #239 ) ;
#787 = CARTESIAN_POINT ( 'NONE',  ( 0.000000000000000000, 27.00000000000000000, 0.000000000000000000 ) ) ;
#788 = ADVANCED_FACE ( 'NONE', ( #936 ), #224, .F. ) ;
#789 = CARTESIAN_POINT ( 'NONE',  ( 7.000000000000000000, 21.50000000000000000, -5.750000000000000000 ) ) ;
#790 = VERTEX_POINT ( 'NONE', #1140 ) ;
#791 = DIRECTION ( 'NONE',  ( 0.000000000000000000, 1.000000000000000000, 0.000000000000000000 ) ) ;
#792 = LINE ( 'NONE', #1174, #1012 ) ;
#793 = ORIENTED_EDGE ( 'NONE', *, *, #897, .T. ) ;
#794 = CARTESIAN_POINT ( 'NONE',  ( 0.000000000000000000, 0.2500000000000000000, 0.000000000000000000 ) ) ;
#795 = EDGE_CURVE ( 'NONE', #697, #1268, #1071, .T. ) ;
#796 = ORIENTED_EDGE ( 'NONE', *, *, #438, .T. ) ;
#797 = EDGE_CURVE ( 'NONE', #960, #1010, #837, .T. ) ;
#798 = CARTESIAN_POINT ( 'NONE',  ( -7.000000000000000000, 27.00000000000000000, 7.000000000000004441 ) ) ;
#799 = AXIS2_PLACEMENT_3D ( 'NONE', #889, #559, #1216 ) ;
#800 = CYLINDRICAL_SURFACE ( 'NONE', #1096, 1.499999999999999556 ) ;
#801 = CIRCLE ( 'NONE', #37, 0.2500000000000002220 ) ;
#802 = ORIENTED_EDGE ( 'NONE', *, *, #1328, .F. ) ;
#803 = CARTESIAN_POINT ( 'NONE',  ( -7.000000000000000888, 27.00000000000000000, -6.999999999999997335 ) ) ;
#804 = AXIS2_PLACEMENT_3D ( 'NONE', #605, #1119, #431 ) ;
#805 = CIRCLE ( 'NONE', #928, 0.2500000000000002220 ) ;
#806 = PRESENTATION_LAYER_ASSIGNMENT (  '', '', ( #863 ) ) ;
#807 = ORIENTED_EDGE ( 'NONE', *, *, #1309, .F. ) ;
#808 = FACE_OUTER_BOUND ( 'NONE', #1187, .T. ) ;
#809 = EDGE_CURVE ( 'NONE', #628, #1262, #15, .T. ) ;
#810 = DIRECTION ( 'NONE',  ( 0.000000000000000000, 0.000000000000000000, 1.000000000000000000 ) ) ;
#811 = DIRECTION ( 'NONE',  ( 1.000000000000000000, -0.000000000000000000, 1.224646799147353207E-16 ) ) ;
#812 = DIRECTION ( 'NONE',  ( 0.000000000000000000, 0.000000000000000000, 1.000000000000000000 ) ) ;
#813 = EDGE_CURVE ( 'NONE', #786, #1042, #752, .T. ) ;
#814 = DIRECTION ( 'NONE',  ( 0.000000000000000000, 1.000000000000000000, 0.000000000000000000 ) ) ;
#815 = CYLINDRICAL_SURFACE ( 'NONE', #1248, 1.499999999999999556 ) ;
#816 = DIRECTION ( 'NONE',  ( 1.224646799147349509E-16, 0.000000000000000000, -1.000000000000000000 ) ) ;
#817 = AXIS2_PLACEMENT_3D ( 'NONE', #78, #1235, #939 ) ;
#818 = STYLED_ITEM ( 'NONE', ( #136 ), #470 ) ;
#819 = CIRCLE ( 'NONE', #1136, 1.499999999999999556 ) ;
#820 = AXIS2_PLACEMENT_3D ( 'NONE', #532, #130, #215 ) ;
#821 = DIRECTION ( 'NONE',  ( -0.000000000000000000, 1.000000000000000000, -0.000000000000000000 ) ) ;
#822 = EDGE_LOOP ( 'NONE', ( #287, #1330, #1165, #765 ) ) ;
#823 = DIRECTION ( 'NONE',  ( -0.000000000000000000, -1.000000000000000000, -0.000000000000000000 ) ) ;
#824 = EDGE_LOOP ( 'NONE', ( #275, #793 ) ) ;
#825 = ADVANCED_FACE ( 'NONE', ( #245 ), #1205, .T. ) ;
#826 = DIRECTION ( 'NONE',  ( -0.000000000000000000, 1.000000000000000000, -0.000000000000000000 ) ) ;
#827 = CARTESIAN_POINT ( 'NONE',  ( -7.000000000000000000, 27.00000000000000000, 5.250000000000004441 ) ) ;
#828 = EDGE_LOOP ( 'NONE', ( #1247, #1143, #1004, #581 ) ) ;
#829 = ORIENTED_EDGE ( 'NONE', *, *, #1095, .F. ) ;
#830 = FACE_OUTER_BOUND ( 'NONE', #35, .T. ) ;
#831 = VERTEX_POINT ( 'NONE', #892 ) ;
#832 = CARTESIAN_POINT ( 'NONE',  ( 1.683889348827610456E-15, 0.2500000000000002220, -13.74999999999999822 ) ) ;
#833 = AXIS2_PLACEMENT_3D ( 'NONE', #53, #371, #1201 ) ;
#834 = ORIENTED_EDGE ( 'NONE', *, *, #795, .T. ) ;
#835 = DIRECTION ( 'NONE',  ( 0.000000000000000000, 1.000000000000000000, 0.000000000000000000 ) ) ;
#836 = AXIS2_PLACEMENT_3D ( 'NONE', #594, #1019, #1332 ) ;
#837 = CIRCLE ( 'NONE', #86, 7.000000000000000000 ) ;
#838 = DIRECTION ( 'NONE',  ( 0.000000000000000000, -0.000000000000000000, 1.000000000000000000 ) ) ;
#839 = TOROIDAL_SURFACE ( 'NONE', #1073, 1.749999999999999778, 0.2500000000000000000 ) ;
#840 = PRODUCT_DEFINITION_FORMATION_WITH_SPECIFIED_SOURCE ( 'Symmetric', '', #510, .NOT_KNOWN. ) ;
#841 = ADVANCED_FACE ( 'NONE', ( #660 ), #1198, .F. ) ;
#842 = DIRECTION ( 'NONE',  ( 0.000000000000000000, 0.000000000000000000, 1.000000000000000000 ) ) ;
#843 = ORIENTED_EDGE ( 'NONE', *, *, #1016, .F. ) ;
#844 = CARTESIAN_POINT ( 'NONE',  ( 0.000000000000000000, 15.00000000000000000, 0.000000000000000000 ) ) ;
#845 = DIRECTION ( 'NONE',  ( 0.000000000000000000, 0.000000000000000000, 1.000000000000000000 ) ) ;
#846 = VERTEX_POINT ( 'NONE', #1297 ) ;
#847 = FACE_OUTER_BOUND ( 'NONE', #158, .T. ) ;
#848 = SURFACE_STYLE_USAGE ( .BOTH. , #761 ) ;
#849 = ORIENTED_EDGE ( 'NONE', *, *, #200, .F. ) ;
#850 = DIRECTION ( 'NONE',  ( -1.000000000000000000, 0.000000000000000000, 0.000000000000000000 ) ) ;
#851 = CARTESIAN_POINT ( 'NONE',  ( 7.000000000000000000, 26.75000000000000000, 7.000000000000000888 ) ) ;
#852 = ORIENTED_EDGE ( 'NONE', *, *, #1164, .T. ) ;
#853 = CARTESIAN_POINT ( 'NONE',  ( -7.000000000000000888, 26.75000000000000000, -6.999999999999997335 ) ) ;
#854 = ORIENTED_EDGE ( 'NONE', *, *, #976, .F. ) ;
#855 = FACE_OUTER_BOUND ( 'NONE', #188, .T. ) ;
#856 = EDGE_CURVE ( 'NONE', #653, #69, #805, .T. ) ;
#857 = CIRCLE ( 'NONE', #707, 0.2500000000000002220 ) ;
#858 = CIRCLE ( 'NONE', #463, 4.000000000000000000 ) ;
#859 = EDGE_LOOP ( 'NONE', ( #967, #607, #1083, #565 ) ) ;
#860 = TOROIDAL_SURFACE ( 'NONE', #662, 6.750000000000000000, 0.2500000000000000000 ) ;
#861 = DIRECTION ( 'NONE',  ( 0.000000000000000000, 0.000000000000000000, 1.000000000000000000 ) ) ;
#862 = FACE_OUTER_BOUND ( 'NONE', #700, .T. ) ;
#863 = STYLED_ITEM ( 'NONE', ( #391 ), #533 ) ;
#864 = VERTEX_POINT ( 'NONE', #73 ) ;
#865 = DIRECTION ( 'NONE',  ( 0.000000000000000000, -0.000000000000000000, 1.000000000000000000 ) ) ;
#866 = EDGE_CURVE ( 'NONE', #382, #1262, #969, .T. ) ;
#867 = CARTESIAN_POINT ( 'NONE',  ( 1.699197433816952350E-15, 0.000000000000000000, -13.74999999999999822 ) ) ;
#868 = VERTEX_POINT ( 'NONE', #1305 ) ;
#869 = CARTESIAN_POINT ( 'NONE',  ( 0.000000000000000000, 27.00000000000000000, 0.000000000000000000 ) ) ;
#870 = CARTESIAN_POINT ( 'NONE',  ( -7.000000000000000000, 21.75000000000000000, 5.500000000000005329 ) ) ;
#871 = ORIENTED_EDGE ( 'NONE', *, *, #1316, .F. ) ;
#872 = PLANE ( 'NONE',  #988 ) ;
#873 =( LENGTH_UNIT ( ) NAMED_UNIT ( * ) SI_UNIT ( .MILLI., .METRE. ) );
#874 = ORIENTED_EDGE ( 'NONE', *, *, #1016, .T. ) ;
#875 = CARTESIAN_POINT ( 'NONE',  ( 7.000000000000000000, 21.50000000000000000, -6.999999999999999112 ) ) ;
#876 = EDGE_CURVE ( 'NONE', #1010, #960, #172, .T. ) ;
#877 = FACE_OUTER_BOUND ( 'NONE', #1086, .T. ) ;
#878 = EDGE_LOOP ( 'NONE', ( #725, #705, #880, #353 ) ) ;
#879 = FILL_AREA_STYLE_COLOUR ( '', #667 ) ;
#880 = ORIENTED_EDGE ( 'NONE', *, *, #1115, .T. ) ;
#881 = DIRECTION ( 'NONE',  ( 0.000000000000000000, 1.000000000000000000, 0.000000000000000000 ) ) ;
#882 = TOROIDAL_SURFACE ( 'NONE', #774, 1.249999999999999778, 0.2500000000000000000 ) ;
#883 = AXIS2_PLACEMENT_3D ( 'NONE', #971, #23, #45 ) ;
#884 = DIRECTION ( 'NONE',  ( 0.000000000000000000, 0.000000000000000000, 1.000000000000000000 ) ) ;
#885 = ADVANCED_FACE ( 'NONE', ( #356 ), #87, .F. ) ;
#886 = CIRCLE ( 'NONE', #729, 1.249999999999999334 ) ;
#887 = ORIENTED_EDGE ( 'NONE', *, *, #1164, .F. ) ;
#888 = CIRCLE ( 'NONE', #600, 0.2500000000000002220 ) ;
#889 = CARTESIAN_POINT ( 'NONE',  ( 0.000000000000000000, 15.00000000000000000, 0.000000000000000000 ) ) ;
#890 = CARTESIAN_POINT ( 'NONE',  ( 7.000000000000000000, 27.00000000000000000, -6.999999999999999112 ) ) ;
#891 = VERTEX_POINT ( 'NONE', #50 ) ;
#892 = CARTESIAN_POINT ( 'NONE',  ( 4.898587196589412829E-16, 14.75000000000000000, -4.000000000000000000 ) ) ;
#893 = CARTESIAN_POINT ( 'NONE',  ( 0.000000000000000000, 0.000000000000000000, 13.74999999999999822 ) ) ;
#894 = ADVANCED_FACE ( 'NONE', ( #44 ), #563, .F. ) ;
#895 = ORIENTED_EDGE ( 'NONE', *, *, #913, .T. ) ;
#896 = CARTESIAN_POINT ( 'NONE',  ( -7.000000000000000000, 26.75000000000000000, 7.000000000000004441 ) ) ;
#897 = EDGE_CURVE ( 'NONE', #370, #902, #617, .T. ) ;
#898 = CARTESIAN_POINT ( 'NONE',  ( -7.000000000000000888, 21.50000000000000000, -6.999999999999997335 ) ) ;
#899 = EDGE_LOOP ( 'NONE', ( #1145, #502, #843, #643 ) ) ;
#900 = CARTESIAN_POINT ( 'NONE',  ( -7.000000000000000000, 26.75000000000000000, 7.000000000000004441 ) ) ;
#901 = DIRECTION ( 'NONE',  ( -0.000000000000000000, -1.000000000000000000, -0.000000000000000000 ) ) ;
#902 = VERTEX_POINT ( 'NONE', #56 ) ;
#903 = FACE_OUTER_BOUND ( 'NONE', #9, .T. ) ;
#904 = ADVANCED_FACE ( 'NONE', ( #677 ), #839, .T. ) ;
#905 = EDGE_LOOP ( 'NONE', ( #895, #1015 ) ) ;
#906 = CARTESIAN_POINT ( 'NONE',  ( 0.000000000000000000, 26.75000000000000000, 0.000000000000000000 ) ) ;
#907 = CIRCLE ( 'NONE', #1202, 7.250000000000000000 ) ;
#908 = CIRCLE ( 'NONE', #548, 1.499999999999999556 ) ;
#909 = CARTESIAN_POINT ( 'NONE',  ( 8.878689293818310074E-16, 26.75000000000000000, -7.250000000000000000 ) ) ;
#910 = AXIS2_PLACEMENT_3D ( 'NONE', #124, #1260, #536 ) ;
#911 = AXIS2_PLACEMENT_3D ( 'NONE', #1026, #389, #495 ) ;
#912 = PRODUCT_CONTEXT ( 'NONE', #1020, 'mechanical' ) ;
#913 = EDGE_CURVE ( 'NONE', #744, #734, #886, .T. ) ;
#914 = CARTESIAN_POINT ( 'NONE',  ( 0.000000000000000000, 27.00000000000000000, -13.99999999999999822 ) ) ;
#915 = CARTESIAN_POINT ( 'NONE',  ( 7.000000000000000000, 21.50000000000000000, -8.249999999999998224 ) ) ;
#916 = ORIENTED_EDGE ( 'NONE', *, *, #1236, .F. ) ;
#917 = DIRECTION ( 'NONE',  ( 1.224646799147349509E-16, 0.000000000000000000, -1.000000000000000000 ) ) ;
#918 = EDGE_CURVE ( 'NONE', #902, #370, #640, .T. ) ;
#919 = CARTESIAN_POINT ( 'NONE',  ( 7.000000000000000000, 26.75000000000000000, 5.500000000000001776 ) ) ;
#920 = LINE ( 'NONE', #706, #552 ) ;
#921 = TOROIDAL_SURFACE ( 'NONE', #571, 13.74999999999999822, 0.2500000000000000000 ) ;
#922 = EDGE_CURVE ( 'NONE', #719, #864, #1055, .T. ) ;
#923 = CIRCLE ( 'NONE', #1250, 13.99999999999999822 ) ;
#924 = CIRCLE ( 'NONE', #334, 1.500000000000000444 ) ;
#925 = ORIENTED_EDGE ( 'NONE', *, *, #813, .F. ) ;
#926 = CIRCLE ( 'NONE', #616, 0.2500000000000002220 ) ;
#927 = FACE_BOUND ( 'NONE', #824, .T. ) ;
#928 = AXIS2_PLACEMENT_3D ( 'NONE', #990, #1074, #1312 ) ;
#929 = AXIS2_PLACEMENT_3D ( 'NONE', #567, #1303, #674 ) ;
#930 = DIRECTION ( 'NONE',  ( 0.000000000000000000, 0.000000000000000000, 1.000000000000000000 ) ) ;
#931 = FACE_OUTER_BOUND ( 'NONE', #84, .T. ) ;
#932 = ORIENTED_EDGE ( 'NONE', *, *, #131, .T. ) ;
#933 = ORIENTED_EDGE ( 'NONE', *, *, #737, .T. ) ;
#934 = DIRECTION ( 'NONE',  ( -0.000000000000000000, -1.000000000000000000, -0.000000000000000000 ) ) ;
#935 = ORIENTED_EDGE ( 'NONE', *, *, #795, .F. ) ;
#936 = FACE_OUTER_BOUND ( 'NONE', #859, .T. ) ;
#937 = DIRECTION ( 'NONE',  ( 0.000000000000000000, 1.000000000000000000, 0.000000000000000000 ) ) ;
#938 = EDGE_LOOP ( 'NONE', ( #1258, #1045, #1242, #178 ) ) ;
#939 = DIRECTION ( 'NONE',  ( 0.000000000000000000, -0.000000000000000000, 1.000000000000000000 ) ) ;
#940 = EDGE_CURVE ( 'NONE', #1099, #155, #253, .T. ) ;
#941 = DIRECTION ( 'NONE',  ( 0.000000000000000000, 1.000000000000000000, 0.000000000000000000 ) ) ;
#942 = EDGE_LOOP ( 'NONE', ( #659, #688, #1046, #531 ) ) ;
#943 = CARTESIAN_POINT ( 'NONE',  ( 8.572527594031473190E-16, 15.25000000000000000, -7.000000000000000000 ) ) ;
#944 = DIRECTION ( 'NONE',  ( 0.000000000000000000, 1.000000000000000000, 0.000000000000000000 ) ) ;
#945 = AXIS2_PLACEMENT_3D ( 'NONE', #165, #1089, #997 ) ;
#946 = ORIENTED_EDGE ( 'NONE', *, *, #737, .F. ) ;
#947 = DIRECTION ( 'NONE',  ( 0.000000000000000000, 0.000000000000000000, 1.000000000000000000 ) ) ;
#948 = AXIS2_PLACEMENT_3D ( 'NONE', #572, #768, #1185 ) ;
#949 = DIRECTION ( 'NONE',  ( 0.000000000000000000, 1.000000000000000000, 0.000000000000000000 ) ) ;
#950 = CIRCLE ( 'NONE', #492, 0.2500000000000002220 ) ;
#951 = AXIS2_PLACEMENT_3D ( 'NONE', #782, #561, #348 ) ;
#952 = CARTESIAN_POINT ( 'NONE',  ( 0.000000000000000000, 27.00000000000000000, 0.000000000000000000 ) ) ;
#953 = ORIENTED_EDGE ( 'NONE', *, *, #303, .F. ) ;
#954 = DIRECTION ( 'NONE',  ( -0.000000000000000000, 1.000000000000000000, -0.000000000000000000 ) ) ;
#955 = FACE_OUTER_BOUND ( 'NONE', #218, .T. ) ;
#956 = ADVANCED_FACE ( 'NONE', ( #808 ), #1138, .T. ) ;
#957 = ORIENTED_EDGE ( 'NONE', *, *, #475, .T. ) ;
#958 = FACE_OUTER_BOUND ( 'NONE', #778, .T. ) ;
#959 = DIRECTION ( 'NONE',  ( -0.000000000000000000, 1.000000000000000000, -0.000000000000000000 ) ) ;
#960 = VERTEX_POINT ( 'NONE', #304 ) ;
#961 = EDGE_CURVE ( 'NONE', #91, #790, #920, .T. ) ;
#962 = ORIENTED_EDGE ( 'NONE', *, *, #378, .F. ) ;
#963 = CARTESIAN_POINT ( 'NONE',  ( -7.000000000000000000, 21.75000000000000000, 7.000000000000004441 ) ) ;
#964 = AXIS2_PLACEMENT_3D ( 'NONE', #484, #1204, #47 ) ;
#965 = CARTESIAN_POINT ( 'NONE',  ( -7.000000000000000888, 27.00000000000000000, -8.749999999999998224 ) ) ;
#966 = AXIS2_PLACEMENT_3D ( 'NONE', #606, #814, #1013 ) ;
#967 = ORIENTED_EDGE ( 'NONE', *, *, #580, .T. ) ;
#968 = AXIS2_PLACEMENT_3D ( 'NONE', #999, #151, #678 ) ;
#969 = LINE ( 'NONE', #1183, #994 ) ;
#970 = CIRCLE ( 'NONE', #388, 1.499999999999999556 ) ;
#971 = CARTESIAN_POINT ( 'NONE',  ( 0.000000000000000000, 27.00000000000000000, 0.000000000000000000 ) ) ;
#972 = CIRCLE ( 'NONE', #106, 4.000000000000000000 ) ;
#973 = VERTEX_POINT ( 'NONE', #717 ) ;
#974 = CARTESIAN_POINT ( 'NONE',  ( 4.898587196589412829E-16, 0.2500000000000000000, -4.000000000000000000 ) ) ;
#975 = DIRECTION ( 'NONE',  ( 0.000000000000000000, 0.000000000000000000, 1.000000000000000000 ) ) ;
#976 = EDGE_CURVE ( 'NONE', #325, #738, #970, .T. ) ;
#977 = ORIENTED_EDGE ( 'NONE', *, *, #797, .T. ) ;
#978 = CARTESIAN_POINT ( 'NONE',  ( 7.000000000000000000, 21.75000000000000000, 5.500000000000001776 ) ) ;
#979 = ORIENTED_EDGE ( 'NONE', *, *, #918, .F. ) ;
#980 = CARTESIAN_POINT ( 'NONE',  ( -7.000000000000000888, 26.75000000000000000, -6.999999999999997335 ) ) ;
#981 = EDGE_CURVE ( 'NONE', #744, #1268, #445, .T. ) ;
#982 = VERTEX_POINT ( 'NONE', #1232 ) ;
#983 = CARTESIAN_POINT ( 'NONE',  ( -7.000000000000000000, 27.00000000000000000, 7.000000000000004441 ) ) ;
#984 = CARTESIAN_POINT ( 'NONE',  ( 0.000000000000000000, 0.000000000000000000, 0.000000000000000000 ) ) ;
#985 = ORIENTED_EDGE ( 'NONE', *, *, #496, .T. ) ;
#986 = DIRECTION ( 'NONE',  ( 0.000000000000000000, 0.000000000000000000, 1.000000000000000000 ) ) ;
#987 = CARTESIAN_POINT ( 'NONE',  ( 5.204748896376250699E-16, 0.000000000000000000, -4.250000000000000000 ) ) ;
#988 = AXIS2_PLACEMENT_3D ( 'NONE', #1059, #553, #865 ) ;
#989 = ORIENTED_EDGE ( 'NONE', *, *, #1236, .T. ) ;
#990 = CARTESIAN_POINT ( 'NONE',  ( 0.000000000000000000, 0.2500000000000002220, 13.74999999999999822 ) ) ;
#991 = TOROIDAL_SURFACE ( 'NONE', #1293, 7.250000000000000000, 0.2500000000000000000 ) ;
#992 = CIRCLE ( 'NONE', #63, 1.499999999999999556 ) ;
#993 = DIRECTION ( 'NONE',  ( -0.000000000000000000, -1.000000000000000000, -0.000000000000000000 ) ) ;
#994 = VECTOR ( 'NONE', #479, 1000.000000000000000 ) ;
#995 = ORIENTED_EDGE ( 'NONE', *, *, #682, .T. ) ;
#996 = AXIS2_PLACEMENT_3D ( 'NONE', #365, #652, #975 ) ;
#997 = DIRECTION ( 'NONE',  ( 0.000000000000000000, 0.000000000000000000, -1.000000000000000000 ) ) ;
#998 = ORIENTED_EDGE ( 'NONE', *, *, #210, .F. ) ;
#999 = CARTESIAN_POINT ( 'NONE',  ( 5.204748896376250699E-16, 14.75000000000000000, -4.250000000000000000 ) ) ;
#1000 = EDGE_LOOP ( 'NONE', ( #395, #328, #647, #1318 ) ) ;
#1001 = EDGE_CURVE ( 'NONE', #1268, #738, #1320, .T. ) ;
#1002 = DIRECTION ( 'NONE',  ( 0.000000000000000000, 1.000000000000000000, 0.000000000000000000 ) ) ;
#1003 =( NAMED_UNIT ( * ) PLANE_ANGLE_UNIT ( ) SI_UNIT ( $, .RADIAN. ) );
#1004 = ORIENTED_EDGE ( 'NONE', *, *, #580, .F. ) ;
#1005 = DIRECTION ( 'NONE',  ( 0.000000000000000000, 0.000000000000000000, 1.000000000000000000 ) ) ;
#1006 = DIRECTION ( 'NONE',  ( 0.000000000000000000, 0.000000000000000000, 1.000000000000000000 ) ) ;
#1007 = ORIENTED_EDGE ( 'NONE', *, *, #1203, .F. ) ;
#1008 = DIRECTION ( 'NONE',  ( 0.000000000000000000, 0.000000000000000000, 1.000000000000000000 ) ) ;
#1009 = DIRECTION ( 'NONE',  ( 1.000000000000000000, 0.000000000000000000, 0.000000000000000000 ) ) ;
#1010 = VERTEX_POINT ( 'NONE', #288 ) ;
#1011 = AXIS2_PLACEMENT_3D ( 'NONE', #14, #241, #842 ) ;
#1012 = VECTOR ( 'NONE', #269, 1000.000000000000000 ) ;
#1013 = DIRECTION ( 'NONE',  ( 0.000000000000000000, -0.000000000000000000, 1.000000000000000000 ) ) ;
#1014 = TOROIDAL_SURFACE ( 'NONE', #425, 13.74999999999999822, 0.2500000000000000000 ) ;
#1015 = ORIENTED_EDGE ( 'NONE', *, *, #447, .T. ) ;
#1016 = EDGE_CURVE ( 'NONE', #198, #831, #691, .T. ) ;
#1017 = DIRECTION ( 'NONE',  ( 0.000000000000000000, 0.000000000000000000, 1.000000000000000000 ) ) ;
#1018 = DIRECTION ( 'NONE',  ( -1.000000000000000000, 0.000000000000000000, 0.000000000000000000 ) ) ;
#1019 = DIRECTION ( 'NONE',  ( 0.000000000000000000, 1.000000000000000000, 0.000000000000000000 ) ) ;
#1020 = APPLICATION_CONTEXT ( 'automotive_design' ) ;
#1021 = FILL_AREA_STYLE ('',( #879 ) ) ;
#1022 = LINE ( 'NONE', #397, #127 ) ;
#1023 = EDGE_CURVE ( 'NONE', #355, #122, #1022, .T. ) ;
#1024 = CARTESIAN_POINT ( 'NONE',  ( 0.000000000000000000, 14.75000000000000000, 0.000000000000000000 ) ) ;
#1025 = EDGE_LOOP ( 'NONE', ( #656, #1295 ) ) ;
#1026 = CARTESIAN_POINT ( 'NONE',  ( -7.000000000000000000, 21.75000000000000000, 7.000000000000004441 ) ) ;
#1027 = ADVANCED_FACE ( 'NONE', ( #300 ), #494, .F. ) ;
#1028 = AXIS2_PLACEMENT_3D ( 'NONE', #1315, #1188, #1008 ) ;
#1029 = DIRECTION ( 'NONE',  ( 0.000000000000000000, 1.000000000000000000, 0.000000000000000000 ) ) ;
#1030 = EDGE_CURVE ( 'NONE', #864, #1042, #1111, .T. ) ;
#1031 =( GEOMETRIC_REPRESENTATION_CONTEXT ( 3 ) GLOBAL_UNCERTAINTY_ASSIGNED_CONTEXT ( ( #129 ) ) GLOBAL_UNIT_ASSIGNED_CONTEXT ( ( #1057, #1266, #132 ) ) REPRESENTATION_CONTEXT ( 'NONE', 'WORKASPACE' ) );
#1032 = ORIENTED_EDGE ( 'NONE', *, *, #1316, .T. ) ;
#1033 = AXIS2_PLACEMENT_3D ( 'NONE', #1105, #585, #79 ) ;
#1034 = ORIENTED_EDGE ( 'NONE', *, *, #1062, .F. ) ;
#1035 = AXIS2_PLACEMENT_3D ( 'NONE', #150, #66, #556 ) ;
#1036 = DIRECTION ( 'NONE',  ( 0.000000000000000000, 0.000000000000000000, 1.000000000000000000 ) ) ;
#1037 = ORIENTED_EDGE ( 'NONE', *, *, #560, .T. ) ;
#1038 = DIRECTION ( 'NONE',  ( 0.000000000000000000, 0.000000000000000000, 1.000000000000000000 ) ) ;
#1039 = ADVANCED_FACE ( 'NONE', ( #392 ), #317, .T. ) ;
#1040 = DIRECTION ( 'NONE',  ( 0.000000000000000000, 1.000000000000000000, 0.000000000000000000 ) ) ;
#1041 = CARTESIAN_POINT ( 'NONE',  ( 0.000000000000000000, 15.25000000000000000, 0.000000000000000000 ) ) ;
#1042 = VERTEX_POINT ( 'NONE', #93 ) ;
#1043 = DIRECTION ( 'NONE',  ( -0.000000000000000000, -1.000000000000000000, -0.000000000000000000 ) ) ;
#1044 = DIRECTION ( 'NONE',  ( 0.000000000000000000, 0.000000000000000000, 1.000000000000000000 ) ) ;
#1045 = ORIENTED_EDGE ( 'NONE', *, *, #68, .T. ) ;
#1046 = ORIENTED_EDGE ( 'NONE', *, *, #1149, .F. ) ;
#1047 = EDGE_CURVE ( 'NONE', #982, #769, #1333, .T. ) ;
#1048 = DIRECTION ( 'NONE',  ( 0.000000000000000000, 0.000000000000000000, 1.000000000000000000 ) ) ;
#1049 = ORIENTED_EDGE ( 'NONE', *, *, #665, .F. ) ;
#1050 = EDGE_LOOP ( 'NONE', ( #962, #346, #852, #1314 ) ) ;
#1051 = DIRECTION ( 'NONE',  ( -0.000000000000000000, 1.000000000000000000, -0.000000000000000000 ) ) ;
#1052 = AXIS2_PLACEMENT_3D ( 'NONE', #1125, #603, #187 ) ;
#1053 = AXIS2_PLACEMENT_3D ( 'NONE', #450, #632, #1253 ) ;
#1054 = DIRECTION ( 'NONE',  ( 0.000000000000000000, 0.000000000000000000, 1.000000000000000000 ) ) ;
#1055 = CIRCLE ( 'NONE', #211, 0.2500000000000002220 ) ;
#1056 = ORIENTED_EDGE ( 'NONE', *, *, #703, .T. ) ;
#1057 =( LENGTH_UNIT ( ) NAMED_UNIT ( * ) SI_UNIT ( .MILLI., .METRE. ) );
#1058 = EDGE_LOOP ( 'NONE', ( #1116, #995, #1034, #249 ) ) ;
#1059 = CARTESIAN_POINT ( 'NONE',  ( 7.000000000000000000, 21.50000000000000000, -6.999999999999999112 ) ) ;
#1060 = CARTESIAN_POINT ( 'NONE',  ( 0.000000000000000000, 0.2500000000000000000, 0.000000000000000000 ) ) ;
#1061 = ORIENTED_EDGE ( 'NONE', *, *, #732, .F. ) ;
#1062 = EDGE_CURVE ( 'NONE', #864, #518, #148, .T. ) ;
#1063 = ORIENTED_EDGE ( 'NONE', *, *, #940, .T. ) ;
#1064 = DIRECTION ( 'NONE',  ( 0.000000000000000000, 1.000000000000000000, 0.000000000000000000 ) ) ;
#1065 = DIRECTION ( 'NONE',  ( 1.000000000000000000, -0.000000000000000000, 1.224646799147353207E-16 ) ) ;
#1066 = ORIENTED_EDGE ( 'NONE', *, *, #809, .T. ) ;
#1067 = ORIENTED_EDGE ( 'NONE', *, *, #475, .F. ) ;
#1068 = FACE_OUTER_BOUND ( 'NONE', #1058, .T. ) ;
#1069 = AXIS2_PLACEMENT_3D ( 'NONE', #794, #1002, #264 ) ;
#1070 = DIRECTION ( 'NONE',  ( -0.000000000000000000, -1.000000000000000000, -0.000000000000000000 ) ) ;
#1071 = CIRCLE ( 'NONE', #1180, 1.499999999999999556 ) ;
#1072 = ORIENTED_EDGE ( 'NONE', *, *, #541, .T. ) ;
#1073 = AXIS2_PLACEMENT_3D ( 'NONE', #900, #881, #460 ) ;
#1074 = DIRECTION ( 'NONE',  ( -1.000000000000000000, 0.000000000000000000, 0.000000000000000000 ) ) ;
#1075 = CIRCLE ( 'NONE', #710, 0.2500000000000002220 ) ;
#1076 = CARTESIAN_POINT ( 'NONE',  ( 1.714505518806294441E-15, 27.00000000000000000, 13.99999999999999822 ) ) ;
#1077 = ORIENTED_EDGE ( 'NONE', *, *, #1175, .F. ) ;
#1078 = DIRECTION ( 'NONE',  ( 0.000000000000000000, 0.000000000000000000, 1.000000000000000000 ) ) ;
#1079 = EDGE_CURVE ( 'NONE', #611, #891, #1296, .T. ) ;
#1080 = ORIENTED_EDGE ( 'NONE', *, *, #250, .T. ) ;
#1081 = DIRECTION ( 'NONE',  ( 0.000000000000000000, 0.000000000000000000, 1.000000000000000000 ) ) ;
#1082 = DIRECTION ( 'NONE',  ( 0.000000000000000000, 1.000000000000000000, 0.000000000000000000 ) ) ;
#1083 = ORIENTED_EDGE ( 'NONE', *, *, #554, .T. ) ;
#1084 = CARTESIAN_POINT ( 'NONE',  ( 0.000000000000000000, 15.25000000000000000, 6.750000000000000000 ) ) ;
#1085 = DIRECTION ( 'NONE',  ( -1.000000000000000000, 0.000000000000000000, 0.000000000000000000 ) ) ;
#1086 = EDGE_LOOP ( 'NONE', ( #180, #1137, #1110, #457 ) ) ;
#1087 = DIRECTION ( 'NONE',  ( -0.000000000000000000, 1.000000000000000000, -0.000000000000000000 ) ) ;
#1088 = ORIENTED_EDGE ( 'NONE', *, *, #341, .F. ) ;
#1089 = DIRECTION ( 'NONE',  ( 1.000000000000000000, -0.000000000000000000, 1.224646799147353207E-16 ) ) ;
#1090 = DIRECTION ( 'NONE',  ( -0.000000000000000000, 1.000000000000000000, -0.000000000000000000 ) ) ;
#1091 = CIRCLE ( 'NONE', #799, 6.750000000000000000 ) ;
#1092 = ORIENTED_EDGE ( 'NONE', *, *, #314, .T. ) ;
#1093 = DIRECTION ( 'NONE',  ( 0.000000000000000000, 0.000000000000000000, 1.000000000000000000 ) ) ;
#1094 = AXIS2_PLACEMENT_3D ( 'NONE', #468, #1065, #48 ) ;
#1095 = EDGE_CURVE ( 'NONE', #982, #418, #1075, .T. ) ;
#1096 = AXIS2_PLACEMENT_3D ( 'NONE', #176, #776, #1006 ) ;
#1097 = FACE_OUTER_BOUND ( 'NONE', #938, .T. ) ;
#1098 = AXIS2_PLACEMENT_3D ( 'NONE', #906, #1127, #1017 ) ;
#1099 = VERTEX_POINT ( 'NONE', #196 ) ;
#1100 = AXIS2_PLACEMENT_3D ( 'NONE', #115, #949, #1054 ) ;
#1101 = DIRECTION ( 'NONE',  ( 1.000000000000000000, -0.000000000000000000, 1.224646799147353207E-16 ) ) ;
#1102 = APPLICATION_PROTOCOL_DEFINITION ( 'draft international standard', 'automotive_design', 1998, #1020 ) ;
#1103 = FACE_BOUND ( 'NONE', #233, .T. ) ;
#1104 = LINE ( 'NONE', #524, #664 ) ;
#1105 = CARTESIAN_POINT ( 'NONE',  ( -7.000000000000000000, 21.75000000000000000, 5.750000000000005329 ) ) ;
#1106 = ADVANCED_FACE ( 'NONE', ( #1331 ), #815, .F. ) ;
#1107 = ORIENTED_EDGE ( 'NONE', *, *, #11, .T. ) ;
#1108 = CARTESIAN_POINT ( 'NONE',  ( -7.000000000000000000, 26.75000000000000000, 5.250000000000004441 ) ) ;
#1109 = SURFACE_STYLE_USAGE ( .BOTH. , #692 ) ;
#1110 = ORIENTED_EDGE ( 'NONE', *, *, #1282, .T. ) ;
#1111 = LINE ( 'NONE', #199, #1324 ) ;
#1112 = CARTESIAN_POINT ( 'NONE',  ( 7.000000000000000000, 21.50000000000000000, 5.750000000000000888 ) ) ;
#1113 = VERTEX_POINT ( 'NONE', #712 ) ;
#1114 = DIRECTION ( 'NONE',  ( 0.000000000000000000, 0.000000000000000000, 1.000000000000000000 ) ) ;
#1115 = EDGE_CURVE ( 'NONE', #1169, #198, #950, .T. ) ;
#1116 = ORIENTED_EDGE ( 'NONE', *, *, #11, .F. ) ;
#1117 = DIRECTION ( 'NONE',  ( 0.000000000000000000, 0.000000000000000000, 1.000000000000000000 ) ) ;
#1118 = CIRCLE ( 'NONE', #1267, 1.249999999999999334 ) ;
#1119 = DIRECTION ( 'NONE',  ( 1.000000000000000000, -0.000000000000000000, 1.224646799147353207E-16 ) ) ;
#1120 = TOROIDAL_SURFACE ( 'NONE', #170, 1.749999999999999556, 0.2500000000000000000 ) ;
#1121 = DIRECTION ( 'NONE',  ( 0.000000000000000000, 1.000000000000000000, 0.000000000000000000 ) ) ;
#1122 = AXIS2_PLACEMENT_3D ( 'NONE', #773, #784, #255 ) ;
#1123 = EDGE_CURVE ( 'NONE', #109, #831, #1104, .T. ) ;
#1124 = CARTESIAN_POINT ( 'NONE',  ( -7.000000000000000000, 21.50000000000000000, 7.000000000000004441 ) ) ;
#1125 = CARTESIAN_POINT ( 'NONE',  ( 7.000000000000000000, 21.50000000000000000, 7.000000000000000888 ) ) ;
#1126 = ADVANCED_FACE ( 'NONE', ( #830 ), #1014, .T. ) ;
#1127 = DIRECTION ( 'NONE',  ( 0.000000000000000000, 1.000000000000000000, 0.000000000000000000 ) ) ;
#1128 = ADVANCED_FACE ( 'NONE', ( #1264 ), #17, .T. ) ;
#1129 = DIRECTION ( 'NONE',  ( 1.000000000000000000, -0.000000000000000000, 1.224646799147353207E-16 ) ) ;
#1130 = FACE_BOUND ( 'NONE', #72, .T. ) ;
#1131 = CARTESIAN_POINT ( 'NONE',  ( 5.204748896376250699E-16, 0.2500000000000000000, -4.250000000000000000 ) ) ;
#1132 = ORIENTED_EDGE ( 'NONE', *, *, #981, .F. ) ;
#1133 = ADVANCED_FACE ( 'NONE', ( #1243 ), #405, .T. ) ;
#1134 = VECTOR ( 'NONE', #954, 1000.000000000000000 ) ;
#1135 = DIRECTION ( 'NONE',  ( 0.000000000000000000, 0.000000000000000000, 1.000000000000000000 ) ) ;
#1136 = AXIS2_PLACEMENT_3D ( 'NONE', #1239, #289, #619 ) ;
#1137 = ORIENTED_EDGE ( 'NONE', *, *, #499, .F. ) ;
#1138 = TOROIDAL_SURFACE ( 'NONE', #1098, 7.250000000000000000, 0.2500000000000000000 ) ;
#1139 = CARTESIAN_POINT ( 'NONE',  ( 7.000000000000000000, 21.50000000000000000, -6.999999999999999112 ) ) ;
#1140 = CARTESIAN_POINT ( 'NONE',  ( -7.000000000000000888, 26.75000000000000000, -5.499999999999997335 ) ) ;
#1141 = EDGE_CURVE ( 'NONE', #133, #762, #777, .T. ) ;
#1142 = ORIENTED_EDGE ( 'NONE', *, *, #554, .F. ) ;
#1143 = ORIENTED_EDGE ( 'NONE', *, *, #758, .T. ) ;
#1144 = DIRECTION ( 'NONE',  ( 1.224646799147353454E-16, 0.000000000000000000, -1.000000000000000000 ) ) ;
#1145 = ORIENTED_EDGE ( 'NONE', *, *, #131, .F. ) ;
#1146 = DIRECTION ( 'NONE',  ( 1.224646799147349509E-16, 0.000000000000000000, -1.000000000000000000 ) ) ;
#1147 = ORIENTED_EDGE ( 'NONE', *, *, #200, .T. ) ;
#1148 = DIRECTION ( 'NONE',  ( 0.000000000000000000, 0.000000000000000000, 1.000000000000000000 ) ) ;
#1149 = EDGE_CURVE ( 'NONE', #790, #122, #42, .T. ) ;
#1150 = DIRECTION ( 'NONE',  ( 0.000000000000000000, 0.000000000000000000, 1.000000000000000000 ) ) ;
#1151 = CIRCLE ( 'NONE', #34, 0.2500000000000002220 ) ;
#1152 = ORIENTED_EDGE ( 'NONE', *, *, #1196, .F. ) ;
#1153 = DIRECTION ( 'NONE',  ( 0.000000000000000000, 0.000000000000000000, 1.000000000000000000 ) ) ;
#1154 = CIRCLE ( 'NONE', #642, 0.2500000000000002220 ) ;
#1155 = CIRCLE ( 'NONE', #489, 13.74999999999999822 ) ;
#1156 = CIRCLE ( 'NONE', #125, 0.2500000000000002220 ) ;
#1157 = EDGE_CURVE ( 'NONE', #683, #973, #780, .T. ) ;
#1158 = CARTESIAN_POINT ( 'NONE',  ( 7.000000000000000000, 21.75000000000000000, -6.999999999999999112 ) ) ;
#1159 = AXIS2_PLACEMENT_3D ( 'NONE', #1041, #204, #415 ) ;
#1160 = AXIS2_PLACEMENT_3D ( 'NONE', #890, #1070, #154 ) ;
#1161 = ORIENTED_EDGE ( 'NONE', *, *, #866, .T. ) ;
#1162 = DIRECTION ( 'NONE',  ( 0.000000000000000000, 0.000000000000000000, 1.000000000000000000 ) ) ;
#1163 = DIRECTION ( 'NONE',  ( 0.000000000000000000, 0.000000000000000000, 1.000000000000000000 ) ) ;
#1164 = EDGE_CURVE ( 'NONE', #891, #1262, #573, .T. ) ;
#1165 = ORIENTED_EDGE ( 'NONE', *, *, #299, .T. ) ;
#1166 = DIRECTION ( 'NONE',  ( 0.000000000000000000, 0.000000000000000000, 1.000000000000000000 ) ) ;
#1167 = EDGE_CURVE ( 'NONE', #413, #382, #1341, .T. ) ;
#1168 = CARTESIAN_POINT ( 'NONE',  ( 7.000000000000000000, 21.50000000000000000, -6.999999999999999112 ) ) ;
#1169 = VERTEX_POINT ( 'NONE', #231 ) ;
#1170 = LINE ( 'NONE', #644, #1134 ) ;
#1171 = DIRECTION ( 'NONE',  ( 0.000000000000000000, 0.000000000000000000, 1.000000000000000000 ) ) ;
#1172 = ORIENTED_EDGE ( 'NONE', *, *, #210, .T. ) ;
#1173 = CARTESIAN_POINT ( 'NONE',  ( 0.000000000000000000, 15.00000000000000000, 0.000000000000000000 ) ) ;
#1174 = CARTESIAN_POINT ( 'NONE',  ( 7.000000000000000000, 21.50000000000000000, 5.500000000000001776 ) ) ;
#1175 = EDGE_CURVE ( 'NONE', #734, #697, #687, .T. ) ;
#1176 = ORIENTED_EDGE ( 'NONE', *, *, #513, .F. ) ;
#1177 = CARTESIAN_POINT ( 'NONE',  ( 0.000000000000000000, 15.00000000000000000, 0.000000000000000000 ) ) ;
#1178 = AXIS2_PLACEMENT_3D ( 'NONE', #763, #18, #1256 ) ;
#1179 = AXIS2_PLACEMENT_3D ( 'NONE', #407, #2, #104 ) ;
#1180 = AXIS2_PLACEMENT_3D ( 'NONE', #626, #1043, #117 ) ;
#1181 = EDGE_LOOP ( 'NONE', ( #116, #1037, #515, #1255 ) ) ;
#1182 = VECTOR ( 'NONE', #1237, 1000.000000000000000 ) ;
#1183 = CARTESIAN_POINT ( 'NONE',  ( 7.000000000000000000, 21.50000000000000000, -5.500000000000000000 ) ) ;
#1184 = AXIS2_PLACEMENT_3D ( 'NONE', #1139, #941, #135 ) ;
#1185 = DIRECTION ( 'NONE',  ( 0.000000000000000000, 0.000000000000000000, 1.000000000000000000 ) ) ;
#1186 = ADVANCED_FACE ( 'NONE', ( #1252, #222 ), #6, .T. ) ;
#1187 = EDGE_LOOP ( 'NONE', ( #1061, #577, #387, #8 ) ) ;
#1188 = DIRECTION ( 'NONE',  ( 0.000000000000000000, 1.000000000000000000, 0.000000000000000000 ) ) ;
#1189 = DIRECTION ( 'NONE',  ( 0.000000000000000000, 0.000000000000000000, 1.000000000000000000 ) ) ;
#1190 = ORIENTED_EDGE ( 'NONE', *, *, #305, .T. ) ;
#1191 = DIRECTION ( 'NONE',  ( -0.000000000000000000, -1.000000000000000000, -0.000000000000000000 ) ) ;
#1192 = CARTESIAN_POINT ( 'NONE',  ( -7.000000000000000000, 21.50000000000000000, 7.000000000000004441 ) ) ;
#1193 = ORIENTED_EDGE ( 'NONE', *, *, #423, .T. ) ;
#1194 = DIRECTION ( 'NONE',  ( 0.000000000000000000, 0.000000000000000000, -1.000000000000000000 ) ) ;
#1195 = DIRECTION ( 'NONE',  ( 0.000000000000000000, 0.000000000000000000, 1.000000000000000000 ) ) ;
#1196 = EDGE_CURVE ( 'NONE', #1209, #109, #972, .T. ) ;
#1197 = ORIENTED_EDGE ( 'NONE', *, *, #399, .F. ) ;
#1198 = CYLINDRICAL_SURFACE ( 'NONE', #599, 7.000000000000000000 ) ;
#1199 = CARTESIAN_POINT ( 'NONE',  ( 0.000000000000000000, 0.000000000000000000, 0.000000000000000000 ) ) ;
#1200 = VERTEX_POINT ( 'NONE', #429 ) ;
#1201 = DIRECTION ( 'NONE',  ( 0.000000000000000000, 0.000000000000000000, 1.000000000000000000 ) ) ;
#1202 = AXIS2_PLACEMENT_3D ( 'NONE', #787, #458, #76 ) ;
#1203 = EDGE_CURVE ( 'NONE', #337, #1307, #333, .T. ) ;
#1204 = DIRECTION ( 'NONE',  ( -0.000000000000000000, -1.000000000000000000, -0.000000000000000000 ) ) ;
#1205 = CYLINDRICAL_SURFACE ( 'NONE', #364, 13.99999999999999822 ) ;
#1206 = CIRCLE ( 'NONE', #1011, 1.749999999999999778 ) ;
#1207 = CIRCLE ( 'NONE', #751, 0.2500000000000002220 ) ;
#1208 = CARTESIAN_POINT ( 'NONE',  ( 7.000000000000000000, 26.75000000000000000, -8.499999999999998224 ) ) ;
#1209 = VERTEX_POINT ( 'NONE', #1257 ) ;
#1210 = AXIS2_PLACEMENT_3D ( 'NONE', #491, #715, #1009 ) ;
#1211 = CARTESIAN_POINT ( 'NONE',  ( -7.000000000000000000, 21.50000000000000000, 7.000000000000004441 ) ) ;
#1212 = ORIENTED_EDGE ( 'NONE', *, *, #665, .T. ) ;
#1213 = DIRECTION ( 'NONE',  ( -1.000000000000000000, 0.000000000000000000, 0.000000000000000000 ) ) ;
#1214 = DIRECTION ( 'NONE',  ( 0.000000000000000000, 0.000000000000000000, 1.000000000000000000 ) ) ;
#1215 = ADVANCED_FACE ( 'NONE', ( #539 ), #506, .T. ) ;
#1216 = DIRECTION ( 'NONE',  ( 0.000000000000000000, 0.000000000000000000, 1.000000000000000000 ) ) ;
#1217 = EDGE_LOOP ( 'NONE', ( #957, #1265 ) ) ;
#1218 = DIRECTION ( 'NONE',  ( -0.000000000000000000, 1.000000000000000000, -0.000000000000000000 ) ) ;
#1219 = DIRECTION ( 'NONE',  ( 0.000000000000000000, 0.000000000000000000, 1.000000000000000000 ) ) ;
#1220 = EDGE_CURVE ( 'NONE', #109, #1288, #888, .T. ) ;
#1221 = FACE_OUTER_BOUND ( 'NONE', #373, .T. ) ;
#1222 = CARTESIAN_POINT ( 'NONE',  ( 7.000000000000000000, 21.50000000000000000, 7.000000000000000888 ) ) ;
#1223 = AXIS2_PLACEMENT_3D ( 'NONE', #1263, #1051, #1162 ) ;
#1224 = AXIS2_PLACEMENT_3D ( 'NONE', #99, #497, #110 ) ;
#1225 = DIRECTION ( 'NONE',  ( -1.000000000000000000, 0.000000000000000000, 0.000000000000000000 ) ) ;
#1226 = AXIS2_PLACEMENT_3D ( 'NONE', #984, #993, #375 ) ;
#1227 = DIRECTION ( 'NONE',  ( 0.000000000000000000, 0.000000000000000000, 1.000000000000000000 ) ) ;
#1228 = AXIS2_PLACEMENT_3D ( 'NONE', #875, #367, #472 ) ;
#1229 = ADVANCED_FACE ( 'NONE', ( #624 ), #426, .T. ) ;
#1230 = AXIS2_PLACEMENT_3D ( 'NONE', #312, #740, #32 ) ;
#1231 =( NAMED_UNIT ( * ) SI_UNIT ( $, .STERADIAN. ) SOLID_ANGLE_UNIT ( ) );
#1232 = CARTESIAN_POINT ( 'NONE',  ( 0.000000000000000000, 26.75000000000000000, -13.99999999999999822 ) ) ;
#1233 = CARTESIAN_POINT ( 'NONE',  ( 0.000000000000000000, 0.000000000000000000, 0.000000000000000000 ) ) ;
#1234 = DIRECTION ( 'NONE',  ( 0.000000000000000000, 1.000000000000000000, 0.000000000000000000 ) ) ;
#1235 = DIRECTION ( 'NONE',  ( 0.000000000000000000, 1.000000000000000000, 0.000000000000000000 ) ) ;
#1236 = EDGE_CURVE ( 'NONE', #902, #1042, #1154, .T. ) ;
#1237 = DIRECTION ( 'NONE',  ( -0.000000000000000000, 1.000000000000000000, -0.000000000000000000 ) ) ;
#1238 = ORIENTED_EDGE ( 'NONE', *, *, #1319, .F. ) ;
#1239 = CARTESIAN_POINT ( 'NONE',  ( 7.000000000000000000, 26.75000000000000000, 7.000000000000000888 ) ) ;
#1240 = DIRECTION ( 'NONE',  ( 0.000000000000000000, 0.000000000000000000, 1.000000000000000000 ) ) ;
#1241 = ORIENTED_EDGE ( 'NONE', *, *, #1095, .T. ) ;
#1242 = ORIENTED_EDGE ( 'NONE', *, *, #813, .T. ) ;
#1243 = FACE_OUTER_BOUND ( 'NONE', #49, .T. ) ;
#1244 = TOROIDAL_SURFACE ( 'NONE', #726, 1.749999999999999778, 0.2500000000000000000 ) ;
#1245 = CARTESIAN_POINT ( 'NONE',  ( 8.266365894244634333E-16, 15.25000000000000000, -6.750000000000000000 ) ) ;
#1246 = AXIS2_PLACEMENT_3D ( 'NONE', #853, #335, #753 ) ;
#1247 = ORIENTED_EDGE ( 'NONE', *, *, #1254, .F. ) ;
#1248 = AXIS2_PLACEMENT_3D ( 'NONE', #1222, #826, #1005 ) ;
#1249 = FACE_OUTER_BOUND ( 'NONE', #503, .T. ) ;
#1250 = AXIS2_PLACEMENT_3D ( 'NONE', #658, #265, #681 ) ;
#1251 = UNCERTAINTY_MEASURE_WITH_UNIT (LENGTH_MEASURE( 1.000000000000000082E-05 ), #873, 'distance_accuracy_value', 'NONE');
#1252 = FACE_OUTER_BOUND ( 'NONE', #679, .T. ) ;
#1253 = DIRECTION ( 'NONE',  ( 0.000000000000000000, 0.000000000000000000, 1.000000000000000000 ) ) ;
#1254 = EDGE_CURVE ( 'NONE', #213, #676, #402, .T. ) ;
#1255 = ORIENTED_EDGE ( 'NONE', *, *, #541, .F. ) ;
#1256 = DIRECTION ( 'NONE',  ( 0.000000000000000000, 0.000000000000000000, 1.000000000000000000 ) ) ;
#1257 = CARTESIAN_POINT ( 'NONE',  ( 0.000000000000000000, 0.2500000000000000000, 4.000000000000000000 ) ) ;
#1258 = ORIENTED_EDGE ( 'NONE', *, *, #1062, .T. ) ;
#1259 = DIRECTION ( 'NONE',  ( -0.000000000000000000, -1.000000000000000000, -0.000000000000000000 ) ) ;
#1260 = DIRECTION ( 'NONE',  ( 0.000000000000000000, 1.000000000000000000, 0.000000000000000000 ) ) ;
#1261 = EDGE_CURVE ( 'NONE', #1304, #122, #620, .T. ) ;
#1262 = VERTEX_POINT ( 'NONE', #259 ) ;
#1263 = CARTESIAN_POINT ( 'NONE',  ( -7.000000000000000888, 21.50000000000000000, -6.999999999999997335 ) ) ;
#1264 = FACE_OUTER_BOUND ( 'NONE', #878, .T. ) ;
#1265 = ORIENTED_EDGE ( 'NONE', *, *, #501, .T. ) ;
#1266 =( NAMED_UNIT ( * ) PLANE_ANGLE_UNIT ( ) SI_UNIT ( $, .RADIAN. ) );
#1267 = AXIS2_PLACEMENT_3D ( 'NONE', #203, #835, #612 ) ;
#1268 = VERTEX_POINT ( 'NONE', #62 ) ;
#1269 = LINE ( 'NONE', #243, #771 ) ;
#1270 = CIRCLE ( 'NONE', #340, 0.2500000000000002220 ) ;
#1271 = EDGE_CURVE ( 'NONE', #1209, #198, #40, .T. ) ;
#1272 = TOROIDAL_SURFACE ( 'NONE', #363, 4.250000000000000000, 0.2500000000000000000 ) ;
#1273 = DIRECTION ( 'NONE',  ( 0.000000000000000000, 0.000000000000000000, 1.000000000000000000 ) ) ;
#1274 = EDGE_CURVE ( 'NONE', #518, #864, #693, .T. ) ;
#1275 = VECTOR ( 'NONE', #498, 1000.000000000000000 ) ;
#1276 =( GEOMETRIC_REPRESENTATION_CONTEXT ( 3 ) GLOBAL_UNCERTAINTY_ASSIGNED_CONTEXT ( ( #1251 ) ) GLOBAL_UNIT_ASSIGNED_CONTEXT ( ( #873, #71, #764 ) ) REPRESENTATION_CONTEXT ( 'NONE', 'WORKASPACE' ) );
#1277 = ORIENTED_EDGE ( 'NONE', *, *, #22, .T. ) ;
#1278 = DIRECTION ( 'NONE',  ( 0.000000000000000000, 0.000000000000000000, 1.000000000000000000 ) ) ;
#1279 = EDGE_LOOP ( 'NONE', ( #242, #1172, #1066, #583 ) ) ;
#1280 = CARTESIAN_POINT ( 'NONE',  ( 0.000000000000000000, 27.00000000000000000, 7.250000000000000000 ) ) ;
#1281 = LINE ( 'NONE', #237, #1298 ) ;
#1282 = EDGE_CURVE ( 'NONE', #676, #91, #296, .T. ) ;
#1283 = EDGE_LOOP ( 'NONE', ( #64, #834, #672, #759 ) ) ;
#1284 = DIRECTION ( 'NONE',  ( -0.000000000000000000, -1.000000000000000000, -0.000000000000000000 ) ) ;
#1285 = FACE_OUTER_BOUND ( 'NONE', #822, .T. ) ;
#1286 = VERTEX_POINT ( 'NONE', #867 ) ;
#1287 = CARTESIAN_POINT ( 'NONE',  ( -7.000000000000000888, 21.75000000000000000, -5.499999999999997335 ) ) ;
#1288 = VERTEX_POINT ( 'NONE', #987 ) ;
#1289 = DIRECTION ( 'NONE',  ( 0.000000000000000000, 0.000000000000000000, 1.000000000000000000 ) ) ;
#1290 = CARTESIAN_POINT ( 'NONE',  ( -7.000000000000000888, 21.75000000000000000, -6.999999999999997335 ) ) ;
#1291 = ORIENTED_EDGE ( 'NONE', *, *, #779, .T. ) ;
#1292 = TOROIDAL_SURFACE ( 'NONE', #291, 1.249999999999999778, 0.2500000000000000000 ) ;
#1293 = AXIS2_PLACEMENT_3D ( 'NONE', #610, #1234, #1114 ) ;
#1294 = TOROIDAL_SURFACE ( 'NONE', #910, 1.750000000000000666, 0.2500000000000000000 ) ;
#1295 = ORIENTED_EDGE ( 'NONE', *, *, #1254, .T. ) ;
#1296 = CIRCLE ( 'NONE', #467, 1.749999999999999778 ) ;
#1297 = CARTESIAN_POINT ( 'NONE',  ( 1.714505518806294441E-15, 26.75000000000000000, 13.99999999999999822 ) ) ;
#1298 = VECTOR ( 'NONE', #1090, 1000.000000000000000 ) ;
#1299 = FACE_OUTER_BOUND ( 'NONE', #21, .T. ) ;
#1300 = ORIENTED_EDGE ( 'NONE', *, *, #961, .T. ) ;
#1301 = EDGE_CURVE ( 'NONE', #762, #133, #406, .T. ) ;
#1302 = CARTESIAN_POINT ( 'NONE',  ( 7.000000000000000000, 21.75000000000000000, -6.999999999999999112 ) ) ;
#1303 = DIRECTION ( 'NONE',  ( -1.000000000000000000, 0.000000000000000000, 0.000000000000000000 ) ) ;
#1304 = VERTEX_POINT ( 'NONE', #965 ) ;
#1305 = CARTESIAN_POINT ( 'NONE',  ( 0.000000000000000000, 27.00000000000000000, 13.74999999999999822 ) ) ;
#1306 = CARTESIAN_POINT ( 'NONE',  ( 0.000000000000000000, 15.00000000000000000, 6.750000000000000000 ) ) ;
#1307 = VERTEX_POINT ( 'NONE', #789 ) ;
#1308 = FACE_OUTER_BOUND ( 'NONE', #254, .T. ) ;
#1309 = EDGE_CURVE ( 'NONE', #982, #846, #923, .T. ) ;
#1310 = APPLICATION_PROTOCOL_DEFINITION ( 'draft international standard', 'automotive_design', 1998, #113 ) ;
#1311 = FACE_BOUND ( 'NONE', #318, .T. ) ;
#1312 = DIRECTION ( 'NONE',  ( 0.000000000000000000, 0.000000000000000000, 1.000000000000000000 ) ) ;
#1313 = DIRECTION ( 'NONE',  ( 0.000000000000000000, 0.000000000000000000, 1.000000000000000000 ) ) ;
#1314 = ORIENTED_EDGE ( 'NONE', *, *, #809, .F. ) ;
#1315 = CARTESIAN_POINT ( 'NONE',  ( 7.000000000000000000, 26.75000000000000000, 7.000000000000000888 ) ) ;
#1316 = EDGE_CURVE ( 'NONE', #1288, #1113, #193, .T. ) ;
#1317 = CIRCLE ( 'NONE', #401, 1.249999999999999334 ) ;
#1318 = ORIENTED_EDGE ( 'NONE', *, *, #1271, .F. ) ;
#1319 = EDGE_CURVE ( 'NONE', #762, #1010, #1281, .T. ) ;
#1320 = LINE ( 'NONE', #97, #1182 ) ;
#1321 = AXIS2_PLACEMENT_3D ( 'NONE', #516, #937, #417 ) ;
#1322 = AXIS2_PLACEMENT_3D ( 'NONE', #326, #742, #861 ) ;
#1323 = DIRECTION ( 'NONE',  ( 0.000000000000000000, 1.000000000000000000, 0.000000000000000000 ) ) ;
#1324 = VECTOR ( 'NONE', #186, 1000.000000000000000 ) ;
#1325 = DIRECTION ( 'NONE',  ( -0.000000000000000000, -1.000000000000000000, -0.000000000000000000 ) ) ;
#1326 = SHAPE_DEFINITION_REPRESENTATION ( #635, #533 ) ;
#1327 = DIRECTION ( 'NONE',  ( 0.000000000000000000, 0.000000000000000000, 1.000000000000000000 ) ) ;
#1328 = EDGE_CURVE ( 'NONE', #155, #960, #1270, .T. ) ;
#1329 = CYLINDRICAL_SURFACE ( 'NONE', #1052, 1.499999999999999556 ) ;
#1330 = ORIENTED_EDGE ( 'NONE', *, *, #267, .F. ) ;
#1331 = FACE_OUTER_BOUND ( 'NONE', #302, .T. ) ;
#1332 = DIRECTION ( 'NONE',  ( 0.000000000000000000, -0.000000000000000000, 1.000000000000000000 ) ) ;
#1333 = LINE ( 'NONE', #914, #1275 ) ;
#1334 = TOROIDAL_SURFACE ( 'NONE', #833, 13.74999999999999822, 0.2500000000000000000 ) ;
#1335 = AXIS2_PLACEMENT_3D ( 'NONE', #735, #121, #219 ) ;
#1336 = CIRCLE ( 'NONE', #168, 4.000000000000000000 ) ;
#1337 = CIRCLE ( 'NONE', #690, 13.74999999999999822 ) ;
#1338 = PLANE ( 'NONE',  #836 ) ;
#1339 = AXIS2_PLACEMENT_3D ( 'NONE', #684, #156, #1093 ) ;
#1340 = EDGE_CURVE ( 'NONE', #891, #611, #230, .T. ) ;
#1341 = CIRCLE ( 'NONE', #711, 1.499999999999999556 ) ;
#1342 = FACE_BOUND ( 'NONE', #436, .T. ) ;
ENDSEC;
END-ISO-10303-21;
