ISO-10303-21;
HEADER;
FILE_DESCRIPTION (( 'STEP AP214' ),
    '1' );
FILE_NAME ('encoder-stand_magnetic-encoder-holder-assy.STEP',
    '2026-01-08T13:34:33',
    ( '' ),
    ( '' ),
    'SwSTEP 2.0',
    'SolidWorks 2025',
    '' );
FILE_SCHEMA (( 'AUTOMOTIVE_DESIGN' ));
ENDSEC;

DATA;
#1 = SHAPE_REPRESENTATION ( 'encoder-stand_magnetic-encoder-holder-base', ( #30 ), #200 ) ;
#2 = PRODUCT_DEFINITION_SHAPE ( 'NONE', 'NONE',  #234 ) ;
#3 = CARTESIAN_POINT ( 'NONE',  ( 1003.936891768585838, 1007.976554046854631, 1025.086875404078910 ) ) ;
#4 = PRODUCT_DEFINITION_CONTEXT ( 'detailed design', #67, 'design' ) ;
#5 = DIRECTION ( 'NONE',  ( 1.000000000000000000, 0.000000000000000000, 0.000000000000000000 ) ) ;
#6 = PRODUCT_RELATED_PRODUCT_CATEGORY ( 'part', '', ( #13 ) ) ;
#7 = APPLICATION_PROTOCOL_DEFINITION ( 'draft international standard', 'automotive_design', 1998, #67 ) ;
#8 =( REPRESENTATION_RELATIONSHIP ('NONE','NONE', #115, #152 ) REPRESENTATION_RELATIONSHIP_WITH_TRANSFORMATION ( #208 )SHAPE_REPRESENTATION_RELATIONSHIP( ) );
#9 = PRODUCT ( 'Insert M2 D3.6 L4mm.stp', 'Insert M2 D3.6 L4mm.stp', '', ( #77 ) ) ;
#10 = DIRECTION ( 'NONE',  ( -0.8371691043312223801, -1.821689927585764207E-16, -0.5469441386039887165 ) ) ;
#11 = APPLICATION_CONTEXT ( 'automotive_design' ) ;
#12 = PRODUCT_CONTEXT ( 'NONE', #91, 'mechanical' ) ;
#13 = PRODUCT ( 'Insert M3 D5 L5mm_(mod)', 'Insert M3 D5 L5mm_(mod)', '', ( #12 ) ) ;
#14 = PROPERTY_DEFINITION_REPRESENTATION ( #109, #152 ) ;
#15 = APPLIED_EXTERNAL_IDENTIFICATION_ASSIGNMENT ( 'encoder-stand_magnetic-encoder-holder-base.STEP' , #165, #189,( #51) ) ;
#16 = ROLE_ASSOCIATION ( #198, #191 ) ;
#17 = DOCUMENT_FILE ( 'Insert M3 D5 L5mm_(mod).STEP' , '', '', #19, '' ,$ ) ;
#18 = IDENTIFICATION_ROLE ( 'external document id and location', $) ;
#19 = DOCUMENT_TYPE ( 'geometry' ) ;
#20 = PRODUCT_DEFINITION_SHAPE ( 'NONE', 'NONE',  #230 ) ;
#21 = CARTESIAN_POINT ( 'NONE',  ( 988.4867572885769960, 1008.476554046854517, 1015.590540089059004 ) ) ;
#22 = AXIS2_PLACEMENT_3D ( 'NONE', #97, #61, #46 ) ;
#23 = DIRECTION ( 'NONE',  ( 1.000000000000000000, 0.000000000000000000, 0.000000000000000000 ) ) ;
#24 = DOCUMENT_FILE ( 'Insert M3 D5 L5mm_(mod).STEP' , '', '', #37, '' ,$ ) ;
#25 = EXTERNAL_SOURCE (IDENTIFIER('') ) ;
#26 =( NAMED_UNIT ( * ) SI_UNIT ( $, .STERADIAN. ) SOLID_ANGLE_UNIT ( ) );
#27 = AXIS2_PLACEMENT_3D ( 'NONE', #40, #103, #10 ) ;
#28 = ITEM_DEFINED_TRANSFORMATION ( 'NONE', 'NONE', #99,  #30 ) ;
#29 = PRODUCT_DEFINITION_SHAPE ( 'NONE', 'NONE',  #194 ) ;
#30 = AXIS2_PLACEMENT_3D ( 'NONE', #218, #93, #113 ) ;
#31 = PROPERTY_DEFINITION_REPRESENTATION ( #101, #43 ) ;
#32 = APPLICATION_CONTEXT ( 'automotive_design' ) ;
#33 =( REPRESENTATION_RELATIONSHIP ('NONE','NONE', #115, #43 ) REPRESENTATION_RELATIONSHIP_WITH_TRANSFORMATION ( #48 )SHAPE_REPRESENTATION_RELATIONSHIP( ) );
#34 = PRODUCT_DEFINITION_CONTEXT ( 'detailed design', #32, 'design' ) ;
#35 = PROPERTY_DEFINITION ('external definition','', #51 ) ;
#36 = DIRECTION ( 'NONE',  ( -2.465190328815661892E-32, -1.000000000000000000, -3.330669073875470114E-16 ) ) ;
#37 = DOCUMENT_TYPE ( 'geometry' ) ;
#38 = CONTEXT_DEPENDENT_SHAPE_REPRESENTATION ( #182, #179 ) ;
#39 = APPLICATION_CONTEXT ( 'automotive_design' ) ;
#40 = CARTESIAN_POINT ( 'NONE',  ( 988.4868839306802784, 1008.476554046854517, 1003.587760688846856 ) ) ;
#41 = OBJECT_ROLE ('mandatory',$ ) ;
#42 = SHAPE_DEFINITION_REPRESENTATION ( #56, #152 ) ;
#43 = SHAPE_REPRESENTATION ( 'Insert M2 D3.6 L4mm.stp', ( #184 ), #186 ) ;
#44 = APPLIED_EXTERNAL_IDENTIFICATION_ASSIGNMENT ( 'Insert M3 D5 L5mm_(mod).STEP' , #222, #25,( #17) ) ;
#45 = PRODUCT_RELATED_PRODUCT_CATEGORY ( 'part', '', ( #210 ) ) ;
#46 = DIRECTION ( 'NONE',  ( -0.8371691043312223801, -1.821689927585764207E-16, -0.5469441386039887165 ) ) ;
#47 = ITEM_DEFINED_TRANSFORMATION ( 'NONE', 'NONE', #100,  #176 ) ;
#48 = ITEM_DEFINED_TRANSFORMATION ( 'NONE', 'NONE', #27,  #184 ) ;
#49 = OBJECT_ROLE ('mandatory',$ ) ;
#50 = APPLIED_DOCUMENT_REFERENCE ( #51,'',( #194) ) ;
#51 = DOCUMENT_FILE ( 'encoder-stand_magnetic-encoder-holder-base.STEP' , '', '', #185, '' ,$ ) ;
#52 = PRODUCT_DEFINITION_FORMATION_WITH_SPECIFIED_SOURCE ( 'Symmetric', '', #92, .NOT_KNOWN. ) ;
#53 = PRODUCT_DEFINITION_SHAPE ( 'NONE', 'NONE',  #88 ) ;
#54 = APPLICATION_CONTEXT ( 'automotive_design' ) ;
#55 = CARTESIAN_POINT ( 'NONE',  ( 0.000000000000000000, 0.000000000000000000, 0.000000000000000000 ) ) ;
#56 = PRODUCT_DEFINITION_SHAPE ( 'NONE', 'NONE',  #83 ) ;
#57 = APPLIED_EXTERNAL_IDENTIFICATION_ASSIGNMENT ( 'Insert M2 D3.6 L4mm.stp.STEP' , #159, #126,( #70) ) ;
#58 = APPLICATION_PROTOCOL_DEFINITION ( 'draft international standard', 'automotive_design', 1998, #11 ) ;
#59 =( NAMED_UNIT ( * ) SI_UNIT ( $, .STERADIAN. ) SOLID_ANGLE_UNIT ( ) );
#60 = UNCERTAINTY_MEASURE_WITH_UNIT (LENGTH_MEASURE( 1.000000000000000082E-05 ), #118, 'distance_accuracy_value', 'NONE');
#61 = DIRECTION ( 'NONE',  ( -2.465190328815661892E-32, -1.000000000000000000, -3.330669073875470114E-16 ) ) ;
#62 = DIRECTION ( 'NONE',  ( -2.465190328815661892E-32, -1.000000000000000000, -3.330669073875470114E-16 ) ) ;
#63 = APPLICATION_PROTOCOL_DEFINITION ( 'draft international standard', 'automotive_design', 1998, #54 ) ;
#64 =( REPRESENTATION_RELATIONSHIP ('NONE','NONE', #115, #1 ) REPRESENTATION_RELATIONSHIP_WITH_TRANSFORMATION ( #28 )SHAPE_REPRESENTATION_RELATIONSHIP( ) );
#65 = DIRECTION ( 'NONE',  ( -2.465190328815661892E-32, 3.330669073875470114E-16, 1.000000000000000000 ) ) ;
#66 = APPLIED_EXTERNAL_IDENTIFICATION_ASSIGNMENT ( 'Insert M3 D5 L5mm_(mod).STEP' , #18, #71,( #180) ) ;
#67 = APPLICATION_CONTEXT ( 'automotive_design' ) ;
#68 = CONTEXT_DEPENDENT_SHAPE_REPRESENTATION ( #64, #142 ) ;
#69 = ROLE_ASSOCIATION ( #114, #196 ) ;
#70 = DOCUMENT_FILE ( 'Insert M2 D3.6 L4mm.stp.STEP' , '', '', #133, '' ,$ ) ;
#71 = EXTERNAL_SOURCE (IDENTIFIER('') ) ;
#72 = PRODUCT_DEFINITION_SHAPE ( 'NONE', 'NONE',  #192 ) ;
#73 = AXIS2_PLACEMENT_3D ( 'NONE', #201, #36, #228 ) ;
#74 = DIRECTION ( 'NONE',  ( -2.465190328815661892E-32, -1.000000000000000000, -3.330669073875470114E-16 ) ) ;
#75 =( NAMED_UNIT ( * ) PLANE_ANGLE_UNIT ( ) SI_UNIT ( $, .RADIAN. ) );
#76 = ROLE_ASSOCIATION ( #134, #172 ) ;
#77 = PRODUCT_CONTEXT ( 'NONE', #117, 'mechanical' ) ;
#78 = DIRECTION ( 'NONE',  ( 1.000000000000000000, 2.465190328815661892E-32, -2.465190328815661892E-32 ) ) ;
#79 = PROPERTY_DEFINITION ('document property','', #17 ) ;
#80 = PROPERTY_DEFINITION_REPRESENTATION ( #193, #152 ) ;
#81 = PRODUCT_DEFINITION_FORMATION_WITH_SPECIFIED_SOURCE ( 'Symmetric', '', #210, .NOT_KNOWN. ) ;
#82 = PROPERTY_DEFINITION_REPRESENTATION ( #226, #152 ) ;
#83 = PRODUCT_DEFINITION ( 'General', '', #150, #94 ) ;
#84 = PROPERTY_DEFINITION_REPRESENTATION ( #197, #43 ) ;
#85 = EXTERNAL_SOURCE (IDENTIFIER('') ) ;
#86 = APPLIED_DOCUMENT_REFERENCE ( #70,'',( #192) ) ;
#87 = PROPERTY_DEFINITION ('external definition','', #225 ) ;
#88 = PRODUCT_DEFINITION ( 'General', '', #81, #108 ) ;
#89 = PROPERTY_DEFINITION_REPRESENTATION ( #79, #152 ) ;
#90 = DOCUMENT_TYPE ( 'geometry' ) ;
#91 = APPLICATION_CONTEXT ( 'automotive_design' ) ;
#92 = PRODUCT ( 'encoder-stand_magnetic-encoder-holder-base', 'encoder-stand_magnetic-encoder-holder-base', '', ( #132 ) ) ;
#93 = DIRECTION ( 'NONE',  ( 0.000000000000000000, 0.000000000000000000, 1.000000000000000000 ) ) ;
#94 = PRODUCT_DEFINITION_CONTEXT ( 'detailed design', #105, 'design' ) ;
#95 = PRODUCT_RELATED_PRODUCT_CATEGORY ( 'part', '', ( #9 ) ) ;
#96 = PRODUCT_CONTEXT ( 'NONE', #11, 'mechanical' ) ;
#97 = CARTESIAN_POINT ( 'NONE',  ( 972.9368917685857241, 1007.976554046854631, 994.0868754040792510 ) ) ;
#98 = PROPERTY_DEFINITION_REPRESENTATION ( #87, #43 ) ;
#99 = AXIS2_PLACEMENT_3D ( 'NONE', #220, #65, #78 ) ;
#100 = AXIS2_PLACEMENT_3D ( 'NONE', #3, #74, #146 ) ;
#101 = PROPERTY_DEFINITION ('external definition','', #70 ) ;
#102 = SHAPE_DEFINITION_REPRESENTATION ( #53, #115 ) ;
#103 = DIRECTION ( 'NONE',  ( -2.465190328815661892E-32, -1.000000000000000000, -3.330669073875470114E-16 ) ) ;
#104 = CONTEXT_DEPENDENT_SHAPE_REPRESENTATION ( #128, #2 ) ;
#105 = APPLICATION_CONTEXT ( 'automotive_design' ) ;
#106 = PROPERTY_DEFINITION ('document property','', #51 ) ;
#107 = ROLE_ASSOCIATION ( #177, #50 ) ;
#108 = PRODUCT_DEFINITION_CONTEXT ( 'detailed design', #39, 'design' ) ;
#109 = PROPERTY_DEFINITION ('document property','', #180 ) ;
#110 = EXTERNAL_SOURCE (IDENTIFIER('') ) ;
#111 = PROPERTY_DEFINITION ('external definition','', #24 ) ;
#112 = APPLICATION_PROTOCOL_DEFINITION ( 'draft international standard', 'automotive_design', 1998, #39 ) ;
#113 = DIRECTION ( 'NONE',  ( 1.000000000000000000, 0.000000000000000000, 0.000000000000000000 ) ) ;
#114 = OBJECT_ROLE ('mandatory',$ ) ;
#115 = SHAPE_REPRESENTATION ( 'encoder-stand_magnetic-encoder-holder-assy', ( #195, #170, #73, #100, #99, #22, #130, #27 ), #173 ) ;
#116 = PROPERTY_DEFINITION_REPRESENTATION ( #119, #43 ) ;
#117 = APPLICATION_CONTEXT ( 'automotive_design' ) ;
#118 =( LENGTH_UNIT ( ) NAMED_UNIT ( * ) SI_UNIT ( .MILLI., .METRE. ) );
#119 = PROPERTY_DEFINITION ('document property','', #225 ) ;
#120 = DIRECTION ( 'NONE',  ( 0.000000000000000000, 0.000000000000000000, 1.000000000000000000 ) ) ;
#121 = CARTESIAN_POINT ( 'NONE',  ( 1003.936891768585383, 1007.976554046854631, 994.0868754040790236 ) ) ;
#122 = IDENTIFICATION_ROLE ( 'external document id and location', $) ;
#123 = APPLICATION_PROTOCOL_DEFINITION ( 'draft international standard', 'automotive_design', 1998, #32 ) ;
#124 = PROPERTY_DEFINITION_REPRESENTATION ( #35, #1 ) ;
#125 = APPLIED_EXTERNAL_IDENTIFICATION_ASSIGNMENT ( 'Insert M3 D5 L5mm_(mod).STEP' , #122, #110,( #187) ) ;
#126 = EXTERNAL_SOURCE (IDENTIFIER('') ) ;
#127 = CONTEXT_DEPENDENT_SHAPE_REPRESENTATION ( #33, #207 ) ;
#128 =( REPRESENTATION_RELATIONSHIP ('NONE','NONE', #115, #152 ) REPRESENTATION_RELATIONSHIP_WITH_TRANSFORMATION ( #215 )SHAPE_REPRESENTATION_RELATIONSHIP( ) );
#129 =( LENGTH_UNIT ( ) NAMED_UNIT ( * ) SI_UNIT ( .MILLI., .METRE. ) );
#130 = AXIS2_PLACEMENT_3D ( 'NONE', #121, #62, #171 ) ;
#131 = DIRECTION ( 'NONE',  ( -2.465190328815661892E-32, -1.000000000000000000, -3.330669073875470114E-16 ) ) ;
#132 = PRODUCT_CONTEXT ( 'NONE', #54, 'mechanical' ) ;
#133 = DOCUMENT_TYPE ( 'geometry' ) ;
#134 = OBJECT_ROLE ('mandatory',$ ) ;
#135 = CONTEXT_DEPENDENT_SHAPE_REPRESENTATION ( #206, #181 ) ;
#136 =( GEOMETRIC_REPRESENTATION_CONTEXT ( 3 ) GLOBAL_UNCERTAINTY_ASSIGNED_CONTEXT ( ( #221 ) ) GLOBAL_UNIT_ASSIGNED_CONTEXT ( ( #129, #151, #148 ) ) REPRESENTATION_CONTEXT ( 'NONE', 'WORKASPACE' ) );
#137 = PRODUCT_RELATED_PRODUCT_CATEGORY ( 'part', '', ( #92 ) ) ;
#138 = CONTEXT_DEPENDENT_SHAPE_REPRESENTATION ( #8, #20 ) ;
#139 = ROLE_ASSOCIATION ( #49, #212 ) ;
#140 = CONTEXT_DEPENDENT_SHAPE_REPRESENTATION ( #162, #202 ) ;
#141 = PROPERTY_DEFINITION_REPRESENTATION ( #157, #152 ) ;
#142 = PRODUCT_DEFINITION_SHAPE ( 'NONE', 'NONE',  #232 ) ;
#143 = EXTERNAL_SOURCE (IDENTIFIER('') ) ;
#144 = UNCERTAINTY_MEASURE_WITH_UNIT (LENGTH_MEASURE( 1.000000000000000082E-05 ), #203, 'distance_accuracy_value', 'NONE');
#145 = PROPERTY_DEFINITION ('document property','', #187 ) ;
#146 = DIRECTION ( 'NONE',  ( -0.8371691043312223801, -1.821689927585764207E-16, -0.5469441386039887165 ) ) ;
#147 = DOCUMENT_TYPE ( 'geometry' ) ;
#148 =( NAMED_UNIT ( * ) SI_UNIT ( $, .STERADIAN. ) SOLID_ANGLE_UNIT ( ) );
#149 = DOCUMENT_TYPE ( 'geometry' ) ;
#150 = PRODUCT_DEFINITION_FORMATION_WITH_SPECIFIED_SOURCE ( 'Symmetric', '', #13, .NOT_KNOWN. ) ;
#151 =( NAMED_UNIT ( * ) PLANE_ANGLE_UNIT ( ) SI_UNIT ( $, .RADIAN. ) );
#152 = SHAPE_REPRESENTATION ( 'Insert M3 D5 L5mm_(mod)', ( #176 ), #136 ) ;
#153 = PROPERTY_DEFINITION_REPRESENTATION ( #145, #152 ) ;
#154 = APPLIED_DOCUMENT_REFERENCE ( #225,'',( #192) ) ;
#155 = IDENTIFICATION_ROLE ( 'external document id and location', $) ;
#156 = APPLICATION_PROTOCOL_DEFINITION ( 'draft international standard', 'automotive_design', 1998, #91 ) ;
#157 = PROPERTY_DEFINITION ('external definition','', #17 ) ;
#158 = DIRECTION ( 'NONE',  ( 1.000000000000000000, 0.000000000000000000, 0.000000000000000000 ) ) ;
#159 = IDENTIFICATION_ROLE ( 'external document id and location', $) ;
#160 = ITEM_DEFINED_TRANSFORMATION ( 'NONE', 'NONE', #22,  #176 ) ;
#161 = ROLE_ASSOCIATION ( #175, #86 ) ;
#162 =( REPRESENTATION_RELATIONSHIP ('NONE','NONE', #115, #152 ) REPRESENTATION_RELATIONSHIP_WITH_TRANSFORMATION ( #160 )SHAPE_REPRESENTATION_RELATIONSHIP( ) );
#163 = PRODUCT_DEFINITION_FORMATION_WITH_SPECIFIED_SOURCE ( 'Symmetric', '', #9, .NOT_KNOWN. ) ;
#164 = PROPERTY_DEFINITION_REPRESENTATION ( #213, #152 ) ;
#165 = IDENTIFICATION_ROLE ( 'external document id and location', $) ;
#166 = APPLIED_EXTERNAL_IDENTIFICATION_ASSIGNMENT ( 'Insert M3 D5 L5mm_(mod).STEP' , #168, #143,( #24) ) ;
#167 = DIRECTION ( 'NONE',  ( 0.000000000000000000, 0.000000000000000000, 1.000000000000000000 ) ) ;
#168 = IDENTIFICATION_ROLE ( 'external document id and location', $) ;
#169 =( NAMED_UNIT ( * ) SI_UNIT ( $, .STERADIAN. ) SOLID_ANGLE_UNIT ( ) );
#170 = AXIS2_PLACEMENT_3D ( 'NONE', #21, #131, #183 ) ;
#171 = DIRECTION ( 'NONE',  ( -0.8371691043312223801, -1.821689927585764207E-16, -0.5469441386039887165 ) ) ;
#172 = APPLIED_DOCUMENT_REFERENCE ( #187,'',( #83) ) ;
#173 =( GEOMETRIC_REPRESENTATION_CONTEXT ( 3 ) GLOBAL_UNCERTAINTY_ASSIGNED_CONTEXT ( ( #60 ) ) GLOBAL_UNIT_ASSIGNED_CONTEXT ( ( #118, #190, #26 ) ) REPRESENTATION_CONTEXT ( 'NONE', 'WORKASPACE' ) );
#174 = ITEM_DEFINED_TRANSFORMATION ( 'NONE', 'NONE', #170,  #184 ) ;
#175 = OBJECT_ROLE ('mandatory',$ ) ;
#176 = AXIS2_PLACEMENT_3D ( 'NONE', #55, #167, #23 ) ;
#177 = OBJECT_ROLE ('mandatory',$ ) ;
#178 = PROPERTY_DEFINITION_REPRESENTATION ( #106, #1 ) ;
#179 = PRODUCT_DEFINITION_SHAPE ( 'NONE', 'NONE',  #231 ) ;
#180 = DOCUMENT_FILE ( 'Insert M3 D5 L5mm_(mod).STEP' , '', '', #90, '' ,$ ) ;
#181 = PRODUCT_DEFINITION_SHAPE ( 'NONE', 'NONE',  #229 ) ;
#182 =( REPRESENTATION_RELATIONSHIP ('NONE','NONE', #115, #152 ) REPRESENTATION_RELATIONSHIP_WITH_TRANSFORMATION ( #47 )SHAPE_REPRESENTATION_RELATIONSHIP( ) );
#183 = DIRECTION ( 'NONE',  ( -0.8371691043312223801, -1.821689927585764207E-16, -0.5469441386039887165 ) ) ;
#184 = AXIS2_PLACEMENT_3D ( 'NONE', #199, #217, #5 ) ;
#185 = DOCUMENT_TYPE ( 'geometry' ) ;
#186 =( GEOMETRIC_REPRESENTATION_CONTEXT ( 3 ) GLOBAL_UNCERTAINTY_ASSIGNED_CONTEXT ( ( #214 ) ) GLOBAL_UNIT_ASSIGNED_CONTEXT ( ( #219, #75, #59 ) ) REPRESENTATION_CONTEXT ( 'NONE', 'WORKASPACE' ) );
#187 = DOCUMENT_FILE ( 'Insert M3 D5 L5mm_(mod).STEP' , '', '', #149, '' ,$ ) ;
#188 = SHAPE_DEFINITION_REPRESENTATION ( #72, #43 ) ;
#189 = EXTERNAL_SOURCE (IDENTIFIER('') ) ;
#190 =( NAMED_UNIT ( * ) PLANE_ANGLE_UNIT ( ) SI_UNIT ( $, .RADIAN. ) );
#191 = APPLIED_DOCUMENT_REFERENCE ( #17,'',( #83) ) ;
#192 = PRODUCT_DEFINITION ( 'General', '', #163, #34 ) ;
#193 = PROPERTY_DEFINITION ('external definition','', #187 ) ;
#194 = PRODUCT_DEFINITION ( 'General', '', #52, #4 ) ;
#195 = AXIS2_PLACEMENT_3D ( 'NONE', #209, #120, #158 ) ;
#196 = APPLIED_DOCUMENT_REFERENCE ( #180,'',( #83) ) ;
#197 = PROPERTY_DEFINITION ('document property','', #70 ) ;
#198 = OBJECT_ROLE ('mandatory',$ ) ;
#199 = CARTESIAN_POINT ( 'NONE',  ( 0.000000000000000000, 0.000000000000000000, 0.000000000000000000 ) ) ;
#200 =( GEOMETRIC_REPRESENTATION_CONTEXT ( 3 ) GLOBAL_UNCERTAINTY_ASSIGNED_CONTEXT ( ( #144 ) ) GLOBAL_UNIT_ASSIGNED_CONTEXT ( ( #203, #216, #169 ) ) REPRESENTATION_CONTEXT ( 'NONE', 'WORKASPACE' ) );
#201 = CARTESIAN_POINT ( 'NONE',  ( 972.9368917685857241, 1007.976554046854631, 1025.086875404079137 ) ) ;
#202 = PRODUCT_DEFINITION_SHAPE ( 'NONE', 'NONE',  #233 ) ;
#203 =( LENGTH_UNIT ( ) NAMED_UNIT ( * ) SI_UNIT ( .MILLI., .METRE. ) );
#204 = APPLIED_EXTERNAL_IDENTIFICATION_ASSIGNMENT ( 'Insert M2 D3.6 L4mm.stp.STEP' , #155, #85,( #225) ) ;
#205 = SHAPE_DEFINITION_REPRESENTATION ( #29, #1 ) ;
#206 =( REPRESENTATION_RELATIONSHIP ('NONE','NONE', #115, #43 ) REPRESENTATION_RELATIONSHIP_WITH_TRANSFORMATION ( #174 )SHAPE_REPRESENTATION_RELATIONSHIP( ) );
#207 = PRODUCT_DEFINITION_SHAPE ( 'NONE', 'NONE',  #235 ) ;
#208 = ITEM_DEFINED_TRANSFORMATION ( 'NONE', 'NONE', #73,  #176 ) ;
#209 = CARTESIAN_POINT ( 'NONE',  ( 0.000000000000000000, 0.000000000000000000, 0.000000000000000000 ) ) ;
#210 = PRODUCT ( 'encoder-stand_magnetic-encoder-holder-assy', 'encoder-stand_magnetic-encoder-holder-assy', '', ( #96 ) ) ;
#211 = PROPERTY_DEFINITION_REPRESENTATION ( #111, #152 ) ;
#212 = APPLIED_DOCUMENT_REFERENCE ( #24,'',( #83) ) ;
#213 = PROPERTY_DEFINITION ('external definition','', #180 ) ;
#214 = UNCERTAINTY_MEASURE_WITH_UNIT (LENGTH_MEASURE( 1.000000000000000082E-05 ), #219, 'distance_accuracy_value', 'NONE');
#215 = ITEM_DEFINED_TRANSFORMATION ( 'NONE', 'NONE', #130,  #176 ) ;
#216 =( NAMED_UNIT ( * ) PLANE_ANGLE_UNIT ( ) SI_UNIT ( $, .RADIAN. ) );
#217 = DIRECTION ( 'NONE',  ( 0.000000000000000000, 0.000000000000000000, 1.000000000000000000 ) ) ;
#218 = CARTESIAN_POINT ( 'NONE',  ( 0.000000000000000000, 0.000000000000000000, 0.000000000000000000 ) ) ;
#219 =( LENGTH_UNIT ( ) NAMED_UNIT ( * ) SI_UNIT ( .MILLI., .METRE. ) );
#220 = CARTESIAN_POINT ( 'NONE',  ( 988.4368917685860652, 994.9765540468545169, 1009.586875404079365 ) ) ;
#221 = UNCERTAINTY_MEASURE_WITH_UNIT (LENGTH_MEASURE( 1.000000000000000082E-05 ), #129, 'distance_accuracy_value', 'NONE');
#222 = IDENTIFICATION_ROLE ( 'external document id and location', $) ;
#223 = ROLE_ASSOCIATION ( #41, #154 ) ;
#224 = APPLICATION_PROTOCOL_DEFINITION ( 'draft international standard', 'automotive_design', 1998, #117 ) ;
#225 = DOCUMENT_FILE ( 'Insert M2 D3.6 L4mm.stp.STEP' , '', '', #147, '' ,$ ) ;
#226 = PROPERTY_DEFINITION ('document property','', #24 ) ;
#227 = APPLICATION_PROTOCOL_DEFINITION ( 'draft international standard', 'automotive_design', 1998, #105 ) ;
#228 = DIRECTION ( 'NONE',  ( -0.8371691043312223801, -1.821689927585764207E-16, -0.5469441386039887165 ) ) ;
#229 = NEXT_ASSEMBLY_USAGE_OCCURRENCE ( 'NAUO28', ' ', ' ', #88, #192, $ ) ;
#230 = NEXT_ASSEMBLY_USAGE_OCCURRENCE ( 'NAUO29', ' ', ' ', #88, #83, $ ) ;
#231 = NEXT_ASSEMBLY_USAGE_OCCURRENCE ( 'NAUO30', ' ', ' ', #88, #83, $ ) ;
#232 = NEXT_ASSEMBLY_USAGE_OCCURRENCE ( 'NAUO31', ' ', ' ', #88, #194, $ ) ;
#233 = NEXT_ASSEMBLY_USAGE_OCCURRENCE ( 'NAUO32', ' ', ' ', #88, #83, $ ) ;
#234 = NEXT_ASSEMBLY_USAGE_OCCURRENCE ( 'NAUO33', ' ', ' ', #88, #83, $ ) ;
#235 = NEXT_ASSEMBLY_USAGE_OCCURRENCE ( 'NAUO34', ' ', ' ', #88, #192, $ ) ;
ENDSEC;
END-ISO-10303-21;
