ISO-10303-21;
HEADER;
FILE_DESCRIPTION (( 'STEP AP214' ),
    '1' );
FILE_NAME ('encoder-stand_flange-support-top.STEP',
    '2026-01-05T13:22:12',
    ( '' ),
    ( '' ),
    'SwSTEP 2.0',
    'SolidWorks 2025',
    '' );
FILE_SCHEMA (( 'AUTOMOTIVE_DESIGN' ));
ENDSEC;

DATA;
#1 = CARTESIAN_POINT ( 'NONE',  ( 4.000000000000007105, 0.4174243050441656111, -27.00000000000000711 ) ) ;
#2 = CARTESIAN_POINT ( 'NONE',  ( -4.000000000000000000, 10.00000000000000000, -21.00000000000000711 ) ) ;
#3 = LINE ( 'NONE', #1017, #387 ) ;
#4 = ORIENTED_EDGE ( 'NONE', *, *, #338, .T. ) ;
#5 = ADVANCED_FACE ( 'NONE', ( #364, #484, #1182 ), #883, .F. ) ;
#6 =( LENGTH_UNIT ( ) NAMED_UNIT ( * ) SI_UNIT ( .MILLI., .METRE. ) );
#7 = EDGE_CURVE ( 'NONE', #1034, #428, #1066, .T. ) ;
#8 = DIRECTION ( 'NONE',  ( 0.000000000000000000, 0.000000000000000000, -1.000000000000000000 ) ) ;
#9 = FACE_OUTER_BOUND ( 'NONE', #740, .T. ) ;
#10 =( NAMED_UNIT ( * ) SI_UNIT ( $, .STERADIAN. ) SOLID_ANGLE_UNIT ( ) );
#11 = EDGE_LOOP ( 'NONE', ( #445, #1087, #247, #885 ) ) ;
#12 = EDGE_LOOP ( 'NONE', ( #182, #48, #816, #620, #1252 ) ) ;
#13 = CIRCLE ( 'NONE', #1021, 17.00000000000000000 ) ;
#14 = CARTESIAN_POINT ( 'NONE',  ( -2.499999999999999556, 13.99999999999999822, -14.00000000000000355 ) ) ;
#15 = DIRECTION ( 'NONE',  ( 0.000000000000000000, 0.000000000000000000, 1.000000000000000000 ) ) ;
#16 = EDGE_CURVE ( 'NONE', #833, #527, #259, .T. ) ;
#17 = DIRECTION ( 'NONE',  ( -0.000000000000000000, 1.000000000000000000, -0.000000000000000000 ) ) ;
#18 = ORIENTED_EDGE ( 'NONE', *, *, #1191, .F. ) ;
#19 = ORIENTED_EDGE ( 'NONE', *, *, #281, .T. ) ;
#20 = CARTESIAN_POINT ( 'NONE',  ( -4.000000000000000000, 10.00000000000000000, -24.00000000000000711 ) ) ;
#21 = CYLINDRICAL_SURFACE ( 'NONE', #998, 2.999999999999999112 ) ;
#22 = VECTOR ( 'NONE', #424, 1000.000000000000000 ) ;
#23 = SURFACE_STYLE_FILL_AREA ( #712 ) ;
#24 = EDGE_LOOP ( 'NONE', ( #1221, #121 ) ) ;
#25 = CARTESIAN_POINT ( 'NONE',  ( -21.49999999999997158, 30.00000000000000000, 30.00000000000000711 ) ) ;
#26 = DIRECTION ( 'NONE',  ( 0.000000000000000000, 0.000000000000000000, -1.000000000000000000 ) ) ;
#27 = CARTESIAN_POINT ( 'NONE',  ( -4.000000000000000000, 0.4174243050441658331, -27.00000000000000711 ) ) ;
#28 = ORIENTED_EDGE ( 'NONE', *, *, #1222, .T. ) ;
#29 = ORIENTED_EDGE ( 'NONE', *, *, #440, .F. ) ;
#30 = EDGE_CURVE ( 'NONE', #358, #128, #973, .T. ) ;
#31 = PLANE ( 'NONE',  #1253 ) ;
#32 = FACE_OUTER_BOUND ( 'NONE', #11, .T. ) ;
#33 = CARTESIAN_POINT ( 'NONE',  ( -2.499999999999999556, 13.99999999999999467, 15.99999999999999645 ) ) ;
#34 = VERTEX_POINT ( 'NONE', #490 ) ;
#35 = ADVANCED_FACE ( 'NONE', ( #773 ), #1265, .F. ) ;
#36 = VERTEX_POINT ( 'NONE', #781 ) ;
#37 = VECTOR ( 'NONE', #1038, 1000.000000000000000 ) ;
#38 = CARTESIAN_POINT ( 'NONE',  ( 4.000000000000007105, 0.000000000000000000, -24.00000000000000711 ) ) ;
#39 = PLANE ( 'NONE',  #730 ) ;
#40 = CARTESIAN_POINT ( 'NONE',  ( -3.845603600705648439, 0.4174243050441661107, -27.00000000000000355 ) ) ;
#41 = ORIENTED_EDGE ( 'NONE', *, *, #674, .T. ) ;
#42 = CIRCLE ( 'NONE', #442, 2.999999999999999112 ) ;
#43 = EDGE_LOOP ( 'NONE', ( #1202, #476, #1041, #1141 ) ) ;
#44 = CARTESIAN_POINT ( 'NONE',  ( 7.500000000000000888, 13.99999999999999822, -16.00000000000000355 ) ) ;
#45 = CARTESIAN_POINT ( 'NONE',  ( 4.000000000000007105, 0.4174243050441709957, 27.00000000000000711 ) ) ;
#46 = EDGE_CURVE ( 'NONE', #116, #876, #1175, .T. ) ;
#47 = CARTESIAN_POINT ( 'NONE',  ( 7.500000000000000888, 30.00000000000000000, 0.000000000000000000 ) ) ;
#48 = ORIENTED_EDGE ( 'NONE', *, *, #609, .T. ) ;
#49 = EDGE_LOOP ( 'NONE', ( #81, #1098 ) ) ;
#50 = MECHANICAL_DESIGN_GEOMETRIC_PRESENTATION_REPRESENTATION (  '', ( #745 ), #349 ) ;
#51 = FACE_OUTER_BOUND ( 'NONE', #587, .T. ) ;
#52 = CARTESIAN_POINT ( 'NONE',  ( 4.000000000000007105, 0.000000000000000000, -24.00000000000000711 ) ) ;
#53 = FACE_OUTER_BOUND ( 'NONE', #43, .T. ) ;
#54 = EDGE_LOOP ( 'NONE', ( #322, #1207, #632, #801 ) ) ;
#55 = VERTEX_POINT ( 'NONE', #180 ) ;
#56 = VECTOR ( 'NONE', #869, 1000.000000000000000 ) ;
#57 = AXIS2_PLACEMENT_3D ( 'NONE', #245, #1023, #642 ) ;
#58 = DIRECTION ( 'NONE',  ( 0.000000000000000000, 0.000000000000000000, 1.000000000000000000 ) ) ;
#59 = DIRECTION ( 'NONE',  ( -1.000000000000000000, 0.000000000000000000, -0.000000000000000000 ) ) ;
#60 = VECTOR ( 'NONE', #979, 1000.000000000000000 ) ;
#61 = CYLINDRICAL_SURFACE ( 'NONE', #335, 1.999999999999998224 ) ;
#62 = DIRECTION ( 'NONE',  ( 0.000000000000000000, 0.000000000000000000, -1.000000000000000000 ) ) ;
#63 = ORIENTED_EDGE ( 'NONE', *, *, #526, .T. ) ;
#64 = STYLED_ITEM ( 'NONE', ( #707 ), #498 ) ;
#65 = EDGE_CURVE ( 'NONE', #859, #116, #1280, .T. ) ;
#66 = ADVANCED_FACE ( 'NONE', ( #286 ), #888, .F. ) ;
#67 = CARTESIAN_POINT ( 'NONE',  ( -4.000000000000000000, 30.00000000000000000, 24.00000000000000711 ) ) ;
#68 = CYLINDRICAL_SURFACE ( 'NONE', #600, 1.500000000000001332 ) ;
#69 = DIRECTION ( 'NONE',  ( 0.000000000000000000, -1.000000000000000000, 0.000000000000000000 ) ) ;
#70 = DIRECTION ( 'NONE',  ( 0.000000000000000000, -1.000000000000000000, -0.000000000000000000 ) ) ;
#71 = ORIENTED_EDGE ( 'NONE', *, *, #1130, .T. ) ;
#72 = EDGE_CURVE ( 'NONE', #685, #210, #561, .T. ) ;
#73 = DIRECTION ( 'NONE',  ( -0.000000000000000000, 1.000000000000000000, -0.000000000000000000 ) ) ;
#74 = DIRECTION ( 'NONE',  ( 0.000000000000000000, -0.000000000000000000, -1.000000000000000000 ) ) ;
#75 = CYLINDRICAL_SURFACE ( 'NONE', #1274, 2.999999999999999112 ) ;
#76 = ORIENTED_EDGE ( 'NONE', *, *, #497, .T. ) ;
#77 = ORIENTED_EDGE ( 'NONE', *, *, #333, .T. ) ;
#78 = CARTESIAN_POINT ( 'NONE',  ( -7.499999999999999112, 70.00000000000000000, -30.00000000000000711 ) ) ;
#79 = CARTESIAN_POINT ( 'NONE',  ( 4.000000000000007105, 10.00000000000000000, 24.00000000000000711 ) ) ;
#80 = CARTESIAN_POINT ( 'NONE',  ( -4.000000000000000000, 0.000000000000000000, 24.00000000000000711 ) ) ;
#81 = ORIENTED_EDGE ( 'NONE', *, *, #536, .T. ) ;
#82 = CIRCLE ( 'NONE', #1273, 2.000000000000000000 ) ;
#83 = AXIS2_PLACEMENT_3D ( 'NONE', #672, #461, #285 ) ;
#84 = VERTEX_POINT ( 'NONE', #462 ) ;
#85 = AXIS2_PLACEMENT_3D ( 'NONE', #866, #1099, #804 ) ;
#86 = CARTESIAN_POINT ( 'NONE',  ( 4.000000000000007105, 30.00000000000000000, 22.50000000000000711 ) ) ;
#87 = DIRECTION ( 'NONE',  ( 1.000000000000000000, -0.000000000000000000, -0.000000000000000000 ) ) ;
#88 = CARTESIAN_POINT ( 'NONE',  ( 7.500000000000000888, 30.00000000000000000, 30.00000000000000711 ) ) ;
#89 = CARTESIAN_POINT ( 'NONE',  ( -4.000000000000000000, 10.00000000000000000, 27.00000000000000711 ) ) ;
#90 = EDGE_CURVE ( 'NONE', #495, #345, #863, .T. ) ;
#91 = VERTEX_POINT ( 'NONE', #902 ) ;
#92 =( LENGTH_UNIT ( ) NAMED_UNIT ( * ) SI_UNIT ( .MILLI., .METRE. ) );
#93 = CARTESIAN_POINT ( 'NONE',  ( 1.171572875253810819, 0.000000000000000000, 24.99999999999998934 ) ) ;
#94 = CARTESIAN_POINT ( 'NONE',  ( -2.793640783785368509, 0.3204196856953923089, 26.76401101363714119 ) ) ;
#95 = ORIENTED_EDGE ( 'NONE', *, *, #549, .F. ) ;
#96 = PRODUCT_DEFINITION_CONTEXT ( 'detailed design', #491, 'design' ) ;
#97 = ADVANCED_FACE ( 'NONE', ( #219, #711 ), #799, .T. ) ;
#98 = CARTESIAN_POINT ( 'NONE',  ( 1.426624545383782028, 0.02670840623465827249, 25.57195555858242031 ) ) ;
#99 = DIRECTION ( 'NONE',  ( 1.000000000000000000, 0.000000000000000000, 0.000000000000000000 ) ) ;
#100 = AXIS2_PLACEMENT_3D ( 'NONE', #764, #367, #1179 ) ;
#101 = DIRECTION ( 'NONE',  ( 0.000000000000000000, 0.000000000000000000, -1.000000000000000000 ) ) ;
#102 = ORIENTED_EDGE ( 'NONE', *, *, #865, .F. ) ;
#103 = VECTOR ( 'NONE', #734, 1000.000000000000000 ) ;
#104 = EDGE_CURVE ( 'NONE', #889, #140, #601, .T. ) ;
#105 = CARTESIAN_POINT ( 'NONE',  ( -6.723900309549402543, 3.811648262644349985E-18, -25.29564647936592792 ) ) ;
#106 = CARTESIAN_POINT ( 'NONE',  ( -3.234196154130022816, 0.3767271612682638882, 26.90470468897685308 ) ) ;
#107 = DIRECTION ( 'NONE',  ( -0.000000000000000000, 1.000000000000000000, -0.000000000000000000 ) ) ;
#108 = ORIENTED_EDGE ( 'NONE', *, *, #1135, .T. ) ;
#109 = ORIENTED_EDGE ( 'NONE', *, *, #1184, .F. ) ;
#110 = EDGE_CURVE ( 'NONE', #386, #859, #696, .T. ) ;
#111 = DIRECTION ( 'NONE',  ( -0.000000000000000000, -1.000000000000000000, -0.000000000000000000 ) ) ;
#112 = PLANE ( 'NONE',  #314 ) ;
#113 = AXIS2_PLACEMENT_3D ( 'NONE', #552, #1057, #157 ) ;
#114 = CARTESIAN_POINT ( 'NONE',  ( -4.000000000000000000, -13.00000000000001776, -24.00000000000000711 ) ) ;
#115 = EDGE_LOOP ( 'NONE', ( #692, #741, #71, #846, #1196 ) ) ;
#116 = VERTEX_POINT ( 'NONE', #989 ) ;
#117 = CARTESIAN_POINT ( 'NONE',  ( 0.000000000000000000, 0.000000000000000000, 0.000000000000000000 ) ) ;
#118 = CARTESIAN_POINT ( 'NONE',  ( -21.49999999999997158, 30.00000000000000000, 30.00000000000000711 ) ) ;
#119 = CARTESIAN_POINT ( 'NONE',  ( 4.616757986734388197, 0.3916229776764929005, -26.93998381946949294 ) ) ;
#120 = CARTESIAN_POINT ( 'NONE',  ( -4.000000000000000000, 10.00000000000000000, 21.00000000000000711 ) ) ;
#121 = ORIENTED_EDGE ( 'NONE', *, *, #338, .F. ) ;
#122 = PRODUCT_RELATED_PRODUCT_CATEGORY ( 'part', '', ( #324 ) ) ;
#123 = AXIS2_PLACEMENT_3D ( 'NONE', #791, #984, #174 ) ;
#124 = CARTESIAN_POINT ( 'NONE',  ( -5.476682931919106601, 0.2677493673250207484, 26.61588209763295154 ) ) ;
#125 = CYLINDRICAL_SURFACE ( 'NONE', #646, 2.999999999999999112 ) ;
#126 = CIRCLE ( 'NONE', #545, 2.999999999999999112 ) ;
#127 = CARTESIAN_POINT ( 'NONE',  ( -1.171572875253809265, 0.000000000000000000, -25.00000000000000355 ) ) ;
#128 = VERTEX_POINT ( 'NONE', #719 ) ;
#129 = EDGE_CURVE ( 'NONE', #1048, #904, #708, .T. ) ;
#130 = CARTESIAN_POINT ( 'NONE',  ( -6.828427124746196064, 0.000000000000000000, 24.99999999999998934 ) ) ;
#131 = CARTESIAN_POINT ( 'NONE',  ( 3.234196154130031697, 0.3767271612682578374, -26.90470468897685663 ) ) ;
#132 = DIRECTION ( 'NONE',  ( -1.000000000000000000, 0.000000000000000000, -0.000000000000000000 ) ) ;
#133 = VERTEX_POINT ( 'NONE', #618 ) ;
#134 = ORIENTED_EDGE ( 'NONE', *, *, #731, .T. ) ;
#135 = DIRECTION ( 'NONE',  ( 1.000000000000000000, 0.000000000000000000, 0.000000000000000000 ) ) ;
#136 = LINE ( 'NONE', #1144, #141 ) ;
#137 = EDGE_CURVE ( 'NONE', #963, #405, #1217, .T. ) ;
#138 = LINE ( 'NONE', #146, #836 ) ;
#139 = ORIENTED_EDGE ( 'NONE', *, *, #129, .F. ) ;
#140 = VERTEX_POINT ( 'NONE', #592 ) ;
#141 = VECTOR ( 'NONE', #636, 1000.000000000000000 ) ;
#142 = EDGE_CURVE ( 'NONE', #153, #128, #265, .T. ) ;
#143 = AXIS2_PLACEMENT_3D ( 'NONE', #759, #1153, #1243 ) ;
#144 = CARTESIAN_POINT ( 'NONE',  ( 7.500000000000007105, 30.00000000000000000, -17.00000000000000000 ) ) ;
#145 = LINE ( 'NONE', #936, #667 ) ;
#146 = CARTESIAN_POINT ( 'NONE',  ( 0.000000000000000000, 0.000000000000000000, -25.00000000000000355 ) ) ;
#147 = ORIENTED_EDGE ( 'NONE', *, *, #955, .T. ) ;
#148 = VECTOR ( 'NONE', #478, 1000.000000000000000 ) ;
#149 = ORIENTED_EDGE ( 'NONE', *, *, #1283, .F. ) ;
#150 = CARTESIAN_POINT ( 'NONE',  ( 7.500000000000000888, 5.000000000000004441, 29.99999999999999289 ) ) ;
#151 = CARTESIAN_POINT ( 'NONE',  ( 1.171572875253816148, 0.000000000000000000, -25.00000000000000355 ) ) ;
#152 = CYLINDRICAL_SURFACE ( 'NONE', #243, 1.999999999999998224 ) ;
#153 = VERTEX_POINT ( 'NONE', #1009 ) ;
#154 = ORIENTED_EDGE ( 'NONE', *, *, #688, .T. ) ;
#155 = AXIS2_PLACEMENT_3D ( 'NONE', #1096, #17, #821 ) ;
#156 = DIRECTION ( 'NONE',  ( 0.000000000000000000, 0.000000000000000000, -1.000000000000000000 ) ) ;
#157 = DIRECTION ( 'NONE',  ( 0.000000000000000000, 0.000000000000000000, -1.000000000000000000 ) ) ;
#158 = CARTESIAN_POINT ( 'NONE',  ( -4.000000000000000000, 10.00000000000000000, 24.00000000000000711 ) ) ;
#159 = ORIENTED_EDGE ( 'NONE', *, *, #615, .F. ) ;
#160 = ADVANCED_FACE ( 'NONE', ( #1292 ), #1187, .T. ) ;
#161 = EDGE_LOOP ( 'NONE', ( #1275, #1128, #410, #926 ) ) ;
#162 = VECTOR ( 'NONE', #575, 1000.000000000000000 ) ;
#163 = AXIS2_PLACEMENT_3D ( 'NONE', #624, #1037, #1052 ) ;
#164 = CARTESIAN_POINT ( 'NONE',  ( 6.202946278322722051, 0.1072206740642322326, 26.05986280904954810 ) ) ;
#165 = DIRECTION ( 'NONE',  ( 0.000000000000000000, -1.000000000000000000, 0.000000000000000000 ) ) ;
#166 = CARTESIAN_POINT ( 'NONE',  ( -4.000000000000000000, -13.00000000000001776, 24.00000000000000711 ) ) ;
#167 = AXIS2_PLACEMENT_3D ( 'NONE', #303, #319, #1015 ) ;
#168 = DIRECTION ( 'NONE',  ( 0.000000000000000000, 0.000000000000000000, -1.000000000000000000 ) ) ;
#169 = CARTESIAN_POINT ( 'NONE',  ( -7.499999999999999112, 0.000000000000000000, 29.99999999999999289 ) ) ;
#170 = EDGE_CURVE ( 'NONE', #84, #240, #213, .T. ) ;
#171 = ORIENTED_EDGE ( 'NONE', *, *, #1270, .T. ) ;
#172 = CARTESIAN_POINT ( 'NONE',  ( 5.206359216214639041, 0.3204196856953922534, 26.76401101363714830 ) ) ;
#173 = DIRECTION ( 'NONE',  ( -0.000000000000000000, 1.000000000000000000, -0.000000000000000000 ) ) ;
#174 = DIRECTION ( 'NONE',  ( 0.000000000000000000, 0.000000000000000000, -1.000000000000000000 ) ) ;
#175 = CARTESIAN_POINT ( 'NONE',  ( -21.49999999999997158, 30.00000000000000000, 30.00000000000000711 ) ) ;
#176 = ORIENTED_EDGE ( 'NONE', *, *, #1110, .T. ) ;
#177 = CARTESIAN_POINT ( 'NONE',  ( -2.499999999999999556, 13.99999999999999467, 17.99999999999999645 ) ) ;
#178 = CARTESIAN_POINT ( 'NONE',  ( -4.000000000000000000, 10.00000000000000000, 24.00000000000000711 ) ) ;
#179 = DIRECTION ( 'NONE',  ( -0.000000000000000000, 1.000000000000000000, -0.000000000000000000 ) ) ;
#180 = CARTESIAN_POINT ( 'NONE',  ( 4.000000000000007105, 10.00000000000000000, 27.00000000000000711 ) ) ;
#181 = VECTOR ( 'NONE', #205, 1000.000000000000000 ) ;
#182 = ORIENTED_EDGE ( 'NONE', *, *, #714, .F. ) ;
#183 = DIRECTION ( 'NONE',  ( 0.000000000000000000, 0.000000000000000000, -1.000000000000000000 ) ) ;
#184 = ADVANCED_FACE ( 'NONE', ( #9, #1205 ), #112, .T. ) ;
#185 = CARTESIAN_POINT ( 'NONE',  ( -4.000000000000000000, 0.000000000000000000, 24.00000000000000711 ) ) ;
#186 = DIRECTION ( 'NONE',  ( 0.000000000000000000, 1.000000000000000000, 0.000000000000000000 ) ) ;
#187 = ORIENTED_EDGE ( 'NONE', *, *, #1145, .T. ) ;
#188 = VERTEX_POINT ( 'NONE', #351 ) ;
#189 = AXIS2_PLACEMENT_3D ( 'NONE', #44, #135, #529 ) ;
#190 = VECTOR ( 'NONE', #370, 1000.000000000000000 ) ;
#191 = CARTESIAN_POINT ( 'NONE',  ( 7.500000000000000888, 5.000000000000004441, -25.00000000000000355 ) ) ;
#192 = DIRECTION ( 'NONE',  ( 1.000000000000000000, -0.000000000000000000, -0.000000000000000000 ) ) ;
#193 = CARTESIAN_POINT ( 'NONE',  ( -1.797053721677285942, 0.1072206740642322603, 26.05986280904955521 ) ) ;
#194 = ORIENTED_EDGE ( 'NONE', *, *, #765, .T. ) ;
#195 = DIRECTION ( 'NONE',  ( 1.000000000000000000, 0.000000000000000000, 0.000000000000000000 ) ) ;
#196 = CARTESIAN_POINT ( 'NONE',  ( -5.982738725408879965, 0.1610225205482167798, -26.27226350519110909 ) ) ;
#197 = CARTESIAN_POINT ( 'NONE',  ( 6.828427124746197840, 0.000000000000000000, -25.00000000000000355 ) ) ;
#198 = DIRECTION ( 'NONE',  ( 0.000000000000000000, 0.000000000000000000, -1.000000000000000000 ) ) ;
#199 = ORIENTED_EDGE ( 'NONE', *, *, #1176, .T. ) ;
#200 = ADVANCED_FACE ( 'NONE', ( #251 ), #125, .F. ) ;
#201 = EDGE_CURVE ( 'NONE', #660, #1251, #82, .T. ) ;
#202 = DIRECTION ( 'NONE',  ( -0.000000000000000000, 1.000000000000000000, -0.000000000000000000 ) ) ;
#203 = CARTESIAN_POINT ( 'NONE',  ( 3.845603600705656877, 0.4174243050441705516, 27.00000000000001066 ) ) ;
#204 = CARTESIAN_POINT ( 'NONE',  ( -7.499999999999999112, 30.00000000000000000, 29.99999999999999289 ) ) ;
#205 = DIRECTION ( 'NONE',  ( -0.000000000000000000, -1.000000000000000000, -0.000000000000000000 ) ) ;
#206 = ORIENTED_EDGE ( 'NONE', *, *, #771, .T. ) ;
#207 = VECTOR ( 'NONE', #414, 1000.000000000000000 ) ;
#208 = AXIS2_PLACEMENT_3D ( 'NONE', #377, #186, #959 ) ;
#209 = EDGE_CURVE ( 'NONE', #1142, #1086, #136, .T. ) ;
#210 = VERTEX_POINT ( 'NONE', #826 ) ;
#211 =( NAMED_UNIT ( * ) SI_UNIT ( $, .STERADIAN. ) SOLID_ANGLE_UNIT ( ) );
#212 = CARTESIAN_POINT ( 'NONE',  ( 3.233836334146043434, 0.3766764907236007098, 26.90457576673406592 ) ) ;
#213 = LINE ( 'NONE', #2, #479 ) ;
#214 = DIRECTION ( 'NONE',  ( -1.000000000000000000, 0.000000000000000000, -0.000000000000000000 ) ) ;
#215 = EDGE_LOOP ( 'NONE', ( #675, #857, #380, #470 ) ) ;
#216 = EDGE_LOOP ( 'NONE', ( #655, #822, #1227, #1246 ) ) ;
#217 = SURFACE_STYLE_FILL_AREA ( #590 ) ;
#218 = CARTESIAN_POINT ( 'NONE',  ( 2.024901816833635237, 0.1609820894024605875, 26.26326804888963551 ) ) ;
#219 = FACE_OUTER_BOUND ( 'NONE', #1170, .T. ) ;
#220 = CIRCLE ( 'NONE', #1286, 2.999999999999999112 ) ;
#221 = ORIENTED_EDGE ( 'NONE', *, *, #649, .F. ) ;
#222 = EDGE_CURVE ( 'NONE', #606, #133, #326, .T. ) ;
#223 = FACE_OUTER_BOUND ( 'NONE', #54, .T. ) ;
#224 = DIRECTION ( 'NONE',  ( 1.000000000000000000, -0.000000000000000000, 0.000000000000000000 ) ) ;
#225 = LINE ( 'NONE', #626, #913 ) ;
#226 = AXIS2_PLACEMENT_3D ( 'NONE', #284, #173, #966 ) ;
#227 = ORIENTED_EDGE ( 'NONE', *, *, #142, .T. ) ;
#228 = CIRCLE ( 'NONE', #1168, 2.999999999999999112 ) ;
#229 = DIRECTION ( 'NONE',  ( 0.000000000000000000, 0.000000000000000000, -1.000000000000000000 ) ) ;
#230 = CARTESIAN_POINT ( 'NONE',  ( 4.000000000000007105, 10.00000000000000000, -24.00000000000000711 ) ) ;
#231 = CIRCLE ( 'NONE', #400, 1.500000000000001332 ) ;
#232 = CARTESIAN_POINT ( 'NONE',  ( -2.024901816833635237, 0.1609820894024578952, -26.26326804888963906 ) ) ;
#233 = EDGE_LOOP ( 'NONE', ( #767, #947, #334, #267, #28 ) ) ;
#234 = ORIENTED_EDGE ( 'NONE', *, *, #714, .T. ) ;
#235 = DIRECTION ( 'NONE',  ( 0.000000000000000000, 0.000000000000000000, -1.000000000000000000 ) ) ;
#236 = EDGE_CURVE ( 'NONE', #358, #91, #374, .T. ) ;
#237 = CARTESIAN_POINT ( 'NONE',  ( -5.202758054581842373, 0.3166608535749032005, 26.75259962440530970 ) ) ;
#238 = CARTESIAN_POINT ( 'NONE',  ( 2.017261274591127584, 0.1610225205482164745, -26.27226350519110554 ) ) ;
#239 = LINE ( 'NONE', #637, #37 ) ;
#240 = VERTEX_POINT ( 'NONE', #733 ) ;
#241 = EDGE_CURVE ( 'NONE', #904, #508, #725, .T. ) ;
#242 = ORIENTED_EDGE ( 'NONE', *, *, #602, .T. ) ;
#243 = AXIS2_PLACEMENT_3D ( 'NONE', #1225, #653, #753 ) ;
#244 = CARTESIAN_POINT ( 'NONE',  ( 4.000000000000007105, 30.00000000000000000, -22.50000000000000711 ) ) ;
#245 = CARTESIAN_POINT ( 'NONE',  ( -2.499999999999999556, 13.99999999999999822, -16.00000000000000355 ) ) ;
#246 = CARTESIAN_POINT ( 'NONE',  ( -3.233836334146039881, 0.3766764907235957138, -26.90457576673406948 ) ) ;
#247 = ORIENTED_EDGE ( 'NONE', *, *, #1176, .F. ) ;
#248 = VERTEX_POINT ( 'NONE', #752 ) ;
#249 = EDGE_CURVE ( 'NONE', #1109, #1061, #945, .T. ) ;
#250 = CARTESIAN_POINT ( 'NONE',  ( -5.975098183166374533, 0.1609820894024608373, 26.26326804888963551 ) ) ;
#251 = FACE_OUTER_BOUND ( 'NONE', #348, .T. ) ;
#252 = CARTESIAN_POINT ( 'NONE',  ( -1.804957146962065995, 0.1104124301691716131, -26.05065403410689484 ) ) ;
#253 = EDGE_LOOP ( 'NONE', ( #509, #761 ) ) ;
#254 = AXIS2_PLACEMENT_3D ( 'NONE', #288, #202, #1198 ) ;
#255 = EDGE_LOOP ( 'NONE', ( #1216, #932, #147, #956 ) ) ;
#256 = DIRECTION ( 'NONE',  ( 0.000000000000000000, -1.000000000000000000, 0.000000000000000000 ) ) ;
#257 = DIRECTION ( 'NONE',  ( 0.000000000000000000, 1.000000000000000000, 0.000000000000000000 ) ) ;
#258 = CARTESIAN_POINT ( 'NONE',  ( -4.000000000000000000, 10.00000000000000000, -24.00000000000000711 ) ) ;
#259 = LINE ( 'NONE', #468, #162 ) ;
#260 = VERTEX_POINT ( 'NONE', #45 ) ;
#261 = CARTESIAN_POINT ( 'NONE',  ( -2.499999999999999556, 13.99999999999999822, -14.00000000000000355 ) ) ;
#262 = LINE ( 'NONE', #758, #1064 ) ;
#263 = EDGE_CURVE ( 'NONE', #1233, #385, #1166, .T. ) ;
#264 = DIRECTION ( 'NONE',  ( 1.000000000000000000, -0.000000000000000000, -0.000000000000000000 ) ) ;
#265 = B_SPLINE_CURVE_WITH_KNOTS ( 'NONE', 3,
 ( #1004, #517, #1287, #193, #408, #391, #94, #106, #1101, #994, #494, #811 ),
 .UNSPECIFIED., .F., .F.,
 ( 4, 2, 2, 2, 2, 4 ),
 ( 0.000000000000000000, 0.0009259524368650084297, 0.001851904873730016859, 0.002777857310595024422, 0.003240833529027527769, 0.003703809747460031984 ),
 .UNSPECIFIED. ) ;
#266 = VERTEX_POINT ( 'NONE', #1242 ) ;
#267 = ORIENTED_EDGE ( 'NONE', *, *, #263, .T. ) ;
#268 = AXIS2_PLACEMENT_3D ( 'NONE', #1016, #792, #292 ) ;
#269 = CARTESIAN_POINT ( 'NONE',  ( 4.000000000000007105, 30.00000000000000000, -25.50000000000000711 ) ) ;
#270 = DIRECTION ( 'NONE',  ( 1.000000000000000000, -0.000000000000000000, -0.000000000000000000 ) ) ;
#271 = CIRCLE ( 'NONE', #796, 5.000000000000000888 ) ;
#272 = CARTESIAN_POINT ( 'NONE',  ( 7.500000000000000888, 13.99999999999999822, -16.00000000000000355 ) ) ;
#273 = VERTEX_POINT ( 'NONE', #848 ) ;
#274 = ORIENTED_EDGE ( 'NONE', *, *, #593, .F. ) ;
#275 = VECTOR ( 'NONE', #756, 1000.000000000000000 ) ;
#276 = DIRECTION ( 'NONE',  ( 0.000000000000000000, 0.000000000000000000, -1.000000000000000000 ) ) ;
#277 = CARTESIAN_POINT ( 'NONE',  ( -4.000000000000000000, 10.00000000000000178, 25.50000000000000711 ) ) ;
#278 = FACE_OUTER_BOUND ( 'NONE', #161, .T. ) ;
#279 = CARTESIAN_POINT ( 'NONE',  ( 7.500000000000000888, 70.00000000000000000, -30.00000000000000711 ) ) ;
#280 = ORIENTED_EDGE ( 'NONE', *, *, #1028, .F. ) ;
#281 = EDGE_CURVE ( 'NONE', #915, #606, #1228, .T. ) ;
#282 = AXIS2_PLACEMENT_3D ( 'NONE', #289, #585, #1284 ) ;
#283 = CARTESIAN_POINT ( 'NONE',  ( 4.000000000000007105, 10.00000000000000000, 24.00000000000000711 ) ) ;
#284 = CARTESIAN_POINT ( 'NONE',  ( 4.000000000000007105, 10.00000000000000178, -24.00000000000000711 ) ) ;
#285 = DIRECTION ( 'NONE',  ( 0.000000000000000000, 0.000000000000000000, -1.000000000000000000 ) ) ;
#286 = FACE_OUTER_BOUND ( 'NONE', #1073, .T. ) ;
#287 = ORIENTED_EDGE ( 'NONE', *, *, #531, .T. ) ;
#288 = CARTESIAN_POINT ( 'NONE',  ( -4.000000000000000000, 10.00000000000000178, 24.00000000000000711 ) ) ;
#289 = CARTESIAN_POINT ( 'NONE',  ( 7.500000000000000888, 70.00000000000000000, 29.99999999999999289 ) ) ;
#290 = DIRECTION ( 'NONE',  ( 0.000000000000000000, 0.000000000000000000, -1.000000000000000000 ) ) ;
#291 = CIRCLE ( 'NONE', #1001, 1.500000000000001332 ) ;
#292 = DIRECTION ( 'NONE',  ( 0.000000000000000000, 0.000000000000000000, -1.000000000000000000 ) ) ;
#293 = ORIENTED_EDGE ( 'NONE', *, *, #209, .T. ) ;
#294 = UNCERTAINTY_MEASURE_WITH_UNIT (LENGTH_MEASURE( 1.000000000000000082E-05 ), #92, 'distance_accuracy_value', 'NONE');
#295 = B_SPLINE_CURVE_WITH_KNOTS ( 'NONE', 3,
 ( #595, #203, #1204, #413, #212, #610, #1008, #310, #993, #798, #218, #1105, #591, #98, #617, #93 ),
 .UNSPECIFIED., .F., .F.,
 ( 4, 2, 2, 2, 2, 2, 2, 4 ),
 ( 0.003703809747460031984, 0.004165821691806606900, 0.004627833636153181815, 0.005089845580499756730, 0.005551857524846330778, 0.006013869469192905694, 0.006475881413539480609, 0.007399905302232621766 ),
 .UNSPECIFIED. ) ;
#296 = ADVANCED_FACE ( 'NONE', ( #924 ), #21, .F. ) ;
#297 = DIRECTION ( 'NONE',  ( 0.000000000000000000, 1.000000000000000000, 0.000000000000000000 ) ) ;
#298 = DIRECTION ( 'NONE',  ( 0.000000000000000000, -1.000000000000000000, 0.000000000000000000 ) ) ;
#299 = EDGE_CURVE ( 'NONE', #365, #963, #496, .T. ) ;
#300 = CARTESIAN_POINT ( 'NONE',  ( -7.500000000000000000, 30.00000000000000000, 0.000000000000000000 ) ) ;
#301 = ORIENTED_EDGE ( 'NONE', *, *, #1033, .T. ) ;
#302 =( NAMED_UNIT ( * ) PLANE_ANGLE_UNIT ( ) SI_UNIT ( $, .RADIAN. ) );
#303 = CARTESIAN_POINT ( 'NONE',  ( 4.000000000000007105, -13.00000000000001776, -24.00000000000000711 ) ) ;
#304 = CARTESIAN_POINT ( 'NONE',  ( 4.000000000000007105, 0.4174243050441656111, -27.00000000000000711 ) ) ;
#305 = ADVANCED_FACE ( 'NONE', ( #32 ), #39, .F. ) ;
#306 = LINE ( 'NONE', #703, #181 ) ;
#307 = ORIENTED_EDGE ( 'NONE', *, *, #1184, .T. ) ;
#308 = VECTOR ( 'NONE', #946, 1000.000000000000000 ) ;
#309 = SURFACE_SIDE_STYLE ('',( #217 ) ) ;
#310 = CARTESIAN_POINT ( 'NONE',  ( 2.523317068080900061, 0.2677493673250211370, 26.61588209763295154 ) ) ;
#311 = CARTESIAN_POINT ( 'NONE',  ( 4.000000000000007105, 10.00000000000000000, -24.00000000000000711 ) ) ;
#312 = LINE ( 'NONE', #903, #368 ) ;
#313 = EDGE_LOOP ( 'NONE', ( #1019, #341, #997, #563, #534, #735, #1080, #1154, #1281, #749 ) ) ;
#314 = AXIS2_PLACEMENT_3D ( 'NONE', #311, #912, #448 ) ;
#315 = VECTOR ( 'NONE', #825, 1000.000000000000000 ) ;
#316 = EDGE_LOOP ( 'NONE', ( #464, #274, #1296, #456 ) ) ;
#317 = PRODUCT_CONTEXT ( 'NONE', #1129, 'mechanical' ) ;
#318 = EDGE_CURVE ( 'NONE', #981, #153, #145, .T. ) ;
#319 = DIRECTION ( 'NONE',  ( -0.000000000000000000, 1.000000000000000000, -0.000000000000000000 ) ) ;
#320 = CARTESIAN_POINT ( 'NONE',  ( 5.975098183166372756, 0.1609820894024585614, -26.26326804888963906 ) ) ;
#321 = PRESENTATION_STYLE_ASSIGNMENT (( #1195 ) ) ;
#322 = ORIENTED_EDGE ( 'NONE', *, *, #395, .F. ) ;
#323 = ADVANCED_FACE ( 'NONE', ( #343 ), #546, .F. ) ;
#324 = PRODUCT ( 'encoder-stand_flange-support-top', 'encoder-stand_flange-support-top', '', ( #317 ) ) ;
#325 = CYLINDRICAL_SURFACE ( 'NONE', #1171, 1.500000000000001332 ) ;
#326 = LINE ( 'NONE', #1138, #937 ) ;
#327 = VERTEX_POINT ( 'NONE', #466 ) ;
#328 = DIRECTION ( 'NONE',  ( 0.000000000000000000, -1.000000000000000000, 0.000000000000000000 ) ) ;
#329 = DIRECTION ( 'NONE',  ( 0.000000000000000000, -1.000000000000000000, 0.000000000000000000 ) ) ;
#330 = DIRECTION ( 'NONE',  ( 0.000000000000000000, 0.000000000000000000, -1.000000000000000000 ) ) ;
#331 = AXIS2_PLACEMENT_3D ( 'NONE', #79, #1248, #74 ) ;
#332 = EDGE_LOOP ( 'NONE', ( #492, #673, #293, #359, #307 ) ) ;
#333 = EDGE_CURVE ( 'NONE', #1007, #266, #895, .T. ) ;
#334 = ORIENTED_EDGE ( 'NONE', *, *, #748, .T. ) ;
#335 = AXIS2_PLACEMENT_3D ( 'NONE', #1180, #1065, #290 ) ;
#336 = CARTESIAN_POINT ( 'NONE',  ( 4.000000000000007105, -13.00000000000001776, -25.50000000000000711 ) ) ;
#337 = DIRECTION ( 'NONE',  ( 0.000000000000000000, -0.000000000000000000, 1.000000000000000000 ) ) ;
#338 = EDGE_CURVE ( 'NONE', #273, #548, #622, .T. ) ;
#339 = CARTESIAN_POINT ( 'NONE',  ( -2.392799018956916601, 0.2414491705878030192, -26.53773625428940974 ) ) ;
#340 = ORIENTED_EDGE ( 'NONE', *, *, #1130, .F. ) ;
#341 = ORIENTED_EDGE ( 'NONE', *, *, #665, .F. ) ;
#342 = DIRECTION ( 'NONE',  ( 0.000000000000000000, 0.000000000000000000, -1.000000000000000000 ) ) ;
#343 = FACE_OUTER_BOUND ( 'NONE', #332, .T. ) ;
#344 = CARTESIAN_POINT ( 'NONE',  ( -1.426624545383782916, 0.02670840623465753003, -25.57195555858243452 ) ) ;
#345 = VERTEX_POINT ( 'NONE', #662 ) ;
#346 = ADVANCED_FACE ( 'NONE', ( #579, #1255 ), #460, .T. ) ;
#347 = VECTOR ( 'NONE', #362, 1000.000000000000000 ) ;
#348 = EDGE_LOOP ( 'NONE', ( #541, #686, #588, #1119, #894 ) ) ;
#349 =( GEOMETRIC_REPRESENTATION_CONTEXT ( 3 ) GLOBAL_UNCERTAINTY_ASSIGNED_CONTEXT ( ( #1290 ) ) GLOBAL_UNIT_ASSIGNED_CONTEXT ( ( #619, #720, #10 ) ) REPRESENTATION_CONTEXT ( 'NONE', 'WORKASPACE' ) );
#350 = CYLINDRICAL_SURFACE ( 'NONE', #1005, 2.999999999999999112 ) ;
#351 = CARTESIAN_POINT ( 'NONE',  ( 7.500000000000000888, 0.000000000000000000, 24.99999999999998934 ) ) ;
#352 = CYLINDRICAL_SURFACE ( 'NONE', #648, 1.500000000000001332 ) ;
#353 = ORIENTED_EDGE ( 'NONE', *, *, #417, .T. ) ;
#354 = EDGE_LOOP ( 'NONE', ( #1092, #1160 ) ) ;
#355 = CARTESIAN_POINT ( 'NONE',  ( 4.154718643012563994, 0.4174243050441704406, 27.00000000000000711 ) ) ;
#356 = LINE ( 'NONE', #1173, #394 ) ;
#357 = CARTESIAN_POINT ( 'NONE',  ( 7.500000000000000888, 13.99999999999999467, 17.99999999999999645 ) ) ;
#358 = VERTEX_POINT ( 'NONE', #1152 ) ;
#359 = ORIENTED_EDGE ( 'NONE', *, *, #723, .T. ) ;
#360 = EDGE_CURVE ( 'NONE', #345, #365, #436, .T. ) ;
#361 = DIRECTION ( 'NONE',  ( 1.000000000000000000, 0.000000000000000000, 0.000000000000000000 ) ) ;
#362 = DIRECTION ( 'NONE',  ( -0.000000000000000000, -1.000000000000000000, -0.000000000000000000 ) ) ;
#363 = DIRECTION ( 'NONE',  ( 0.000000000000000000, 1.000000000000000000, 0.000000000000000000 ) ) ;
#364 = FACE_BOUND ( 'NONE', #253, .T. ) ;
#365 = VERTEX_POINT ( 'NONE', #778 ) ;
#366 = CARTESIAN_POINT ( 'NONE',  ( 4.000000000000007105, 0.4174243050441709957, 27.00000000000000711 ) ) ;
#367 = DIRECTION ( 'NONE',  ( -0.000000000000000000, -1.000000000000000000, -0.000000000000000000 ) ) ;
#368 = VECTOR ( 'NONE', #409, 1000.000000000000000 ) ;
#369 = CARTESIAN_POINT ( 'NONE',  ( 7.500000000000000888, 5.000000000000004441, -30.00000000000000711 ) ) ;
#370 = DIRECTION ( 'NONE',  ( -0.000000000000000000, -1.000000000000000000, -0.000000000000000000 ) ) ;
#371 = CARTESIAN_POINT ( 'NONE',  ( 7.500000000000000888, 5.000000000000004441, 24.99999999999998934 ) ) ;
#372 = ORIENTED_EDGE ( 'NONE', *, *, #7, .F. ) ;
#373 = DIRECTION ( 'NONE',  ( 1.000000000000000000, -0.000000000000000000, -0.000000000000000000 ) ) ;
#374 = CIRCLE ( 'NONE', #995, 2.999999999999999112 ) ;
#375 = DIRECTION ( 'NONE',  ( -0.000000000000000000, 1.000000000000000000, -0.000000000000000000 ) ) ;
#376 = CIRCLE ( 'NONE', #961, 1.999999999999998224 ) ;
#377 = CARTESIAN_POINT ( 'NONE',  ( 0.000000000000000000, 0.000000000000000000, 0.000000000000000000 ) ) ;
#378 = DIRECTION ( 'NONE',  ( 0.000000000000000000, 0.000000000000000000, 1.000000000000000000 ) ) ;
#379 = EDGE_CURVE ( 'NONE', #327, #969, #794, .T. ) ;
#380 = ORIENTED_EDGE ( 'NONE', *, *, #1028, .T. ) ;
#381 = CIRCLE ( 'NONE', #1089, 1.999999999999998224 ) ;
#382 = CARTESIAN_POINT ( 'NONE',  ( 4.000000000000007105, 30.00000000000000000, 24.00000000000000711 ) ) ;
#383 = FACE_BOUND ( 'NONE', #354, .T. ) ;
#384 = CARTESIAN_POINT ( 'NONE',  ( -62.50000000000000000, 30.00000000000000000, 0.000000000000000000 ) ) ;
#385 = VERTEX_POINT ( 'NONE', #1278 ) ;
#386 = VERTEX_POINT ( 'NONE', #861 ) ;
#387 = VECTOR ( 'NONE', #1114, 1000.000000000000000 ) ;
#388 = SHAPE_DEFINITION_REPRESENTATION ( #817, #498 ) ;
#389 = FACE_OUTER_BOUND ( 'NONE', #680, .T. ) ;
#390 = CARTESIAN_POINT ( 'NONE',  ( -4.000000000000000000, 10.00000000000000000, -24.00000000000000711 ) ) ;
#391 = CARTESIAN_POINT ( 'NONE',  ( -2.519117524508083239, 0.2685047408181732709, 26.62705564920888790 ) ) ;
#392 = ORIENTED_EDGE ( 'NONE', *, *, #1145, .F. ) ;
#393 = VECTOR ( 'NONE', #1079, 1000.000000000000000 ) ;
#394 = VECTOR ( 'NONE', #270, 1000.000000000000000 ) ;
#395 = EDGE_CURVE ( 'NONE', #1027, #386, #262, .T. ) ;
#396 = CYLINDRICAL_SURFACE ( 'NONE', #687, 2.999999999999999112 ) ;
#397 = CARTESIAN_POINT ( 'NONE',  ( 5.855966183829569793, 0.1881753276910671790, -26.36190385373364009 ) ) ;
#398 = ORIENTED_EDGE ( 'NONE', *, *, #72, .F. ) ;
#399 = ORIENTED_EDGE ( 'NONE', *, *, #104, .T. ) ;
#400 = AXIS2_PLACEMENT_3D ( 'NONE', #67, #557, #58 ) ;
#401 = ADVANCED_FACE ( 'NONE', ( #1063 ), #68, .F. ) ;
#402 = CARTESIAN_POINT ( 'NONE',  ( 4.000000000000007105, 10.00000000000000178, -22.50000000000000711 ) ) ;
#403 = CARTESIAN_POINT ( 'NONE',  ( 6.573375454616225078, 0.02670840623465739125, -25.57195555858243452 ) ) ;
#404 = CARTESIAN_POINT ( 'NONE',  ( -4.000000000000000000, 10.00000000000000000, 24.00000000000000711 ) ) ;
#405 = VERTEX_POINT ( 'NONE', #958 ) ;
#406 = EDGE_CURVE ( 'NONE', #990, #1251, #356, .T. ) ;
#407 = CARTESIAN_POINT ( 'NONE',  ( -5.480882475491915429, 0.2685047408181704953, -26.62705564920889145 ) ) ;
#408 = CARTESIAN_POINT ( 'NONE',  ( -2.017261274591114262, 0.1610225205482181954, 26.27226350519109843 ) ) ;
#409 = DIRECTION ( 'NONE',  ( -0.000000000000000000, 1.000000000000000000, -0.000000000000000000 ) ) ;
#410 = ORIENTED_EDGE ( 'NONE', *, *, #406, .T. ) ;
#411 = CIRCLE ( 'NONE', #580, 2.000000000000000000 ) ;
#412 = VERTEX_POINT ( 'NONE', #277 ) ;
#413 = CARTESIAN_POINT ( 'NONE',  ( 3.383242013265621129, 0.3916229776764985071, 26.93998381946950005 ) ) ;
#414 = DIRECTION ( 'NONE',  ( -0.000000000000000000, -1.000000000000000000, -0.000000000000000000 ) ) ;
#415 = DIRECTION ( 'NONE',  ( 0.000000000000000000, 0.000000000000000000, -1.000000000000000000 ) ) ;
#416 = EDGE_LOOP ( 'NONE', ( #832, #634, #613, #221, #18, #713, #1244, #1183, #645, #422 ) ) ;
#417 = EDGE_CURVE ( 'NONE', #508, #1189, #1188, .T. ) ;
#418 = AXIS2_PLACEMENT_3D ( 'NONE', #879, #578, #276 ) ;
#419 = CYLINDRICAL_SURFACE ( 'NONE', #167, 1.500000000000001332 ) ;
#420 = CARTESIAN_POINT ( 'NONE',  ( 2.519117524508094341, 0.2685047408181700512, -26.62705564920888790 ) ) ;
#421 = ORIENTED_EDGE ( 'NONE', *, *, #469, .T. ) ;
#422 = ORIENTED_EDGE ( 'NONE', *, *, #723, .F. ) ;
#423 = CARTESIAN_POINT ( 'NONE',  ( 4.000000000000007105, 30.00000000000000000, 25.50000000000000711 ) ) ;
#424 = DIRECTION ( 'NONE',  ( 1.000000000000000000, -0.000000000000000000, -0.000000000000000000 ) ) ;
#425 = DIRECTION ( 'NONE',  ( -0.000000000000000000, -1.000000000000000000, -0.000000000000000000 ) ) ;
#426 = FACE_OUTER_BOUND ( 'NONE', #786, .T. ) ;
#427 = ORIENTED_EDGE ( 'NONE', *, *, #1042, .T. ) ;
#428 = VERTEX_POINT ( 'NONE', #677 ) ;
#429 = EDGE_CURVE ( 'NONE', #548, #273, #562, .T. ) ;
#430 = PRESENTATION_LAYER_ASSIGNMENT (  '', '', ( #64 ) ) ;
#431 = ADVANCED_FACE ( 'NONE', ( #784, #383 ), #1076, .T. ) ;
#432 = CARTESIAN_POINT ( 'NONE',  ( -4.000000000000000000, 0.4174243050441658331, -27.00000000000000711 ) ) ;
#433 = VECTOR ( 'NONE', #582, 1000.000000000000000 ) ;
#434 = CARTESIAN_POINT ( 'NONE',  ( 7.500000000000000888, 70.00000000000000000, -30.00000000000000711 ) ) ;
#435 = CARTESIAN_POINT ( 'NONE',  ( 4.000000000000007105, 0.000000000000000000, 24.00000000000000711 ) ) ;
#436 = CIRCLE ( 'NONE', #1163, 2.999999999999999112 ) ;
#437 = EDGE_LOOP ( 'NONE', ( #41, #171 ) ) ;
#438 = ORIENTED_EDGE ( 'NONE', *, *, #789, .T. ) ;
#439 = AXIS2_PLACEMENT_3D ( 'NONE', #80, #69, #168 ) ;
#440 = EDGE_CURVE ( 'NONE', #833, #1061, #454, .T. ) ;
#441 = DIRECTION ( 'NONE',  ( 0.000000000000000000, 0.000000000000000000, -1.000000000000000000 ) ) ;
#442 = AXIS2_PLACEMENT_3D ( 'NONE', #1051, #328, #1022 ) ;
#443 = CARTESIAN_POINT ( 'NONE',  ( 4.000000000000007105, 10.00000000000000000, -24.00000000000000711 ) ) ;
#444 = CARTESIAN_POINT ( 'NONE',  ( 4.000000000000007105, 10.00000000000000000, -24.00000000000000711 ) ) ;
#445 = ORIENTED_EDGE ( 'NONE', *, *, #46, .T. ) ;
#446 = ORIENTED_EDGE ( 'NONE', *, *, #593, .T. ) ;
#447 = CARTESIAN_POINT ( 'NONE',  ( 0.000000000000000000, 0.000000000000000000, -25.00000000000000355 ) ) ;
#448 = DIRECTION ( 'NONE',  ( 0.000000000000000000, -0.000000000000000000, -1.000000000000000000 ) ) ;
#449 = CARTESIAN_POINT ( 'NONE',  ( 7.500000000000000888, 5.000000000000004441, -30.00000000000000711 ) ) ;
#450 = EDGE_LOOP ( 'NONE', ( #154, #1102, #775, #985 ) ) ;
#451 = AXIS2_PLACEMENT_3D ( 'NONE', #185, #165, #235 ) ;
#452 = ORIENTED_EDGE ( 'NONE', *, *, #333, .F. ) ;
#453 = CARTESIAN_POINT ( 'NONE',  ( -6.195042853037941555, 0.1104124301691738891, 26.05065403410688063 ) ) ;
#454 = LINE ( 'NONE', #480, #347 ) ;
#455 = CARTESIAN_POINT ( 'NONE',  ( -7.499999999999999112, 5.000000000000004441, -30.00000000000000711 ) ) ;
#456 = ORIENTED_EDGE ( 'NONE', *, *, #429, .T. ) ;
#457 = ADVANCED_FACE ( 'NONE', ( #671 ), #573, .F. ) ;
#458 = ORIENTED_EDGE ( 'NONE', *, *, #553, .F. ) ;
#459 = CARTESIAN_POINT ( 'NONE',  ( -2.499999999999999556, 13.99999999999999467, 15.99999999999999645 ) ) ;
#460 = PLANE ( 'NONE',  #331 ) ;
#461 = DIRECTION ( 'NONE',  ( -0.000000000000000000, -1.000000000000000000, -0.000000000000000000 ) ) ;
#462 = CARTESIAN_POINT ( 'NONE',  ( -4.000000000000000000, 10.00000000000000000, -21.00000000000000711 ) ) ;
#463 = VECTOR ( 'NONE', #1029, 1000.000000000000000 ) ;
#464 = ORIENTED_EDGE ( 'NONE', *, *, #526, .F. ) ;
#465 = CARTESIAN_POINT ( 'NONE',  ( 4.000000000000007105, -13.00000000000001776, 22.50000000000000711 ) ) ;
#466 = CARTESIAN_POINT ( 'NONE',  ( 4.000000000000007105, 10.00000000000000178, -25.50000000000000711 ) ) ;
#467 = FACE_OUTER_BOUND ( 'NONE', #215, .T. ) ;
#468 = CARTESIAN_POINT ( 'NONE',  ( 7.500000000000000888, 30.00000000000000000, 30.00000000000000711 ) ) ;
#469 = EDGE_CURVE ( 'NONE', #428, #1109, #1240, .T. ) ;
#470 = ORIENTED_EDGE ( 'NONE', *, *, #222, .F. ) ;
#471 = LINE ( 'NONE', #762, #275 ) ;
#472 = ADVANCED_FACE ( 'NONE', ( #488, #1185, #389 ), #790, .F. ) ;
#473 = DIRECTION ( 'NONE',  ( 0.000000000000000000, -1.000000000000000000, 0.000000000000000000 ) ) ;
#474 = AXIS2_PLACEMENT_3D ( 'NONE', #435, #1133, #856 ) ;
#475 = DIRECTION ( 'NONE',  ( -0.000000000000000000, -1.000000000000000000, -0.000000000000000000 ) ) ;
#476 = ORIENTED_EDGE ( 'NONE', *, *, #1167, .F. ) ;
#477 = EDGE_LOOP ( 'NONE', ( #594, #870, #301, #76, #95 ) ) ;
#478 = DIRECTION ( 'NONE',  ( -0.000000000000000000, -1.000000000000000000, -0.000000000000000000 ) ) ;
#479 = VECTOR ( 'NONE', #907, 1000.000000000000000 ) ;
#480 = CARTESIAN_POINT ( 'NONE',  ( 7.500000000000000888, 70.00000000000000000, 29.99999999999999289 ) ) ;
#481 = AXIS2_PLACEMENT_3D ( 'NONE', #1158, #967, #1264 ) ;
#482 = EDGE_CURVE ( 'NONE', #1061, #188, #681, .T. ) ;
#483 = DIRECTION ( 'NONE',  ( 0.000000000000000000, 0.000000000000000000, -1.000000000000000000 ) ) ;
#484 = FACE_BOUND ( 'NONE', #782, .T. ) ;
#485 = ORIENTED_EDGE ( 'NONE', *, *, #1042, .F. ) ;
#486 = VECTOR ( 'NONE', #676, 1000.000000000000000 ) ;
#487 = CARTESIAN_POINT ( 'NONE',  ( 4.308278398379606244, 0.4121779772558738508, 26.98810277258132118 ) ) ;
#488 = FACE_BOUND ( 'NONE', #916, .T. ) ;
#489 = CYLINDRICAL_SURFACE ( 'NONE', #625, 17.00000000000000000 ) ;
#490 = CARTESIAN_POINT ( 'NONE',  ( 7.500000000000000888, 0.000000000000000000, -25.00000000000000000 ) ) ;
#491 = APPLICATION_CONTEXT ( 'automotive_design' ) ;
#492 = ORIENTED_EDGE ( 'NONE', *, *, #170, .F. ) ;
#493 = CARTESIAN_POINT ( 'NONE',  ( -6.202946278322706952, 0.1072206740642300260, -26.05986280904955166 ) ) ;
#494 = CARTESIAN_POINT ( 'NONE',  ( -3.845281356987445331, 0.4174243050441721614, 27.00000000000000711 ) ) ;
#495 = VERTEX_POINT ( 'NONE', #689 ) ;
#496 = B_SPLINE_CURVE_WITH_KNOTS ( 'NONE', 3,
 ( #151, #738, #1231, #918, #238, #420, #744, #131, #1044, #630, #1030, #530 ),
 .UNSPECIFIED., .F., .F.,
 ( 4, 2, 2, 2, 2, 4 ),
 ( 0.000000000000000000, 0.0009259524368650034424, 0.001851904873730006885, 0.002777857310595010544, 0.003240833529027512590, 0.003703809747460015504 ),
 .UNSPECIFIED. ) ;
#497 = EDGE_CURVE ( 'NONE', #896, #647, #1181, .T. ) ;
#498 = ADVANCED_BREP_SHAPE_REPRESENTATION ( 'encoder-stand_flange-support-top', ( #537, #728 ), #1026 ) ;
#499 = AXIS2_PLACEMENT_3D ( 'NONE', #855, #657, #1157 ) ;
#500 = CARTESIAN_POINT ( 'NONE',  ( -4.000000000000000000, 0.4174243050441658331, -27.00000000000000711 ) ) ;
#501 = VECTOR ( 'NONE', #700, 1000.000000000000000 ) ;
#502 = DIRECTION ( 'NONE',  ( 0.000000000000000000, 0.000000000000000000, -1.000000000000000000 ) ) ;
#503 = LINE ( 'NONE', #1024, #640 ) ;
#504 = ORIENTED_EDGE ( 'NONE', *, *, #1127, .F. ) ;
#505 = CARTESIAN_POINT ( 'NONE',  ( 1.171572875253810819, 0.000000000000000000, 24.99999999999998934 ) ) ;
#506 = CARTESIAN_POINT ( 'NONE',  ( 6.724128953393849528, 4.336808689942017736E-15, -25.29499977691441615 ) ) ;
#507 = DIRECTION ( 'NONE',  ( -0.000000000000000000, 1.000000000000000000, -0.000000000000000000 ) ) ;
#508 = VERTEX_POINT ( 'NONE', #423 ) ;
#509 = ORIENTED_EDGE ( 'NONE', *, *, #104, .F. ) ;
#510 = CYLINDRICAL_SURFACE ( 'NONE', #589, 5.000000000000000888 ) ;
#511 = ADVANCED_FACE ( 'NONE', ( #933 ), #742, .T. ) ;
#512 = DIRECTION ( 'NONE',  ( 0.000000000000000000, 0.000000000000000000, -1.000000000000000000 ) ) ;
#513 = CARTESIAN_POINT ( 'NONE',  ( 6.195042853037943331, 0.1104124301691722654, -26.05065403410689484 ) ) ;
#514 = DIRECTION ( 'NONE',  ( -0.000000000000000000, 1.000000000000000000, -0.000000000000000000 ) ) ;
#515 = ORIENTED_EDGE ( 'NONE', *, *, #705, .F. ) ;
#516 = LINE ( 'NONE', #917, #315 ) ;
#517 = CARTESIAN_POINT ( 'NONE',  ( -1.276099690450591462, -1.905824131322175763E-18, 25.29564647936592436 ) ) ;
#518 = AXIS2_PLACEMENT_3D ( 'NONE', #390, #560, #8 ) ;
#519 = DIRECTION ( 'NONE',  ( -0.000000000000000000, -1.000000000000000000, -0.000000000000000000 ) ) ;
#520 = ORIENTED_EDGE ( 'NONE', *, *, #962, .T. ) ;
#521 = CIRCLE ( 'NONE', #965, 2.999999999999999112 ) ;
#522 = CARTESIAN_POINT ( 'NONE',  ( -4.154396399294353337, 0.4174243050441722724, 27.00000000000001066 ) ) ;
#523 = DIRECTION ( 'NONE',  ( 0.000000000000000000, 0.000000000000000000, -1.000000000000000000 ) ) ;
#524 = CARTESIAN_POINT ( 'NONE',  ( -4.000000000000000000, 0.000000000000000000, 21.00000000000000711 ) ) ;
#525 = VERTEX_POINT ( 'NONE', #666 ) ;
#526 = EDGE_CURVE ( 'NONE', #1007, #273, #1018, .T. ) ;
#527 = VERTEX_POINT ( 'NONE', #697 ) ;
#528 = EDGE_CURVE ( 'NONE', #210, #527, #3, .T. ) ;
#529 = DIRECTION ( 'NONE',  ( 0.000000000000000000, 0.000000000000000000, -1.000000000000000000 ) ) ;
#530 = CARTESIAN_POINT ( 'NONE',  ( 4.000000000000007105, 0.4174243050441656111, -27.00000000000000711 ) ) ;
#531 = EDGE_CURVE ( 'NONE', #91, #358, #220, .T. ) ;
#532 = CARTESIAN_POINT ( 'NONE',  ( -3.383242013265617576, 0.3916229776764921233, -26.93998381946949294 ) ) ;
#533 = ORIENTED_EDGE ( 'NONE', *, *, #1167, .T. ) ;
#534 = ORIENTED_EDGE ( 'NONE', *, *, #469, .F. ) ;
#535 = CIRCLE ( 'NONE', #1081, 1.500000000000001332 ) ;
#536 = EDGE_CURVE ( 'NONE', #969, #327, #1078, .T. ) ;
#537 = MANIFOLD_SOLID_BREP ( 'Fillet1', #1020 ) ;
#538 = CARTESIAN_POINT ( 'NONE',  ( -5.855966183829568905, 0.1881753276910690109, 26.36190385373364364 ) ) ;
#539 = DIRECTION ( 'NONE',  ( -0.000000000000000000, 1.000000000000000000, -0.000000000000000000 ) ) ;
#540 = DIRECTION ( 'NONE',  ( 1.000000000000000000, -0.000000000000000000, -0.000000000000000000 ) ) ;
#541 = ORIENTED_EDGE ( 'NONE', *, *, #765, .F. ) ;
#542 = AXIS2_PLACEMENT_3D ( 'NONE', #807, #99, #502 ) ;
#543 = ORIENTED_EDGE ( 'NONE', *, *, #16, .F. ) ;
#544 = FACE_OUTER_BOUND ( 'NONE', #875, .T. ) ;
#545 = AXIS2_PLACEMENT_3D ( 'NONE', #777, #256, #156 ) ;
#546 = CYLINDRICAL_SURFACE ( 'NONE', #100, 2.999999999999999112 ) ;
#547 = CARTESIAN_POINT ( 'NONE',  ( -1.171572875253809265, 0.000000000000000000, -25.00000000000000355 ) ) ;
#548 = VERTEX_POINT ( 'NONE', #1294 ) ;
#549 = EDGE_CURVE ( 'NONE', #91, #647, #1006, .T. ) ;
#550 = ORIENTED_EDGE ( 'NONE', *, *, #668, .F. ) ;
#551 = CARTESIAN_POINT ( 'NONE',  ( -4.616757986734384644, 0.3916229776764984516, 26.93998381946950005 ) ) ;
#552 = CARTESIAN_POINT ( 'NONE',  ( -7.499999999999999112, 70.00000000000000000, 29.99999999999999289 ) ) ;
#553 = EDGE_CURVE ( 'NONE', #266, #548, #919, .T. ) ;
#554 = CARTESIAN_POINT ( 'NONE',  ( -2.523317068080900505, 0.2677493673250165296, -26.61588209763295509 ) ) ;
#555 = ORIENTED_EDGE ( 'NONE', *, *, #1229, .T. ) ;
#556 = EDGE_LOOP ( 'NONE', ( #1148, #809, #698, #550, #793, #102, #968, #627, #372, #1238, #340, #109, #727, #853, #485, #736 ) ) ;
#557 = DIRECTION ( 'NONE',  ( 0.000000000000000000, 1.000000000000000000, 0.000000000000000000 ) ) ;
#558 = CARTESIAN_POINT ( 'NONE',  ( -7.499999999999999112, 5.000000000000004441, 24.99999999999998934 ) ) ;
#559 = MECHANICAL_DESIGN_GEOMETRIC_PRESENTATION_REPRESENTATION (  '', ( #64 ), #621 ) ;
#560 = DIRECTION ( 'NONE',  ( -0.000000000000000000, -1.000000000000000000, -0.000000000000000000 ) ) ;
#561 = LINE ( 'NONE', #960, #776 ) ;
#562 = CIRCLE ( 'NONE', #952, 1.500000000000001332 ) ;
#563 = ORIENTED_EDGE ( 'NONE', *, *, #249, .F. ) ;
#564 = CIRCLE ( 'NONE', #1067, 2.999999999999999112 ) ;
#565 = DIRECTION ( 'NONE',  ( 0.000000000000000000, 0.000000000000000000, -1.000000000000000000 ) ) ;
#566 = EDGE_CURVE ( 'NONE', #896, #428, #225, .T. ) ;
#567 = CARTESIAN_POINT ( 'NONE',  ( 4.000000000000007105, 30.00000000000000000, 24.00000000000000711 ) ) ;
#568 = DIRECTION ( 'NONE',  ( 0.000000000000000000, 0.000000000000000000, 1.000000000000000000 ) ) ;
#569 = ORIENTED_EDGE ( 'NONE', *, *, #549, .T. ) ;
#570 = EDGE_LOOP ( 'NONE', ( #1012, #421, #1159, #1288, #1259, #608, #199, #206 ) ) ;
#571 = EDGE_CURVE ( 'NONE', #864, #140, #503, .T. ) ;
#572 = CARTESIAN_POINT ( 'NONE',  ( 7.500000000000000888, 13.99999999999999467, 13.99999999999999645 ) ) ;
#573 = PLANE ( 'NONE',  #113 ) ;
#574 = FACE_OUTER_BOUND ( 'NONE', #450, .T. ) ;
#575 = DIRECTION ( 'NONE',  ( 0.000000000000000000, 0.000000000000000000, -1.000000000000000000 ) ) ;
#576 = ORIENTED_EDGE ( 'NONE', *, *, #30, .F. ) ;
#577 = EDGE_CURVE ( 'NONE', #210, #386, #750, .T. ) ;
#578 = DIRECTION ( 'NONE',  ( 0.000000000000000000, -1.000000000000000000, 0.000000000000000000 ) ) ;
#579 = FACE_OUTER_BOUND ( 'NONE', #1055, .T. ) ;
#580 = AXIS2_PLACEMENT_3D ( 'NONE', #33, #939, #644 ) ;
#581 = DIRECTION ( 'NONE',  ( 0.000000000000000000, 0.000000000000000000, 1.000000000000000000 ) ) ;
#582 = DIRECTION ( 'NONE',  ( 1.000000000000000000, -0.000000000000000000, -0.000000000000000000 ) ) ;
#583 = ORIENTED_EDGE ( 'NONE', *, *, #201, .F. ) ;
#584 = CARTESIAN_POINT ( 'NONE',  ( 6.723900309549414978, 3.811648262644349985E-18, 25.29564647936592081 ) ) ;
#585 = DIRECTION ( 'NONE',  ( -1.000000000000000000, 0.000000000000000000, 0.000000000000000000 ) ) ;
#586 = CYLINDRICAL_SURFACE ( 'NONE', #518, 2.999999999999999112 ) ;
#587 = EDGE_LOOP ( 'NONE', ( #920, #1049, #29, #1072 ) ) ;
#588 = ORIENTED_EDGE ( 'NONE', *, *, #360, .T. ) ;
#589 = AXIS2_PLACEMENT_3D ( 'NONE', #191, #1002, #717 ) ;
#590 = FILL_AREA_STYLE ('',( #1111 ) ) ;
#591 = CARTESIAN_POINT ( 'NONE',  ( 1.703853172472456601, 0.08698943141861664730, 25.93675918058493579 ) ) ;
#592 = CARTESIAN_POINT ( 'NONE',  ( -4.000000000000000000, 30.00000000000000000, 22.50000000000000711 ) ) ;
#593 = EDGE_CURVE ( 'NONE', #266, #1007, #535, .T. ) ;
#594 = ORIENTED_EDGE ( 'NONE', *, *, #236, .F. ) ;
#595 = CARTESIAN_POINT ( 'NONE',  ( 4.000000000000007105, 0.4174243050441709957, 27.00000000000000711 ) ) ;
#596 = CARTESIAN_POINT ( 'NONE',  ( 6.296146827527549839, 0.08698943141861496808, -25.93675918058494290 ) ) ;
#597 = CARTESIAN_POINT ( 'NONE',  ( -4.000000000000000000, 10.00000000000000178, -24.00000000000000711 ) ) ;
#598 = ORIENTED_EDGE ( 'NONE', *, *, #992, .T. ) ;
#599 = PRODUCT_DEFINITION_FORMATION_WITH_SPECIFIED_SOURCE ( 'Symmetric', '', #324, .NOT_KNOWN. ) ;
#600 = AXIS2_PLACEMENT_3D ( 'NONE', #166, #375, #950 ) ;
#601 = CIRCLE ( 'NONE', #1000, 1.500000000000001332 ) ;
#602 = EDGE_CURVE ( 'NONE', #969, #1011, #312, .T. ) ;
#603 = CARTESIAN_POINT ( 'NONE',  ( -6.577450766720699171, 0.02585699698110695277, -25.56612727529159912 ) ) ;
#604 = CARTESIAN_POINT ( 'NONE',  ( 5.607200981043090948, 0.2414491705878044348, -26.53773625428940974 ) ) ;
#605 = CARTESIAN_POINT ( 'NONE',  ( -4.000000000000000000, 10.00000000000000178, 24.00000000000000711 ) ) ;
#606 = VERTEX_POINT ( 'NONE', #1201 ) ;
#607 = AXIS2_PLACEMENT_3D ( 'NONE', #459, #1156, #1062 ) ;
#608 = ORIENTED_EDGE ( 'NONE', *, *, #110, .T. ) ;
#609 = EDGE_CURVE ( 'NONE', #55, #260, #306, .T. ) ;
#610 = CARTESIAN_POINT ( 'NONE',  ( 2.941348933152299949, 0.3393029696124743033, 26.81119637632020414 ) ) ;
#611 = CARTESIAN_POINT ( 'NONE',  ( 4.311316907207327631, 0.4120474732992128741, -26.98780472190369650 ) ) ;
#612 = FACE_OUTER_BOUND ( 'NONE', #316, .T. ) ;
#613 = ORIENTED_EDGE ( 'NONE', *, *, #771, .F. ) ;
#614 = APPLICATION_PROTOCOL_DEFINITION ( 'draft international standard', 'automotive_design', 1998, #491 ) ;
#615 = EDGE_CURVE ( 'NONE', #412, #864, #1140, .T. ) ;
#616 = PRESENTATION_LAYER_ASSIGNMENT (  '', '', ( #745 ) ) ;
#617 = CARTESIAN_POINT ( 'NONE',  ( 1.275871046606157577, 4.285139680159506204E-15, 25.29499977691440549 ) ) ;
#618 = CARTESIAN_POINT ( 'NONE',  ( 7.500000000000000888, 13.99999999999999822, -18.00000000000000355 ) ) ;
#619 =( LENGTH_UNIT ( ) NAMED_UNIT ( * ) SI_UNIT ( .MILLI., .METRE. ) );
#620 = ORIENTED_EDGE ( 'NONE', *, *, #668, .T. ) ;
#621 =( GEOMETRIC_REPRESENTATION_CONTEXT ( 3 ) GLOBAL_UNCERTAINTY_ASSIGNED_CONTEXT ( ( #294 ) ) GLOBAL_UNIT_ASSIGNED_CONTEXT ( ( #92, #694, #987 ) ) REPRESENTATION_CONTEXT ( 'NONE', 'WORKASPACE' ) );
#622 = CIRCLE ( 'NONE', #499, 1.500000000000001332 ) ;
#623 = CARTESIAN_POINT ( 'NONE',  ( 4.000000000000007105, -13.00000000000001776, 24.00000000000000711 ) ) ;
#624 = CARTESIAN_POINT ( 'NONE',  ( 4.000000000000007105, 0.000000000000000000, 24.00000000000000711 ) ) ;
#625 = AXIS2_PLACEMENT_3D ( 'NONE', #384, #264, #785 ) ;
#626 = CARTESIAN_POINT ( 'NONE',  ( 0.000000000000000000, 0.000000000000000000, 24.99999999999998934 ) ) ;
#627 = ORIENTED_EDGE ( 'NONE', *, *, #566, .T. ) ;
#628 = COLOUR_RGB ( '',0.2509803921568627416, 0.2509803921568627416, 0.2509803921568627416 ) ;
#629 = LINE ( 'NONE', #336, #463 ) ;
#630 = CARTESIAN_POINT ( 'NONE',  ( 3.691721601620410631, 0.4121779772558679111, -26.98810277258132473 ) ) ;
#631 = DIRECTION ( 'NONE',  ( 0.000000000000000000, 0.000000000000000000, -1.000000000000000000 ) ) ;
#632 = ORIENTED_EDGE ( 'NONE', *, *, #65, .F. ) ;
#633 = ADVANCED_FACE ( 'NONE', ( #612 ), #1010, .F. ) ;
#634 = ORIENTED_EDGE ( 'NONE', *, *, #1014, .F. ) ;
#635 = CARTESIAN_POINT ( 'NONE',  ( -6.724128953393849528, 4.399489128038836750E-15, 25.29499977691440549 ) ) ;
#636 = DIRECTION ( 'NONE',  ( -0.000000000000000000, -1.000000000000000000, -0.000000000000000000 ) ) ;
#637 = CARTESIAN_POINT ( 'NONE',  ( 4.000000000000007105, 10.00000000000000000, 21.00000000000000711 ) ) ;
#638 = ORIENTED_EDGE ( 'NONE', *, *, #1110, .F. ) ;
#639 = ORIENTED_EDGE ( 'NONE', *, *, #688, .F. ) ;
#640 = VECTOR ( 'NONE', #893, 1000.000000000000000 ) ;
#641 = FACE_BOUND ( 'NONE', #1267, .T. ) ;
#642 = DIRECTION ( 'NONE',  ( 0.000000000000000000, 0.000000000000000000, -1.000000000000000000 ) ) ;
#643 = ADVANCED_FACE ( 'NONE', ( #53 ), #152, .F. ) ;
#644 = DIRECTION ( 'NONE',  ( 0.000000000000000000, 0.000000000000000000, -1.000000000000000000 ) ) ;
#645 = ORIENTED_EDGE ( 'NONE', *, *, #999, .F. ) ;
#646 = AXIS2_PLACEMENT_3D ( 'NONE', #443, #425, #523 ) ;
#647 = VERTEX_POINT ( 'NONE', #524 ) ;
#648 = AXIS2_PLACEMENT_3D ( 'NONE', #1139, #1047, #1237 ) ;
#649 = EDGE_CURVE ( 'NONE', #876, #654, #953, .T. ) ;
#650 = CARTESIAN_POINT ( 'NONE',  ( -7.499999999999999112, 5.000000000000004441, 29.99999999999999289 ) ) ;
#651 = CIRCLE ( 'NONE', #85, 2.000000000000000000 ) ;
#652 = DIRECTION ( 'NONE',  ( 0.000000000000000000, 0.000000000000000000, -1.000000000000000000 ) ) ;
#653 = DIRECTION ( 'NONE',  ( 1.000000000000000000, -0.000000000000000000, -0.000000000000000000 ) ) ;
#654 = VERTEX_POINT ( 'NONE', #455 ) ;
#655 = ORIENTED_EDGE ( 'NONE', *, *, #1270, .F. ) ;
#656 = CARTESIAN_POINT ( 'NONE',  ( 4.613123452666884283, 0.3919371188896585978, 26.94072667587545666 ) ) ;
#657 = DIRECTION ( 'NONE',  ( 0.000000000000000000, 1.000000000000000000, 0.000000000000000000 ) ) ;
#658 = DIRECTION ( 'NONE',  ( 0.000000000000000000, -1.000000000000000000, 0.000000000000000000 ) ) ;
#659 = CARTESIAN_POINT ( 'NONE',  ( -4.000000000000000000, -13.00000000000001776, -24.00000000000000711 ) ) ;
#660 = VERTEX_POINT ( 'NONE', #357 ) ;
#661 = PLANE ( 'NONE',  #607 ) ;
#662 = CARTESIAN_POINT ( 'NONE',  ( 4.000000000000007105, 0.000000000000000000, -21.00000000000000711 ) ) ;
#663 = CARTESIAN_POINT ( 'NONE',  ( -7.499999999999999112, 5.000000000000004441, -25.00000000000000355 ) ) ;
#664 = EDGE_LOOP ( 'NONE', ( #931, #280 ) ) ;
#665 = EDGE_CURVE ( 'NONE', #188, #385, #1031, .T. ) ;
#666 = CARTESIAN_POINT ( 'NONE',  ( 4.000000000000007105, 10.00000000000000000, 21.00000000000000711 ) ) ;
#667 = VECTOR ( 'NONE', #1236, 1000.000000000000000 ) ;
#668 = EDGE_CURVE ( 'NONE', #981, #1233, #1039, .T. ) ;
#669 = ORIENTED_EDGE ( 'NONE', *, *, #536, .F. ) ;
#670 = CARTESIAN_POINT ( 'NONE',  ( 7.500000000000000888, 5.000000000000004441, -25.00000000000000355 ) ) ;
#671 = FACE_OUTER_BOUND ( 'NONE', #570, .T. ) ;
#672 = CARTESIAN_POINT ( 'NONE',  ( -4.000000000000000000, 10.00000000000000000, 24.00000000000000711 ) ) ;
#673 = ORIENTED_EDGE ( 'NONE', *, *, #962, .F. ) ;
#674 = EDGE_CURVE ( 'NONE', #990, #36, #411, .T. ) ;
#675 = ORIENTED_EDGE ( 'NONE', *, *, #281, .F. ) ;
#676 = DIRECTION ( 'NONE',  ( 1.000000000000000000, -0.000000000000000000, -0.000000000000000000 ) ) ;
#677 = CARTESIAN_POINT ( 'NONE',  ( -7.499999999999999112, 0.000000000000000000, 24.99999999999998934 ) ) ;
#678 = CYLINDRICAL_SURFACE ( 'NONE', #83, 2.999999999999999112 ) ;
#679 = CARTESIAN_POINT ( 'NONE',  ( -21.49999999999997158, 30.00000000000000000, -30.00000000000000711 ) ) ;
#680 = EDGE_LOOP ( 'NONE', ( #1097, #1295, #1115, #1147, #1054, #515, #639, #543 ) ) ;
#681 = CIRCLE ( 'NONE', #722, 5.000000000000000888 ) ;
#682 = CARTESIAN_POINT ( 'NONE',  ( -2.499999999999999556, 13.99999999999999822, -16.00000000000000355 ) ) ;
#683 = DIRECTION ( 'NONE',  ( -0.000000000000000000, 1.000000000000000000, -0.000000000000000000 ) ) ;
#684 = FACE_OUTER_BOUND ( 'NONE', #908, .T. ) ;
#685 = VERTEX_POINT ( 'NONE', #850 ) ;
#686 = ORIENTED_EDGE ( 'NONE', *, *, #90, .T. ) ;
#687 = AXIS2_PLACEMENT_3D ( 'NONE', #1193, #111, #512 ) ;
#688 = EDGE_CURVE ( 'NONE', #527, #1027, #13, .T. ) ;
#689 = CARTESIAN_POINT ( 'NONE',  ( 4.000000000000007105, 10.00000000000000000, -21.00000000000000711 ) ) ;
#690 = CARTESIAN_POINT ( 'NONE',  ( 0.000000000000000000, 0.000000000000000000, -25.00000000000000355 ) ) ;
#691 = DIRECTION ( 'NONE',  ( 0.000000000000000000, 0.000000000000000000, -1.000000000000000000 ) ) ;
#692 = ORIENTED_EDGE ( 'NONE', *, *, #731, .F. ) ;
#693 = AXIS2_PLACEMENT_3D ( 'NONE', #1272, #1165, #378 ) ;
#694 =( NAMED_UNIT ( * ) PLANE_ANGLE_UNIT ( ) SI_UNIT ( $, .RADIAN. ) );
#695 = DIRECTION ( 'NONE',  ( 0.000000000000000000, 0.000000000000000000, 1.000000000000000000 ) ) ;
#696 = LINE ( 'NONE', #204, #1209 ) ;
#697 = CARTESIAN_POINT ( 'NONE',  ( 7.500000000000000888, 30.00000000000000000, 17.00000000000000000 ) ) ;
#698 = ORIENTED_EDGE ( 'NONE', *, *, #263, .F. ) ;
#699 = ADVANCED_FACE ( 'NONE', ( #426 ), #352, .F. ) ;
#700 = DIRECTION ( 'NONE',  ( 1.000000000000000000, -0.000000000000000000, -0.000000000000000000 ) ) ;
#701 = CARTESIAN_POINT ( 'NONE',  ( 4.766163665853968112, 0.3766764907235957138, -26.90457576673406948 ) ) ;
#702 = AXIS2_PLACEMENT_3D ( 'NONE', #114, #514, #914 ) ;
#703 = CARTESIAN_POINT ( 'NONE',  ( 4.000000000000007105, 10.00000000000000000, 27.00000000000000711 ) ) ;
#704 = ORIENTED_EDGE ( 'NONE', *, *, #241, .F. ) ;
#705 = EDGE_CURVE ( 'NONE', #1027, #116, #837, .T. ) ;
#706 = B_SPLINE_CURVE_WITH_KNOTS ( 'NONE', 3,
 ( #724, #522, #1230, #551, #923, #1036, #237, #124, #1122, #538, #250, #453, #935, #1117, #635, #130 ),
 .UNSPECIFIED., .F., .F.,
 ( 4, 2, 2, 2, 2, 2, 2, 4 ),
 ( 0.003703809747460031984, 0.004165821691806606900, 0.004627833636153180948, 0.005089845580499755863, 0.005551857524846330778, 0.006013869469192904826, 0.006475881413539479742, 0.007399905302232620899 ),
 .UNSPECIFIED. ) ;
#707 = PRESENTATION_STYLE_ASSIGNMENT (( #1088 ) ) ;
#708 = CIRCLE ( 'NONE', #268, 1.500000000000001332 ) ;
#709 = FACE_OUTER_BOUND ( 'NONE', #1025, .T. ) ;
#710 = AXIS2_PLACEMENT_3D ( 'NONE', #911, #297, #695 ) ;
#711 = FACE_BOUND ( 'NONE', #1226, .T. ) ;
#712 = FILL_AREA_STYLE ('',( #808 ) ) ;
#713 = ORIENTED_EDGE ( 'NONE', *, *, #763, .F. ) ;
#714 = EDGE_CURVE ( 'NONE', #55, #525, #1210, .T. ) ;
#715 = CIRCLE ( 'NONE', #881, 5.000000000000000888 ) ;
#716 = ORIENTED_EDGE ( 'NONE', *, *, #236, .T. ) ;
#717 = DIRECTION ( 'NONE',  ( 0.000000000000000000, 0.000000000000000000, 1.000000000000000000 ) ) ;
#718 = CARTESIAN_POINT ( 'NONE',  ( 4.000000000000007105, 10.00000000000000178, 25.50000000000000711 ) ) ;
#719 = CARTESIAN_POINT ( 'NONE',  ( -4.000000000000000000, 0.4174243050441708847, 27.00000000000000711 ) ) ;
#720 =( NAMED_UNIT ( * ) PLANE_ANGLE_UNIT ( ) SI_UNIT ( $, .RADIAN. ) );
#721 = EDGE_LOOP ( 'NONE', ( #149, #1040, #839, #1136 ) ) ;
#722 = AXIS2_PLACEMENT_3D ( 'NONE', #983, #87, #886 ) ;
#723 = EDGE_CURVE ( 'NONE', #1086, #768, #951, .T. ) ;
#724 = CARTESIAN_POINT ( 'NONE',  ( -4.000000000000000000, 0.4174243050441708847, 27.00000000000000711 ) ) ;
#725 = LINE ( 'NONE', #1219, #877 ) ;
#726 = CARTESIAN_POINT ( 'NONE',  ( -4.000000000000000000, -13.00000000000001776, -22.50000000000000711 ) ) ;
#727 = ORIENTED_EDGE ( 'NONE', *, *, #999, .T. ) ;
#728 = AXIS2_PLACEMENT_3D ( 'NONE', #117, #1211, #195 ) ;
#729 = AXIS2_PLACEMENT_3D ( 'NONE', #175, #70, #760 ) ;
#730 = AXIS2_PLACEMENT_3D ( 'NONE', #434, #337, #1132 ) ;
#731 = EDGE_CURVE ( 'NONE', #84, #1142, #938, .T. ) ;
#732 = CARTESIAN_POINT ( 'NONE',  ( 7.500000000000000888, 13.99999999999999467, 15.99999999999999645 ) ) ;
#733 = CARTESIAN_POINT ( 'NONE',  ( -4.000000000000000000, 0.000000000000000000, -21.00000000000000711 ) ) ;
#734 = DIRECTION ( 'NONE',  ( 0.000000000000000000, 0.000000000000000000, -1.000000000000000000 ) ) ;
#735 = ORIENTED_EDGE ( 'NONE', *, *, #566, .F. ) ;
#736 = ORIENTED_EDGE ( 'NONE', *, *, #763, .T. ) ;
#737 = LINE ( 'NONE', #447, #22 ) ;
#738 = CARTESIAN_POINT ( 'NONE',  ( 1.276099690450604340, -4.517509052022930263E-18, -25.29564647936593502 ) ) ;
#739 = CARTESIAN_POINT ( 'NONE',  ( -1.275871046606157799, 4.237705835113264596E-15, -25.29499977691441615 ) ) ;
#740 = EDGE_LOOP ( 'NONE', ( #176, #194 ) ) ;
#741 = ORIENTED_EDGE ( 'NONE', *, *, #170, .T. ) ;
#742 = CYLINDRICAL_SURFACE ( 'NONE', #910, 5.000000000000000888 ) ;
#743 = CARTESIAN_POINT ( 'NONE',  ( 7.500000000000000888, 70.00000000000000000, 29.99999999999999289 ) ) ;
#744 = CARTESIAN_POINT ( 'NONE',  ( 2.793640783785380055, 0.3204196856953872019, -26.76401101363714830 ) ) ;
#745 = STYLED_ITEM ( 'NONE', ( #321 ), #537 ) ;
#746 = DIRECTION ( 'NONE',  ( 0.000000000000000000, 0.000000000000000000, -1.000000000000000000 ) ) ;
#747 = EDGE_LOOP ( 'NONE', ( #754, #948 ) ) ;
#748 = EDGE_CURVE ( 'NONE', #525, #1233, #239, .T. ) ;
#749 = ORIENTED_EDGE ( 'NONE', *, *, #921, .F. ) ;
#750 = CIRCLE ( 'NONE', #1266, 17.00000000000000000 ) ;
#751 = CARTESIAN_POINT ( 'NONE',  ( 4.000000000000007105, 10.00000000000000178, 22.50000000000000711 ) ) ;
#752 = CARTESIAN_POINT ( 'NONE',  ( 7.500000000000000888, 13.99999999999999822, -14.00000000000000355 ) ) ;
#753 = DIRECTION ( 'NONE',  ( 0.000000000000000000, 0.000000000000000000, -1.000000000000000000 ) ) ;
#754 = ORIENTED_EDGE ( 'NONE', *, *, #824, .T. ) ;
#755 = ORIENTED_EDGE ( 'NONE', *, *, #955, .F. ) ;
#756 = DIRECTION ( 'NONE',  ( -0.000000000000000000, 1.000000000000000000, -0.000000000000000000 ) ) ;
#757 = CIRCLE ( 'NONE', #1276, 2.000000000000000000 ) ;
#758 = CARTESIAN_POINT ( 'NONE',  ( -62.50000000000000000, 30.00000000000000000, -17.00000000000000000 ) ) ;
#759 = CARTESIAN_POINT ( 'NONE',  ( 4.000000000000007105, 10.00000000000000000, 24.00000000000000711 ) ) ;
#760 = DIRECTION ( 'NONE',  ( 0.000000000000000000, 0.000000000000000000, -1.000000000000000000 ) ) ;
#761 = ORIENTED_EDGE ( 'NONE', *, *, #1245, .F. ) ;
#762 = CARTESIAN_POINT ( 'NONE',  ( -4.000000000000000000, -13.00000000000001776, 25.50000000000000711 ) ) ;
#763 = EDGE_CURVE ( 'NONE', #405, #34, #138, .T. ) ;
#764 = CARTESIAN_POINT ( 'NONE',  ( -4.000000000000000000, 10.00000000000000000, -24.00000000000000711 ) ) ;
#765 = EDGE_CURVE ( 'NONE', #495, #815, #228, .T. ) ;
#766 = CARTESIAN_POINT ( 'NONE',  ( 4.000000000000007105, -13.00000000000001776, -24.00000000000000711 ) ) ;
#767 = ORIENTED_EDGE ( 'NONE', *, *, #609, .F. ) ;
#768 = VERTEX_POINT ( 'NONE', #547 ) ;
#769 = LINE ( 'NONE', #261, #1149 ) ;
#770 = DIRECTION ( 'NONE',  ( 0.000000000000000000, 1.000000000000000000, 0.000000000000000000 ) ) ;
#771 = EDGE_CURVE ( 'NONE', #654, #1034, #271, .T. ) ;
#772 = FACE_OUTER_BOUND ( 'NONE', #255, .T. ) ;
#773 = FACE_OUTER_BOUND ( 'NONE', #851, .T. ) ;
#774 = DIRECTION ( 'NONE',  ( 1.000000000000000000, -0.000000000000000000, 0.000000000000000000 ) ) ;
#775 = ORIENTED_EDGE ( 'NONE', *, *, #577, .F. ) ;
#776 = VECTOR ( 'NONE', #62, 1000.000000000000000 ) ;
#777 = CARTESIAN_POINT ( 'NONE',  ( -4.000000000000000000, 0.000000000000000000, -24.00000000000000711 ) ) ;
#778 = CARTESIAN_POINT ( 'NONE',  ( 1.171572875253816148, 0.000000000000000000, -25.00000000000000355 ) ) ;
#779 = AXIS2_PLACEMENT_3D ( 'NONE', #25, #841, #342 ) ;
#780 = CARTESIAN_POINT ( 'NONE',  ( 4.000000000000007105, 10.00000000000000000, -27.00000000000000711 ) ) ;
#781 = CARTESIAN_POINT ( 'NONE',  ( -2.499999999999999556, 13.99999999999999467, 17.99999999999999645 ) ) ;
#782 = EDGE_LOOP ( 'NONE', ( #787, #392 ) ) ;
#783 = DIRECTION ( 'NONE',  ( 0.000000000000000000, 1.000000000000000000, 0.000000000000000000 ) ) ;
#784 = FACE_OUTER_BOUND ( 'NONE', #1257, .T. ) ;
#785 = DIRECTION ( 'NONE',  ( 0.000000000000000000, 0.000000000000000000, -1.000000000000000000 ) ) ;
#786 = EDGE_LOOP ( 'NONE', ( #974, #1197, #1126, #353 ) ) ;
#787 = ORIENTED_EDGE ( 'NONE', *, *, #417, .F. ) ;
#788 = AXIS2_PLACEMENT_3D ( 'NONE', #178, #1084, #978 ) ;
#789 = EDGE_CURVE ( 'NONE', #1011, #1134, #291, .T. ) ;
#790 = PLANE ( 'NONE',  #282 ) ;
#791 = CARTESIAN_POINT ( 'NONE',  ( 4.000000000000007105, 10.00000000000000178, 24.00000000000000711 ) ) ;
#792 = DIRECTION ( 'NONE',  ( -0.000000000000000000, 1.000000000000000000, -0.000000000000000000 ) ) ;
#793 = ORIENTED_EDGE ( 'NONE', *, *, #318, .T. ) ;
#794 = CIRCLE ( 'NONE', #226, 1.500000000000001332 ) ;
#795 = UNCERTAINTY_MEASURE_WITH_UNIT (LENGTH_MEASURE( 1.000000000000000082E-05 ), #6, 'distance_accuracy_value', 'NONE');
#796 = AXIS2_PLACEMENT_3D ( 'NONE', #663, #1256, #1085 ) ;
#797 = B_SPLINE_CURVE_WITH_KNOTS ( 'NONE', 3,
 ( #1172, #584, #1069, #164, #1247, #957, #172, #982, #656, #487, #355, #366 ),
 .UNSPECIFIED., .F., .F.,
 ( 4, 2, 2, 2, 2, 4 ),
 ( 0.000000000000000000, 0.0009259524368650086466, 0.001851904873730017293, 0.002777857310595025723, 0.003240833529027528637, 0.003703809747460031984 ),
 .UNSPECIFIED. ) ;
#798 = CARTESIAN_POINT ( 'NONE',  ( 2.144033816170442641, 0.1881753276910691219, 26.36190385373364364 ) ) ;
#799 = PLANE ( 'NONE',  #1045 ) ;
#800 = DIRECTION ( 'NONE',  ( 1.000000000000000000, -0.000000000000000000, 0.000000000000000000 ) ) ;
#801 = ORIENTED_EDGE ( 'NONE', *, *, #110, .F. ) ;
#802 = AXIS2_PLACEMENT_3D ( 'NONE', #283, #1075, #964 ) ;
#803 = EDGE_CURVE ( 'NONE', #685, #1109, #1279, .T. ) ;
#804 = DIRECTION ( 'NONE',  ( 0.000000000000000000, 0.000000000000000000, -1.000000000000000000 ) ) ;
#805 = ADVANCED_FACE ( 'NONE', ( #1164 ), #1071, .F. ) ;
#806 = CARTESIAN_POINT ( 'NONE',  ( -2.499999999999999556, 13.99999999999999467, 13.99999999999999645 ) ) ;
#807 = CARTESIAN_POINT ( 'NONE',  ( -2.499999999999999556, 13.99999999999999822, -16.00000000000000355 ) ) ;
#808 = FILL_AREA_STYLE_COLOUR ( '', #849 ) ;
#809 = ORIENTED_EDGE ( 'NONE', *, *, #665, .T. ) ;
#810 = LINE ( 'NONE', #901, #1104 ) ;
#811 = CARTESIAN_POINT ( 'NONE',  ( -4.000000000000000000, 0.4174243050441708847, 27.00000000000000711 ) ) ;
#812 = VECTOR ( 'NONE', #132, 1000.000000000000000 ) ;
#813 = ADVANCED_FACE ( 'NONE', ( #772 ), #874, .F. ) ;
#814 = DIRECTION ( 'NONE',  ( 0.000000000000000000, 0.000000000000000000, -1.000000000000000000 ) ) ;
#815 = VERTEX_POINT ( 'NONE', #780 ) ;
#816 = ORIENTED_EDGE ( 'NONE', *, *, #921, .T. ) ;
#817 = PRODUCT_DEFINITION_SHAPE ( 'NONE', 'NONE',  #1035 ) ;
#818 = VECTOR ( 'NONE', #224, 1000.000000000000000 ) ;
#819 = DIRECTION ( 'NONE',  ( 0.000000000000000000, 0.000000000000000000, -1.000000000000000000 ) ) ;
#820 = CARTESIAN_POINT ( 'NONE',  ( -4.000000000000000000, 30.00000000000000000, 24.00000000000000711 ) ) ;
#821 = DIRECTION ( 'NONE',  ( 0.000000000000000000, 0.000000000000000000, -1.000000000000000000 ) ) ;
#822 = ORIENTED_EDGE ( 'NONE', *, *, #1150, .T. ) ;
#823 = CIRCLE ( 'NONE', #254, 1.500000000000001332 ) ;
#824 = EDGE_CURVE ( 'NONE', #904, #1048, #858, .T. ) ;
#825 = DIRECTION ( 'NONE',  ( -0.000000000000000000, -1.000000000000000000, -0.000000000000000000 ) ) ;
#826 = CARTESIAN_POINT ( 'NONE',  ( -7.500000000000000000, 30.00000000000000000, 17.00000000000000000 ) ) ;
#827 = EDGE_LOOP ( 'NONE', ( #533, #19 ) ) ;
#828 = ADVANCED_FACE ( 'NONE', ( #467 ), #61, .F. ) ;
#829 = DIRECTION ( 'NONE',  ( -1.000000000000000000, 0.000000000000000000, -0.000000000000000000 ) ) ;
#830 = DIRECTION ( 'NONE',  ( 0.000000000000000000, 0.000000000000000000, -1.000000000000000000 ) ) ;
#831 = CARTESIAN_POINT ( 'NONE',  ( -2.144033816170440421, 0.1881753276910658190, -26.36190385373364009 ) ) ;
#832 = ORIENTED_EDGE ( 'NONE', *, *, #905, .F. ) ;
#833 = VERTEX_POINT ( 'NONE', #88 ) ;
#834 = DIRECTION ( 'NONE',  ( 1.000000000000000000, 0.000000000000000000, 0.000000000000000000 ) ) ;
#835 = DIRECTION ( 'NONE',  ( 1.000000000000000000, -0.000000000000000000, -0.000000000000000000 ) ) ;
#836 = VECTOR ( 'NONE', #540, 1000.000000000000000 ) ;
#837 = LINE ( 'NONE', #1146, #103 ) ;
#838 = ORIENTED_EDGE ( 'NONE', *, *, #1263, .T. ) ;
#839 = ORIENTED_EDGE ( 'NONE', *, *, #1245, .T. ) ;
#840 = CIRCLE ( 'NONE', #802, 2.999999999999999112 ) ;
#841 = DIRECTION ( 'NONE',  ( 0.000000000000000000, -1.000000000000000000, -0.000000000000000000 ) ) ;
#842 = DIRECTION ( 'NONE',  ( -0.000000000000000000, -1.000000000000000000, -0.000000000000000000 ) ) ;
#843 = ADVANCED_FACE ( 'NONE', ( #278 ), #868, .F. ) ;
#844 = DIRECTION ( 'NONE',  ( 0.000000000000000000, -1.000000000000000000, 0.000000000000000000 ) ) ;
#845 = ORIENTED_EDGE ( 'NONE', *, *, #789, .F. ) ;
#846 = ORIENTED_EDGE ( 'NONE', *, *, #905, .T. ) ;
#847 = DIRECTION ( 'NONE',  ( 0.000000000000000000, 0.000000000000000000, 1.000000000000000000 ) ) ;
#848 = CARTESIAN_POINT ( 'NONE',  ( -4.000000000000000000, 30.00000000000000000, -25.50000000000000711 ) ) ;
#849 = COLOUR_RGB ( '',0.2509803921568627416, 0.2509803921568627416, 0.2509803921568627416 ) ;
#850 = CARTESIAN_POINT ( 'NONE',  ( -7.500000000000000000, 30.00000000000000000, 30.00000000000000711 ) ) ;
#851 = EDGE_LOOP ( 'NONE', ( #954, #159, #555, #399 ) ) ;
#852 = ADVANCED_FACE ( 'NONE', ( #574 ), #489, .F. ) ;
#853 = ORIENTED_EDGE ( 'NONE', *, *, #360, .F. ) ;
#854 = DIRECTION ( 'NONE',  ( 0.000000000000000000, 0.000000000000000000, -1.000000000000000000 ) ) ;
#855 = CARTESIAN_POINT ( 'NONE',  ( -4.000000000000000000, 30.00000000000000000, -24.00000000000000711 ) ) ;
#856 = DIRECTION ( 'NONE',  ( 0.000000000000000000, 0.000000000000000000, -1.000000000000000000 ) ) ;
#857 = ORIENTED_EDGE ( 'NONE', *, *, #1261, .T. ) ;
#858 = CIRCLE ( 'NONE', #123, 1.500000000000001332 ) ;
#859 = VERTEX_POINT ( 'NONE', #1271 ) ;
#860 = FACE_OUTER_BOUND ( 'NONE', #216, .T. ) ;
#861 = CARTESIAN_POINT ( 'NONE',  ( -7.500000000000000000, 30.00000000000000000, -17.00000000000000000 ) ) ;
#862 = CARTESIAN_POINT ( 'NONE',  ( 4.000000000000007105, 30.00000000000000000, -24.00000000000000711 ) ) ;
#863 = LINE ( 'NONE', #1106, #207 ) ;
#864 = VERTEX_POINT ( 'NONE', #1174 ) ;
#865 = EDGE_CURVE ( 'NONE', #647, #153, #1190, .T. ) ;
#866 = CARTESIAN_POINT ( 'NONE',  ( -2.499999999999999556, 13.99999999999999467, 15.99999999999999645 ) ) ;
#867 = CARTESIAN_POINT ( 'NONE',  ( -4.000000000000000000, 10.00000000000000178, -24.00000000000000711 ) ) ;
#868 = CYLINDRICAL_SURFACE ( 'NONE', #481, 2.000000000000000000 ) ;
#869 = DIRECTION ( 'NONE',  ( -0.000000000000000000, -1.000000000000000000, -0.000000000000000000 ) ) ;
#870 = ORIENTED_EDGE ( 'NONE', *, *, #30, .T. ) ;
#871 = VECTOR ( 'NONE', #1108, 1000.000000000000000 ) ;
#872 = CYLINDRICAL_SURFACE ( 'NONE', #1050, 2.000000000000000000 ) ;
#873 = DIRECTION ( 'NONE',  ( 0.000000000000000000, 0.000000000000000000, 1.000000000000000000 ) ) ;
#874 = CYLINDRICAL_SURFACE ( 'NONE', #1249, 1.500000000000001332 ) ;
#875 = EDGE_LOOP ( 'NONE', ( #139, #838, #187, #704 ) ) ;
#876 = VERTEX_POINT ( 'NONE', #369 ) ;
#877 = VECTOR ( 'NONE', #539, 1000.000000000000000 ) ;
#878 = ADVANCED_FACE ( 'NONE', ( #1059 ), #678, .F. ) ;
#879 = CARTESIAN_POINT ( 'NONE',  ( -4.000000000000000000, 0.000000000000000000, -24.00000000000000711 ) ) ;
#880 = DIRECTION ( 'NONE',  ( 0.000000000000000000, 0.000000000000000000, -1.000000000000000000 ) ) ;
#881 = AXIS2_PLACEMENT_3D ( 'NONE', #670, #1260, #1083 ) ;
#882 = FACE_OUTER_BOUND ( 'NONE', #115, .T. ) ;
#883 = PLANE ( 'NONE',  #729 ) ;
#884 = EDGE_CURVE ( 'NONE', #133, #248, #376, .T. ) ;
#885 = ORIENTED_EDGE ( 'NONE', *, *, #65, .T. ) ;
#886 = DIRECTION ( 'NONE',  ( 0.000000000000000000, 0.000000000000000000, 1.000000000000000000 ) ) ;
#887 = DIRECTION ( 'NONE',  ( 0.000000000000000000, 0.000000000000000000, -1.000000000000000000 ) ) ;
#888 = CYLINDRICAL_SURFACE ( 'NONE', #1103, 1.500000000000001332 ) ;
#889 = VERTEX_POINT ( 'NONE', #1285 ) ;
#890 = B_SPLINE_CURVE_WITH_KNOTS ( 'NONE', 3,
 ( #891, #105, #603, #493, #196, #407, #1093, #1112, #1212, #1090, #1003, #500 ),
 .UNSPECIFIED., .F., .F.,
 ( 4, 2, 2, 2, 2, 4 ),
 ( 0.000000000000000000, 0.0009259524368650038761, 0.001851904873730007752, 0.002777857310595011411, 0.003240833529027513458, 0.003703809747460015504 ),
 .UNSPECIFIED. ) ;
#891 = CARTESIAN_POINT ( 'NONE',  ( -6.828427124746190735, 0.000000000000000000, -25.00000000000000355 ) ) ;
#892 = CARTESIAN_POINT ( 'NONE',  ( -4.000000000000000000, 10.00000000000000000, -24.00000000000000711 ) ) ;
#893 = DIRECTION ( 'NONE',  ( -0.000000000000000000, 1.000000000000000000, -0.000000000000000000 ) ) ;
#894 = ORIENTED_EDGE ( 'NONE', *, *, #992, .F. ) ;
#895 = CIRCLE ( 'NONE', #1293, 1.500000000000001332 ) ;
#896 = VERTEX_POINT ( 'NONE', #972 ) ;
#897 = ADVANCED_FACE ( 'NONE', ( #684 ), #75, .F. ) ;
#898 = AXIS2_PLACEMENT_3D ( 'NONE', #258, #658, #631 ) ;
#899 = FACE_OUTER_BOUND ( 'NONE', #416, .T. ) ;
#900 = ADVANCED_FACE ( 'NONE', ( #882 ), #586, .F. ) ;
#901 = CARTESIAN_POINT ( 'NONE',  ( 7.500000000000000888, 0.000000000000000000, 29.99999999999999289 ) ) ;
#902 = CARTESIAN_POINT ( 'NONE',  ( -4.000000000000000000, 10.00000000000000000, 21.00000000000000711 ) ) ;
#903 = CARTESIAN_POINT ( 'NONE',  ( 4.000000000000007105, -13.00000000000001776, -22.50000000000000711 ) ) ;
#904 = VERTEX_POINT ( 'NONE', #718 ) ;
#905 = EDGE_CURVE ( 'NONE', #986, #1086, #890, .T. ) ;
#906 = CARTESIAN_POINT ( 'NONE',  ( -6.828427124746190735, 0.000000000000000000, -25.00000000000000355 ) ) ;
#907 = DIRECTION ( 'NONE',  ( -0.000000000000000000, -1.000000000000000000, -0.000000000000000000 ) ) ;
#908 = EDGE_LOOP ( 'NONE', ( #576, #927, #569, #1177, #227 ) ) ;
#909 = EDGE_LOOP ( 'NONE', ( #1155, #638, #598, #1239, #427 ) ) ;
#910 = AXIS2_PLACEMENT_3D ( 'NONE', #371, #774, #1169 ) ;
#911 = CARTESIAN_POINT ( 'NONE',  ( 4.000000000000007105, 30.00000000000000000, -24.00000000000000711 ) ) ;
#912 = DIRECTION ( 'NONE',  ( 0.000000000000000000, -1.000000000000000000, 0.000000000000000000 ) ) ;
#913 = VECTOR ( 'NONE', #214, 1000.000000000000000 ) ;
#914 = DIRECTION ( 'NONE',  ( 0.000000000000000000, 0.000000000000000000, 1.000000000000000000 ) ) ;
#915 = VERTEX_POINT ( 'NONE', #14 ) ;
#916 = EDGE_LOOP ( 'NONE', ( #941, #583 ) ) ;
#917 = CARTESIAN_POINT ( 'NONE',  ( 4.000000000000007105, 10.00000000000000000, -27.00000000000000711 ) ) ;
#918 = CARTESIAN_POINT ( 'NONE',  ( 1.797053721677298155, 0.1072206740642300538, -26.05986280904954810 ) ) ;
#919 = LINE ( 'NONE', #726, #871 ) ;
#920 = ORIENTED_EDGE ( 'NONE', *, *, #803, .T. ) ;
#921 = EDGE_CURVE ( 'NONE', #260, #981, #295, .T. ) ;
#922 = CIRCLE ( 'NONE', #189, 1.999999999999998224 ) ;
#923 = CARTESIAN_POINT ( 'NONE',  ( -4.766163665853961895, 0.3766764907236003213, 26.90457576673406592 ) ) ;
#924 = FACE_OUTER_BOUND ( 'NONE', #909, .T. ) ;
#925 = DIRECTION ( 'NONE',  ( 1.000000000000000000, 0.000000000000000000, 0.000000000000000000 ) ) ;
#926 = ORIENTED_EDGE ( 'NONE', *, *, #1124, .T. ) ;
#927 = ORIENTED_EDGE ( 'NONE', *, *, #531, .F. ) ;
#928 = DIRECTION ( 'NONE',  ( -0.000000000000000000, -1.000000000000000000, -0.000000000000000000 ) ) ;
#929 = DIRECTION ( 'NONE',  ( 1.000000000000000000, 0.000000000000000000, 0.000000000000000000 ) ) ;
#930 = CARTESIAN_POINT ( 'NONE',  ( -2.941348933152296397, 0.3393029696124698624, -26.81119637632018993 ) ) ;
#931 = ORIENTED_EDGE ( 'NONE', *, *, #884, .F. ) ;
#932 = ORIENTED_EDGE ( 'NONE', *, *, #1127, .T. ) ;
#933 = FACE_OUTER_BOUND ( 'NONE', #313, .T. ) ;
#934 = EDGE_CURVE ( 'NONE', #188, #34, #810, .T. ) ;
#935 = CARTESIAN_POINT ( 'NONE',  ( -6.296146827527550727, 0.08698943141861656403, 25.93675918058493579 ) ) ;
#936 = CARTESIAN_POINT ( 'NONE',  ( 0.000000000000000000, 0.000000000000000000, 24.99999999999998934 ) ) ;
#937 = VECTOR ( 'NONE', #835, 1000.000000000000000 ) ;
#938 = CIRCLE ( 'NONE', #898, 2.999999999999999112 ) ;
#939 = DIRECTION ( 'NONE',  ( 1.000000000000000000, 0.000000000000000000, 0.000000000000000000 ) ) ;
#940 = ORIENTED_EDGE ( 'NONE', *, *, #991, .T. ) ;
#941 = ORIENTED_EDGE ( 'NONE', *, *, #1124, .F. ) ;
#942 = CIRCLE ( 'NONE', #418, 2.999999999999999112 ) ;
#943 = ADVANCED_FACE ( 'NONE', ( #988 ), #396, .F. ) ;
#944 = CARTESIAN_POINT ( 'NONE',  ( -7.499999999999999112, 0.000000000000000000, -25.00000000000000000 ) ) ;
#945 = LINE ( 'NONE', #1123, #818 ) ;
#946 = DIRECTION ( 'NONE',  ( -1.000000000000000000, 0.000000000000000000, 0.000000000000000000 ) ) ;
#947 = ORIENTED_EDGE ( 'NONE', *, *, #1135, .F. ) ;
#948 = ORIENTED_EDGE ( 'NONE', *, *, #129, .T. ) ;
#949 = PLANE ( 'NONE',  #779 ) ;
#950 = DIRECTION ( 'NONE',  ( 0.000000000000000000, 0.000000000000000000, 1.000000000000000000 ) ) ;
#951 = B_SPLINE_CURVE_WITH_KNOTS ( 'NONE', 3,
 ( #27, #40, #1232, #532, #246, #930, #1125, #554, #339, #831, #232, #252, #1053, #344, #739, #127 ),
 .UNSPECIFIED., .F., .F.,
 ( 4, 2, 2, 2, 2, 2, 2, 4 ),
 ( 0.003703809747460015504, 0.004165821691806586950, 0.004627833636153159264, 0.005089845580499730709, 0.005551857524846302155, 0.006013869469192874469, 0.006475881413539445915, 0.007399905302232589674 ),
 .UNSPECIFIED. ) ;
#952 = AXIS2_PLACEMENT_3D ( 'NONE', #1262, #770, #1269 ) ;
#953 = LINE ( 'NONE', #449, #308 ) ;
#954 = ORIENTED_EDGE ( 'NONE', *, *, #571, .F. ) ;
#955 = EDGE_CURVE ( 'NONE', #1134, #1011, #1121, .T. ) ;
#956 = ORIENTED_EDGE ( 'NONE', *, *, #602, .F. ) ;
#957 = CARTESIAN_POINT ( 'NONE',  ( 5.480882475491925199, 0.2685047408181733819, 26.62705564920889145 ) ) ;
#958 = CARTESIAN_POINT ( 'NONE',  ( 6.828427124746197840, 0.000000000000000000, -25.00000000000000355 ) ) ;
#959 = DIRECTION ( 'NONE',  ( 0.000000000000000000, -0.000000000000000000, 1.000000000000000000 ) ) ;
#960 = CARTESIAN_POINT ( 'NONE',  ( -7.499999999999999112, 30.00000000000000000, 29.99999999999999289 ) ) ;
#961 = AXIS2_PLACEMENT_3D ( 'NONE', #272, #1077, #887 ) ;
#962 = EDGE_CURVE ( 'NONE', #1142, #84, #564, .T. ) ;
#963 = VERTEX_POINT ( 'NONE', #1 ) ;
#964 = DIRECTION ( 'NONE',  ( 0.000000000000000000, 0.000000000000000000, -1.000000000000000000 ) ) ;
#965 = AXIS2_PLACEMENT_3D ( 'NONE', #38, #1235, #441 ) ;
#966 = DIRECTION ( 'NONE',  ( 0.000000000000000000, 0.000000000000000000, -1.000000000000000000 ) ) ;
#967 = DIRECTION ( 'NONE',  ( 1.000000000000000000, -0.000000000000000000, -0.000000000000000000 ) ) ;
#968 = ORIENTED_EDGE ( 'NONE', *, *, #497, .F. ) ;
#969 = VERTEX_POINT ( 'NONE', #402 ) ;
#970 = DIRECTION ( 'NONE',  ( 1.000000000000000000, -0.000000000000000000, -0.000000000000000000 ) ) ;
#971 = DIRECTION ( 'NONE',  ( 0.000000000000000000, 0.000000000000000000, -1.000000000000000000 ) ) ;
#972 = CARTESIAN_POINT ( 'NONE',  ( -6.828427124746196064, 0.000000000000000000, 24.99999999999998934 ) ) ;
#973 = LINE ( 'NONE', #89, #56 ) ;
#974 = ORIENTED_EDGE ( 'NONE', *, *, #1263, .F. ) ;
#975 = AXIS2_PLACEMENT_3D ( 'NONE', #605, #507, #814 ) ;
#976 = LINE ( 'NONE', #78, #148 ) ;
#977 = ADVANCED_FACE ( 'NONE', ( #709 ), #419, .F. ) ;
#978 = DIRECTION ( 'NONE',  ( 0.000000000000000000, -0.000000000000000000, -1.000000000000000000 ) ) ;
#979 = DIRECTION ( 'NONE',  ( -0.000000000000000000, -1.000000000000000000, -0.000000000000000000 ) ) ;
#980 = DIRECTION ( 'NONE',  ( -0.000000000000000000, 1.000000000000000000, -0.000000000000000000 ) ) ;
#981 = VERTEX_POINT ( 'NONE', #505 ) ;
#982 = CARTESIAN_POINT ( 'NONE',  ( 4.765803845869984734, 0.3767271612682638326, 26.90470468897686374 ) ) ;
#983 = CARTESIAN_POINT ( 'NONE',  ( 7.500000000000000888, 5.000000000000004441, 24.99999999999998934 ) ) ;
#984 = DIRECTION ( 'NONE',  ( -0.000000000000000000, 1.000000000000000000, -0.000000000000000000 ) ) ;
#985 = ORIENTED_EDGE ( 'NONE', *, *, #528, .T. ) ;
#986 = VERTEX_POINT ( 'NONE', #906 ) ;
#987 =( NAMED_UNIT ( * ) SI_UNIT ( $, .STERADIAN. ) SOLID_ANGLE_UNIT ( ) );
#988 = FACE_OUTER_BOUND ( 'NONE', #233, .T. ) ;
#989 = CARTESIAN_POINT ( 'NONE',  ( 7.500000000000000888, 30.00000000000000000, -30.00000000000000711 ) ) ;
#990 = VERTEX_POINT ( 'NONE', #806 ) ;
#991 = EDGE_CURVE ( 'NONE', #685, #833, #1218, .T. ) ;
#992 = EDGE_CURVE ( 'NONE', #815, #963, #516, .T. ) ;
#993 = CARTESIAN_POINT ( 'NONE',  ( 2.392799018956917489, 0.2414491705878070160, 26.53773625428939553 ) ) ;
#994 = CARTESIAN_POINT ( 'NONE',  ( -3.691721601620401305, 0.4121779772558737398, 26.98810277258131762 ) ) ;
#995 = AXIS2_PLACEMENT_3D ( 'NONE', #1224, #329, #830 ) ;
#996 = DIRECTION ( 'NONE',  ( -0.000000000000000000, 1.000000000000000000, -0.000000000000000000 ) ) ;
#997 = ORIENTED_EDGE ( 'NONE', *, *, #482, .F. ) ;
#998 = AXIS2_PLACEMENT_3D ( 'NONE', #230, #842, #26 ) ;
#999 = EDGE_CURVE ( 'NONE', #768, #365, #1100, .T. ) ;
#1000 = AXIS2_PLACEMENT_3D ( 'NONE', #820, #1213, #15 ) ;
#1001 = AXIS2_PLACEMENT_3D ( 'NONE', #862, #363, #581 ) ;
#1002 = DIRECTION ( 'NONE',  ( -1.000000000000000000, 0.000000000000000000, 0.000000000000000000 ) ) ;
#1003 = CARTESIAN_POINT ( 'NONE',  ( -4.154718643012554224, 0.4174243050441661662, -27.00000000000001066 ) ) ;
#1004 = CARTESIAN_POINT ( 'NONE',  ( -1.171572875253803936, 0.000000000000000000, 24.99999999999998934 ) ) ;
#1005 = AXIS2_PLACEMENT_3D ( 'NONE', #1043, #928, #1143 ) ;
#1006 = LINE ( 'NONE', #120, #1203 ) ;
#1007 = VERTEX_POINT ( 'NONE', #1223 ) ;
#1008 = CARTESIAN_POINT ( 'NONE',  ( 2.797241945418164732, 0.3166608535749036446, 26.75259962440530970 ) ) ;
#1009 = CARTESIAN_POINT ( 'NONE',  ( -1.171572875253803936, 0.000000000000000000, 24.99999999999998934 ) ) ;
#1010 = CYLINDRICAL_SURFACE ( 'NONE', #702, 1.500000000000001332 ) ;
#1011 = VERTEX_POINT ( 'NONE', #244 ) ;
#1012 = ORIENTED_EDGE ( 'NONE', *, *, #7, .T. ) ;
#1013 = VECTOR ( 'NONE', #107, 1000.000000000000000 ) ;
#1014 = EDGE_CURVE ( 'NONE', #1034, #986, #737, .T. ) ;
#1015 = DIRECTION ( 'NONE',  ( 0.000000000000000000, 0.000000000000000000, 1.000000000000000000 ) ) ;
#1016 = CARTESIAN_POINT ( 'NONE',  ( 4.000000000000007105, 10.00000000000000178, 24.00000000000000711 ) ) ;
#1017 = CARTESIAN_POINT ( 'NONE',  ( -62.50000000000000000, 30.00000000000000000, 17.00000000000000000 ) ) ;
#1018 = LINE ( 'NONE', #1220, #1013 ) ;
#1019 = ORIENTED_EDGE ( 'NONE', *, *, #1222, .F. ) ;
#1020 = CLOSED_SHELL ( 'NONE', ( #900, #200, #1095, #878, #1208, #828, #401, #1082, #813, #66, #633, #977, #699, #35, #457, #1074, #472, #305, #805, #852, #5, #1058, #643, #160, #843, #1258, #431, #897, #346, #943, #184, #296, #97, #323, #511, #1289 ) ) ;
#1021 = AXIS2_PLACEMENT_3D ( 'NONE', #47, #925, #330 ) ;
#1022 = DIRECTION ( 'NONE',  ( 0.000000000000000000, 0.000000000000000000, -1.000000000000000000 ) ) ;
#1023 = DIRECTION ( 'NONE',  ( 1.000000000000000000, 0.000000000000000000, 0.000000000000000000 ) ) ;
#1024 = CARTESIAN_POINT ( 'NONE',  ( -4.000000000000000000, -13.00000000000001776, 22.50000000000000711 ) ) ;
#1025 = EDGE_LOOP ( 'NONE', ( #504, #669, #242, #438 ) ) ;
#1026 =( GEOMETRIC_REPRESENTATION_CONTEXT ( 3 ) GLOBAL_UNCERTAINTY_ASSIGNED_CONTEXT ( ( #795 ) ) GLOBAL_UNIT_ASSIGNED_CONTEXT ( ( #6, #302, #211 ) ) REPRESENTATION_CONTEXT ( 'NONE', 'WORKASPACE' ) );
#1027 = VERTEX_POINT ( 'NONE', #144 ) ;
#1028 = EDGE_CURVE ( 'NONE', #248, #133, #922, .T. ) ;
#1029 = DIRECTION ( 'NONE',  ( -0.000000000000000000, 1.000000000000000000, -0.000000000000000000 ) ) ;
#1030 = CARTESIAN_POINT ( 'NONE',  ( 3.845281356987452437, 0.4174243050441663327, -27.00000000000001421 ) ) ;
#1031 = LINE ( 'NONE', #1250, #812 ) ;
#1032 = ORIENTED_EDGE ( 'NONE', *, *, #528, .F. ) ;
#1033 = EDGE_CURVE ( 'NONE', #128, #896, #706, .T. ) ;
#1034 = VERTEX_POINT ( 'NONE', #944 ) ;
#1035 = PRODUCT_DEFINITION ( 'General', '', #599, #96 ) ;
#1036 = CARTESIAN_POINT ( 'NONE',  ( -5.058651066847708044, 0.3393029696124738592, 26.81119637632020414 ) ) ;
#1037 = DIRECTION ( 'NONE',  ( 0.000000000000000000, -1.000000000000000000, 0.000000000000000000 ) ) ;
#1038 = DIRECTION ( 'NONE',  ( -0.000000000000000000, -1.000000000000000000, -0.000000000000000000 ) ) ;
#1039 = CIRCLE ( 'NONE', #474, 2.999999999999999112 ) ;
#1040 = ORIENTED_EDGE ( 'NONE', *, *, #571, .T. ) ;
#1041 = ORIENTED_EDGE ( 'NONE', *, *, #222, .T. ) ;
#1042 = EDGE_CURVE ( 'NONE', #405, #345, #521, .T. ) ;
#1043 = CARTESIAN_POINT ( 'NONE',  ( 4.000000000000007105, 10.00000000000000000, 24.00000000000000711 ) ) ;
#1044 = CARTESIAN_POINT ( 'NONE',  ( 3.386876547333133924, 0.3919371188896530467, -26.94072667587545311 ) ) ;
#1045 = AXIS2_PLACEMENT_3D ( 'NONE', #892, #298, #1194 ) ;
#1046 = VECTOR ( 'NONE', #192, 1000.000000000000000 ) ;
#1047 = DIRECTION ( 'NONE',  ( -0.000000000000000000, 1.000000000000000000, -0.000000000000000000 ) ) ;
#1048 = VERTEX_POINT ( 'NONE', #751 ) ;
#1049 = ORIENTED_EDGE ( 'NONE', *, *, #249, .T. ) ;
#1050 = AXIS2_PLACEMENT_3D ( 'NONE', #1268, #373, #183 ) ;
#1051 = CARTESIAN_POINT ( 'NONE',  ( 4.000000000000007105, 10.00000000000000000, -24.00000000000000711 ) ) ;
#1052 = DIRECTION ( 'NONE',  ( 0.000000000000000000, 0.000000000000000000, -1.000000000000000000 ) ) ;
#1053 = CARTESIAN_POINT ( 'NONE',  ( -1.703853172472457267, 0.08698943141861512074, -25.93675918058494290 ) ) ;
#1054 = ORIENTED_EDGE ( 'NONE', *, *, #46, .F. ) ;
#1055 = EDGE_LOOP ( 'NONE', ( #108, #234 ) ) ;
#1056 = CARTESIAN_POINT ( 'NONE',  ( 4.000000000000007105, 0.000000000000000000, 21.00000000000000711 ) ) ;
#1057 = DIRECTION ( 'NONE',  ( 1.000000000000000000, -0.000000000000000000, 0.000000000000000000 ) ) ;
#1058 = ADVANCED_FACE ( 'NONE', ( #641, #1131, #223 ), #949, .F. ) ;
#1059 = FACE_OUTER_BOUND ( 'NONE', #477, .T. ) ;
#1060 = DIRECTION ( 'NONE',  ( 0.000000000000000000, 0.000000000000000000, 1.000000000000000000 ) ) ;
#1061 = VERTEX_POINT ( 'NONE', #150 ) ;
#1062 = DIRECTION ( 'NONE',  ( 0.000000000000000000, 0.000000000000000000, -1.000000000000000000 ) ) ;
#1063 = FACE_OUTER_BOUND ( 'NONE', #721, .T. ) ;
#1064 = VECTOR ( 'NONE', #1070, 1000.000000000000000 ) ;
#1065 = DIRECTION ( 'NONE',  ( 1.000000000000000000, -0.000000000000000000, -0.000000000000000000 ) ) ;
#1066 = LINE ( 'NONE', #169, #393 ) ;
#1067 = AXIS2_PLACEMENT_3D ( 'NONE', #20, #1199, #819 ) ;
#1068 = EDGE_LOOP ( 'NONE', ( #940, #1234, #1032, #398 ) ) ;
#1069 = CARTESIAN_POINT ( 'NONE',  ( 6.577450766720709829, 0.02585699698110782360, 25.56612727529158846 ) ) ;
#1070 = DIRECTION ( 'NONE',  ( -1.000000000000000000, 0.000000000000000000, 0.000000000000000000 ) ) ;
#1071 = PLANE ( 'NONE',  #208 ) ;
#1072 = ORIENTED_EDGE ( 'NONE', *, *, #991, .F. ) ;
#1073 = EDGE_LOOP ( 'NONE', ( #452, #63, #4, #458 ) ) ;
#1074 = ADVANCED_FACE ( 'NONE', ( #51 ), #31, .F. ) ;
#1075 = DIRECTION ( 'NONE',  ( 0.000000000000000000, -1.000000000000000000, 0.000000000000000000 ) ) ;
#1076 = PLANE ( 'NONE',  #788 ) ;
#1077 = DIRECTION ( 'NONE',  ( 1.000000000000000000, 0.000000000000000000, 0.000000000000000000 ) ) ;
#1078 = CIRCLE ( 'NONE', #155, 1.500000000000001332 ) ;
#1079 = DIRECTION ( 'NONE',  ( -0.000000000000000000, -0.000000000000000000, 1.000000000000000000 ) ) ;
#1080 = ORIENTED_EDGE ( 'NONE', *, *, #1033, .F. ) ;
#1081 = AXIS2_PLACEMENT_3D ( 'NONE', #597, #996, #101 ) ;
#1082 = ADVANCED_FACE ( 'NONE', ( #544 ), #325, .F. ) ;
#1083 = DIRECTION ( 'NONE',  ( 0.000000000000000000, 0.000000000000000000, 1.000000000000000000 ) ) ;
#1084 = DIRECTION ( 'NONE',  ( 0.000000000000000000, -1.000000000000000000, 0.000000000000000000 ) ) ;
#1085 = DIRECTION ( 'NONE',  ( 0.000000000000000000, 0.000000000000000000, -1.000000000000000000 ) ) ;
#1086 = VERTEX_POINT ( 'NONE', #432 ) ;
#1087 = ORIENTED_EDGE ( 'NONE', *, *, #649, .T. ) ;
#1088 = SURFACE_STYLE_USAGE ( .BOTH. , #309 ) ;
#1089 = AXIS2_PLACEMENT_3D ( 'NONE', #682, #361, #565 ) ;
#1090 = CARTESIAN_POINT ( 'NONE',  ( -4.308278398379598251, 0.4121779772558674670, -26.98810277258132828 ) ) ;
#1091 = CARTESIAN_POINT ( 'NONE',  ( 5.202758054581844149, 0.3166608535748983155, -26.75259962440531680 ) ) ;
#1092 = ORIENTED_EDGE ( 'NONE', *, *, #615, .T. ) ;
#1093 = CARTESIAN_POINT ( 'NONE',  ( -5.206359216214626606, 0.3204196856953869799, -26.76401101363714474 ) ) ;
#1094 = CARTESIAN_POINT ( 'NONE',  ( 5.476682931919107489, 0.2677493673250165296, -26.61588209763295509 ) ) ;
#1095 = ADVANCED_FACE ( 'NONE', ( #1241 ), #350, .F. ) ;
#1096 = CARTESIAN_POINT ( 'NONE',  ( 4.000000000000007105, 10.00000000000000178, -24.00000000000000711 ) ) ;
#1097 = ORIENTED_EDGE ( 'NONE', *, *, #440, .T. ) ;
#1098 = ORIENTED_EDGE ( 'NONE', *, *, #379, .T. ) ;
#1099 = DIRECTION ( 'NONE',  ( 1.000000000000000000, 0.000000000000000000, 0.000000000000000000 ) ) ;
#1100 = LINE ( 'NONE', #690, #1046 ) ;
#1101 = CARTESIAN_POINT ( 'NONE',  ( -3.386876547333125487, 0.3919371188896587643, 26.94072667587546377 ) ) ;
#1102 = ORIENTED_EDGE ( 'NONE', *, *, #395, .T. ) ;
#1103 = AXIS2_PLACEMENT_3D ( 'NONE', #659, #980, #1060 ) ;
#1104 = VECTOR ( 'NONE', #1291, 1000.000000000000000 ) ;
#1105 = CARTESIAN_POINT ( 'NONE',  ( 1.804957146962065995, 0.1104124301691736393, 26.05065403410688063 ) ) ;
#1106 = CARTESIAN_POINT ( 'NONE',  ( 4.000000000000007105, 10.00000000000000000, -21.00000000000000711 ) ) ;
#1107 = CIRCLE ( 'NONE', #1192, 1.500000000000001332 ) ;
#1108 = DIRECTION ( 'NONE',  ( -0.000000000000000000, 1.000000000000000000, -0.000000000000000000 ) ) ;
#1109 = VERTEX_POINT ( 'NONE', #650 ) ;
#1110 = EDGE_CURVE ( 'NONE', #815, #495, #42, .T. ) ;
#1111 = FILL_AREA_STYLE_COLOUR ( '', #628 ) ;
#1112 = CARTESIAN_POINT ( 'NONE',  ( -4.765803845869975852, 0.3767271612682576709, -26.90470468897686018 ) ) ;
#1113 = CARTESIAN_POINT ( 'NONE',  ( 4.154396399294359554, 0.4174243050441661107, -27.00000000000000355 ) ) ;
#1114 = DIRECTION ( 'NONE',  ( 1.000000000000000000, -0.000000000000000000, -0.000000000000000000 ) ) ;
#1115 = ORIENTED_EDGE ( 'NONE', *, *, #934, .T. ) ;
#1116 = AXIS2_PLACEMENT_3D ( 'NONE', #558, #59, #971 ) ;
#1117 = CARTESIAN_POINT ( 'NONE',  ( -6.573375454616225966, 0.02670840623465818922, 25.57195555858241676 ) ) ;
#1118 = CARTESIAN_POINT ( 'NONE',  ( 7.500000000000000888, 13.99999999999999467, 15.99999999999999645 ) ) ;
#1119 = ORIENTED_EDGE ( 'NONE', *, *, #299, .T. ) ;
#1120 = AXIS2_PLACEMENT_3D ( 'NONE', #567, #257, #873 ) ;
#1121 = CIRCLE ( 'NONE', #710, 1.500000000000001332 ) ;
#1122 = CARTESIAN_POINT ( 'NONE',  ( -5.607200981043088284, 0.2414491705878069050, 26.53773625428939553 ) ) ;
#1123 = CARTESIAN_POINT ( 'NONE',  ( 7.500000000000000888, 5.000000000000004441, 29.99999999999999289 ) ) ;
#1124 = EDGE_CURVE ( 'NONE', #1251, #660, #757, .T. ) ;
#1125 = CARTESIAN_POINT ( 'NONE',  ( -2.797241945418163400, 0.3166608535748982600, -26.75259962440531680 ) ) ;
#1126 = ORIENTED_EDGE ( 'NONE', *, *, #241, .T. ) ;
#1127 = EDGE_CURVE ( 'NONE', #327, #1134, #629, .T. ) ;
#1128 = ORIENTED_EDGE ( 'NONE', *, *, #674, .F. ) ;
#1129 = APPLICATION_CONTEXT ( 'automotive_design' ) ;
#1130 = EDGE_CURVE ( 'NONE', #240, #986, #942, .T. ) ;
#1131 = FACE_BOUND ( 'NONE', #24, .T. ) ;
#1132 = DIRECTION ( 'NONE',  ( 1.000000000000000000, 0.000000000000000000, -0.000000000000000000 ) ) ;
#1133 = DIRECTION ( 'NONE',  ( 0.000000000000000000, -1.000000000000000000, 0.000000000000000000 ) ) ;
#1134 = VERTEX_POINT ( 'NONE', #269 ) ;
#1135 = EDGE_CURVE ( 'NONE', #525, #55, #840, .T. ) ;
#1136 = ORIENTED_EDGE ( 'NONE', *, *, #1229, .F. ) ;
#1137 = DIRECTION ( 'NONE',  ( -0.000000000000000000, 1.000000000000000000, -0.000000000000000000 ) ) ;
#1138 = CARTESIAN_POINT ( 'NONE',  ( -2.499999999999999556, 13.99999999999999822, -18.00000000000000355 ) ) ;
#1139 = CARTESIAN_POINT ( 'NONE',  ( 4.000000000000007105, -13.00000000000001776, 24.00000000000000711 ) ) ;
#1140 = CIRCLE ( 'NONE', #975, 1.500000000000001332 ) ;
#1141 = ORIENTED_EDGE ( 'NONE', *, *, #884, .T. ) ;
#1142 = VERTEX_POINT ( 'NONE', #1277 ) ;
#1143 = DIRECTION ( 'NONE',  ( 0.000000000000000000, 0.000000000000000000, -1.000000000000000000 ) ) ;
#1144 = CARTESIAN_POINT ( 'NONE',  ( -4.000000000000000000, 10.00000000000000000, -27.00000000000000711 ) ) ;
#1145 = EDGE_CURVE ( 'NONE', #1189, #508, #1107, .T. ) ;
#1146 = CARTESIAN_POINT ( 'NONE',  ( 7.500000000000000888, 30.00000000000000000, 30.00000000000000711 ) ) ;
#1147 = ORIENTED_EDGE ( 'NONE', *, *, #1191, .T. ) ;
#1148 = ORIENTED_EDGE ( 'NONE', *, *, #934, .F. ) ;
#1149 = VECTOR ( 'NONE', #970, 1000.000000000000000 ) ;
#1150 = EDGE_CURVE ( 'NONE', #36, #660, #1178, .T. ) ;
#1151 = DIRECTION ( 'NONE',  ( 0.000000000000000000, 0.000000000000000000, 1.000000000000000000 ) ) ;
#1152 = CARTESIAN_POINT ( 'NONE',  ( -4.000000000000000000, 10.00000000000000000, 27.00000000000000711 ) ) ;
#1153 = DIRECTION ( 'NONE',  ( 0.000000000000000000, -1.000000000000000000, 0.000000000000000000 ) ) ;
#1154 = ORIENTED_EDGE ( 'NONE', *, *, #142, .F. ) ;
#1155 = ORIENTED_EDGE ( 'NONE', *, *, #90, .F. ) ;
#1156 = DIRECTION ( 'NONE',  ( 1.000000000000000000, 0.000000000000000000, 0.000000000000000000 ) ) ;
#1157 = DIRECTION ( 'NONE',  ( 0.000000000000000000, 0.000000000000000000, 1.000000000000000000 ) ) ;
#1158 = CARTESIAN_POINT ( 'NONE',  ( -2.499999999999999556, 13.99999999999999467, 15.99999999999999645 ) ) ;
#1159 = ORIENTED_EDGE ( 'NONE', *, *, #803, .F. ) ;
#1160 = ORIENTED_EDGE ( 'NONE', *, *, #1283, .T. ) ;
#1161 = LINE ( 'NONE', #465, #1214 ) ;
#1162 = DIRECTION ( 'NONE',  ( 0.000000000000000000, 0.000000000000000000, -1.000000000000000000 ) ) ;
#1163 = AXIS2_PLACEMENT_3D ( 'NONE', #52, #473, #880 ) ;
#1164 = FACE_OUTER_BOUND ( 'NONE', #556, .T. ) ;
#1165 = DIRECTION ( 'NONE',  ( -0.000000000000000000, 1.000000000000000000, -0.000000000000000000 ) ) ;
#1166 = CIRCLE ( 'NONE', #163, 2.999999999999999112 ) ;
#1167 = EDGE_CURVE ( 'NONE', #606, #915, #381, .T. ) ;
#1168 = AXIS2_PLACEMENT_3D ( 'NONE', #444, #844, #746 ) ;
#1169 = DIRECTION ( 'NONE',  ( 0.000000000000000000, 0.000000000000000000, -1.000000000000000000 ) ) ;
#1170 = EDGE_LOOP ( 'NONE', ( #520, #134 ) ) ;
#1171 = AXIS2_PLACEMENT_3D ( 'NONE', #623, #1137, #847 ) ;
#1172 = CARTESIAN_POINT ( 'NONE',  ( 6.828427124746202281, 0.000000000000000000, 24.99999999999998934 ) ) ;
#1173 = CARTESIAN_POINT ( 'NONE',  ( -2.499999999999999556, 13.99999999999999467, 13.99999999999999645 ) ) ;
#1174 = CARTESIAN_POINT ( 'NONE',  ( -4.000000000000000000, 10.00000000000000178, 22.50000000000000711 ) ) ;
#1175 = LINE ( 'NONE', #279, #190 ) ;
#1176 = EDGE_CURVE ( 'NONE', #859, #654, #976, .T. ) ;
#1177 = ORIENTED_EDGE ( 'NONE', *, *, #865, .T. ) ;
#1178 = LINE ( 'NONE', #177, #486 ) ;
#1179 = DIRECTION ( 'NONE',  ( 0.000000000000000000, 0.000000000000000000, -1.000000000000000000 ) ) ;
#1180 = CARTESIAN_POINT ( 'NONE',  ( -2.499999999999999556, 13.99999999999999822, -16.00000000000000355 ) ) ;
#1181 = CIRCLE ( 'NONE', #451, 2.999999999999999112 ) ;
#1182 = FACE_OUTER_BOUND ( 'NONE', #1068, .T. ) ;
#1183 = ORIENTED_EDGE ( 'NONE', *, *, #299, .F. ) ;
#1184 = EDGE_CURVE ( 'NONE', #768, #240, #126, .T. ) ;
#1185 = FACE_BOUND ( 'NONE', #664, .T. ) ;
#1186 = CARTESIAN_POINT ( 'NONE',  ( -7.499999999999999112, 70.00000000000000000, 29.99999999999999289 ) ) ;
#1187 = PLANE ( 'NONE',  #542 ) ;
#1188 = CIRCLE ( 'NONE', #1120, 1.500000000000001332 ) ;
#1189 = VERTEX_POINT ( 'NONE', #86 ) ;
#1190 = CIRCLE ( 'NONE', #439, 2.999999999999999112 ) ;
#1191 = EDGE_CURVE ( 'NONE', #34, #876, #715, .T. ) ;
#1192 = AXIS2_PLACEMENT_3D ( 'NONE', #382, #783, #1151 ) ;
#1193 = CARTESIAN_POINT ( 'NONE',  ( 4.000000000000007105, 10.00000000000000000, 24.00000000000000711 ) ) ;
#1194 = DIRECTION ( 'NONE',  ( 0.000000000000000000, -0.000000000000000000, -1.000000000000000000 ) ) ;
#1195 = SURFACE_STYLE_USAGE ( .BOTH. , #1215 ) ;
#1196 = ORIENTED_EDGE ( 'NONE', *, *, #209, .F. ) ;
#1197 = ORIENTED_EDGE ( 'NONE', *, *, #824, .F. ) ;
#1198 = DIRECTION ( 'NONE',  ( 0.000000000000000000, 0.000000000000000000, -1.000000000000000000 ) ) ;
#1199 = DIRECTION ( 'NONE',  ( 0.000000000000000000, -1.000000000000000000, 0.000000000000000000 ) ) ;
#1200 = CARTESIAN_POINT ( 'NONE',  ( 5.058651066847712485, 0.3393029696124698624, -26.81119637632018993 ) ) ;
#1201 = CARTESIAN_POINT ( 'NONE',  ( -2.499999999999999556, 13.99999999999999822, -18.00000000000000355 ) ) ;
#1202 = ORIENTED_EDGE ( 'NONE', *, *, #1261, .F. ) ;
#1203 = VECTOR ( 'NONE', #519, 1000.000000000000000 ) ;
#1204 = CARTESIAN_POINT ( 'NONE',  ( 3.688683092792684803, 0.4120474732992189248, 26.98780472190368940 ) ) ;
#1205 = FACE_BOUND ( 'NONE', #49, .T. ) ;
#1206 = DIRECTION ( 'NONE',  ( 0.000000000000000000, -1.000000000000000000, 0.000000000000000000 ) ) ;
#1207 = ORIENTED_EDGE ( 'NONE', *, *, #705, .T. ) ;
#1208 = ADVANCED_FACE ( 'NONE', ( #860 ), #872, .F. ) ;
#1209 = VECTOR ( 'NONE', #691, 1000.000000000000000 ) ;
#1210 = CIRCLE ( 'NONE', #143, 2.999999999999999112 ) ;
#1211 = DIRECTION ( 'NONE',  ( 0.000000000000000000, 0.000000000000000000, 1.000000000000000000 ) ) ;
#1212 = CARTESIAN_POINT ( 'NONE',  ( -4.613123452666870961, 0.3919371188896527691, -26.94072667587546022 ) ) ;
#1213 = DIRECTION ( 'NONE',  ( 0.000000000000000000, 1.000000000000000000, 0.000000000000000000 ) ) ;
#1214 = VECTOR ( 'NONE', #73, 1000.000000000000000 ) ;
#1215 = SURFACE_SIDE_STYLE ('',( #23 ) ) ;
#1216 = ORIENTED_EDGE ( 'NONE', *, *, #379, .F. ) ;
#1217 = B_SPLINE_CURVE_WITH_KNOTS ( 'NONE', 3,
 ( #304, #1113, #611, #119, #701, #1200, #1091, #1094, #604, #397, #320, #513, #596, #403, #506, #197 ),
 .UNSPECIFIED., .F., .F.,
 ( 4, 2, 2, 2, 2, 2, 2, 4 ),
 ( 0.003703809747460015504, 0.004165821691806586950, 0.004627833636153159264, 0.005089845580499730709, 0.005551857524846302155, 0.006013869469192874469, 0.006475881413539445915, 0.007399905302232589674 ),
 .UNSPECIFIED. ) ;
#1218 = LINE ( 'NONE', #118, #501 ) ;
#1219 = CARTESIAN_POINT ( 'NONE',  ( 4.000000000000007105, -13.00000000000001776, 25.50000000000000711 ) ) ;
#1220 = CARTESIAN_POINT ( 'NONE',  ( -4.000000000000000000, -13.00000000000001776, -25.50000000000000711 ) ) ;
#1221 = ORIENTED_EDGE ( 'NONE', *, *, #429, .F. ) ;
#1222 = EDGE_CURVE ( 'NONE', #385, #260, #797, .T. ) ;
#1223 = CARTESIAN_POINT ( 'NONE',  ( -4.000000000000000000, 10.00000000000000178, -25.50000000000000711 ) ) ;
#1224 = CARTESIAN_POINT ( 'NONE',  ( -4.000000000000000000, 10.00000000000000000, 24.00000000000000711 ) ) ;
#1225 = CARTESIAN_POINT ( 'NONE',  ( -2.499999999999999556, 13.99999999999999822, -16.00000000000000355 ) ) ;
#1226 = EDGE_LOOP ( 'NONE', ( #446, #77 ) ) ;
#1227 = ORIENTED_EDGE ( 'NONE', *, *, #201, .T. ) ;
#1228 = CIRCLE ( 'NONE', #57, 1.999999999999998224 ) ;
#1229 = EDGE_CURVE ( 'NONE', #412, #889, #471, .T. ) ;
#1230 = CARTESIAN_POINT ( 'NONE',  ( -4.311316907207321414, 0.4120474732992187583, 26.98780472190368940 ) ) ;
#1231 = CARTESIAN_POINT ( 'NONE',  ( 1.422549233279309044, 0.02585699698110697706, -25.56612727529159912 ) ) ;
#1232 = CARTESIAN_POINT ( 'NONE',  ( -3.688683092792680807, 0.4120474732992119860, -26.98780472190369650 ) ) ;
#1233 = VERTEX_POINT ( 'NONE', #1056 ) ;
#1234 = ORIENTED_EDGE ( 'NONE', *, *, #16, .T. ) ;
#1235 = DIRECTION ( 'NONE',  ( 0.000000000000000000, -1.000000000000000000, 0.000000000000000000 ) ) ;
#1236 = DIRECTION ( 'NONE',  ( -1.000000000000000000, 0.000000000000000000, -0.000000000000000000 ) ) ;
#1237 = DIRECTION ( 'NONE',  ( 0.000000000000000000, 0.000000000000000000, 1.000000000000000000 ) ) ;
#1238 = ORIENTED_EDGE ( 'NONE', *, *, #1014, .T. ) ;
#1239 = ORIENTED_EDGE ( 'NONE', *, *, #137, .T. ) ;
#1240 = CIRCLE ( 'NONE', #1116, 5.000000000000000888 ) ;
#1241 = FACE_OUTER_BOUND ( 'NONE', #12, .T. ) ;
#1242 = CARTESIAN_POINT ( 'NONE',  ( -4.000000000000000000, 10.00000000000000178, -22.50000000000000711 ) ) ;
#1243 = DIRECTION ( 'NONE',  ( 0.000000000000000000, 0.000000000000000000, -1.000000000000000000 ) ) ;
#1244 = ORIENTED_EDGE ( 'NONE', *, *, #137, .F. ) ;
#1245 = EDGE_CURVE ( 'NONE', #140, #889, #231, .T. ) ;
#1246 = ORIENTED_EDGE ( 'NONE', *, *, #406, .F. ) ;
#1247 = CARTESIAN_POINT ( 'NONE',  ( 5.982738725408893288, 0.1610225205482181121, 26.27226350519109843 ) ) ;
#1248 = DIRECTION ( 'NONE',  ( 0.000000000000000000, -1.000000000000000000, 0.000000000000000000 ) ) ;
#1249 = AXIS2_PLACEMENT_3D ( 'NONE', #766, #179, #568 ) ;
#1250 = CARTESIAN_POINT ( 'NONE',  ( 0.000000000000000000, 0.000000000000000000, 24.99999999999998934 ) ) ;
#1251 = VERTEX_POINT ( 'NONE', #572 ) ;
#1252 = ORIENTED_EDGE ( 'NONE', *, *, #748, .F. ) ;
#1253 = AXIS2_PLACEMENT_3D ( 'NONE', #743, #854, #829 ) ;
#1254 = FACE_OUTER_BOUND ( 'NONE', #437, .T. ) ;
#1255 = FACE_BOUND ( 'NONE', #747, .T. ) ;
#1256 = DIRECTION ( 'NONE',  ( -1.000000000000000000, 0.000000000000000000, -0.000000000000000000 ) ) ;
#1257 = EDGE_LOOP ( 'NONE', ( #287, #716 ) ) ;
#1258 = ADVANCED_FACE ( 'NONE', ( #1254 ), #661, .T. ) ;
#1259 = ORIENTED_EDGE ( 'NONE', *, *, #577, .T. ) ;
#1260 = DIRECTION ( 'NONE',  ( 1.000000000000000000, -0.000000000000000000, -0.000000000000000000 ) ) ;
#1261 = EDGE_CURVE ( 'NONE', #915, #248, #769, .T. ) ;
#1262 = CARTESIAN_POINT ( 'NONE',  ( -4.000000000000000000, 30.00000000000000000, -24.00000000000000711 ) ) ;
#1263 = EDGE_CURVE ( 'NONE', #1048, #1189, #1161, .T. ) ;
#1264 = DIRECTION ( 'NONE',  ( 0.000000000000000000, 0.000000000000000000, -1.000000000000000000 ) ) ;
#1265 = CYLINDRICAL_SURFACE ( 'NONE', #693, 1.500000000000001332 ) ;
#1266 = AXIS2_PLACEMENT_3D ( 'NONE', #300, #800, #198 ) ;
#1267 = EDGE_LOOP ( 'NONE', ( #845, #755 ) ) ;
#1268 = CARTESIAN_POINT ( 'NONE',  ( -2.499999999999999556, 13.99999999999999467, 15.99999999999999645 ) ) ;
#1269 = DIRECTION ( 'NONE',  ( 0.000000000000000000, 0.000000000000000000, 1.000000000000000000 ) ) ;
#1270 = EDGE_CURVE ( 'NONE', #36, #990, #651, .T. ) ;
#1271 = CARTESIAN_POINT ( 'NONE',  ( -7.500000000000000000, 30.00000000000000000, -30.00000000000000711 ) ) ;
#1272 = CARTESIAN_POINT ( 'NONE',  ( -4.000000000000000000, -13.00000000000001776, 24.00000000000000711 ) ) ;
#1273 = AXIS2_PLACEMENT_3D ( 'NONE', #1118, #929, #652 ) ;
#1274 = AXIS2_PLACEMENT_3D ( 'NONE', #158, #475, #483 ) ;
#1275 = ORIENTED_EDGE ( 'NONE', *, *, #1150, .F. ) ;
#1276 = AXIS2_PLACEMENT_3D ( 'NONE', #732, #834, #229 ) ;
#1277 = CARTESIAN_POINT ( 'NONE',  ( -4.000000000000000000, 10.00000000000000000, -27.00000000000000711 ) ) ;
#1278 = CARTESIAN_POINT ( 'NONE',  ( 6.828427124746202281, 0.000000000000000000, 24.99999999999998934 ) ) ;
#1279 = LINE ( 'NONE', #1186, #60 ) ;
#1280 = LINE ( 'NONE', #679, #433 ) ;
#1281 = ORIENTED_EDGE ( 'NONE', *, *, #318, .F. ) ;
#1282 = APPLICATION_PROTOCOL_DEFINITION ( 'draft international standard', 'automotive_design', 1998, #1129 ) ;
#1283 = EDGE_CURVE ( 'NONE', #864, #412, #823, .T. ) ;
#1284 = DIRECTION ( 'NONE',  ( 0.000000000000000000, 0.000000000000000000, 1.000000000000000000 ) ) ;
#1285 = CARTESIAN_POINT ( 'NONE',  ( -4.000000000000000000, 30.00000000000000000, 25.50000000000000711 ) ) ;
#1286 = AXIS2_PLACEMENT_3D ( 'NONE', #404, #1206, #415 ) ;
#1287 = CARTESIAN_POINT ( 'NONE',  ( -1.422549233279295278, 0.02585699698110779932, 25.56612727529158846 ) ) ;
#1288 = ORIENTED_EDGE ( 'NONE', *, *, #72, .T. ) ;
#1289 = ADVANCED_FACE ( 'NONE', ( #899 ), #510, .T. ) ;
#1290 = UNCERTAINTY_MEASURE_WITH_UNIT (LENGTH_MEASURE( 1.000000000000000082E-05 ), #619, 'distance_accuracy_value', 'NONE');
#1291 = DIRECTION ( 'NONE',  ( 0.000000000000000000, 0.000000000000000000, -1.000000000000000000 ) ) ;
#1292 = FACE_OUTER_BOUND ( 'NONE', #827, .T. ) ;
#1293 = AXIS2_PLACEMENT_3D ( 'NONE', #867, #683, #1162 ) ;
#1294 = CARTESIAN_POINT ( 'NONE',  ( -4.000000000000000000, 30.00000000000000000, -22.50000000000000711 ) ) ;
#1295 = ORIENTED_EDGE ( 'NONE', *, *, #482, .T. ) ;
#1296 = ORIENTED_EDGE ( 'NONE', *, *, #553, .T. ) ;
ENDSEC;
END-ISO-10303-21;
