ISO-10303-21;
HEADER;
FILE_DESCRIPTION (( 'STEP AP214' ),
    '1' );
FILE_NAME ('encoder-stand_PCB-bracket.STEP',
    '2026-01-09T10:06:57',
    ( '' ),
    ( '' ),
    'SwSTEP 2.0',
    'SolidWorks 2025',
    '' );
FILE_SCHEMA (( 'AUTOMOTIVE_DESIGN' ));
ENDSEC;

DATA;
#1 = VECTOR ( 'NONE', #334, 1000.000000000000000 ) ;
#2 = ORIENTED_EDGE ( 'NONE', *, *, #281, .F. ) ;
#3 = EDGE_CURVE ( 'NONE', #97, #17, #553, .T. ) ;
#4 = CARTESIAN_POINT ( 'NONE',  ( -68.75000000000001421, 2.500000000000000000, -42.25000000000002132 ) ) ;
#5 = ORIENTED_EDGE ( 'NONE', *, *, #386, .T. ) ;
#6 = VECTOR ( 'NONE', #106, 1000.000000000000000 ) ;
#7 = CARTESIAN_POINT ( 'NONE',  ( 71.49999999999998579, 8.000000000000000000, 41.24999999999999289 ) ) ;
#8 = VERTEX_POINT ( 'NONE', #540 ) ;
#9 = ADVANCED_FACE ( 'NONE', ( #549 ), #114, .F. ) ;
#10 = DIRECTION ( 'NONE',  ( 0.000000000000000000, -1.000000000000000000, 0.000000000000000000 ) ) ;
#11 = CIRCLE ( 'NONE', #545, 1.999999999999994893 ) ;
#12 = ORIENTED_EDGE ( 'NONE', *, *, #49, .T. ) ;
#13 = CARTESIAN_POINT ( 'NONE',  ( 75.24999999999997158, 8.000000000000000000, 45.24999999999997158 ) ) ;
#14 = ORIENTED_EDGE ( 'NONE', *, *, #375, .T. ) ;
#15 = DIRECTION ( 'NONE',  ( -0.000000000000000000, -1.000000000000000000, -0.000000000000000000 ) ) ;
#16 = AXIS2_PLACEMENT_3D ( 'NONE', #411, #614, #181 ) ;
#17 = VERTEX_POINT ( 'NONE', #22 ) ;
#18 = DIRECTION ( 'NONE',  ( -0.000000000000000000, -0.000000000000000000, 1.000000000000000000 ) ) ;
#19 = ORIENTED_EDGE ( 'NONE', *, *, #608, .T. ) ;
#20 = EDGE_CURVE ( 'NONE', #187, #487, #158, .T. ) ;
#21 = CARTESIAN_POINT ( 'NONE',  ( 71.49999999999998579, 0.000000000000000000, 39.25000000000000000 ) ) ;
#22 = CARTESIAN_POINT ( 'NONE',  ( 68.74999999999994316, 2.500000000000000444, -42.25000000000002132 ) ) ;
#23 = PRODUCT_DEFINITION_SHAPE ( 'NONE', 'NONE',  #348 ) ;
#24 = LINE ( 'NONE', #212, #454 ) ;
#25 = FACE_BOUND ( 'NONE', #98, .T. ) ;
#26 = ORIENTED_EDGE ( 'NONE', *, *, #608, .F. ) ;
#27 = ADVANCED_FACE ( 'NONE', ( #599 ), #263, .F. ) ;
#28 = FACE_OUTER_BOUND ( 'NONE', #156, .T. ) ;
#29 = DIRECTION ( 'NONE',  ( -0.000000000000000000, -0.000000000000000000, 1.000000000000000000 ) ) ;
#30 = ORIENTED_EDGE ( 'NONE', *, *, #20, .F. ) ;
#31 = AXIS2_PLACEMENT_3D ( 'NONE', #217, #615, #510 ) ;
#32 = DIRECTION ( 'NONE',  ( 0.000000000000000000, -0.000000000000000000, -1.000000000000000000 ) ) ;
#33 = EDGE_CURVE ( 'NONE', #498, #504, #140, .T. ) ;
#34 = CARTESIAN_POINT ( 'NONE',  ( 71.49999999999998579, -31.00000000000000711, 43.24999999999999289 ) ) ;
#35 = ORIENTED_EDGE ( 'NONE', *, *, #299, .T. ) ;
#36 = CARTESIAN_POINT ( 'NONE',  ( 75.24999999999997158, 8.000000000000000000, -45.25000000000002842 ) ) ;
#37 = PLANE ( 'NONE',  #544 ) ;
#38 = AXIS2_PLACEMENT_3D ( 'NONE', #455, #355, #449 ) ;
#39 = DIRECTION ( 'NONE',  ( 0.000000000000000000, 0.000000000000000000, -1.000000000000000000 ) ) ;
#40 = ORIENTED_EDGE ( 'NONE', *, *, #393, .T. ) ;
#41 = EDGE_CURVE ( 'NONE', #389, #163, #252, .T. ) ;
#42 = AXIS2_PLACEMENT_3D ( 'NONE', #251, #10, #349 ) ;
#43 = DIRECTION ( 'NONE',  ( 0.000000000000000000, -0.000000000000000000, -1.000000000000000000 ) ) ;
#44 = ORIENTED_EDGE ( 'NONE', *, *, #103, .F. ) ;
#45 = FACE_OUTER_BOUND ( 'NONE', #335, .T. ) ;
#46 = SURFACE_SIDE_STYLE ('',( #293 ) ) ;
#47 = VERTEX_POINT ( 'NONE', #73 ) ;
#48 = CIRCLE ( 'NONE', #38, 1.999999999999994893 ) ;
#49 = EDGE_CURVE ( 'NONE', #47, #271, #575, .T. ) ;
#50 = VERTEX_POINT ( 'NONE', #366 ) ;
#51 = APPLICATION_PROTOCOL_DEFINITION ( 'draft international standard', 'automotive_design', 1998, #419 ) ;
#52 = CARTESIAN_POINT ( 'NONE',  ( 71.49999999999998579, 8.000000000000000000, -39.25000000000001421 ) ) ;
#53 = ORIENTED_EDGE ( 'NONE', *, *, #33, .T. ) ;
#54 = ORIENTED_EDGE ( 'NONE', *, *, #152, .F. ) ;
#55 = EDGE_CURVE ( 'NONE', #305, #179, #107, .T. ) ;
#56 = AXIS2_PLACEMENT_3D ( 'NONE', #84, #518, #471 ) ;
#57 = FACE_OUTER_BOUND ( 'NONE', #127, .T. ) ;
#58 = DIRECTION ( 'NONE',  ( 0.000000000000000000, 0.000000000000000000, -1.000000000000000000 ) ) ;
#59 = DIRECTION ( 'NONE',  ( 0.000000000000000000, -0.000000000000000000, 1.000000000000000000 ) ) ;
#60 = VECTOR ( 'NONE', #120, 1000.000000000000000 ) ;
#61 = ORIENTED_EDGE ( 'NONE', *, *, #117, .T. ) ;
#62 = FACE_BOUND ( 'NONE', #381, .T. ) ;
#63 = ORIENTED_EDGE ( 'NONE', *, *, #180, .F. ) ;
#64 = LINE ( 'NONE', #254, #216 ) ;
#65 = EDGE_CURVE ( 'NONE', #17, #507, #567, .T. ) ;
#66 = AXIS2_PLACEMENT_3D ( 'NONE', #136, #527, #195 ) ;
#67 = ORIENTED_EDGE ( 'NONE', *, *, #246, .T. ) ;
#68 = PLANE ( 'NONE',  #118 ) ;
#69 = CARTESIAN_POINT ( 'NONE',  ( -68.75000000000001421, 8.000000000000000000, 42.24999999999997158 ) ) ;
#70 = AXIS2_PLACEMENT_3D ( 'NONE', #126, #123, #322 ) ;
#71 = UNCERTAINTY_MEASURE_WITH_UNIT (LENGTH_MEASURE( 1.000000000000000082E-05 ), #247, 'distance_accuracy_value', 'NONE');
#72 = CARTESIAN_POINT ( 'NONE',  ( 75.24999999999997158, 8.000000000000000000, 45.24999999999997158 ) ) ;
#73 = CARTESIAN_POINT ( 'NONE',  ( 71.49999999999998579, 8.000000000000000000, 43.24999999999999289 ) ) ;
#74 = EDGE_CURVE ( 'NONE', #320, #271, #313, .T. ) ;
#75 = LINE ( 'NONE', #268, #436 ) ;
#76 = CARTESIAN_POINT ( 'NONE',  ( 68.74999999999994316, 8.000000000000000000, -42.25000000000002132 ) ) ;
#77 = VECTOR ( 'NONE', #606, 1000.000000000000000 ) ;
#78 = ADVANCED_FACE ( 'NONE', ( #417 ), #37, .T. ) ;
#79 = CARTESIAN_POINT ( 'NONE',  ( -71.50000000000001421, 0.000000000000000000, 39.25000000000002132 ) ) ;
#80 = LINE ( 'NONE', #34, #565 ) ;
#81 = ORIENTED_EDGE ( 'NONE', *, *, #393, .F. ) ;
#82 = CARTESIAN_POINT ( 'NONE',  ( 68.74999999999994316, 8.000000000000000000, 42.24999999999997158 ) ) ;
#83 = FACE_BOUND ( 'NONE', #154, .T. ) ;
#84 = CARTESIAN_POINT ( 'NONE',  ( 71.49999999999998579, -31.00000000000000711, -41.25000000000000711 ) ) ;
#85 = LINE ( 'NONE', #556, #60 ) ;
#86 = EDGE_CURVE ( 'NONE', #179, #305, #351, .T. ) ;
#87 = DIRECTION ( 'NONE',  ( -1.000000000000000000, 0.000000000000000000, -0.000000000000000000 ) ) ;
#88 = DIRECTION ( 'NONE',  ( 0.000000000000000000, -1.000000000000000000, 0.000000000000000000 ) ) ;
#89 = ORIENTED_EDGE ( 'NONE', *, *, #188, .F. ) ;
#90 = CIRCLE ( 'NONE', #31, 1.999999999999994893 ) ;
#91 = DIRECTION ( 'NONE',  ( 0.000000000000000000, 0.000000000000000000, -1.000000000000000000 ) ) ;
#92 = LINE ( 'NONE', #523, #342 ) ;
#93 = ORIENTED_EDGE ( 'NONE', *, *, #214, .T. ) ;
#94 = EDGE_CURVE ( 'NONE', #290, #183, #416, .T. ) ;
#95 =( LENGTH_UNIT ( ) NAMED_UNIT ( * ) SI_UNIT ( .MILLI., .METRE. ) );
#96 = DIRECTION ( 'NONE',  ( -0.000000000000000000, 1.000000000000000000, -0.000000000000000000 ) ) ;
#97 = VERTEX_POINT ( 'NONE', #469 ) ;
#98 = EDGE_LOOP ( 'NONE', ( #364, #620 ) ) ;
#99 =( NAMED_UNIT ( * ) SI_UNIT ( $, .STERADIAN. ) SOLID_ANGLE_UNIT ( ) );
#100 = VERTEX_POINT ( 'NONE', #177 ) ;
#101 = CARTESIAN_POINT ( 'NONE',  ( -68.75000000000001421, 8.000000000000000000, 42.24999999999997158 ) ) ;
#102 = ORIENTED_EDGE ( 'NONE', *, *, #309, .T. ) ;
#103 = EDGE_CURVE ( 'NONE', #625, #538, #429, .T. ) ;
#104 = CARTESIAN_POINT ( 'NONE',  ( -71.50000000000001421, 8.000000000000000000, 43.25000000000001421 ) ) ;
#105 = DIRECTION ( 'NONE',  ( 0.000000000000000000, 0.000000000000000000, 1.000000000000000000 ) ) ;
#106 = DIRECTION ( 'NONE',  ( -1.000000000000000000, -0.000000000000000000, -0.000000000000000000 ) ) ;
#107 = CIRCLE ( 'NONE', #128, 1.999999999999994893 ) ;
#108 = VECTOR ( 'NONE', #96, 1000.000000000000000 ) ;
#109 = ORIENTED_EDGE ( 'NONE', *, *, #524, .F. ) ;
#110 = ADVANCED_FACE ( 'NONE', ( #325 ), #519, .F. ) ;
#111 = DIRECTION ( 'NONE',  ( -0.000000000000000000, -1.000000000000000000, -0.000000000000000000 ) ) ;
#112 = VERTEX_POINT ( 'NONE', #370 ) ;
#113 = CARTESIAN_POINT ( 'NONE',  ( 71.49999999999998579, -31.00000000000000711, -41.25000000000000711 ) ) ;
#114 = CYLINDRICAL_SURFACE ( 'NONE', #243, 1.999999999999994893 ) ;
#115 = CARTESIAN_POINT ( 'NONE',  ( -71.50000000000001421, 8.000000000000000000, -43.24999999999998579 ) ) ;
#116 = DIRECTION ( 'NONE',  ( 0.000000000000000000, -0.000000000000000000, -1.000000000000000000 ) ) ;
#117 = EDGE_CURVE ( 'NONE', #240, #47, #80, .T. ) ;
#118 = AXIS2_PLACEMENT_3D ( 'NONE', #401, #59, #155 ) ;
#119 = CYLINDRICAL_SURFACE ( 'NONE', #269, 1.999999999999994893 ) ;
#120 = DIRECTION ( 'NONE',  ( 0.000000000000000000, 0.000000000000000000, -1.000000000000000000 ) ) ;
#121 = EDGE_LOOP ( 'NONE', ( #465, #296, #592, #175 ) ) ;
#122 = CARTESIAN_POINT ( 'NONE',  ( -75.25000000000002842, 8.000000000000000000, 45.24999999999997158 ) ) ;
#123 = DIRECTION ( 'NONE',  ( 0.000000000000000000, -1.000000000000000000, 0.000000000000000000 ) ) ;
#124 = ORIENTED_EDGE ( 'NONE', *, *, #74, .F. ) ;
#125 = DIRECTION ( 'NONE',  ( 0.000000000000000000, -1.000000000000000000, 0.000000000000000000 ) ) ;
#126 = CARTESIAN_POINT ( 'NONE',  ( 71.49999999999998579, 0.000000000000000000, -41.25000000000000711 ) ) ;
#127 = EDGE_LOOP ( 'NONE', ( #560, #489, #206, #35 ) ) ;
#128 = AXIS2_PLACEMENT_3D ( 'NONE', #220, #186, #611 ) ;
#129 = ADVANCED_FACE ( 'NONE', ( #315, #619, #25, #83, #362, #425 ), #521, .F. ) ;
#130 = CARTESIAN_POINT ( 'NONE',  ( -68.75000000000001421, 8.000000000000000000, 42.24999999999997158 ) ) ;
#131 = CARTESIAN_POINT ( 'NONE',  ( -68.75000000000001421, 8.000000000000000000, 42.24999999999997158 ) ) ;
#132 = ORIENTED_EDGE ( 'NONE', *, *, #117, .F. ) ;
#133 = DIRECTION ( 'NONE',  ( 0.000000000000000000, -1.000000000000000000, 0.000000000000000000 ) ) ;
#134 = ORIENTED_EDGE ( 'NONE', *, *, #541, .F. ) ;
#135 = VECTOR ( 'NONE', #231, 1000.000000000000000 ) ;
#136 = CARTESIAN_POINT ( 'NONE',  ( 0.000000000000000000, 0.000000000000000000, 0.000000000000000000 ) ) ;
#137 = CARTESIAN_POINT ( 'NONE',  ( -75.25000000000002842, 0.000000000000000000, -45.25000000000002842 ) ) ;
#138 = EDGE_LOOP ( 'NONE', ( #450, #230, #67, #470 ) ) ;
#139 = EDGE_CURVE ( 'NONE', #504, #498, #90, .T. ) ;
#140 = CIRCLE ( 'NONE', #221, 1.999999999999994893 ) ;
#141 = AXIS2_PLACEMENT_3D ( 'NONE', #319, #515, #229 ) ;
#142 = CARTESIAN_POINT ( 'NONE',  ( -71.50000000000001421, -31.00000000000000711, -41.24999999999998579 ) ) ;
#143 = LINE ( 'NONE', #137, #303 ) ;
#144 = EDGE_LOOP ( 'NONE', ( #547, #194, #350, #132 ) ) ;
#145 = SHAPE_DEFINITION_REPRESENTATION ( #23, #406 ) ;
#146 = DIRECTION ( 'NONE',  ( 0.000000000000000000, -1.000000000000000000, 0.000000000000000000 ) ) ;
#147 = ORIENTED_EDGE ( 'NONE', *, *, #94, .F. ) ;
#148 = CYLINDRICAL_SURFACE ( 'NONE', #207, 1.999999999999994893 ) ;
#149 = DIRECTION ( 'NONE',  ( -0.000000000000000000, 1.000000000000000000, -0.000000000000000000 ) ) ;
#150 = ORIENTED_EDGE ( 'NONE', *, *, #86, .T. ) ;
#151 = VECTOR ( 'NONE', #573, 1000.000000000000000 ) ;
#152 = EDGE_CURVE ( 'NONE', #97, #187, #225, .T. ) ;
#153 = PLANE ( 'NONE',  #554 ) ;
#154 = EDGE_LOOP ( 'NONE', ( #44, #476 ) ) ;
#155 = DIRECTION ( 'NONE',  ( 1.000000000000000000, 0.000000000000000000, -0.000000000000000000 ) ) ;
#156 = EDGE_LOOP ( 'NONE', ( #338, #2, #400, #14 ) ) ;
#157 = LINE ( 'NONE', #404, #361 ) ;
#158 = LINE ( 'NONE', #69, #414 ) ;
#159 = EDGE_CURVE ( 'NONE', #280, #50, #270, .T. ) ;
#160 = DIRECTION ( 'NONE',  ( -0.000000000000000000, -1.000000000000000000, -0.000000000000000000 ) ) ;
#161 = CARTESIAN_POINT ( 'NONE',  ( -71.50000000000001421, 0.000000000000000000, -41.24999999999998579 ) ) ;
#162 = DIRECTION ( 'NONE',  ( -0.000000000000000000, 1.000000000000000000, -0.000000000000000000 ) ) ;
#163 = VERTEX_POINT ( 'NONE', #373 ) ;
#164 = EDGE_CURVE ( 'NONE', #50, #584, #85, .T. ) ;
#165 = LINE ( 'NONE', #36, #77 ) ;
#166 = AXIS2_PLACEMENT_3D ( 'NONE', #520, #368, #562 ) ;
#167 = DIRECTION ( 'NONE',  ( 0.000000000000000000, -1.000000000000000000, 0.000000000000000000 ) ) ;
#168 = LINE ( 'NONE', #224, #357 ) ;
#169 = MANIFOLD_SOLID_BREP ( 'Boss-Extrude2', #283 ) ;
#170 = CARTESIAN_POINT ( 'NONE',  ( 71.49999999999998579, 8.000000000000000000, -41.25000000000000711 ) ) ;
#171 = AXIS2_PLACEMENT_3D ( 'NONE', #488, #133, #328 ) ;
#172 = ORIENTED_EDGE ( 'NONE', *, *, #403, .T. ) ;
#173 = CYLINDRICAL_SURFACE ( 'NONE', #56, 1.999999999999994893 ) ;
#174 = DIRECTION ( 'NONE',  ( 1.000000000000000000, -0.000000000000000000, 0.000000000000000000 ) ) ;
#175 = ORIENTED_EDGE ( 'NONE', *, *, #492, .T. ) ;
#176 = DIRECTION ( 'NONE',  ( -1.000000000000000000, -0.000000000000000000, -0.000000000000000000 ) ) ;
#177 = CARTESIAN_POINT ( 'NONE',  ( -71.50000000000001421, 0.000000000000000000, 43.25000000000001421 ) ) ;
#178 = VECTOR ( 'NONE', #215, 1000.000000000000000 ) ;
#179 = VERTEX_POINT ( 'NONE', #52 ) ;
#180 = EDGE_CURVE ( 'NONE', #100, #441, #457, .T. ) ;
#181 = DIRECTION ( 'NONE',  ( 0.000000000000000000, 0.000000000000000000, 1.000000000000000000 ) ) ;
#182 = DIRECTION ( 'NONE',  ( 1.000000000000000000, 0.000000000000000000, 0.000000000000000000 ) ) ;
#183 = VERTEX_POINT ( 'NONE', #438 ) ;
#184 = CIRCLE ( 'NONE', #193, 1.999999999999994893 ) ;
#185 = CARTESIAN_POINT ( 'NONE',  ( 75.24999999999997158, 0.000000000000000000, -45.25000000000002842 ) ) ;
#186 = DIRECTION ( 'NONE',  ( 0.000000000000000000, 1.000000000000000000, 0.000000000000000000 ) ) ;
#187 = VERTEX_POINT ( 'NONE', #196 ) ;
#188 = EDGE_CURVE ( 'NONE', #271, #47, #222, .T. ) ;
#189 = PRESENTATION_STYLE_ASSIGNMENT (( #486 ) ) ;
#190 = ORIENTED_EDGE ( 'NONE', *, *, #524, .T. ) ;
#191 = EDGE_LOOP ( 'NONE', ( #53, #367, #430, #227 ) ) ;
#192 = VECTOR ( 'NONE', #475, 1000.000000000000000 ) ;
#193 = AXIS2_PLACEMENT_3D ( 'NONE', #440, #88, #340 ) ;
#194 = ORIENTED_EDGE ( 'NONE', *, *, #74, .T. ) ;
#195 = DIRECTION ( 'NONE',  ( 1.000000000000000000, 0.000000000000000000, 0.000000000000000000 ) ) ;
#196 = CARTESIAN_POINT ( 'NONE',  ( -68.75000000000001421, 8.000000000000000000, -42.25000000000002132 ) ) ;
#197 = EDGE_LOOP ( 'NONE', ( #124, #190, #61, #12 ) ) ;
#198 = EDGE_CURVE ( 'NONE', #504, #538, #390, .T. ) ;
#199 = DIRECTION ( 'NONE',  ( 0.000000000000000000, -1.000000000000000000, 0.000000000000000000 ) ) ;
#200 = ORIENTED_EDGE ( 'NONE', *, *, #264, .F. ) ;
#201 = VECTOR ( 'NONE', #18, 1000.000000000000000 ) ;
#202 = FACE_OUTER_BOUND ( 'NONE', #437, .T. ) ;
#203 = CARTESIAN_POINT ( 'NONE',  ( 71.49999999999998579, -31.00000000000000711, 41.24999999999999289 ) ) ;
#204 = FACE_BOUND ( 'NONE', #439, .T. ) ;
#205 = EDGE_CURVE ( 'NONE', #441, #100, #11, .T. ) ;
#206 = ORIENTED_EDGE ( 'NONE', *, *, #460, .T. ) ;
#207 = AXIS2_PLACEMENT_3D ( 'NONE', #142, #337, #382 ) ;
#208 = DIRECTION ( 'NONE',  ( -0.000000000000000000, -1.000000000000000000, -0.000000000000000000 ) ) ;
#209 = ORIENTED_EDGE ( 'NONE', *, *, #164, .F. ) ;
#210 = DIRECTION ( 'NONE',  ( 0.000000000000000000, 0.000000000000000000, 1.000000000000000000 ) ) ;
#211 = ORIENTED_EDGE ( 'NONE', *, *, #317, .F. ) ;
#212 = CARTESIAN_POINT ( 'NONE',  ( 68.74999999999994316, 8.000000000000000000, 42.24999999999997158 ) ) ;
#213 = CARTESIAN_POINT ( 'NONE',  ( -75.25000000000002842, 8.000000000000000000, -45.25000000000002842 ) ) ;
#214 = EDGE_CURVE ( 'NONE', #183, #305, #244, .T. ) ;
#215 = DIRECTION ( 'NONE',  ( 0.000000000000000000, 0.000000000000000000, -1.000000000000000000 ) ) ;
#216 = VECTOR ( 'NONE', #208, 1000.000000000000000 ) ;
#217 = CARTESIAN_POINT ( 'NONE',  ( -71.50000000000001421, 0.000000000000000000, -41.24999999999998579 ) ) ;
#218 = ORIENTED_EDGE ( 'NONE', *, *, #292, .T. ) ;
#219 = FACE_OUTER_BOUND ( 'NONE', #316, .T. ) ;
#220 = CARTESIAN_POINT ( 'NONE',  ( 71.49999999999998579, 8.000000000000000000, -41.25000000000000711 ) ) ;
#221 = AXIS2_PLACEMENT_3D ( 'NONE', #161, #167, #58 ) ;
#222 = CIRCLE ( 'NONE', #605, 1.999999999999994893 ) ;
#223 = ORIENTED_EDGE ( 'NONE', *, *, #198, .F. ) ;
#224 = CARTESIAN_POINT ( 'NONE',  ( -71.50000000000001421, -31.00000000000000711, 43.25000000000001421 ) ) ;
#225 = LINE ( 'NONE', #76, #387 ) ;
#226 = EDGE_CURVE ( 'NONE', #183, #290, #184, .T. ) ;
#227 = ORIENTED_EDGE ( 'NONE', *, *, #272, .F. ) ;
#228 = CARTESIAN_POINT ( 'NONE',  ( 75.24999999999997158, 8.000000000000000000, -45.25000000000002842 ) ) ;
#229 = DIRECTION ( 'NONE',  ( 0.000000000000000000, 0.000000000000000000, 1.000000000000000000 ) ) ;
#230 = ORIENTED_EDGE ( 'NONE', *, *, #354, .T. ) ;
#231 = DIRECTION ( 'NONE',  ( 1.000000000000000000, 0.000000000000000000, 0.000000000000000000 ) ) ;
#232 = CARTESIAN_POINT ( 'NONE',  ( -71.50000000000001421, -31.00000000000000711, 41.25000000000001421 ) ) ;
#233 = CIRCLE ( 'NONE', #586, 1.999999999999994893 ) ;
#234 = ADVANCED_FACE ( 'NONE', ( #383 ), #579, .F. ) ;
#235 = CARTESIAN_POINT ( 'NONE',  ( 68.74999999999994316, 8.000000000000000000, 42.24999999999997158 ) ) ;
#236 = CARTESIAN_POINT ( 'NONE',  ( 71.49999999999998579, 0.000000000000000000, 43.24999999999999289 ) ) ;
#237 = ORIENTED_EDGE ( 'NONE', *, *, #561, .T. ) ;
#238 = DIRECTION ( 'NONE',  ( -1.000000000000000000, 0.000000000000000000, -0.000000000000000000 ) ) ;
#239 = CARTESIAN_POINT ( 'NONE',  ( -71.50000000000001421, 0.000000000000000000, 41.25000000000001421 ) ) ;
#240 = VERTEX_POINT ( 'NONE', #236 ) ;
#241 = CARTESIAN_POINT ( 'NONE',  ( 71.49999999999998579, 8.000000000000000000, 39.25000000000000000 ) ) ;
#242 = VERTEX_POINT ( 'NONE', #4 ) ;
#243 = AXIS2_PLACEMENT_3D ( 'NONE', #203, #310, #105 ) ;
#244 = LINE ( 'NONE', #435, #333 ) ;
#245 = ORIENTED_EDGE ( 'NONE', *, *, #375, .F. ) ;
#246 = EDGE_CURVE ( 'NONE', #426, #385, #617, .T. ) ;
#247 =( LENGTH_UNIT ( ) NAMED_UNIT ( * ) SI_UNIT ( .MILLI., .METRE. ) );
#248 = ORIENTED_EDGE ( 'NONE', *, *, #492, .F. ) ;
#249 = PRODUCT_RELATED_PRODUCT_CATEGORY ( 'part', '', ( #267 ) ) ;
#250 = VECTOR ( 'NONE', #111, 1000.000000000000000 ) ;
#251 = CARTESIAN_POINT ( 'NONE',  ( 71.49999999999998579, 0.000000000000000000, 41.24999999999999289 ) ) ;
#252 = LINE ( 'NONE', #607, #323 ) ;
#253 = EDGE_CURVE ( 'NONE', #594, #280, #490, .T. ) ;
#254 = CARTESIAN_POINT ( 'NONE',  ( -75.25000000000002842, 8.000000000000000000, 45.24999999999997158 ) ) ;
#255 = ORIENTED_EDGE ( 'NONE', *, *, #481, .T. ) ;
#256 = LINE ( 'NONE', #451, #201 ) ;
#257 = ORIENTED_EDGE ( 'NONE', *, *, #226, .T. ) ;
#258 = CARTESIAN_POINT ( 'NONE',  ( -71.50000000000001421, 8.000000000000000000, 39.25000000000002132 ) ) ;
#259 = ORIENTED_EDGE ( 'NONE', *, *, #403, .F. ) ;
#260 = PRODUCT_DEFINITION_CONTEXT ( 'detailed design', #496, 'design' ) ;
#261 = CARTESIAN_POINT ( 'NONE',  ( -75.25000000000002842, 8.000000000000000000, -45.25000000000002842 ) ) ;
#262 =( GEOMETRIC_REPRESENTATION_CONTEXT ( 3 ) GLOBAL_UNCERTAINTY_ASSIGNED_CONTEXT ( ( #71 ) ) GLOBAL_UNIT_ASSIGNED_CONTEXT ( ( #247, #379, #99 ) ) REPRESENTATION_CONTEXT ( 'NONE', 'WORKASPACE' ) );
#263 = PLANE ( 'NONE',  #384 ) ;
#264 = EDGE_CURVE ( 'NONE', #584, #594, #143, .T. ) ;
#265 = PLANE ( 'NONE',  #16 ) ;
#266 = DIRECTION ( 'NONE',  ( -0.000000000000000000, 1.000000000000000000, -0.000000000000000000 ) ) ;
#267 = PRODUCT ( 'encoder-stand_PCB-bracket', 'encoder-stand_PCB-bracket', '', ( #327 ) ) ;
#268 = CARTESIAN_POINT ( 'NONE',  ( -75.25000000000002842, 8.000000000000000000, -45.25000000000002842 ) ) ;
#269 = AXIS2_PLACEMENT_3D ( 'NONE', #511, #610, #514 ) ;
#270 = LINE ( 'NONE', #421, #468 ) ;
#271 = VERTEX_POINT ( 'NONE', #241 ) ;
#272 = EDGE_CURVE ( 'NONE', #498, #625, #92, .T. ) ;
#273 = CARTESIAN_POINT ( 'NONE',  ( 71.49999999999998579, -31.00000000000000711, 41.24999999999999289 ) ) ;
#274 = CARTESIAN_POINT ( 'NONE',  ( 68.74999999999994316, 2.500000000000000444, 42.24999999999997158 ) ) ;
#275 = AXIS2_PLACEMENT_3D ( 'NONE', #376, #462, #116 ) ;
#276 = DIRECTION ( 'NONE',  ( 0.000000000000000000, 0.000000000000000000, 1.000000000000000000 ) ) ;
#277 = DIRECTION ( 'NONE',  ( 0.000000000000000000, 0.000000000000000000, 1.000000000000000000 ) ) ;
#278 = LINE ( 'NONE', #72, #178 ) ;
#279 = CARTESIAN_POINT ( 'NONE',  ( 71.49999999999998579, 8.000000000000000000, 41.24999999999999289 ) ) ;
#280 = VERTEX_POINT ( 'NONE', #525 ) ;
#281 = EDGE_CURVE ( 'NONE', #347, #50, #286, .T. ) ;
#282 = DIRECTION ( 'NONE',  ( -0.000000000000000000, 1.000000000000000000, -0.000000000000000000 ) ) ;
#283 = CLOSED_SHELL ( 'NONE', ( #533, #452, #110, #552, #78, #597, #473, #336, #129, #434, #445, #27, #344, #569, #589, #410, #9, #363, #234 ) ) ;
#284 = EDGE_LOOP ( 'NONE', ( #432, #456 ) ) ;
#285 = AXIS2_PLACEMENT_3D ( 'NONE', #170, #428, #559 ) ;
#286 = LINE ( 'NONE', #483, #1 ) ;
#287 = ORIENTED_EDGE ( 'NONE', *, *, #500, .F. ) ;
#288 = CARTESIAN_POINT ( 'NONE',  ( -75.25000000000002842, 0.000000000000000000, -45.25000000000002842 ) ) ;
#289 = FILL_AREA_STYLE ('',( #622 ) ) ;
#290 = VERTEX_POINT ( 'NONE', #528 ) ;
#291 = AXIS2_PLACEMENT_3D ( 'NONE', #304, #162, #210 ) ;
#292 = EDGE_CURVE ( 'NONE', #8, #507, #458, .T. ) ;
#293 = SURFACE_STYLE_FILL_AREA ( #289 ) ;
#294 = ORIENTED_EDGE ( 'NONE', *, *, #309, .F. ) ;
#295 = VECTOR ( 'NONE', #15, 1000.000000000000000 ) ;
#296 = ORIENTED_EDGE ( 'NONE', *, *, #65, .T. ) ;
#297 = CARTESIAN_POINT ( 'NONE',  ( -75.25000000000002842, 8.000000000000000000, -45.25000000000002842 ) ) ;
#298 = DIRECTION ( 'NONE',  ( 1.000000000000000000, 0.000000000000000000, -0.000000000000000000 ) ) ;
#299 = EDGE_CURVE ( 'NONE', #385, #426, #233, .T. ) ;
#300 = CARTESIAN_POINT ( 'NONE',  ( -71.50000000000001421, 8.000000000000000000, 41.25000000000001421 ) ) ;
#301 = ORIENTED_EDGE ( 'NONE', *, *, #164, .T. ) ;
#302 = AXIS2_PLACEMENT_3D ( 'NONE', #279, #464, #563 ) ;
#303 = VECTOR ( 'NONE', #442, 1000.000000000000000 ) ;
#304 = CARTESIAN_POINT ( 'NONE',  ( -71.50000000000001421, -31.00000000000000711, 41.25000000000001421 ) ) ;
#305 = VERTEX_POINT ( 'NONE', #588 ) ;
#306 = CYLINDRICAL_SURFACE ( 'NONE', #291, 1.999999999999994893 ) ;
#307 = ORIENTED_EDGE ( 'NONE', *, *, #49, .F. ) ;
#308 = LINE ( 'NONE', #261, #250 ) ;
#309 = EDGE_CURVE ( 'NONE', #242, #112, #256, .T. ) ;
#310 = DIRECTION ( 'NONE',  ( -0.000000000000000000, 1.000000000000000000, -0.000000000000000000 ) ) ;
#311 = FACE_OUTER_BOUND ( 'NONE', #121, .T. ) ;
#312 = CIRCLE ( 'NONE', #42, 1.999999999999994893 ) ;
#313 = LINE ( 'NONE', #602, #192 ) ;
#314 = FACE_OUTER_BOUND ( 'NONE', #191, .T. ) ;
#315 = FACE_BOUND ( 'NONE', #284, .T. ) ;
#316 = EDGE_LOOP ( 'NONE', ( #612, #93, #516, #578 ) ) ;
#317 = EDGE_CURVE ( 'NONE', #187, #242, #503, .T. ) ;
#318 = CARTESIAN_POINT ( 'NONE',  ( 68.74999999999994316, 8.000000000000000000, 42.24999999999997158 ) ) ;
#319 = CARTESIAN_POINT ( 'NONE',  ( -71.50000000000001421, 8.000000000000000000, -41.24999999999998579 ) ) ;
#320 = VERTEX_POINT ( 'NONE', #21 ) ;
#321 = DIRECTION ( 'NONE',  ( 1.000000000000000000, -0.000000000000000000, -0.000000000000000000 ) ) ;
#322 = DIRECTION ( 'NONE',  ( 0.000000000000000000, 0.000000000000000000, -1.000000000000000000 ) ) ;
#323 = VECTOR ( 'NONE', #29, 1000.000000000000000 ) ;
#324 = CARTESIAN_POINT ( 'NONE',  ( 68.74999999999994316, 2.500000000000000000, 42.24999999999997158 ) ) ;
#325 = FACE_OUTER_BOUND ( 'NONE', #138, .T. ) ;
#326 = ORIENTED_EDGE ( 'NONE', *, *, #253, .T. ) ;
#327 = PRODUCT_CONTEXT ( 'NONE', #419, 'mechanical' ) ;
#328 = DIRECTION ( 'NONE',  ( 0.000000000000000000, 0.000000000000000000, -1.000000000000000000 ) ) ;
#329 = EDGE_CURVE ( 'NONE', #240, #320, #312, .T. ) ;
#330 = VECTOR ( 'NONE', #321, 1000.000000000000000 ) ;
#331 = DIRECTION ( 'NONE',  ( 0.000000000000000000, 0.000000000000000000, 1.000000000000000000 ) ) ;
#332 = ORIENTED_EDGE ( 'NONE', *, *, #317, .T. ) ;
#333 = VECTOR ( 'NONE', #149, 1000.000000000000000 ) ;
#334 = DIRECTION ( 'NONE',  ( -0.000000000000000000, -1.000000000000000000, -0.000000000000000000 ) ) ;
#335 = EDGE_LOOP ( 'NONE', ( #218, #172, #623, #587 ) ) ;
#336 = ADVANCED_FACE ( 'NONE', ( #585 ), #68, .T. ) ;
#337 = DIRECTION ( 'NONE',  ( -0.000000000000000000, 1.000000000000000000, -0.000000000000000000 ) ) ;
#338 = ORIENTED_EDGE ( 'NONE', *, *, #159, .T. ) ;
#339 = CARTESIAN_POINT ( 'NONE',  ( 68.74999999999994316, 2.500000000000000444, -42.25000000000002132 ) ) ;
#340 = DIRECTION ( 'NONE',  ( 0.000000000000000000, 0.000000000000000000, -1.000000000000000000 ) ) ;
#341 = EDGE_LOOP ( 'NONE', ( #447, #237, #580, #255 ) ) ;
#342 = VECTOR ( 'NONE', #478, 1000.000000000000000 ) ;
#343 = DIRECTION ( 'NONE',  ( 1.000000000000000000, -0.000000000000000000, 0.000000000000000000 ) ) ;
#344 = ADVANCED_FACE ( 'NONE', ( #202 ), #153, .F. ) ;
#345 = ORIENTED_EDGE ( 'NONE', *, *, #561, .F. ) ;
#346 = DIRECTION ( 'NONE',  ( -0.000000000000000000, -1.000000000000000000, -0.000000000000000000 ) ) ;
#347 = VERTEX_POINT ( 'NONE', #13 ) ;
#348 = PRODUCT_DEFINITION ( 'UNKNOWN', '', #424, #260 ) ;
#349 = DIRECTION ( 'NONE',  ( 0.000000000000000000, 0.000000000000000000, -1.000000000000000000 ) ) ;
#350 = ORIENTED_EDGE ( 'NONE', *, *, #188, .T. ) ;
#351 = CIRCLE ( 'NONE', #285, 1.999999999999994893 ) ;
#352 = CARTESIAN_POINT ( 'NONE',  ( 69.25000000000004263, 2.500000000000000000, 42.24999999999997158 ) ) ;
#353 = EDGE_LOOP ( 'NONE', ( #63, #574 ) ) ;
#354 = EDGE_CURVE ( 'NONE', #441, #426, #157, .T. ) ;
#355 = DIRECTION ( 'NONE',  ( 0.000000000000000000, 1.000000000000000000, 0.000000000000000000 ) ) ;
#356 = DIRECTION ( 'NONE',  ( -0.000000000000000000, -1.000000000000000000, -0.000000000000000000 ) ) ;
#357 = VECTOR ( 'NONE', #360, 1000.000000000000000 ) ;
#358 = PLANE ( 'NONE',  #600 ) ;
#359 = EDGE_LOOP ( 'NONE', ( #491, #81, #345, #526 ) ) ;
#360 = DIRECTION ( 'NONE',  ( -0.000000000000000000, 1.000000000000000000, -0.000000000000000000 ) ) ;
#361 = VECTOR ( 'NONE', #548, 1000.000000000000000 ) ;
#362 = FACE_OUTER_BOUND ( 'NONE', #341, .T. ) ;
#363 = ADVANCED_FACE ( 'NONE', ( #539 ), #537, .F. ) ;
#364 = ORIENTED_EDGE ( 'NONE', *, *, #299, .F. ) ;
#365 = PLANE ( 'NONE',  #369 ) ;
#366 = CARTESIAN_POINT ( 'NONE',  ( 75.24999999999997158, 0.000000000000000000, 45.24999999999997158 ) ) ;
#367 = ORIENTED_EDGE ( 'NONE', *, *, #198, .T. ) ;
#368 = DIRECTION ( 'NONE',  ( 0.000000000000000000, -1.000000000000000000, 0.000000000000000000 ) ) ;
#369 = AXIS2_PLACEMENT_3D ( 'NONE', #122, #423, #87 ) ;
#370 = CARTESIAN_POINT ( 'NONE',  ( -68.75000000000001421, 2.500000000000000000, 42.24999999999997158 ) ) ;
#371 = EDGE_LOOP ( 'NONE', ( #301, #134, #494, #377 ) ) ;
#372 = PLANE ( 'NONE',  #409 ) ;
#373 = CARTESIAN_POINT ( 'NONE',  ( -75.25000000000002842, 8.000000000000000000, 45.24999999999997158 ) ) ;
#374 = STYLED_ITEM ( 'NONE', ( #189 ), #169 ) ;
#375 = EDGE_CURVE ( 'NONE', #163, #280, #64, .T. ) ;
#376 = CARTESIAN_POINT ( 'NONE',  ( 0.000000000000000000, 8.000000000000000000, 0.000000000000000000 ) ) ;
#377 = ORIENTED_EDGE ( 'NONE', *, *, #281, .T. ) ;
#378 = CARTESIAN_POINT ( 'NONE',  ( 71.49999999999998579, -31.00000000000000711, -39.25000000000001421 ) ) ;
#379 =( NAMED_UNIT ( * ) PLANE_ANGLE_UNIT ( ) SI_UNIT ( $, .RADIAN. ) );
#380 = AXIS2_PLACEMENT_3D ( 'NONE', #113, #546, #493 ) ;
#381 = EDGE_LOOP ( 'NONE', ( #398, #522 ) ) ;
#382 = DIRECTION ( 'NONE',  ( 0.000000000000000000, 0.000000000000000000, 1.000000000000000000 ) ) ;
#383 = FACE_OUTER_BOUND ( 'NONE', #480, .T. ) ;
#384 = AXIS2_PLACEMENT_3D ( 'NONE', #213, #408, #298 ) ;
#385 = VERTEX_POINT ( 'NONE', #104 ) ;
#386 = EDGE_CURVE ( 'NONE', #487, #112, #593, .T. ) ;
#387 = VECTOR ( 'NONE', #412, 1000.000000000000000 ) ;
#388 = DIRECTION ( 'NONE',  ( 0.000000000000000000, 0.000000000000000000, -1.000000000000000000 ) ) ;
#389 = VERTEX_POINT ( 'NONE', #297 ) ;
#390 = LINE ( 'NONE', #583, #108 ) ;
#391 = ORIENTED_EDGE ( 'NONE', *, *, #226, .F. ) ;
#392 = VECTOR ( 'NONE', #282, 1000.000000000000000 ) ;
#393 = EDGE_CURVE ( 'NONE', #389, #594, #308, .T. ) ;
#394 = CARTESIAN_POINT ( 'NONE',  ( 68.74999999999994316, 8.000000000000000000, 42.24999999999997158 ) ) ;
#395 = ORIENTED_EDGE ( 'NONE', *, *, #272, .T. ) ;
#396 = AXIS2_PLACEMENT_3D ( 'NONE', #232, #266, #472 ) ;
#397 = DIRECTION ( 'NONE',  ( 0.000000000000000000, 0.000000000000000000, -1.000000000000000000 ) ) ;
#398 = ORIENTED_EDGE ( 'NONE', *, *, #33, .F. ) ;
#399 = FACE_OUTER_BOUND ( 'NONE', #422, .T. ) ;
#400 = ORIENTED_EDGE ( 'NONE', *, *, #481, .F. ) ;
#401 = CARTESIAN_POINT ( 'NONE',  ( 68.74999999999994316, 8.000000000000000000, -42.25000000000002132 ) ) ;
#402 = DIRECTION ( 'NONE',  ( -0.000000000000000000, -0.000000000000000000, 1.000000000000000000 ) ) ;
#403 = EDGE_CURVE ( 'NONE', #507, #112, #595, .T. ) ;
#404 = CARTESIAN_POINT ( 'NONE',  ( -71.50000000000001421, -31.00000000000000711, 39.25000000000002132 ) ) ;
#405 = ORIENTED_EDGE ( 'NONE', *, *, #41, .F. ) ;
#406 = ADVANCED_BREP_SHAPE_REPRESENTATION ( 'encoder-stand_PCB-bracket', ( #169, #66 ), #495 ) ;
#407 = FACE_OUTER_BOUND ( 'NONE', #144, .T. ) ;
#408 = DIRECTION ( 'NONE',  ( 0.000000000000000000, 0.000000000000000000, 1.000000000000000000 ) ) ;
#409 = AXIS2_PLACEMENT_3D ( 'NONE', #82, #474, #276 ) ;
#410 = ADVANCED_FACE ( 'NONE', ( #57 ), #306, .F. ) ;
#411 = CARTESIAN_POINT ( 'NONE',  ( 75.24999999999997158, 8.000000000000000000, 45.24999999999997158 ) ) ;
#412 = DIRECTION ( 'NONE',  ( -1.000000000000000000, 0.000000000000000000, 0.000000000000000000 ) ) ;
#413 = ORIENTED_EDGE ( 'NONE', *, *, #214, .F. ) ;
#414 = VECTOR ( 'NONE', #402, 1000.000000000000000 ) ;
#415 = CARTESIAN_POINT ( 'NONE',  ( 0.000000000000000000, 0.000000000000000000, 0.000000000000000000 ) ) ;
#416 = CIRCLE ( 'NONE', #70, 1.999999999999994893 ) ;
#417 = FACE_OUTER_BOUND ( 'NONE', #609, .T. ) ;
#418 = ORIENTED_EDGE ( 'NONE', *, *, #159, .F. ) ;
#419 = APPLICATION_CONTEXT ( 'automotive_design' ) ;
#420 = CARTESIAN_POINT ( 'NONE',  ( -71.50000000000001421, 0.000000000000000000, -39.24999999999999289 ) ) ;
#421 = CARTESIAN_POINT ( 'NONE',  ( -75.25000000000002842, 0.000000000000000000, 45.24999999999997158 ) ) ;
#422 = EDGE_LOOP ( 'NONE', ( #209, #418, #557, #200 ) ) ;
#423 = DIRECTION ( 'NONE',  ( 0.000000000000000000, 0.000000000000000000, -1.000000000000000000 ) ) ;
#424 = PRODUCT_DEFINITION_FORMATION_WITH_SPECIFIED_SOURCE ( 'ANY', '', #267, .NOT_KNOWN. ) ;
#425 = FACE_BOUND ( 'NONE', #536, .T. ) ;
#426 = VERTEX_POINT ( 'NONE', #258 ) ;
#427 = EDGE_CURVE ( 'NONE', #538, #625, #48, .T. ) ;
#428 = DIRECTION ( 'NONE',  ( 0.000000000000000000, 1.000000000000000000, 0.000000000000000000 ) ) ;
#429 = CIRCLE ( 'NONE', #141, 1.999999999999994893 ) ;
#430 = ORIENTED_EDGE ( 'NONE', *, *, #427, .T. ) ;
#431 = CARTESIAN_POINT ( 'NONE',  ( 69.25000000000004263, 2.500000000000000000, 42.24999999999997158 ) ) ;
#432 = ORIENTED_EDGE ( 'NONE', *, *, #86, .F. ) ;
#433 =( NAMED_UNIT ( * ) PLANE_ANGLE_UNIT ( ) SI_UNIT ( $, .RADIAN. ) );
#434 = ADVANCED_FACE ( 'NONE', ( #204, #501, #506, #62, #399 ), #358, .T. ) ;
#435 = CARTESIAN_POINT ( 'NONE',  ( 71.49999999999998579, -31.00000000000000711, -43.25000000000000711 ) ) ;
#436 = VECTOR ( 'NONE', #176, 1000.000000000000000 ) ;
#437 = EDGE_LOOP ( 'NONE', ( #326, #245, #405, #40 ) ) ;
#438 = CARTESIAN_POINT ( 'NONE',  ( 71.49999999999998579, 0.000000000000000000, -43.25000000000000711 ) ) ;
#439 = EDGE_LOOP ( 'NONE', ( #147, #391 ) ) ;
#440 = CARTESIAN_POINT ( 'NONE',  ( 71.49999999999998579, 0.000000000000000000, -41.25000000000000711 ) ) ;
#441 = VERTEX_POINT ( 'NONE', #79 ) ;
#442 = DIRECTION ( 'NONE',  ( -1.000000000000000000, -0.000000000000000000, -0.000000000000000000 ) ) ;
#443 = ORIENTED_EDGE ( 'NONE', *, *, #65, .F. ) ;
#444 = CIRCLE ( 'NONE', #166, 1.999999999999994893 ) ;
#445 = ADVANCED_FACE ( 'NONE', ( #558 ), #265, .F. ) ;
#446 = DIRECTION ( 'NONE',  ( 0.000000000000000000, 1.000000000000000000, 0.000000000000000000 ) ) ;
#447 = ORIENTED_EDGE ( 'NONE', *, *, #517, .T. ) ;
#448 = MECHANICAL_DESIGN_GEOMETRIC_PRESENTATION_REPRESENTATION (  '', ( #374 ), #262 ) ;
#449 = DIRECTION ( 'NONE',  ( 0.000000000000000000, 0.000000000000000000, 1.000000000000000000 ) ) ;
#450 = ORIENTED_EDGE ( 'NONE', *, *, #180, .T. ) ;
#451 = CARTESIAN_POINT ( 'NONE',  ( -68.75000000000001421, 2.500000000000000000, 42.24999999999997158 ) ) ;
#452 = ADVANCED_FACE ( 'NONE', ( #407 ), #601, .F. ) ;
#453 = EDGE_LOOP ( 'NONE', ( #307, #89 ) ) ;
#454 = VECTOR ( 'NONE', #461, 1000.000000000000000 ) ;
#455 = CARTESIAN_POINT ( 'NONE',  ( -71.50000000000001421, 8.000000000000000000, -41.24999999999998579 ) ) ;
#456 = ORIENTED_EDGE ( 'NONE', *, *, #55, .F. ) ;
#457 = CIRCLE ( 'NONE', #171, 1.999999999999994893 ) ;
#458 = LINE ( 'NONE', #394, #508 ) ;
#459 = ORIENTED_EDGE ( 'NONE', *, *, #139, .T. ) ;
#460 = EDGE_CURVE ( 'NONE', #100, #385, #168, .T. ) ;
#461 = DIRECTION ( 'NONE',  ( 0.000000000000000000, 0.000000000000000000, -1.000000000000000000 ) ) ;
#462 = DIRECTION ( 'NONE',  ( 0.000000000000000000, -1.000000000000000000, 0.000000000000000000 ) ) ;
#463 = DIRECTION ( 'NONE',  ( 0.000000000000000000, 0.000000000000000000, 1.000000000000000000 ) ) ;
#464 = DIRECTION ( 'NONE',  ( 0.000000000000000000, 1.000000000000000000, 0.000000000000000000 ) ) ;
#465 = ORIENTED_EDGE ( 'NONE', *, *, #3, .T. ) ;
#466 = VECTOR ( 'NONE', #277, 1000.000000000000000 ) ;
#467 = LINE ( 'NONE', #509, #613 ) ;
#468 = VECTOR ( 'NONE', #182, 1000.000000000000000 ) ;
#469 = CARTESIAN_POINT ( 'NONE',  ( 68.74999999999994316, 8.000000000000000000, -42.25000000000002132 ) ) ;
#470 = ORIENTED_EDGE ( 'NONE', *, *, #460, .F. ) ;
#471 = DIRECTION ( 'NONE',  ( 0.000000000000000000, 0.000000000000000000, 1.000000000000000000 ) ) ;
#472 = DIRECTION ( 'NONE',  ( 0.000000000000000000, 0.000000000000000000, 1.000000000000000000 ) ) ;
#473 = ADVANCED_FACE ( 'NONE', ( #311 ), #372, .T. ) ;
#474 = DIRECTION ( 'NONE',  ( -1.000000000000000000, 0.000000000000000000, 0.000000000000000000 ) ) ;
#475 = DIRECTION ( 'NONE',  ( -0.000000000000000000, 1.000000000000000000, -0.000000000000000000 ) ) ;
#476 = ORIENTED_EDGE ( 'NONE', *, *, #427, .F. ) ;
#477 =( NAMED_UNIT ( * ) SI_UNIT ( $, .STERADIAN. ) SOLID_ANGLE_UNIT ( ) );
#478 = DIRECTION ( 'NONE',  ( -0.000000000000000000, 1.000000000000000000, -0.000000000000000000 ) ) ;
#479 = AXIS2_PLACEMENT_3D ( 'NONE', #531, #570, #534 ) ;
#480 = EDGE_LOOP ( 'NONE', ( #443, #26, #102, #259 ) ) ;
#481 = EDGE_CURVE ( 'NONE', #163, #347, #467, .T. ) ;
#482 = LINE ( 'NONE', #339, #135 ) ;
#483 = CARTESIAN_POINT ( 'NONE',  ( 75.24999999999997158, 8.000000000000000000, 45.24999999999997158 ) ) ;
#484 = VERTEX_POINT ( 'NONE', #228 ) ;
#485 = CARTESIAN_POINT ( 'NONE',  ( -71.50000000000001421, 8.000000000000000000, -39.24999999999999289 ) ) ;
#486 = SURFACE_STYLE_USAGE ( .BOTH. , #46 ) ;
#487 = VERTEX_POINT ( 'NONE', #130 ) ;
#488 = CARTESIAN_POINT ( 'NONE',  ( -71.50000000000001421, 0.000000000000000000, 41.25000000000001421 ) ) ;
#489 = ORIENTED_EDGE ( 'NONE', *, *, #205, .T. ) ;
#490 = LINE ( 'NONE', #576, #151 ) ;
#491 = ORIENTED_EDGE ( 'NONE', *, *, #264, .T. ) ;
#492 = EDGE_CURVE ( 'NONE', #8, #97, #24, .T. ) ;
#493 = DIRECTION ( 'NONE',  ( 0.000000000000000000, 0.000000000000000000, 1.000000000000000000 ) ) ;
#494 = ORIENTED_EDGE ( 'NONE', *, *, #517, .F. ) ;
#495 =( GEOMETRIC_REPRESENTATION_CONTEXT ( 3 ) GLOBAL_UNCERTAINTY_ASSIGNED_CONTEXT ( ( #505 ) ) GLOBAL_UNIT_ASSIGNED_CONTEXT ( ( #95, #433, #477 ) ) REPRESENTATION_CONTEXT ( 'NONE', 'WORKASPACE' ) );
#496 = APPLICATION_CONTEXT ( 'automotive_design' ) ;
#497 = CARTESIAN_POINT ( 'NONE',  ( -68.75000000000001421, 8.000000000000000000, -42.25000000000002132 ) ) ;
#498 = VERTEX_POINT ( 'NONE', #420 ) ;
#499 = PRESENTATION_LAYER_ASSIGNMENT (  '', '', ( #374 ) ) ;
#500 = EDGE_CURVE ( 'NONE', #487, #8, #551, .T. ) ;
#501 = FACE_BOUND ( 'NONE', #603, .T. ) ;
#502 = ORIENTED_EDGE ( 'NONE', *, *, #20, .T. ) ;
#503 = LINE ( 'NONE', #497, #295 ) ;
#504 = VERTEX_POINT ( 'NONE', #555 ) ;
#505 = UNCERTAINTY_MEASURE_WITH_UNIT (LENGTH_MEASURE( 1.000000000000000082E-05 ), #95, 'distance_accuracy_value', 'NONE');
#506 = FACE_BOUND ( 'NONE', #353, .T. ) ;
#507 = VERTEX_POINT ( 'NONE', #324 ) ;
#508 = VECTOR ( 'NONE', #346, 1000.000000000000000 ) ;
#509 = CARTESIAN_POINT ( 'NONE',  ( -75.25000000000002842, 8.000000000000000000, 45.24999999999997158 ) ) ;
#510 = DIRECTION ( 'NONE',  ( 0.000000000000000000, 0.000000000000000000, -1.000000000000000000 ) ) ;
#511 = CARTESIAN_POINT ( 'NONE',  ( -71.50000000000001421, -31.00000000000000711, -41.24999999999998579 ) ) ;
#512 = DIRECTION ( 'NONE',  ( -0.000000000000000000, 1.000000000000000000, -0.000000000000000000 ) ) ;
#513 = ORIENTED_EDGE ( 'NONE', *, *, #152, .T. ) ;
#514 = DIRECTION ( 'NONE',  ( 0.000000000000000000, 0.000000000000000000, 1.000000000000000000 ) ) ;
#515 = DIRECTION ( 'NONE',  ( 0.000000000000000000, 1.000000000000000000, 0.000000000000000000 ) ) ;
#516 = ORIENTED_EDGE ( 'NONE', *, *, #55, .T. ) ;
#517 = EDGE_CURVE ( 'NONE', #347, #484, #278, .T. ) ;
#518 = DIRECTION ( 'NONE',  ( -0.000000000000000000, 1.000000000000000000, -0.000000000000000000 ) ) ;
#519 = CYLINDRICAL_SURFACE ( 'NONE', #396, 1.999999999999994893 ) ;
#520 = CARTESIAN_POINT ( 'NONE',  ( 71.49999999999998579, 0.000000000000000000, 41.24999999999999289 ) ) ;
#521 = PLANE ( 'NONE',  #275 ) ;
#522 = ORIENTED_EDGE ( 'NONE', *, *, #139, .F. ) ;
#523 = CARTESIAN_POINT ( 'NONE',  ( -71.50000000000001421, -31.00000000000000711, -39.24999999999999289 ) ) ;
#524 = EDGE_CURVE ( 'NONE', #320, #240, #444, .T. ) ;
#525 = CARTESIAN_POINT ( 'NONE',  ( -75.25000000000002842, 0.000000000000000000, 45.24999999999997158 ) ) ;
#526 = ORIENTED_EDGE ( 'NONE', *, *, #541, .T. ) ;
#527 = DIRECTION ( 'NONE',  ( 0.000000000000000000, 0.000000000000000000, 1.000000000000000000 ) ) ;
#528 = CARTESIAN_POINT ( 'NONE',  ( 71.49999999999998579, 0.000000000000000000, -39.25000000000001421 ) ) ;
#529 = ORIENTED_EDGE ( 'NONE', *, *, #329, .F. ) ;
#530 = LINE ( 'NONE', #378, #392 ) ;
#531 = CARTESIAN_POINT ( 'NONE',  ( -71.50000000000001421, 8.000000000000000000, 41.25000000000001421 ) ) ;
#532 = ORIENTED_EDGE ( 'NONE', *, *, #581, .T. ) ;
#533 = ADVANCED_FACE ( 'NONE', ( #219 ), #173, .F. ) ;
#534 = DIRECTION ( 'NONE',  ( 0.000000000000000000, 0.000000000000000000, 1.000000000000000000 ) ) ;
#535 = AXIS2_PLACEMENT_3D ( 'NONE', #431, #146, #43 ) ;
#536 = EDGE_LOOP ( 'NONE', ( #30, #54, #248, #287 ) ) ;
#537 = CYLINDRICAL_SURFACE ( 'NONE', #380, 1.999999999999994893 ) ;
#538 = VERTEX_POINT ( 'NONE', #115 ) ;
#539 = FACE_OUTER_BOUND ( 'NONE', #616, .T. ) ;
#540 = CARTESIAN_POINT ( 'NONE',  ( 68.74999999999994316, 8.000000000000000000, 42.24999999999997158 ) ) ;
#541 = EDGE_CURVE ( 'NONE', #484, #584, #165, .T. ) ;
#542 = DIRECTION ( 'NONE',  ( 0.000000000000000000, 0.000000000000000000, 1.000000000000000000 ) ) ;
#543 = ORIENTED_EDGE ( 'NONE', *, *, #103, .T. ) ;
#544 = AXIS2_PLACEMENT_3D ( 'NONE', #131, #174, #39 ) ;
#545 = AXIS2_PLACEMENT_3D ( 'NONE', #239, #199, #388 ) ;
#546 = DIRECTION ( 'NONE',  ( -0.000000000000000000, 1.000000000000000000, -0.000000000000000000 ) ) ;
#547 = ORIENTED_EDGE ( 'NONE', *, *, #329, .T. ) ;
#548 = DIRECTION ( 'NONE',  ( -0.000000000000000000, 1.000000000000000000, -0.000000000000000000 ) ) ;
#549 = FACE_OUTER_BOUND ( 'NONE', #197, .T. ) ;
#550 = VECTOR ( 'NONE', #160, 1000.000000000000000 ) ;
#551 = LINE ( 'NONE', #318, #330 ) ;
#552 = ADVANCED_FACE ( 'NONE', ( #314 ), #119, .F. ) ;
#553 = LINE ( 'NONE', #596, #604 ) ;
#554 = AXIS2_PLACEMENT_3D ( 'NONE', #591, #343, #397 ) ;
#555 = CARTESIAN_POINT ( 'NONE',  ( -71.50000000000001421, 0.000000000000000000, -43.24999999999998579 ) ) ;
#556 = CARTESIAN_POINT ( 'NONE',  ( 75.24999999999997158, 0.000000000000000000, 45.24999999999997158 ) ) ;
#557 = ORIENTED_EDGE ( 'NONE', *, *, #253, .F. ) ;
#558 = FACE_OUTER_BOUND ( 'NONE', #371, .T. ) ;
#559 = DIRECTION ( 'NONE',  ( 0.000000000000000000, 0.000000000000000000, 1.000000000000000000 ) ) ;
#560 = ORIENTED_EDGE ( 'NONE', *, *, #354, .F. ) ;
#561 = EDGE_CURVE ( 'NONE', #484, #389, #75, .T. ) ;
#562 = DIRECTION ( 'NONE',  ( 0.000000000000000000, 0.000000000000000000, -1.000000000000000000 ) ) ;
#563 = DIRECTION ( 'NONE',  ( 0.000000000000000000, 0.000000000000000000, 1.000000000000000000 ) ) ;
#564 = EDGE_LOOP ( 'NONE', ( #332, #19, #571, #513 ) ) ;
#565 = VECTOR ( 'NONE', #512, 1000.000000000000000 ) ;
#566 = DIRECTION ( 'NONE',  ( -0.000000000000000000, 1.000000000000000000, -0.000000000000000000 ) ) ;
#567 = LINE ( 'NONE', #274, #466 ) ;
#568 = PLANE ( 'NONE',  #582 ) ;
#569 = ADVANCED_FACE ( 'NONE', ( #28 ), #365, .F. ) ;
#570 = DIRECTION ( 'NONE',  ( 0.000000000000000000, 1.000000000000000000, 0.000000000000000000 ) ) ;
#571 = ORIENTED_EDGE ( 'NONE', *, *, #3, .F. ) ;
#572 = AXIS2_PLACEMENT_3D ( 'NONE', #273, #566, #463 ) ;
#573 = DIRECTION ( 'NONE',  ( -0.000000000000000000, -0.000000000000000000, 1.000000000000000000 ) ) ;
#574 = ORIENTED_EDGE ( 'NONE', *, *, #205, .F. ) ;
#575 = CIRCLE ( 'NONE', #302, 1.999999999999994893 ) ;
#576 = CARTESIAN_POINT ( 'NONE',  ( -75.25000000000002842, 0.000000000000000000, 45.24999999999997158 ) ) ;
#577 = COLOUR_RGB ( '',1.000000000000000000, 1.000000000000000000, 1.000000000000000000 ) ;
#578 = ORIENTED_EDGE ( 'NONE', *, *, #581, .F. ) ;
#579 = PLANE ( 'NONE',  #535 ) ;
#580 = ORIENTED_EDGE ( 'NONE', *, *, #41, .T. ) ;
#581 = EDGE_CURVE ( 'NONE', #290, #179, #530, .T. ) ;
#582 = AXIS2_PLACEMENT_3D ( 'NONE', #235, #91, #238 ) ;
#583 = CARTESIAN_POINT ( 'NONE',  ( -71.50000000000001421, -31.00000000000000711, -43.24999999999998579 ) ) ;
#584 = VERTEX_POINT ( 'NONE', #185 ) ;
#585 = FACE_OUTER_BOUND ( 'NONE', #564, .T. ) ;
#586 = AXIS2_PLACEMENT_3D ( 'NONE', #300, #446, #542 ) ;
#587 = ORIENTED_EDGE ( 'NONE', *, *, #500, .T. ) ;
#588 = CARTESIAN_POINT ( 'NONE',  ( 71.49999999999998579, 8.000000000000000000, -43.25000000000000711 ) ) ;
#589 = ADVANCED_FACE ( 'NONE', ( #621 ), #148, .F. ) ;
#590 = EDGE_LOOP ( 'NONE', ( #223, #459, #395, #543 ) ) ;
#591 = CARTESIAN_POINT ( 'NONE',  ( -75.25000000000002842, 8.000000000000000000, 45.24999999999997158 ) ) ;
#592 = ORIENTED_EDGE ( 'NONE', *, *, #292, .F. ) ;
#593 = LINE ( 'NONE', #101, #550 ) ;
#594 = VERTEX_POINT ( 'NONE', #288 ) ;
#595 = LINE ( 'NONE', #352, #6 ) ;
#596 = CARTESIAN_POINT ( 'NONE',  ( 68.74999999999994316, 8.000000000000000000, -42.25000000000002132 ) ) ;
#597 = ADVANCED_FACE ( 'NONE', ( #45 ), #568, .T. ) ;
#598 = DIRECTION ( 'NONE',  ( 1.000000000000000000, 0.000000000000000000, 0.000000000000000000 ) ) ;
#599 = FACE_OUTER_BOUND ( 'NONE', #359, .T. ) ;
#600 = AXIS2_PLACEMENT_3D ( 'NONE', #415, #125, #32 ) ;
#601 = CYLINDRICAL_SURFACE ( 'NONE', #572, 1.999999999999994893 ) ;
#602 = CARTESIAN_POINT ( 'NONE',  ( 71.49999999999998579, -31.00000000000000711, 39.25000000000000000 ) ) ;
#603 = EDGE_LOOP ( 'NONE', ( #529, #109 ) ) ;
#604 = VECTOR ( 'NONE', #356, 1000.000000000000000 ) ;
#605 = AXIS2_PLACEMENT_3D ( 'NONE', #7, #624, #331 ) ;
#606 = DIRECTION ( 'NONE',  ( -0.000000000000000000, -1.000000000000000000, -0.000000000000000000 ) ) ;
#607 = CARTESIAN_POINT ( 'NONE',  ( -75.25000000000002842, 8.000000000000000000, 45.24999999999997158 ) ) ;
#608 = EDGE_CURVE ( 'NONE', #242, #17, #482, .T. ) ;
#609 = EDGE_LOOP ( 'NONE', ( #5, #294, #211, #502 ) ) ;
#610 = DIRECTION ( 'NONE',  ( -0.000000000000000000, 1.000000000000000000, -0.000000000000000000 ) ) ;
#611 = DIRECTION ( 'NONE',  ( 0.000000000000000000, 0.000000000000000000, 1.000000000000000000 ) ) ;
#612 = ORIENTED_EDGE ( 'NONE', *, *, #94, .T. ) ;
#613 = VECTOR ( 'NONE', #598, 1000.000000000000000 ) ;
#614 = DIRECTION ( 'NONE',  ( -1.000000000000000000, 0.000000000000000000, 0.000000000000000000 ) ) ;
#615 = DIRECTION ( 'NONE',  ( 0.000000000000000000, -1.000000000000000000, 0.000000000000000000 ) ) ;
#616 = EDGE_LOOP ( 'NONE', ( #413, #257, #532, #150 ) ) ;
#617 = CIRCLE ( 'NONE', #479, 1.999999999999994893 ) ;
#618 = APPLICATION_PROTOCOL_DEFINITION ( 'draft international standard', 'automotive_design', 1998, #496 ) ;
#619 = FACE_BOUND ( 'NONE', #453, .T. ) ;
#620 = ORIENTED_EDGE ( 'NONE', *, *, #246, .F. ) ;
#621 = FACE_OUTER_BOUND ( 'NONE', #590, .T. ) ;
#622 = FILL_AREA_STYLE_COLOUR ( '', #577 ) ;
#623 = ORIENTED_EDGE ( 'NONE', *, *, #386, .F. ) ;
#624 = DIRECTION ( 'NONE',  ( 0.000000000000000000, 1.000000000000000000, 0.000000000000000000 ) ) ;
#625 = VERTEX_POINT ( 'NONE', #485 ) ;
ENDSEC;
END-ISO-10303-21;
