ISO-10303-21;
HEADER;
FILE_DESCRIPTION (( 'STEP AP214' ),
    '1' );
FILE_NAME ('encoder-stand_flange-support-assy.STEP',
    '2026-01-08T13:34:33',
    ( '' ),
    ( '' ),
    'SwSTEP 2.0',
    'SolidWorks 2025',
    '' );
FILE_SCHEMA (( 'AUTOMOTIVE_DESIGN' ));
ENDSEC;

DATA;
#1 = ROLE_ASSOCIATION ( #329, #245 ) ;
#2 = PRODUCT_DEFINITION_CONTEXT ( 'detailed design', #72, 'design' ) ;
#3 = DIRECTION ( 'NONE',  ( -0.02926272740699953009, -1.969509904973790635E-19, 0.9995717546953314381 ) ) ;
#4 = PRODUCT_DEFINITION_SHAPE ( 'NONE', 'NONE',  #349 ) ;
#5 = PROPERTY_DEFINITION_REPRESENTATION ( #23, #16 ) ;
#6 = DIRECTION ( 'NONE',  ( 0.02925754047247107470, 0.01882754679588249588, -0.9993945766348498738 ) ) ;
#7 = AXIS2_PLACEMENT_3D ( 'NONE', #399, #59, #153 ) ;
#8 = CONTEXT_DEPENDENT_SHAPE_REPRESENTATION ( #350, #331 ) ;
#9 = PRODUCT ( 'encoder-stand_flange-support-assy', 'encoder-stand_flange-support-assy', '', ( #383 ) ) ;
#10 = APPLIED_DOCUMENT_REFERENCE ( #79,'',( #105) ) ;
#11 = CONTEXT_DEPENDENT_SHAPE_REPRESENTATION ( #258, #335 ) ;
#12 = OBJECT_ROLE ('mandatory',$ ) ;
#13 = PROPERTY_DEFINITION ('external definition','', #143 ) ;
#14 = CONTEXT_DEPENDENT_SHAPE_REPRESENTATION ( #118, #246 ) ;
#15 = EXTERNAL_SOURCE (IDENTIFIER('') ) ;
#16 = SHAPE_REPRESENTATION ( 'socket head cap screw 4762_din_EN ISO 4762 M3 x 25 - 18S', ( #348 ), #109 ) ;
#17 = DOCUMENT_TYPE ( 'geometry' ) ;
#18 = PROPERTY_DEFINITION ('document property','', #378 ) ;
#19 = AXIS2_PLACEMENT_3D ( 'NONE', #312, #340, #406 ) ;
#20 = APPLIED_EXTERNAL_IDENTIFICATION_ASSIGNMENT ( 'Insert M3 D5 L5mm_(mod).STEP' , #30, #113,( #110) ) ;
#21 = PROPERTY_DEFINITION_REPRESENTATION ( #294, #251 ) ;
#22 = EXTERNAL_SOURCE (IDENTIFIER('') ) ;
#23 = PROPERTY_DEFINITION ('external definition','', #272 ) ;
#24 = CARTESIAN_POINT ( 'NONE',  ( 1012.189379283657331, 1057.250450748619869, 1032.540086114888936 ) ) ;
#25 = IDENTIFICATION_ROLE ( 'external document id and location', $) ;
#26 = SHAPE_REPRESENTATION ( 'encoder-stand_flange-support-assy', ( #302, #362, #121, #97, #213, #259, #290, #196, #326, #19, #384, #253, #235, #226, #427, #188, #187 ), #244 ) ;
#27 = CARTESIAN_POINT ( 'NONE',  ( 1016.187666302438743, 1106.250450748580306, 1032.657137024516942 ) ) ;
#28 = UNCERTAINTY_MEASURE_WITH_UNIT (LENGTH_MEASURE( 1.000000000000000082E-05 ), #231, 'distance_accuracy_value', 'NONE');
#29 = DIRECTION ( 'NONE',  ( -0.8371691043312226022, -1.565191228741354158E-30, -0.5469441386039888275 ) ) ;
#30 = IDENTIFICATION_ROLE ( 'external document id and location', $) ;
#31 = PROPERTY_DEFINITION ('document property','', #164 ) ;
#32 = CONTEXT_DEPENDENT_SHAPE_REPRESENTATION ( #429, #146 ) ;
#33 = CARTESIAN_POINT ( 'NONE',  ( 1011.487073825888956, 1053.250450748580306, 1056.529808227576723 ) ) ;
#34 = APPLIED_DOCUMENT_REFERENCE ( #237,'',( #105) ) ;
#35 = IDENTIFICATION_ROLE ( 'external document id and location', $) ;
#36 = DIRECTION ( 'NONE',  ( 0.9995717546953314381, 3.469446951953604328E-17, 0.02926272740699849620 ) ) ;
#37 = IDENTIFICATION_ROLE ( 'external document id and location', $) ;
#38 = APPLICATION_CONTEXT ( 'automotive_design' ) ;
#39 = PROPERTY_DEFINITION_REPRESENTATION ( #201, #83 ) ;
#40 = OBJECT_ROLE ('mandatory',$ ) ;
#41 = CONTEXT_DEPENDENT_SHAPE_REPRESENTATION ( #273, #145 ) ;
#42 = DIRECTION ( 'NONE',  ( -0.1241928325718589660, 0.9922514406419563615, -0.003635778010315021073 ) ) ;
#43 = IDENTIFICATION_ROLE ( 'external document id and location', $) ;
#44 = ITEM_DEFINED_TRANSFORMATION ( 'NONE', 'NONE', #226,  #401 ) ;
#45 = CONTEXT_DEPENDENT_SHAPE_REPRESENTATION ( #208, #130 ) ;
#46 = CARTESIAN_POINT ( 'NONE',  ( 1011.487073825889411, 1113.250450748580306, 1056.529808227576950 ) ) ;
#47 = CONTEXT_DEPENDENT_SHAPE_REPRESENTATION ( #60, #223 ) ;
#48 = APPLICATION_PROTOCOL_DEFINITION ( 'draft international standard', 'automotive_design', 1998, #334 ) ;
#49 = DOCUMENT_TYPE ( 'geometry' ) ;
#50 = PROPERTY_DEFINITION_REPRESENTATION ( #218, #83 ) ;
#51 = PRODUCT_DEFINITION_FORMATION_WITH_SPECIFIED_SOURCE ( 'Symmetric', '', #206, .NOT_KNOWN. ) ;
#52 = CARTESIAN_POINT ( 'NONE',  ( 0.000000000000000000, 0.000000000000000000, 0.000000000000000000 ) ) ;
#53 = DIRECTION ( 'NONE',  ( 0.000000000000000000, 0.000000000000000000, 1.000000000000000000 ) ) ;
#54 = PRODUCT_DEFINITION_SHAPE ( 'NONE', 'NONE',  #438 ) ;
#55 = PROPERTY_DEFINITION ('document property','', #423 ) ;
#56 = APPLICATION_CONTEXT ( 'automotive_design' ) ;
#57 = PROPERTY_DEFINITION_REPRESENTATION ( #402, #83 ) ;
#58 = PRODUCT_DEFINITION_FORMATION_WITH_SPECIFIED_SOURCE ( 'Symmetric', '', #191, .NOT_KNOWN. ) ;
#59 = DIRECTION ( 'NONE',  ( 0.000000000000000000, 0.000000000000000000, 1.000000000000000000 ) ) ;
#60 =( REPRESENTATION_RELATIONSHIP ('NONE','NONE', #26, #83 ) REPRESENTATION_RELATIONSHIP_WITH_TRANSFORMATION ( #322 )SHAPE_REPRESENTATION_RELATIONSHIP( ) );
#61 = PRODUCT_DEFINITION_SHAPE ( 'NONE', 'NONE',  #341 ) ;
#62 = DOCUMENT_FILE ( 'socket head cap screw 4762_din_EN ISO 4762 M3 x 25 - 18S.STEP' , '', '', #119, '' ,$ ) ;
#63 = PROPERTY_DEFINITION_REPRESENTATION ( #238, #16 ) ;
#64 =( REPRESENTATION_RELATIONSHIP ('NONE','NONE', #26, #16 ) REPRESENTATION_RELATIONSHIP_WITH_TRANSFORMATION ( #276 )SHAPE_REPRESENTATION_RELATIONSHIP( ) );
#65 = DIRECTION ( 'NONE',  ( 1.000000000000000000, 0.000000000000000000, 0.000000000000000000 ) ) ;
#66 = DOCUMENT_TYPE ( 'geometry' ) ;
#67 = UNCERTAINTY_MEASURE_WITH_UNIT (LENGTH_MEASURE( 1.000000000000000082E-05 ), #88, 'distance_accuracy_value', 'NONE');
#68 = DIRECTION ( 'NONE',  ( 3.538835890992686473E-16, -3.541998152951815947E-16, 1.000000000000000222 ) ) ;
#69 = PRODUCT_RELATED_PRODUCT_CATEGORY ( 'part', '', ( #9 ) ) ;
#70 = PRODUCT_DEFINITION_SHAPE ( 'NONE', 'NONE',  #431 ) ;
#71 = CARTESIAN_POINT ( 'NONE',  ( 1016.187666302437833, 1077.250450748580761, 1032.657137024516487 ) ) ;
#72 = APPLICATION_CONTEXT ( 'automotive_design' ) ;
#73 = EXTERNAL_SOURCE (IDENTIFIER('') ) ;
#74 = APPLIED_DOCUMENT_REFERENCE ( #143,'',( #105) ) ;
#75 =( LENGTH_UNIT ( ) NAMED_UNIT ( * ) SI_UNIT ( .MILLI., .METRE. ) );
#76 = ITEM_DEFINED_TRANSFORMATION ( 'NONE', 'NONE', #427,  #401 ) ;
#77 = PROPERTY_DEFINITION_REPRESENTATION ( #155, #83 ) ;
#78 = EXTERNAL_SOURCE (IDENTIFIER('') ) ;
#79 = DOCUMENT_FILE ( 'Insert M3 D5 L5mm_(mod).STEP' , '', '', #297, '' ,$ ) ;
#80 =( REPRESENTATION_RELATIONSHIP ('NONE','NONE', #26, #83 ) REPRESENTATION_RELATIONSHIP_WITH_TRANSFORMATION ( #339 )SHAPE_REPRESENTATION_RELATIONSHIP( ) );
#81 = IDENTIFICATION_ROLE ( 'external document id and location', $) ;
#82 = PROPERTY_DEFINITION_REPRESENTATION ( #422, #83 ) ;
#83 = SHAPE_REPRESENTATION ( 'Insert M3 D5 L5mm_(mod)', ( #401 ), #170 ) ;
#84 = PRODUCT_DEFINITION_FORMATION_WITH_SPECIFIED_SOURCE ( 'Symmetric', '', #227, .NOT_KNOWN. ) ;
#85 = APPLIED_EXTERNAL_IDENTIFICATION_ASSIGNMENT ( 'Insert M3 D5 L5mm_(mod).STEP' , #275, #397,( #255) ) ;
#86 = SHAPE_DEFINITION_REPRESENTATION ( #61, #16 ) ;
#87 = EXTERNAL_SOURCE (IDENTIFIER('') ) ;
#88 =( LENGTH_UNIT ( ) NAMED_UNIT ( * ) SI_UNIT ( .MILLI., .METRE. ) );
#89 =( NAMED_UNIT ( * ) SI_UNIT ( $, .STERADIAN. ) SOLID_ANGLE_UNIT ( ) );
#90 = PRODUCT_CONTEXT ( 'NONE', #315, 'mechanical' ) ;
#91 = DOCUMENT_FILE ( 'socket head cap screw 4762_din_EN ISO 4762 M3 x 25 - 18S.STEP' , '', '', #328, '' ,$ ) ;
#92 =( REPRESENTATION_RELATIONSHIP ('NONE','NONE', #26, #251 ) REPRESENTATION_RELATIONSHIP_WITH_TRANSFORMATION ( #367 )SHAPE_REPRESENTATION_RELATIONSHIP( ) );
#93 = PROPERTY_DEFINITION ('document property','', #110 ) ;
#94 = PROPERTY_DEFINITION_REPRESENTATION ( #124, #83 ) ;
#95 = CARTESIAN_POINT ( 'NONE',  ( 0.000000000000000000, 0.000000000000000000, 0.000000000000000000 ) ) ;
#96 = PROPERTY_DEFINITION_REPRESENTATION ( #224, #16 ) ;
#97 = AXIS2_PLACEMENT_3D ( 'NONE', #106, #68, #137 ) ;
#98 = PROPERTY_DEFINITION ('document property','', #237 ) ;
#99 = ITEM_DEFINED_TRANSFORMATION ( 'NONE', 'NONE', #259,  #401 ) ;
#100 = DIRECTION ( 'NONE',  ( 0.01022348548551574657, -3.537154915074851166E-16, 0.9999477388066477790 ) ) ;
#101 = IDENTIFICATION_ROLE ( 'external document id and location', $) ;
#102 = ROLE_ASSOCIATION ( #165, #131 ) ;
#103 = PRODUCT_DEFINITION_SHAPE ( 'NONE', 'NONE',  #433 ) ;
#104 = DOCUMENT_TYPE ( 'geometry' ) ;
#105 = PRODUCT_DEFINITION ( 'General', '', #321, #403 ) ;
#106 = CARTESIAN_POINT ( 'NONE',  ( 1008.191092264876033, 1106.250450748580306, 1032.423035205260703 ) ) ;
#107 = PROPERTY_DEFINITION_REPRESENTATION ( #13, #83 ) ;
#108 = PRODUCT_DEFINITION ( 'General', '', #395, #175 ) ;
#109 =( GEOMETRIC_REPRESENTATION_CONTEXT ( 3 ) GLOBAL_UNCERTAINTY_ASSIGNED_CONTEXT ( ( #417 ) ) GLOBAL_UNIT_ASSIGNED_CONTEXT ( ( #195, #368, #89 ) ) REPRESENTATION_CONTEXT ( 'NONE', 'WORKASPACE' ) );
#110 = DOCUMENT_FILE ( 'Insert M3 D5 L5mm_(mod).STEP' , '', '', #104, '' ,$ ) ;
#111 = PRODUCT ( 'Insert M3 D5 L5mm_(mod)', 'Insert M3 D5 L5mm_(mod)', '', ( #299 ) ) ;
#112 = PRODUCT_RELATED_PRODUCT_CATEGORY ( 'part', '', ( #191 ) ) ;
#113 = EXTERNAL_SOURCE (IDENTIFIER('') ) ;
#114 = PRODUCT_DEFINITION_SHAPE ( 'NONE', 'NONE',  #435 ) ;
#115 = APPLIED_EXTERNAL_IDENTIFICATION_ASSIGNMENT ( 'Insert M3 D5 L5mm_(mod).STEP' , #222, #256,( #79) ) ;
#116 = PRODUCT_CONTEXT ( 'NONE', #139, 'mechanical' ) ;
#117 = SHAPE_DEFINITION_REPRESENTATION ( #418, #83 ) ;
#118 =( REPRESENTATION_RELATIONSHIP ('NONE','NONE', #26, #83 ) REPRESENTATION_RELATIONSHIP_WITH_TRANSFORMATION ( #424 )SHAPE_REPRESENTATION_RELATIONSHIP( ) );
#119 = DOCUMENT_TYPE ( 'geometry' ) ;
#120 = DIRECTION ( 'NONE',  ( 0.000000000000000000, 0.000000000000000000, 1.000000000000000000 ) ) ;
#121 = AXIS2_PLACEMENT_3D ( 'NONE', #27, #100, #314 ) ;
#122 = PRODUCT_CONTEXT ( 'NONE', #323, 'mechanical' ) ;
#123 = APPLIED_EXTERNAL_IDENTIFICATION_ASSIGNMENT ( 'Insert M3 D5 L5mm_(mod).STEP' , #157, #408,( #423) ) ;
#124 = PROPERTY_DEFINITION ('external definition','', #237 ) ;
#125 = DIRECTION ( 'NONE',  ( 1.000000000000000000, 0.000000000000000000, 0.000000000000000000 ) ) ;
#126 = SHAPE_DEFINITION_REPRESENTATION ( #365, #26 ) ;
#127 =( NAMED_UNIT ( * ) SI_UNIT ( $, .STERADIAN. ) SOLID_ANGLE_UNIT ( ) );
#128 = EXTERNAL_SOURCE (IDENTIFIER('') ) ;
#129 = DOCUMENT_TYPE ( 'geometry' ) ;
#130 = PRODUCT_DEFINITION_SHAPE ( 'NONE', 'NONE',  #440 ) ;
#131 = APPLIED_DOCUMENT_REFERENCE ( #351,'',( #105) ) ;
#132 = UNCERTAINTY_MEASURE_WITH_UNIT (LENGTH_MEASURE( 1.000000000000000082E-05 ), #149, 'distance_accuracy_value', 'NONE');
#133 = ROLE_ASSOCIATION ( #392, #313 ) ;
#134 = DIRECTION ( 'NONE',  ( -0.9242245927363031965, -1.773614225680217522E-16, 0.3818493186865927203 ) ) ;
#135 = CARTESIAN_POINT ( 'NONE',  ( 1006.786481349340079, 1077.250450748580761, 1080.402479430636959 ) ) ;
#136 = ITEM_DEFINED_TRANSFORMATION ( 'NONE', 'NONE', #196,  #348 ) ;
#137 = DIRECTION ( 'NONE',  ( 4.556302088214911798E-17, -1.000000000000000000, -3.541998152951878070E-16 ) ) ;
#138 = PROPERTY_DEFINITION_REPRESENTATION ( #31, #269 ) ;
#139 = APPLICATION_CONTEXT ( 'automotive_design' ) ;
#140 = APPLIED_EXTERNAL_IDENTIFICATION_ASSIGNMENT ( 'encoder-stand_flange-support-bottom.STEP' , #163, #128,( #164) ) ;
#141 = ROLE_ASSOCIATION ( #295, #217 ) ;
#142 = IDENTIFICATION_ROLE ( 'external document id and location', $) ;
#143 = DOCUMENT_FILE ( 'Insert M3 D5 L5mm_(mod).STEP' , '', '', #129, '' ,$ ) ;
#144 = APPLIED_DOCUMENT_REFERENCE ( #164,'',( #349) ) ;
#145 = PRODUCT_DEFINITION_SHAPE ( 'NONE', 'NONE',  #439 ) ;
#146 = PRODUCT_DEFINITION_SHAPE ( 'NONE', 'NONE',  #436 ) ;
#147 = PROPERTY_DEFINITION_REPRESENTATION ( #173, #251 ) ;
#148 = DIRECTION ( 'NONE',  ( 0.000000000000000000, 0.000000000000000000, 1.000000000000000000 ) ) ;
#149 =( LENGTH_UNIT ( ) NAMED_UNIT ( * ) SI_UNIT ( .MILLI., .METRE. ) );
#150 = OBJECT_ROLE ('mandatory',$ ) ;
#151 = ITEM_DEFINED_TRANSFORMATION ( 'NONE', 'NONE', #121,  #348 ) ;
#152 = EXTERNAL_SOURCE (IDENTIFIER('') ) ;
#153 = DIRECTION ( 'NONE',  ( 1.000000000000000000, 0.000000000000000000, 0.000000000000000000 ) ) ;
#154 = PROPERTY_DEFINITION_REPRESENTATION ( #172, #83 ) ;
#155 = PROPERTY_DEFINITION ('document property','', #79 ) ;
#156 = APPLIED_EXTERNAL_IDENTIFICATION_ASSIGNMENT ( 'Insert M3 D5 L5mm_(mod).STEP' , #37, #15,( #143) ) ;
#157 = IDENTIFICATION_ROLE ( 'external document id and location', $) ;
#158 = PRODUCT_DEFINITION_SHAPE ( 'NONE', 'NONE',  #298 ) ;
#159 = PRODUCT_RELATED_PRODUCT_CATEGORY ( 'part', '', ( #206 ) ) ;
#160 = PROPERTY_DEFINITION_REPRESENTATION ( #366, #269 ) ;
#161 = DIRECTION ( 'NONE',  ( 0.9995717546953303279, 6.766528517669771186E-14, 0.02926272740703907138 ) ) ;
#162 = OBJECT_ROLE ('mandatory',$ ) ;
#163 = IDENTIFICATION_ROLE ( 'external document id and location', $) ;
#164 = DOCUMENT_FILE ( 'encoder-stand_flange-support-bottom.STEP' , '', '', #220, '' ,$ ) ;
#165 = OBJECT_ROLE ('mandatory',$ ) ;
#166 =( NAMED_UNIT ( * ) SI_UNIT ( $, .STERADIAN. ) SOLID_ANGLE_UNIT ( ) );
#167 = OBJECT_ROLE ('mandatory',$ ) ;
#168 = OBJECT_ROLE ('mandatory',$ ) ;
#169 = CONTEXT_DEPENDENT_SHAPE_REPRESENTATION ( #64, #103 ) ;
#170 =( GEOMETRIC_REPRESENTATION_CONTEXT ( 3 ) GLOBAL_UNCERTAINTY_ASSIGNED_CONTEXT ( ( #189 ) ) GLOBAL_UNIT_ASSIGNED_CONTEXT ( ( #75, #412, #166 ) ) REPRESENTATION_CONTEXT ( 'NONE', 'WORKASPACE' ) );
#171 = DIRECTION ( 'NONE',  ( -0.8371691043312226022, -1.565191228741354158E-30, -0.5469441386039888275 ) ) ;
#172 = PROPERTY_DEFINITION ('external definition','', #192 ) ;
#173 = PROPERTY_DEFINITION ('document property','', #398 ) ;
#174 = PROPERTY_DEFINITION_REPRESENTATION ( #338, #16 ) ;
#175 = PRODUCT_DEFINITION_CONTEXT ( 'detailed design', #182, 'design' ) ;
#176 = DIRECTION ( 'NONE',  ( 4.556302088214911798E-17, -1.000000000000000000, -3.541998152951878070E-16 ) ) ;
#177 = OBJECT_ROLE ('mandatory',$ ) ;
#178 = PROPERTY_DEFINITION ('document property','', #250 ) ;
#179 = DIRECTION ( 'NONE',  ( -0.02831286624011061098, 0.2527170113718939515, 0.9671258934433137888 ) ) ;
#180 = DOCUMENT_TYPE ( 'geometry' ) ;
#181 = APPLIED_DOCUMENT_REFERENCE ( #423,'',( #105) ) ;
#182 = APPLICATION_CONTEXT ( 'automotive_design' ) ;
#183 = APPLIED_EXTERNAL_IDENTIFICATION_ASSIGNMENT ( 'socket head cap screw 4762_din_EN ISO 4762 M3 x 25 - 18S.STEP' , #309, #281,( #272) ) ;
#184 = PROPERTY_DEFINITION_REPRESENTATION ( #209, #83 ) ;
#185 = ROLE_ASSOCIATION ( #266, #221 ) ;
#186 = CARTESIAN_POINT ( 'NONE',  ( 1013.454635096444235, 1067.250450748580079, 1040.580554243561437 ) ) ;
#187 = AXIS2_PLACEMENT_3D ( 'NONE', #336, #325, #270 ) ;
#188 = AXIS2_PLACEMENT_3D ( 'NONE', #186, #292, #425 ) ;
#189 = UNCERTAINTY_MEASURE_WITH_UNIT (LENGTH_MEASURE( 1.000000000000000082E-05 ), #75, 'distance_accuracy_value', 'NONE');
#190 = CONTEXT_DEPENDENT_SHAPE_REPRESENTATION ( #233, #377 ) ;
#191 = PRODUCT ( 'socket head cap screw 4762_din_EN ISO 4762 M3 x 25 - 18S', 'socket head cap screw 4762_din_EN ISO 4762 M3 x 25 - 18S', '', ( #116 ) ) ;
#192 = DOCUMENT_FILE ( 'Insert M3 D5 L5mm_(mod).STEP' , '', '', #293, '' ,$ ) ;
#193 = APPLICATION_PROTOCOL_DEFINITION ( 'draft international standard', 'automotive_design', 1998, #38 ) ;
#194 = APPLICATION_PROTOCOL_DEFINITION ( 'draft international standard', 'automotive_design', 1998, #228 ) ;
#195 =( LENGTH_UNIT ( ) NAMED_UNIT ( * ) SI_UNIT ( .MILLI., .METRE. ) );
#196 = AXIS2_PLACEMENT_3D ( 'NONE', #241, #274, #176 ) ;
#197 = APPLICATION_PROTOCOL_DEFINITION ( 'draft international standard', 'automotive_design', 1998, #265 ) ;
#198 =( REPRESENTATION_RELATIONSHIP ('NONE','NONE', #26, #269 ) REPRESENTATION_RELATIONSHIP_WITH_TRANSFORMATION ( #311 )SHAPE_REPRESENTATION_RELATIONSHIP( ) );
#199 = ROLE_ASSOCIATION ( #229, #330 ) ;
#200 = DIRECTION ( 'NONE',  ( 1.000000000000000000, 0.000000000000000000, 0.000000000000000000 ) ) ;
#201 = PROPERTY_DEFINITION ('external definition','', #110 ) ;
#202 = SHAPE_DEFINITION_REPRESENTATION ( #4, #269 ) ;
#203 = PROPERTY_DEFINITION ('document property','', #389 ) ;
#204 = APPLIED_EXTERNAL_IDENTIFICATION_ASSIGNMENT ( 'Insert M3 D5 L5mm_(mod).STEP' , #25, #73,( #389) ) ;
#205 = ROLE_ASSOCIATION ( #12, #404 ) ;
#206 = PRODUCT ( 'encoder-stand_flange-support-top', 'encoder-stand_flange-support-top', '', ( #90 ) ) ;
#207 = IDENTIFICATION_ROLE ( 'external document id and location', $) ;
#208 =( REPRESENTATION_RELATIONSHIP ('NONE','NONE', #26, #83 ) REPRESENTATION_RELATIONSHIP_WITH_TRANSFORMATION ( #318 )SHAPE_REPRESENTATION_RELATIONSHIP( ) );
#209 = PROPERTY_DEFINITION ('external definition','', #250 ) ;
#210 = CONTEXT_DEPENDENT_SHAPE_REPRESENTATION ( #80, #54 ) ;
#211 = CARTESIAN_POINT ( 'NONE',  ( 1014.783055386902333, 1077.250450748580988, 1080.636581249892743 ) ) ;
#212 = PRODUCT_RELATED_PRODUCT_CATEGORY ( 'part', '', ( #111 ) ) ;
#213 = AXIS2_PLACEMENT_3D ( 'NONE', #33, #3, #278 ) ;
#214 =( NAMED_UNIT ( * ) SI_UNIT ( $, .STERADIAN. ) SOLID_ANGLE_UNIT ( ) );
#215 = DIRECTION ( 'NONE',  ( -0.8371691043312226022, -1.565191228741354158E-30, -0.5469441386039888275 ) ) ;
#216 = DOCUMENT_TYPE ( 'geometry' ) ;
#217 = APPLIED_DOCUMENT_REFERENCE ( #110,'',( #105) ) ;
#218 = PROPERTY_DEFINITION ('document property','', #192 ) ;
#219 =( GEOMETRIC_REPRESENTATION_CONTEXT ( 3 ) GLOBAL_UNCERTAINTY_ASSIGNED_CONTEXT ( ( #28 ) ) GLOBAL_UNIT_ASSIGNED_CONTEXT ( ( #231, #300, #127 ) ) REPRESENTATION_CONTEXT ( 'NONE', 'WORKASPACE' ) );
#220 = DOCUMENT_TYPE ( 'geometry' ) ;
#221 = APPLIED_DOCUMENT_REFERENCE ( #389,'',( #105) ) ;
#222 = IDENTIFICATION_ROLE ( 'external document id and location', $) ;
#223 = PRODUCT_DEFINITION_SHAPE ( 'NONE', 'NONE',  #446 ) ;
#224 = PROPERTY_DEFINITION ('document property','', #91 ) ;
#225 = PROPERTY_DEFINITION_REPRESENTATION ( #289, #83 ) ;
#226 = AXIS2_PLACEMENT_3D ( 'NONE', #285, #249, #387 ) ;
#227 = PRODUCT ( 'encoder-stand_flange-support-bottom', 'encoder-stand_flange-support-bottom', '', ( #122 ) ) ;
#228 = APPLICATION_CONTEXT ( 'automotive_design' ) ;
#229 = OBJECT_ROLE ('mandatory',$ ) ;
#230 =( GEOMETRIC_REPRESENTATION_CONTEXT ( 3 ) GLOBAL_UNCERTAINTY_ASSIGNED_CONTEXT ( ( #132 ) ) GLOBAL_UNIT_ASSIGNED_CONTEXT ( ( #149, #232, #214 ) ) REPRESENTATION_CONTEXT ( 'NONE', 'WORKASPACE' ) );
#231 =( LENGTH_UNIT ( ) NAMED_UNIT ( * ) SI_UNIT ( .MILLI., .METRE. ) );
#232 =( NAMED_UNIT ( * ) PLANE_ANGLE_UNIT ( ) SI_UNIT ( $, .RADIAN. ) );
#233 =( REPRESENTATION_RELATIONSHIP ('NONE','NONE', #26, #83 ) REPRESENTATION_RELATIONSHIP_WITH_TRANSFORMATION ( #391 )SHAPE_REPRESENTATION_RELATIONSHIP( ) );
#234 = ITEM_DEFINED_TRANSFORMATION ( 'NONE', 'NONE', #19,  #401 ) ;
#235 = AXIS2_PLACEMENT_3D ( 'NONE', #317, #161, #6 ) ;
#236 = APPLIED_EXTERNAL_IDENTIFICATION_ASSIGNMENT ( 'Insert M3 D5 L5mm_(mod).STEP' , #142, #87,( #192) ) ;
#237 = DOCUMENT_FILE ( 'Insert M3 D5 L5mm_(mod).STEP' , '', '', #180, '' ,$ ) ;
#238 = PROPERTY_DEFINITION ('external definition','', #91 ) ;
#239 =( REPRESENTATION_RELATIONSHIP ('NONE','NONE', #26, #83 ) REPRESENTATION_RELATIONSHIP_WITH_TRANSFORMATION ( #99 )SHAPE_REPRESENTATION_RELATIONSHIP( ) );
#240 = ROLE_ASSOCIATION ( #168, #409 ) ;
#241 = CARTESIAN_POINT ( 'NONE',  ( 1014.783055386902561, 1106.250450748580306, 1080.636581249892743 ) ) ;
#242 = PROPERTY_DEFINITION_REPRESENTATION ( #264, #83 ) ;
#243 = APPLICATION_PROTOCOL_DEFINITION ( 'draft international standard', 'automotive_design', 1998, #56 ) ;
#244 =( GEOMETRIC_REPRESENTATION_CONTEXT ( 3 ) GLOBAL_UNCERTAINTY_ASSIGNED_CONTEXT ( ( #67 ) ) GLOBAL_UNIT_ASSIGNED_CONTEXT ( ( #88, #296, #372 ) ) REPRESENTATION_CONTEXT ( 'NONE', 'WORKASPACE' ) );
#245 = APPLIED_DOCUMENT_REFERENCE ( #272,'',( #341) ) ;
#246 = PRODUCT_DEFINITION_SHAPE ( 'NONE', 'NONE',  #445 ) ;
#247 = DIRECTION ( 'NONE',  ( 0.02926272740699849273, 3.553814291472806143E-16, -0.9995717546953314381 ) ) ;
#248 = PRODUCT_RELATED_PRODUCT_CATEGORY ( 'part', '', ( #227 ) ) ;
#249 = DIRECTION ( 'NONE',  ( 0.9995717546953314381, -2.081668171172178374E-17, 0.02926272740699894376 ) ) ;
#250 = DOCUMENT_FILE ( 'Insert M3 D5 L5mm_(mod).STEP' , '', '', #305, '' ,$ ) ;
#251 = SHAPE_REPRESENTATION ( 'encoder-stand_flange-support-top', ( #7 ), #219 ) ;
#252 = PROPERTY_DEFINITION_REPRESENTATION ( #371, #83 ) ;
#253 = AXIS2_PLACEMENT_3D ( 'NONE', #354, #36, #179 ) ;
#254 = PROPERTY_DEFINITION_REPRESENTATION ( #268, #83 ) ;
#255 = DOCUMENT_FILE ( 'Insert M3 D5 L5mm_(mod).STEP' , '', '', #216, '' ,$ ) ;
#256 = EXTERNAL_SOURCE (IDENTIFIER('') ) ;
#257 =( REPRESENTATION_RELATIONSHIP ('NONE','NONE', #26, #16 ) REPRESENTATION_RELATIONSHIP_WITH_TRANSFORMATION ( #151 )SHAPE_REPRESENTATION_RELATIONSHIP( ) );
#258 =( REPRESENTATION_RELATIONSHIP ('NONE','NONE', #26, #83 ) REPRESENTATION_RELATIONSHIP_WITH_TRANSFORMATION ( #76 )SHAPE_REPRESENTATION_RELATIONSHIP( ) );
#259 = AXIS2_PLACEMENT_3D ( 'NONE', #135, #346, #171 ) ;
#260 = CONTEXT_DEPENDENT_SHAPE_REPRESENTATION ( #92, #70 ) ;
#261 = DIRECTION ( 'NONE',  ( 1.000000000000000000, 0.000000000000000000, 0.000000000000000000 ) ) ;
#262 = APPLIED_EXTERNAL_IDENTIFICATION_ASSIGNMENT ( 'Insert M3 D5 L5mm_(mod).STEP' , #342, #283,( #250) ) ;
#263 = OBJECT_ROLE ('mandatory',$ ) ;
#264 = PROPERTY_DEFINITION ('external definition','', #351 ) ;
#265 = APPLICATION_CONTEXT ( 'automotive_design' ) ;
#266 = OBJECT_ROLE ('mandatory',$ ) ;
#267 = PROPERTY_DEFINITION ('external definition','', #389 ) ;
#268 = PROPERTY_DEFINITION ('external definition','', #423 ) ;
#269 = SHAPE_REPRESENTATION ( 'encoder-stand_flange-support-bottom', ( #369 ), #230 ) ;
#270 = DIRECTION ( 'NONE',  ( -0.6091566181220714471, 0.7928494124515680364, -0.01783322105746032102 ) ) ;
#271 = PRODUCT_DEFINITION_CONTEXT ( 'detailed design', #334, 'design' ) ;
#272 = DOCUMENT_FILE ( 'socket head cap screw 4762_din_EN ISO 4762 M3 x 25 - 18S.STEP' , '', '', #301, '' ,$ ) ;
#273 =( REPRESENTATION_RELATIONSHIP ('NONE','NONE', #26, #83 ) REPRESENTATION_RELATIONSHIP_WITH_TRANSFORMATION ( #234 )SHAPE_REPRESENTATION_RELATIONSHIP( ) );
#274 = DIRECTION ( 'NONE',  ( 3.538835890992686473E-16, -3.541998152951815947E-16, 1.000000000000000222 ) ) ;
#275 = IDENTIFICATION_ROLE ( 'external document id and location', $) ;
#276 = ITEM_DEFINED_TRANSFORMATION ( 'NONE', 'NONE', #97,  #348 ) ;
#277 = PRODUCT_DEFINITION_SHAPE ( 'NONE', 'NONE',  #437 ) ;
#278 = DIRECTION ( 'NONE',  ( 0.9995717546953314381, 4.312522741266162392E-16, 0.02926272740699953009 ) ) ;
#279 = IDENTIFICATION_ROLE ( 'external document id and location', $) ;
#280 = DIRECTION ( 'NONE',  ( -9.570893812304678046E-32, 1.000000000000000000, 3.068704551013707087E-30 ) ) ;
#281 = EXTERNAL_SOURCE (IDENTIFIER('') ) ;
#282 = ROLE_ASSOCIATION ( #421, #144 ) ;
#283 = EXTERNAL_SOURCE (IDENTIFIER('') ) ;
#284 = APPLICATION_PROTOCOL_DEFINITION ( 'draft international standard', 'automotive_design', 1998, #72 ) ;
#285 = CARTESIAN_POINT ( 'NONE',  ( 1012.518227819420190, 1067.250450748580761, 1072.566850393812274 ) ) ;
#286 = PROPERTY_DEFINITION_REPRESENTATION ( #93, #83 ) ;
#287 = ROLE_ASSOCIATION ( #303, #74 ) ;
#288 = CONTEXT_DEPENDENT_SHAPE_REPRESENTATION ( #347, #358 ) ;
#289 = PROPERTY_DEFINITION ('document property','', #255 ) ;
#290 = AXIS2_PLACEMENT_3D ( 'NONE', #381, #134, #410 ) ;
#291 = PROPERTY_DEFINITION_REPRESENTATION ( #55, #83 ) ;
#292 = DIRECTION ( 'NONE',  ( 0.9995717546953314381, -2.862293735361741567E-17, 0.02926272740699900621 ) ) ;
#293 = DOCUMENT_TYPE ( 'geometry' ) ;
#294 = PROPERTY_DEFINITION ('external definition','', #398 ) ;
#295 = OBJECT_ROLE ('mandatory',$ ) ;
#296 =( NAMED_UNIT ( * ) PLANE_ANGLE_UNIT ( ) SI_UNIT ( $, .RADIAN. ) );
#297 = DOCUMENT_TYPE ( 'geometry' ) ;
#298 = PRODUCT_DEFINITION ( 'General', '', #51, #271 ) ;
#299 = PRODUCT_CONTEXT ( 'NONE', #228, 'mechanical' ) ;
#300 =( NAMED_UNIT ( * ) PLANE_ANGLE_UNIT ( ) SI_UNIT ( $, .RADIAN. ) );
#301 = DOCUMENT_TYPE ( 'geometry' ) ;
#302 = AXIS2_PLACEMENT_3D ( 'NONE', #52, #400, #261 ) ;
#303 = OBJECT_ROLE ('mandatory',$ ) ;
#304 = APPLICATION_PROTOCOL_DEFINITION ( 'draft international standard', 'automotive_design', 1998, #139 ) ;
#305 = DOCUMENT_TYPE ( 'geometry' ) ;
#306 = PROPERTY_DEFINITION_REPRESENTATION ( #373, #16 ) ;
#307 = CONTEXT_DEPENDENT_SHAPE_REPRESENTATION ( #352, #277 ) ;
#308 = DIRECTION ( 'NONE',  ( 0.9995717546953314381, 3.517865608979734548E-17, 0.02926272740699849273 ) ) ;
#309 = IDENTIFICATION_ROLE ( 'external document id and location', $) ;
#310 = APPLIED_DOCUMENT_REFERENCE ( #192,'',( #105) ) ;
#311 = ITEM_DEFINED_TRANSFORMATION ( 'NONE', 'NONE', #213,  #369 ) ;
#312 = CARTESIAN_POINT ( 'NONE',  ( 1008.191092264876033, 1077.250450748580761, 1032.423035205260931 ) ) ;
#313 = APPLIED_DOCUMENT_REFERENCE ( #378,'',( #341) ) ;
#314 = DIRECTION ( 'NONE',  ( 4.556302088214914880E-17, -1.000000000000000000, -3.541998152951888424E-16 ) ) ;
#315 = APPLICATION_CONTEXT ( 'automotive_design' ) ;
#316 = CONTEXT_DEPENDENT_SHAPE_REPRESENTATION ( #257, #426 ) ;
#317 = CARTESIAN_POINT ( 'NONE',  ( 1012.518227819302297, 1099.250450748651019, 1072.566850393851382 ) ) ;
#318 = ITEM_DEFINED_TRANSFORMATION ( 'NONE', 'NONE', #384,  #401 ) ;
#319 = PROPERTY_DEFINITION_REPRESENTATION ( #178, #83 ) ;
#320 = PROPERTY_DEFINITION_REPRESENTATION ( #203, #83 ) ;
#321 = PRODUCT_DEFINITION_FORMATION_WITH_SPECIFIED_SOURCE ( 'Symmetric', '', #111, .NOT_KNOWN. ) ;
#322 = ITEM_DEFINED_TRANSFORMATION ( 'NONE', 'NONE', #187,  #401 ) ;
#323 = APPLICATION_CONTEXT ( 'automotive_design' ) ;
#324 = ROLE_ASSOCIATION ( #167, #310 ) ;
#325 = DIRECTION ( 'NONE',  ( -0.02926272740699870784, -4.510281037539391529E-17, 0.9995717546953314381 ) ) ;
#326 = AXIS2_PLACEMENT_3D ( 'NONE', #211, #414, #29 ) ;
#327 = EXTERNAL_SOURCE (IDENTIFIER('') ) ;
#328 = DOCUMENT_TYPE ( 'geometry' ) ;
#329 = OBJECT_ROLE ('mandatory',$ ) ;
#330 = APPLIED_DOCUMENT_REFERENCE ( #398,'',( #298) ) ;
#331 = PRODUCT_DEFINITION_SHAPE ( 'NONE', 'NONE',  #442 ) ;
#332 = SHAPE_DEFINITION_REPRESENTATION ( #158, #251 ) ;
#333 = PROPERTY_DEFINITION ('external definition','', #378 ) ;
#334 = APPLICATION_CONTEXT ( 'automotive_design' ) ;
#335 = PRODUCT_DEFINITION_SHAPE ( 'NONE', 'NONE',  #444 ) ;
#336 = CARTESIAN_POINT ( 'NONE',  ( 1010.784768368121036, 1057.250450748619642, 1080.519530340264964 ) ) ;
#337 = APPLIED_EXTERNAL_IDENTIFICATION_ASSIGNMENT ( 'socket head cap screw 4762_din_EN ISO 4762 M3 x 25 - 18S.STEP' , #101, #78,( #62) ) ;
#338 = PROPERTY_DEFINITION ('external definition','', #62 ) ;
#339 = ITEM_DEFINED_TRANSFORMATION ( 'NONE', 'NONE', #326,  #401 ) ;
#340 = DIRECTION ( 'NONE',  ( -9.570893812304678046E-32, 1.000000000000000000, 3.068704551013707087E-30 ) ) ;
#341 = PRODUCT_DEFINITION ( 'General', '', #58, #2 ) ;
#342 = IDENTIFICATION_ROLE ( 'external document id and location', $) ;
#343 = CONTEXT_DEPENDENT_SHAPE_REPRESENTATION ( #239, #114 ) ;
#344 = APPLICATION_PROTOCOL_DEFINITION ( 'draft international standard', 'automotive_design', 1998, #182 ) ;
#345 = PROPERTY_DEFINITION_REPRESENTATION ( #98, #83 ) ;
#346 = DIRECTION ( 'NONE',  ( -9.570893812304678046E-32, 1.000000000000000000, 3.068704551013707087E-30 ) ) ;
#347 =( REPRESENTATION_RELATIONSHIP ('NONE','NONE', #26, #83 ) REPRESENTATION_RELATIONSHIP_WITH_TRANSFORMATION ( #44 )SHAPE_REPRESENTATION_RELATIONSHIP( ) );
#348 = AXIS2_PLACEMENT_3D ( 'NONE', #390, #148, #200 ) ;
#349 = PRODUCT_DEFINITION ( 'General', '', #84, #355 ) ;
#350 =( REPRESENTATION_RELATIONSHIP ('NONE','NONE', #26, #83 ) REPRESENTATION_RELATIONSHIP_WITH_TRANSFORMATION ( #416 )SHAPE_REPRESENTATION_RELATIONSHIP( ) );
#351 = DOCUMENT_FILE ( 'Insert M3 D5 L5mm_(mod).STEP' , '', '', #66, '' ,$ ) ;
#352 =( REPRESENTATION_RELATIONSHIP ('NONE','NONE', #26, #16 ) REPRESENTATION_RELATIONSHIP_WITH_TRANSFORMATION ( #136 )SHAPE_REPRESENTATION_RELATIONSHIP( ) );
#353 = PROPERTY_DEFINITION_REPRESENTATION ( #18, #16 ) ;
#354 = CARTESIAN_POINT ( 'NONE',  ( 1013.454635096444576, 1099.250450748580306, 1040.580554243562347 ) ) ;
#355 = PRODUCT_DEFINITION_CONTEXT ( 'detailed design', #265, 'design' ) ;
#356 = APPLIED_EXTERNAL_IDENTIFICATION_ASSIGNMENT ( 'encoder-stand_flange-support-top.STEP' , #207, #374,( #398) ) ;
#357 = ROLE_ASSOCIATION ( #263, #181 ) ;
#358 = PRODUCT_DEFINITION_SHAPE ( 'NONE', 'NONE',  #443 ) ;
#359 = DIRECTION ( 'NONE',  ( 0.02926272740699870784, 5.030698080332433658E-17, -0.9995717546953314381 ) ) ;
#360 = APPLIED_DOCUMENT_REFERENCE ( #250,'',( #105) ) ;
#361 = PROPERTY_DEFINITION_REPRESENTATION ( #405, #83 ) ;
#362 = AXIS2_PLACEMENT_3D ( 'NONE', #46, #247, #308 ) ;
#363 = APPLIED_EXTERNAL_IDENTIFICATION_ASSIGNMENT ( 'Insert M3 D5 L5mm_(mod).STEP' , #35, #22,( #237) ) ;
#364 = DOCUMENT_TYPE ( 'geometry' ) ;
#365 = PRODUCT_DEFINITION_SHAPE ( 'NONE', 'NONE',  #108 ) ;
#366 = PROPERTY_DEFINITION ('external definition','', #164 ) ;
#367 = ITEM_DEFINED_TRANSFORMATION ( 'NONE', 'NONE', #362,  #7 ) ;
#368 =( NAMED_UNIT ( * ) PLANE_ANGLE_UNIT ( ) SI_UNIT ( $, .RADIAN. ) );
#369 = AXIS2_PLACEMENT_3D ( 'NONE', #376, #120, #125 ) ;
#370 = APPLICATION_PROTOCOL_DEFINITION ( 'draft international standard', 'automotive_design', 1998, #323 ) ;
#371 = PROPERTY_DEFINITION ('external definition','', #79 ) ;
#372 =( NAMED_UNIT ( * ) SI_UNIT ( $, .STERADIAN. ) SOLID_ANGLE_UNIT ( ) );
#373 = PROPERTY_DEFINITION ('document property','', #62 ) ;
#374 = EXTERNAL_SOURCE (IDENTIFIER('') ) ;
#375 = ROLE_ASSOCIATION ( #162, #34 ) ;
#376 = CARTESIAN_POINT ( 'NONE',  ( 0.000000000000000000, 0.000000000000000000, 0.000000000000000000 ) ) ;
#377 = PRODUCT_DEFINITION_SHAPE ( 'NONE', 'NONE',  #441 ) ;
#378 = DOCUMENT_FILE ( 'socket head cap screw 4762_din_EN ISO 4762 M3 x 25 - 18S.STEP' , '', '', #430, '' ,$ ) ;
#379 = PROPERTY_DEFINITION_REPRESENTATION ( #385, #16 ) ;
#380 = EXTERNAL_SOURCE (IDENTIFIER('') ) ;
#381 = CARTESIAN_POINT ( 'NONE',  ( 1006.786481349339851, 1106.250450748580306, 1080.402479430636731 ) ) ;
#382 = ITEM_DEFINED_TRANSFORMATION ( 'NONE', 'NONE', #290,  #348 ) ;
#383 = PRODUCT_CONTEXT ( 'NONE', #56, 'mechanical' ) ;
#384 = AXIS2_PLACEMENT_3D ( 'NONE', #71, #280, #215 ) ;
#385 = PROPERTY_DEFINITION ('document property','', #272 ) ;
#386 = PROPERTY_DEFINITION_REPRESENTATION ( #267, #83 ) ;
#387 = DIRECTION ( 'NONE',  ( -0.007674880534066288833, 0.9649931852698870882, 0.2621626376726197694 ) ) ;
#388 = ROLE_ASSOCIATION ( #150, #10 ) ;
#389 = DOCUMENT_FILE ( 'Insert M3 D5 L5mm_(mod).STEP' , '', '', #364, '' ,$ ) ;
#390 = CARTESIAN_POINT ( 'NONE',  ( 0.000000000000000000, 0.000000000000000000, 0.000000000000000000 ) ) ;
#391 = ITEM_DEFINED_TRANSFORMATION ( 'NONE', 'NONE', #253,  #401 ) ;
#392 = OBJECT_ROLE ('mandatory',$ ) ;
#393 = ROLE_ASSOCIATION ( #40, #419 ) ;
#394 = PRODUCT_DEFINITION_SHAPE ( 'NONE', 'NONE',  #434 ) ;
#395 = PRODUCT_DEFINITION_FORMATION_WITH_SPECIFIED_SOURCE ( 'Symmetric', '', #9, .NOT_KNOWN. ) ;
#396 = APPLIED_EXTERNAL_IDENTIFICATION_ASSIGNMENT ( 'socket head cap screw 4762_din_EN ISO 4762 M3 x 25 - 18S.STEP' , #279, #152,( #91) ) ;
#397 = EXTERNAL_SOURCE (IDENTIFIER('') ) ;
#398 = DOCUMENT_FILE ( 'encoder-stand_flange-support-top.STEP' , '', '', #49, '' ,$ ) ;
#399 = CARTESIAN_POINT ( 'NONE',  ( 0.000000000000000000, 0.000000000000000000, 0.000000000000000000 ) ) ;
#400 = DIRECTION ( 'NONE',  ( 0.000000000000000000, 0.000000000000000000, 1.000000000000000000 ) ) ;
#401 = AXIS2_PLACEMENT_3D ( 'NONE', #95, #53, #65 ) ;
#402 = PROPERTY_DEFINITION ('document property','', #351 ) ;
#403 = PRODUCT_DEFINITION_CONTEXT ( 'detailed design', #38, 'design' ) ;
#404 = APPLIED_DOCUMENT_REFERENCE ( #91,'',( #341) ) ;
#405 = PROPERTY_DEFINITION ('document property','', #143 ) ;
#406 = DIRECTION ( 'NONE',  ( -0.8371691043312226022, -1.565191228741354158E-30, -0.5469441386039888275 ) ) ;
#407 = APPLIED_EXTERNAL_IDENTIFICATION_ASSIGNMENT ( 'Insert M3 D5 L5mm_(mod).STEP' , #43, #380,( #351) ) ;
#408 = EXTERNAL_SOURCE (IDENTIFIER('') ) ;
#409 = APPLIED_DOCUMENT_REFERENCE ( #62,'',( #341) ) ;
#410 = DIRECTION ( 'NONE',  ( 4.556302088214911798E-17, -1.000000000000000000, -3.541998152951878070E-16 ) ) ;
#411 = CONTEXT_DEPENDENT_SHAPE_REPRESENTATION ( #198, #394 ) ;
#412 =( NAMED_UNIT ( * ) PLANE_ANGLE_UNIT ( ) SI_UNIT ( $, .RADIAN. ) );
#413 = PROPERTY_DEFINITION_REPRESENTATION ( #333, #16 ) ;
#414 = DIRECTION ( 'NONE',  ( -9.570893812304678046E-32, 1.000000000000000000, 3.068704551013707087E-30 ) ) ;
#415 = APPLIED_EXTERNAL_IDENTIFICATION_ASSIGNMENT ( 'socket head cap screw 4762_din_EN ISO 4762 M3 x 25 - 18S.STEP' , #81, #327,( #378) ) ;
#416 = ITEM_DEFINED_TRANSFORMATION ( 'NONE', 'NONE', #235,  #401 ) ;
#417 = UNCERTAINTY_MEASURE_WITH_UNIT (LENGTH_MEASURE( 1.000000000000000082E-05 ), #195, 'distance_accuracy_value', 'NONE');
#418 = PRODUCT_DEFINITION_SHAPE ( 'NONE', 'NONE',  #105 ) ;
#419 = APPLIED_DOCUMENT_REFERENCE ( #255,'',( #105) ) ;
#420 = ROLE_ASSOCIATION ( #177, #360 ) ;
#421 = OBJECT_ROLE ('mandatory',$ ) ;
#422 = PROPERTY_DEFINITION ('external definition','', #255 ) ;
#423 = DOCUMENT_FILE ( 'Insert M3 D5 L5mm_(mod).STEP' , '', '', #17, '' ,$ ) ;
#424 = ITEM_DEFINED_TRANSFORMATION ( 'NONE', 'NONE', #188,  #401 ) ;
#425 = DIRECTION ( 'NONE',  ( -0.007572530074236154610, -0.9659370064465543360, 0.2586664964106170639 ) ) ;
#426 = PRODUCT_DEFINITION_SHAPE ( 'NONE', 'NONE',  #432 ) ;
#427 = AXIS2_PLACEMENT_3D ( 'NONE', #24, #359, #42 ) ;
#428 = APPLICATION_PROTOCOL_DEFINITION ( 'draft international standard', 'automotive_design', 1998, #315 ) ;
#429 =( REPRESENTATION_RELATIONSHIP ('NONE','NONE', #26, #16 ) REPRESENTATION_RELATIONSHIP_WITH_TRANSFORMATION ( #382 )SHAPE_REPRESENTATION_RELATIONSHIP( ) );
#430 = DOCUMENT_TYPE ( 'geometry' ) ;
#431 = NEXT_ASSEMBLY_USAGE_OCCURRENCE ( 'NAUO12', ' ', ' ', #108, #298, $ ) ;
#432 = NEXT_ASSEMBLY_USAGE_OCCURRENCE ( 'NAUO13', ' ', ' ', #108, #341, $ ) ;
#433 = NEXT_ASSEMBLY_USAGE_OCCURRENCE ( 'NAUO14', ' ', ' ', #108, #341, $ ) ;
#434 = NEXT_ASSEMBLY_USAGE_OCCURRENCE ( 'NAUO15', ' ', ' ', #108, #349, $ ) ;
#435 = NEXT_ASSEMBLY_USAGE_OCCURRENCE ( 'NAUO16', ' ', ' ', #108, #105, $ ) ;
#436 = NEXT_ASSEMBLY_USAGE_OCCURRENCE ( 'NAUO17', ' ', ' ', #108, #341, $ ) ;
#437 = NEXT_ASSEMBLY_USAGE_OCCURRENCE ( 'NAUO18', ' ', ' ', #108, #341, $ ) ;
#438 = NEXT_ASSEMBLY_USAGE_OCCURRENCE ( 'NAUO19', ' ', ' ', #108, #105, $ ) ;
#439 = NEXT_ASSEMBLY_USAGE_OCCURRENCE ( 'NAUO20', ' ', ' ', #108, #105, $ ) ;
#440 = NEXT_ASSEMBLY_USAGE_OCCURRENCE ( 'NAUO21', ' ', ' ', #108, #105, $ ) ;
#441 = NEXT_ASSEMBLY_USAGE_OCCURRENCE ( 'NAUO22', ' ', ' ', #108, #105, $ ) ;
#442 = NEXT_ASSEMBLY_USAGE_OCCURRENCE ( 'NAUO23', ' ', ' ', #108, #105, $ ) ;
#443 = NEXT_ASSEMBLY_USAGE_OCCURRENCE ( 'NAUO24', ' ', ' ', #108, #105, $ ) ;
#444 = NEXT_ASSEMBLY_USAGE_OCCURRENCE ( 'NAUO25', ' ', ' ', #108, #105, $ ) ;
#445 = NEXT_ASSEMBLY_USAGE_OCCURRENCE ( 'NAUO26', ' ', ' ', #108, #105, $ ) ;
#446 = NEXT_ASSEMBLY_USAGE_OCCURRENCE ( 'NAUO27', ' ', ' ', #108, #105, $ ) ;
ENDSEC;
END-ISO-10303-21;
