ISO-10303-21;
HEADER;
FILE_DESCRIPTION (( 'STEP AP214' ),
    '1' );
FILE_NAME ('encoder-stand_PCB-markings-plate.STEP',
    '2026-01-09T17:49:25',
    ( '' ),
    ( '' ),
    'SwSTEP 2.0',
    'SolidWorks 2025',
    '' );
FILE_SCHEMA (( 'AUTOMOTIVE_DESIGN' ));
ENDSEC;

DATA;
#1 = CARTESIAN_POINT ( 'NONE',  ( 0.4000000000000000222, 7.499999999999996447, -67.99999999999987210 ) ) ;
#2 = CARTESIAN_POINT ( 'NONE',  ( 0.000000000000000000, -7.500000000000020428, 68.00000000000014211 ) ) ;
#3 = LINE ( 'NONE', #65, #142 ) ;
#4 = FACE_OUTER_BOUND ( 'NONE', #9, .T. ) ;
#5 =( LENGTH_UNIT ( ) NAMED_UNIT ( * ) SI_UNIT ( .MILLI., .METRE. ) );
#6 = CARTESIAN_POINT ( 'NONE',  ( 0.4000000000000000222, -7.500000000000000000, -67.99999999999987210 ) ) ;
#7 = VECTOR ( 'NONE', #159, 1000.000000000000000 ) ;
#8 = DIRECTION ( 'NONE',  ( 0.000000000000000000, -1.530638361156006245E-16, 1.000000000000000000 ) ) ;
#9 = EDGE_LOOP ( 'NONE', ( #58, #72, #101, #119 ) ) ;
#10 = AXIS2_PLACEMENT_3D ( 'NONE', #109, #161, #121 ) ;
#11 = UNCERTAINTY_MEASURE_WITH_UNIT (LENGTH_MEASURE( 1.000000000000000082E-05 ), #53, 'distance_accuracy_value', 'NONE');
#12 = EDGE_CURVE ( 'NONE', #158, #86, #81, .T. ) ;
#13 = CARTESIAN_POINT ( 'NONE',  ( 0.000000000000000000, 7.499999999999996447, -67.99999999999987210 ) ) ;
#14 = AXIS2_PLACEMENT_3D ( 'NONE', #147, #148, #41 ) ;
#15 = PLANE ( 'NONE',  #14 ) ;
#16 = CARTESIAN_POINT ( 'NONE',  ( 0.4000000000000000222, 7.500000000000007105, 68.00000000000014211 ) ) ;
#17 = CLOSED_SHELL ( 'NONE', ( #149, #183, #134, #139, #67, #45 ) ) ;
#18 = MECHANICAL_DESIGN_GEOMETRIC_PRESENTATION_REPRESENTATION (  '', ( #23 ), #186 ) ;
#19 = ORIENTED_EDGE ( 'NONE', *, *, #20, .F. ) ;
#20 = EDGE_CURVE ( 'NONE', #155, #170, #117, .T. ) ;
#21 = PRESENTATION_STYLE_ASSIGNMENT (( #180 ) ) ;
#22 = LINE ( 'NONE', #137, #128 ) ;
#23 = STYLED_ITEM ( 'NONE', ( #21 ), #71 ) ;
#24 = LINE ( 'NONE', #2, #133 ) ;
#25 = SURFACE_SIDE_STYLE ('',( #49 ) ) ;
#26 = PRODUCT_DEFINITION_FORMATION_WITH_SPECIFIED_SOURCE ( 'ANY', '', #55, .NOT_KNOWN. ) ;
#27 = ORIENTED_EDGE ( 'NONE', *, *, #100, .F. ) ;
#28 = ORIENTED_EDGE ( 'NONE', *, *, #171, .T. ) ;
#29 = DIRECTION ( 'NONE',  ( -1.000000000000000000, -0.000000000000000000, -0.000000000000000000 ) ) ;
#30 = ORIENTED_EDGE ( 'NONE', *, *, #12, .F. ) ;
#31 = EDGE_CURVE ( 'NONE', #155, #108, #131, .T. ) ;
#32 = PRESENTATION_LAYER_ASSIGNMENT (  '', '', ( #23 ) ) ;
#33 = DIRECTION ( 'NONE',  ( -0.000000000000000000, -1.000000000000000000, -0.000000000000000000 ) ) ;
#34 =( NAMED_UNIT ( * ) PLANE_ANGLE_UNIT ( ) SI_UNIT ( $, .RADIAN. ) );
#35 = CARTESIAN_POINT ( 'NONE',  ( 0.000000000000000000, -7.500000000000000000, -67.99999999999987210 ) ) ;
#36 = FILL_AREA_STYLE_COLOUR ( '', #125 ) ;
#37 = VECTOR ( 'NONE', #61, 1000.000000000000000 ) ;
#38 = DIRECTION ( 'NONE',  ( -1.000000000000000000, -0.000000000000000000, -0.000000000000000000 ) ) ;
#39 = AXIS2_PLACEMENT_3D ( 'NONE', #6, #178, #110 ) ;
#40 = APPLICATION_CONTEXT ( 'automotive_design' ) ;
#41 = DIRECTION ( 'NONE',  ( 0.000000000000000000, 0.000000000000000000, -1.000000000000000000 ) ) ;
#42 = ORIENTED_EDGE ( 'NONE', *, *, #107, .T. ) ;
#43 = VERTEX_POINT ( 'NONE', #169 ) ;
#44 = VERTEX_POINT ( 'NONE', #16 ) ;
#45 = ADVANCED_FACE ( 'NONE', ( #184 ), #15, .F. ) ;
#46 = VECTOR ( 'NONE', #79, 1000.000000000000000 ) ;
#47 = CARTESIAN_POINT ( 'NONE',  ( 0.4000000000000000222, -7.500000000000000000, -67.99999999999987210 ) ) ;
#48 = LINE ( 'NONE', #35, #144 ) ;
#49 = SURFACE_STYLE_FILL_AREA ( #176 ) ;
#50 = EDGE_CURVE ( 'NONE', #44, #86, #185, .T. ) ;
#51 = DIRECTION ( 'NONE',  ( 0.000000000000000000, 0.000000000000000000, 1.000000000000000000 ) ) ;
#52 = VECTOR ( 'NONE', #29, 1000.000000000000000 ) ;
#53 =( LENGTH_UNIT ( ) NAMED_UNIT ( * ) SI_UNIT ( .MILLI., .METRE. ) );
#54 = ORIENTED_EDGE ( 'NONE', *, *, #56, .F. ) ;
#55 = PRODUCT ( 'encoder-stand_PCB-markings-plate', 'encoder-stand_PCB-markings-plate', '', ( #167 ) ) ;
#56 = EDGE_CURVE ( 'NONE', #170, #43, #90, .T. ) ;
#57 = PRODUCT_DEFINITION_SHAPE ( 'NONE', 'NONE',  #165 ) ;
#58 = ORIENTED_EDGE ( 'NONE', *, *, #56, .T. ) ;
#59 = CARTESIAN_POINT ( 'NONE',  ( 0.000000000000000000, -7.500000000000000000, -67.99999999999987210 ) ) ;
#60 = AXIS2_PLACEMENT_3D ( 'NONE', #111, #163, #8 ) ;
#61 = DIRECTION ( 'NONE',  ( -1.000000000000000000, -0.000000000000000000, -0.000000000000000000 ) ) ;
#62 = FACE_OUTER_BOUND ( 'NONE', #129, .T. ) ;
#63 = EDGE_CURVE ( 'NONE', #157, #158, #130, .T. ) ;
#64 = CARTESIAN_POINT ( 'NONE',  ( 0.4000000000000000222, 0.000000000000000000, 0.000000000000000000 ) ) ;
#65 = CARTESIAN_POINT ( 'NONE',  ( 0.4000000000000000222, -7.500000000000000000, -67.99999999999987210 ) ) ;
#66 = DIRECTION ( 'NONE',  ( 0.000000000000000000, 0.000000000000000000, -1.000000000000000000 ) ) ;
#67 = ADVANCED_FACE ( 'NONE', ( #62 ), #174, .T. ) ;
#68 = DIRECTION ( 'NONE',  ( 1.000000000000000000, 0.000000000000000000, 0.000000000000000000 ) ) ;
#69 = AXIS2_PLACEMENT_3D ( 'NONE', #73, #51, #154 ) ;
#70 = APPLICATION_PROTOCOL_DEFINITION ( 'draft international standard', 'automotive_design', 1998, #40 ) ;
#71 = MANIFOLD_SOLID_BREP ( 'Boss-Extrude1', #17 ) ;
#72 = ORIENTED_EDGE ( 'NONE', *, *, #94, .F. ) ;
#73 = CARTESIAN_POINT ( 'NONE',  ( 0.000000000000000000, 0.000000000000000000, 0.000000000000000000 ) ) ;
#74 =( NAMED_UNIT ( * ) SI_UNIT ( $, .STERADIAN. ) SOLID_ANGLE_UNIT ( ) );
#75 = APPLICATION_PROTOCOL_DEFINITION ( 'draft international standard', 'automotive_design', 1998, #146 ) ;
#76 = ORIENTED_EDGE ( 'NONE', *, *, #107, .F. ) ;
#77 = ORIENTED_EDGE ( 'NONE', *, *, #87, .T. ) ;
#78 = ORIENTED_EDGE ( 'NONE', *, *, #63, .F. ) ;
#79 = DIRECTION ( 'NONE',  ( -0.000000000000000000, 1.530638361156006245E-16, -1.000000000000000000 ) ) ;
#80 = PRODUCT_RELATED_PRODUCT_CATEGORY ( 'part', '', ( #55 ) ) ;
#81 = LINE ( 'NONE', #13, #181 ) ;
#82 = CARTESIAN_POINT ( 'NONE',  ( 0.4000000000000000222, -7.500000000000000000, -67.99999999999987210 ) ) ;
#83 = DIRECTION ( 'NONE',  ( 0.000000000000000000, 1.000000000000000000, 0.000000000000000000 ) ) ;
#84 = FACE_OUTER_BOUND ( 'NONE', #104, .T. ) ;
#85 = PLANE ( 'NONE',  #39 ) ;
#86 = VERTEX_POINT ( 'NONE', #113 ) ;
#87 = EDGE_CURVE ( 'NONE', #108, #157, #95, .T. ) ;
#88 = PRODUCT_DEFINITION_CONTEXT ( 'detailed design', #40, 'design' ) ;
#89 = AXIS2_PLACEMENT_3D ( 'NONE', #64, #68, #66 ) ;
#90 = LINE ( 'NONE', #59, #46 ) ;
#91 = ORIENTED_EDGE ( 'NONE', *, *, #12, .T. ) ;
#92 = DIRECTION ( 'NONE',  ( 0.000000000000000000, 7.653191805780031226E-17, 1.000000000000000000 ) ) ;
#93 = FACE_OUTER_BOUND ( 'NONE', #145, .T. ) ;
#94 = EDGE_CURVE ( 'NONE', #108, #43, #3, .T. ) ;
#95 = LINE ( 'NONE', #82, #172 ) ;
#96 = CARTESIAN_POINT ( 'NONE',  ( 0.4000000000000000222, -7.500000000000020428, 68.00000000000014211 ) ) ;
#97 = VECTOR ( 'NONE', #99, 1000.000000000000000 ) ;
#98 = CARTESIAN_POINT ( 'NONE',  ( 0.000000000000000000, 7.499999999999996447, -67.99999999999987210 ) ) ;
#99 = DIRECTION ( 'NONE',  ( 0.000000000000000000, 7.653191805780031226E-17, 1.000000000000000000 ) ) ;
#100 = EDGE_CURVE ( 'NONE', #44, #155, #22, .T. ) ;
#101 = ORIENTED_EDGE ( 'NONE', *, *, #31, .F. ) ;
#102 = UNCERTAINTY_MEASURE_WITH_UNIT (LENGTH_MEASURE( 1.000000000000000082E-05 ), #5, 'distance_accuracy_value', 'NONE');
#103 = EDGE_LOOP ( 'NONE', ( #175, #30, #115, #54 ) ) ;
#104 = EDGE_LOOP ( 'NONE', ( #28, #78, #116, #106 ) ) ;
#105 = ORIENTED_EDGE ( 'NONE', *, *, #50, .T. ) ;
#106 = ORIENTED_EDGE ( 'NONE', *, *, #94, .T. ) ;
#107 = EDGE_CURVE ( 'NONE', #157, #44, #151, .T. ) ;
#108 = VERTEX_POINT ( 'NONE', #47 ) ;
#109 = CARTESIAN_POINT ( 'NONE',  ( 0.4000000000000000222, -7.500000000000020428, 68.00000000000014211 ) ) ;
#110 = DIRECTION ( 'NONE',  ( 1.000000000000000000, 0.000000000000000000, -0.000000000000000000 ) ) ;
#111 = CARTESIAN_POINT ( 'NONE',  ( 0.4000000000000000222, -7.500000000000000000, -67.99999999999987210 ) ) ;
#112 =( GEOMETRIC_REPRESENTATION_CONTEXT ( 3 ) GLOBAL_UNCERTAINTY_ASSIGNED_CONTEXT ( ( #11 ) ) GLOBAL_UNIT_ASSIGNED_CONTEXT ( ( #53, #114, #74 ) ) REPRESENTATION_CONTEXT ( 'NONE', 'WORKASPACE' ) );
#113 = CARTESIAN_POINT ( 'NONE',  ( 0.000000000000000000, 7.500000000000007105, 68.00000000000014211 ) ) ;
#114 =( NAMED_UNIT ( * ) PLANE_ANGLE_UNIT ( ) SI_UNIT ( $, .RADIAN. ) );
#115 = ORIENTED_EDGE ( 'NONE', *, *, #171, .F. ) ;
#116 = ORIENTED_EDGE ( 'NONE', *, *, #87, .F. ) ;
#117 = LINE ( 'NONE', #132, #123 ) ;
#118 = CARTESIAN_POINT ( 'NONE',  ( 0.4000000000000000222, -7.500000000000000000, -67.99999999999987210 ) ) ;
#119 = ORIENTED_EDGE ( 'NONE', *, *, #20, .T. ) ;
#120 = FACE_OUTER_BOUND ( 'NONE', #173, .T. ) ;
#121 = DIRECTION ( 'NONE',  ( -1.000000000000000000, 0.000000000000000000, -0.000000000000000000 ) ) ;
#122 = PLANE ( 'NONE',  #60 ) ;
#123 = VECTOR ( 'NONE', #187, 1000.000000000000000 ) ;
#124 = DIRECTION ( 'NONE',  ( 0.000000000000000000, -1.000000000000000000, 7.653191805780031226E-17 ) ) ;
#125 = COLOUR_RGB ( '',1.000000000000000000, 1.000000000000000000, 1.000000000000000000 ) ;
#126 = ORIENTED_EDGE ( 'NONE', *, *, #31, .T. ) ;
#127 = EDGE_CURVE ( 'NONE', #86, #170, #24, .T. ) ;
#128 = VECTOR ( 'NONE', #33, 1000.000000000000000 ) ;
#129 = EDGE_LOOP ( 'NONE', ( #141, #126, #77, #42 ) ) ;
#130 = LINE ( 'NONE', #1, #37 ) ;
#131 = LINE ( 'NONE', #118, #7 ) ;
#132 = CARTESIAN_POINT ( 'NONE',  ( 0.4000000000000000222, -7.500000000000020428, 68.00000000000014211 ) ) ;
#133 = VECTOR ( 'NONE', #153, 1000.000000000000000 ) ;
#134 = ADVANCED_FACE ( 'NONE', ( #84 ), #85, .F. ) ;
#135 = CARTESIAN_POINT ( 'NONE',  ( 0.4000000000000000222, 7.500000000000007105, 68.00000000000014211 ) ) ;
#136 = CARTESIAN_POINT ( 'NONE',  ( 0.4000000000000000222, 7.499999999999996447, -67.99999999999987210 ) ) ;
#137 = CARTESIAN_POINT ( 'NONE',  ( 0.4000000000000000222, -7.500000000000020428, 68.00000000000014211 ) ) ;
#138 = CARTESIAN_POINT ( 'NONE',  ( 0.4000000000000000222, 7.499999999999996447, -67.99999999999987210 ) ) ;
#139 = ADVANCED_FACE ( 'NONE', ( #120 ), #162, .F. ) ;
#140 = AXIS2_PLACEMENT_3D ( 'NONE', #138, #124, #160 ) ;
#141 = ORIENTED_EDGE ( 'NONE', *, *, #100, .T. ) ;
#142 = VECTOR ( 'NONE', #38, 1000.000000000000000 ) ;
#143 = ORIENTED_EDGE ( 'NONE', *, *, #127, .T. ) ;
#144 = VECTOR ( 'NONE', #83, 1000.000000000000000 ) ;
#145 = EDGE_LOOP ( 'NONE', ( #143, #19, #27, #105 ) ) ;
#146 = APPLICATION_CONTEXT ( 'automotive_design' ) ;
#147 = CARTESIAN_POINT ( 'NONE',  ( 0.000000000000000000, 0.000000000000000000, 0.000000000000000000 ) ) ;
#148 = DIRECTION ( 'NONE',  ( 1.000000000000000000, 0.000000000000000000, 0.000000000000000000 ) ) ;
#149 = ADVANCED_FACE ( 'NONE', ( #93 ), #150, .F. ) ;
#150 = PLANE ( 'NONE',  #10 ) ;
#151 = LINE ( 'NONE', #136, #97 ) ;
#152 = CARTESIAN_POINT ( 'NONE',  ( 0.000000000000000000, -7.500000000000020428, 68.00000000000014211 ) ) ;
#153 = DIRECTION ( 'NONE',  ( -0.000000000000000000, -1.000000000000000000, -0.000000000000000000 ) ) ;
#154 = DIRECTION ( 'NONE',  ( 1.000000000000000000, 0.000000000000000000, 0.000000000000000000 ) ) ;
#155 = VERTEX_POINT ( 'NONE', #96 ) ;
#156 = ADVANCED_BREP_SHAPE_REPRESENTATION ( 'encoder-stand_PCB-markings-plate', ( #71, #69 ), #112 ) ;
#157 = VERTEX_POINT ( 'NONE', #177 ) ;
#158 = VERTEX_POINT ( 'NONE', #98 ) ;
#159 = DIRECTION ( 'NONE',  ( -0.000000000000000000, 1.530638361156006245E-16, -1.000000000000000000 ) ) ;
#160 = DIRECTION ( 'NONE',  ( 0.000000000000000000, -7.653191805780031226E-17, -1.000000000000000000 ) ) ;
#161 = DIRECTION ( 'NONE',  ( 0.000000000000000000, 0.000000000000000000, -1.000000000000000000 ) ) ;
#162 = PLANE ( 'NONE',  #140 ) ;
#163 = DIRECTION ( 'NONE',  ( -0.000000000000000000, 1.000000000000000000, 1.530638361156006245E-16 ) ) ;
#164 = DIRECTION ( 'NONE',  ( 0.000000000000000000, 1.000000000000000000, 0.000000000000000000 ) ) ;
#165 = PRODUCT_DEFINITION ( 'UNKNOWN', '', #26, #88 ) ;
#166 = SHAPE_DEFINITION_REPRESENTATION ( #57, #156 ) ;
#167 = PRODUCT_CONTEXT ( 'NONE', #146, 'mechanical' ) ;
#168 = ORIENTED_EDGE ( 'NONE', *, *, #63, .T. ) ;
#169 = CARTESIAN_POINT ( 'NONE',  ( 0.000000000000000000, -7.500000000000000000, -67.99999999999987210 ) ) ;
#170 = VERTEX_POINT ( 'NONE', #152 ) ;
#171 = EDGE_CURVE ( 'NONE', #43, #158, #48, .T. ) ;
#172 = VECTOR ( 'NONE', #164, 1000.000000000000000 ) ;
#173 = EDGE_LOOP ( 'NONE', ( #91, #182, #76, #168 ) ) ;
#174 = PLANE ( 'NONE',  #89 ) ;
#175 = ORIENTED_EDGE ( 'NONE', *, *, #127, .F. ) ;
#176 = FILL_AREA_STYLE ('',( #36 ) ) ;
#177 = CARTESIAN_POINT ( 'NONE',  ( 0.4000000000000000222, 7.499999999999996447, -67.99999999999987210 ) ) ;
#178 = DIRECTION ( 'NONE',  ( 0.000000000000000000, 0.000000000000000000, 1.000000000000000000 ) ) ;
#179 =( NAMED_UNIT ( * ) SI_UNIT ( $, .STERADIAN. ) SOLID_ANGLE_UNIT ( ) );
#180 = SURFACE_STYLE_USAGE ( .BOTH. , #25 ) ;
#181 = VECTOR ( 'NONE', #92, 1000.000000000000000 ) ;
#182 = ORIENTED_EDGE ( 'NONE', *, *, #50, .F. ) ;
#183 = ADVANCED_FACE ( 'NONE', ( #4 ), #122, .F. ) ;
#184 = FACE_OUTER_BOUND ( 'NONE', #103, .T. ) ;
#185 = LINE ( 'NONE', #135, #52 ) ;
#186 =( GEOMETRIC_REPRESENTATION_CONTEXT ( 3 ) GLOBAL_UNCERTAINTY_ASSIGNED_CONTEXT ( ( #102 ) ) GLOBAL_UNIT_ASSIGNED_CONTEXT ( ( #5, #34, #179 ) ) REPRESENTATION_CONTEXT ( 'NONE', 'WORKASPACE' ) );
#187 = DIRECTION ( 'NONE',  ( -1.000000000000000000, -0.000000000000000000, -0.000000000000000000 ) ) ;
ENDSEC;
END-ISO-10303-21;
