ISO-10303-21;
HEADER;
FILE_DESCRIPTION (( 'STEP AP214' ),
    '1' );
FILE_NAME ('encoder-stand_flange-support-bottom.STEP',
    '2026-01-05T13:22:12',
    ( '' ),
    ( '' ),
    'SwSTEP 2.0',
    'SolidWorks 2025',
    '' );
FILE_SCHEMA (( 'AUTOMOTIVE_DESIGN' ));
ENDSEC;

DATA;
#1 = DIRECTION ( 'NONE',  ( 1.000000000000000000, 0.000000000000000000, 0.000000000000000000 ) ) ;
#2 = DIRECTION ( 'NONE',  ( 0.000000000000000000, -0.000000000000000000, 1.000000000000000000 ) ) ;
#3 = ADVANCED_FACE ( 'NONE', ( #495 ), #134, .F. ) ;
#4 = ORIENTED_EDGE ( 'NONE', *, *, #407, .F. ) ;
#5 = EDGE_CURVE ( 'NONE', #781, #382, #109, .T. ) ;
#6 = DIRECTION ( 'NONE',  ( 0.000000000000000000, 0.000000000000000000, -1.000000000000000000 ) ) ;
#7 = PRESENTATION_STYLE_ASSIGNMENT (( #498 ) ) ;
#8 = DIRECTION ( 'NONE',  ( 0.000000000000000000, 0.000000000000000000, 1.000000000000000000 ) ) ;
#9 = ORIENTED_EDGE ( 'NONE', *, *, #561, .F. ) ;
#10 = DIRECTION ( 'NONE',  ( -0.000000000000000000, 1.000000000000000000, -0.000000000000000000 ) ) ;
#11 = ADVANCED_FACE ( 'NONE', ( #215 ), #351, .T. ) ;
#12 = FACE_OUTER_BOUND ( 'NONE', #577, .T. ) ;
#13 = ORIENTED_EDGE ( 'NONE', *, *, #230, .F. ) ;
#14 = CIRCLE ( 'NONE', #641, 2.000000000000001776 ) ;
#15 = LINE ( 'NONE', #375, #16 ) ;
#16 = VECTOR ( 'NONE', #163, 1000.000000000000000 ) ;
#17 = PLANE ( 'NONE',  #774 ) ;
#18 = CARTESIAN_POINT ( 'NONE',  ( -2.499999999999999556, 13.99999999999999822, -16.00000000000000355 ) ) ;
#19 = ORIENTED_EDGE ( 'NONE', *, *, #144, .T. ) ;
#20 = CARTESIAN_POINT ( 'NONE',  ( -7.500000000000000000, 30.00000000000000000, -30.00000000000000711 ) ) ;
#21 = DIRECTION ( 'NONE',  ( 0.000000000000000000, 0.000000000000000000, -1.000000000000000000 ) ) ;
#22 = EDGE_LOOP ( 'NONE', ( #453, #538, #843, #183 ) ) ;
#23 = EDGE_CURVE ( 'NONE', #450, #578, #481, .T. ) ;
#24 = DIRECTION ( 'NONE',  ( 1.000000000000000000, 0.000000000000000000, 0.000000000000000000 ) ) ;
#25 = AXIS2_PLACEMENT_3D ( 'NONE', #31, #502, #310 ) ;
#26 = FACE_BOUND ( 'NONE', #283, .T. ) ;
#27 = EDGE_CURVE ( 'NONE', #632, #680, #696, .T. ) ;
#28 = ORIENTED_EDGE ( 'NONE', *, *, #27, .T. ) ;
#29 = VECTOR ( 'NONE', #192, 1000.000000000000000 ) ;
#30 = DIRECTION ( 'NONE',  ( 1.000000000000000000, -0.000000000000000000, -0.000000000000000000 ) ) ;
#31 = CARTESIAN_POINT ( 'NONE',  ( 7.500000000000000888, 70.00000000000000000, 29.99999999999999289 ) ) ;
#32 = VECTOR ( 'NONE', #658, 1000.000000000000000 ) ;
#33 = ORIENTED_EDGE ( 'NONE', *, *, #326, .F. ) ;
#34 = CARTESIAN_POINT ( 'NONE',  ( -4.000000000000000000, 24.00000000000000000, 26.00000000000001066 ) ) ;
#35 = EDGE_CURVE ( 'NONE', #578, #333, #411, .T. ) ;
#36 = DIRECTION ( 'NONE',  ( 1.000000000000000000, 0.000000000000000000, 0.000000000000000000 ) ) ;
#37 = ORIENTED_EDGE ( 'NONE', *, *, #138, .T. ) ;
#38 =( LENGTH_UNIT ( ) NAMED_UNIT ( * ) SI_UNIT ( .MILLI., .METRE. ) );
#39 = SHAPE_DEFINITION_REPRESENTATION ( #278, #124 ) ;
#40 = DIRECTION ( 'NONE',  ( -0.000000000000000000, 1.000000000000000000, -0.000000000000000000 ) ) ;
#41 = VERTEX_POINT ( 'NONE', #68 ) ;
#42 = AXIS2_PLACEMENT_3D ( 'NONE', #775, #699, #214 ) ;
#43 = DIRECTION ( 'NONE',  ( 0.000000000000000000, 0.000000000000000000, -1.000000000000000000 ) ) ;
#44 = CIRCLE ( 'NONE', #462, 2.000000000000001776 ) ;
#45 = FACE_OUTER_BOUND ( 'NONE', #211, .T. ) ;
#46 = ORIENTED_EDGE ( 'NONE', *, *, #661, .F. ) ;
#47 = VECTOR ( 'NONE', #762, 1000.000000000000000 ) ;
#48 = ADVANCED_FACE ( 'NONE', ( #281, #563, #12 ), #63, .F. ) ;
#49 = CARTESIAN_POINT ( 'NONE',  ( 4.000000000000007105, 30.00000000000000000, 26.00000000000001066 ) ) ;
#50 = CARTESIAN_POINT ( 'NONE',  ( 4.000000000000007105, 24.00000000000000000, 24.00000000000000711 ) ) ;
#51 = ORIENTED_EDGE ( 'NONE', *, *, #230, .T. ) ;
#52 = DIRECTION ( 'NONE',  ( 0.000000000000000000, 0.000000000000000000, 1.000000000000000000 ) ) ;
#53 = ORIENTED_EDGE ( 'NONE', *, *, #645, .F. ) ;
#54 = PRESENTATION_STYLE_ASSIGNMENT (( #750 ) ) ;
#55 = DIRECTION ( 'NONE',  ( 0.000000000000000000, 1.000000000000000000, 0.000000000000000000 ) ) ;
#56 = ORIENTED_EDGE ( 'NONE', *, *, #90, .T. ) ;
#57 = ORIENTED_EDGE ( 'NONE', *, *, #326, .T. ) ;
#58 = DIRECTION ( 'NONE',  ( -0.000000000000000000, 1.000000000000000000, -0.000000000000000000 ) ) ;
#59 = FACE_OUTER_BOUND ( 'NONE', #667, .T. ) ;
#60 = EDGE_CURVE ( 'NONE', #833, #786, #419, .T. ) ;
#61 = ORIENTED_EDGE ( 'NONE', *, *, #329, .T. ) ;
#62 = PLANE ( 'NONE',  #556 ) ;
#63 = PLANE ( 'NONE',  #676 ) ;
#64 = VECTOR ( 'NONE', #171, 1000.000000000000000 ) ;
#65 = EDGE_CURVE ( 'NONE', #793, #253, #207, .T. ) ;
#66 = DIRECTION ( 'NONE',  ( 0.000000000000000000, 0.000000000000000000, -1.000000000000000000 ) ) ;
#67 = CIRCLE ( 'NONE', #670, 2.000000000000000000 ) ;
#68 = CARTESIAN_POINT ( 'NONE',  ( -4.000000000000000000, 24.00000000000000000, -26.00000000000000711 ) ) ;
#69 = PRESENTATION_LAYER_ASSIGNMENT (  '', '', ( #704 ) ) ;
#70 = MECHANICAL_DESIGN_GEOMETRIC_PRESENTATION_REPRESENTATION (  '', ( #86 ), #272 ) ;
#71 = ORIENTED_EDGE ( 'NONE', *, *, #60, .T. ) ;
#72 = ADVANCED_FACE ( 'NONE', ( #777 ), #489, .F. ) ;
#73 = VECTOR ( 'NONE', #842, 1000.000000000000000 ) ;
#74 = DIRECTION ( 'NONE',  ( 1.000000000000000000, 0.000000000000000000, 0.000000000000000000 ) ) ;
#75 = CARTESIAN_POINT ( 'NONE',  ( 4.000000000000007105, 30.00000000000000000, 24.00000000000000711 ) ) ;
#76 = ORIENTED_EDGE ( 'NONE', *, *, #559, .T. ) ;
#77 = EDGE_CURVE ( 'NONE', #268, #689, #767, .T. ) ;
#78 = DIRECTION ( 'NONE',  ( 1.000000000000000000, 0.000000000000000000, 0.000000000000000000 ) ) ;
#79 =( NAMED_UNIT ( * ) SI_UNIT ( $, .STERADIAN. ) SOLID_ANGLE_UNIT ( ) );
#80 = ORIENTED_EDGE ( 'NONE', *, *, #590, .F. ) ;
#81 = EDGE_LOOP ( 'NONE', ( #161, #53, #467, #496 ) ) ;
#82 = CARTESIAN_POINT ( 'NONE',  ( 2.000000000000444089, 4.000000000039409365, 15.99999999999999289 ) ) ;
#83 = DIRECTION ( 'NONE',  ( -0.000000000000000000, 1.000000000000000000, -0.000000000000000000 ) ) ;
#84 = CARTESIAN_POINT ( 'NONE',  ( 4.440892098500626162E-13, 4.000000000039409365, -16.00000000000000711 ) ) ;
#85 = ORIENTED_EDGE ( 'NONE', *, *, #144, .F. ) ;
#86 = STYLED_ITEM ( 'NONE', ( #54 ), #736 ) ;
#87 = DIRECTION ( 'NONE',  ( 0.000000000000000000, 0.000000000000000000, 1.000000000000000000 ) ) ;
#88 = AXIS2_PLACEMENT_3D ( 'NONE', #589, #174, #103 ) ;
#89 = CARTESIAN_POINT ( 'NONE',  ( 7.500000000000000888, 70.00000000000000000, -30.00000000000000711 ) ) ;
#90 = EDGE_CURVE ( 'NONE', #91, #735, #162, .T. ) ;
#91 = VERTEX_POINT ( 'NONE', #150 ) ;
#92 = DIRECTION ( 'NONE',  ( -1.000000000000000000, 0.000000000000000000, 0.000000000000000000 ) ) ;
#93 = CARTESIAN_POINT ( 'NONE',  ( 4.000000000000007105, 24.00000000000000000, 26.00000000000001066 ) ) ;
#94 = VERTEX_POINT ( 'NONE', #853 ) ;
#95 = FACE_OUTER_BOUND ( 'NONE', #263, .T. ) ;
#96 = EDGE_CURVE ( 'NONE', #450, #420, #572, .T. ) ;
#97 = CYLINDRICAL_SURFACE ( 'NONE', #147, 1.999999999999998224 ) ;
#98 = ORIENTED_EDGE ( 'NONE', *, *, #741, .F. ) ;
#99 = ADVANCED_FACE ( 'NONE', ( #763 ), #274, .F. ) ;
#100 = DIRECTION ( 'NONE',  ( 0.000000000000000000, 1.000000000000000000, 0.000000000000000000 ) ) ;
#101 = DIRECTION ( 'NONE',  ( 0.000000000000000000, 0.000000000000000000, -1.000000000000000000 ) ) ;
#102 = ORIENTED_EDGE ( 'NONE', *, *, #846, .F. ) ;
#103 = DIRECTION ( 'NONE',  ( 0.000000000000000000, 0.000000000000000000, -1.000000000000000000 ) ) ;
#104 = DIRECTION ( 'NONE',  ( 0.000000000000000000, 0.000000000000000000, 1.000000000000000000 ) ) ;
#105 = ORIENTED_EDGE ( 'NONE', *, *, #779, .T. ) ;
#106 = LINE ( 'NONE', #403, #745 ) ;
#107 = VECTOR ( 'NONE', #40, 1000.000000000000000 ) ;
#108 = ORIENTED_EDGE ( 'NONE', *, *, #765, .F. ) ;
#109 = CIRCLE ( 'NONE', #270, 2.000000000000001776 ) ;
#110 = AXIS2_PLACEMENT_3D ( 'NONE', #710, #78, #780 ) ;
#111 = DIRECTION ( 'NONE',  ( -0.000000000000000000, -0.000000000000000000, -1.000000000000000000 ) ) ;
#112 = CARTESIAN_POINT ( 'NONE',  ( 7.500000000000000888, 0.000000000000000000, 29.99999999999999289 ) ) ;
#113 = AXIS2_PLACEMENT_3D ( 'NONE', #384, #330, #43 ) ;
#114 = DIRECTION ( 'NONE',  ( 0.000000000000000000, -1.000000000000000000, -0.000000000000000000 ) ) ;
#115 = EDGE_CURVE ( 'NONE', #854, #249, #558, .T. ) ;
#116 = ORIENTED_EDGE ( 'NONE', *, *, #317, .F. ) ;
#117 = VECTOR ( 'NONE', #359, 1000.000000000000000 ) ;
#118 = EDGE_LOOP ( 'NONE', ( #85, #80, #640, #607 ) ) ;
#119 = CARTESIAN_POINT ( 'NONE',  ( -7.499999999999999112, 70.00000000000000000, -30.00000000000000711 ) ) ;
#120 = CARTESIAN_POINT ( 'NONE',  ( -4.000000000000000000, 24.00000000000000000, -24.00000000000000711 ) ) ;
#121 = VERTEX_POINT ( 'NONE', #785 ) ;
#122 = DIRECTION ( 'NONE',  ( 0.000000000000000000, 0.000000000000000000, 1.000000000000000000 ) ) ;
#123 = DIRECTION ( 'NONE',  ( -0.000000000000000000, -0.000000000000000000, -1.000000000000000000 ) ) ;
#124 = ADVANCED_BREP_SHAPE_REPRESENTATION ( 'encoder-stand_flange-support-bottom', ( #736, #232 ), #773 ) ;
#125 = ORIENTED_EDGE ( 'NONE', *, *, #808, .T. ) ;
#126 = EDGE_CURVE ( 'NONE', #387, #208, #180, .T. ) ;
#127 = CARTESIAN_POINT ( 'NONE',  ( -21.49999999999997158, 30.00000000000000000, -30.00000000000000711 ) ) ;
#128 = CARTESIAN_POINT ( 'NONE',  ( -4.000000000000000000, 24.00000000000000000, 24.00000000000000711 ) ) ;
#129 = VECTOR ( 'NONE', #477, 1000.000000000000000 ) ;
#130 = ORIENTED_EDGE ( 'NONE', *, *, #802, .F. ) ;
#131 = AXIS2_PLACEMENT_3D ( 'NONE', #371, #733, #801 ) ;
#132 = AXIS2_PLACEMENT_3D ( 'NONE', #84, #499, #418 ) ;
#133 = DIRECTION ( 'NONE',  ( 1.000000000000000000, 0.000000000000000000, 0.000000000000000000 ) ) ;
#134 = CYLINDRICAL_SURFACE ( 'NONE', #903, 1.999999999999998224 ) ;
#135 = PLANE ( 'NONE',  #164 ) ;
#136 = CARTESIAN_POINT ( 'NONE',  ( 7.500000000000000888, 30.00000000000000000, 17.00000000000000000 ) ) ;
#137 = DIRECTION ( 'NONE',  ( -0.000000000000000000, -0.000000000000000000, -1.000000000000000000 ) ) ;
#138 = EDGE_CURVE ( 'NONE', #709, #249, #166, .T. ) ;
#139 = ORIENTED_EDGE ( 'NONE', *, *, #486, .F. ) ;
#140 = CIRCLE ( 'NONE', #156, 2.000000000000001776 ) ;
#141 = DIRECTION ( 'NONE',  ( -1.000000000000000000, 0.000000000000000000, 0.000000000000000000 ) ) ;
#142 =( NAMED_UNIT ( * ) PLANE_ANGLE_UNIT ( ) SI_UNIT ( $, .RADIAN. ) );
#143 = ORIENTED_EDGE ( 'NONE', *, *, #394, .F. ) ;
#144 = EDGE_CURVE ( 'NONE', #201, #382, #381, .T. ) ;
#145 = CIRCLE ( 'NONE', #402, 2.000000000000000000 ) ;
#146 = ORIENTED_EDGE ( 'NONE', *, *, #126, .T. ) ;
#147 = AXIS2_PLACEMENT_3D ( 'NONE', #514, #316, #21 ) ;
#148 = CARTESIAN_POINT ( 'NONE',  ( 4.000000000000007105, 24.00000000000000000, -26.00000000000000711 ) ) ;
#149 = DIRECTION ( 'NONE',  ( 0.000000000000000000, 0.000000000000000000, 1.000000000000000000 ) ) ;
#150 = CARTESIAN_POINT ( 'NONE',  ( -2.499999999999999556, 13.99999999999999822, -14.00000000000000355 ) ) ;
#151 = EDGE_LOOP ( 'NONE', ( #143, #238, #190, #460 ) ) ;
#152 = DIRECTION ( 'NONE',  ( 0.000000000000000000, 0.000000000000000000, 1.000000000000000000 ) ) ;
#153 =( NAMED_UNIT ( * ) SI_UNIT ( $, .STERADIAN. ) SOLID_ANGLE_UNIT ( ) );
#154 = DIRECTION ( 'NONE',  ( 0.000000000000000000, -1.000000000000000000, -0.000000000000000000 ) ) ;
#155 = ORIENTED_EDGE ( 'NONE', *, *, #235, .T. ) ;
#156 = AXIS2_PLACEMENT_3D ( 'NONE', #128, #335, #52 ) ;
#157 = EDGE_CURVE ( 'NONE', #833, #684, #666, .T. ) ;
#158 = FACE_OUTER_BOUND ( 'NONE', #865, .T. ) ;
#159 = AXIS2_PLACEMENT_3D ( 'NONE', #209, #1, #497 ) ;
#160 = CARTESIAN_POINT ( 'NONE',  ( -4.000000000000000000, 24.00000000000000000, -26.00000000000000711 ) ) ;
#161 = ORIENTED_EDGE ( 'NONE', *, *, #217, .F. ) ;
#162 = CIRCLE ( 'NONE', #630, 1.999999999999998224 ) ;
#163 = DIRECTION ( 'NONE',  ( 1.000000000000000000, -0.000000000000000000, -0.000000000000000000 ) ) ;
#164 = AXIS2_PLACEMENT_3D ( 'NONE', #769, #299, #223 ) ;
#165 = DIRECTION ( 'NONE',  ( 1.000000000000000000, 0.000000000000000000, 0.000000000000000000 ) ) ;
#166 = LINE ( 'NONE', #229, #542 ) ;
#167 = EDGE_LOOP ( 'NONE', ( #328, #173 ) ) ;
#168 = CARTESIAN_POINT ( 'NONE',  ( 4.000000000000007105, 24.00000000000000000, -22.00000000000001066 ) ) ;
#169 = ADVANCED_FACE ( 'NONE', ( #518 ), #722, .F. ) ;
#170 = CARTESIAN_POINT ( 'NONE',  ( -4.000000000000000000, 24.00000000000000000, 24.00000000000000711 ) ) ;
#171 = DIRECTION ( 'NONE',  ( -0.000000000000000000, -1.000000000000000000, -0.000000000000000000 ) ) ;
#172 = ADVANCED_FACE ( 'NONE', ( #240 ), #97, .F. ) ;
#173 = ORIENTED_EDGE ( 'NONE', *, *, #329, .F. ) ;
#174 = DIRECTION ( 'NONE',  ( 1.000000000000000000, 0.000000000000000000, 0.000000000000000000 ) ) ;
#175 = CARTESIAN_POINT ( 'NONE',  ( 4.000000000000007105, 24.00000000000000000, -22.00000000000001066 ) ) ;
#176 = ORIENTED_EDGE ( 'NONE', *, *, #741, .T. ) ;
#177 = PRODUCT_RELATED_PRODUCT_CATEGORY ( 'part', '', ( #491 ) ) ;
#178 = CARTESIAN_POINT ( 'NONE',  ( 4.440892098500626162E-13, 4.000000000039409365, 15.99999999999999289 ) ) ;
#179 = CARTESIAN_POINT ( 'NONE',  ( 0.000000000000000000, 0.000000000000000000, 0.000000000000000000 ) ) ;
#180 = LINE ( 'NONE', #870, #555 ) ;
#181 = ORIENTED_EDGE ( 'NONE', *, *, #476, .T. ) ;
#182 = DIRECTION ( 'NONE',  ( 0.000000000000000000, 0.000000000000000000, -1.000000000000000000 ) ) ;
#183 = ORIENTED_EDGE ( 'NONE', *, *, #627, .F. ) ;
#184 = DIRECTION ( 'NONE',  ( 0.000000000000000000, 1.000000000000000000, 0.000000000000000000 ) ) ;
#185 = ADVANCED_FACE ( 'NONE', ( #857 ), #731, .T. ) ;
#186 = CYLINDRICAL_SURFACE ( 'NONE', #503, 1.999999999999998224 ) ;
#187 = AXIS2_PLACEMENT_3D ( 'NONE', #546, #123, #683 ) ;
#188 = ORIENTED_EDGE ( 'NONE', *, *, #507, .T. ) ;
#189 = DIRECTION ( 'NONE',  ( 0.000000000000000000, 0.000000000000000000, 1.000000000000000000 ) ) ;
#190 = ORIENTED_EDGE ( 'NONE', *, *, #157, .T. ) ;
#191 = VECTOR ( 'NONE', #137, 1000.000000000000000 ) ;
#192 = DIRECTION ( 'NONE',  ( 1.000000000000000000, -0.000000000000000000, -0.000000000000000000 ) ) ;
#193 = CYLINDRICAL_SURFACE ( 'NONE', #187, 2.000000000000000000 ) ;
#194 = EDGE_LOOP ( 'NONE', ( #703, #532, #527, #361 ) ) ;
#195 = EDGE_CURVE ( 'NONE', #732, #680, #824, .T. ) ;
#196 = DIRECTION ( 'NONE',  ( 0.000000000000000000, 0.000000000000000000, 1.000000000000000000 ) ) ;
#197 = DIRECTION ( 'NONE',  ( 0.000000000000000000, 1.000000000000000000, 0.000000000000000000 ) ) ;
#198 = ORIENTED_EDGE ( 'NONE', *, *, #645, .T. ) ;
#199 = FACE_OUTER_BOUND ( 'NONE', #194, .T. ) ;
#200 = DIRECTION ( 'NONE',  ( 0.000000000000000000, 0.000000000000000000, 1.000000000000000000 ) ) ;
#201 = VERTEX_POINT ( 'NONE', #591 ) ;
#202 = UNCERTAINTY_MEASURE_WITH_UNIT (LENGTH_MEASURE( 1.000000000000000082E-05 ), #711, 'distance_accuracy_value', 'NONE');
#203 = AXIS2_PLACEMENT_3D ( 'NONE', #178, #448, #521 ) ;
#204 = EDGE_CURVE ( 'NONE', #626, #781, #649, .T. ) ;
#205 = DIRECTION ( 'NONE',  ( 0.000000000000000000, 1.000000000000000000, 0.000000000000000000 ) ) ;
#206 = DIRECTION ( 'NONE',  ( 0.000000000000000000, 0.000000000000000000, 1.000000000000000000 ) ) ;
#207 = LINE ( 'NONE', #341, #73 ) ;
#208 = VERTEX_POINT ( 'NONE', #597 ) ;
#209 = CARTESIAN_POINT ( 'NONE',  ( 7.500000000000000888, 13.99999999999999822, -16.00000000000000355 ) ) ;
#210 = SURFACE_SIDE_STYLE ('',( #571 ) ) ;
#211 = EDGE_LOOP ( 'NONE', ( #434, #610, #778, #297 ) ) ;
#212 = VERTEX_POINT ( 'NONE', #300 ) ;
#213 = EDGE_CURVE ( 'NONE', #212, #868, #372, .T. ) ;
#214 = DIRECTION ( 'NONE',  ( 0.000000000000000000, 0.000000000000000000, -1.000000000000000000 ) ) ;
#215 = FACE_OUTER_BOUND ( 'NONE', #412, .T. ) ;
#216 = VERTEX_POINT ( 'NONE', #805 ) ;
#217 = EDGE_CURVE ( 'NONE', #41, #94, #875, .T. ) ;
#218 = CYLINDRICAL_SURFACE ( 'NONE', #42, 17.00000000000000000 ) ;
#219 = CARTESIAN_POINT ( 'NONE',  ( 7.500000000000000888, 30.00000000000000000, -30.00000000000000711 ) ) ;
#220 = DIRECTION ( 'NONE',  ( 1.000000000000000000, 0.000000000000000000, 0.000000000000000000 ) ) ;
#221 = ORIENTED_EDGE ( 'NONE', *, *, #213, .T. ) ;
#222 = ADVANCED_FACE ( 'NONE', ( #652, #26, #306 ), #585, .F. ) ;
#223 = DIRECTION ( 'NONE',  ( 0.000000000000000000, 0.000000000000000000, -1.000000000000000000 ) ) ;
#224 = CARTESIAN_POINT ( 'NONE',  ( -1.999999999999555911, 4.000000000039409365, -16.00000000000000711 ) ) ;
#225 = ORIENTED_EDGE ( 'NONE', *, *, #23, .F. ) ;
#226 = CIRCLE ( 'NONE', #653, 2.000000000000001776 ) ;
#227 = DIRECTION ( 'NONE',  ( 0.000000000000000000, 0.000000000000000000, 1.000000000000000000 ) ) ;
#228 = AXIS2_PLACEMENT_3D ( 'NONE', #493, #66, #141 ) ;
#229 = CARTESIAN_POINT ( 'NONE',  ( 7.500000000000000888, 0.000000000000000000, 29.99999999999999289 ) ) ;
#230 = EDGE_CURVE ( 'NONE', #760, #732, #445, .T. ) ;
#231 = ORIENTED_EDGE ( 'NONE', *, *, #414, .F. ) ;
#232 = AXIS2_PLACEMENT_3D ( 'NONE', #179, #509, #165 ) ;
#233 = AXIS2_PLACEMENT_3D ( 'NONE', #483, #358, #766 ) ;
#234 = DIRECTION ( 'NONE',  ( 0.000000000000000000, 0.000000000000000000, 1.000000000000000000 ) ) ;
#235 = EDGE_CURVE ( 'NONE', #311, #709, #376, .T. ) ;
#236 = PRODUCT_CONTEXT ( 'NONE', #895, 'mechanical' ) ;
#237 = DIRECTION ( 'NONE',  ( -0.000000000000000000, 1.000000000000000000, -0.000000000000000000 ) ) ;
#238 = ORIENTED_EDGE ( 'NONE', *, *, #60, .F. ) ;
#239 = LINE ( 'NONE', #662, #761 ) ;
#240 = FACE_OUTER_BOUND ( 'NONE', #265, .T. ) ;
#241 = PRODUCT_DEFINITION ( 'General', '', #720, #625 ) ;
#242 = ORIENTED_EDGE ( 'NONE', *, *, #195, .F. ) ;
#243 = CARTESIAN_POINT ( 'NONE',  ( 4.440892098500626162E-13, 4.000000000039409365, 15.99999999999999289 ) ) ;
#244 = CARTESIAN_POINT ( 'NONE',  ( -4.000000000000000000, 30.00000000000000000, 24.00000000000000711 ) ) ;
#245 = ORIENTED_EDGE ( 'NONE', *, *, #835, .T. ) ;
#246 = DIRECTION ( 'NONE',  ( 0.000000000000000000, 0.000000000000000000, -1.000000000000000000 ) ) ;
#247 = CIRCLE ( 'NONE', #677, 2.000000000000000000 ) ;
#248 = CARTESIAN_POINT ( 'NONE',  ( 4.000000000000007105, 30.00000000000000000, 22.00000000000000711 ) ) ;
#249 = VERTEX_POINT ( 'NONE', #867 ) ;
#250 = EDGE_CURVE ( 'NONE', #560, #253, #533, .T. ) ;
#251 = CARTESIAN_POINT ( 'NONE',  ( -2.499999999999999556, 13.99999999999999467, 15.99999999999999645 ) ) ;
#252 = DIRECTION ( 'NONE',  ( 0.000000000000000000, -0.000000000000000000, 1.000000000000000000 ) ) ;
#253 = VERTEX_POINT ( 'NONE', #594 ) ;
#254 = LINE ( 'NONE', #119, #360 ) ;
#255 = DIRECTION ( 'NONE',  ( 0.000000000000000000, 1.000000000000000000, 0.000000000000000000 ) ) ;
#256 = DIRECTION ( 'NONE',  ( 0.000000000000000000, 0.000000000000000000, -1.000000000000000000 ) ) ;
#257 = EDGE_LOOP ( 'NONE', ( #829, #19, #301, #587 ) ) ;
#258 = CARTESIAN_POINT ( 'NONE',  ( 0.000000000000000000, 0.000000000000000000, 0.000000000000000000 ) ) ;
#259 = AXIS2_PLACEMENT_3D ( 'NONE', #334, #596, #196 ) ;
#260 = DIRECTION ( 'NONE',  ( 0.000000000000000000, 0.000000000000000000, 1.000000000000000000 ) ) ;
#261 = ADVANCED_FACE ( 'NONE', ( #606 ), #186, .F. ) ;
#262 = EDGE_LOOP ( 'NONE', ( #876, #56 ) ) ;
#263 = EDGE_LOOP ( 'NONE', ( #582, #650, #76, #822 ) ) ;
#264 = CARTESIAN_POINT ( 'NONE',  ( -21.49999999999997158, 30.00000000000000000, 30.00000000000000711 ) ) ;
#265 = EDGE_LOOP ( 'NONE', ( #102, #439, #564, #466 ) ) ;
#266 = LINE ( 'NONE', #617, #586 ) ;
#267 = CARTESIAN_POINT ( 'NONE',  ( -2.499999999999999556, 13.99999999999999467, 15.99999999999999645 ) ) ;
#268 = VERTEX_POINT ( 'NONE', #396 ) ;
#269 = AXIS2_PLACEMENT_3D ( 'NONE', #264, #114, #182 ) ;
#270 = AXIS2_PLACEMENT_3D ( 'NONE', #75, #428, #408 ) ;
#271 = DIRECTION ( 'NONE',  ( 0.000000000000000000, 0.000000000000000000, -1.000000000000000000 ) ) ;
#272 =( GEOMETRIC_REPRESENTATION_CONTEXT ( 3 ) GLOBAL_UNCERTAINTY_ASSIGNED_CONTEXT ( ( #901 ) ) GLOBAL_UNIT_ASSIGNED_CONTEXT ( ( #38, #809, #825 ) ) REPRESENTATION_CONTEXT ( 'NONE', 'WORKASPACE' ) );
#273 = CARTESIAN_POINT ( 'NONE',  ( -7.500000000000000000, 30.00000000000000000, 0.000000000000000000 ) ) ;
#274 = CYLINDRICAL_SURFACE ( 'NONE', #275, 2.000000000000000000 ) ;
#275 = AXIS2_PLACEMENT_3D ( 'NONE', #849, #907, #220 ) ;
#276 = CIRCLE ( 'NONE', #807, 2.000000000000001776 ) ;
#277 = ORIENTED_EDGE ( 'NONE', *, *, #561, .T. ) ;
#278 = PRODUCT_DEFINITION_SHAPE ( 'NONE', 'NONE',  #241 ) ;
#279 = CARTESIAN_POINT ( 'NONE',  ( 4.440892098500626162E-13, 4.000000000039409365, 15.99999999999999289 ) ) ;
#280 = DIRECTION ( 'NONE',  ( 0.000000000000000000, 0.000000000000000000, -1.000000000000000000 ) ) ;
#281 = FACE_BOUND ( 'NONE', #523, .T. ) ;
#282 = ADVANCED_FACE ( 'NONE', ( #826 ), #193, .F. ) ;
#283 = EDGE_LOOP ( 'NONE', ( #4, #515 ) ) ;
#284 = DIRECTION ( 'NONE',  ( -1.000000000000000000, 0.000000000000000000, 0.000000000000000000 ) ) ;
#285 = CARTESIAN_POINT ( 'NONE',  ( 2.000000000000444089, 4.000000000039409365, -16.00000000000000711 ) ) ;
#286 = EDGE_LOOP ( 'NONE', ( #592, #405 ) ) ;
#287 = FACE_OUTER_BOUND ( 'NONE', #700, .T. ) ;
#288 = FILL_AREA_STYLE ('',( #770 ) ) ;
#289 = CARTESIAN_POINT ( 'NONE',  ( -4.000000000000000000, 24.00000000000000000, -24.00000000000000711 ) ) ;
#290 = EDGE_CURVE ( 'NONE', #201, #626, #226, .T. ) ;
#291 = AXIS2_PLACEMENT_3D ( 'NONE', #494, #83, #206 ) ;
#292 = EDGE_LOOP ( 'NONE', ( #470, #512 ) ) ;
#293 = CIRCLE ( 'NONE', #362, 1.999999999999998224 ) ;
#294 = CYLINDRICAL_SURFACE ( 'NONE', #823, 1.999999999999998224 ) ;
#295 = FACE_OUTER_BOUND ( 'NONE', #257, .T. ) ;
#296 = CARTESIAN_POINT ( 'NONE',  ( -4.000000000000000000, 24.00000000000000000, 26.00000000000001066 ) ) ;
#297 = ORIENTED_EDGE ( 'NONE', *, *, #574, .T. ) ;
#298 = DIRECTION ( 'NONE',  ( -1.000000000000000000, 0.000000000000000000, 0.000000000000000000 ) ) ;
#299 = DIRECTION ( 'NONE',  ( 1.000000000000000000, 0.000000000000000000, 0.000000000000000000 ) ) ;
#300 = CARTESIAN_POINT ( 'NONE',  ( -7.500000000000000000, 30.00000000000000000, 17.00000000000000000 ) ) ;
#301 = ORIENTED_EDGE ( 'NONE', *, *, #656, .T. ) ;
#302 = CIRCLE ( 'NONE', #815, 2.000000000000000000 ) ;
#303 = EDGE_CURVE ( 'NONE', #814, #547, #698, .T. ) ;
#304 = DIRECTION ( 'NONE',  ( 0.000000000000000000, 1.000000000000000000, 0.000000000000000000 ) ) ;
#305 = VECTOR ( 'NONE', #10, 1000.000000000000000 ) ;
#306 = FACE_OUTER_BOUND ( 'NONE', #442, .T. ) ;
#307 = EDGE_LOOP ( 'NONE', ( #425, #889, #654, #221 ) ) ;
#308 = VECTOR ( 'NONE', #581, 1000.000000000000000 ) ;
#309 = DIRECTION ( 'NONE',  ( 0.000000000000000000, 0.000000000000000000, 1.000000000000000000 ) ) ;
#310 = DIRECTION ( 'NONE',  ( 0.000000000000000000, 0.000000000000000000, 1.000000000000000000 ) ) ;
#311 = VERTEX_POINT ( 'NONE', #392 ) ;
#312 = CARTESIAN_POINT ( 'NONE',  ( 4.000000000000007105, 24.00000000000000000, 24.00000000000000711 ) ) ;
#313 = DIRECTION ( 'NONE',  ( 0.000000000000000000, 0.000000000000000000, -1.000000000000000000 ) ) ;
#314 = EDGE_LOOP ( 'NONE', ( #850, #890 ) ) ;
#315 = FILL_AREA_STYLE ('',( #455 ) ) ;
#316 = DIRECTION ( 'NONE',  ( 1.000000000000000000, -0.000000000000000000, -0.000000000000000000 ) ) ;
#317 = EDGE_CURVE ( 'NONE', #786, #833, #856, .T. ) ;
#318 = ORIENTED_EDGE ( 'NONE', *, *, #365, .F. ) ;
#319 = COLOUR_RGB ( '',0.2509803921568627416, 0.2509803921568627416, 0.2509803921568627416 ) ;
#320 = CARTESIAN_POINT ( 'NONE',  ( -21.49999999999997158, 30.00000000000000000, 30.00000000000000711 ) ) ;
#321 = AXIS2_PLACEMENT_3D ( 'NONE', #487, #340, #152 ) ;
#322 = FACE_BOUND ( 'NONE', #286, .T. ) ;
#323 = ORIENTED_EDGE ( 'NONE', *, *, #447, .F. ) ;
#324 = CARTESIAN_POINT ( 'NONE',  ( -4.000000000000000000, 24.00000000000000000, 24.00000000000000711 ) ) ;
#325 = CARTESIAN_POINT ( 'NONE',  ( 4.000000000000007105, 24.00000000000000000, -24.00000000000000711 ) ) ;
#326 = EDGE_CURVE ( 'NONE', #760, #632, #140, .T. ) ;
#327 = ORIENTED_EDGE ( 'NONE', *, *, #614, .T. ) ;
#328 = ORIENTED_EDGE ( 'NONE', *, *, #303, .F. ) ;
#329 = EDGE_CURVE ( 'NONE', #547, #814, #302, .T. ) ;
#330 = DIRECTION ( 'NONE',  ( 1.000000000000000000, -0.000000000000000000, -0.000000000000000000 ) ) ;
#331 = FACE_BOUND ( 'NONE', #366, .T. ) ;
#332 = VERTEX_POINT ( 'NONE', #813 ) ;
#333 = VERTEX_POINT ( 'NONE', #828 ) ;
#334 = CARTESIAN_POINT ( 'NONE',  ( -4.000000000000000000, 24.00000000000000000, 24.00000000000000711 ) ) ;
#335 = DIRECTION ( 'NONE',  ( 0.000000000000000000, 1.000000000000000000, 0.000000000000000000 ) ) ;
#336 = ORIENTED_EDGE ( 'NONE', *, *, #317, .T. ) ;
#337 = CARTESIAN_POINT ( 'NONE',  ( -4.000000000000000000, 24.00000000000000000, -22.00000000000001066 ) ) ;
#338 = DIRECTION ( 'NONE',  ( 0.000000000000000000, -0.000000000000000000, 1.000000000000000000 ) ) ;
#339 = ORIENTED_EDGE ( 'NONE', *, *, #490, .F. ) ;
#340 = DIRECTION ( 'NONE',  ( 0.000000000000000000, 1.000000000000000000, 0.000000000000000000 ) ) ;
#341 = CARTESIAN_POINT ( 'NONE',  ( -2.499999999999999556, 13.99999999999999467, 17.99999999999999645 ) ) ;
#342 = VECTOR ( 'NONE', #727, 1000.000000000000000 ) ;
#343 = ADVANCED_FACE ( 'NONE', ( #536, #331, #746 ), #385, .F. ) ;
#344 = AXIS2_PLACEMENT_3D ( 'NONE', #120, #810, #252 ) ;
#345 = FACE_OUTER_BOUND ( 'NONE', #573, .T. ) ;
#346 = VECTOR ( 'NONE', #58, 1000.000000000000000 ) ;
#347 = DIRECTION ( 'NONE',  ( 0.000000000000000000, 1.000000000000000000, 0.000000000000000000 ) ) ;
#348 = VECTOR ( 'NONE', #799, 1000.000000000000000 ) ;
#349 = ORIENTED_EDGE ( 'NONE', *, *, #611, .F. ) ;
#350 = FACE_BOUND ( 'NONE', #167, .T. ) ;
#351 = PLANE ( 'NONE',  #622 ) ;
#352 = ORIENTED_EDGE ( 'NONE', *, *, #115, .F. ) ;
#353 = EDGE_CURVE ( 'NONE', #735, #216, #473, .T. ) ;
#354 = DIRECTION ( 'NONE',  ( -0.000000000000000000, -0.000000000000000000, 1.000000000000000000 ) ) ;
#355 = DIRECTION ( 'NONE',  ( 0.000000000000000000, 0.000000000000000000, 1.000000000000000000 ) ) ;
#356 = EDGE_LOOP ( 'NONE', ( #116, #504, #729, #595 ) ) ;
#357 = DIRECTION ( 'NONE',  ( -0.000000000000000000, -0.000000000000000000, 1.000000000000000000 ) ) ;
#358 = DIRECTION ( 'NONE',  ( 1.000000000000000000, 0.000000000000000000, 0.000000000000000000 ) ) ;
#359 = DIRECTION ( 'NONE',  ( -0.000000000000000000, -0.000000000000000000, -1.000000000000000000 ) ) ;
#360 = VECTOR ( 'NONE', #395, 1000.000000000000000 ) ;
#361 = ORIENTED_EDGE ( 'NONE', *, *, #96, .F. ) ;
#362 = AXIS2_PLACEMENT_3D ( 'NONE', #848, #205, #200 ) ;
#363 = CARTESIAN_POINT ( 'NONE',  ( 4.000000000000007105, 30.00000000000000000, -22.00000000000001066 ) ) ;
#364 = DIRECTION ( 'NONE',  ( 1.000000000000000000, 0.000000000000000000, 0.000000000000000000 ) ) ;
#365 = EDGE_CURVE ( 'NONE', #332, #854, #106, .T. ) ;
#366 = EDGE_LOOP ( 'NONE', ( #893, #545 ) ) ;
#367 = CARTESIAN_POINT ( 'NONE',  ( -4.000000000000000000, 30.00000000000000000, -24.00000000000000711 ) ) ;
#368 = ADVANCED_FACE ( 'NONE', ( #322, #45 ), #742, .F. ) ;
#369 = CARTESIAN_POINT ( 'NONE',  ( -62.50000000000000000, 30.00000000000000000, 17.00000000000000000 ) ) ;
#370 = ORIENTED_EDGE ( 'NONE', *, *, #860, .T. ) ;
#371 = CARTESIAN_POINT ( 'NONE',  ( -4.000000000000000000, 24.00000000000000000, -24.00000000000000711 ) ) ;
#372 = LINE ( 'NONE', #369, #620 ) ;
#373 = ORIENTED_EDGE ( 'NONE', *, *, #290, .T. ) ;
#374 = AXIS2_PLACEMENT_3D ( 'NONE', #691, #111, #298 ) ;
#375 = CARTESIAN_POINT ( 'NONE',  ( 7.500000000000000888, 0.000000000000000000, 29.99999999999999289 ) ) ;
#376 = LINE ( 'NONE', #796, #64 ) ;
#377 = ADVANCED_FACE ( 'NONE', ( #59 ), #602, .T. ) ;
#378 = ORIENTED_EDGE ( 'NONE', *, *, #765, .T. ) ;
#379 = CARTESIAN_POINT ( 'NONE',  ( -7.500000000000000000, 30.00000000000000000, 30.00000000000000711 ) ) ;
#380 = EDGE_CURVE ( 'NONE', #94, #121, #583, .T. ) ;
#381 = LINE ( 'NONE', #739, #32 ) ;
#382 = VERTEX_POINT ( 'NONE', #248 ) ;
#383 = VECTOR ( 'NONE', #237, 1000.000000000000000 ) ;
#384 = CARTESIAN_POINT ( 'NONE',  ( -2.499999999999999556, 13.99999999999999467, 15.99999999999999645 ) ) ;
#385 = PLANE ( 'NONE',  #269 ) ;
#386 = CIRCLE ( 'NONE', #624, 1.999999999999998224 ) ;
#387 = VERTEX_POINT ( 'NONE', #526 ) ;
#388 = CIRCLE ( 'NONE', #259, 2.000000000000001776 ) ;
#389 = APPLICATION_CONTEXT ( 'automotive_design' ) ;
#390 = ADVANCED_FACE ( 'NONE', ( #751 ), #543, .T. ) ;
#391 = SURFACE_STYLE_FILL_AREA ( #315 ) ;
#392 = CARTESIAN_POINT ( 'NONE',  ( 7.500000000000000888, 30.00000000000000000, 30.00000000000000711 ) ) ;
#393 = ORIENTED_EDGE ( 'NONE', *, *, #447, .T. ) ;
#394 = EDGE_CURVE ( 'NONE', #786, #616, #530, .T. ) ;
#395 = DIRECTION ( 'NONE',  ( -0.000000000000000000, -1.000000000000000000, -0.000000000000000000 ) ) ;
#396 = CARTESIAN_POINT ( 'NONE',  ( -7.500000000000000000, 30.00000000000000000, -17.00000000000000000 ) ) ;
#397 = ORIENTED_EDGE ( 'NONE', *, *, #507, .F. ) ;
#398 = CARTESIAN_POINT ( 'NONE',  ( 7.500000000000000888, 13.99999999999999822, -14.00000000000000355 ) ) ;
#399 = DIRECTION ( 'NONE',  ( 0.000000000000000000, 0.000000000000000000, 1.000000000000000000 ) ) ;
#400 = EDGE_LOOP ( 'NONE', ( #13, #98, #28, #690 ) ) ;
#401 = CYLINDRICAL_SURFACE ( 'NONE', #374, 2.000000000000000000 ) ;
#402 = AXIS2_PLACEMENT_3D ( 'NONE', #251, #817, #678 ) ;
#403 = CARTESIAN_POINT ( 'NONE',  ( 7.500000000000000888, 30.00000000000000000, 30.00000000000000711 ) ) ;
#404 = CIRCLE ( 'NONE', #88, 1.999999999999998224 ) ;
#405 = ORIENTED_EDGE ( 'NONE', *, *, #465, .F. ) ;
#406 = DIRECTION ( 'NONE',  ( -0.000000000000000000, -0.000000000000000000, 1.000000000000000000 ) ) ;
#407 = EDGE_CURVE ( 'NONE', #216, #713, #859, .T. ) ;
#408 = DIRECTION ( 'NONE',  ( 0.000000000000000000, 0.000000000000000000, 1.000000000000000000 ) ) ;
#409 = CARTESIAN_POINT ( 'NONE',  ( -1.999999999999555911, 4.000000000039409365, 15.99999999999999289 ) ) ;
#410 = FACE_OUTER_BOUND ( 'NONE', #81, .T. ) ;
#411 = LINE ( 'NONE', #285, #117 ) ;
#412 = EDGE_LOOP ( 'NONE', ( #176, #57 ) ) ;
#413 = AXIS2_PLACEMENT_3D ( 'NONE', #279, #354, #74 ) ;
#414 = EDGE_CURVE ( 'NONE', #793, #772, #459, .T. ) ;
#415 = CARTESIAN_POINT ( 'NONE',  ( 4.440892098500626162E-13, 4.000000000039409365, -30.00000000000000711 ) ) ;
#416 = CIRCLE ( 'NONE', #478, 2.000000000000000000 ) ;
#417 = CYLINDRICAL_SURFACE ( 'NONE', #291, 2.000000000000001776 ) ;
#418 = DIRECTION ( 'NONE',  ( -1.000000000000000000, 0.000000000000000000, 0.000000000000000000 ) ) ;
#419 = CIRCLE ( 'NONE', #706, 1.999999999999998224 ) ;
#420 = VERTEX_POINT ( 'NONE', #565 ) ;
#421 = ADVANCED_FACE ( 'NONE', ( #287 ), #705, .F. ) ;
#422 = PLANE ( 'NONE',  #905 ) ;
#423 = DIRECTION ( 'NONE',  ( 0.000000000000000000, -0.000000000000000000, 1.000000000000000000 ) ) ;
#424 = CARTESIAN_POINT ( 'NONE',  ( -21.49999999999997158, 30.00000000000000000, 30.00000000000000711 ) ) ;
#425 = ORIENTED_EDGE ( 'NONE', *, *, #702, .T. ) ;
#426 = LINE ( 'NONE', #82, #723 ) ;
#427 = DIRECTION ( 'NONE',  ( -1.000000000000000000, 0.000000000000000000, -0.000000000000000000 ) ) ;
#428 = DIRECTION ( 'NONE',  ( 0.000000000000000000, 1.000000000000000000, 0.000000000000000000 ) ) ;
#429 = EDGE_LOOP ( 'NONE', ( #277, #569 ) ) ;
#430 = AXIS2_PLACEMENT_3D ( 'NONE', #464, #255, #260 ) ;
#431 = CARTESIAN_POINT ( 'NONE',  ( 4.000000000000007105, 24.00000000000000000, 26.00000000000001066 ) ) ;
#432 = DIRECTION ( 'NONE',  ( 0.000000000000000000, 0.000000000000000000, -1.000000000000000000 ) ) ;
#433 = AXIS2_PLACEMENT_3D ( 'NONE', #367, #612, #122 ) ;
#434 = ORIENTED_EDGE ( 'NONE', *, *, #790, .F. ) ;
#435 = AXIS2_PLACEMENT_3D ( 'NONE', #243, #651, #24 ) ;
#436 = CARTESIAN_POINT ( 'NONE',  ( -4.000000000000000000, 30.00000000000000000, 26.00000000000001066 ) ) ;
#437 = CARTESIAN_POINT ( 'NONE',  ( 4.000000000000007105, 24.00000000000000000, 24.00000000000000711 ) ) ;
#438 = ADVANCED_FACE ( 'NONE', ( #350, #345 ), #422, .F. ) ;
#439 = ORIENTED_EDGE ( 'NONE', *, *, #896, .F. ) ;
#440 = LINE ( 'NONE', #851, #692 ) ;
#441 = CARTESIAN_POINT ( 'NONE',  ( -4.000000000000000000, 24.00000000000000000, 22.00000000000000711 ) ) ;
#442 = EDGE_LOOP ( 'NONE', ( #352, #318, #685, #881, #155, #37 ) ) ;
#443 = CARTESIAN_POINT ( 'NONE',  ( 4.440892098500626162E-13, 4.000000000039409365, 15.99999999999999289 ) ) ;
#444 = EDGE_CURVE ( 'NONE', #420, #333, #67, .T. ) ;
#445 = LINE ( 'NONE', #441, #383 ) ;
#446 = ORIENTED_EDGE ( 'NONE', *, *, #444, .T. ) ;
#447 = EDGE_CURVE ( 'NONE', #840, #547, #844, .T. ) ;
#448 = DIRECTION ( 'NONE',  ( 0.000000000000000000, 0.000000000000000000, 1.000000000000000000 ) ) ;
#449 = DIRECTION ( 'NONE',  ( -0.000000000000000000, 1.000000000000000000, -0.000000000000000000 ) ) ;
#450 = VERTEX_POINT ( 'NONE', #831 ) ;
#451 = DIRECTION ( 'NONE',  ( -0.000000000000000000, 1.000000000000000000, -0.000000000000000000 ) ) ;
#452 = DIRECTION ( 'NONE',  ( 0.000000000000000000, 1.000000000000000000, 0.000000000000000000 ) ) ;
#453 = ORIENTED_EDGE ( 'NONE', *, *, #126, .F. ) ;
#454 = AXIS2_PLACEMENT_3D ( 'NONE', #325, #55, #879 ) ;
#455 = FILL_AREA_STYLE_COLOUR ( '', #319 ) ;
#456 = CARTESIAN_POINT ( 'NONE',  ( 4.440892098500626162E-13, 4.000000000039409365, 29.99999999999999289 ) ) ;
#457 = ADVANCED_FACE ( 'NONE', ( #841 ), #218, .F. ) ;
#458 = CARTESIAN_POINT ( 'NONE',  ( -2.499999999999999556, 13.99999999999999822, -14.00000000000000355 ) ) ;
#459 = CIRCLE ( 'NONE', #818, 2.000000000000000000 ) ;
#460 = ORIENTED_EDGE ( 'NONE', *, *, #486, .T. ) ;
#461 = AXIS2_PLACEMENT_3D ( 'NONE', #776, #906, #149 ) ;
#462 = AXIS2_PLACEMENT_3D ( 'NONE', #584, #100, #234 ) ;
#463 = CARTESIAN_POINT ( 'NONE',  ( -2.499999999999999556, 13.99999999999999467, 13.99999999999999645 ) ) ;
#464 = CARTESIAN_POINT ( 'NONE',  ( -4.000000000000000000, 30.00000000000000000, -24.00000000000000711 ) ) ;
#465 = EDGE_CURVE ( 'NONE', #333, #420, #832, .T. ) ;
#466 = ORIENTED_EDGE ( 'NONE', *, *, #407, .T. ) ;
#467 = ORIENTED_EDGE ( 'NONE', *, *, #794, .T. ) ;
#468 = CARTESIAN_POINT ( 'NONE',  ( -2.499999999999999556, 13.99999999999999467, 17.99999999999999645 ) ) ;
#469 = CARTESIAN_POINT ( 'NONE',  ( 4.440892098500626162E-13, 4.000000000039409365, 29.99999999999999289 ) ) ;
#470 = ORIENTED_EDGE ( 'NONE', *, *, #250, .F. ) ;
#471 = EDGE_LOOP ( 'NONE', ( #105, #694 ) ) ;
#472 = FACE_OUTER_BOUND ( 'NONE', #681, .T. ) ;
#473 = LINE ( 'NONE', #613, #784 ) ;
#474 = EDGE_LOOP ( 'NONE', ( #139, #339 ) ) ;
#475 = COLOUR_RGB ( '',0.2509803921568627416, 0.2509803921568627416, 0.2509803921568627416 ) ;
#476 = EDGE_CURVE ( 'NONE', #253, #560, #787, .T. ) ;
#477 = DIRECTION ( 'NONE',  ( 1.000000000000000000, -0.000000000000000000, -0.000000000000000000 ) ) ;
#478 = AXIS2_PLACEMENT_3D ( 'NONE', #669, #812, #886 ) ;
#479 = CARTESIAN_POINT ( 'NONE',  ( -7.499999999999999112, 70.00000000000000000, 29.99999999999999289 ) ) ;
#480 = VERTEX_POINT ( 'NONE', #482 ) ;
#481 = CIRCLE ( 'NONE', #132, 2.000000000000000000 ) ;
#482 = CARTESIAN_POINT ( 'NONE',  ( 2.000000000000444089, 4.000000000039409365, 15.99999999999999289 ) ) ;
#483 = CARTESIAN_POINT ( 'NONE',  ( -2.499999999999999556, 13.99999999999999822, -16.00000000000000355 ) ) ;
#484 = DIRECTION ( 'NONE',  ( 0.000000000000000000, 0.000000000000000000, -1.000000000000000000 ) ) ;
#485 = ORIENTED_EDGE ( 'NONE', *, *, #303, .T. ) ;
#486 = EDGE_CURVE ( 'NONE', #684, #616, #386, .T. ) ;
#487 = CARTESIAN_POINT ( 'NONE',  ( -4.000000000000000000, 24.00000000000000000, -24.00000000000000711 ) ) ;
#488 =( LENGTH_UNIT ( ) NAMED_UNIT ( * ) SI_UNIT ( .MILLI., .METRE. ) );
#489 = CYLINDRICAL_SURFACE ( 'NONE', #864, 1.999999999999998224 ) ;
#490 = EDGE_CURVE ( 'NONE', #616, #684, #293, .T. ) ;
#491 = PRODUCT ( 'encoder-stand_flange-support-bottom', 'encoder-stand_flange-support-bottom', '', ( #236 ) ) ;
#492 = ORIENTED_EDGE ( 'NONE', *, *, #528, .T. ) ;
#493 = CARTESIAN_POINT ( 'NONE',  ( 4.440892098500626162E-13, 4.000000000039409365, -30.00000000000000711 ) ) ;
#494 = CARTESIAN_POINT ( 'NONE',  ( 4.000000000000007105, 24.00000000000000000, 24.00000000000000711 ) ) ;
#495 = FACE_OUTER_BOUND ( 'NONE', #847, .T. ) ;
#496 = ORIENTED_EDGE ( 'NONE', *, *, #697, .T. ) ;
#497 = DIRECTION ( 'NONE',  ( 0.000000000000000000, 0.000000000000000000, -1.000000000000000000 ) ) ;
#498 = SURFACE_STYLE_USAGE ( .BOTH. , #210 ) ;
#499 = DIRECTION ( 'NONE',  ( 0.000000000000000000, 0.000000000000000000, -1.000000000000000000 ) ) ;
#500 = ORIENTED_EDGE ( 'NONE', *, *, #559, .F. ) ;
#501 = DIRECTION ( 'NONE',  ( 1.000000000000000000, -0.000000000000000000, -0.000000000000000000 ) ) ;
#502 = DIRECTION ( 'NONE',  ( -1.000000000000000000, 0.000000000000000000, 0.000000000000000000 ) ) ;
#503 = AXIS2_PLACEMENT_3D ( 'NONE', #819, #609, #688 ) ;
#504 = ORIENTED_EDGE ( 'NONE', *, *, #394, .T. ) ;
#505 = CLOSED_SHELL ( 'NONE', ( #99, #820, #753, #3, #566, #882, #673, #72, #535, #438, #222, #368, #725, #457, #48, #343, #900, #390, #261, #377, #169, #871, #728, #11, #172, #185, #686, #548, #282, #880, #421, #604 ) ) ;
#506 = VECTOR ( 'NONE', #406, 1000.000000000000000 ) ;
#507 = EDGE_CURVE ( 'NONE', #41, #544, #646, .T. ) ;
#508 = FACE_OUTER_BOUND ( 'NONE', #429, .T. ) ;
#509 = DIRECTION ( 'NONE',  ( 0.000000000000000000, 0.000000000000000000, 1.000000000000000000 ) ) ;
#510 = CARTESIAN_POINT ( 'NONE',  ( -2.499999999999999556, 13.99999999999999822, -16.00000000000000355 ) ) ;
#511 = CIRCLE ( 'NONE', #233, 1.999999999999998224 ) ;
#512 = ORIENTED_EDGE ( 'NONE', *, *, #476, .F. ) ;
#513 = PLANE ( 'NONE',  #203 ) ;
#514 = CARTESIAN_POINT ( 'NONE',  ( -2.499999999999999556, 13.99999999999999822, -16.00000000000000355 ) ) ;
#515 = ORIENTED_EDGE ( 'NONE', *, *, #614, .F. ) ;
#516 = CARTESIAN_POINT ( 'NONE',  ( -7.499999999999999112, 30.00000000000000000, 29.99999999999999289 ) ) ;
#517 = DIRECTION ( 'NONE',  ( -0.000000000000000000, 1.000000000000000000, -0.000000000000000000 ) ) ;
#518 = FACE_OUTER_BOUND ( 'NONE', #118, .T. ) ;
#519 = EDGE_CURVE ( 'NONE', #480, #814, #426, .T. ) ;
#520 = ORIENTED_EDGE ( 'NONE', *, *, #380, .T. ) ;
#521 = DIRECTION ( 'NONE',  ( 1.000000000000000000, 0.000000000000000000, -0.000000000000000000 ) ) ;
#522 = DIRECTION ( 'NONE',  ( 0.000000000000000000, 0.000000000000000000, 1.000000000000000000 ) ) ;
#523 = EDGE_LOOP ( 'NONE', ( #46, #242 ) ) ;
#524 = CIRCLE ( 'NONE', #131, 1.999999999999998224 ) ;
#525 = SURFACE_SIDE_STYLE ('',( #391 ) ) ;
#526 = CARTESIAN_POINT ( 'NONE',  ( -7.499999999999999112, 0.000000000000000000, -30.00000000000000711 ) ) ;
#527 = ORIENTED_EDGE ( 'NONE', *, *, #465, .T. ) ;
#528 = EDGE_CURVE ( 'NONE', #756, #208, #898, .T. ) ;
#529 = CARTESIAN_POINT ( 'NONE',  ( -4.000000000000000000, 30.00000000000000000, 22.00000000000000711 ) ) ;
#530 = LINE ( 'NONE', #148, #305 ) ;
#531 = EDGE_LOOP ( 'NONE', ( #349, #393, #61, #752 ) ) ;
#532 = ORIENTED_EDGE ( 'NONE', *, *, #35, .T. ) ;
#533 = CIRCLE ( 'NONE', #668, 2.000000000000000000 ) ;
#534 = CARTESIAN_POINT ( 'NONE',  ( -4.000000000000000000, 24.00000000000000000, 22.00000000000000711 ) ) ;
#535 = ADVANCED_FACE ( 'NONE', ( #695 ), #62, .F. ) ;
#536 = FACE_BOUND ( 'NONE', #474, .T. ) ;
#537 = CARTESIAN_POINT ( 'NONE',  ( -1.999999999999555911, 4.000000000039409365, 15.99999999999999289 ) ) ;
#538 = ORIENTED_EDGE ( 'NONE', *, *, #574, .F. ) ;
#539 = ORIENTED_EDGE ( 'NONE', *, *, #353, .F. ) ;
#540 = CIRCLE ( 'NONE', #659, 17.00000000000000000 ) ;
#541 = FACE_OUTER_BOUND ( 'NONE', #400, .T. ) ;
#542 = VECTOR ( 'NONE', #432, 1000.000000000000000 ) ;
#543 = PLANE ( 'NONE',  #344 ) ;
#544 = VERTEX_POINT ( 'NONE', #554 ) ;
#545 = ORIENTED_EDGE ( 'NONE', *, *, #380, .F. ) ;
#546 = CARTESIAN_POINT ( 'NONE',  ( 4.440892098500626162E-13, 4.000000000039409365, -16.00000000000000711 ) ) ;
#547 = VERTEX_POINT ( 'NONE', #837 ) ;
#548 = ADVANCED_FACE ( 'NONE', ( #764 ), #135, .T. ) ;
#549 = LINE ( 'NONE', #127, #129 ) ;
#550 = DIRECTION ( 'NONE',  ( 0.000000000000000000, 0.000000000000000000, 1.000000000000000000 ) ) ;
#551 = ORIENTED_EDGE ( 'NONE', *, *, #835, .F. ) ;
#552 = AXIS2_PLACEMENT_3D ( 'NONE', #679, #759, #693 ) ;
#553 = UNCERTAINTY_MEASURE_WITH_UNIT (LENGTH_MEASURE( 1.000000000000000082E-05 ), #488, 'distance_accuracy_value', 'NONE');
#554 = CARTESIAN_POINT ( 'NONE',  ( -4.000000000000000000, 24.00000000000000000, -22.00000000000001066 ) ) ;
#555 = VECTOR ( 'NONE', #734, 1000.000000000000000 ) ;
#556 = AXIS2_PLACEMENT_3D ( 'NONE', #621, #904, #271 ) ;
#557 = FACE_OUTER_BOUND ( 'NONE', #314, .T. ) ;
#558 = LINE ( 'NONE', #89, #308 ) ;
#559 = EDGE_CURVE ( 'NONE', #772, #560, #795, .T. ) ;
#560 = VERTEX_POINT ( 'NONE', #593 ) ;
#561 = EDGE_CURVE ( 'NONE', #480, #840, #247, .T. ) ;
#562 = DIRECTION ( 'NONE',  ( -1.000000000000000000, 0.000000000000000000, -0.000000000000000000 ) ) ;
#563 = FACE_BOUND ( 'NONE', #603, .T. ) ;
#564 = ORIENTED_EDGE ( 'NONE', *, *, #353, .T. ) ;
#565 = CARTESIAN_POINT ( 'NONE',  ( -1.999999999999555911, 4.000000000039409365, -30.00000000000000711 ) ) ;
#566 = ADVANCED_FACE ( 'NONE', ( #158 ), #866, .F. ) ;
#567 = DIRECTION ( 'NONE',  ( 0.000000000000000000, 1.000000000000000000, 0.000000000000000000 ) ) ;
#568 = DIRECTION ( 'NONE',  ( 0.000000000000000000, 0.000000000000000000, -1.000000000000000000 ) ) ;
#569 = ORIENTED_EDGE ( 'NONE', *, *, #611, .T. ) ;
#570 = DIRECTION ( 'NONE',  ( 0.000000000000000000, 1.000000000000000000, 0.000000000000000000 ) ) ;
#571 = SURFACE_STYLE_FILL_AREA ( #288 ) ;
#572 = LINE ( 'NONE', #224, #191 ) ;
#573 = EDGE_LOOP ( 'NONE', ( #782, #108, #492, #743 ) ) ;
#574 = EDGE_CURVE ( 'NONE', #249, #387, #440, .T. ) ;
#575 = DIRECTION ( 'NONE',  ( 1.000000000000000000, 0.000000000000000000, 0.000000000000000000 ) ) ;
#576 = CYLINDRICAL_SURFACE ( 'NONE', #461, 1.999999999999998224 ) ;
#577 = EDGE_LOOP ( 'NONE', ( #378, #125, #664, #551 ) ) ;
#578 = VERTEX_POINT ( 'NONE', #798 ) ;
#579 = EDGE_CURVE ( 'NONE', #332, #268, #239, .T. ) ;
#580 = CARTESIAN_POINT ( 'NONE',  ( -2.499999999999999556, 13.99999999999999467, 13.99999999999999645 ) ) ;
#581 = DIRECTION ( 'NONE',  ( -0.000000000000000000, -1.000000000000000000, -0.000000000000000000 ) ) ;
#582 = ORIENTED_EDGE ( 'NONE', *, *, #65, .F. ) ;
#583 = CIRCLE ( 'NONE', #430, 1.999999999999998224 ) ;
#584 = CARTESIAN_POINT ( 'NONE',  ( -4.000000000000000000, 30.00000000000000000, 24.00000000000000711 ) ) ;
#585 = PLANE ( 'NONE',  #25 ) ;
#586 = VECTOR ( 'NONE', #830, 1000.000000000000000 ) ;
#587 = ORIENTED_EDGE ( 'NONE', *, *, #204, .F. ) ;
#588 = VECTOR ( 'NONE', #568, 1000.000000000000000 ) ;
#589 = CARTESIAN_POINT ( 'NONE',  ( 7.500000000000000888, 13.99999999999999822, -16.00000000000000355 ) ) ;
#590 = EDGE_CURVE ( 'NONE', #626, #201, #276, .T. ) ;
#591 = CARTESIAN_POINT ( 'NONE',  ( 4.000000000000007105, 24.00000000000000000, 22.00000000000000711 ) ) ;
#592 = ORIENTED_EDGE ( 'NONE', *, *, #444, .F. ) ;
#593 = CARTESIAN_POINT ( 'NONE',  ( 7.500000000000000888, 13.99999999999999467, 13.99999999999999645 ) ) ;
#594 = CARTESIAN_POINT ( 'NONE',  ( 7.500000000000000888, 13.99999999999999467, 17.99999999999999645 ) ) ;
#595 = ORIENTED_EDGE ( 'NONE', *, *, #157, .F. ) ;
#596 = DIRECTION ( 'NONE',  ( 0.000000000000000000, 1.000000000000000000, 0.000000000000000000 ) ) ;
#597 = CARTESIAN_POINT ( 'NONE',  ( -7.499999999999999112, 0.000000000000000000, 29.99999999999999289 ) ) ;
#598 = ORIENTED_EDGE ( 'NONE', *, *, #365, .T. ) ;
#599 = CIRCLE ( 'NONE', #834, 17.00000000000000000 ) ;
#600 = VECTOR ( 'NONE', #501, 1000.000000000000000 ) ;
#601 = CYLINDRICAL_SURFACE ( 'NONE', #748, 2.000000000000001776 ) ;
#602 = PLANE ( 'NONE',  #701 ) ;
#603 = EDGE_LOOP ( 'NONE', ( #909, #797 ) ) ;
#604 = ADVANCED_FACE ( 'NONE', ( #508 ), #513, .T. ) ;
#605 = CARTESIAN_POINT ( 'NONE',  ( 4.000000000000007105, 24.00000000000000000, -26.00000000000000711 ) ) ;
#606 = FACE_OUTER_BOUND ( 'NONE', #151, .T. ) ;
#607 = ORIENTED_EDGE ( 'NONE', *, *, #5, .T. ) ;
#608 = CARTESIAN_POINT ( 'NONE',  ( 7.500000000000000888, 30.00000000000000000, 0.000000000000000000 ) ) ;
#609 = DIRECTION ( 'NONE',  ( -0.000000000000000000, 1.000000000000000000, -0.000000000000000000 ) ) ;
#610 = ORIENTED_EDGE ( 'NONE', *, *, #802, .T. ) ;
#611 = EDGE_CURVE ( 'NONE', #840, #480, #877, .T. ) ;
#612 = DIRECTION ( 'NONE',  ( 0.000000000000000000, 1.000000000000000000, 0.000000000000000000 ) ) ;
#613 = CARTESIAN_POINT ( 'NONE',  ( -2.499999999999999556, 13.99999999999999822, -18.00000000000000355 ) ) ;
#614 = EDGE_CURVE ( 'NONE', #713, #216, #404, .T. ) ;
#615 = ORIENTED_EDGE ( 'NONE', *, *, #217, .T. ) ;
#616 = VERTEX_POINT ( 'NONE', #789 ) ;
#617 = CARTESIAN_POINT ( 'NONE',  ( 7.500000000000000888, 30.00000000000000000, 30.00000000000000711 ) ) ;
#618 = DIRECTION ( 'NONE',  ( 1.000000000000000000, 0.000000000000000000, 0.000000000000000000 ) ) ;
#619 = ORIENTED_EDGE ( 'NONE', *, *, #794, .F. ) ;
#620 = VECTOR ( 'NONE', #791, 1000.000000000000000 ) ;
#621 = CARTESIAN_POINT ( 'NONE',  ( -7.499999999999999112, 70.00000000000000000, 29.99999999999999289 ) ) ;
#622 = AXIS2_PLACEMENT_3D ( 'NONE', #839, #347, #2 ) ;
#623 = DIRECTION ( 'NONE',  ( 0.000000000000000000, 0.000000000000000000, -1.000000000000000000 ) ) ;
#624 = AXIS2_PLACEMENT_3D ( 'NONE', #637, #570, #550 ) ;
#625 = PRODUCT_DEFINITION_CONTEXT ( 'detailed design', #389, 'design' ) ;
#626 = VERTEX_POINT ( 'NONE', #431 ) ;
#627 = EDGE_CURVE ( 'NONE', #208, #709, #15, .T. ) ;
#628 = VECTOR ( 'NONE', #256, 1000.000000000000000 ) ;
#629 = DIRECTION ( 'NONE',  ( 0.000000000000000000, 0.000000000000000000, -1.000000000000000000 ) ) ;
#630 = AXIS2_PLACEMENT_3D ( 'NONE', #18, #845, #623 ) ;
#631 = DIRECTION ( 'NONE',  ( 1.000000000000000000, -0.000000000000000000, -0.000000000000000000 ) ) ;
#632 = VERTEX_POINT ( 'NONE', #34 ) ;
#633 = DIRECTION ( 'NONE',  ( 0.000000000000000000, 0.000000000000000000, -1.000000000000000000 ) ) ;
#634 = CARTESIAN_POINT ( 'NONE',  ( 4.440892098500626162E-13, 4.000000000039409365, -16.00000000000000711 ) ) ;
#635 = DIRECTION ( 'NONE',  ( 0.000000000000000000, 1.000000000000000000, 0.000000000000000000 ) ) ;
#636 = ORIENTED_EDGE ( 'NONE', *, *, #77, .T. ) ;
#637 = CARTESIAN_POINT ( 'NONE',  ( 4.000000000000007105, 30.00000000000000000, -24.00000000000000711 ) ) ;
#638 = PLANE ( 'NONE',  #803 ) ;
#639 = DIRECTION ( 'NONE',  ( 0.000000000000000000, 0.000000000000000000, -1.000000000000000000 ) ) ;
#640 = ORIENTED_EDGE ( 'NONE', *, *, #204, .T. ) ;
#641 = AXIS2_PLACEMENT_3D ( 'NONE', #862, #304, #737 ) ;
#642 = FACE_OUTER_BOUND ( 'NONE', #356, .T. ) ;
#643 = DIRECTION ( 'NONE',  ( 1.000000000000000000, -0.000000000000000000, 0.000000000000000000 ) ) ;
#644 = DIRECTION ( 'NONE',  ( -0.000000000000000000, 1.000000000000000000, -0.000000000000000000 ) ) ;
#645 = EDGE_CURVE ( 'NONE', #544, #41, #524, .T. ) ;
#646 = CIRCLE ( 'NONE', #321, 1.999999999999998224 ) ;
#647 = ORIENTED_EDGE ( 'NONE', *, *, #90, .F. ) ;
#648 = DIRECTION ( 'NONE',  ( 0.000000000000000000, 0.000000000000000000, -1.000000000000000000 ) ) ;
#649 = LINE ( 'NONE', #93, #107 ) ;
#650 = ORIENTED_EDGE ( 'NONE', *, *, #779, .F. ) ;
#651 = DIRECTION ( 'NONE',  ( 0.000000000000000000, 0.000000000000000000, 1.000000000000000000 ) ) ;
#652 = FACE_BOUND ( 'NONE', #292, .T. ) ;
#653 = AXIS2_PLACEMENT_3D ( 'NONE', #50, #197, #399 ) ;
#654 = ORIENTED_EDGE ( 'NONE', *, *, #860, .F. ) ;
#655 = LINE ( 'NONE', #516, #628 ) ;
#656 = EDGE_CURVE ( 'NONE', #382, #781, #14, .T. ) ;
#657 = CYLINDRICAL_SURFACE ( 'NONE', #675, 2.000000000000000000 ) ;
#658 = DIRECTION ( 'NONE',  ( -0.000000000000000000, 1.000000000000000000, -0.000000000000000000 ) ) ;
#659 = AXIS2_PLACEMENT_3D ( 'NONE', #273, #643, #280 ) ;
#660 = EDGE_LOOP ( 'NONE', ( #198, #188 ) ) ;
#661 = EDGE_CURVE ( 'NONE', #680, #732, #44, .T. ) ;
#662 = CARTESIAN_POINT ( 'NONE',  ( -62.50000000000000000, 30.00000000000000000, -17.00000000000000000 ) ) ;
#663 = CARTESIAN_POINT ( 'NONE',  ( 7.500000000000000888, 13.99999999999999467, 15.99999999999999645 ) ) ;
#664 = ORIENTED_EDGE ( 'NONE', *, *, #213, .F. ) ;
#665 = DIRECTION ( 'NONE',  ( 1.000000000000000000, 0.000000000000000000, 0.000000000000000000 ) ) ;
#666 = LINE ( 'NONE', #175, #348 ) ;
#667 = EDGE_LOOP ( 'NONE', ( #71, #336 ) ) ;
#668 = AXIS2_PLACEMENT_3D ( 'NONE', #663, #36, #313 ) ;
#669 = CARTESIAN_POINT ( 'NONE',  ( 4.440892098500626162E-13, 4.000000000039409365, -16.00000000000000711 ) ) ;
#670 = AXIS2_PLACEMENT_3D ( 'NONE', #415, #6, #284 ) ;
#671 = DIRECTION ( 'NONE',  ( 0.000000000000000000, 0.000000000000000000, -1.000000000000000000 ) ) ;
#672 = MECHANICAL_DESIGN_GEOMETRIC_PRESENTATION_REPRESENTATION (  '', ( #704 ), #888 ) ;
#673 = ADVANCED_FACE ( 'NONE', ( #642 ), #294, .F. ) ;
#674 = ORIENTED_EDGE ( 'NONE', *, *, #35, .F. ) ;
#675 = AXIS2_PLACEMENT_3D ( 'NONE', #726, #30, #648 ) ;
#676 = AXIS2_PLACEMENT_3D ( 'NONE', #424, #154, #639 ) ;
#677 = AXIS2_PLACEMENT_3D ( 'NONE', #443, #309, #575 ) ;
#678 = DIRECTION ( 'NONE',  ( 0.000000000000000000, 0.000000000000000000, -1.000000000000000000 ) ) ;
#679 = CARTESIAN_POINT ( 'NONE',  ( 7.500000000000000888, 70.00000000000000000, -30.00000000000000711 ) ) ;
#680 = VERTEX_POINT ( 'NONE', #436 ) ;
#681 = EDGE_LOOP ( 'NONE', ( #231, #806, #181, #500 ) ) ;
#682 = DIRECTION ( 'NONE',  ( 0.000000000000000000, -0.000000000000000000, 1.000000000000000000 ) ) ;
#683 = DIRECTION ( 'NONE',  ( -1.000000000000000000, 0.000000000000000000, 0.000000000000000000 ) ) ;
#684 = VERTEX_POINT ( 'NONE', #363 ) ;
#685 = ORIENTED_EDGE ( 'NONE', *, *, #702, .F. ) ;
#686 = ADVANCED_FACE ( 'NONE', ( #95 ), #657, .F. ) ;
#687 = CARTESIAN_POINT ( 'NONE',  ( -2.499999999999999556, 13.99999999999999822, -18.00000000000000355 ) ) ;
#688 = DIRECTION ( 'NONE',  ( 0.000000000000000000, 0.000000000000000000, 1.000000000000000000 ) ) ;
#689 = VERTEX_POINT ( 'NONE', #20 ) ;
#690 = ORIENTED_EDGE ( 'NONE', *, *, #661, .T. ) ;
#691 = CARTESIAN_POINT ( 'NONE',  ( 4.440892098500626162E-13, 4.000000000039409365, -16.00000000000000711 ) ) ;
#692 = VECTOR ( 'NONE', #783, 1000.000000000000000 ) ;
#693 = DIRECTION ( 'NONE',  ( 1.000000000000000000, 0.000000000000000000, -0.000000000000000000 ) ) ;
#694 = ORIENTED_EDGE ( 'NONE', *, *, #414, .T. ) ;
#695 = FACE_OUTER_BOUND ( 'NONE', #768, .T. ) ;
#696 = LINE ( 'NONE', #296, #910 ) ;
#697 = EDGE_CURVE ( 'NONE', #121, #94, #788, .T. ) ;
#698 = CIRCLE ( 'NONE', #902, 2.000000000000000000 ) ;
#699 = DIRECTION ( 'NONE',  ( 1.000000000000000000, -0.000000000000000000, -0.000000000000000000 ) ) ;
#700 = EDGE_LOOP ( 'NONE', ( #323, #9, #747, #485 ) ) ;
#701 = AXIS2_PLACEMENT_3D ( 'NONE', #892, #452, #338 ) ;
#702 = EDGE_CURVE ( 'NONE', #868, #332, #599, .T. ) ;
#703 = ORIENTED_EDGE ( 'NONE', *, *, #714, .F. ) ;
#704 = STYLED_ITEM ( 'NONE', ( #7 ), #124 ) ;
#705 = CYLINDRICAL_SURFACE ( 'NONE', #413, 2.000000000000000000 ) ;
#706 = AXIS2_PLACEMENT_3D ( 'NONE', #771, #635, #355 ) ;
#707 = CARTESIAN_POINT ( 'NONE',  ( 4.000000000000007105, 24.00000000000000000, 24.00000000000000711 ) ) ;
#708 = CARTESIAN_POINT ( 'NONE',  ( -2.499999999999999556, 13.99999999999999822, -16.00000000000000355 ) ) ;
#709 = VERTEX_POINT ( 'NONE', #112 ) ;
#710 = CARTESIAN_POINT ( 'NONE',  ( 7.500000000000000888, 13.99999999999999467, 15.99999999999999645 ) ) ;
#711 =( LENGTH_UNIT ( ) NAMED_UNIT ( * ) SI_UNIT ( .MILLI., .METRE. ) );
#712 = CARTESIAN_POINT ( 'NONE',  ( -7.499999999999999112, 30.00000000000000000, 29.99999999999999289 ) ) ;
#713 = VERTEX_POINT ( 'NONE', #398 ) ;
#714 = EDGE_CURVE ( 'NONE', #578, #450, #416, .T. ) ;
#715 = CARTESIAN_POINT ( 'NONE',  ( 7.500000000000000888, 70.00000000000000000, 29.99999999999999289 ) ) ;
#716 = DIRECTION ( 'NONE',  ( 0.000000000000000000, 0.000000000000000000, -1.000000000000000000 ) ) ;
#717 = DIRECTION ( 'NONE',  ( 1.000000000000000000, -0.000000000000000000, -0.000000000000000000 ) ) ;
#718 = DIRECTION ( 'NONE',  ( -0.000000000000000000, 1.000000000000000000, -0.000000000000000000 ) ) ;
#719 = ORIENTED_EDGE ( 'NONE', *, *, #77, .F. ) ;
#720 = PRODUCT_DEFINITION_FORMATION_WITH_SPECIFIED_SOURCE ( 'Symmetric', '', #491, .NOT_KNOWN. ) ;
#721 = DIRECTION ( 'NONE',  ( -0.000000000000000000, 1.000000000000000000, -0.000000000000000000 ) ) ;
#722 = CYLINDRICAL_SURFACE ( 'NONE', #792, 2.000000000000001776 ) ;
#723 = VECTOR ( 'NONE', #357, 1000.000000000000000 ) ;
#724 = ORIENTED_EDGE ( 'NONE', *, *, #195, .T. ) ;
#725 = ADVANCED_FACE ( 'NONE', ( #883 ), #891, .F. ) ;
#726 = CARTESIAN_POINT ( 'NONE',  ( -2.499999999999999556, 13.99999999999999467, 15.99999999999999645 ) ) ;
#727 = DIRECTION ( 'NONE',  ( -0.000000000000000000, 1.000000000000000000, -0.000000000000000000 ) ) ;
#728 = ADVANCED_FACE ( 'NONE', ( #541 ), #601, .F. ) ;
#729 = ORIENTED_EDGE ( 'NONE', *, *, #490, .T. ) ;
#730 = CARTESIAN_POINT ( 'NONE',  ( 4.000000000000007105, 24.00000000000000000, -24.00000000000000711 ) ) ;
#731 = PLANE ( 'NONE',  #749 ) ;
#732 = VERTEX_POINT ( 'NONE', #529 ) ;
#733 = DIRECTION ( 'NONE',  ( 0.000000000000000000, 1.000000000000000000, 0.000000000000000000 ) ) ;
#734 = DIRECTION ( 'NONE',  ( -0.000000000000000000, -0.000000000000000000, 1.000000000000000000 ) ) ;
#735 = VERTEX_POINT ( 'NONE', #687 ) ;
#736 = MANIFOLD_SOLID_BREP ( 'Cut-Extrude6', #505 ) ;
#737 = DIRECTION ( 'NONE',  ( 0.000000000000000000, 0.000000000000000000, 1.000000000000000000 ) ) ;
#738 = APPLICATION_PROTOCOL_DEFINITION ( 'draft international standard', 'automotive_design', 1998, #895 ) ;
#739 = CARTESIAN_POINT ( 'NONE',  ( 4.000000000000007105, 24.00000000000000000, 22.00000000000000711 ) ) ;
#740 = EDGE_LOOP ( 'NONE', ( #674, #225, #858, #446 ) ) ;
#741 = EDGE_CURVE ( 'NONE', #632, #760, #388, .T. ) ;
#742 = PLANE ( 'NONE',  #552 ) ;
#743 = ORIENTED_EDGE ( 'NONE', *, *, #627, .T. ) ;
#744 = AXIS2_PLACEMENT_3D ( 'NONE', #244, #863, #104 ) ;
#745 = VECTOR ( 'NONE', #671, 1000.000000000000000 ) ;
#746 = FACE_OUTER_BOUND ( 'NONE', #800, .T. ) ;
#747 = ORIENTED_EDGE ( 'NONE', *, *, #519, .T. ) ;
#748 = AXIS2_PLACEMENT_3D ( 'NONE', #324, #451, #878 ) ;
#749 = AXIS2_PLACEMENT_3D ( 'NONE', #510, #364, #101 ) ;
#750 = SURFACE_STYLE_USAGE ( .BOTH. , #525 ) ;
#751 = FACE_OUTER_BOUND ( 'NONE', #660, .T. ) ;
#752 = ORIENTED_EDGE ( 'NONE', *, *, #519, .F. ) ;
#753 = ADVANCED_FACE ( 'NONE', ( #472 ), #758, .F. ) ;
#754 = LINE ( 'NONE', #337, #346 ) ;
#755 = DIRECTION ( 'NONE',  ( 0.000000000000000000, 0.000000000000000000, 1.000000000000000000 ) ) ;
#756 = VERTEX_POINT ( 'NONE', #379 ) ;
#757 = ORIENTED_EDGE ( 'NONE', *, *, #590, .T. ) ;
#758 = CYLINDRICAL_SURFACE ( 'NONE', #113, 2.000000000000000000 ) ;
#759 = DIRECTION ( 'NONE',  ( 0.000000000000000000, -0.000000000000000000, 1.000000000000000000 ) ) ;
#760 = VERTEX_POINT ( 'NONE', #534 ) ;
#761 = VECTOR ( 'NONE', #92, 1000.000000000000000 ) ;
#762 = DIRECTION ( 'NONE',  ( -0.000000000000000000, -1.000000000000000000, -0.000000000000000000 ) ) ;
#763 = FACE_OUTER_BOUND ( 'NONE', #531, .T. ) ;
#764 = FACE_OUTER_BOUND ( 'NONE', #471, .T. ) ;
#765 = EDGE_CURVE ( 'NONE', #756, #311, #873, .T. ) ;
#766 = DIRECTION ( 'NONE',  ( 0.000000000000000000, 0.000000000000000000, -1.000000000000000000 ) ) ;
#767 = LINE ( 'NONE', #712, #588 ) ;
#768 = EDGE_LOOP ( 'NONE', ( #816, #245, #370, #636, #899, #146 ) ) ;
#769 = CARTESIAN_POINT ( 'NONE',  ( -2.499999999999999556, 13.99999999999999467, 15.99999999999999645 ) ) ;
#770 = FILL_AREA_STYLE_COLOUR ( '', #475 ) ;
#771 = CARTESIAN_POINT ( 'NONE',  ( 4.000000000000007105, 24.00000000000000000, -24.00000000000000711 ) ) ;
#772 = VERTEX_POINT ( 'NONE', #463 ) ;
#773 =( GEOMETRIC_REPRESENTATION_CONTEXT ( 3 ) GLOBAL_UNCERTAINTY_ASSIGNED_CONTEXT ( ( #202 ) ) GLOBAL_UNIT_ASSIGNED_CONTEXT ( ( #711, #852, #79 ) ) REPRESENTATION_CONTEXT ( 'NONE', 'WORKASPACE' ) );
#774 = AXIS2_PLACEMENT_3D ( 'NONE', #707, #567, #423 ) ;
#775 = CARTESIAN_POINT ( 'NONE',  ( -62.50000000000000000, 30.00000000000000000, 0.000000000000000000 ) ) ;
#776 = CARTESIAN_POINT ( 'NONE',  ( -4.000000000000000000, 24.00000000000000000, -24.00000000000000711 ) ) ;
#777 = FACE_OUTER_BOUND ( 'NONE', #885, .T. ) ;
#778 = ORIENTED_EDGE ( 'NONE', *, *, #115, .T. ) ;
#779 = EDGE_CURVE ( 'NONE', #772, #793, #145, .T. ) ;
#780 = DIRECTION ( 'NONE',  ( 0.000000000000000000, 0.000000000000000000, -1.000000000000000000 ) ) ;
#781 = VERTEX_POINT ( 'NONE', #49 ) ;
#782 = ORIENTED_EDGE ( 'NONE', *, *, #235, .F. ) ;
#783 = DIRECTION ( 'NONE',  ( -1.000000000000000000, 0.000000000000000000, 0.000000000000000000 ) ) ;
#784 = VECTOR ( 'NONE', #884, 1000.000000000000000 ) ;
#785 = CARTESIAN_POINT ( 'NONE',  ( -4.000000000000000000, 30.00000000000000000, -22.00000000000001066 ) ) ;
#786 = VERTEX_POINT ( 'NONE', #605 ) ;
#787 = CIRCLE ( 'NONE', #110, 2.000000000000000000 ) ;
#788 = CIRCLE ( 'NONE', #433, 1.999999999999998224 ) ;
#789 = CARTESIAN_POINT ( 'NONE',  ( 4.000000000000007105, 30.00000000000000000, -26.00000000000000711 ) ) ;
#790 = EDGE_CURVE ( 'NONE', #689, #387, #254, .T. ) ;
#791 = DIRECTION ( 'NONE',  ( 1.000000000000000000, -0.000000000000000000, -0.000000000000000000 ) ) ;
#792 = AXIS2_PLACEMENT_3D ( 'NONE', #437, #449, #522 ) ;
#793 = VERTEX_POINT ( 'NONE', #468 ) ;
#794 = EDGE_CURVE ( 'NONE', #544, #121, #754, .T. ) ;
#795 = LINE ( 'NONE', #580, #600 ) ;
#796 = CARTESIAN_POINT ( 'NONE',  ( 7.500000000000000888, 70.00000000000000000, 29.99999999999999289 ) ) ;
#797 = ORIENTED_EDGE ( 'NONE', *, *, #656, .F. ) ;
#798 = CARTESIAN_POINT ( 'NONE',  ( 2.000000000000444089, 4.000000000039409365, -16.00000000000000711 ) ) ;
#799 = DIRECTION ( 'NONE',  ( -0.000000000000000000, 1.000000000000000000, -0.000000000000000000 ) ) ;
#800 = EDGE_LOOP ( 'NONE', ( #872, #598, #130, #719 ) ) ;
#801 = DIRECTION ( 'NONE',  ( 0.000000000000000000, 0.000000000000000000, 1.000000000000000000 ) ) ;
#802 = EDGE_CURVE ( 'NONE', #689, #854, #549, .T. ) ;
#803 = AXIS2_PLACEMENT_3D ( 'NONE', #634, #716, #427 ) ;
#804 = APPLICATION_PROTOCOL_DEFINITION ( 'draft international standard', 'automotive_design', 1998, #389 ) ;
#805 = CARTESIAN_POINT ( 'NONE',  ( 7.500000000000000888, 13.99999999999999822, -18.00000000000000355 ) ) ;
#806 = ORIENTED_EDGE ( 'NONE', *, *, #65, .T. ) ;
#807 = AXIS2_PLACEMENT_3D ( 'NONE', #312, #869, #227 ) ;
#808 = EDGE_CURVE ( 'NONE', #311, #868, #266, .T. ) ;
#809 =( NAMED_UNIT ( * ) PLANE_ANGLE_UNIT ( ) SI_UNIT ( $, .RADIAN. ) );
#810 = DIRECTION ( 'NONE',  ( 0.000000000000000000, 1.000000000000000000, 0.000000000000000000 ) ) ;
#811 = ORIENTED_EDGE ( 'NONE', *, *, #27, .F. ) ;
#812 = DIRECTION ( 'NONE',  ( 0.000000000000000000, 0.000000000000000000, -1.000000000000000000 ) ) ;
#813 = CARTESIAN_POINT ( 'NONE',  ( 7.500000000000007105, 30.00000000000000000, -17.00000000000000000 ) ) ;
#814 = VERTEX_POINT ( 'NONE', #897 ) ;
#815 = AXIS2_PLACEMENT_3D ( 'NONE', #456, #189, #887 ) ;
#816 = ORIENTED_EDGE ( 'NONE', *, *, #528, .F. ) ;
#817 = DIRECTION ( 'NONE',  ( 1.000000000000000000, 0.000000000000000000, 0.000000000000000000 ) ) ;
#818 = AXIS2_PLACEMENT_3D ( 'NONE', #267, #133, #629 ) ;
#819 = CARTESIAN_POINT ( 'NONE',  ( 4.000000000000007105, 24.00000000000000000, -24.00000000000000711 ) ) ;
#820 = ADVANCED_FACE ( 'NONE', ( #199 ), #401, .F. ) ;
#821 = LINE ( 'NONE', #458, #908 ) ;
#822 = ORIENTED_EDGE ( 'NONE', *, *, #250, .T. ) ;
#823 = AXIS2_PLACEMENT_3D ( 'NONE', #730, #721, #87 ) ;
#824 = CIRCLE ( 'NONE', #744, 2.000000000000001776 ) ;
#825 =( NAMED_UNIT ( * ) SI_UNIT ( $, .STERADIAN. ) SOLID_ANGLE_UNIT ( ) );
#826 = FACE_OUTER_BOUND ( 'NONE', #740, .T. ) ;
#827 = EDGE_LOOP ( 'NONE', ( #757, #373 ) ) ;
#828 = CARTESIAN_POINT ( 'NONE',  ( 2.000000000000444089, 4.000000000039409365, -30.00000000000000711 ) ) ;
#829 = ORIENTED_EDGE ( 'NONE', *, *, #290, .F. ) ;
#830 = DIRECTION ( 'NONE',  ( 0.000000000000000000, 0.000000000000000000, -1.000000000000000000 ) ) ;
#831 = CARTESIAN_POINT ( 'NONE',  ( -1.999999999999555911, 4.000000000039409365, -16.00000000000000711 ) ) ;
#832 = CIRCLE ( 'NONE', #228, 2.000000000000000000 ) ;
#833 = VERTEX_POINT ( 'NONE', #168 ) ;
#834 = AXIS2_PLACEMENT_3D ( 'NONE', #608, #665, #246 ) ;
#835 = EDGE_CURVE ( 'NONE', #756, #212, #655, .T. ) ;
#836 = AXIS2_PLACEMENT_3D ( 'NONE', #170, #517, #855 ) ;
#837 = CARTESIAN_POINT ( 'NONE',  ( -1.999999999999555911, 4.000000000039409365, 29.99999999999999289 ) ) ;
#838 = FACE_OUTER_BOUND ( 'NONE', #827, .T. ) ;
#839 = CARTESIAN_POINT ( 'NONE',  ( -4.000000000000000000, 24.00000000000000000, 24.00000000000000711 ) ) ;
#840 = VERTEX_POINT ( 'NONE', #537 ) ;
#841 = FACE_OUTER_BOUND ( 'NONE', #307, .T. ) ;
#842 = DIRECTION ( 'NONE',  ( 1.000000000000000000, -0.000000000000000000, -0.000000000000000000 ) ) ;
#843 = ORIENTED_EDGE ( 'NONE', *, *, #138, .F. ) ;
#844 = LINE ( 'NONE', #409, #506 ) ;
#845 = DIRECTION ( 'NONE',  ( 1.000000000000000000, 0.000000000000000000, 0.000000000000000000 ) ) ;
#846 = EDGE_CURVE ( 'NONE', #91, #713, #821, .T. ) ;
#847 = EDGE_LOOP ( 'NONE', ( #647, #894, #327, #539 ) ) ;
#848 = CARTESIAN_POINT ( 'NONE',  ( 4.000000000000007105, 30.00000000000000000, -24.00000000000000711 ) ) ;
#849 = CARTESIAN_POINT ( 'NONE',  ( 4.440892098500626162E-13, 4.000000000039409365, 15.99999999999999289 ) ) ;
#850 = ORIENTED_EDGE ( 'NONE', *, *, #23, .T. ) ;
#851 = CARTESIAN_POINT ( 'NONE',  ( 7.500000000000000888, 0.000000000000000000, -30.00000000000000711 ) ) ;
#852 =( NAMED_UNIT ( * ) PLANE_ANGLE_UNIT ( ) SI_UNIT ( $, .RADIAN. ) );
#853 = CARTESIAN_POINT ( 'NONE',  ( -4.000000000000000000, 30.00000000000000000, -26.00000000000000711 ) ) ;
#854 = VERTEX_POINT ( 'NONE', #219 ) ;
#855 = DIRECTION ( 'NONE',  ( 0.000000000000000000, 0.000000000000000000, 1.000000000000000000 ) ) ;
#856 = CIRCLE ( 'NONE', #454, 1.999999999999998224 ) ;
#857 = FACE_OUTER_BOUND ( 'NONE', #262, .T. ) ;
#858 = ORIENTED_EDGE ( 'NONE', *, *, #96, .T. ) ;
#859 = CIRCLE ( 'NONE', #159, 1.999999999999998224 ) ;
#860 = EDGE_CURVE ( 'NONE', #212, #268, #540, .T. ) ;
#861 = AXIS2_PLACEMENT_3D ( 'NONE', #258, #184, #682 ) ;
#862 = CARTESIAN_POINT ( 'NONE',  ( 4.000000000000007105, 30.00000000000000000, 24.00000000000000711 ) ) ;
#863 = DIRECTION ( 'NONE',  ( 0.000000000000000000, 1.000000000000000000, 0.000000000000000000 ) ) ;
#864 = AXIS2_PLACEMENT_3D ( 'NONE', #289, #644, #8 ) ;
#865 = EDGE_LOOP ( 'NONE', ( #33, #51, #724, #811 ) ) ;
#866 = CYLINDRICAL_SURFACE ( 'NONE', #836, 2.000000000000001776 ) ;
#867 = CARTESIAN_POINT ( 'NONE',  ( 7.500000000000000888, 0.000000000000000000, -30.00000000000000711 ) ) ;
#868 = VERTEX_POINT ( 'NONE', #136 ) ;
#869 = DIRECTION ( 'NONE',  ( 0.000000000000000000, 1.000000000000000000, 0.000000000000000000 ) ) ;
#870 = CARTESIAN_POINT ( 'NONE',  ( -7.499999999999999112, 0.000000000000000000, 29.99999999999999289 ) ) ;
#871 = ADVANCED_FACE ( 'NONE', ( #838 ), #17, .T. ) ;
#872 = ORIENTED_EDGE ( 'NONE', *, *, #579, .F. ) ;
#873 = LINE ( 'NONE', #320, #29 ) ;
#874 = PRESENTATION_LAYER_ASSIGNMENT (  '', '', ( #86 ) ) ;
#875 = LINE ( 'NONE', #160, #342 ) ;
#876 = ORIENTED_EDGE ( 'NONE', *, *, #896, .T. ) ;
#877 = CIRCLE ( 'NONE', #435, 2.000000000000000000 ) ;
#878 = DIRECTION ( 'NONE',  ( 0.000000000000000000, 0.000000000000000000, 1.000000000000000000 ) ) ;
#879 = DIRECTION ( 'NONE',  ( 0.000000000000000000, 0.000000000000000000, 1.000000000000000000 ) ) ;
#880 = ADVANCED_FACE ( 'NONE', ( #557 ), #638, .T. ) ;
#881 = ORIENTED_EDGE ( 'NONE', *, *, #808, .F. ) ;
#882 = ADVANCED_FACE ( 'NONE', ( #295 ), #417, .F. ) ;
#883 = FACE_OUTER_BOUND ( 'NONE', #22, .T. ) ;
#884 = DIRECTION ( 'NONE',  ( 1.000000000000000000, -0.000000000000000000, -0.000000000000000000 ) ) ;
#885 = EDGE_LOOP ( 'NONE', ( #397, #615, #520, #619 ) ) ;
#886 = DIRECTION ( 'NONE',  ( -1.000000000000000000, 0.000000000000000000, 0.000000000000000000 ) ) ;
#887 = DIRECTION ( 'NONE',  ( 1.000000000000000000, 0.000000000000000000, 0.000000000000000000 ) ) ;
#888 =( GEOMETRIC_REPRESENTATION_CONTEXT ( 3 ) GLOBAL_UNCERTAINTY_ASSIGNED_CONTEXT ( ( #553 ) ) GLOBAL_UNIT_ASSIGNED_CONTEXT ( ( #488, #142, #153 ) ) REPRESENTATION_CONTEXT ( 'NONE', 'WORKASPACE' ) );
#889 = ORIENTED_EDGE ( 'NONE', *, *, #579, .T. ) ;
#890 = ORIENTED_EDGE ( 'NONE', *, *, #714, .T. ) ;
#891 = PLANE ( 'NONE',  #861 ) ;
#892 = CARTESIAN_POINT ( 'NONE',  ( 4.000000000000007105, 24.00000000000000000, -24.00000000000000711 ) ) ;
#893 = ORIENTED_EDGE ( 'NONE', *, *, #697, .F. ) ;
#894 = ORIENTED_EDGE ( 'NONE', *, *, #846, .T. ) ;
#895 = APPLICATION_CONTEXT ( 'automotive_design' ) ;
#896 = EDGE_CURVE ( 'NONE', #735, #91, #511, .T. ) ;
#897 = CARTESIAN_POINT ( 'NONE',  ( 2.000000000000444089, 4.000000000039409365, 29.99999999999999289 ) ) ;
#898 = LINE ( 'NONE', #479, #47 ) ;
#899 = ORIENTED_EDGE ( 'NONE', *, *, #790, .T. ) ;
#900 = ADVANCED_FACE ( 'NONE', ( #410 ), #576, .F. ) ;
#901 = UNCERTAINTY_MEASURE_WITH_UNIT (LENGTH_MEASURE( 1.000000000000000082E-05 ), #38, 'distance_accuracy_value', 'NONE');
#902 = AXIS2_PLACEMENT_3D ( 'NONE', #469, #755, #618 ) ;
#903 = AXIS2_PLACEMENT_3D ( 'NONE', #708, #631, #484 ) ;
#904 = DIRECTION ( 'NONE',  ( 1.000000000000000000, -0.000000000000000000, 0.000000000000000000 ) ) ;
#905 = AXIS2_PLACEMENT_3D ( 'NONE', #715, #633, #562 ) ;
#906 = DIRECTION ( 'NONE',  ( -0.000000000000000000, 1.000000000000000000, -0.000000000000000000 ) ) ;
#907 = DIRECTION ( 'NONE',  ( -0.000000000000000000, -0.000000000000000000, 1.000000000000000000 ) ) ;
#908 = VECTOR ( 'NONE', #717, 1000.000000000000000 ) ;
#909 = ORIENTED_EDGE ( 'NONE', *, *, #5, .F. ) ;
#910 = VECTOR ( 'NONE', #718, 1000.000000000000000 ) ;
ENDSEC;
END-ISO-10303-21;
