ISO-10303-21;
HEADER;
FILE_DESCRIPTION (( 'STEP AP214' ),
    '1' );
FILE_NAME ('LIR-DA237T.STEP',
    '2026-01-08T13:34:32',
    ( '' ),
    ( '' ),
    'SwSTEP 2.0',
    'SolidWorks 2025',
    '' );
FILE_SCHEMA (( 'AUTOMOTIVE_DESIGN' ));
ENDSEC;

DATA;
#1 = ROLE_ASSOCIATION ( #200, #292 ) ;
#2 = DIRECTION ( 'NONE',  ( 0.000000000000000000, -2.563797941968288368E-30, 1.000000000000000444 ) ) ;
#3 = PRODUCT_DEFINITION_SHAPE ( 'NONE', 'NONE',  #294 ) ;
#4 = ITEM_DEFINED_TRANSFORMATION ( 'NONE', 'NONE', #6,  #145 ) ;
#5 = DIRECTION ( 'NONE',  ( 1.000000000000000444, -3.901535866072704540E-16, 0.000000000000000000 ) ) ;
#6 = AXIS2_PLACEMENT_3D ( 'NONE', #246, #102, #258 ) ;
#7 = SHAPE_REPRESENTATION ( 'slotted pan head screw_din_DIN EN ISO 1580 - M2 x 4 - 4S', ( #145 ), #180 ) ;
#8 = PRODUCT_RELATED_PRODUCT_CATEGORY ( 'part', '', ( #70 ) ) ;
#9 = APPLIED_EXTERNAL_IDENTIFICATION_ASSIGNMENT ( 'slotted pan head screw_din_DIN EN ISO 1580 - M2 x 4 - 4S.STEP' , #38, #126,( #132) ) ;
#10 = PRODUCT_RELATED_PRODUCT_CATEGORY ( 'part', '', ( #96 ) ) ;
#11 = PRODUCT_DEFINITION_SHAPE ( 'NONE', 'NONE',  #119 ) ;
#12 = EXTERNAL_SOURCE (IDENTIFIER('') ) ;
#13 =( REPRESENTATION_RELATIONSHIP ('NONE','NONE', #139, #118 ) REPRESENTATION_RELATIONSHIP_WITH_TRANSFORMATION ( #106 )SHAPE_REPRESENTATION_RELATIONSHIP( ) );
#14 = SHAPE_DEFINITION_REPRESENTATION ( #122, #152 ) ;
#15 = PROPERTY_DEFINITION ('external definition','', #132 ) ;
#16 = PRODUCT_DEFINITION_FORMATION_WITH_SPECIFIED_SOURCE ( 'Symmetric', '', #130, .NOT_KNOWN. ) ;
#17 = ITEM_DEFINED_TRANSFORMATION ( 'NONE', 'NONE', #137,  #290 ) ;
#18 = PROPERTY_DEFINITION_REPRESENTATION ( #264, #86 ) ;
#19 = IDENTIFICATION_ROLE ( 'external document id and location', $) ;
#20 =( NAMED_UNIT ( * ) PLANE_ANGLE_UNIT ( ) SI_UNIT ( $, .RADIAN. ) );
#21 = AXIS2_PLACEMENT_3D ( 'NONE', #57, #74, #27 ) ;
#22 = PROPERTY_DEFINITION ('external definition','', #192 ) ;
#23 = PROPERTY_DEFINITION_REPRESENTATION ( #113, #118 ) ;
#24 = DIRECTION ( 'NONE',  ( -1.000000000000000222, 3.881634925450403119E-15, 0.000000000000000000 ) ) ;
#25 = IDENTIFICATION_ROLE ( 'external document id and location', $) ;
#26 = OBJECT_ROLE ('mandatory',$ ) ;
#27 = DIRECTION ( 'NONE',  ( -1.000000000000000222, 3.881634925450403119E-15, 0.000000000000000000 ) ) ;
#28 =( NAMED_UNIT ( * ) SI_UNIT ( $, .STERADIAN. ) SOLID_ANGLE_UNIT ( ) );
#29 = AXIS2_PLACEMENT_3D ( 'NONE', #222, #5, #108 ) ;
#30 = APPLICATION_CONTEXT ( 'automotive_design' ) ;
#31 = PRODUCT_DEFINITION_SHAPE ( 'NONE', 'NONE',  #280 ) ;
#32 = PRODUCT_CONTEXT ( 'NONE', #165, 'mechanical' ) ;
#33 = APPLIED_DOCUMENT_REFERENCE ( #243,'',( #171) ) ;
#34 = DOCUMENT_TYPE ( 'geometry' ) ;
#35 = DIRECTION ( 'NONE',  ( 1.000000000000000444, 9.860761315262647568E-32, 0.000000000000000000 ) ) ;
#36 = IDENTIFICATION_ROLE ( 'external document id and location', $) ;
#37 = SHAPE_DEFINITION_REPRESENTATION ( #253, #118 ) ;
#38 = IDENTIFICATION_ROLE ( 'external document id and location', $) ;
#39 =( GEOMETRIC_REPRESENTATION_CONTEXT ( 3 ) GLOBAL_UNCERTAINTY_ASSIGNED_CONTEXT ( ( #134 ) ) GLOBAL_UNIT_ASSIGNED_CONTEXT ( ( #244, #131, #179 ) ) REPRESENTATION_CONTEXT ( 'NONE', 'WORKASPACE' ) );
#40 = APPLICATION_PROTOCOL_DEFINITION ( 'draft international standard', 'automotive_design', 1998, #82 ) ;
#41 = EXTERNAL_SOURCE (IDENTIFIER('') ) ;
#42 = CARTESIAN_POINT ( 'NONE',  ( 0.000000000000000000, 0.000000000000000000, 0.000000000000000000 ) ) ;
#43 =( GEOMETRIC_REPRESENTATION_CONTEXT ( 3 ) GLOBAL_UNCERTAINTY_ASSIGNED_CONTEXT ( ( #194 ) ) GLOBAL_UNIT_ASSIGNED_CONTEXT ( ( #260, #77, #28 ) ) REPRESENTATION_CONTEXT ( 'NONE', 'WORKASPACE' ) );
#44 = CARTESIAN_POINT ( 'NONE',  ( 0.000000000000000000, 0.000000000000000000, 0.000000000000000000 ) ) ;
#45 = PROPERTY_DEFINITION ('document property','', #163 ) ;
#46 = PRODUCT_CONTEXT ( 'NONE', #220, 'mechanical' ) ;
#47 = DIRECTION ( 'NONE',  ( 1.000000000000000000, 0.000000000000000000, 0.000000000000000000 ) ) ;
#48 = DOCUMENT_FILE ( 'LIR-DA237T_SHAFT.STEP' , '', '', #34, '' ,$ ) ;
#49 = DIRECTION ( 'NONE',  ( 0.000000000000000000, 0.000000000000000000, 1.000000000000000000 ) ) ;
#50 = PRODUCT ( 'LIR-DA237T', 'LIR-DA237T', '', ( #32 ) ) ;
#51 = ROLE_ASSOCIATION ( #214, #154 ) ;
#52 =( REPRESENTATION_RELATIONSHIP ('NONE','NONE', #139, #86 ) REPRESENTATION_RELATIONSHIP_WITH_TRANSFORMATION ( #143 )SHAPE_REPRESENTATION_RELATIONSHIP( ) );
#53 = APPLIED_DOCUMENT_REFERENCE ( #132,'',( #171) ) ;
#54 = UNCERTAINTY_MEASURE_WITH_UNIT (LENGTH_MEASURE( 1.000000000000000082E-05 ), #72, 'distance_accuracy_value', 'NONE');
#55 = PROPERTY_DEFINITION ('document property','', #192 ) ;
#56 = ROLE_ASSOCIATION ( #133, #146 ) ;
#57 = CARTESIAN_POINT ( 'NONE',  ( 989.0703176869419622, 1021.800093855412570, 1021.962964292595757 ) ) ;
#58 = APPLICATION_CONTEXT ( 'automotive_design' ) ;
#59 = PRODUCT_DEFINITION_CONTEXT ( 'detailed design', #69, 'design' ) ;
#60 = DIRECTION ( 'NONE',  ( 0.000000000000000000, -2.563797941968288368E-30, 1.000000000000000444 ) ) ;
#61 = EXTERNAL_SOURCE (IDENTIFIER('') ) ;
#62 = IDENTIFICATION_ROLE ( 'external document id and location', $) ;
#63 = AXIS2_PLACEMENT_3D ( 'NONE', #199, #155, #81 ) ;
#64 = DOCUMENT_FILE ( 'LIR-DA237T_BODY.STEP' , '', '', #148, '' ,$ ) ;
#65 = PROPERTY_DEFINITION_REPRESENTATION ( #22, #7 ) ;
#66 =( NAMED_UNIT ( * ) SI_UNIT ( $, .STERADIAN. ) SOLID_ANGLE_UNIT ( ) );
#67 = PRODUCT_RELATED_PRODUCT_CATEGORY ( 'part', '', ( #272 ) ) ;
#68 =( LENGTH_UNIT ( ) NAMED_UNIT ( * ) SI_UNIT ( .MILLI., .METRE. ) );
#69 = APPLICATION_CONTEXT ( 'automotive_design' ) ;
#70 = PRODUCT ( 'LIR-DA237T_BODY', 'LIR-DA237T_BODY', '', ( #46 ) ) ;
#71 = CONTEXT_DEPENDENT_SHAPE_REPRESENTATION ( #161, #257 ) ;
#72 =( LENGTH_UNIT ( ) NAMED_UNIT ( * ) SI_UNIT ( .MILLI., .METRE. ) );
#73 =( GEOMETRIC_REPRESENTATION_CONTEXT ( 3 ) GLOBAL_UNCERTAINTY_ASSIGNED_CONTEXT ( ( #157 ) ) GLOBAL_UNIT_ASSIGNED_CONTEXT ( ( #68, #170, #183 ) ) REPRESENTATION_CONTEXT ( 'NONE', 'WORKASPACE' ) );
#74 = DIRECTION ( 'NONE',  ( -3.580469254416129843E-15, -0.9242245927363030855, -0.3818493186865924427 ) ) ;
#75 = PROPERTY_DEFINITION ('document property','', #181 ) ;
#76 = PROPERTY_DEFINITION_REPRESENTATION ( #275, #7 ) ;
#77 =( NAMED_UNIT ( * ) PLANE_ANGLE_UNIT ( ) SI_UNIT ( $, .RADIAN. ) );
#78 = OBJECT_ROLE ('mandatory',$ ) ;
#79 = CONTEXT_DEPENDENT_SHAPE_REPRESENTATION ( #259, #175 ) ;
#80 = PRODUCT ( 'Bearing - D19-d10.stp', 'Bearing - D19-d10.stp', '', ( #289 ) ) ;
#81 = DIRECTION ( 'NONE',  ( 1.000000000000000000, 0.000000000000000000, 0.000000000000000000 ) ) ;
#82 = APPLICATION_CONTEXT ( 'automotive_design' ) ;
#83 = SHAPE_DEFINITION_REPRESENTATION ( #274, #139 ) ;
#84 = APPLIED_EXTERNAL_IDENTIFICATION_ASSIGNMENT ( 'slotted pan head screw_din_DIN EN ISO 1580 - M2 x 4 - 4S.STEP' , #25, #99,( #243) ) ;
#85 = UNCERTAINTY_MEASURE_WITH_UNIT (LENGTH_MEASURE( 1.000000000000000082E-05 ), #90, 'distance_accuracy_value', 'NONE');
#86 = SHAPE_REPRESENTATION ( 'LIR-DA237T_BODY', ( #169 ), #224 ) ;
#87 =( REPRESENTATION_RELATIONSHIP ('NONE','NONE', #139, #7 ) REPRESENTATION_RELATIONSHIP_WITH_TRANSFORMATION ( #226 )SHAPE_REPRESENTATION_RELATIONSHIP( ) );
#88 = DIRECTION ( 'NONE',  ( 0.3896421878144892270, -2.514494135391975130E-30, 0.9209663215748657983 ) ) ;
#89 = APPLIED_DOCUMENT_REFERENCE ( #64,'',( #280) ) ;
#90 =( LENGTH_UNIT ( ) NAMED_UNIT ( * ) SI_UNIT ( .MILLI., .METRE. ) );
#91 = APPLICATION_PROTOCOL_DEFINITION ( 'draft international standard', 'automotive_design', 1998, #220 ) ;
#92 =( REPRESENTATION_RELATIONSHIP ('NONE','NONE', #139, #152 ) REPRESENTATION_RELATIONSHIP_WITH_TRANSFORMATION ( #271 )SHAPE_REPRESENTATION_RELATIONSHIP( ) );
#93 = PROPERTY_DEFINITION_REPRESENTATION ( #45, #193 ) ;
#94 = AXIS2_PLACEMENT_3D ( 'NONE', #240, #2, #158 ) ;
#95 = APPLICATION_PROTOCOL_DEFINITION ( 'draft international standard', 'automotive_design', 1998, #107 ) ;
#96 = PRODUCT ( 'LIR-DA237T_CLIP', 'LIR-DA237T_CLIP', '', ( #135 ) ) ;
#97 = CONTEXT_DEPENDENT_SHAPE_REPRESENTATION ( #52, #3 ) ;
#98 =( NAMED_UNIT ( * ) SI_UNIT ( $, .STERADIAN. ) SOLID_ANGLE_UNIT ( ) );
#99 = EXTERNAL_SOURCE (IDENTIFIER('') ) ;
#100 = DOCUMENT_TYPE ( 'geometry' ) ;
#101 = PROPERTY_DEFINITION ('external definition','', #243 ) ;
#102 = DIRECTION ( 'NONE',  ( 0.000000000000000000, -2.563797941968288368E-30, 1.000000000000000444 ) ) ;
#103 = PROPERTY_DEFINITION_REPRESENTATION ( #198, #152 ) ;
#104 = PROPERTY_DEFINITION_REPRESENTATION ( #138, #152 ) ;
#105 = CARTESIAN_POINT ( 'NONE',  ( 971.5203176869415529, 1023.318346151165656, 1018.462964292596439 ) ) ;
#106 = ITEM_DEFINED_TRANSFORMATION ( 'NONE', 'NONE', #136,  #109 ) ;
#107 = APPLICATION_CONTEXT ( 'automotive_design' ) ;
#108 = DIRECTION ( 'NONE',  ( 0.000000000000000000, -1.960237527853818641E-16, 1.000000000000000444 ) ) ;
#109 = AXIS2_PLACEMENT_3D ( 'NONE', #117, #211, #177 ) ;
#110 = PRODUCT_DEFINITION_CONTEXT ( 'detailed design', #206, 'design' ) ;
#111 = APPLIED_EXTERNAL_IDENTIFICATION_ASSIGNMENT ( 'LIR-DA237T_CLIP.STEP' , #230, #217,( #219) ) ;
#112 = PRODUCT_DEFINITION ( 'General', '', #291, #160 ) ;
#113 = PROPERTY_DEFINITION ('document property','', #48 ) ;
#114 = PROPERTY_DEFINITION ('document property','', #64 ) ;
#115 = CARTESIAN_POINT ( 'NONE',  ( 0.000000000000000000, 0.000000000000000000, 0.000000000000000000 ) ) ;
#116 = ROLE_ASSOCIATION ( #78, #210 ) ;
#117 = CARTESIAN_POINT ( 'NONE',  ( 0.000000000000000000, 0.000000000000000000, 0.000000000000000000 ) ) ;
#118 = SHAPE_REPRESENTATION ( 'LIR-DA237T_SHAFT', ( #109 ), #39 ) ;
#119 = PRODUCT_DEFINITION ( 'General', '', #207, #59 ) ;
#120 = DOCUMENT_TYPE ( 'geometry' ) ;
#121 = PRODUCT_DEFINITION_FORMATION_WITH_SPECIFIED_SOURCE ( 'Symmetric', '', #70, .NOT_KNOWN. ) ;
#122 = PRODUCT_DEFINITION_SHAPE ( 'NONE', 'NONE',  #112 ) ;
#123 = DIRECTION ( 'NONE',  ( 1.000000000000000444, 9.860761315262647568E-32, 0.000000000000000000 ) ) ;
#124 = EXTERNAL_SOURCE (IDENTIFIER('') ) ;
#125 = OBJECT_ROLE ('mandatory',$ ) ;
#126 = EXTERNAL_SOURCE (IDENTIFIER('') ) ;
#127 = PROPERTY_DEFINITION_REPRESENTATION ( #101, #7 ) ;
#128 = APPLIED_EXTERNAL_IDENTIFICATION_ASSIGNMENT ( 'slotted pan head screw_din_DIN EN ISO 1580 - M2 x 4 - 4S.STEP' , #62, #267,( #192) ) ;
#129 = DIRECTION ( 'NONE',  ( 9.860761315262647568E-32, 1.000000000000000000, -2.563797941968288368E-30 ) ) ;
#130 = PRODUCT ( 'LIR-DA237T_SHAFT', 'LIR-DA237T_SHAFT', '', ( #202 ) ) ;
#131 =( NAMED_UNIT ( * ) PLANE_ANGLE_UNIT ( ) SI_UNIT ( $, .RADIAN. ) );
#132 = DOCUMENT_FILE ( 'slotted pan head screw_din_DIN EN ISO 1580 - M2 x 4 - 4S.STEP' , '', '', #287, '' ,$ ) ;
#133 = OBJECT_ROLE ('mandatory',$ ) ;
#134 = UNCERTAINTY_MEASURE_WITH_UNIT (LENGTH_MEASURE( 1.000000000000000082E-05 ), #244, 'distance_accuracy_value', 'NONE');
#135 = PRODUCT_CONTEXT ( 'NONE', #58, 'mechanical' ) ;
#136 = AXIS2_PLACEMENT_3D ( 'NONE', #197, #151, #88 ) ;
#137 = AXIS2_PLACEMENT_3D ( 'NONE', #105, #129, #35 ) ;
#138 = PROPERTY_DEFINITION ('document property','', #219 ) ;
#139 = SHAPE_REPRESENTATION ( 'LIR-DA237T', ( #63, #21, #94, #137, #29, #190, #269, #6, #136 ), #43 ) ;
#140 = SHAPE_DEFINITION_REPRESENTATION ( #164, #7 ) ;
#141 = SHAPE_DEFINITION_REPRESENTATION ( #31, #86 ) ;
#142 = CONTEXT_DEPENDENT_SHAPE_REPRESENTATION ( #92, #147 ) ;
#143 = ITEM_DEFINED_TRANSFORMATION ( 'NONE', 'NONE', #94,  #169 ) ;
#144 = CARTESIAN_POINT ( 'NONE',  ( 0.000000000000000000, 0.000000000000000000, 0.000000000000000000 ) ) ;
#145 = AXIS2_PLACEMENT_3D ( 'NONE', #144, #273, #286 ) ;
#146 = APPLIED_DOCUMENT_REFERENCE ( #48,'',( #255) ) ;
#147 = PRODUCT_DEFINITION_SHAPE ( 'NONE', 'NONE',  #296 ) ;
#148 = DOCUMENT_TYPE ( 'geometry' ) ;
#149 = IDENTIFICATION_ROLE ( 'external document id and location', $) ;
#150 = CONTEXT_DEPENDENT_SHAPE_REPRESENTATION ( #13, #268 ) ;
#151 = DIRECTION ( 'NONE',  ( -0.9209663215748657983, -1.183291357831517708E-30, 0.3896421878144892270 ) ) ;
#152 = SHAPE_REPRESENTATION ( 'LIR-DA237T_CLIP', ( #262 ), #73 ) ;
#153 = PROPERTY_DEFINITION ('document property','', #132 ) ;
#154 = APPLIED_DOCUMENT_REFERENCE ( #181,'',( #171) ) ;
#155 = DIRECTION ( 'NONE',  ( 0.000000000000000000, 0.000000000000000000, 1.000000000000000000 ) ) ;
#156 = PROPERTY_DEFINITION_REPRESENTATION ( #162, #118 ) ;
#157 = UNCERTAINTY_MEASURE_WITH_UNIT (LENGTH_MEASURE( 1.000000000000000082E-05 ), #68, 'distance_accuracy_value', 'NONE');
#158 = DIRECTION ( 'NONE',  ( 1.000000000000000444, 9.860761315262647568E-32, 0.000000000000000000 ) ) ;
#159 = PRODUCT_DEFINITION_CONTEXT ( 'detailed design', #236, 'design' ) ;
#160 = PRODUCT_DEFINITION_CONTEXT ( 'detailed design', #203, 'design' ) ;
#161 =( REPRESENTATION_RELATIONSHIP ('NONE','NONE', #139, #7 ) REPRESENTATION_RELATIONSHIP_WITH_TRANSFORMATION ( #256 )SHAPE_REPRESENTATION_RELATIONSHIP( ) );
#162 = PROPERTY_DEFINITION ('external definition','', #48 ) ;
#163 = DOCUMENT_FILE ( 'Bearing - D19-d10.stp.STEP' , '', '', #209, '' ,$ ) ;
#164 = PRODUCT_DEFINITION_SHAPE ( 'NONE', 'NONE',  #171 ) ;
#165 = APPLICATION_CONTEXT ( 'automotive_design' ) ;
#166 = OBJECT_ROLE ('mandatory',$ ) ;
#167 = PRODUCT_RELATED_PRODUCT_CATEGORY ( 'part', '', ( #130 ) ) ;
#168 =( LENGTH_UNIT ( ) NAMED_UNIT ( * ) SI_UNIT ( .MILLI., .METRE. ) );
#169 = AXIS2_PLACEMENT_3D ( 'NONE', #42, #235, #47 ) ;
#170 =( NAMED_UNIT ( * ) PLANE_ANGLE_UNIT ( ) SI_UNIT ( $, .RADIAN. ) );
#171 = PRODUCT_DEFINITION ( 'General', '', #250, #285 ) ;
#172 = ROLE_ASSOCIATION ( #229, #288 ) ;
#173 = PROPERTY_DEFINITION_REPRESENTATION ( #75, #7 ) ;
#174 =( NAMED_UNIT ( * ) PLANE_ANGLE_UNIT ( ) SI_UNIT ( $, .RADIAN. ) );
#175 = PRODUCT_DEFINITION_SHAPE ( 'NONE', 'NONE',  #299 ) ;
#176 = PROPERTY_DEFINITION_REPRESENTATION ( #153, #7 ) ;
#177 = DIRECTION ( 'NONE',  ( 1.000000000000000000, 0.000000000000000000, 0.000000000000000000 ) ) ;
#178 = CONTEXT_DEPENDENT_SHAPE_REPRESENTATION ( #212, #204 ) ;
#179 =( NAMED_UNIT ( * ) SI_UNIT ( $, .STERADIAN. ) SOLID_ANGLE_UNIT ( ) );
#180 =( GEOMETRIC_REPRESENTATION_CONTEXT ( 3 ) GLOBAL_UNCERTAINTY_ASSIGNED_CONTEXT ( ( #54 ) ) GLOBAL_UNIT_ASSIGNED_CONTEXT ( ( #72, #213, #66 ) ) REPRESENTATION_CONTEXT ( 'NONE', 'WORKASPACE' ) );
#181 = DOCUMENT_FILE ( 'slotted pan head screw_din_DIN EN ISO 1580 - M2 x 4 - 4S.STEP' , '', '', #100, '' ,$ ) ;
#182 = APPLIED_EXTERNAL_IDENTIFICATION_ASSIGNMENT ( 'LIR-DA237T_SHAFT.STEP' , #19, #124,( #48) ) ;
#183 =( NAMED_UNIT ( * ) SI_UNIT ( $, .STERADIAN. ) SOLID_ANGLE_UNIT ( ) );
#184 = PRODUCT_RELATED_PRODUCT_CATEGORY ( 'part', '', ( #50 ) ) ;
#185 = CARTESIAN_POINT ( 'NONE',  ( 989.0703176869419622, 1021.800093855412342, 1014.962964292595643 ) ) ;
#186 = APPLICATION_CONTEXT ( 'automotive_design' ) ;
#187 = DIRECTION ( 'NONE',  ( 1.000000000000000000, 0.000000000000000000, 0.000000000000000000 ) ) ;
#188 = APPLICATION_PROTOCOL_DEFINITION ( 'draft international standard', 'automotive_design', 1998, #236 ) ;
#189 = CONTEXT_DEPENDENT_SHAPE_REPRESENTATION ( #196, #239 ) ;
#190 = AXIS2_PLACEMENT_3D ( 'NONE', #185, #266, #24 ) ;
#191 = APPLICATION_CONTEXT ( 'automotive_design' ) ;
#192 = DOCUMENT_FILE ( 'slotted pan head screw_din_DIN EN ISO 1580 - M2 x 4 - 4S.STEP' , '', '', #120, '' ,$ ) ;
#193 = SHAPE_REPRESENTATION ( 'Bearing - D19-d10.stp', ( #290 ), #238 ) ;
#194 = UNCERTAINTY_MEASURE_WITH_UNIT (LENGTH_MEASURE( 1.000000000000000082E-05 ), #260, 'distance_accuracy_value', 'NONE');
#195 = ITEM_DEFINED_TRANSFORMATION ( 'NONE', 'NONE', #190,  #145 ) ;
#196 =( REPRESENTATION_RELATIONSHIP ('NONE','NONE', #139, #193 ) REPRESENTATION_RELATIONSHIP_WITH_TRANSFORMATION ( #17 )SHAPE_REPRESENTATION_RELATIONSHIP( ) );
#197 = CARTESIAN_POINT ( 'NONE',  ( 971.5203176869420076, 993.0183461511654741, 1018.462964292596439 ) ) ;
#198 = PROPERTY_DEFINITION ('external definition','', #219 ) ;
#199 = CARTESIAN_POINT ( 'NONE',  ( 0.000000000000000000, 0.000000000000000000, 0.000000000000000000 ) ) ;
#200 = OBJECT_ROLE ('mandatory',$ ) ;
#201 = ROLE_ASSOCIATION ( #26, #53 ) ;
#202 = PRODUCT_CONTEXT ( 'NONE', #186, 'mechanical' ) ;
#203 = APPLICATION_CONTEXT ( 'automotive_design' ) ;
#204 = PRODUCT_DEFINITION_SHAPE ( 'NONE', 'NONE',  #297 ) ;
#205 = APPLICATION_PROTOCOL_DEFINITION ( 'draft international standard', 'automotive_design', 1998, #203 ) ;
#206 = APPLICATION_CONTEXT ( 'automotive_design' ) ;
#207 = PRODUCT_DEFINITION_FORMATION_WITH_SPECIFIED_SOURCE ( 'Symmetric', '', #80, .NOT_KNOWN. ) ;
#208 = DIRECTION ( 'NONE',  ( 1.000000000000000000, 0.000000000000000000, 0.000000000000000000 ) ) ;
#209 = DOCUMENT_TYPE ( 'geometry' ) ;
#210 = APPLIED_DOCUMENT_REFERENCE ( #163,'',( #119) ) ;
#211 = DIRECTION ( 'NONE',  ( 0.000000000000000000, 0.000000000000000000, 1.000000000000000000 ) ) ;
#212 =( REPRESENTATION_RELATIONSHIP ('NONE','NONE', #139, #7 ) REPRESENTATION_RELATIONSHIP_WITH_TRANSFORMATION ( #195 )SHAPE_REPRESENTATION_RELATIONSHIP( ) );
#213 =( NAMED_UNIT ( * ) PLANE_ANGLE_UNIT ( ) SI_UNIT ( $, .RADIAN. ) );
#214 = OBJECT_ROLE ('mandatory',$ ) ;
#215 = PRODUCT_CONTEXT ( 'NONE', #107, 'mechanical' ) ;
#216 = CARTESIAN_POINT ( 'NONE',  ( 953.9703176869452363, 1021.800093855417003, 1021.962964292589163 ) ) ;
#217 = EXTERNAL_SOURCE (IDENTIFIER('') ) ;
#218 = APPLIED_EXTERNAL_IDENTIFICATION_ASSIGNMENT ( 'slotted pan head screw_din_DIN EN ISO 1580 - M2 x 4 - 4S.STEP' , #36, #12,( #181) ) ;
#219 = DOCUMENT_FILE ( 'LIR-DA237T_CLIP.STEP' , '', '', #247, '' ,$ ) ;
#220 = APPLICATION_CONTEXT ( 'automotive_design' ) ;
#221 = PROPERTY_DEFINITION_REPRESENTATION ( #15, #7 ) ;
#222 = CARTESIAN_POINT ( 'NONE',  ( 971.5203176869420076, 1026.568346151165997, 1018.462964292596439 ) ) ;
#223 = PRODUCT_DEFINITION_FORMATION_WITH_SPECIFIED_SOURCE ( 'Symmetric', '', #50, .NOT_KNOWN. ) ;
#224 =( GEOMETRIC_REPRESENTATION_CONTEXT ( 3 ) GLOBAL_UNCERTAINTY_ASSIGNED_CONTEXT ( ( #263 ) ) GLOBAL_UNIT_ASSIGNED_CONTEXT ( ( #168, #174, #98 ) ) REPRESENTATION_CONTEXT ( 'NONE', 'WORKASPACE' ) );
#225 = PRODUCT_DEFINITION ( 'General', '', #223, #110 ) ;
#226 = ITEM_DEFINED_TRANSFORMATION ( 'NONE', 'NONE', #21,  #145 ) ;
#227 = PROPERTY_DEFINITION_REPRESENTATION ( #114, #86 ) ;
#228 = DIRECTION ( 'NONE',  ( 0.000000000000000000, 0.000000000000000000, 1.000000000000000000 ) ) ;
#229 = OBJECT_ROLE ('mandatory',$ ) ;
#230 = IDENTIFICATION_ROLE ( 'external document id and location', $) ;
#231 = CONTEXT_DEPENDENT_SHAPE_REPRESENTATION ( #87, #282 ) ;
#232 =( NAMED_UNIT ( * ) SI_UNIT ( $, .STERADIAN. ) SOLID_ANGLE_UNIT ( ) );
#233 = APPLICATION_PROTOCOL_DEFINITION ( 'draft international standard', 'automotive_design', 1998, #69 ) ;
#234 = PROPERTY_DEFINITION ('external definition','', #181 ) ;
#235 = DIRECTION ( 'NONE',  ( 0.000000000000000000, 0.000000000000000000, 1.000000000000000000 ) ) ;
#236 = APPLICATION_CONTEXT ( 'automotive_design' ) ;
#237 = PRODUCT_DEFINITION_CONTEXT ( 'detailed design', #191, 'design' ) ;
#238 =( GEOMETRIC_REPRESENTATION_CONTEXT ( 3 ) GLOBAL_UNCERTAINTY_ASSIGNED_CONTEXT ( ( #85 ) ) GLOBAL_UNIT_ASSIGNED_CONTEXT ( ( #90, #20, #232 ) ) REPRESENTATION_CONTEXT ( 'NONE', 'WORKASPACE' ) );
#239 = PRODUCT_DEFINITION_SHAPE ( 'NONE', 'NONE',  #295 ) ;
#240 = CARTESIAN_POINT ( 'NONE',  ( 971.5203176869417803, 993.7183461511655196, 1018.462964292596439 ) ) ;
#241 = APPLICATION_PROTOCOL_DEFINITION ( 'draft international standard', 'automotive_design', 1998, #206 ) ;
#242 = APPLICATION_PROTOCOL_DEFINITION ( 'draft international standard', 'automotive_design', 1998, #165 ) ;
#243 = DOCUMENT_FILE ( 'slotted pan head screw_din_DIN EN ISO 1580 - M2 x 4 - 4S.STEP' , '', '', #278, '' ,$ ) ;
#244 =( LENGTH_UNIT ( ) NAMED_UNIT ( * ) SI_UNIT ( .MILLI., .METRE. ) );
#245 = APPLICATION_PROTOCOL_DEFINITION ( 'draft international standard', 'automotive_design', 1998, #191 ) ;
#246 = CARTESIAN_POINT ( 'NONE',  ( 953.9703176869452363, 1021.800093855417003, 1014.962964292589049 ) ) ;
#247 = DOCUMENT_TYPE ( 'geometry' ) ;
#248 = PROPERTY_DEFINITION ('external definition','', #163 ) ;
#249 = ROLE_ASSOCIATION ( #166, #89 ) ;
#250 = PRODUCT_DEFINITION_FORMATION_WITH_SPECIFIED_SOURCE ( 'Symmetric', '', #272, .NOT_KNOWN. ) ;
#251 = SHAPE_DEFINITION_REPRESENTATION ( #11, #193 ) ;
#252 = APPLICATION_PROTOCOL_DEFINITION ( 'draft international standard', 'automotive_design', 1998, #30 ) ;
#253 = PRODUCT_DEFINITION_SHAPE ( 'NONE', 'NONE',  #255 ) ;
#254 = IDENTIFICATION_ROLE ( 'external document id and location', $) ;
#255 = PRODUCT_DEFINITION ( 'General', '', #16, #237 ) ;
#256 = ITEM_DEFINED_TRANSFORMATION ( 'NONE', 'NONE', #269,  #145 ) ;
#257 = PRODUCT_DEFINITION_SHAPE ( 'NONE', 'NONE',  #298 ) ;
#258 = DIRECTION ( 'NONE',  ( 1.000000000000000444, 9.860761315262647568E-32, 0.000000000000000000 ) ) ;
#259 =( REPRESENTATION_RELATIONSHIP ('NONE','NONE', #139, #7 ) REPRESENTATION_RELATIONSHIP_WITH_TRANSFORMATION ( #4 )SHAPE_REPRESENTATION_RELATIONSHIP( ) );
#260 =( LENGTH_UNIT ( ) NAMED_UNIT ( * ) SI_UNIT ( .MILLI., .METRE. ) );
#261 = PRODUCT_RELATED_PRODUCT_CATEGORY ( 'part', '', ( #80 ) ) ;
#262 = AXIS2_PLACEMENT_3D ( 'NONE', #115, #49, #187 ) ;
#263 = UNCERTAINTY_MEASURE_WITH_UNIT (LENGTH_MEASURE( 1.000000000000000082E-05 ), #168, 'distance_accuracy_value', 'NONE');
#264 = PROPERTY_DEFINITION ('external definition','', #64 ) ;
#265 = APPLICATION_PROTOCOL_DEFINITION ( 'draft international standard', 'automotive_design', 1998, #186 ) ;
#266 = DIRECTION ( 'NONE',  ( -3.580469254416129843E-15, -0.9242245927363030855, -0.3818493186865924427 ) ) ;
#267 = EXTERNAL_SOURCE (IDENTIFIER('') ) ;
#268 = PRODUCT_DEFINITION_SHAPE ( 'NONE', 'NONE',  #300 ) ;
#269 = AXIS2_PLACEMENT_3D ( 'NONE', #216, #60, #123 ) ;
#270 = PROPERTY_DEFINITION_REPRESENTATION ( #248, #193 ) ;
#271 = ITEM_DEFINED_TRANSFORMATION ( 'NONE', 'NONE', #29,  #262 ) ;
#272 = PRODUCT ( 'slotted pan head screw_din_DIN EN ISO 1580 - M2 x 4 - 4S', 'slotted pan head screw_din_DIN EN ISO 1580 - M2 x 4 - 4S', '', ( #215 ) ) ;
#273 = DIRECTION ( 'NONE',  ( 0.000000000000000000, 0.000000000000000000, 1.000000000000000000 ) ) ;
#274 = PRODUCT_DEFINITION_SHAPE ( 'NONE', 'NONE',  #225 ) ;
#275 = PROPERTY_DEFINITION ('document property','', #243 ) ;
#276 = ROLE_ASSOCIATION ( #125, #33 ) ;
#277 = PROPERTY_DEFINITION_REPRESENTATION ( #234, #7 ) ;
#278 = DOCUMENT_TYPE ( 'geometry' ) ;
#279 = APPLIED_EXTERNAL_IDENTIFICATION_ASSIGNMENT ( 'Bearing - D19-d10.stp.STEP' , #149, #61,( #163) ) ;
#280 = PRODUCT_DEFINITION ( 'General', '', #121, #159 ) ;
#281 = APPLICATION_PROTOCOL_DEFINITION ( 'draft international standard', 'automotive_design', 1998, #58 ) ;
#282 = PRODUCT_DEFINITION_SHAPE ( 'NONE', 'NONE',  #293 ) ;
#283 = APPLIED_EXTERNAL_IDENTIFICATION_ASSIGNMENT ( 'LIR-DA237T_BODY.STEP' , #254, #41,( #64) ) ;
#284 = PROPERTY_DEFINITION_REPRESENTATION ( #55, #7 ) ;
#285 = PRODUCT_DEFINITION_CONTEXT ( 'detailed design', #82, 'design' ) ;
#286 = DIRECTION ( 'NONE',  ( 1.000000000000000000, 0.000000000000000000, 0.000000000000000000 ) ) ;
#287 = DOCUMENT_TYPE ( 'geometry' ) ;
#288 = APPLIED_DOCUMENT_REFERENCE ( #192,'',( #171) ) ;
#289 = PRODUCT_CONTEXT ( 'NONE', #30, 'mechanical' ) ;
#290 = AXIS2_PLACEMENT_3D ( 'NONE', #44, #228, #208 ) ;
#291 = PRODUCT_DEFINITION_FORMATION_WITH_SPECIFIED_SOURCE ( 'Symmetric', '', #96, .NOT_KNOWN. ) ;
#292 = APPLIED_DOCUMENT_REFERENCE ( #219,'',( #112) ) ;
#293 = NEXT_ASSEMBLY_USAGE_OCCURRENCE ( 'NAUO1', ' ', ' ', #225, #171, $ ) ;
#294 = NEXT_ASSEMBLY_USAGE_OCCURRENCE ( 'NAUO2', ' ', ' ', #225, #280, $ ) ;
#295 = NEXT_ASSEMBLY_USAGE_OCCURRENCE ( 'NAUO3', ' ', ' ', #225, #119, $ ) ;
#296 = NEXT_ASSEMBLY_USAGE_OCCURRENCE ( 'NAUO4', ' ', ' ', #225, #112, $ ) ;
#297 = NEXT_ASSEMBLY_USAGE_OCCURRENCE ( 'NAUO5', ' ', ' ', #225, #171, $ ) ;
#298 = NEXT_ASSEMBLY_USAGE_OCCURRENCE ( 'NAUO6', ' ', ' ', #225, #171, $ ) ;
#299 = NEXT_ASSEMBLY_USAGE_OCCURRENCE ( 'NAUO7', ' ', ' ', #225, #171, $ ) ;
#300 = NEXT_ASSEMBLY_USAGE_OCCURRENCE ( 'NAUO8', ' ', ' ', #225, #255, $ ) ;
ENDSEC;
END-ISO-10303-21;
