ISO-10303-21;
HEADER;
FILE_DESCRIPTION (( 'STEP AP214' ),
    '1' );
FILE_NAME ('Magnet-round-4x2.STEP',
    '2026-01-08T13:34:34',
    ( '' ),
    ( '' ),
    'SwSTEP 2.0',
    'SolidWorks 2025',
    '' );
FILE_SCHEMA (( 'AUTOMOTIVE_DESIGN' ));
ENDSEC;

DATA;
#1 = CIRCLE ( 'NONE', #137, 1.850000000000000089 ) ;
#2 = EDGE_CURVE ( 'NONE', #212, #46, #123, .T. ) ;
#3 = CARTESIAN_POINT ( 'NONE',  ( 0.000000000000000000, 0.1499999999999999667, 0.000000000000000000 ) ) ;
#4 = DIRECTION ( 'NONE',  ( 0.000000000000000000, 1.000000000000000000, 0.000000000000000000 ) ) ;
#5 = EDGE_CURVE ( 'NONE', #212, #186, #133, .T. ) ;
#6 = CARTESIAN_POINT ( 'NONE',  ( 0.000000000000000000, 1.850000000000000089, 1.850000000000000089 ) ) ;
#7 = SURFACE_STYLE_FILL_AREA ( #49 ) ;
#8 = CYLINDRICAL_SURFACE ( 'NONE', #17, 2.000000000000000000 ) ;
#9 = ORIENTED_EDGE ( 'NONE', *, *, #142, .T. ) ;
#10 = DIRECTION ( 'NONE',  ( 0.000000000000000000, 1.000000000000000000, 0.000000000000000000 ) ) ;
#11 =( GEOMETRIC_REPRESENTATION_CONTEXT ( 3 ) GLOBAL_UNCERTAINTY_ASSIGNED_CONTEXT ( ( #39 ) ) GLOBAL_UNIT_ASSIGNED_CONTEXT ( ( #143, #122, #125 ) ) REPRESENTATION_CONTEXT ( 'NONE', 'WORKASPACE' ) );
#12 =( NAMED_UNIT ( * ) PLANE_ANGLE_UNIT ( ) SI_UNIT ( $, .RADIAN. ) );
#13 = CARTESIAN_POINT ( 'NONE',  ( 0.000000000000000000, 2.000000000000000000, 1.850000000000000089 ) ) ;
#14 = PRODUCT_DEFINITION_SHAPE ( 'NONE', 'NONE',  #148 ) ;
#15 = ADVANCED_FACE ( 'NONE', ( #63 ), #180, .T. ) ;
#16 = PRODUCT_CONTEXT ( 'NONE', #166, 'mechanical' ) ;
#17 = AXIS2_PLACEMENT_3D ( 'NONE', #185, #78, #226 ) ;
#18 = PLANE ( 'NONE',  #68 ) ;
#19 = AXIS2_PLACEMENT_3D ( 'NONE', #37, #197, #215 ) ;
#20 = DIRECTION ( 'NONE',  ( 0.000000000000000000, 0.000000000000000000, 1.000000000000000000 ) ) ;
#21 = ADVANCED_FACE ( 'NONE', ( #81 ), #170, .T. ) ;
#22 = DIRECTION ( 'NONE',  ( 0.000000000000000000, 0.000000000000000000, 1.000000000000000000 ) ) ;
#23 = VERTEX_POINT ( 'NONE', #13 ) ;
#24 = VECTOR ( 'NONE', #217, 1000.000000000000000 ) ;
#25 = ORIENTED_EDGE ( 'NONE', *, *, #138, .T. ) ;
#26 = ORIENTED_EDGE ( 'NONE', *, *, #5, .F. ) ;
#27 = DIRECTION ( 'NONE',  ( 0.000000000000000000, 1.000000000000000000, 0.000000000000000000 ) ) ;
#28 = DIRECTION ( 'NONE',  ( 0.000000000000000000, 0.000000000000000000, 1.000000000000000000 ) ) ;
#29 = DIRECTION ( 'NONE',  ( 0.000000000000000000, 1.000000000000000000, 0.000000000000000000 ) ) ;
#30 = AXIS2_PLACEMENT_3D ( 'NONE', #100, #29, #144 ) ;
#31 = ORIENTED_EDGE ( 'NONE', *, *, #224, .T. ) ;
#32 = ORIENTED_EDGE ( 'NONE', *, *, #2, .F. ) ;
#33 = ADVANCED_FACE ( 'NONE', ( #51 ), #219, .T. ) ;
#34 = DIRECTION ( 'NONE',  ( 1.000000000000000000, -0.000000000000000000, 1.224646799147353207E-16 ) ) ;
#35 = CLOSED_SHELL ( 'NONE', ( #33, #179, #97, #82, #106, #119, #15, #21 ) ) ;
#36 = CIRCLE ( 'NONE', #244, 0.1499999999999999667 ) ;
#37 = CARTESIAN_POINT ( 'NONE',  ( 0.000000000000000000, 2.000000000000000000, 0.000000000000000000 ) ) ;
#38 = DIRECTION ( 'NONE',  ( -0.000000000000000000, -1.000000000000000000, -0.000000000000000000 ) ) ;
#39 = UNCERTAINTY_MEASURE_WITH_UNIT (LENGTH_MEASURE( 1.000000000000000082E-05 ), #143, 'distance_accuracy_value', 'NONE');
#40 = AXIS2_PLACEMENT_3D ( 'NONE', #102, #10, #20 ) ;
#41 = DIRECTION ( 'NONE',  ( 0.000000000000000000, 0.000000000000000000, 1.000000000000000000 ) ) ;
#42 =( LENGTH_UNIT ( ) NAMED_UNIT ( * ) SI_UNIT ( .MILLI., .METRE. ) );
#43 = DIRECTION ( 'NONE',  ( 0.000000000000000000, 1.000000000000000000, 0.000000000000000000 ) ) ;
#44 = DIRECTION ( 'NONE',  ( -1.000000000000000000, 0.000000000000000000, 0.000000000000000000 ) ) ;
#45 = DIRECTION ( 'NONE',  ( 0.000000000000000000, 0.000000000000000000, 1.000000000000000000 ) ) ;
#46 = VERTEX_POINT ( 'NONE', #129 ) ;
#47 = UNCERTAINTY_MEASURE_WITH_UNIT (LENGTH_MEASURE( 1.000000000000000082E-05 ), #77, 'distance_accuracy_value', 'NONE');
#48 = ORIENTED_EDGE ( 'NONE', *, *, #182, .F. ) ;
#49 = FILL_AREA_STYLE ('',( #227 ) ) ;
#50 = EDGE_LOOP ( 'NONE', ( #222, #31 ) ) ;
#51 = FACE_OUTER_BOUND ( 'NONE', #89, .T. ) ;
#52 = AXIS2_PLACEMENT_3D ( 'NONE', #113, #34, #213 ) ;
#53 = APPLICATION_CONTEXT ( 'automotive_design' ) ;
#54 = ORIENTED_EDGE ( 'NONE', *, *, #132, .F. ) ;
#55 = CIRCLE ( 'NONE', #110, 2.000000000000000000 ) ;
#56 = APPLICATION_PROTOCOL_DEFINITION ( 'draft international standard', 'automotive_design', 1998, #166 ) ;
#57 = DIRECTION ( 'NONE',  ( 0.000000000000000000, 0.000000000000000000, 1.000000000000000000 ) ) ;
#58 = CIRCLE ( 'NONE', #140, 2.000000000000000000 ) ;
#59 = DIRECTION ( 'NONE',  ( 0.000000000000000000, 0.000000000000000000, 1.000000000000000000 ) ) ;
#60 = SURFACE_STYLE_FILL_AREA ( #159 ) ;
#61 = EDGE_CURVE ( 'NONE', #186, #23, #239, .T. ) ;
#62 = DIRECTION ( 'NONE',  ( 0.000000000000000000, 0.000000000000000000, 1.000000000000000000 ) ) ;
#63 = FACE_OUTER_BOUND ( 'NONE', #176, .T. ) ;
#64 = DIRECTION ( 'NONE',  ( 0.000000000000000000, 1.000000000000000000, 0.000000000000000000 ) ) ;
#65 = AXIS2_PLACEMENT_3D ( 'NONE', #221, #27, #45 ) ;
#66 = AXIS2_PLACEMENT_3D ( 'NONE', #187, #168, #28 ) ;
#67 = ORIENTED_EDGE ( 'NONE', *, *, #135, .F. ) ;
#68 = AXIS2_PLACEMENT_3D ( 'NONE', #136, #4, #233 ) ;
#69 = CARTESIAN_POINT ( 'NONE',  ( 2.449293598294706414E-16, 2.000000000000000000, 2.000000000000000000 ) ) ;
#70 = AXIS2_PLACEMENT_3D ( 'NONE', #161, #38, #41 ) ;
#71 = DIRECTION ( 'NONE',  ( 0.000000000000000000, 0.000000000000000000, 1.000000000000000000 ) ) ;
#72 = CYLINDRICAL_SURFACE ( 'NONE', #19, 2.000000000000000000 ) ;
#73 = PLANE ( 'NONE',  #199 ) ;
#74 = ORIENTED_EDGE ( 'NONE', *, *, #2, .T. ) ;
#75 = CIRCLE ( 'NONE', #164, 0.1499999999999999667 ) ;
#76 = SURFACE_STYLE_USAGE ( .BOTH. , #174 ) ;
#77 =( LENGTH_UNIT ( ) NAMED_UNIT ( * ) SI_UNIT ( .MILLI., .METRE. ) );
#78 = DIRECTION ( 'NONE',  ( -0.000000000000000000, -1.000000000000000000, -0.000000000000000000 ) ) ;
#79 = ORIENTED_EDGE ( 'NONE', *, *, #138, .F. ) ;
#80 = CARTESIAN_POINT ( 'NONE',  ( 2.357445088358654757E-16, 0.000000000000000000, -1.850000000000000089 ) ) ;
#81 = FACE_OUTER_BOUND ( 'NONE', #209, .T. ) ;
#82 = ADVANCED_FACE ( 'NONE', ( #207 ), #8, .T. ) ;
#83 = CARTESIAN_POINT ( 'NONE',  ( 0.000000000000000000, 1.850000000000000089, -2.000000000000000000 ) ) ;
#84 = AXIS2_PLACEMENT_3D ( 'NONE', #228, #150, #126 ) ;
#85 = VERTEX_POINT ( 'NONE', #188 ) ;
#86 = PRODUCT_RELATED_PRODUCT_CATEGORY ( 'part', '', ( #208 ) ) ;
#87 = PRODUCT_DEFINITION_CONTEXT ( 'detailed design', #53, 'design' ) ;
#88 = EDGE_CURVE ( 'NONE', #191, #46, #153, .T. ) ;
#89 = EDGE_LOOP ( 'NONE', ( #111, #96, #131, #237 ) ) ;
#90 = STYLED_ITEM ( 'NONE', ( #165 ), #175 ) ;
#91 = AXIS2_PLACEMENT_3D ( 'NONE', #151, #43, #104 ) ;
#92 = DIRECTION ( 'NONE',  ( 0.000000000000000000, 1.000000000000000000, 0.000000000000000000 ) ) ;
#93 = CARTESIAN_POINT ( 'NONE',  ( 2.357445088358654757E-16, 2.000000000000000000, -1.850000000000000089 ) ) ;
#94 = CIRCLE ( 'NONE', #156, 1.850000000000000089 ) ;
#95 = DIRECTION ( 'NONE',  ( 0.000000000000000000, 0.000000000000000000, 1.000000000000000000 ) ) ;
#96 = ORIENTED_EDGE ( 'NONE', *, *, #5, .T. ) ;
#97 = ADVANCED_FACE ( 'NONE', ( #194 ), #72, .T. ) ;
#98 = ORIENTED_EDGE ( 'NONE', *, *, #224, .F. ) ;
#99 = UNCERTAINTY_MEASURE_WITH_UNIT (LENGTH_MEASURE( 1.000000000000000082E-05 ), #42, 'distance_accuracy_value', 'NONE');
#100 = CARTESIAN_POINT ( 'NONE',  ( 0.000000000000000000, 0.1499999999999999667, 0.000000000000000000 ) ) ;
#101 = ORIENTED_EDGE ( 'NONE', *, *, #88, .F. ) ;
#102 = CARTESIAN_POINT ( 'NONE',  ( 0.000000000000000000, 0.1499999999999999667, 0.000000000000000000 ) ) ;
#103 = TOROIDAL_SURFACE ( 'NONE', #216, 1.850000000000000089, 0.1499999999999999944 ) ;
#104 = DIRECTION ( 'NONE',  ( 0.000000000000000000, 0.000000000000000000, 1.000000000000000000 ) ) ;
#105 = PRODUCT_DEFINITION_FORMATION_WITH_SPECIFIED_SOURCE ( 'Symmetric', '', #208, .NOT_KNOWN. ) ;
#106 = ADVANCED_FACE ( 'NONE', ( #178 ), #73, .T. ) ;
#107 = ORIENTED_EDGE ( 'NONE', *, *, #142, .F. ) ;
#108 =( NAMED_UNIT ( * ) PLANE_ANGLE_UNIT ( ) SI_UNIT ( $, .RADIAN. ) );
#109 = ORIENTED_EDGE ( 'NONE', *, *, #61, .F. ) ;
#110 = AXIS2_PLACEMENT_3D ( 'NONE', #3, #163, #59 ) ;
#111 = ORIENTED_EDGE ( 'NONE', *, *, #231, .F. ) ;
#112 = AXIS2_PLACEMENT_3D ( 'NONE', #177, #57, #232 ) ;
#113 = CARTESIAN_POINT ( 'NONE',  ( 2.265596578422603100E-16, 0.1499999999999999667, -1.850000000000000089 ) ) ;
#114 = DIRECTION ( 'NONE',  ( 0.000000000000000000, -0.000000000000000000, 1.000000000000000000 ) ) ;
#115 = VERTEX_POINT ( 'NONE', #198 ) ;
#116 = MECHANICAL_DESIGN_GEOMETRIC_PRESENTATION_REPRESENTATION (  '', ( #193 ), #11 ) ;
#117 = MECHANICAL_DESIGN_GEOMETRIC_PRESENTATION_REPRESENTATION (  '', ( #90 ), #240 ) ;
#118 = DIRECTION ( 'NONE',  ( -1.000000000000000000, 0.000000000000000000, 0.000000000000000000 ) ) ;
#119 = ADVANCED_FACE ( 'NONE', ( #162 ), #18, .F. ) ;
#120 = PRESENTATION_STYLE_ASSIGNMENT (( #230 ) ) ;
#121 = DIRECTION ( 'NONE',  ( 0.000000000000000000, 1.000000000000000000, 0.000000000000000000 ) ) ;
#122 =( NAMED_UNIT ( * ) PLANE_ANGLE_UNIT ( ) SI_UNIT ( $, .RADIAN. ) );
#123 = LINE ( 'NONE', #242, #229 ) ;
#124 = CARTESIAN_POINT ( 'NONE',  ( 0.000000000000000000, 0.000000000000000000, 0.000000000000000000 ) ) ;
#125 =( NAMED_UNIT ( * ) SI_UNIT ( $, .STERADIAN. ) SOLID_ANGLE_UNIT ( ) );
#126 = DIRECTION ( 'NONE',  ( 1.224646799147353207E-16, 0.000000000000000000, -1.000000000000000000 ) ) ;
#127 = EDGE_LOOP ( 'NONE', ( #145, #9, #195, #32 ) ) ;
#128 = AXIS2_PLACEMENT_3D ( 'NONE', #167, #64, #205 ) ;
#129 = CARTESIAN_POINT ( 'NONE',  ( 0.000000000000000000, 0.1499999999999999667, -2.000000000000000000 ) ) ;
#130 = VERTEX_POINT ( 'NONE', #181 ) ;
#131 = ORIENTED_EDGE ( 'NONE', *, *, #169, .F. ) ;
#132 = EDGE_CURVE ( 'NONE', #130, #85, #75, .T. ) ;
#133 = CIRCLE ( 'NONE', #84, 0.1499999999999999667 ) ;
#134 =( NAMED_UNIT ( * ) SI_UNIT ( $, .STERADIAN. ) SOLID_ANGLE_UNIT ( ) );
#135 = EDGE_CURVE ( 'NONE', #85, #46, #55, .T. ) ;
#136 = CARTESIAN_POINT ( 'NONE',  ( 0.000000000000000000, 0.000000000000000000, 0.000000000000000000 ) ) ;
#137 = AXIS2_PLACEMENT_3D ( 'NONE', #241, #149, #171 ) ;
#138 = EDGE_CURVE ( 'NONE', #115, #212, #190, .T. ) ;
#139 = SURFACE_SIDE_STYLE ('',( #60 ) ) ;
#140 = AXIS2_PLACEMENT_3D ( 'NONE', #141, #204, #62 ) ;
#141 = CARTESIAN_POINT ( 'NONE',  ( 0.000000000000000000, 1.850000000000000089, 0.000000000000000000 ) ) ;
#142 = EDGE_CURVE ( 'NONE', #115, #85, #220, .T. ) ;
#143 =( LENGTH_UNIT ( ) NAMED_UNIT ( * ) SI_UNIT ( .MILLI., .METRE. ) );
#144 = DIRECTION ( 'NONE',  ( 0.000000000000000000, 0.000000000000000000, 1.000000000000000000 ) ) ;
#145 = ORIENTED_EDGE ( 'NONE', *, *, #231, .T. ) ;
#146 = CARTESIAN_POINT ( 'NONE',  ( 0.000000000000000000, 0.1499999999999999667, 0.000000000000000000 ) ) ;
#147 = DIRECTION ( 'NONE',  ( -0.000000000000000000, -1.000000000000000000, -0.000000000000000000 ) ) ;
#148 = PRODUCT_DEFINITION ( 'General', '', #105, #87 ) ;
#149 = DIRECTION ( 'NONE',  ( -0.000000000000000000, -1.000000000000000000, -0.000000000000000000 ) ) ;
#150 = DIRECTION ( 'NONE',  ( 1.000000000000000000, -0.000000000000000000, 1.224646799147353207E-16 ) ) ;
#151 = CARTESIAN_POINT ( 'NONE',  ( 0.000000000000000000, 1.850000000000000089, 0.000000000000000000 ) ) ;
#152 = EDGE_LOOP ( 'NONE', ( #201, #154 ) ) ;
#153 = CIRCLE ( 'NONE', #52, 0.1499999999999999667 ) ;
#154 = ORIENTED_EDGE ( 'NONE', *, *, #61, .T. ) ;
#155 = MANIFOLD_SOLID_BREP ( 'Fillet1', #35 ) ;
#156 = AXIS2_PLACEMENT_3D ( 'NONE', #124, #184, #200 ) ;
#157 = APPLICATION_PROTOCOL_DEFINITION ( 'draft international standard', 'automotive_design', 1998, #53 ) ;
#158 = EDGE_CURVE ( 'NONE', #115, #23, #36, .T. ) ;
#159 = FILL_AREA_STYLE ('',( #235 ) ) ;
#160 = COLOUR_RGB ( '',0.6509803921568627638, 0.6196078431372549211, 0.5882352941176470784 ) ;
#161 = CARTESIAN_POINT ( 'NONE',  ( 0.000000000000000000, 1.850000000000000089, 0.000000000000000000 ) ) ;
#162 = FACE_OUTER_BOUND ( 'NONE', #50, .T. ) ;
#163 = DIRECTION ( 'NONE',  ( 0.000000000000000000, 1.000000000000000000, 0.000000000000000000 ) ) ;
#164 = AXIS2_PLACEMENT_3D ( 'NONE', #236, #118, #71 ) ;
#165 = PRESENTATION_STYLE_ASSIGNMENT (( #76 ) ) ;
#166 = APPLICATION_CONTEXT ( 'automotive_design' ) ;
#167 = CARTESIAN_POINT ( 'NONE',  ( 0.000000000000000000, 2.000000000000000000, 0.000000000000000000 ) ) ;
#168 = DIRECTION ( 'NONE',  ( 0.000000000000000000, 1.000000000000000000, 0.000000000000000000 ) ) ;
#169 = EDGE_CURVE ( 'NONE', #23, #186, #183, .T. ) ;
#170 = TOROIDAL_SURFACE ( 'NONE', #91, 1.850000000000000089, 0.1499999999999999944 ) ;
#171 = DIRECTION ( 'NONE',  ( 0.000000000000000000, 0.000000000000000000, 1.000000000000000000 ) ) ;
#172 = ORIENTED_EDGE ( 'NONE', *, *, #88, .T. ) ;
#173 = EDGE_LOOP ( 'NONE', ( #98, #172, #67, #54 ) ) ;
#174 = SURFACE_SIDE_STYLE ('',( #7 ) ) ;
#175 = ADVANCED_BREP_SHAPE_REPRESENTATION ( 'Magnet-round-4x2', ( #155, #112 ), #234 ) ;
#176 = EDGE_LOOP ( 'NONE', ( #101, #48, #214, #203 ) ) ;
#177 = CARTESIAN_POINT ( 'NONE',  ( 0.000000000000000000, 0.000000000000000000, 0.000000000000000000 ) ) ;
#178 = FACE_OUTER_BOUND ( 'NONE', #152, .T. ) ;
#179 = ADVANCED_FACE ( 'NONE', ( #238 ), #103, .T. ) ;
#180 = TOROIDAL_SURFACE ( 'NONE', #30, 1.850000000000000089, 0.1499999999999999944 ) ;
#181 = CARTESIAN_POINT ( 'NONE',  ( 0.000000000000000000, 0.000000000000000000, 1.850000000000000089 ) ) ;
#182 = EDGE_CURVE ( 'NONE', #130, #191, #94, .T. ) ;
#183 = CIRCLE ( 'NONE', #66, 1.850000000000000089 ) ;
#184 = DIRECTION ( 'NONE',  ( -0.000000000000000000, -1.000000000000000000, -0.000000000000000000 ) ) ;
#185 = CARTESIAN_POINT ( 'NONE',  ( 0.000000000000000000, 2.000000000000000000, 0.000000000000000000 ) ) ;
#186 = VERTEX_POINT ( 'NONE', #93 ) ;
#187 = CARTESIAN_POINT ( 'NONE',  ( 0.000000000000000000, 2.000000000000000000, 0.000000000000000000 ) ) ;
#188 = CARTESIAN_POINT ( 'NONE',  ( 2.449293598294706414E-16, 0.1499999999999999667, 2.000000000000000000 ) ) ;
#189 = ORIENTED_EDGE ( 'NONE', *, *, #158, .T. ) ;
#190 = CIRCLE ( 'NONE', #70, 2.000000000000000000 ) ;
#191 = VERTEX_POINT ( 'NONE', #80 ) ;
#192 = EDGE_CURVE ( 'NONE', #46, #85, #223, .T. ) ;
#193 = STYLED_ITEM ( 'NONE', ( #120 ), #155 ) ;
#194 = FACE_OUTER_BOUND ( 'NONE', #127, .T. ) ;
#195 = ORIENTED_EDGE ( 'NONE', *, *, #135, .T. ) ;
#196 = PRESENTATION_LAYER_ASSIGNMENT (  '', '', ( #193 ) ) ;
#197 = DIRECTION ( 'NONE',  ( -0.000000000000000000, -1.000000000000000000, -0.000000000000000000 ) ) ;
#198 = CARTESIAN_POINT ( 'NONE',  ( 2.449293598294706414E-16, 1.850000000000000089, 2.000000000000000000 ) ) ;
#199 = AXIS2_PLACEMENT_3D ( 'NONE', #218, #92, #114 ) ;
#200 = DIRECTION ( 'NONE',  ( 0.000000000000000000, 0.000000000000000000, 1.000000000000000000 ) ) ;
#201 = ORIENTED_EDGE ( 'NONE', *, *, #169, .T. ) ;
#202 =( NAMED_UNIT ( * ) SI_UNIT ( $, .STERADIAN. ) SOLID_ANGLE_UNIT ( ) );
#203 = ORIENTED_EDGE ( 'NONE', *, *, #192, .F. ) ;
#204 = DIRECTION ( 'NONE',  ( -0.000000000000000000, -1.000000000000000000, -0.000000000000000000 ) ) ;
#205 = DIRECTION ( 'NONE',  ( 0.000000000000000000, 0.000000000000000000, 1.000000000000000000 ) ) ;
#206 = SHAPE_DEFINITION_REPRESENTATION ( #14, #175 ) ;
#207 = FACE_OUTER_BOUND ( 'NONE', #210, .T. ) ;
#208 = PRODUCT ( 'Magnet-round-4x2', 'Magnet-round-4x2', '', ( #16 ) ) ;
#209 = EDGE_LOOP ( 'NONE', ( #26, #79, #189, #109 ) ) ;
#210 = EDGE_LOOP ( 'NONE', ( #107, #25, #74, #243 ) ) ;
#211 = COLOUR_RGB ( '',0.6509803921568627638, 0.6196078431372549211, 0.5882352941176470784 ) ;
#212 = VERTEX_POINT ( 'NONE', #83 ) ;
#213 = DIRECTION ( 'NONE',  ( 1.224646799147353207E-16, 0.000000000000000000, -1.000000000000000000 ) ) ;
#214 = ORIENTED_EDGE ( 'NONE', *, *, #132, .T. ) ;
#215 = DIRECTION ( 'NONE',  ( 0.000000000000000000, 0.000000000000000000, -1.000000000000000000 ) ) ;
#216 = AXIS2_PLACEMENT_3D ( 'NONE', #146, #121, #95 ) ;
#217 = DIRECTION ( 'NONE',  ( -0.000000000000000000, -1.000000000000000000, -0.000000000000000000 ) ) ;
#218 = CARTESIAN_POINT ( 'NONE',  ( 0.000000000000000000, 2.000000000000000000, 0.000000000000000000 ) ) ;
#219 = TOROIDAL_SURFACE ( 'NONE', #65, 1.850000000000000089, 0.1499999999999999944 ) ;
#220 = LINE ( 'NONE', #69, #24 ) ;
#221 = CARTESIAN_POINT ( 'NONE',  ( 0.000000000000000000, 1.850000000000000089, 0.000000000000000000 ) ) ;
#222 = ORIENTED_EDGE ( 'NONE', *, *, #182, .T. ) ;
#223 = CIRCLE ( 'NONE', #40, 2.000000000000000000 ) ;
#224 = EDGE_CURVE ( 'NONE', #191, #130, #1, .T. ) ;
#225 = PRESENTATION_LAYER_ASSIGNMENT (  '', '', ( #90 ) ) ;
#226 = DIRECTION ( 'NONE',  ( 0.000000000000000000, 0.000000000000000000, -1.000000000000000000 ) ) ;
#227 = FILL_AREA_STYLE_COLOUR ( '', #160 ) ;
#228 = CARTESIAN_POINT ( 'NONE',  ( 2.265596578422603100E-16, 1.850000000000000089, -1.850000000000000089 ) ) ;
#229 = VECTOR ( 'NONE', #147, 1000.000000000000000 ) ;
#230 = SURFACE_STYLE_USAGE ( .BOTH. , #139 ) ;
#231 = EDGE_CURVE ( 'NONE', #212, #115, #58, .T. ) ;
#232 = DIRECTION ( 'NONE',  ( 1.000000000000000000, 0.000000000000000000, 0.000000000000000000 ) ) ;
#233 = DIRECTION ( 'NONE',  ( 0.000000000000000000, -0.000000000000000000, 1.000000000000000000 ) ) ;
#234 =( GEOMETRIC_REPRESENTATION_CONTEXT ( 3 ) GLOBAL_UNCERTAINTY_ASSIGNED_CONTEXT ( ( #99 ) ) GLOBAL_UNIT_ASSIGNED_CONTEXT ( ( #42, #12, #202 ) ) REPRESENTATION_CONTEXT ( 'NONE', 'WORKASPACE' ) );
#235 = FILL_AREA_STYLE_COLOUR ( '', #211 ) ;
#236 = CARTESIAN_POINT ( 'NONE',  ( 0.000000000000000000, 0.1499999999999999667, 1.850000000000000089 ) ) ;
#237 = ORIENTED_EDGE ( 'NONE', *, *, #158, .F. ) ;
#238 = FACE_OUTER_BOUND ( 'NONE', #173, .T. ) ;
#239 = CIRCLE ( 'NONE', #128, 1.850000000000000089 ) ;
#240 =( GEOMETRIC_REPRESENTATION_CONTEXT ( 3 ) GLOBAL_UNCERTAINTY_ASSIGNED_CONTEXT ( ( #47 ) ) GLOBAL_UNIT_ASSIGNED_CONTEXT ( ( #77, #108, #134 ) ) REPRESENTATION_CONTEXT ( 'NONE', 'WORKASPACE' ) );
#241 = CARTESIAN_POINT ( 'NONE',  ( 0.000000000000000000, 0.000000000000000000, 0.000000000000000000 ) ) ;
#242 = CARTESIAN_POINT ( 'NONE',  ( 0.000000000000000000, 2.000000000000000000, -2.000000000000000000 ) ) ;
#243 = ORIENTED_EDGE ( 'NONE', *, *, #192, .T. ) ;
#244 = AXIS2_PLACEMENT_3D ( 'NONE', #6, #44, #22 ) ;
ENDSEC;
END-ISO-10303-21;
