ISO-10303-21;
HEADER;
FILE_DESCRIPTION (( 'STEP AP214' ),
    '1' );
FILE_NAME ('MT6835 Magnetic Encoder B.step.STEP',
    '2026-01-08T13:34:34',
    ( '' ),
    ( '' ),
    'SwSTEP 2.0',
    'SolidWorks 2025',
    '' );
FILE_SCHEMA (( 'AUTOMOTIVE_DESIGN' ));
ENDSEC;

DATA;
#1 = DOCUMENT_TYPE ( 'geometry' ) ;
#2 = PRODUCT_RELATED_PRODUCT_CATEGORY ( 'part', '', ( #419 ) ) ;
#3 = PRODUCT_DEFINITION_CONTEXT ( 'detailed design', #24, 'design' ) ;
#4 = PRODUCT_DEFINITION_SHAPE ( 'NONE', 'NONE',  #665 ) ;
#5 = DOCUMENT_FILE ( 'Body018.step.STEP' , '', '', #157, '' ,$ ) ;
#6 = PRODUCT_DEFINITION_SHAPE ( 'NONE', 'NONE',  #642 ) ;
#7 =( GEOMETRIC_REPRESENTATION_CONTEXT ( 3 ) GLOBAL_UNCERTAINTY_ASSIGNED_CONTEXT ( ( #623 ) ) GLOBAL_UNIT_ASSIGNED_CONTEXT ( ( #577, #317, #106 ) ) REPRESENTATION_CONTEXT ( 'NONE', 'WORKASPACE' ) );
#8 = PRODUCT_DEFINITION_FORMATION_WITH_SPECIFIED_SOURCE ( 'Symmetric', '', #307, .NOT_KNOWN. ) ;
#9 = SHAPE_REPRESENTATION ( 'Array.step', ( #29 ), #146 ) ;
#10 = PRODUCT_DEFINITION_CONTEXT ( 'detailed design', #311, 'design' ) ;
#11 = PROPERTY_DEFINITION_REPRESENTATION ( #174, #472 ) ;
#12 = PRODUCT_DEFINITION_SHAPE ( 'NONE', 'NONE',  #658 ) ;
#13 = CARTESIAN_POINT ( 'NONE',  ( -1.200000000000978062, 0.000000000000000000, -0.7999999999999118927 ) ) ;
#14 = ITEM_DEFINED_TRANSFORMATION ( 'NONE', 'NONE', #392,  #546 ) ;
#15 =( NAMED_UNIT ( * ) SI_UNIT ( $, .STERADIAN. ) SOLID_ANGLE_UNIT ( ) );
#16 = APPLIED_DOCUMENT_REFERENCE ( #278,'',( #37) ) ;
#17 = APPLICATION_CONTEXT ( 'automotive_design' ) ;
#18 = AXIS2_PLACEMENT_3D ( 'NONE', #354, #610, #293 ) ;
#19 = PRODUCT_DEFINITION ( 'General', '', #93, #50 ) ;
#20 = DOCUMENT_FILE ( 'Body004.step.STEP' , '', '', #432, '' ,$ ) ;
#21 = PRODUCT_DEFINITION_SHAPE ( 'NONE', 'NONE',  #454 ) ;
#22 = CARTESIAN_POINT ( 'NONE',  ( -3.249999999999975131, 5.800000000000027356, 0.6999999999999229061 ) ) ;
#23 = EXTERNAL_SOURCE (IDENTIFIER('') ) ;
#24 = APPLICATION_CONTEXT ( 'automotive_design' ) ;
#25 = CONTEXT_DEPENDENT_SHAPE_REPRESENTATION ( #603, #4 ) ;
#26 = PRODUCT_DEFINITION_SHAPE ( 'NONE', 'NONE',  #327 ) ;
#27 = EXTERNAL_SOURCE (IDENTIFIER('') ) ;
#28 = PRODUCT_DEFINITION_FORMATION_WITH_SPECIFIED_SOURCE ( 'Symmetric', '', #197, .NOT_KNOWN. ) ;
#29 = AXIS2_PLACEMENT_3D ( 'NONE', #512, #309, #519 ) ;
#30 = PRODUCT_CONTEXT ( 'NONE', #260, 'mechanical' ) ;
#31 = ROLE_ASSOCIATION ( #217, #178 ) ;
#32 = EXTERNAL_SOURCE (IDENTIFIER('') ) ;
#33 = PRODUCT_CONTEXT ( 'NONE', #558, 'mechanical' ) ;
#34 = OBJECT_ROLE ('mandatory',$ ) ;
#35 =( NAMED_UNIT ( * ) SI_UNIT ( $, .STERADIAN. ) SOLID_ANGLE_UNIT ( ) );
#36 = APPLICATION_PROTOCOL_DEFINITION ( 'draft international standard', 'automotive_design', 1998, #333 ) ;
#37 = PRODUCT_DEFINITION ( 'General', '', #331, #413 ) ;
#38 =( LENGTH_UNIT ( ) NAMED_UNIT ( * ) SI_UNIT ( .MILLI., .METRE. ) );
#39 = CARTESIAN_POINT ( 'NONE',  ( 0.000000000000000000, 0.000000000000000000, 0.000000000000000000 ) ) ;
#40 =( GEOMETRIC_REPRESENTATION_CONTEXT ( 3 ) GLOBAL_UNCERTAINTY_ASSIGNED_CONTEXT ( ( #269 ) ) GLOBAL_UNIT_ASSIGNED_CONTEXT ( ( #421, #367, #230 ) ) REPRESENTATION_CONTEXT ( 'NONE', 'WORKASPACE' ) );
#41 = PRODUCT_DEFINITION_SHAPE ( 'NONE', 'NONE',  #464 ) ;
#42 = ITEM_DEFINED_TRANSFORMATION ( 'NONE', 'NONE', #208,  #104 ) ;
#43 = DOCUMENT_FILE ( 'Body019.step.STEP' , '', '', #96, '' ,$ ) ;
#44 = DIRECTION ( 'NONE',  ( -4.930380657631323784E-32, -1.040957192136566911E-31, 1.000000000000000000 ) ) ;
#45 = UNCERTAINTY_MEASURE_WITH_UNIT (LENGTH_MEASURE( 1.000000000000000082E-05 ), #123, 'distance_accuracy_value', 'NONE');
#46 = OBJECT_ROLE ('mandatory',$ ) ;
#47 = IDENTIFICATION_ROLE ( 'external document id and location', $) ;
#48 = DIRECTION ( 'NONE',  ( 0.000000000000000000, 0.000000000000000000, 1.000000000000000000 ) ) ;
#49 = IDENTIFICATION_ROLE ( 'external document id and location', $) ;
#50 = PRODUCT_DEFINITION_CONTEXT ( 'detailed design', #59, 'design' ) ;
#51 = PROPERTY_DEFINITION ('document property','', #235 ) ;
#52 =( REPRESENTATION_RELATIONSHIP ('NONE','NONE', #585, #553 ) REPRESENTATION_RELATIONSHIP_WITH_TRANSFORMATION ( #42 )SHAPE_REPRESENTATION_RELATIONSHIP( ) );
#53 = PRODUCT_DEFINITION_SHAPE ( 'NONE', 'NONE',  #60 ) ;
#54 = DOCUMENT_TYPE ( 'geometry' ) ;
#55 = UNCERTAINTY_MEASURE_WITH_UNIT (LENGTH_MEASURE( 1.000000000000000082E-05 ), #38, 'distance_accuracy_value', 'NONE');
#56 = DOCUMENT_FILE ( '0603 Capacitor001.step.STEP' , '', '', #463, '' ,$ ) ;
#57 =( NAMED_UNIT ( * ) SI_UNIT ( $, .STERADIAN. ) SOLID_ANGLE_UNIT ( ) );
#58 = IDENTIFICATION_ROLE ( 'external document id and location', $) ;
#59 = APPLICATION_CONTEXT ( 'automotive_design' ) ;
#60 = PRODUCT_DEFINITION ( 'General', '', #446, #213 ) ;
#61 = ROLE_ASSOCIATION ( #496, #270 ) ;
#62 =( GEOMETRIC_REPRESENTATION_CONTEXT ( 3 ) GLOBAL_UNCERTAINTY_ASSIGNED_CONTEXT ( ( #209 ) ) GLOBAL_UNIT_ASSIGNED_CONTEXT ( ( #468, #201, #57 ) ) REPRESENTATION_CONTEXT ( 'NONE', 'WORKASPACE' ) );
#63 = DOCUMENT_TYPE ( 'geometry' ) ;
#64 = UNCERTAINTY_MEASURE_WITH_UNIT (LENGTH_MEASURE( 1.000000000000000082E-05 ), #242, 'distance_accuracy_value', 'NONE');
#65 = PROPERTY_DEFINITION ('external definition','', #235 ) ;
#66 = PRODUCT_DEFINITION_CONTEXT ( 'detailed design', #344, 'design' ) ;
#67 = APPLIED_DOCUMENT_REFERENCE ( #114,'',( #304) ) ;
#68 =( REPRESENTATION_RELATIONSHIP ('NONE','NONE', #585, #98 ) REPRESENTATION_RELATIONSHIP_WITH_TRANSFORMATION ( #165 )SHAPE_REPRESENTATION_RELATIONSHIP( ) );
#69 = ITEM_DEFINED_TRANSFORMATION ( 'NONE', 'NONE', #593,  #115 ) ;
#70 = PROPERTY_DEFINITION ('external definition','', #20 ) ;
#71 = DIRECTION ( 'NONE',  ( -4.930380657631323784E-32, -1.040957192136566911E-31, 1.000000000000000000 ) ) ;
#72 =( GEOMETRIC_REPRESENTATION_CONTEXT ( 3 ) GLOBAL_UNCERTAINTY_ASSIGNED_CONTEXT ( ( #97 ) ) GLOBAL_UNIT_ASSIGNED_CONTEXT ( ( #199, #185, #599 ) ) REPRESENTATION_CONTEXT ( 'NONE', 'WORKASPACE' ) );
#73 = PRODUCT_DEFINITION_FORMATION_WITH_SPECIFIED_SOURCE ( 'Symmetric', '', #267, .NOT_KNOWN. ) ;
#74 = PRODUCT_DEFINITION_SHAPE ( 'NONE', 'NONE',  #663 ) ;
#75 = DOCUMENT_FILE ( 'Body003.step.STEP' , '', '', #1, '' ,$ ) ;
#76 = SHAPE_REPRESENTATION ( 'Body019.step', ( #362 ), #382 ) ;
#77 = APPLICATION_PROTOCOL_DEFINITION ( 'draft international standard', 'automotive_design', 1998, #494 ) ;
#78 = PRODUCT_RELATED_PRODUCT_CATEGORY ( 'part', '', ( #251 ) ) ;
#79 = PRODUCT_CONTEXT ( 'NONE', #443, 'mechanical' ) ;
#80 =( REPRESENTATION_RELATIONSHIP ('NONE','NONE', #585, #76 ) REPRESENTATION_RELATIONSHIP_WITH_TRANSFORMATION ( #171 )SHAPE_REPRESENTATION_RELATIONSHIP( ) );
#81 = PROPERTY_DEFINITION_REPRESENTATION ( #51, #492 ) ;
#82 = PRODUCT ( 'Body018.step', 'Body018.step', '', ( #358 ) ) ;
#83 = PRODUCT_CONTEXT ( 'NONE', #308, 'mechanical' ) ;
#84 = SHAPE_DEFINITION_REPRESENTATION ( #573, #472 ) ;
#85 =( NAMED_UNIT ( * ) PLANE_ANGLE_UNIT ( ) SI_UNIT ( $, .RADIAN. ) );
#86 = PRODUCT_DEFINITION_SHAPE ( 'NONE', 'NONE',  #396 ) ;
#87 = PROPERTY_DEFINITION ('external definition','', #641 ) ;
#88 = PRODUCT_CONTEXT ( 'NONE', #471, 'mechanical' ) ;
#89 = DIRECTION ( 'NONE',  ( -2.220446049250314067E-16, -1.000000000000000000, 1.040957192136566911E-31 ) ) ;
#90 = APPLICATION_CONTEXT ( 'automotive_design' ) ;
#91 = DIRECTION ( 'NONE',  ( 0.000000000000000000, 0.000000000000000000, 1.000000000000000000 ) ) ;
#92 =( NAMED_UNIT ( * ) PLANE_ANGLE_UNIT ( ) SI_UNIT ( $, .RADIAN. ) );
#93 = PRODUCT_DEFINITION_FORMATION_WITH_SPECIFIED_SOURCE ( 'Symmetric', '', #140, .NOT_KNOWN. ) ;
#94 = PRODUCT_DEFINITION_SHAPE ( 'NONE', 'NONE',  #490 ) ;
#95 = PROPERTY_DEFINITION_REPRESENTATION ( #607, #553 ) ;
#96 = DOCUMENT_TYPE ( 'geometry' ) ;
#97 = UNCERTAINTY_MEASURE_WITH_UNIT (LENGTH_MEASURE( 1.000000000000000082E-05 ), #199, 'distance_accuracy_value', 'NONE');
#98 = SHAPE_REPRESENTATION ( 'TSSOP16.step', ( #493 ), #62 ) ;
#99 = IDENTIFICATION_ROLE ( 'external document id and location', $) ;
#100 = PRODUCT_RELATED_PRODUCT_CATEGORY ( 'part', '', ( #363 ) ) ;
#101 = DOCUMENT_TYPE ( 'geometry' ) ;
#102 = DIRECTION ( 'NONE',  ( 1.000000000000000000, 2.220446049250314067E-16, -4.930380657631323784E-32 ) ) ;
#103 = UNCERTAINTY_MEASURE_WITH_UNIT (LENGTH_MEASURE( 1.000000000000000082E-05 ), #458, 'distance_accuracy_value', 'NONE');
#104 = AXIS2_PLACEMENT_3D ( 'NONE', #151, #258, #294 ) ;
#105 =( REPRESENTATION_RELATIONSHIP ('NONE','NONE', #585, #215 ) REPRESENTATION_RELATIONSHIP_WITH_TRANSFORMATION ( #488 )SHAPE_REPRESENTATION_RELATIONSHIP( ) );
#106 =( NAMED_UNIT ( * ) SI_UNIT ( $, .STERADIAN. ) SOLID_ANGLE_UNIT ( ) );
#107 = PRODUCT_DEFINITION_FORMATION_WITH_SPECIFIED_SOURCE ( 'Symmetric', '', #82, .NOT_KNOWN. ) ;
#108 = PRODUCT ( 'Body020.step', 'Body020.step', '', ( #83 ) ) ;
#109 = ITEM_DEFINED_TRANSFORMATION ( 'NONE', 'NONE', #219,  #637 ) ;
#110 = APPLICATION_CONTEXT ( 'automotive_design' ) ;
#111 = DIRECTION ( 'NONE',  ( 1.000000000000000000, 0.000000000000000000, 0.000000000000000000 ) ) ;
#112 = EXTERNAL_SOURCE (IDENTIFIER('') ) ;
#113 = PRODUCT_DEFINITION_CONTEXT ( 'detailed design', #17, 'design' ) ;
#114 = DOCUMENT_FILE ( 'Array002.step.STEP' , '', '', #101, '' ,$ ) ;
#115 = AXIS2_PLACEMENT_3D ( 'NONE', #137, #253, #461 ) ;
#116 = DIRECTION ( 'NONE',  ( 1.000000000000000000, 2.220446049250314067E-16, -4.930380657631323784E-32 ) ) ;
#117 = EXTERNAL_SOURCE (IDENTIFIER('') ) ;
#118 = CONTEXT_DEPENDENT_SHAPE_REPRESENTATION ( #203, #424 ) ;
#119 = SHAPE_REPRESENTATION ( 'Body017.step', ( #18 ), #134 ) ;
#120 =( REPRESENTATION_RELATIONSHIP ('NONE','NONE', #585, #472 ) REPRESENTATION_RELATIONSHIP_WITH_TRANSFORMATION ( #14 )SHAPE_REPRESENTATION_RELATIONSHIP( ) );
#121 = APPLICATION_CONTEXT ( 'automotive_design' ) ;
#122 = ROLE_ASSOCIATION ( #347, #588 ) ;
#123 =( LENGTH_UNIT ( ) NAMED_UNIT ( * ) SI_UNIT ( .MILLI., .METRE. ) );
#124 =( NAMED_UNIT ( * ) PLANE_ANGLE_UNIT ( ) SI_UNIT ( $, .RADIAN. ) );
#125 = AXIS2_PLACEMENT_3D ( 'NONE', #505, #583, #324 ) ;
#126 = DIRECTION ( 'NONE',  ( 4.930380657631323784E-32, 1.040957192136566911E-31, -1.000000000000000000 ) ) ;
#127 = PROPERTY_DEFINITION_REPRESENTATION ( #70, #215 ) ;
#128 = APPLICATION_PROTOCOL_DEFINITION ( 'draft international standard', 'automotive_design', 1998, #387 ) ;
#129 = DOCUMENT_FILE ( 'Body017.step.STEP' , '', '', #162, '' ,$ ) ;
#130 = APPLICATION_PROTOCOL_DEFINITION ( 'draft international standard', 'automotive_design', 1998, #154 ) ;
#131 = PROPERTY_DEFINITION_REPRESENTATION ( #325, #166 ) ;
#132 = APPLICATION_PROTOCOL_DEFINITION ( 'draft international standard', 'automotive_design', 1998, #405 ) ;
#133 = CARTESIAN_POINT ( 'NONE',  ( 0.000000000000000000, 0.000000000000000000, -0.6999999999999229061 ) ) ;
#134 =( GEOMETRIC_REPRESENTATION_CONTEXT ( 3 ) GLOBAL_UNCERTAINTY_ASSIGNED_CONTEXT ( ( #373 ) ) GLOBAL_UNIT_ASSIGNED_CONTEXT ( ( #289, #500, #35 ) ) REPRESENTATION_CONTEXT ( 'NONE', 'WORKASPACE' ) );
#135 = APPLIED_EXTERNAL_IDENTIFICATION_ASSIGNMENT ( '0603 Resistor.step.STEP' , #155, #313,( #501) ) ;
#136 = SHAPE_DEFINITION_REPRESENTATION ( #156, #98 ) ;
#137 = CARTESIAN_POINT ( 'NONE',  ( 0.000000000000000000, 0.000000000000000000, 0.000000000000000000 ) ) ;
#138 = EXTERNAL_SOURCE (IDENTIFIER('') ) ;
#139 = APPLICATION_PROTOCOL_DEFINITION ( 'draft international standard', 'automotive_design', 1998, #344 ) ;
#140 = PRODUCT ( 'TSSOP16.step', 'TSSOP16.step', '', ( #608 ) ) ;
#141 =( LENGTH_UNIT ( ) NAMED_UNIT ( * ) SI_UNIT ( .MILLI., .METRE. ) );
#142 = PRODUCT_DEFINITION_CONTEXT ( 'detailed design', #239, 'design' ) ;
#143 = CONTEXT_DEPENDENT_SHAPE_REPRESENTATION ( #120, #12 ) ;
#144 = ROLE_ASSOCIATION ( #207, #525 ) ;
#145 = DIRECTION ( 'NONE',  ( 1.000000000000000000, 2.220446049250314067E-16, -4.930380657631323784E-32 ) ) ;
#146 =( GEOMETRIC_REPRESENTATION_CONTEXT ( 3 ) GLOBAL_UNCERTAINTY_ASSIGNED_CONTEXT ( ( #45 ) ) GLOBAL_UNIT_ASSIGNED_CONTEXT ( ( #123, #522, #211 ) ) REPRESENTATION_CONTEXT ( 'NONE', 'WORKASPACE' ) );
#147 = CARTESIAN_POINT ( 'NONE',  ( 0.000000000000000000, 0.000000000000000000, 0.000000000000000000 ) ) ;
#148 = SHAPE_DEFINITION_REPRESENTATION ( #86, #553 ) ;
#149 = CARTESIAN_POINT ( 'NONE',  ( 0.000000000000000000, 0.000000000000000000, 0.000000000000000000 ) ) ;
#150 = PRODUCT ( 'Body019.step', 'Body019.step', '', ( #562 ) ) ;
#151 = CARTESIAN_POINT ( 'NONE',  ( 0.000000000000000000, 0.000000000000000000, 0.000000000000000000 ) ) ;
#152 = SHAPE_REPRESENTATION ( 'Diode.step', ( #637 ), #187 ) ;
#153 = UNCERTAINTY_MEASURE_WITH_UNIT (LENGTH_MEASURE( 1.000000000000000082E-05 ), #359, 'distance_accuracy_value', 'NONE');
#154 = APPLICATION_CONTEXT ( 'automotive_design' ) ;
#155 = IDENTIFICATION_ROLE ( 'external document id and location', $) ;
#156 = PRODUCT_DEFINITION_SHAPE ( 'NONE', 'NONE',  #19 ) ;
#157 = DOCUMENT_TYPE ( 'geometry' ) ;
#158 = DIRECTION ( 'NONE',  ( 1.000000000000000000, 0.000000000000000000, 0.000000000000000000 ) ) ;
#159 =( GEOMETRIC_REPRESENTATION_CONTEXT ( 3 ) GLOBAL_UNCERTAINTY_ASSIGNED_CONTEXT ( ( #275 ) ) GLOBAL_UNIT_ASSIGNED_CONTEXT ( ( #164, #473, #180 ) ) REPRESENTATION_CONTEXT ( 'NONE', 'WORKASPACE' ) );
#160 = CONTEXT_DEPENDENT_SHAPE_REPRESENTATION ( #634, #272 ) ;
#161 = DIRECTION ( 'NONE',  ( 0.000000000000000000, 0.000000000000000000, 1.000000000000000000 ) ) ;
#162 = DOCUMENT_TYPE ( 'geometry' ) ;
#163 = APPLIED_DOCUMENT_REFERENCE ( #520,'',( #60) ) ;
#164 =( LENGTH_UNIT ( ) NAMED_UNIT ( * ) SI_UNIT ( .MILLI., .METRE. ) );
#165 = ITEM_DEFINED_TRANSFORMATION ( 'NONE', 'NONE', #619,  #493 ) ;
#166 = SHAPE_REPRESENTATION ( '0603 Capacitor.step', ( #538 ), #531 ) ;
#167 = PRODUCT_DEFINITION_FORMATION_WITH_SPECIFIED_SOURCE ( 'Symmetric', '', #251, .NOT_KNOWN. ) ;
#168 = CARTESIAN_POINT ( 'NONE',  ( 0.000000000000000000, 0.000000000000000000, 0.7999999999999118927 ) ) ;
#169 = APPLIED_EXTERNAL_IDENTIFICATION_ASSIGNMENT ( 'Body.step.STEP' , #330, #193,( #332) ) ;
#170 = PRODUCT_DEFINITION ( 'General', '', #428, #462 ) ;
#171 = ITEM_DEFINED_TRANSFORMATION ( 'NONE', 'NONE', #402,  #362 ) ;
#172 = EXTERNAL_SOURCE (IDENTIFIER('') ) ;
#173 = ITEM_DEFINED_TRANSFORMATION ( 'NONE', 'NONE', #484,  #538 ) ;
#174 = PROPERTY_DEFINITION ('external definition','', #5 ) ;
#175 = IDENTIFICATION_ROLE ( 'external document id and location', $) ;
#176 = PRODUCT_DEFINITION ( 'General', '', #167, #306 ) ;
#177 = APPLIED_EXTERNAL_IDENTIFICATION_ASSIGNMENT ( 'Array001.step.STEP' , #236, #117,( #520) ) ;
#178 = APPLIED_DOCUMENT_REFERENCE ( #75,'',( #176) ) ;
#179 = SHAPE_DEFINITION_REPRESENTATION ( #6, #119 ) ;
#180 =( NAMED_UNIT ( * ) SI_UNIT ( $, .STERADIAN. ) SOLID_ANGLE_UNIT ( ) );
#181 = PROPERTY_DEFINITION_REPRESENTATION ( #205, #244 ) ;
#182 = APPLICATION_CONTEXT ( 'automotive_design' ) ;
#183 =( REPRESENTATION_RELATIONSHIP ('NONE','NONE', #585, #244 ) REPRESENTATION_RELATIONSHIP_WITH_TRANSFORMATION ( #594 )SHAPE_REPRESENTATION_RELATIONSHIP( ) );
#184 = PRODUCT_CONTEXT ( 'NONE', #288, 'mechanical' ) ;
#185 =( NAMED_UNIT ( * ) PLANE_ANGLE_UNIT ( ) SI_UNIT ( $, .RADIAN. ) );
#186 = APPLICATION_PROTOCOL_DEFINITION ( 'draft international standard', 'automotive_design', 1998, #24 ) ;
#187 =( GEOMETRIC_REPRESENTATION_CONTEXT ( 3 ) GLOBAL_UNCERTAINTY_ASSIGNED_CONTEXT ( ( #295 ) ) GLOBAL_UNIT_ASSIGNED_CONTEXT ( ( #316, #498, #210 ) ) REPRESENTATION_CONTEXT ( 'NONE', 'WORKASPACE' ) );
#188 =( NAMED_UNIT ( * ) SI_UNIT ( $, .STERADIAN. ) SOLID_ANGLE_UNIT ( ) );
#189 = APPLIED_EXTERNAL_IDENTIFICATION_ASSIGNMENT ( '0603 Capacitor001.step.STEP' , #423, #549,( #56) ) ;
#190 = PROPERTY_DEFINITION ('document property','', #332 ) ;
#191 = APPLICATION_PROTOCOL_DEFINITION ( 'draft international standard', 'automotive_design', 1998, #311 ) ;
#192 = SHAPE_REPRESENTATION ( 'Array001.step', ( #198 ), #7 ) ;
#193 = EXTERNAL_SOURCE (IDENTIFIER('') ) ;
#194 = OBJECT_ROLE ('mandatory',$ ) ;
#195 = APPLICATION_PROTOCOL_DEFINITION ( 'draft international standard', 'automotive_design', 1998, #443 ) ;
#196 = CARTESIAN_POINT ( 'NONE',  ( 0.000000000000000000, 0.000000000000000000, 0.000000000000000000 ) ) ;
#197 = PRODUCT ( 'Body017.step', 'Body017.step', '', ( #556 ) ) ;
#198 = AXIS2_PLACEMENT_3D ( 'NONE', #149, #365, #158 ) ;
#199 =( LENGTH_UNIT ( ) NAMED_UNIT ( * ) SI_UNIT ( .MILLI., .METRE. ) );
#200 = DIRECTION ( 'NONE',  ( 1.000000000000000000, 0.000000000000000000, 0.000000000000000000 ) ) ;
#201 =( NAMED_UNIT ( * ) PLANE_ANGLE_UNIT ( ) SI_UNIT ( $, .RADIAN. ) );
#202 = PROPERTY_DEFINITION ('document property','', #43 ) ;
#203 =( REPRESENTATION_RELATIONSHIP ('NONE','NONE', #585, #492 ) REPRESENTATION_RELATIONSHIP_WITH_TRANSFORMATION ( #286 )SHAPE_REPRESENTATION_RELATIONSHIP( ) );
#204 = PROPERTY_DEFINITION_REPRESENTATION ( #506, #590 ) ;
#205 = PROPERTY_DEFINITION ('external definition','', #501 ) ;
#206 =( REPRESENTATION_RELATIONSHIP ('NONE','NONE', #585, #9 ) REPRESENTATION_RELATIONSHIP_WITH_TRANSFORMATION ( #321 )SHAPE_REPRESENTATION_RELATIONSHIP( ) );
#207 = OBJECT_ROLE ('mandatory',$ ) ;
#208 = AXIS2_PLACEMENT_3D ( 'NONE', #567, #126, #89 ) ;
#209 = UNCERTAINTY_MEASURE_WITH_UNIT (LENGTH_MEASURE( 1.000000000000000082E-05 ), #468, 'distance_accuracy_value', 'NONE');
#210 =( NAMED_UNIT ( * ) SI_UNIT ( $, .STERADIAN. ) SOLID_ANGLE_UNIT ( ) );
#211 =( NAMED_UNIT ( * ) SI_UNIT ( $, .STERADIAN. ) SOLID_ANGLE_UNIT ( ) );
#212 = DIRECTION ( 'NONE',  ( -4.930380657631323784E-32, -1.040957192136566911E-31, 1.000000000000000000 ) ) ;
#213 = PRODUCT_DEFINITION_CONTEXT ( 'detailed design', #90, 'design' ) ;
#214 = APPLIED_DOCUMENT_REFERENCE ( #332,'',( #170) ) ;
#215 = SHAPE_REPRESENTATION ( 'Body004.step', ( #626 ), #514 ) ;
#216 = CARTESIAN_POINT ( 'NONE',  ( 0.000000000000000000, 0.000000000000000000, 0.000000000000000000 ) ) ;
#217 = OBJECT_ROLE ('mandatory',$ ) ;
#218 = ROLE_ASSOCIATION ( #274, #16 ) ;
#219 = AXIS2_PLACEMENT_3D ( 'NONE', #361, #572, #399 ) ;
#220 =( LENGTH_UNIT ( ) NAMED_UNIT ( * ) SI_UNIT ( .MILLI., .METRE. ) );
#221 = PROPERTY_DEFINITION ('document property','', #641 ) ;
#222 = DIRECTION ( 'NONE',  ( 0.000000000000000000, 0.000000000000000000, 1.000000000000000000 ) ) ;
#223 = ROLE_ASSOCIATION ( #530, #336 ) ;
#224 = PRODUCT ( '0603 Resistor.step', '0603 Resistor.step', '', ( #33 ) ) ;
#225 = DIRECTION ( 'NONE',  ( 1.000000000000000000, 2.220446049250314067E-16, -4.930380657631323784E-32 ) ) ;
#226 = CONTEXT_DEPENDENT_SHAPE_REPRESENTATION ( #246, #74 ) ;
#227 = PROPERTY_DEFINITION_REPRESENTATION ( #202, #76 ) ;
#228 = CARTESIAN_POINT ( 'NONE',  ( -3.249999999999975131, 5.800000000000027356, 0.6999999999999229061 ) ) ;
#229 = PRODUCT_DEFINITION_SHAPE ( 'NONE', 'NONE',  #653 ) ;
#230 =( NAMED_UNIT ( * ) SI_UNIT ( $, .STERADIAN. ) SOLID_ANGLE_UNIT ( ) );
#231 = APPLIED_DOCUMENT_REFERENCE ( #129,'',( #642) ) ;
#232 = SHAPE_DEFINITION_REPRESENTATION ( #41, #585 ) ;
#233 = AXIS2_PLACEMENT_3D ( 'NONE', #320, #529, #582 ) ;
#234 = SHAPE_REPRESENTATION ( 'Array002.step', ( #115 ), #159 ) ;
#235 = DOCUMENT_FILE ( 'Body020.step.STEP' , '', '', #621, '' ,$ ) ;
#236 = IDENTIFICATION_ROLE ( 'external document id and location', $) ;
#237 = APPLICATION_PROTOCOL_DEFINITION ( 'draft international standard', 'automotive_design', 1998, #59 ) ;
#238 = APPLICATION_PROTOCOL_DEFINITION ( 'draft international standard', 'automotive_design', 1998, #388 ) ;
#239 = APPLICATION_CONTEXT ( 'automotive_design' ) ;
#240 =( NAMED_UNIT ( * ) SI_UNIT ( $, .STERADIAN. ) SOLID_ANGLE_UNIT ( ) );
#241 = APPLICATION_PROTOCOL_DEFINITION ( 'draft international standard', 'automotive_design', 1998, #587 ) ;
#242 =( LENGTH_UNIT ( ) NAMED_UNIT ( * ) SI_UNIT ( .MILLI., .METRE. ) );
#243 = PRODUCT_RELATED_PRODUCT_CATEGORY ( 'part', '', ( #197 ) ) ;
#244 = SHAPE_REPRESENTATION ( '0603 Resistor.step', ( #617 ), #261 ) ;
#245 = PROPERTY_DEFINITION ('external definition','', #278 ) ;
#246 =( REPRESENTATION_RELATIONSHIP ('NONE','NONE', #585, #616 ) REPRESENTATION_RELATIONSHIP_WITH_TRANSFORMATION ( #548 )SHAPE_REPRESENTATION_RELATIONSHIP( ) );
#247 = APPLICATION_PROTOCOL_DEFINITION ( 'draft international standard', 'automotive_design', 1998, #121 ) ;
#248 = DIRECTION ( 'NONE',  ( 1.000000000000000000, 0.000000000000000000, 0.000000000000000000 ) ) ;
#249 = AXIS2_PLACEMENT_3D ( 'NONE', #196, #602, #415 ) ;
#250 = DIRECTION ( 'NONE',  ( 0.000000000000000000, 0.000000000000000000, 1.000000000000000000 ) ) ;
#251 = PRODUCT ( 'Body003.step', 'Body003.step', '', ( #252 ) ) ;
#252 = PRODUCT_CONTEXT ( 'NONE', #422, 'mechanical' ) ;
#253 = DIRECTION ( 'NONE',  ( 0.000000000000000000, 0.000000000000000000, 1.000000000000000000 ) ) ;
#254 = PRODUCT_RELATED_PRODUCT_CATEGORY ( 'part', '', ( #644 ) ) ;
#255 = IDENTIFICATION_ROLE ( 'external document id and location', $) ;
#256 = DOCUMENT_TYPE ( 'geometry' ) ;
#257 = OBJECT_ROLE ('mandatory',$ ) ;
#258 = DIRECTION ( 'NONE',  ( 0.000000000000000000, 0.000000000000000000, 1.000000000000000000 ) ) ;
#259 = PROPERTY_DEFINITION_REPRESENTATION ( #551, #76 ) ;
#260 = APPLICATION_CONTEXT ( 'automotive_design' ) ;
#261 =( GEOMETRIC_REPRESENTATION_CONTEXT ( 3 ) GLOBAL_UNCERTAINTY_ASSIGNED_CONTEXT ( ( #103 ) ) GLOBAL_UNIT_ASSIGNED_CONTEXT ( ( #458, #511, #240 ) ) REPRESENTATION_CONTEXT ( 'NONE', 'WORKASPACE' ) );
#262 = OBJECT_ROLE ('mandatory',$ ) ;
#263 = PRODUCT_DEFINITION_FORMATION_WITH_SPECIFIED_SOURCE ( 'Symmetric', '', #224, .NOT_KNOWN. ) ;
#264 = APPLIED_EXTERNAL_IDENTIFICATION_ASSIGNMENT ( 'Body020.step.STEP' , #503, #578,( #235) ) ;
#265 = PRODUCT_DEFINITION_SHAPE ( 'NONE', 'NONE',  #661 ) ;
#266 = CARTESIAN_POINT ( 'NONE',  ( 0.000000000000000000, 0.000000000000000000, 0.000000000000000000 ) ) ;
#267 = PRODUCT ( 'Body004.step', 'Body004.step', '', ( #355 ) ) ;
#268 = PRODUCT_DEFINITION ( 'General', '', #73, #142 ) ;
#269 = UNCERTAINTY_MEASURE_WITH_UNIT (LENGTH_MEASURE( 1.000000000000000082E-05 ), #421, 'distance_accuracy_value', 'NONE');
#270 = APPLIED_DOCUMENT_REFERENCE ( #56,'',( #396) ) ;
#271 =( REPRESENTATION_RELATIONSHIP ('NONE','NONE', #585, #192 ) REPRESENTATION_RELATIONSHIP_WITH_TRANSFORMATION ( #310 )SHAPE_REPRESENTATION_RELATIONSHIP( ) );
#272 = PRODUCT_DEFINITION_SHAPE ( 'NONE', 'NONE',  #655 ) ;
#273 = PROPERTY_DEFINITION_REPRESENTATION ( #564, #553 ) ;
#274 = OBJECT_ROLE ('mandatory',$ ) ;
#275 = UNCERTAINTY_MEASURE_WITH_UNIT (LENGTH_MEASURE( 1.000000000000000082E-05 ), #164, 'distance_accuracy_value', 'NONE');
#276 = PROPERTY_DEFINITION_REPRESENTATION ( #509, #234 ) ;
#277 = AXIS2_PLACEMENT_3D ( 'NONE', #584, #596, #442 ) ;
#278 = DOCUMENT_FILE ( 'Array.step.STEP' , '', '', #54, '' ,$ ) ;
#279 = APPLIED_DOCUMENT_REFERENCE ( #360,'',( #591) ) ;
#280 = CONTEXT_DEPENDENT_SHAPE_REPRESENTATION ( #80, #481 ) ;
#281 = DIRECTION ( 'NONE',  ( -4.930380657631323784E-32, -1.040957192136566911E-31, 1.000000000000000000 ) ) ;
#282 = APPLIED_EXTERNAL_IDENTIFICATION_ASSIGNMENT ( 'Body017.step.STEP' , #49, #391,( #129) ) ;
#283 = CONTEXT_DEPENDENT_SHAPE_REPRESENTATION ( #183, #370 ) ;
#284 = PRODUCT ( 'Array002.step', 'Array002.step', '', ( #184 ) ) ;
#285 = SHAPE_DEFINITION_REPRESENTATION ( #552, #590 ) ;
#286 = ITEM_DEFINED_TRANSFORMATION ( 'NONE', 'NONE', #652,  #125 ) ;
#287 = SHAPE_DEFINITION_REPRESENTATION ( #53, #192 ) ;
#288 = APPLICATION_CONTEXT ( 'automotive_design' ) ;
#289 =( LENGTH_UNIT ( ) NAMED_UNIT ( * ) SI_UNIT ( .MILLI., .METRE. ) );
#290 = ROLE_ASSOCIATION ( #569, #386 ) ;
#291 = PRODUCT_RELATED_PRODUCT_CATEGORY ( 'part', '', ( #284 ) ) ;
#292 = APPLICATION_PROTOCOL_DEFINITION ( 'draft international standard', 'automotive_design', 1998, #566 ) ;
#293 = DIRECTION ( 'NONE',  ( 1.000000000000000000, 0.000000000000000000, 0.000000000000000000 ) ) ;
#294 = DIRECTION ( 'NONE',  ( 1.000000000000000000, 0.000000000000000000, 0.000000000000000000 ) ) ;
#295 = UNCERTAINTY_MEASURE_WITH_UNIT (LENGTH_MEASURE( 1.000000000000000082E-05 ), #316, 'distance_accuracy_value', 'NONE');
#296 = PRODUCT_DEFINITION_SHAPE ( 'NONE', 'NONE',  #654 ) ;
#297 = PRODUCT_CONTEXT ( 'NONE', #154, 'mechanical' ) ;
#298 = DIRECTION ( 'NONE',  ( 1.000000000000000000, 0.000000000000000000, 0.000000000000000000 ) ) ;
#299 = PRODUCT_DEFINITION_SHAPE ( 'NONE', 'NONE',  #656 ) ;
#300 = APPLICATION_PROTOCOL_DEFINITION ( 'draft international standard', 'automotive_design', 1998, #17 ) ;
#301 =( GEOMETRIC_REPRESENTATION_CONTEXT ( 3 ) GLOBAL_UNCERTAINTY_ASSIGNED_CONTEXT ( ( #532 ) ) GLOBAL_UNIT_ASSIGNED_CONTEXT ( ( #574, #527, #15 ) ) REPRESENTATION_CONTEXT ( 'NONE', 'WORKASPACE' ) );
#302 = DIRECTION ( 'NONE',  ( -4.930380657631323784E-32, -1.040957192136566911E-31, 1.000000000000000000 ) ) ;
#303 = APPLIED_EXTERNAL_IDENTIFICATION_ASSIGNMENT ( 'Array.step.STEP' , #255, #32,( #278) ) ;
#304 = PRODUCT_DEFINITION ( 'General', '', #540, #380 ) ;
#305 = DIRECTION ( 'NONE',  ( 0.000000000000000000, 0.000000000000000000, 1.000000000000000000 ) ) ;
#306 = PRODUCT_DEFINITION_CONTEXT ( 'detailed design', #587, 'design' ) ;
#307 = PRODUCT ( 'MT6835 Magnetic Encoder B.step', 'MT6835 Magnetic Encoder B.step', '', ( #403 ) ) ;
#308 = APPLICATION_CONTEXT ( 'automotive_design' ) ;
#309 = DIRECTION ( 'NONE',  ( 0.000000000000000000, 0.000000000000000000, 1.000000000000000000 ) ) ;
#310 = ITEM_DEFINED_TRANSFORMATION ( 'NONE', 'NONE', #233,  #198 ) ;
#311 = APPLICATION_CONTEXT ( 'automotive_design' ) ;
#312 = DIRECTION ( 'NONE',  ( 1.000000000000000000, 0.000000000000000000, 0.000000000000000000 ) ) ;
#313 = EXTERNAL_SOURCE (IDENTIFIER('') ) ;
#314 = CARTESIAN_POINT ( 'NONE',  ( 0.000000000000000000, 0.000000000000000000, 0.000000000000000000 ) ) ;
#315 = PRODUCT_DEFINITION_SHAPE ( 'NONE', 'NONE',  #304 ) ;
#316 =( LENGTH_UNIT ( ) NAMED_UNIT ( * ) SI_UNIT ( .MILLI., .METRE. ) );
#317 =( NAMED_UNIT ( * ) PLANE_ANGLE_UNIT ( ) SI_UNIT ( $, .RADIAN. ) );
#318 = PROPERTY_DEFINITION ('document property','', #20 ) ;
#319 = APPLIED_EXTERNAL_IDENTIFICATION_ASSIGNMENT ( 'Diode.step.STEP' , #58, #23,( #360) ) ;
#320 = CARTESIAN_POINT ( 'NONE',  ( 0.000000000000000000, 0.000000000000000000, 0.000000000000000000 ) ) ;
#321 = ITEM_DEFINED_TRANSFORMATION ( 'NONE', 'NONE', #249,  #29 ) ;
#322 = APPLIED_DOCUMENT_REFERENCE ( #5,'',( #368) ) ;
#323 = DIRECTION ( 'NONE',  ( -2.220446049250314067E-16, -1.000000000000000000, 1.040957192136566911E-31 ) ) ;
#324 = DIRECTION ( 'NONE',  ( 1.000000000000000000, 0.000000000000000000, 0.000000000000000000 ) ) ;
#325 = PROPERTY_DEFINITION ('external definition','', #438 ) ;
#326 = PRODUCT_DEFINITION_CONTEXT ( 'detailed design', #416, 'design' ) ;
#327 = PRODUCT_DEFINITION ( 'General', '', #263, #113 ) ;
#328 = ROLE_ASSOCIATION ( #257, #67 ) ;
#329 = PRODUCT_DEFINITION_FORMATION_WITH_SPECIFIED_SOURCE ( 'Symmetric', '', #108, .NOT_KNOWN. ) ;
#330 = IDENTIFICATION_ROLE ( 'external document id and location', $) ;
#331 = PRODUCT_DEFINITION_FORMATION_WITH_SPECIFIED_SOURCE ( 'Symmetric', '', #419, .NOT_KNOWN. ) ;
#332 = DOCUMENT_FILE ( 'Body.step.STEP' , '', '', #256, '' ,$ ) ;
#333 = APPLICATION_CONTEXT ( 'automotive_design' ) ;
#334 = PROPERTY_DEFINITION ('document property','', #520 ) ;
#335 = PRODUCT_DEFINITION_SHAPE ( 'NONE', 'NONE',  #664 ) ;
#336 = APPLIED_DOCUMENT_REFERENCE ( #641,'',( #19) ) ;
#337 = PRODUCT ( '0603 Capacitor.step', '0603 Capacitor.step', '', ( #651 ) ) ;
#338 = PRODUCT_DEFINITION ( 'General', '', #495, #66 ) ;
#339 = PROPERTY_DEFINITION_REPRESENTATION ( #340, #244 ) ;
#340 = PROPERTY_DEFINITION ('document property','', #501 ) ;
#341 = PROPERTY_DEFINITION_REPRESENTATION ( #318, #215 ) ;
#342 = PRODUCT ( '0603 Capacitor001.step', '0603 Capacitor001.step', '', ( #88 ) ) ;
#343 = EXTERNAL_SOURCE (IDENTIFIER('') ) ;
#344 = APPLICATION_CONTEXT ( 'automotive_design' ) ;
#345 = SHAPE_DEFINITION_REPRESENTATION ( #441, #152 ) ;
#346 = PROPERTY_DEFINITION_REPRESENTATION ( #429, #119 ) ;
#347 = OBJECT_ROLE ('mandatory',$ ) ;
#348 = APPLICATION_PROTOCOL_DEFINITION ( 'draft international standard', 'automotive_design', 1998, #487 ) ;
#349 =( NAMED_UNIT ( * ) PLANE_ANGLE_UNIT ( ) SI_UNIT ( $, .RADIAN. ) );
#350 = AXIS2_PLACEMENT_3D ( 'NONE', #625, #91, #560 ) ;
#351 = SHAPE_DEFINITION_REPRESENTATION ( #517, #616 ) ;
#352 = APPLIED_EXTERNAL_IDENTIFICATION_ASSIGNMENT ( '0603 Capacitor.step.STEP' , #406, #112,( #438) ) ;
#353 = DIRECTION ( 'NONE',  ( -4.930380657631323784E-32, -1.040957192136566911E-31, 1.000000000000000000 ) ) ;
#354 = CARTESIAN_POINT ( 'NONE',  ( 0.000000000000000000, 0.000000000000000000, 0.000000000000000000 ) ) ;
#355 = PRODUCT_CONTEXT ( 'NONE', #494, 'mechanical' ) ;
#356 = DIRECTION ( 'NONE',  ( 1.000000000000000000, 0.000000000000000000, 0.000000000000000000 ) ) ;
#357 = APPLICATION_CONTEXT ( 'automotive_design' ) ;
#358 = PRODUCT_CONTEXT ( 'NONE', #387, 'mechanical' ) ;
#359 =( LENGTH_UNIT ( ) NAMED_UNIT ( * ) SI_UNIT ( .MILLI., .METRE. ) );
#360 = DOCUMENT_FILE ( 'Diode.step.STEP' , '', '', #456, '' ,$ ) ;
#361 = CARTESIAN_POINT ( 'NONE',  ( 3.499999999998948397, 0.7999999999999118927, -0.7999999999999118927 ) ) ;
#362 = AXIS2_PLACEMENT_3D ( 'NONE', #568, #411, #298 ) ;
#363 = PRODUCT ( 'Diode.step', 'Diode.step', '', ( #30 ) ) ;
#364 = DOCUMENT_TYPE ( 'geometry' ) ;
#365 = DIRECTION ( 'NONE',  ( 0.000000000000000000, 0.000000000000000000, 1.000000000000000000 ) ) ;
#366 = OBJECT_ROLE ('mandatory',$ ) ;
#367 =( NAMED_UNIT ( * ) PLANE_ANGLE_UNIT ( ) SI_UNIT ( $, .RADIAN. ) );
#368 = PRODUCT_DEFINITION ( 'General', '', #107, #425 ) ;
#369 =( NAMED_UNIT ( * ) PLANE_ANGLE_UNIT ( ) SI_UNIT ( $, .RADIAN. ) );
#370 = PRODUCT_DEFINITION_SHAPE ( 'NONE', 'NONE',  #662 ) ;
#371 = PROPERTY_DEFINITION ('external definition','', #75 ) ;
#372 = PROPERTY_DEFINITION_REPRESENTATION ( #542, #152 ) ;
#373 = UNCERTAINTY_MEASURE_WITH_UNIT (LENGTH_MEASURE( 1.000000000000000082E-05 ), #289, 'distance_accuracy_value', 'NONE');
#374 = PROPERTY_DEFINITION_REPRESENTATION ( #408, #234 ) ;
#375 = PRODUCT_RELATED_PRODUCT_CATEGORY ( 'part', '', ( #224 ) ) ;
#376 = PROPERTY_DEFINITION ('external definition','', #129 ) ;
#377 = ROLE_ASSOCIATION ( #389, #163 ) ;
#378 = IDENTIFICATION_ROLE ( 'external document id and location', $) ;
#379 = DIRECTION ( 'NONE',  ( -4.930380657631323784E-32, -1.040957192136566911E-31, 1.000000000000000000 ) ) ;
#380 = PRODUCT_DEFINITION_CONTEXT ( 'detailed design', #333, 'design' ) ;
#381 = PROPERTY_DEFINITION_REPRESENTATION ( #435, #192 ) ;
#382 =( GEOMETRIC_REPRESENTATION_CONTEXT ( 3 ) GLOBAL_UNCERTAINTY_ASSIGNED_CONTEXT ( ( #64 ) ) GLOBAL_UNIT_ASSIGNED_CONTEXT ( ( #242, #85, #499 ) ) REPRESENTATION_CONTEXT ( 'NONE', 'WORKASPACE' ) );
#383 = APPLIED_EXTERNAL_IDENTIFICATION_ASSIGNMENT ( 'Array002.step.STEP' , #47, #648,( #114) ) ;
#384 = PRODUCT_RELATED_PRODUCT_CATEGORY ( 'part', '', ( #108 ) ) ;
#385 =( NAMED_UNIT ( * ) SI_UNIT ( $, .STERADIAN. ) SOLID_ANGLE_UNIT ( ) );
#386 = APPLIED_DOCUMENT_REFERENCE ( #501,'',( #327) ) ;
#387 = APPLICATION_CONTEXT ( 'automotive_design' ) ;
#388 = APPLICATION_CONTEXT ( 'automotive_design' ) ;
#389 = OBJECT_ROLE ('mandatory',$ ) ;
#390 = PROPERTY_DEFINITION_REPRESENTATION ( #469, #166 ) ;
#391 = EXTERNAL_SOURCE (IDENTIFIER('') ) ;
#392 = AXIS2_PLACEMENT_3D ( 'NONE', #133, #353, #102 ) ;
#393 = APPLIED_EXTERNAL_IDENTIFICATION_ASSIGNMENT ( 'TSSOP16.step.STEP' , #99, #343,( #641) ) ;
#394 = ROLE_ASSOCIATION ( #366, #231 ) ;
#395 = APPLICATION_PROTOCOL_DEFINITION ( 'draft international standard', 'automotive_design', 1998, #422 ) ;
#396 = PRODUCT_DEFINITION ( 'General', '', #647, #467 ) ;
#397 = APPLIED_DOCUMENT_REFERENCE ( #235,'',( #454) ) ;
#398 = APPLICATION_PROTOCOL_DEFINITION ( 'draft international standard', 'automotive_design', 1998, #558 ) ;
#399 = DIRECTION ( 'NONE',  ( 2.220446049250314067E-16, 1.000000000000000000, -1.040957192136566911E-31 ) ) ;
#400 =( NAMED_UNIT ( * ) SI_UNIT ( $, .STERADIAN. ) SOLID_ANGLE_UNIT ( ) );
#401 = SHAPE_DEFINITION_REPRESENTATION ( #404, #76 ) ;
#402 = AXIS2_PLACEMENT_3D ( 'NONE', #640, #71, #116 ) ;
#403 = PRODUCT_CONTEXT ( 'NONE', #388, 'mechanical' ) ;
#404 = PRODUCT_DEFINITION_SHAPE ( 'NONE', 'NONE',  #338 ) ;
#405 = APPLICATION_CONTEXT ( 'automotive_design' ) ;
#406 = IDENTIFICATION_ROLE ( 'external document id and location', $) ;
#407 = PRODUCT_RELATED_PRODUCT_CATEGORY ( 'part', '', ( #267 ) ) ;
#408 = PROPERTY_DEFINITION ('external definition','', #114 ) ;
#409 = PRODUCT_DEFINITION_SHAPE ( 'NONE', 'NONE',  #660 ) ;
#410 = APPLICATION_PROTOCOL_DEFINITION ( 'draft international standard', 'automotive_design', 1998, #357 ) ;
#411 = DIRECTION ( 'NONE',  ( 0.000000000000000000, 0.000000000000000000, 1.000000000000000000 ) ) ;
#412 = CARTESIAN_POINT ( 'NONE',  ( 0.000000000000000000, 0.000000000000000000, 0.000000000000000000 ) ) ;
#413 = PRODUCT_DEFINITION_CONTEXT ( 'detailed design', #182, 'design' ) ;
#414 = SHAPE_DEFINITION_REPRESENTATION ( #21, #492 ) ;
#415 = DIRECTION ( 'NONE',  ( 1.000000000000000000, 2.220446049250314067E-16, -4.930380657631323784E-32 ) ) ;
#416 = APPLICATION_CONTEXT ( 'automotive_design' ) ;
#417 =( GEOMETRIC_REPRESENTATION_CONTEXT ( 3 ) GLOBAL_UNCERTAINTY_ASSIGNED_CONTEXT ( ( #478 ) ) GLOBAL_UNIT_ASSIGNED_CONTEXT ( ( #141, #611, #563 ) ) REPRESENTATION_CONTEXT ( 'NONE', 'WORKASPACE' ) );
#418 = APPLICATION_PROTOCOL_DEFINITION ( 'draft international standard', 'automotive_design', 1998, #507 ) ;
#419 = PRODUCT ( 'Array.step', 'Array.step', '', ( #297 ) ) ;
#420 = PRODUCT_RELATED_PRODUCT_CATEGORY ( 'part', '', ( #140 ) ) ;
#421 =( LENGTH_UNIT ( ) NAMED_UNIT ( * ) SI_UNIT ( .MILLI., .METRE. ) );
#422 = APPLICATION_CONTEXT ( 'automotive_design' ) ;
#423 = IDENTIFICATION_ROLE ( 'external document id and location', $) ;
#424 = PRODUCT_DEFINITION_SHAPE ( 'NONE', 'NONE',  #666 ) ;
#425 = PRODUCT_DEFINITION_CONTEXT ( 'detailed design', #448, 'design' ) ;
#426 = DIRECTION ( 'NONE',  ( 1.000000000000000000, 0.000000000000000000, 0.000000000000000000 ) ) ;
#427 = APPLICATION_CONTEXT ( 'automotive_design' ) ;
#428 = PRODUCT_DEFINITION_FORMATION_WITH_SPECIFIED_SOURCE ( 'Symmetric', '', #644, .NOT_KNOWN. ) ;
#429 = PROPERTY_DEFINITION ('document property','', #129 ) ;
#430 = PROPERTY_DEFINITION_REPRESENTATION ( #245, #9 ) ;
#431 = PRODUCT_RELATED_PRODUCT_CATEGORY ( 'part', '', ( #150 ) ) ;
#432 = DOCUMENT_TYPE ( 'geometry' ) ;
#433 = DIRECTION ( 'NONE',  ( -4.930380657631323784E-32, -1.040957192136566911E-31, 1.000000000000000000 ) ) ;
#434 = PROPERTY_DEFINITION_REPRESENTATION ( #190, #590 ) ;
#435 = PROPERTY_DEFINITION ('external definition','', #520 ) ;
#436 = ROLE_ASSOCIATION ( #34, #440 ) ;
#437 = PROPERTY_DEFINITION ('document property','', #75 ) ;
#438 = DOCUMENT_FILE ( '0603 Capacitor.step.STEP' , '', '', #63, '' ,$ ) ;
#439 = CARTESIAN_POINT ( 'NONE',  ( -3.249999999999975131, -5.800000000000027356, -0.6999999999999229061 ) ) ;
#440 = APPLIED_DOCUMENT_REFERENCE ( #20,'',( #268) ) ;
#441 = PRODUCT_DEFINITION_SHAPE ( 'NONE', 'NONE',  #591 ) ;
#442 = DIRECTION ( 'NONE',  ( -1.000000000000000000, -2.220446049250314067E-16, 4.930380657631323784E-32 ) ) ;
#443 = APPLICATION_CONTEXT ( 'automotive_design' ) ;
#444 = PROPERTY_DEFINITION_REPRESENTATION ( #87, #98 ) ;
#445 = AXIS2_PLACEMENT_3D ( 'NONE', #636, #483, #630 ) ;
#446 = PRODUCT_DEFINITION_FORMATION_WITH_SPECIFIED_SOURCE ( 'Symmetric', '', #614, .NOT_KNOWN. ) ;
#447 = DIRECTION ( 'NONE',  ( 1.000000000000000000, 0.000000000000000000, 0.000000000000000000 ) ) ;
#448 = APPLICATION_CONTEXT ( 'automotive_design' ) ;
#449 = EXTERNAL_SOURCE (IDENTIFIER('') ) ;
#450 = APPLICATION_PROTOCOL_DEFINITION ( 'draft international standard', 'automotive_design', 1998, #288 ) ;
#451 = CARTESIAN_POINT ( 'NONE',  ( 0.000000000000000000, 0.000000000000000000, 0.000000000000000000 ) ) ;
#452 =( REPRESENTATION_RELATIONSHIP ('NONE','NONE', #585, #590 ) REPRESENTATION_RELATIONSHIP_WITH_TRANSFORMATION ( #475 )SHAPE_REPRESENTATION_RELATIONSHIP( ) );
#453 = SHAPE_DEFINITION_REPRESENTATION ( #26, #244 ) ;
#454 = PRODUCT_DEFINITION ( 'General', '', #329, #627 ) ;
#455 = SHAPE_DEFINITION_REPRESENTATION ( #315, #234 ) ;
#456 = DOCUMENT_TYPE ( 'geometry' ) ;
#457 = APPLICATION_CONTEXT ( 'automotive_design' ) ;
#458 =( LENGTH_UNIT ( ) NAMED_UNIT ( * ) SI_UNIT ( .MILLI., .METRE. ) );
#459 = APPLICATION_PROTOCOL_DEFINITION ( 'draft international standard', 'automotive_design', 1998, #90 ) ;
#460 = DOCUMENT_TYPE ( 'geometry' ) ;
#461 = DIRECTION ( 'NONE',  ( 1.000000000000000000, 0.000000000000000000, 0.000000000000000000 ) ) ;
#462 = PRODUCT_DEFINITION_CONTEXT ( 'detailed design', #507, 'design' ) ;
#463 = DOCUMENT_TYPE ( 'geometry' ) ;
#464 = PRODUCT_DEFINITION ( 'General', '', #8, #326 ) ;
#465 = PRODUCT_DEFINITION_FORMATION_WITH_SPECIFIED_SOURCE ( 'Symmetric', '', #337, .NOT_KNOWN. ) ;
#466 = APPLIED_EXTERNAL_IDENTIFICATION_ASSIGNMENT ( 'Body004.step.STEP' , #650, #27,( #20) ) ;
#467 = PRODUCT_DEFINITION_CONTEXT ( 'detailed design', #110, 'design' ) ;
#468 =( LENGTH_UNIT ( ) NAMED_UNIT ( * ) SI_UNIT ( .MILLI., .METRE. ) );
#469 = PROPERTY_DEFINITION ('document property','', #438 ) ;
#470 = CONTEXT_DEPENDENT_SHAPE_REPRESENTATION ( #575, #299 ) ;
#471 = APPLICATION_CONTEXT ( 'automotive_design' ) ;
#472 = SHAPE_REPRESENTATION ( 'Body018.step', ( #546 ), #301 ) ;
#473 =( NAMED_UNIT ( * ) PLANE_ANGLE_UNIT ( ) SI_UNIT ( $, .RADIAN. ) );
#474 = PRODUCT_RELATED_PRODUCT_CATEGORY ( 'part', '', ( #342 ) ) ;
#475 = ITEM_DEFINED_TRANSFORMATION ( 'NONE', 'NONE', #547,  #476 ) ;
#476 = AXIS2_PLACEMENT_3D ( 'NONE', #39, #250, #200 ) ;
#477 = AXIS2_PLACEMENT_3D ( 'NONE', #216, #605, #447 ) ;
#478 = UNCERTAINTY_MEASURE_WITH_UNIT (LENGTH_MEASURE( 1.000000000000000082E-05 ), #141, 'distance_accuracy_value', 'NONE');
#479 = IDENTIFICATION_ROLE ( 'external document id and location', $) ;
#480 = DIRECTION ( 'NONE',  ( 1.000000000000000000, 2.220446049250314067E-16, -4.930380657631323784E-32 ) ) ;
#481 = PRODUCT_DEFINITION_SHAPE ( 'NONE', 'NONE',  #667 ) ;
#482 = CONTEXT_DEPENDENT_SHAPE_REPRESENTATION ( #452, #296 ) ;
#483 = DIRECTION ( 'NONE',  ( -4.930380657631323784E-32, -1.040957192136566911E-31, 1.000000000000000000 ) ) ;
#484 = AXIS2_PLACEMENT_3D ( 'NONE', #13, #592, #323 ) ;
#485 = APPLIED_EXTERNAL_IDENTIFICATION_ASSIGNMENT ( 'Body003.step.STEP' , #479, #172,( #75) ) ;
#486 = DIRECTION ( 'NONE',  ( 2.220446049250314067E-16, 1.000000000000000000, -1.040957192136566911E-31 ) ) ;
#487 = APPLICATION_CONTEXT ( 'automotive_design' ) ;
#488 = ITEM_DEFINED_TRANSFORMATION ( 'NONE', 'NONE', #604,  #626 ) ;
#489 = ITEM_DEFINED_TRANSFORMATION ( 'NONE', 'NONE', #445,  #18 ) ;
#490 = PRODUCT_DEFINITION ( 'General', '', #465, #3 ) ;
#491 = SHAPE_DEFINITION_REPRESENTATION ( #589, #9 ) ;
#492 = SHAPE_REPRESENTATION ( 'Body020.step', ( #125 ), #40 ) ;
#493 = AXIS2_PLACEMENT_3D ( 'NONE', #314, #533, #111 ) ;
#494 = APPLICATION_CONTEXT ( 'automotive_design' ) ;
#495 = PRODUCT_DEFINITION_FORMATION_WITH_SPECIFIED_SOURCE ( 'Symmetric', '', #150, .NOT_KNOWN. ) ;
#496 = OBJECT_ROLE ('mandatory',$ ) ;
#497 = APPLICATION_PROTOCOL_DEFINITION ( 'draft international standard', 'automotive_design', 1998, #182 ) ;
#498 =( NAMED_UNIT ( * ) PLANE_ANGLE_UNIT ( ) SI_UNIT ( $, .RADIAN. ) );
#499 =( NAMED_UNIT ( * ) SI_UNIT ( $, .STERADIAN. ) SOLID_ANGLE_UNIT ( ) );
#500 =( NAMED_UNIT ( * ) PLANE_ANGLE_UNIT ( ) SI_UNIT ( $, .RADIAN. ) );
#501 = DOCUMENT_FILE ( '0603 Resistor.step.STEP' , '', '', #460, '' ,$ ) ;
#502 = PROPERTY_DEFINITION ('document property','', #360 ) ;
#503 = IDENTIFICATION_ROLE ( 'external document id and location', $) ;
#504 = APPLICATION_PROTOCOL_DEFINITION ( 'draft international standard', 'automotive_design', 1998, #239 ) ;
#505 = CARTESIAN_POINT ( 'NONE',  ( 0.000000000000000000, 0.000000000000000000, 0.000000000000000000 ) ) ;
#506 = PROPERTY_DEFINITION ('external definition','', #332 ) ;
#507 = APPLICATION_CONTEXT ( 'automotive_design' ) ;
#508 = APPLICATION_PROTOCOL_DEFINITION ( 'draft international standard', 'automotive_design', 1998, #260 ) ;
#509 = PROPERTY_DEFINITION ('document property','', #114 ) ;
#510 = APPLICATION_PROTOCOL_DEFINITION ( 'draft international standard', 'automotive_design', 1998, #416 ) ;
#511 =( NAMED_UNIT ( * ) PLANE_ANGLE_UNIT ( ) SI_UNIT ( $, .RADIAN. ) );
#512 = CARTESIAN_POINT ( 'NONE',  ( 0.000000000000000000, 0.000000000000000000, 0.000000000000000000 ) ) ;
#513 =( GEOMETRIC_REPRESENTATION_CONTEXT ( 3 ) GLOBAL_UNCERTAINTY_ASSIGNED_CONTEXT ( ( #153 ) ) GLOBAL_UNIT_ASSIGNED_CONTEXT ( ( #359, #92, #400 ) ) REPRESENTATION_CONTEXT ( 'NONE', 'WORKASPACE' ) );
#514 =( GEOMETRIC_REPRESENTATION_CONTEXT ( 3 ) GLOBAL_UNCERTAINTY_ASSIGNED_CONTEXT ( ( #55 ) ) GLOBAL_UNIT_ASSIGNED_CONTEXT ( ( #38, #349, #188 ) ) REPRESENTATION_CONTEXT ( 'NONE', 'WORKASPACE' ) );
#515 = APPLICATION_PROTOCOL_DEFINITION ( 'draft international standard', 'automotive_design', 1998, #110 ) ;
#516 = CARTESIAN_POINT ( 'NONE',  ( 0.000000000000000000, 0.000000000000000000, 0.000000000000000000 ) ) ;
#517 = PRODUCT_DEFINITION_SHAPE ( 'NONE', 'NONE',  #176 ) ;
#518 = CARTESIAN_POINT ( 'NONE',  ( 0.000000000000000000, 0.000000000000000000, 0.000000000000000000 ) ) ;
#519 = DIRECTION ( 'NONE',  ( 1.000000000000000000, 0.000000000000000000, 0.000000000000000000 ) ) ;
#520 = DOCUMENT_FILE ( 'Array001.step.STEP' , '', '', #526, '' ,$ ) ;
#521 =( REPRESENTATION_RELATIONSHIP ('NONE','NONE', #585, #166 ) REPRESENTATION_RELATIONSHIP_WITH_TRANSFORMATION ( #173 )SHAPE_REPRESENTATION_RELATIONSHIP( ) );
#522 =( NAMED_UNIT ( * ) PLANE_ANGLE_UNIT ( ) SI_UNIT ( $, .RADIAN. ) );
#523 = PRODUCT_DEFINITION_CONTEXT ( 'detailed design', #121, 'design' ) ;
#524 = PRODUCT_RELATED_PRODUCT_CATEGORY ( 'part', '', ( #82 ) ) ;
#525 = APPLIED_DOCUMENT_REFERENCE ( #43,'',( #338) ) ;
#526 = DOCUMENT_TYPE ( 'geometry' ) ;
#527 =( NAMED_UNIT ( * ) PLANE_ANGLE_UNIT ( ) SI_UNIT ( $, .RADIAN. ) );
#528 = OBJECT_ROLE ('mandatory',$ ) ;
#529 = DIRECTION ( 'NONE',  ( -4.930380657631323784E-32, -1.040957192136566911E-31, 1.000000000000000000 ) ) ;
#530 = OBJECT_ROLE ('mandatory',$ ) ;
#531 =( GEOMETRIC_REPRESENTATION_CONTEXT ( 3 ) GLOBAL_UNCERTAINTY_ASSIGNED_CONTEXT ( ( #632 ) ) GLOBAL_UNIT_ASSIGNED_CONTEXT ( ( #536, #369, #618 ) ) REPRESENTATION_CONTEXT ( 'NONE', 'WORKASPACE' ) );
#532 = UNCERTAINTY_MEASURE_WITH_UNIT (LENGTH_MEASURE( 1.000000000000000082E-05 ), #574, 'distance_accuracy_value', 'NONE');
#533 = DIRECTION ( 'NONE',  ( 0.000000000000000000, 0.000000000000000000, 1.000000000000000000 ) ) ;
#534 = PRODUCT_RELATED_PRODUCT_CATEGORY ( 'part', '', ( #614 ) ) ;
#535 = CONTEXT_DEPENDENT_SHAPE_REPRESENTATION ( #52, #229 ) ;
#536 =( LENGTH_UNIT ( ) NAMED_UNIT ( * ) SI_UNIT ( .MILLI., .METRE. ) );
#537 = ROLE_ASSOCIATION ( #528, #322 ) ;
#538 = AXIS2_PLACEMENT_3D ( 'NONE', #266, #161, #426 ) ;
#539 =( GEOMETRIC_REPRESENTATION_CONTEXT ( 3 ) GLOBAL_UNCERTAINTY_ASSIGNED_CONTEXT ( ( #576 ) ) GLOBAL_UNIT_ASSIGNED_CONTEXT ( ( #220, #124, #385 ) ) REPRESENTATION_CONTEXT ( 'NONE', 'WORKASPACE' ) );
#540 = PRODUCT_DEFINITION_FORMATION_WITH_SPECIFIED_SOURCE ( 'Symmetric', '', #284, .NOT_KNOWN. ) ;
#541 = PROPERTY_DEFINITION_REPRESENTATION ( #334, #192 ) ;
#542 = PROPERTY_DEFINITION ('external definition','', #360 ) ;
#543 = CONTEXT_DEPENDENT_SHAPE_REPRESENTATION ( #271, #635 ) ;
#544 = DIRECTION ( 'NONE',  ( 1.000000000000000000, 2.220446049250314067E-16, -4.930380657631323784E-32 ) ) ;
#545 = CONTEXT_DEPENDENT_SHAPE_REPRESENTATION ( #68, #409 ) ;
#546 = AXIS2_PLACEMENT_3D ( 'NONE', #518, #222, #248 ) ;
#547 = AXIS2_PLACEMENT_3D ( 'NONE', #451, #302, #609 ) ;
#548 = ITEM_DEFINED_TRANSFORMATION ( 'NONE', 'NONE', #645,  #350 ) ;
#549 = EXTERNAL_SOURCE (IDENTIFIER('') ) ;
#550 = PROPERTY_DEFINITION ('document property','', #278 ) ;
#551 = PROPERTY_DEFINITION ('external definition','', #43 ) ;
#552 = PRODUCT_DEFINITION_SHAPE ( 'NONE', 'NONE',  #170 ) ;
#553 = SHAPE_REPRESENTATION ( '0603 Capacitor001.step', ( #104 ), #417 ) ;
#554 = PRODUCT_CONTEXT ( 'NONE', #405, 'mechanical' ) ;
#555 = CONTEXT_DEPENDENT_SHAPE_REPRESENTATION ( #521, #265 ) ;
#556 = PRODUCT_CONTEXT ( 'NONE', #457, 'mechanical' ) ;
#557 = PROPERTY_DEFINITION_REPRESENTATION ( #65, #492 ) ;
#558 = APPLICATION_CONTEXT ( 'automotive_design' ) ;
#559 = APPLICATION_PROTOCOL_DEFINITION ( 'draft international standard', 'automotive_design', 1998, #308 ) ;
#560 = DIRECTION ( 'NONE',  ( 1.000000000000000000, 0.000000000000000000, 0.000000000000000000 ) ) ;
#561 = PRODUCT_DEFINITION_SHAPE ( 'NONE', 'NONE',  #657 ) ;
#562 = PRODUCT_CONTEXT ( 'NONE', #427, 'mechanical' ) ;
#563 =( NAMED_UNIT ( * ) SI_UNIT ( $, .STERADIAN. ) SOLID_ANGLE_UNIT ( ) );
#564 = PROPERTY_DEFINITION ('document property','', #56 ) ;
#565 = APPLICATION_PROTOCOL_DEFINITION ( 'draft international standard', 'automotive_design', 1998, #427 ) ;
#566 = APPLICATION_CONTEXT ( 'automotive_design' ) ;
#567 = CARTESIAN_POINT ( 'NONE',  ( 1.899999999998902567, 0.3999999999999559464, -0.7999999999999118927 ) ) ;
#568 = CARTESIAN_POINT ( 'NONE',  ( 0.000000000000000000, 0.000000000000000000, 0.000000000000000000 ) ) ;
#569 = OBJECT_ROLE ('mandatory',$ ) ;
#570 = CONTEXT_DEPENDENT_SHAPE_REPRESENTATION ( #206, #561 ) ;
#571 = APPLICATION_PROTOCOL_DEFINITION ( 'draft international standard', 'automotive_design', 1998, #457 ) ;
#572 = DIRECTION ( 'NONE',  ( 4.930380657631323784E-32, 1.040957192136566911E-31, -1.000000000000000000 ) ) ;
#573 = PRODUCT_DEFINITION_SHAPE ( 'NONE', 'NONE',  #368 ) ;
#574 =( LENGTH_UNIT ( ) NAMED_UNIT ( * ) SI_UNIT ( .MILLI., .METRE. ) );
#575 =( REPRESENTATION_RELATIONSHIP ('NONE','NONE', #585, #152 ) REPRESENTATION_RELATIONSHIP_WITH_TRANSFORMATION ( #109 )SHAPE_REPRESENTATION_RELATIONSHIP( ) );
#576 = UNCERTAINTY_MEASURE_WITH_UNIT (LENGTH_MEASURE( 1.000000000000000082E-05 ), #220, 'distance_accuracy_value', 'NONE');
#577 =( LENGTH_UNIT ( ) NAMED_UNIT ( * ) SI_UNIT ( .MILLI., .METRE. ) );
#578 = EXTERNAL_SOURCE (IDENTIFIER('') ) ;
#579 = APPLIED_EXTERNAL_IDENTIFICATION_ASSIGNMENT ( 'Body018.step.STEP' , #175, #138,( #5) ) ;
#580 = PRODUCT_DEFINITION_SHAPE ( 'NONE', 'NONE',  #268 ) ;
#581 = PROPERTY_DEFINITION_REPRESENTATION ( #502, #152 ) ;
#582 = DIRECTION ( 'NONE',  ( 1.000000000000000000, 2.220446049250314067E-16, -4.930380657631323784E-32 ) ) ;
#583 = DIRECTION ( 'NONE',  ( 0.000000000000000000, 0.000000000000000000, 1.000000000000000000 ) ) ;
#584 = CARTESIAN_POINT ( 'NONE',  ( 3.200000000000091660, -5.800000000000027356, -0.6999999999999229061 ) ) ;
#585 = SHAPE_REPRESENTATION ( 'MT6835 Magnetic Encoder B.step', ( #477, #208, #547, #593, #219, #249, #392, #233, #619, #484, #277, #645, #604, #445, #652, #402 ), #539 ) ;
#586 = PROPERTY_DEFINITION_REPRESENTATION ( #221, #98 ) ;
#587 = APPLICATION_CONTEXT ( 'automotive_design' ) ;
#588 = APPLIED_DOCUMENT_REFERENCE ( #438,'',( #490) ) ;
#589 = PRODUCT_DEFINITION_SHAPE ( 'NONE', 'NONE',  #37 ) ;
#590 = SHAPE_REPRESENTATION ( 'Body.step', ( #476 ), #513 ) ;
#591 = PRODUCT_DEFINITION ( 'General', '', #595, #10 ) ;
#592 = DIRECTION ( 'NONE',  ( 4.930380657631323784E-32, 1.040957192136566911E-31, -1.000000000000000000 ) ) ;
#593 = AXIS2_PLACEMENT_3D ( 'NONE', #516, #44, #145 ) ;
#594 = ITEM_DEFINED_TRANSFORMATION ( 'NONE', 'NONE', #277,  #617 ) ;
#595 = PRODUCT_DEFINITION_FORMATION_WITH_SPECIFIED_SOURCE ( 'Symmetric', '', #363, .NOT_KNOWN. ) ;
#596 = DIRECTION ( 'NONE',  ( 4.930380657631323784E-32, 1.040957192136566911E-31, -1.000000000000000000 ) ) ;
#597 = PROPERTY_DEFINITION_REPRESENTATION ( #376, #119 ) ;
#598 = APPLICATION_PROTOCOL_DEFINITION ( 'draft international standard', 'automotive_design', 1998, #448 ) ;
#599 =( NAMED_UNIT ( * ) SI_UNIT ( $, .STERADIAN. ) SOLID_ANGLE_UNIT ( ) );
#600 = ROLE_ASSOCIATION ( #262, #397 ) ;
#601 = SHAPE_DEFINITION_REPRESENTATION ( #94, #166 ) ;
#602 = DIRECTION ( 'NONE',  ( -4.930380657631323784E-32, -1.040957192136566911E-31, 1.000000000000000000 ) ) ;
#603 =( REPRESENTATION_RELATIONSHIP ('NONE','NONE', #585, #119 ) REPRESENTATION_RELATIONSHIP_WITH_TRANSFORMATION ( #489 )SHAPE_REPRESENTATION_RELATIONSHIP( ) );
#604 = AXIS2_PLACEMENT_3D ( 'NONE', #22, #433, #544 ) ;
#605 = DIRECTION ( 'NONE',  ( 0.000000000000000000, 0.000000000000000000, 1.000000000000000000 ) ) ;
#606 = PRODUCT_RELATED_PRODUCT_CATEGORY ( 'part', '', ( #307 ) ) ;
#607 = PROPERTY_DEFINITION ('external definition','', #56 ) ;
#608 = PRODUCT_CONTEXT ( 'NONE', #487, 'mechanical' ) ;
#609 = DIRECTION ( 'NONE',  ( 1.000000000000000000, 2.220446049250314067E-16, -4.930380657631323784E-32 ) ) ;
#610 = DIRECTION ( 'NONE',  ( 0.000000000000000000, 0.000000000000000000, 1.000000000000000000 ) ) ;
#611 =( NAMED_UNIT ( * ) PLANE_ANGLE_UNIT ( ) SI_UNIT ( $, .RADIAN. ) );
#612 = APPLICATION_PROTOCOL_DEFINITION ( 'draft international standard', 'automotive_design', 1998, #471 ) ;
#613 = DIRECTION ( 'NONE',  ( 0.000000000000000000, 0.000000000000000000, 1.000000000000000000 ) ) ;
#614 = PRODUCT ( 'Array001.step', 'Array001.step', '', ( #79 ) ) ;
#615 = ROLE_ASSOCIATION ( #46, #214 ) ;
#616 = SHAPE_REPRESENTATION ( 'Body003.step', ( #350 ), #72 ) ;
#617 = AXIS2_PLACEMENT_3D ( 'NONE', #147, #613, #356 ) ;
#618 =( NAMED_UNIT ( * ) SI_UNIT ( $, .STERADIAN. ) SOLID_ANGLE_UNIT ( ) );
#619 = AXIS2_PLACEMENT_3D ( 'NONE', #168, #281, #486 ) ;
#620 = APPLIED_EXTERNAL_IDENTIFICATION_ASSIGNMENT ( 'Body019.step.STEP' , #378, #449,( #43) ) ;
#621 = DOCUMENT_TYPE ( 'geometry' ) ;
#622 = CARTESIAN_POINT ( 'NONE',  ( 0.000000000000000000, 0.000000000000000000, 0.000000000000000000 ) ) ;
#623 = UNCERTAINTY_MEASURE_WITH_UNIT (LENGTH_MEASURE( 1.000000000000000082E-05 ), #577, 'distance_accuracy_value', 'NONE');
#624 = ROLE_ASSOCIATION ( #194, #279 ) ;
#625 = CARTESIAN_POINT ( 'NONE',  ( 0.000000000000000000, 0.000000000000000000, 0.000000000000000000 ) ) ;
#626 = AXIS2_PLACEMENT_3D ( 'NONE', #622, #305, #312 ) ;
#627 = PRODUCT_DEFINITION_CONTEXT ( 'detailed design', #566, 'design' ) ;
#628 = PROPERTY_DEFINITION_REPRESENTATION ( #550, #9 ) ;
#629 = PROPERTY_DEFINITION ('document property','', #5 ) ;
#630 = DIRECTION ( 'NONE',  ( 1.000000000000000000, 2.220446049250314067E-16, -4.930380657631323784E-32 ) ) ;
#631 = PRODUCT_RELATED_PRODUCT_CATEGORY ( 'part', '', ( #337 ) ) ;
#632 = UNCERTAINTY_MEASURE_WITH_UNIT (LENGTH_MEASURE( 1.000000000000000082E-05 ), #536, 'distance_accuracy_value', 'NONE');
#633 = PROPERTY_DEFINITION_REPRESENTATION ( #629, #472 ) ;
#634 =( REPRESENTATION_RELATIONSHIP ('NONE','NONE', #585, #234 ) REPRESENTATION_RELATIONSHIP_WITH_TRANSFORMATION ( #69 )SHAPE_REPRESENTATION_RELATIONSHIP( ) );
#635 = PRODUCT_DEFINITION_SHAPE ( 'NONE', 'NONE',  #659 ) ;
#636 = CARTESIAN_POINT ( 'NONE',  ( 0.000000000000000000, 0.000000000000000000, 0.6999999999999229061 ) ) ;
#637 = AXIS2_PLACEMENT_3D ( 'NONE', #412, #48, #638 ) ;
#638 = DIRECTION ( 'NONE',  ( 1.000000000000000000, 0.000000000000000000, 0.000000000000000000 ) ) ;
#639 = CONTEXT_DEPENDENT_SHAPE_REPRESENTATION ( #105, #335 ) ;
#640 = CARTESIAN_POINT ( 'NONE',  ( -3.249999999999975131, -5.800000000000027356, -0.6999999999999229061 ) ) ;
#641 = DOCUMENT_FILE ( 'TSSOP16.step.STEP' , '', '', #364, '' ,$ ) ;
#642 = PRODUCT_DEFINITION ( 'General', '', #28, #523 ) ;
#643 = PROPERTY_DEFINITION_REPRESENTATION ( #371, #616 ) ;
#644 = PRODUCT ( 'Body.step', 'Body.step', '', ( #554 ) ) ;
#645 = AXIS2_PLACEMENT_3D ( 'NONE', #228, #212, #480 ) ;
#646 = PROPERTY_DEFINITION_REPRESENTATION ( #437, #616 ) ;
#647 = PRODUCT_DEFINITION_FORMATION_WITH_SPECIFIED_SOURCE ( 'Symmetric', '', #342, .NOT_KNOWN. ) ;
#648 = EXTERNAL_SOURCE (IDENTIFIER('') ) ;
#649 = SHAPE_DEFINITION_REPRESENTATION ( #580, #215 ) ;
#650 = IDENTIFICATION_ROLE ( 'external document id and location', $) ;
#651 = PRODUCT_CONTEXT ( 'NONE', #357, 'mechanical' ) ;
#652 = AXIS2_PLACEMENT_3D ( 'NONE', #439, #379, #225 ) ;
#653 = NEXT_ASSEMBLY_USAGE_OCCURRENCE ( 'NAUO71', ' ', ' ', #464, #396, $ ) ;
#654 = NEXT_ASSEMBLY_USAGE_OCCURRENCE ( 'NAUO72', ' ', ' ', #464, #170, $ ) ;
#655 = NEXT_ASSEMBLY_USAGE_OCCURRENCE ( 'NAUO73', ' ', ' ', #464, #304, $ ) ;
#656 = NEXT_ASSEMBLY_USAGE_OCCURRENCE ( 'NAUO74', ' ', ' ', #464, #591, $ ) ;
#657 = NEXT_ASSEMBLY_USAGE_OCCURRENCE ( 'NAUO75', ' ', ' ', #464, #37, $ ) ;
#658 = NEXT_ASSEMBLY_USAGE_OCCURRENCE ( 'NAUO76', ' ', ' ', #464, #368, $ ) ;
#659 = NEXT_ASSEMBLY_USAGE_OCCURRENCE ( 'NAUO77', ' ', ' ', #464, #60, $ ) ;
#660 = NEXT_ASSEMBLY_USAGE_OCCURRENCE ( 'NAUO78', ' ', ' ', #464, #19, $ ) ;
#661 = NEXT_ASSEMBLY_USAGE_OCCURRENCE ( 'NAUO79', ' ', ' ', #464, #490, $ ) ;
#662 = NEXT_ASSEMBLY_USAGE_OCCURRENCE ( 'NAUO80', ' ', ' ', #464, #327, $ ) ;
#663 = NEXT_ASSEMBLY_USAGE_OCCURRENCE ( 'NAUO81', ' ', ' ', #464, #176, $ ) ;
#664 = NEXT_ASSEMBLY_USAGE_OCCURRENCE ( 'NAUO82', ' ', ' ', #464, #268, $ ) ;
#665 = NEXT_ASSEMBLY_USAGE_OCCURRENCE ( 'NAUO83', ' ', ' ', #464, #642, $ ) ;
#666 = NEXT_ASSEMBLY_USAGE_OCCURRENCE ( 'NAUO84', ' ', ' ', #464, #454, $ ) ;
#667 = NEXT_ASSEMBLY_USAGE_OCCURRENCE ( 'NAUO85', ' ', ' ', #464, #338, $ ) ;
ENDSEC;
END-ISO-10303-21;
