ISO-10303-21;
HEADER;
FILE_DESCRIPTION (( 'STEP AP214' ),
    '1' );
FILE_NAME ('encoder-stand_flange-support-top.STEP',
    '2026-01-08T13:34:33',
    ( '' ),
    ( '' ),
    'SwSTEP 2.0',
    'SolidWorks 2025',
    '' );
FILE_SCHEMA (( 'AUTOMOTIVE_DESIGN' ));
ENDSEC;

DATA;
#1 = FACE_OUTER_BOUND ( 'NONE', #1015, .T. ) ;
#2 = CARTESIAN_POINT ( 'NONE',  ( -4.000000000000000000, 10.00000000000000000, 24.00000000000000711 ) ) ;
#3 = VERTEX_POINT ( 'NONE', #499 ) ;
#4 = VERTEX_POINT ( 'NONE', #569 ) ;
#5 = ADVANCED_FACE ( 'NONE', ( #996 ), #758, .F. ) ;
#6 = DIRECTION ( 'NONE',  ( 0.000000000000000000, 0.000000000000000000, -1.000000000000000000 ) ) ;
#7 = DIRECTION ( 'NONE',  ( 0.000000000000000000, 0.000000000000000000, -1.000000000000000000 ) ) ;
#8 = ORIENTED_EDGE ( 'NONE', *, *, #985, .T. ) ;
#9 = DIRECTION ( 'NONE',  ( 1.000000000000000000, 0.000000000000000000, 0.000000000000000000 ) ) ;
#10 = ADVANCED_FACE ( 'NONE', ( #967 ), #80, .F. ) ;
#11 = ORIENTED_EDGE ( 'NONE', *, *, #478, .F. ) ;
#12 = CARTESIAN_POINT ( 'NONE',  ( -2.797241945418163400, 0.3166608535748982600, -26.75259962440531680 ) ) ;
#13 = CIRCLE ( 'NONE', #1039, 1.500000000000001332 ) ;
#14 = ORIENTED_EDGE ( 'NONE', *, *, #422, .F. ) ;
#15 = CARTESIAN_POINT ( 'NONE',  ( 2.392799018956917489, 0.2414491705878070160, 26.53773625428939553 ) ) ;
#16 = DIRECTION ( 'NONE',  ( 0.000000000000000000, 0.000000000000000000, -1.000000000000000000 ) ) ;
#17 = ORIENTED_EDGE ( 'NONE', *, *, #901, .T. ) ;
#18 = ADVANCED_FACE ( 'NONE', ( #687, #1095 ), #908, .T. ) ;
#19 = CARTESIAN_POINT ( 'NONE',  ( -1.703853172472457267, 0.08698943141861512074, -25.93675918058494290 ) ) ;
#20 = VERTEX_POINT ( 'NONE', #319 ) ;
#21 = DIRECTION ( 'NONE',  ( 0.000000000000000000, -1.000000000000000000, 0.000000000000000000 ) ) ;
#22 = CARTESIAN_POINT ( 'NONE',  ( 4.000000000000007105, 30.00000000000000000, 24.00000000000000711 ) ) ;
#23 = CARTESIAN_POINT ( 'NONE',  ( -3.688683092792680807, 0.4120474732992119860, -26.98780472190369650 ) ) ;
#24 = MANIFOLD_SOLID_BREP ( 'Fillet1', #532 ) ;
#25 = ORIENTED_EDGE ( 'NONE', *, *, #1002, .F. ) ;
#26 = CARTESIAN_POINT ( 'NONE',  ( 2.941348933152299949, 0.3393029696124743033, 26.81119637632020414 ) ) ;
#27 = LINE ( 'NONE', #1221, #1228 ) ;
#28 = DIRECTION ( 'NONE',  ( -1.000000000000000000, 0.000000000000000000, -0.000000000000000000 ) ) ;
#29 = ORIENTED_EDGE ( 'NONE', *, *, #556, .F. ) ;
#30 = CARTESIAN_POINT ( 'NONE',  ( 4.000000000000007105, 10.00000000000000000, 27.00000000000000711 ) ) ;
#31 = VECTOR ( 'NONE', #1131, 1000.000000000000000 ) ;
#32 = EDGE_CURVE ( 'NONE', #833, #703, #426, .T. ) ;
#33 = B_SPLINE_CURVE_WITH_KNOTS ( 'NONE', 3,
 ( #764, #862, #670, #252, #568, #379, #1178, #546, #76, #965, #749, #453 ),
 .UNSPECIFIED., .F., .F.,
 ( 4, 2, 2, 2, 2, 4 ),
 ( 0.000000000000000000, 0.0009259524368650084297, 0.001851904873730016859, 0.002777857310595024422, 0.003240833529027527769, 0.003703809747460031984 ),
 .UNSPECIFIED. ) ;
#34 = AXIS2_PLACEMENT_3D ( 'NONE', #961, #938, #834 ) ;
#35 = DIRECTION ( 'NONE',  ( -0.000000000000000000, -1.000000000000000000, -0.000000000000000000 ) ) ;
#36 = ORIENTED_EDGE ( 'NONE', *, *, #1256, .T. ) ;
#37 = CARTESIAN_POINT ( 'NONE',  ( -4.000000000000000000, 0.000000000000000000, -21.00000000000000711 ) ) ;
#38 = CARTESIAN_POINT ( 'NONE',  ( -4.000000000000000000, 0.4174243050441658331, -27.00000000000000711 ) ) ;
#39 = VERTEX_POINT ( 'NONE', #732 ) ;
#40 = CARTESIAN_POINT ( 'NONE',  ( 2.523317068080900061, 0.2677493673250211370, 26.61588209763295154 ) ) ;
#41 = EDGE_CURVE ( 'NONE', #321, #928, #1127, .T. ) ;
#42 = CYLINDRICAL_SURFACE ( 'NONE', #539, 2.000000000000000000 ) ;
#43 = ORIENTED_EDGE ( 'NONE', *, *, #835, .T. ) ;
#44 = CARTESIAN_POINT ( 'NONE',  ( 4.000000000000007105, 10.00000000000000000, -27.00000000000000711 ) ) ;
#45 = DIRECTION ( 'NONE',  ( 0.000000000000000000, 0.000000000000000000, -1.000000000000000000 ) ) ;
#46 = ORIENTED_EDGE ( 'NONE', *, *, #480, .T. ) ;
#47 = DIRECTION ( 'NONE',  ( -1.000000000000000000, 0.000000000000000000, 0.000000000000000000 ) ) ;
#48 = FACE_OUTER_BOUND ( 'NONE', #692, .T. ) ;
#49 = EDGE_LOOP ( 'NONE', ( #671, #1295, #830, #957 ) ) ;
#50 = DIRECTION ( 'NONE',  ( -0.000000000000000000, 1.000000000000000000, -0.000000000000000000 ) ) ;
#51 = LINE ( 'NONE', #1043, #1291 ) ;
#52 = ORIENTED_EDGE ( 'NONE', *, *, #448, .T. ) ;
#53 = DIRECTION ( 'NONE',  ( 0.000000000000000000, 0.000000000000000000, 1.000000000000000000 ) ) ;
#54 = VECTOR ( 'NONE', #416, 1000.000000000000000 ) ;
#55 = AXIS2_PLACEMENT_3D ( 'NONE', #658, #238, #1137 ) ;
#56 = DIRECTION ( 'NONE',  ( -0.000000000000000000, -1.000000000000000000, -0.000000000000000000 ) ) ;
#57 = AXIS2_PLACEMENT_3D ( 'NONE', #440, #543, #370 ) ;
#58 = ORIENTED_EDGE ( 'NONE', *, *, #1166, .F. ) ;
#59 = AXIS2_PLACEMENT_3D ( 'NONE', #148, #942, #445 ) ;
#60 = CARTESIAN_POINT ( 'NONE',  ( 4.000000000000007105, 30.00000000000000000, 25.50000000000000711 ) ) ;
#61 = CARTESIAN_POINT ( 'NONE',  ( -4.613123452666870961, 0.3919371188896527691, -26.94072667587546022 ) ) ;
#62 = ADVANCED_FACE ( 'NONE', ( #924 ), #708, .F. ) ;
#63 = ORIENTED_EDGE ( 'NONE', *, *, #1195, .T. ) ;
#64 = CYLINDRICAL_SURFACE ( 'NONE', #866, 2.000000000000000000 ) ;
#65 = DIRECTION ( 'NONE',  ( -0.000000000000000000, -1.000000000000000000, -0.000000000000000000 ) ) ;
#66 = ORIENTED_EDGE ( 'NONE', *, *, #71, .T. ) ;
#67 = CARTESIAN_POINT ( 'NONE',  ( 0.000000000000000000, 0.000000000000000000, 24.99999999999998934 ) ) ;
#68 = PLANE ( 'NONE',  #1249 ) ;
#69 = ORIENTED_EDGE ( 'NONE', *, *, #566, .T. ) ;
#70 = CARTESIAN_POINT ( 'NONE',  ( 4.000000000000007105, -13.00000000000001776, 24.00000000000000711 ) ) ;
#71 = EDGE_CURVE ( 'NONE', #607, #342, #1014, .T. ) ;
#72 = DIRECTION ( 'NONE',  ( 0.000000000000000000, 1.000000000000000000, 0.000000000000000000 ) ) ;
#73 = VERTEX_POINT ( 'NONE', #325 ) ;
#74 = DIRECTION ( 'NONE',  ( 1.000000000000000000, -0.000000000000000000, -0.000000000000000000 ) ) ;
#75 = CARTESIAN_POINT ( 'NONE',  ( -5.206359216214626606, 0.3204196856953869799, -26.76401101363714474 ) ) ;
#76 = CARTESIAN_POINT ( 'NONE',  ( -3.386876547333125487, 0.3919371188896587643, 26.94072667587546377 ) ) ;
#77 = VECTOR ( 'NONE', #958, 1000.000000000000000 ) ;
#78 = EDGE_CURVE ( 'NONE', #324, #963, #459, .T. ) ;
#79 = AXIS2_PLACEMENT_3D ( 'NONE', #981, #384, #777 ) ;
#80 = PLANE ( 'NONE',  #991 ) ;
#81 = CARTESIAN_POINT ( 'NONE',  ( 3.386876547333133924, 0.3919371188896530467, -26.94072667587545311 ) ) ;
#82 = AXIS2_PLACEMENT_3D ( 'NONE', #787, #576, #378 ) ;
#83 = VECTOR ( 'NONE', #406, 1000.000000000000000 ) ;
#84 = DIRECTION ( 'NONE',  ( 0.000000000000000000, 0.000000000000000000, -1.000000000000000000 ) ) ;
#85 = DIRECTION ( 'NONE',  ( 1.000000000000000000, 0.000000000000000000, 0.000000000000000000 ) ) ;
#86 = ORIENTED_EDGE ( 'NONE', *, *, #41, .F. ) ;
#87 = DIRECTION ( 'NONE',  ( 0.000000000000000000, -0.000000000000000000, 1.000000000000000000 ) ) ;
#88 = DIRECTION ( 'NONE',  ( 0.000000000000000000, 0.000000000000000000, -1.000000000000000000 ) ) ;
#89 = CARTESIAN_POINT ( 'NONE',  ( -4.000000000000000000, 10.00000000000000000, -21.00000000000000711 ) ) ;
#90 = CARTESIAN_POINT ( 'NONE',  ( 7.500000000000000888, 0.000000000000000000, 29.99999999999999289 ) ) ;
#91 = PLANE ( 'NONE',  #766 ) ;
#92 = LINE ( 'NONE', #482, #186 ) ;
#93 = CARTESIAN_POINT ( 'NONE',  ( -7.499999999999999112, 5.000000000000004441, -30.00000000000000711 ) ) ;
#94 = ORIENTED_EDGE ( 'NONE', *, *, #301, .T. ) ;
#95 = DIRECTION ( 'NONE',  ( 0.000000000000000000, 0.000000000000000000, -1.000000000000000000 ) ) ;
#96 = AXIS2_PLACEMENT_3D ( 'NONE', #743, #1151, #941 ) ;
#97 = EDGE_CURVE ( 'NONE', #1077, #324, #524, .T. ) ;
#98 = CARTESIAN_POINT ( 'NONE',  ( -4.000000000000000000, 0.000000000000000000, -24.00000000000000711 ) ) ;
#99 = VERTEX_POINT ( 'NONE', #333 ) ;
#100 = FACE_OUTER_BOUND ( 'NONE', #216, .T. ) ;
#101 = ORIENTED_EDGE ( 'NONE', *, *, #113, .F. ) ;
#102 = CYLINDRICAL_SURFACE ( 'NONE', #242, 1.500000000000001332 ) ;
#103 = CARTESIAN_POINT ( 'NONE',  ( 1.171572875253816148, 0.000000000000000000, -25.00000000000000355 ) ) ;
#104 = EDGE_CURVE ( 'NONE', #367, #286, #228, .T. ) ;
#105 = ORIENTED_EDGE ( 'NONE', *, *, #825, .F. ) ;
#106 = DIRECTION ( 'NONE',  ( 0.000000000000000000, 0.000000000000000000, 1.000000000000000000 ) ) ;
#107 = CARTESIAN_POINT ( 'NONE',  ( -4.000000000000000000, 10.00000000000000000, 27.00000000000000711 ) ) ;
#108 = VERTEX_POINT ( 'NONE', #340 ) ;
#109 = FACE_OUTER_BOUND ( 'NONE', #526, .T. ) ;
#110 = CARTESIAN_POINT ( 'NONE',  ( 5.975098183166372756, 0.1609820894024585614, -26.26326804888963906 ) ) ;
#111 = VERTEX_POINT ( 'NONE', #726 ) ;
#112 = CARTESIAN_POINT ( 'NONE',  ( 3.233836334146043434, 0.3766764907236007098, 26.90457576673406592 ) ) ;
#113 = EDGE_CURVE ( 'NONE', #3, #206, #276, .T. ) ;
#114 = CARTESIAN_POINT ( 'NONE',  ( -4.000000000000000000, 10.00000000000000000, -27.00000000000000711 ) ) ;
#115 = VERTEX_POINT ( 'NONE', #1247 ) ;
#116 = VECTOR ( 'NONE', #611, 1000.000000000000000 ) ;
#117 = CARTESIAN_POINT ( 'NONE',  ( 6.296146827527549839, 0.08698943141861496808, -25.93675918058494290 ) ) ;
#118 = CIRCLE ( 'NONE', #1122, 2.000000000000000000 ) ;
#119 = ORIENTED_EDGE ( 'NONE', *, *, #936, .T. ) ;
#120 = AXIS2_PLACEMENT_3D ( 'NONE', #966, #72, #87 ) ;
#121 = CARTESIAN_POINT ( 'NONE',  ( -4.000000000000000000, 10.00000000000000000, 24.00000000000000711 ) ) ;
#122 = UNCERTAINTY_MEASURE_WITH_UNIT (LENGTH_MEASURE( 1.000000000000000082E-05 ), #288, 'distance_accuracy_value', 'NONE');
#123 = CARTESIAN_POINT ( 'NONE',  ( -2.499999999999999556, 13.99999999999999822, -14.00000000000000355 ) ) ;
#124 = EDGE_CURVE ( 'NONE', #1146, #812, #661, .T. ) ;
#125 = CARTESIAN_POINT ( 'NONE',  ( 4.000000000000007105, 30.00000000000000000, -25.50000000000000711 ) ) ;
#126 = ORIENTED_EDGE ( 'NONE', *, *, #1062, .F. ) ;
#127 = CARTESIAN_POINT ( 'NONE',  ( 1.275871046606157577, 4.285139680159506204E-15, 25.29499977691440549 ) ) ;
#128 = DIRECTION ( 'NONE',  ( 0.000000000000000000, 0.000000000000000000, -1.000000000000000000 ) ) ;
#129 = LINE ( 'NONE', #700, #797 ) ;
#130 = ORIENTED_EDGE ( 'NONE', *, *, #985, .F. ) ;
#131 = CARTESIAN_POINT ( 'NONE',  ( 2.024901816833635237, 0.1609820894024605875, 26.26326804888963551 ) ) ;
#132 = DIRECTION ( 'NONE',  ( 0.000000000000000000, 0.000000000000000000, -1.000000000000000000 ) ) ;
#133 = ORIENTED_EDGE ( 'NONE', *, *, #137, .T. ) ;
#134 = CARTESIAN_POINT ( 'NONE',  ( -4.000000000000000000, 10.00000000000000178, 24.00000000000000711 ) ) ;
#135 = VECTOR ( 'NONE', #977, 1000.000000000000000 ) ;
#136 = CARTESIAN_POINT ( 'NONE',  ( 6.195042853037943331, 0.1104124301691722654, -26.05065403410689484 ) ) ;
#137 = EDGE_CURVE ( 'NONE', #963, #115, #475, .T. ) ;
#138 = ORIENTED_EDGE ( 'NONE', *, *, #273, .T. ) ;
#139 = FILL_AREA_STYLE ('',( #621 ) ) ;
#140 = CIRCLE ( 'NONE', #680, 2.999999999999999112 ) ;
#141 = CIRCLE ( 'NONE', #1206, 1.500000000000001332 ) ;
#142 = PLANE ( 'NONE',  #872 ) ;
#143 = VERTEX_POINT ( 'NONE', #948 ) ;
#144 = CARTESIAN_POINT ( 'NONE',  ( -4.000000000000000000, 10.00000000000000178, -25.50000000000000711 ) ) ;
#145 = CARTESIAN_POINT ( 'NONE',  ( -6.577450766720699171, 0.02585699698110695277, -25.56612727529159912 ) ) ;
#146 = EDGE_LOOP ( 'NONE', ( #277, #345 ) ) ;
#147 = DIRECTION ( 'NONE',  ( -1.000000000000000000, 0.000000000000000000, -0.000000000000000000 ) ) ;
#148 = CARTESIAN_POINT ( 'NONE',  ( -4.000000000000000000, 30.00000000000000000, 24.00000000000000711 ) ) ;
#149 = ORIENTED_EDGE ( 'NONE', *, *, #491, .F. ) ;
#150 = DIRECTION ( 'NONE',  ( 0.000000000000000000, -1.000000000000000000, 0.000000000000000000 ) ) ;
#151 = CARTESIAN_POINT ( 'NONE',  ( 0.000000000000000000, 0.000000000000000000, 24.99999999999998934 ) ) ;
#152 = PRODUCT_DEFINITION_SHAPE ( 'NONE', 'NONE',  #260 ) ;
#153 = ORIENTED_EDGE ( 'NONE', *, *, #1129, .F. ) ;
#154 = DIRECTION ( 'NONE',  ( -0.000000000000000000, 1.000000000000000000, -0.000000000000000000 ) ) ;
#155 = FACE_OUTER_BOUND ( 'NONE', #394, .T. ) ;
#156 = EDGE_CURVE ( 'NONE', #1031, #1234, #1173, .T. ) ;
#157 = ORIENTED_EDGE ( 'NONE', *, *, #253, .F. ) ;
#158 = CYLINDRICAL_SURFACE ( 'NONE', #640, 17.00000000000000000 ) ;
#159 = DIRECTION ( 'NONE',  ( 1.000000000000000000, -0.000000000000000000, 0.000000000000000000 ) ) ;
#160 = VERTEX_POINT ( 'NONE', #1066 ) ;
#161 = CARTESIAN_POINT ( 'NONE',  ( -4.766163665853961895, 0.3766764907236003213, 26.90457576673406592 ) ) ;
#162 = MECHANICAL_DESIGN_GEOMETRIC_PRESENTATION_REPRESENTATION (  '', ( #449 ), #840 ) ;
#163 = AXIS2_PLACEMENT_3D ( 'NONE', #773, #577, #1076 ) ;
#164 = FACE_OUTER_BOUND ( 'NONE', #795, .T. ) ;
#165 = CIRCLE ( 'NONE', #844, 2.999999999999999112 ) ;
#166 = EDGE_LOOP ( 'NONE', ( #331, #1225, #225, #243, #944 ) ) ;
#167 = CYLINDRICAL_SURFACE ( 'NONE', #953, 1.500000000000001332 ) ;
#168 = ADVANCED_FACE ( 'NONE', ( #1257 ), #64, .F. ) ;
#169 = CARTESIAN_POINT ( 'NONE',  ( 7.500000000000000888, 13.99999999999999467, 13.99999999999999645 ) ) ;
#170 = ADVANCED_FACE ( 'NONE', ( #1045 ), #971, .F. ) ;
#171 = ORIENTED_EDGE ( 'NONE', *, *, #1256, .F. ) ;
#172 = DIRECTION ( 'NONE',  ( 0.000000000000000000, 0.000000000000000000, -1.000000000000000000 ) ) ;
#173 = PLANE ( 'NONE',  #120 ) ;
#174 = ORIENTED_EDGE ( 'NONE', *, *, #1088, .F. ) ;
#175 = DIRECTION ( 'NONE',  ( 1.000000000000000000, -0.000000000000000000, -0.000000000000000000 ) ) ;
#176 = DIRECTION ( 'NONE',  ( 1.000000000000000000, 0.000000000000000000, 0.000000000000000000 ) ) ;
#177 = ORIENTED_EDGE ( 'NONE', *, *, #253, .T. ) ;
#178 = EDGE_CURVE ( 'NONE', #115, #841, #33, .T. ) ;
#179 = CARTESIAN_POINT ( 'NONE',  ( -5.607200981043088284, 0.2414491705878069050, 26.53773625428939553 ) ) ;
#180 = B_SPLINE_CURVE_WITH_KNOTS ( 'NONE', 3,
 ( #619, #1007, #1223, #528, #808, #1118, #1217, #1013, #517, #428, #110, #136, #117, #233, #317, #705 ),
 .UNSPECIFIED., .F., .F.,
 ( 4, 2, 2, 2, 2, 2, 2, 4 ),
 ( 0.003703809747460015504, 0.004165821691806586950, 0.004627833636153159264, 0.005089845580499730709, 0.005551857524846302155, 0.006013869469192874469, 0.006475881413539445915, 0.007399905302232589674 ),
 .UNSPECIFIED. ) ;
#181 = ORIENTED_EDGE ( 'NONE', *, *, #674, .F. ) ;
#182 = CARTESIAN_POINT ( 'NONE',  ( 3.691721601620410631, 0.4121779772558679111, -26.98810277258132473 ) ) ;
#183 = DIRECTION ( 'NONE',  ( 0.000000000000000000, 0.000000000000000000, -1.000000000000000000 ) ) ;
#184 = CIRCLE ( 'NONE', #1083, 17.00000000000000000 ) ;
#185 = FACE_OUTER_BOUND ( 'NONE', #234, .T. ) ;
#186 = VECTOR ( 'NONE', #175, 1000.000000000000000 ) ;
#187 = CIRCLE ( 'NONE', #889, 2.999999999999999112 ) ;
#188 = CARTESIAN_POINT ( 'NONE',  ( 4.000000000000007105, -13.00000000000001776, -25.50000000000000711 ) ) ;
#189 = ADVANCED_FACE ( 'NONE', ( #267 ), #1052, .F. ) ;
#190 = DIRECTION ( 'NONE',  ( 1.000000000000000000, -0.000000000000000000, -0.000000000000000000 ) ) ;
#191 = LINE ( 'NONE', #1000, #1248 ) ;
#192 =( NAMED_UNIT ( * ) SI_UNIT ( $, .STERADIAN. ) SOLID_ANGLE_UNIT ( ) );
#193 = DIRECTION ( 'NONE',  ( 0.000000000000000000, 0.000000000000000000, -1.000000000000000000 ) ) ;
#194 = EDGE_CURVE ( 'NONE', #111, #1072, #1142, .T. ) ;
#195 = CARTESIAN_POINT ( 'NONE',  ( 4.000000000000007105, 0.4174243050441656111, -27.00000000000000711 ) ) ;
#196 = DIRECTION ( 'NONE',  ( 0.000000000000000000, 0.000000000000000000, -1.000000000000000000 ) ) ;
#197 = ORIENTED_EDGE ( 'NONE', *, *, #856, .F. ) ;
#198 = UNCERTAINTY_MEASURE_WITH_UNIT (LENGTH_MEASURE( 1.000000000000000082E-05 ), #1134, 'distance_accuracy_value', 'NONE');
#199 = LINE ( 'NONE', #596, #929 ) ;
#200 = ORIENTED_EDGE ( 'NONE', *, *, #156, .T. ) ;
#201 = ADVANCED_FACE ( 'NONE', ( #362 ), #1058, .T. ) ;
#202 = AXIS2_PLACEMENT_3D ( 'NONE', #419, #326, #704 ) ;
#203 = EDGE_LOOP ( 'NONE', ( #504, #177, #46, #864 ) ) ;
#204 = CARTESIAN_POINT ( 'NONE',  ( 4.000000000000007105, 10.00000000000000000, 24.00000000000000711 ) ) ;
#205 = EDGE_CURVE ( 'NONE', #841, #1207, #972, .T. ) ;
#206 = VERTEX_POINT ( 'NONE', #103 ) ;
#207 = CARTESIAN_POINT ( 'NONE',  ( -4.000000000000000000, 0.000000000000000000, 24.00000000000000711 ) ) ;
#208 = CARTESIAN_POINT ( 'NONE',  ( -6.828427124746190735, 0.000000000000000000, -25.00000000000000355 ) ) ;
#209 = EDGE_CURVE ( 'NONE', #99, #827, #816, .T. ) ;
#210 = ORIENTED_EDGE ( 'NONE', *, *, #1230, .T. ) ;
#211 = CARTESIAN_POINT ( 'NONE',  ( -4.000000000000000000, 0.4174243050441658331, -27.00000000000000711 ) ) ;
#212 = CARTESIAN_POINT ( 'NONE',  ( -7.500000000000000000, 30.00000000000000000, 0.000000000000000000 ) ) ;
#213 = VERTEX_POINT ( 'NONE', #503 ) ;
#214 =( NAMED_UNIT ( * ) SI_UNIT ( $, .STERADIAN. ) SOLID_ANGLE_UNIT ( ) );
#215 = CYLINDRICAL_SURFACE ( 'NONE', #995, 2.999999999999999112 ) ;
#216 = EDGE_LOOP ( 'NONE', ( #745, #457 ) ) ;
#217 = LINE ( 'NONE', #44, #976 ) ;
#218 = AXIS2_PLACEMENT_3D ( 'NONE', #1220, #634, #627 ) ;
#219 = VECTOR ( 'NONE', #1244, 1000.000000000000000 ) ;
#220 = CARTESIAN_POINT ( 'NONE',  ( 6.828427124746202281, 0.000000000000000000, 24.99999999999998934 ) ) ;
#221 = AXIS2_PLACEMENT_3D ( 'NONE', #300, #768, #193 ) ;
#222 = ORIENTED_EDGE ( 'NONE', *, *, #1093, .F. ) ;
#223 = CARTESIAN_POINT ( 'NONE',  ( 2.797241945418164732, 0.3166608535749036446, 26.75259962440530970 ) ) ;
#224 = DIRECTION ( 'NONE',  ( -0.000000000000000000, -1.000000000000000000, -0.000000000000000000 ) ) ;
#225 = ORIENTED_EDGE ( 'NONE', *, *, #78, .T. ) ;
#226 = CARTESIAN_POINT ( 'NONE',  ( -2.392799018956916601, 0.2414491705878030192, -26.53773625428940974 ) ) ;
#227 = VERTEX_POINT ( 'NONE', #793 ) ;
#228 = LINE ( 'NONE', #824, #950 ) ;
#229 = DIRECTION ( 'NONE',  ( 0.000000000000000000, -0.000000000000000000, -1.000000000000000000 ) ) ;
#230 = ORIENTED_EDGE ( 'NONE', *, *, #137, .F. ) ;
#231 = CYLINDRICAL_SURFACE ( 'NONE', #476, 1.500000000000001332 ) ;
#232 = EDGE_CURVE ( 'NONE', #1065, #435, #614, .T. ) ;
#233 = CARTESIAN_POINT ( 'NONE',  ( 6.573375454616225078, 0.02670840623465739125, -25.57195555858243452 ) ) ;
#234 = EDGE_LOOP ( 'NONE', ( #318, #414, #559, #52, #43 ) ) ;
#235 = SURFACE_SIDE_STYLE ('',( #418 ) ) ;
#236 = DIRECTION ( 'NONE',  ( 0.000000000000000000, -1.000000000000000000, 0.000000000000000000 ) ) ;
#237 = VERTEX_POINT ( 'NONE', #93 ) ;
#238 = DIRECTION ( 'NONE',  ( -0.000000000000000000, 1.000000000000000000, -0.000000000000000000 ) ) ;
#239 = EDGE_CURVE ( 'NONE', #3, #833, #349, .T. ) ;
#240 = VECTOR ( 'NONE', #587, 1000.000000000000000 ) ;
#241 = CARTESIAN_POINT ( 'NONE',  ( -7.499999999999999112, 0.000000000000000000, -25.00000000000000000 ) ) ;
#242 = AXIS2_PLACEMENT_3D ( 'NONE', #598, #1084, #868 ) ;
#243 = ORIENTED_EDGE ( 'NONE', *, *, #1010, .T. ) ;
#244 = EDGE_CURVE ( 'NONE', #251, #281, #691, .T. ) ;
#245 = CARTESIAN_POINT ( 'NONE',  ( 2.144033816170442641, 0.1881753276910691219, 26.36190385373364364 ) ) ;
#246 = AXIS2_PLACEMENT_3D ( 'NONE', #547, #236, #229 ) ;
#247 = DIRECTION ( 'NONE',  ( -1.000000000000000000, 0.000000000000000000, 0.000000000000000000 ) ) ;
#248 = VERTEX_POINT ( 'NONE', #686 ) ;
#249 = FACE_OUTER_BOUND ( 'NONE', #347, .T. ) ;
#250 = CARTESIAN_POINT ( 'NONE',  ( 5.982738725408893288, 0.1610225205482181121, 26.27226350519109843 ) ) ;
#251 = VERTEX_POINT ( 'NONE', #298 ) ;
#252 = CARTESIAN_POINT ( 'NONE',  ( -1.797053721677285942, 0.1072206740642322603, 26.05986280904955521 ) ) ;
#253 = EDGE_CURVE ( 'NONE', #809, #446, #391, .T. ) ;
#254 = DIRECTION ( 'NONE',  ( 0.000000000000000000, 0.000000000000000000, -1.000000000000000000 ) ) ;
#255 = ORIENTED_EDGE ( 'NONE', *, *, #934, .T. ) ;
#256 = CYLINDRICAL_SURFACE ( 'NONE', #716, 1.500000000000001332 ) ;
#257 = FACE_OUTER_BOUND ( 'NONE', #861, .T. ) ;
#258 = ORIENTED_EDGE ( 'NONE', *, *, #615, .F. ) ;
#259 = DIRECTION ( 'NONE',  ( -0.000000000000000000, 1.000000000000000000, -0.000000000000000000 ) ) ;
#260 = PRODUCT_DEFINITION ( 'General', '', #1041, #1024 ) ;
#261 = CARTESIAN_POINT ( 'NONE',  ( -4.000000000000000000, 10.00000000000000000, 24.00000000000000711 ) ) ;
#262 = ORIENTED_EDGE ( 'NONE', *, *, #41, .T. ) ;
#263 = EDGE_CURVE ( 'NONE', #1072, #575, #191, .T. ) ;
#264 = CARTESIAN_POINT ( 'NONE',  ( -4.000000000000000000, 10.00000000000000000, -21.00000000000000711 ) ) ;
#265 = CARTESIAN_POINT ( 'NONE',  ( 6.723900309549414978, 3.811648262644349985E-18, 25.29564647936592081 ) ) ;
#266 = ORIENTED_EDGE ( 'NONE', *, *, #209, .F. ) ;
#267 = FACE_OUTER_BOUND ( 'NONE', #49, .T. ) ;
#268 = AXIS2_PLACEMENT_3D ( 'NONE', #70, #154, #53 ) ;
#269 = AXIS2_PLACEMENT_3D ( 'NONE', #329, #717, #1125 ) ;
#270 = AXIS2_PLACEMENT_3D ( 'NONE', #609, #811, #16 ) ;
#271 = DIRECTION ( 'NONE',  ( 0.000000000000000000, 0.000000000000000000, 1.000000000000000000 ) ) ;
#272 = CARTESIAN_POINT ( 'NONE',  ( -62.50000000000000000, 30.00000000000000000, 0.000000000000000000 ) ) ;
#273 = EDGE_CURVE ( 'NONE', #1072, #111, #906, .T. ) ;
#274 = DIRECTION ( 'NONE',  ( 0.000000000000000000, 1.000000000000000000, 0.000000000000000000 ) ) ;
#275 = EDGE_LOOP ( 'NONE', ( #8, #404, #987, #937, #393, #502, #266, #126 ) ) ;
#276 = LINE ( 'NONE', #1073, #1272 ) ;
#277 = ORIENTED_EDGE ( 'NONE', *, *, #422, .T. ) ;
#278 = CARTESIAN_POINT ( 'NONE',  ( 2.017261274591127584, 0.1610225205482164745, -26.27226350519110554 ) ) ;
#279 = DIRECTION ( 'NONE',  ( 0.000000000000000000, 0.000000000000000000, -1.000000000000000000 ) ) ;
#280 = CARTESIAN_POINT ( 'NONE',  ( 0.000000000000000000, 0.000000000000000000, 24.99999999999998934 ) ) ;
#281 = VERTEX_POINT ( 'NONE', #774 ) ;
#282 = FILL_AREA_STYLE_COLOUR ( '', #409 ) ;
#283 = LINE ( 'NONE', #968, #429 ) ;
#284 = CYLINDRICAL_SURFACE ( 'NONE', #328, 2.999999999999999112 ) ;
#285 = CARTESIAN_POINT ( 'NONE',  ( 7.500000000000000888, 30.00000000000000000, 0.000000000000000000 ) ) ;
#286 = VERTEX_POINT ( 'NONE', #304 ) ;
#287 = CIRCLE ( 'NONE', #779, 2.999999999999999112 ) ;
#288 =( LENGTH_UNIT ( ) NAMED_UNIT ( * ) SI_UNIT ( .MILLI., .METRE. ) );
#289 = AXIS2_PLACEMENT_3D ( 'NONE', #1162, #1070, #571 ) ;
#290 = DIRECTION ( 'NONE',  ( 0.000000000000000000, 0.000000000000000000, -1.000000000000000000 ) ) ;
#291 = AXIS2_PLACEMENT_3D ( 'NONE', #1075, #190, #88 ) ;
#292 = ADVANCED_BREP_SHAPE_REPRESENTATION ( 'encoder-stand_flange-support-top', ( #24, #1281 ), #1252 ) ;
#293 = DIRECTION ( 'NONE',  ( -1.000000000000000000, 0.000000000000000000, -0.000000000000000000 ) ) ;
#294 = DIRECTION ( 'NONE',  ( 0.000000000000000000, 0.000000000000000000, -1.000000000000000000 ) ) ;
#295 = DIRECTION ( 'NONE',  ( -0.000000000000000000, -1.000000000000000000, -0.000000000000000000 ) ) ;
#296 = EDGE_CURVE ( 'NONE', #160, #928, #402, .T. ) ;
#297 = DIRECTION ( 'NONE',  ( 0.000000000000000000, -1.000000000000000000, 0.000000000000000000 ) ) ;
#298 = CARTESIAN_POINT ( 'NONE',  ( 4.000000000000007105, 10.00000000000000178, 25.50000000000000711 ) ) ;
#299 = DIRECTION ( 'NONE',  ( -0.000000000000000000, 1.000000000000000000, -0.000000000000000000 ) ) ;
#300 = CARTESIAN_POINT ( 'NONE',  ( 4.000000000000007105, 10.00000000000000178, 24.00000000000000711 ) ) ;
#301 = EDGE_CURVE ( 'NONE', #923, #1077, #474, .T. ) ;
#302 = ORIENTED_EDGE ( 'NONE', *, *, #194, .T. ) ;
#303 = ORIENTED_EDGE ( 'NONE', *, *, #615, .T. ) ;
#304 = CARTESIAN_POINT ( 'NONE',  ( -4.000000000000000000, 30.00000000000000000, 25.50000000000000711 ) ) ;
#305 = ORIENTED_EDGE ( 'NONE', *, *, #769, .F. ) ;
#306 = ORIENTED_EDGE ( 'NONE', *, *, #979, .T. ) ;
#307 = AXIS2_PLACEMENT_3D ( 'NONE', #396, #85, #898 ) ;
#308 = LINE ( 'NONE', #715, #1279 ) ;
#309 = AXIS2_PLACEMENT_3D ( 'NONE', #22, #817, #1004 ) ;
#310 = ADVANCED_FACE ( 'NONE', ( #875, #1288 ), #675, .T. ) ;
#311 = AXIS2_PLACEMENT_3D ( 'NONE', #998, #616, #1209 ) ;
#312 = CARTESIAN_POINT ( 'NONE',  ( 4.000000000000007105, 30.00000000000000000, -24.00000000000000711 ) ) ;
#313 = ORIENTED_EDGE ( 'NONE', *, *, #392, .T. ) ;
#314 = APPLICATION_PROTOCOL_DEFINITION ( 'draft international standard', 'automotive_design', 1998, #316 ) ;
#315 = DIRECTION ( 'NONE',  ( 0.000000000000000000, 0.000000000000000000, -1.000000000000000000 ) ) ;
#316 = APPLICATION_CONTEXT ( 'automotive_design' ) ;
#317 = CARTESIAN_POINT ( 'NONE',  ( 6.724128953393849528, 4.336808689942017736E-15, -25.29499977691441615 ) ) ;
#318 = ORIENTED_EDGE ( 'NONE', *, *, #486, .F. ) ;
#319 = CARTESIAN_POINT ( 'NONE',  ( -7.500000000000000000, 30.00000000000000000, 30.00000000000000711 ) ) ;
#320 = LINE ( 'NONE', #1011, #662 ) ;
#321 = VERTEX_POINT ( 'NONE', #891 ) ;
#322 = CARTESIAN_POINT ( 'NONE',  ( -7.499999999999999112, 70.00000000000000000, 29.99999999999999289 ) ) ;
#323 = CARTESIAN_POINT ( 'NONE',  ( -2.144033816170440421, 0.1881753276910658190, -26.36190385373364009 ) ) ;
#324 = VERTEX_POINT ( 'NONE', #483 ) ;
#325 = CARTESIAN_POINT ( 'NONE',  ( -7.499999999999999112, 0.000000000000000000, 24.99999999999998934 ) ) ;
#326 = DIRECTION ( 'NONE',  ( 0.000000000000000000, -1.000000000000000000, 0.000000000000000000 ) ) ;
#327 = VECTOR ( 'NONE', #259, 1000.000000000000000 ) ;
#328 = AXIS2_PLACEMENT_3D ( 'NONE', #821, #604, #698 ) ;
#329 = CARTESIAN_POINT ( 'NONE',  ( -4.000000000000000000, 10.00000000000000000, -24.00000000000000711 ) ) ;
#330 = CIRCLE ( 'NONE', #955, 1.999999999999998224 ) ;
#331 = ORIENTED_EDGE ( 'NONE', *, *, #649, .F. ) ;
#332 = PRESENTATION_LAYER_ASSIGNMENT (  '', '', ( #1147 ) ) ;
#333 = CARTESIAN_POINT ( 'NONE',  ( 7.500000000000000888, 30.00000000000000000, 17.00000000000000000 ) ) ;
#334 = ADVANCED_FACE ( 'NONE', ( #1199 ), #1078, .F. ) ;
#335 = LINE ( 'NONE', #1135, #1105 ) ;
#336 = VERTEX_POINT ( 'NONE', #579 ) ;
#337 = DIRECTION ( 'NONE',  ( 0.000000000000000000, 0.000000000000000000, 1.000000000000000000 ) ) ;
#338 = CARTESIAN_POINT ( 'NONE',  ( 4.000000000000007105, 30.00000000000000000, -24.00000000000000711 ) ) ;
#339 = ORIENTED_EDGE ( 'NONE', *, *, #527, .T. ) ;
#340 = CARTESIAN_POINT ( 'NONE',  ( -2.499999999999999556, 13.99999999999999822, -18.00000000000000355 ) ) ;
#341 = CARTESIAN_POINT ( 'NONE',  ( -6.828427124746196064, 0.000000000000000000, 24.99999999999998934 ) ) ;
#342 = VERTEX_POINT ( 'NONE', #1286 ) ;
#343 = LINE ( 'NONE', #348, #696 ) ;
#344 = CARTESIAN_POINT ( 'NONE',  ( 6.202946278322722051, 0.1072206740642322326, 26.05986280904954810 ) ) ;
#345 = ORIENTED_EDGE ( 'NONE', *, *, #232, .T. ) ;
#346 = LINE ( 'NONE', #553, #978 ) ;
#347 = EDGE_LOOP ( 'NONE', ( #157, #305, #461, #1179 ) ) ;
#348 = CARTESIAN_POINT ( 'NONE',  ( 4.000000000000007105, -13.00000000000001776, 25.50000000000000711 ) ) ;
#349 = CIRCLE ( 'NONE', #1100, 2.999999999999999112 ) ;
#350 = DIRECTION ( 'NONE',  ( -0.000000000000000000, -1.000000000000000000, -0.000000000000000000 ) ) ;
#351 = EDGE_CURVE ( 'NONE', #1102, #99, #382, .T. ) ;
#352 = CIRCLE ( 'NONE', #927, 1.500000000000001332 ) ;
#353 = ORIENTED_EDGE ( 'NONE', *, *, #846, .F. ) ;
#354 = DIRECTION ( 'NONE',  ( 0.000000000000000000, 0.000000000000000000, -1.000000000000000000 ) ) ;
#355 = VECTOR ( 'NONE', #247, 1000.000000000000000 ) ;
#356 = DIRECTION ( 'NONE',  ( 0.000000000000000000, -1.000000000000000000, -0.000000000000000000 ) ) ;
#357 = ORIENTED_EDGE ( 'NONE', *, *, #699, .F. ) ;
#358 = FACE_OUTER_BOUND ( 'NONE', #203, .T. ) ;
#359 = DIRECTION ( 'NONE',  ( -0.000000000000000000, -0.000000000000000000, 1.000000000000000000 ) ) ;
#360 = ADVANCED_FACE ( 'NONE', ( #487, #1187 ), #683, .T. ) ;
#361 = ORIENTED_EDGE ( 'NONE', *, *, #894, .T. ) ;
#362 = FACE_OUTER_BOUND ( 'NONE', #432, .T. ) ;
#363 = DIRECTION ( 'NONE',  ( 1.000000000000000000, 0.000000000000000000, 0.000000000000000000 ) ) ;
#364 = ORIENTED_EDGE ( 'NONE', *, *, #239, .F. ) ;
#365 = DIRECTION ( 'NONE',  ( 0.000000000000000000, 1.000000000000000000, 0.000000000000000000 ) ) ;
#366 = CARTESIAN_POINT ( 'NONE',  ( -4.000000000000000000, 0.4174243050441658331, -27.00000000000000711 ) ) ;
#367 = VERTEX_POINT ( 'NONE', #884 ) ;
#368 = CARTESIAN_POINT ( 'NONE',  ( -6.195042853037941555, 0.1104124301691738891, 26.05065403410688063 ) ) ;
#369 = EDGE_LOOP ( 'NONE', ( #1238, #411, #850, #468, #893 ) ) ;
#370 = DIRECTION ( 'NONE',  ( 0.000000000000000000, 0.000000000000000000, -1.000000000000000000 ) ) ;
#371 = CARTESIAN_POINT ( 'NONE',  ( -5.480882475491915429, 0.2685047408181704953, -26.62705564920889145 ) ) ;
#372 = ORIENTED_EDGE ( 'NONE', *, *, #296, .F. ) ;
#373 = CARTESIAN_POINT ( 'NONE',  ( -5.058651066847708044, 0.3393029696124738592, 26.81119637632020414 ) ) ;
#374 = CIRCLE ( 'NONE', #818, 5.000000000000000888 ) ;
#375 = AXIS2_PLACEMENT_3D ( 'NONE', #746, #365, #638 ) ;
#376 = ORIENTED_EDGE ( 'NONE', *, *, #232, .F. ) ;
#377 = VECTOR ( 'NONE', #35, 1000.000000000000000 ) ;
#378 = DIRECTION ( 'NONE',  ( 0.000000000000000000, 0.000000000000000000, 1.000000000000000000 ) ) ;
#379 = CARTESIAN_POINT ( 'NONE',  ( -2.519117524508083239, 0.2685047408181732709, 26.62705564920888790 ) ) ;
#380 = LINE ( 'NONE', #776, #1085 ) ;
#381 = FACE_OUTER_BOUND ( 'NONE', #606, .T. ) ;
#382 = LINE ( 'NONE', #780, #240 ) ;
#383 = CARTESIAN_POINT ( 'NONE',  ( 1.422549233279309044, 0.02585699698110697706, -25.56612727529159912 ) ) ;
#384 = DIRECTION ( 'NONE',  ( -0.000000000000000000, 1.000000000000000000, -0.000000000000000000 ) ) ;
#385 = EDGE_CURVE ( 'NONE', #735, #1012, #1292, .T. ) ;
#386 = DIRECTION ( 'NONE',  ( -0.000000000000000000, -1.000000000000000000, -0.000000000000000000 ) ) ;
#387 = VECTOR ( 'NONE', #813, 1000.000000000000000 ) ;
#388 = FACE_OUTER_BOUND ( 'NONE', #684, .T. ) ;
#389 = DIRECTION ( 'NONE',  ( 0.000000000000000000, 0.000000000000000000, 1.000000000000000000 ) ) ;
#390 = AXIS2_PLACEMENT_3D ( 'NONE', #980, #876, #1287 ) ;
#391 = LINE ( 'NONE', #188, #135 ) ;
#392 = EDGE_CURVE ( 'NONE', #1102, #143, #184, .T. ) ;
#393 = ORIENTED_EDGE ( 'NONE', *, *, #979, .F. ) ;
#394 = EDGE_LOOP ( 'NONE', ( #94, #1208 ) ) ;
#395 = CARTESIAN_POINT ( 'NONE',  ( 3.234196154130031697, 0.3767271612682578374, -26.90470468897685663 ) ) ;
#396 = CARTESIAN_POINT ( 'NONE',  ( -2.499999999999999556, 13.99999999999999467, 15.99999999999999645 ) ) ;
#397 = ORIENTED_EDGE ( 'NONE', *, *, #480, .F. ) ;
#398 = DIRECTION ( 'NONE',  ( 1.000000000000000000, 0.000000000000000000, 0.000000000000000000 ) ) ;
#399 = EDGE_CURVE ( 'NONE', #506, #703, #1114, .T. ) ;
#400 = CARTESIAN_POINT ( 'NONE',  ( -7.500000000000000000, 30.00000000000000000, -30.00000000000000711 ) ) ;
#401 = LINE ( 'NONE', #322, #1037 ) ;
#402 = LINE ( 'NONE', #90, #1036 ) ;
#403 = EDGE_LOOP ( 'NONE', ( #538, #442, #1140, #514, #792 ) ) ;
#404 = ORIENTED_EDGE ( 'NONE', *, *, #964, .T. ) ;
#405 = AXIS2_PLACEMENT_3D ( 'NONE', #204, #386, #183 ) ;
#406 = DIRECTION ( 'NONE',  ( -0.000000000000000000, -1.000000000000000000, -0.000000000000000000 ) ) ;
#407 = AXIS2_PLACEMENT_3D ( 'NONE', #1056, #159, #558 ) ;
#408 = CIRCLE ( 'NONE', #477, 2.999999999999999112 ) ;
#409 = COLOUR_RGB ( '',0.2509803921568627416, 0.2509803921568627416, 0.2509803921568627416 ) ;
#410 = DIRECTION ( 'NONE',  ( 1.000000000000000000, -0.000000000000000000, 0.000000000000000000 ) ) ;
#411 = ORIENTED_EDGE ( 'NONE', *, *, #301, .F. ) ;
#412 = CARTESIAN_POINT ( 'NONE',  ( 0.000000000000000000, 0.000000000000000000, 0.000000000000000000 ) ) ;
#413 = LINE ( 'NONE', #123, #1170 ) ;
#414 = ORIENTED_EDGE ( 'NONE', *, *, #1237, .F. ) ;
#415 = CYLINDRICAL_SURFACE ( 'NONE', #595, 1.500000000000001332 ) ;
#416 = DIRECTION ( 'NONE',  ( -0.000000000000000000, 1.000000000000000000, -0.000000000000000000 ) ) ;
#417 = ORIENTED_EDGE ( 'NONE', *, *, #750, .T. ) ;
#418 = SURFACE_STYLE_FILL_AREA ( #139 ) ;
#419 = CARTESIAN_POINT ( 'NONE',  ( -4.000000000000000000, 0.000000000000000000, 24.00000000000000711 ) ) ;
#420 = ORIENTED_EDGE ( 'NONE', *, *, #769, .T. ) ;
#421 = CARTESIAN_POINT ( 'NONE',  ( -2.941348933152296397, 0.3393029696124698624, -26.81119637632018993 ) ) ;
#422 = EDGE_CURVE ( 'NONE', #435, #1065, #287, .T. ) ;
#423 = ORIENTED_EDGE ( 'NONE', *, *, #993, .T. ) ;
#424 = CARTESIAN_POINT ( 'NONE',  ( 1.804957146962065995, 0.1104124301691736393, 26.05065403410688063 ) ) ;
#425 = FACE_OUTER_BOUND ( 'NONE', #403, .T. ) ;
#426 = CIRCLE ( 'NONE', #1165, 2.999999999999999112 ) ;
#427 = AXIS2_PLACEMENT_3D ( 'NONE', #852, #274, #550 ) ;
#428 = CARTESIAN_POINT ( 'NONE',  ( 5.855966183829569793, 0.1881753276910671790, -26.36190385373364009 ) ) ;
#429 = VECTOR ( 'NONE', #74, 1000.000000000000000 ) ;
#430 = VERTEX_POINT ( 'NONE', #220 ) ;
#431 = EDGE_CURVE ( 'NONE', #20, #947, #1132, .T. ) ;
#432 = EDGE_LOOP ( 'NONE', ( #149, #642, #702, #171, #960, #86, #1197, #1211, #101, #1163 ) ) ;
#433 = CARTESIAN_POINT ( 'NONE',  ( 4.000000000000007105, 0.000000000000000000, -24.00000000000000711 ) ) ;
#434 = CARTESIAN_POINT ( 'NONE',  ( -1.804957146962065995, 0.1104124301691716131, -26.05065403410689484 ) ) ;
#435 = VERTEX_POINT ( 'NONE', #522 ) ;
#436 =( NAMED_UNIT ( * ) PLANE_ANGLE_UNIT ( ) SI_UNIT ( $, .RADIAN. ) );
#437 = CARTESIAN_POINT ( 'NONE',  ( -2.499999999999999556, 13.99999999999999467, 15.99999999999999645 ) ) ;
#438 = EDGE_CURVE ( 'NONE', #73, #39, #374, .T. ) ;
#439 = ORIENTED_EDGE ( 'NONE', *, *, #759, .T. ) ;
#440 = CARTESIAN_POINT ( 'NONE',  ( -4.000000000000000000, 10.00000000000000178, -24.00000000000000711 ) ) ;
#441 = PLANE ( 'NONE',  #289 ) ;
#442 = ORIENTED_EDGE ( 'NONE', *, *, #825, .T. ) ;
#443 = CARTESIAN_POINT ( 'NONE',  ( -4.311316907207321414, 0.4120474732992187583, 26.98780472190368940 ) ) ;
#444 = APPLICATION_CONTEXT ( 'automotive_design' ) ;
#445 = DIRECTION ( 'NONE',  ( 0.000000000000000000, 0.000000000000000000, 1.000000000000000000 ) ) ;
#446 = VERTEX_POINT ( 'NONE', #125 ) ;
#447 = DIRECTION ( 'NONE',  ( 0.000000000000000000, 0.000000000000000000, -1.000000000000000000 ) ) ;
#448 = EDGE_CURVE ( 'NONE', #623, #321, #180, .T. ) ;
#449 = STYLED_ITEM ( 'NONE', ( #530 ), #24 ) ;
#450 = CARTESIAN_POINT ( 'NONE',  ( 4.000000000000007105, 0.4174243050441709957, 27.00000000000000711 ) ) ;
#451 = AXIS2_PLACEMENT_3D ( 'NONE', #312, #1028, #724 ) ;
#452 = ORIENTED_EDGE ( 'NONE', *, *, #1093, .T. ) ;
#453 = CARTESIAN_POINT ( 'NONE',  ( -4.000000000000000000, 0.4174243050441708847, 27.00000000000000711 ) ) ;
#454 = AXIS2_PLACEMENT_3D ( 'NONE', #672, #485, #389 ) ;
#455 = AXIS2_PLACEMENT_3D ( 'NONE', #261, #65, #720 ) ;
#456 = LINE ( 'NONE', #628, #1087 ) ;
#457 = ORIENTED_EDGE ( 'NONE', *, *, #1129, .T. ) ;
#458 = CARTESIAN_POINT ( 'NONE',  ( 4.000000000000007105, -13.00000000000001776, -24.00000000000000711 ) ) ;
#459 = B_SPLINE_CURVE_WITH_KNOTS ( 'NONE', 3,
 ( #933, #714, #1120, #1141, #112, #26, #223, #40, #15, #245, #131, #424, #1023, #509, #127, #1212 ),
 .UNSPECIFIED., .F., .F.,
 ( 4, 2, 2, 2, 2, 2, 2, 4 ),
 ( 0.003703809747460031984, 0.004165821691806606900, 0.004627833636153181815, 0.005089845580499756730, 0.005551857524846330778, 0.006013869469192905694, 0.006475881413539480609, 0.007399905302232621766 ),
 .UNSPECIFIED. ) ;
#460 = CARTESIAN_POINT ( 'NONE',  ( 7.500000000000000888, 13.99999999999999822, -16.00000000000000355 ) ) ;
#461 = ORIENTED_EDGE ( 'NONE', *, *, #1099, .T. ) ;
#462 = EDGE_CURVE ( 'NONE', #994, #3, #1001, .T. ) ;
#463 = CARTESIAN_POINT ( 'NONE',  ( -5.202758054581842373, 0.3166608535749032005, 26.75259962440530970 ) ) ;
#464 = DIRECTION ( 'NONE',  ( 0.000000000000000000, 0.000000000000000000, -1.000000000000000000 ) ) ;
#465 = EDGE_LOOP ( 'NONE', ( #789, #669, #200, #339 ) ) ;
#466 = CARTESIAN_POINT ( 'NONE',  ( -6.828427124746190735, 0.000000000000000000, -25.00000000000000355 ) ) ;
#467 = CARTESIAN_POINT ( 'NONE',  ( -7.499999999999999112, 0.000000000000000000, 29.99999999999999289 ) ) ;
#468 = ORIENTED_EDGE ( 'NONE', *, *, #846, .T. ) ;
#469 = CARTESIAN_POINT ( 'NONE',  ( 7.500000000000000888, 5.000000000000004441, -25.00000000000000355 ) ) ;
#470 = EDGE_CURVE ( 'NONE', #1005, #612, #1121, .T. ) ;
#471 = ORIENTED_EDGE ( 'NONE', *, *, #498, .T. ) ;
#472 = DIRECTION ( 'NONE',  ( 1.000000000000000000, 0.000000000000000000, 0.000000000000000000 ) ) ;
#473 = FACE_BOUND ( 'NONE', #1222, .T. ) ;
#474 = CIRCLE ( 'NONE', #678, 2.999999999999999112 ) ;
#475 = LINE ( 'NONE', #280, #493 ) ;
#476 = AXIS2_PLACEMENT_3D ( 'NONE', #1216, #630, #897 ) ;
#477 = AXIS2_PLACEMENT_3D ( 'NONE', #1049, #150, #549 ) ;
#478 = EDGE_CURVE ( 'NONE', #693, #446, #352, .T. ) ;
#479 = AXIS2_PLACEMENT_3D ( 'NONE', #839, #363, #744 ) ;
#480 = EDGE_CURVE ( 'NONE', #446, #693, #639, .T. ) ;
#481 = AXIS2_PLACEMENT_3D ( 'NONE', #880, #295, #983 ) ;
#482 = CARTESIAN_POINT ( 'NONE',  ( -21.49999999999997158, 30.00000000000000000, -30.00000000000000711 ) ) ;
#483 = CARTESIAN_POINT ( 'NONE',  ( 4.000000000000007105, 0.4174243050441709957, 27.00000000000000711 ) ) ;
#484 = PRESENTATION_STYLE_ASSIGNMENT (( #582 ) ) ;
#485 = DIRECTION ( 'NONE',  ( -0.000000000000000000, 1.000000000000000000, -0.000000000000000000 ) ) ;
#486 = EDGE_CURVE ( 'NONE', #650, #248, #129, .T. ) ;
#487 = FACE_OUTER_BOUND ( 'NONE', #1040, .T. ) ;
#488 = CARTESIAN_POINT ( 'NONE',  ( -7.499999999999999112, 70.00000000000000000, 29.99999999999999289 ) ) ;
#489 = CARTESIAN_POINT ( 'NONE',  ( 7.500000000000000888, 5.000000000000004441, 24.99999999999998934 ) ) ;
#490 = DIRECTION ( 'NONE',  ( 0.000000000000000000, -0.000000000000000000, -1.000000000000000000 ) ) ;
#491 = EDGE_CURVE ( 'NONE', #703, #994, #1069, .T. ) ;
#492 = CARTESIAN_POINT ( 'NONE',  ( 7.500000000000000888, 70.00000000000000000, -30.00000000000000711 ) ) ;
#493 = VECTOR ( 'NONE', #147, 1000.000000000000000 ) ;
#494 = FILL_AREA_STYLE ('',( #282 ) ) ;
#495 = CARTESIAN_POINT ( 'NONE',  ( -2.499999999999999556, 13.99999999999999822, -14.00000000000000355 ) ) ;
#496 = CIRCLE ( 'NONE', #309, 1.500000000000001332 ) ;
#497 = DIRECTION ( 'NONE',  ( 0.000000000000000000, -1.000000000000000000, 0.000000000000000000 ) ) ;
#498 = EDGE_CURVE ( 'NONE', #342, #607, #885, .T. ) ;
#499 = CARTESIAN_POINT ( 'NONE',  ( -1.171572875253809265, 0.000000000000000000, -25.00000000000000355 ) ) ;
#500 = PRODUCT_CONTEXT ( 'NONE', #316, 'mechanical' ) ;
#501 = LINE ( 'NONE', #1202, #83 ) ;
#502 = ORIENTED_EDGE ( 'NONE', *, *, #936, .F. ) ;
#503 = CARTESIAN_POINT ( 'NONE',  ( 4.000000000000007105, 30.00000000000000000, 22.50000000000000711 ) ) ;
#504 = ORIENTED_EDGE ( 'NONE', *, *, #721, .F. ) ;
#505 = DIRECTION ( 'NONE',  ( 1.000000000000000000, -0.000000000000000000, -0.000000000000000000 ) ) ;
#506 = VERTEX_POINT ( 'NONE', #241 ) ;
#507 = CARTESIAN_POINT ( 'NONE',  ( -21.49999999999997158, 30.00000000000000000, 30.00000000000000711 ) ) ;
#508 = ORIENTED_EDGE ( 'NONE', *, *, #922, .T. ) ;
#509 = CARTESIAN_POINT ( 'NONE',  ( 1.426624545383782028, 0.02670840623465827249, 25.57195555858242031 ) ) ;
#510 = AXIS2_PLACEMENT_3D ( 'NONE', #285, #1094, #986 ) ;
#511 = CARTESIAN_POINT ( 'NONE',  ( -2.499999999999999556, 13.99999999999999467, 13.99999999999999645 ) ) ;
#512 = VECTOR ( 'NONE', #659, 1000.000000000000000 ) ;
#513 = ADVANCED_FACE ( 'NONE', ( #747, #473, #1149 ), #441, .F. ) ;
#514 = ORIENTED_EDGE ( 'NONE', *, *, #491, .T. ) ;
#515 = CIRCLE ( 'NONE', #1063, 2.999999999999999112 ) ;
#516 = CIRCLE ( 'NONE', #59, 1.500000000000001332 ) ;
#517 = CARTESIAN_POINT ( 'NONE',  ( 5.607200981043090948, 0.2414491705878044348, -26.53773625428940974 ) ) ;
#518 = ORIENTED_EDGE ( 'NONE', *, *, #883, .T. ) ;
#519 = LINE ( 'NONE', #805, #1231 ) ;
#520 = ORIENTED_EDGE ( 'NONE', *, *, #104, .F. ) ;
#521 = EDGE_CURVE ( 'NONE', #923, #597, #51, .T. ) ;
#522 = CARTESIAN_POINT ( 'NONE',  ( -4.000000000000000000, 10.00000000000000000, 21.00000000000000711 ) ) ;
#523 = ORIENTED_EDGE ( 'NONE', *, *, #1271, .F. ) ;
#524 = LINE ( 'NONE', #30, #1224 ) ;
#525 = DIRECTION ( 'NONE',  ( 1.000000000000000000, -0.000000000000000000, -0.000000000000000000 ) ) ;
#526 = EDGE_LOOP ( 'NONE', ( #722, #796, #303, #806 ) ) ;
#527 = EDGE_CURVE ( 'NONE', #1234, #1012, #694, .T. ) ;
#528 = CARTESIAN_POINT ( 'NONE',  ( 4.616757986734388197, 0.3916229776764929005, -26.93998381946949294 ) ) ;
#529 = EDGE_LOOP ( 'NONE', ( #879, #1048 ) ) ;
#530 = PRESENTATION_STYLE_ASSIGNMENT (( #540 ) ) ;
#531 = CYLINDRICAL_SURFACE ( 'NONE', #740, 2.999999999999999112 ) ;
#532 = CLOSED_SHELL ( 'NONE', ( #1071, #1189, #334, #1218, #1264, #892, #624, #189, #853, #689, #668, #742, #5, #877, #1294, #170, #513, #10, #1285, #801, #1139, #572, #1182, #1079, #168, #706, #310, #62, #1227, #1276, #18, #954, #360, #666, #599, #201 ) ) ;
#533 = EDGE_LOOP ( 'NONE', ( #376, #1153, #1215, #899, #1034 ) ) ;
#534 = LINE ( 'NONE', #264, #871 ) ;
#535 = AXIS2_PLACEMENT_3D ( 'NONE', #1198, #1192, #586 ) ;
#536 = CARTESIAN_POINT ( 'NONE',  ( -1.275871046606157799, 4.237705835113264596E-15, -25.29499977691441615 ) ) ;
#537 = VECTOR ( 'NONE', #95, 1000.000000000000000 ) ;
#538 = ORIENTED_EDGE ( 'NONE', *, *, #883, .F. ) ;
#539 = AXIS2_PLACEMENT_3D ( 'NONE', #437, #832, #733 ) ;
#540 = SURFACE_STYLE_USAGE ( .BOTH. , #235 ) ;
#541 = EDGE_CURVE ( 'NONE', #430, #324, #778, .T. ) ;
#542 = ORIENTED_EDGE ( 'NONE', *, *, #674, .T. ) ;
#543 = DIRECTION ( 'NONE',  ( -0.000000000000000000, 1.000000000000000000, -0.000000000000000000 ) ) ;
#544 = CARTESIAN_POINT ( 'NONE',  ( -6.723900309549402543, 3.811648262644349985E-18, -25.29564647936592792 ) ) ;
#545 = ORIENTED_EDGE ( 'NONE', *, *, #835, .F. ) ;
#546 = CARTESIAN_POINT ( 'NONE',  ( -3.234196154130022816, 0.3767271612682638882, 26.90470468897685308 ) ) ;
#547 = CARTESIAN_POINT ( 'NONE',  ( 4.000000000000007105, 10.00000000000000000, 24.00000000000000711 ) ) ;
#548 = ORIENTED_EDGE ( 'NONE', *, *, #273, .F. ) ;
#549 = DIRECTION ( 'NONE',  ( 0.000000000000000000, 0.000000000000000000, -1.000000000000000000 ) ) ;
#550 = DIRECTION ( 'NONE',  ( 0.000000000000000000, 0.000000000000000000, 1.000000000000000000 ) ) ;
#551 = ORIENTED_EDGE ( 'NONE', *, *, #124, .F. ) ;
#552 = DIRECTION ( 'NONE',  ( 1.000000000000000000, -0.000000000000000000, -0.000000000000000000 ) ) ;
#553 = CARTESIAN_POINT ( 'NONE',  ( -7.499999999999999112, 70.00000000000000000, -30.00000000000000711 ) ) ;
#554 = ORIENTED_EDGE ( 'NONE', *, *, #701, .F. ) ;
#555 = DIRECTION ( 'NONE',  ( -0.000000000000000000, 1.000000000000000000, -0.000000000000000000 ) ) ;
#556 = EDGE_CURVE ( 'NONE', #650, #633, #1143, .T. ) ;
#557 = AXIS2_PLACEMENT_3D ( 'NONE', #121, #1116, #1016 ) ;
#558 = DIRECTION ( 'NONE',  ( 0.000000000000000000, 0.000000000000000000, -1.000000000000000000 ) ) ;
#559 = ORIENTED_EDGE ( 'NONE', *, *, #701, .T. ) ;
#560 = CARTESIAN_POINT ( 'NONE',  ( -4.000000000000000000, -13.00000000000001776, 22.50000000000000711 ) ) ;
#561 = AXIS2_PLACEMENT_3D ( 'NONE', #874, #297, #290 ) ;
#562 = DIRECTION ( 'NONE',  ( 0.000000000000000000, 0.000000000000000000, -1.000000000000000000 ) ) ;
#563 = ORIENTED_EDGE ( 'NONE', *, *, #917, .T. ) ;
#564 = CARTESIAN_POINT ( 'NONE',  ( 4.000000000000007105, 10.00000000000000178, -22.50000000000000711 ) ) ;
#565 = FACE_BOUND ( 'NONE', #1246, .T. ) ;
#566 = EDGE_CURVE ( 'NONE', #1207, #73, #1245, .T. ) ;
#567 = EDGE_LOOP ( 'NONE', ( #25, #14, #1119, #452, #657 ) ) ;
#568 = CARTESIAN_POINT ( 'NONE',  ( -2.017261274591114262, 0.1610225205482181954, 26.27226350519109843 ) ) ;
#569 = CARTESIAN_POINT ( 'NONE',  ( -4.000000000000000000, 0.000000000000000000, 21.00000000000000711 ) ) ;
#570 = CARTESIAN_POINT ( 'NONE',  ( 7.500000000000000888, 0.000000000000000000, -25.00000000000000000 ) ) ;
#571 = DIRECTION ( 'NONE',  ( 0.000000000000000000, 0.000000000000000000, 1.000000000000000000 ) ) ;
#572 = ADVANCED_FACE ( 'NONE', ( #946, #565, #845 ), #68, .F. ) ;
#573 = ORIENTED_EDGE ( 'NONE', *, *, #263, .T. ) ;
#574 = CARTESIAN_POINT ( 'NONE',  ( -5.476682931919106601, 0.2677493673250207484, 26.61588209763295154 ) ) ;
#575 = VERTEX_POINT ( 'NONE', #169 ) ;
#576 = DIRECTION ( 'NONE',  ( 0.000000000000000000, 1.000000000000000000, 0.000000000000000000 ) ) ;
#577 = DIRECTION ( 'NONE',  ( 1.000000000000000000, -0.000000000000000000, -0.000000000000000000 ) ) ;
#578 = AXIS2_PLACEMENT_3D ( 'NONE', #1090, #590, #490 ) ;
#579 = CARTESIAN_POINT ( 'NONE',  ( 7.500000000000000888, 30.00000000000000000, -30.00000000000000711 ) ) ;
#580 = VECTOR ( 'NONE', #359, 1000.000000000000000 ) ;
#581 = CIRCLE ( 'NONE', #34, 2.000000000000000000 ) ;
#582 = SURFACE_STYLE_USAGE ( .BOTH. , #1265 ) ;
#583 = EDGE_CURVE ( 'NONE', #506, #73, #1171, .T. ) ;
#584 = CYLINDRICAL_SURFACE ( 'NONE', #390, 2.999999999999999112 ) ;
#585 = B_SPLINE_CURVE_WITH_KNOTS ( 'NONE', 3,
 ( #588, #1284, #383, #881, #278, #984, #974, #395, #81, #182, #591, #989 ),
 .UNSPECIFIED., .F., .F.,
 ( 4, 2, 2, 2, 2, 4 ),
 ( 0.000000000000000000, 0.0009259524368650034424, 0.001851904873730006885, 0.002777857310595010544, 0.003240833529027512590, 0.003703809747460015504 ),
 .UNSPECIFIED. ) ;
#586 = DIRECTION ( 'NONE',  ( 0.000000000000000000, 0.000000000000000000, 1.000000000000000000 ) ) ;
#587 = DIRECTION ( 'NONE',  ( 1.000000000000000000, -0.000000000000000000, -0.000000000000000000 ) ) ;
#588 = CARTESIAN_POINT ( 'NONE',  ( 1.171572875253816148, 0.000000000000000000, -25.00000000000000355 ) ) ;
#589 = FACE_OUTER_BOUND ( 'NONE', #1172, .T. ) ;
#590 = DIRECTION ( 'NONE',  ( 0.000000000000000000, -1.000000000000000000, 0.000000000000000000 ) ) ;
#591 = CARTESIAN_POINT ( 'NONE',  ( 3.845281356987452437, 0.4174243050441663327, -27.00000000000001421 ) ) ;
#592 = DIRECTION ( 'NONE',  ( 1.000000000000000000, -0.000000000000000000, -0.000000000000000000 ) ) ;
#593 = ORIENTED_EDGE ( 'NONE', *, *, #1230, .F. ) ;
#594 = AXIS2_PLACEMENT_3D ( 'NONE', #2, #679, #196 ) ;
#595 = AXIS2_PLACEMENT_3D ( 'NONE', #610, #807, #337 ) ;
#596 = CARTESIAN_POINT ( 'NONE',  ( 4.000000000000007105, -13.00000000000001776, -22.50000000000000711 ) ) ;
#597 = VERTEX_POINT ( 'NONE', #1155 ) ;
#598 = CARTESIAN_POINT ( 'NONE',  ( -4.000000000000000000, -13.00000000000001776, 24.00000000000000711 ) ) ;
#599 = ADVANCED_FACE ( 'NONE', ( #257 ), #652, .T. ) ;
#600 = DIRECTION ( 'NONE',  ( 0.000000000000000000, -1.000000000000000000, 0.000000000000000000 ) ) ;
#601 = EDGE_LOOP ( 'NONE', ( #1009, #119, #748, #58 ) ) ;
#602 = CARTESIAN_POINT ( 'NONE',  ( -4.000000000000000000, 30.00000000000000000, -25.50000000000000711 ) ) ;
#603 = EDGE_LOOP ( 'NONE', ( #710, #197 ) ) ;
#604 = DIRECTION ( 'NONE',  ( -0.000000000000000000, -1.000000000000000000, -0.000000000000000000 ) ) ;
#605 = CARTESIAN_POINT ( 'NONE',  ( 0.000000000000000000, 0.000000000000000000, -25.00000000000000355 ) ) ;
#606 = EDGE_LOOP ( 'NONE', ( #1232, #1266, #886, #520 ) ) ;
#607 = VERTEX_POINT ( 'NONE', #956 ) ;
#608 = EDGE_CURVE ( 'NONE', #735, #1031, #1169, .T. ) ;
#609 = CARTESIAN_POINT ( 'NONE',  ( 4.000000000000007105, 0.000000000000000000, 24.00000000000000711 ) ) ;
#610 = CARTESIAN_POINT ( 'NONE',  ( -4.000000000000000000, -13.00000000000001776, -24.00000000000000711 ) ) ;
#611 = DIRECTION ( 'NONE',  ( 1.000000000000000000, -0.000000000000000000, -0.000000000000000000 ) ) ;
#612 = VERTEX_POINT ( 'NONE', #89 ) ;
#613 = DIRECTION ( 'NONE',  ( 0.000000000000000000, 0.000000000000000000, -1.000000000000000000 ) ) ;
#614 = CIRCLE ( 'NONE', #594, 2.999999999999999112 ) ;
#615 = EDGE_CURVE ( 'NONE', #1012, #1234, #867, .T. ) ;
#616 = DIRECTION ( 'NONE',  ( -0.000000000000000000, 1.000000000000000000, -0.000000000000000000 ) ) ;
#617 = CIRCLE ( 'NONE', #55, 1.500000000000001332 ) ;
#618 = CIRCLE ( 'NONE', #311, 1.500000000000001332 ) ;
#619 = CARTESIAN_POINT ( 'NONE',  ( 4.000000000000007105, 0.4174243050441656111, -27.00000000000000711 ) ) ;
#620 = ORIENTED_EDGE ( 'NONE', *, *, #527, .F. ) ;
#621 = FILL_AREA_STYLE_COLOUR ( '', #1203 ) ;
#622 = DIRECTION ( 'NONE',  ( 0.000000000000000000, 0.000000000000000000, 1.000000000000000000 ) ) ;
#623 = VERTEX_POINT ( 'NONE', #195 ) ;
#624 = ADVANCED_FACE ( 'NONE', ( #381 ), #102, .F. ) ;
#625 = DIRECTION ( 'NONE',  ( 0.000000000000000000, 1.000000000000000000, 0.000000000000000000 ) ) ;
#626 = ORIENTED_EDGE ( 'NONE', *, *, #901, .F. ) ;
#627 = DIRECTION ( 'NONE',  ( 0.000000000000000000, -0.000000000000000000, -1.000000000000000000 ) ) ;
#628 = CARTESIAN_POINT ( 'NONE',  ( 7.500000000000000888, 5.000000000000004441, -30.00000000000000711 ) ) ;
#629 = EDGE_LOOP ( 'NONE', ( #1054, #1201, #439, #423 ) ) ;
#630 = DIRECTION ( 'NONE',  ( -0.000000000000000000, 1.000000000000000000, -0.000000000000000000 ) ) ;
#631 = CARTESIAN_POINT ( 'NONE',  ( -3.845603600705648439, 0.4174243050441661107, -27.00000000000000355 ) ) ;
#632 = EDGE_CURVE ( 'NONE', #928, #783, #1278, .T. ) ;
#633 = VERTEX_POINT ( 'NONE', #1280 ) ;
#634 = DIRECTION ( 'NONE',  ( 0.000000000000000000, -1.000000000000000000, 0.000000000000000000 ) ) ;
#635 = CARTESIAN_POINT ( 'NONE',  ( 4.000000000000007105, 10.00000000000000000, -24.00000000000000711 ) ) ;
#636 = AXIS2_PLACEMENT_3D ( 'NONE', #788, #497, #690 ) ;
#637 = EDGE_LOOP ( 'NONE', ( #11, #397 ) ) ;
#638 = DIRECTION ( 'NONE',  ( 0.000000000000000000, 0.000000000000000000, 1.000000000000000000 ) ) ;
#639 = CIRCLE ( 'NONE', #451, 1.500000000000001332 ) ;
#640 = AXIS2_PLACEMENT_3D ( 'NONE', #272, #651, #665 ) ;
#641 = DIRECTION ( 'NONE',  ( 0.000000000000000000, -1.000000000000000000, 0.000000000000000000 ) ) ;
#642 = ORIENTED_EDGE ( 'NONE', *, *, #399, .F. ) ;
#643 = ORIENTED_EDGE ( 'NONE', *, *, #934, .F. ) ;
#644 = CARTESIAN_POINT ( 'NONE',  ( -4.000000000000000000, 0.4174243050441708847, 27.00000000000000711 ) ) ;
#645 = CARTESIAN_POINT ( 'NONE',  ( 4.765803845869984734, 0.3767271612682638326, 26.90470468897686374 ) ) ;
#646 = ORIENTED_EDGE ( 'NONE', *, *, #399, .T. ) ;
#647 = DIRECTION ( 'NONE',  ( 1.000000000000000000, -0.000000000000000000, -0.000000000000000000 ) ) ;
#648 = CARTESIAN_POINT ( 'NONE',  ( -2.499999999999999556, 13.99999999999999822, -16.00000000000000355 ) ) ;
#649 = EDGE_CURVE ( 'NONE', #1077, #923, #140, .T. ) ;
#650 = VERTEX_POINT ( 'NONE', #1185 ) ;
#651 = DIRECTION ( 'NONE',  ( 1.000000000000000000, -0.000000000000000000, -0.000000000000000000 ) ) ;
#652 = CYLINDRICAL_SURFACE ( 'NONE', #407, 5.000000000000000888 ) ;
#653 = ORIENTED_EDGE ( 'NONE', *, *, #1027, .F. ) ;
#654 = CARTESIAN_POINT ( 'NONE',  ( 7.500000000000000888, 70.00000000000000000, 29.99999999999999289 ) ) ;
#655 = FACE_BOUND ( 'NONE', #603, .T. ) ;
#656 = EDGE_CURVE ( 'NONE', #237, #506, #1017, .T. ) ;
#657 = ORIENTED_EDGE ( 'NONE', *, *, #178, .T. ) ;
#658 = CARTESIAN_POINT ( 'NONE',  ( 4.000000000000007105, 10.00000000000000178, -24.00000000000000711 ) ) ;
#659 = DIRECTION ( 'NONE',  ( -1.000000000000000000, 0.000000000000000000, -0.000000000000000000 ) ) ;
#660 = ORIENTED_EDGE ( 'NONE', *, *, #790, .T. ) ;
#661 = LINE ( 'NONE', #560, #327 ) ;
#662 = VECTOR ( 'NONE', #315, 1000.000000000000000 ) ;
#663 = CYLINDRICAL_SURFACE ( 'NONE', #481, 2.999999999999999112 ) ;
#664 = ORIENTED_EDGE ( 'NONE', *, *, #757, .T. ) ;
#665 = DIRECTION ( 'NONE',  ( 0.000000000000000000, 0.000000000000000000, -1.000000000000000000 ) ) ;
#666 = ADVANCED_FACE ( 'NONE', ( #589 ), #284, .F. ) ;
#667 = CARTESIAN_POINT ( 'NONE',  ( -6.202946278322706952, 0.1072206740642300260, -26.05986280904955166 ) ) ;
#668 = ADVANCED_FACE ( 'NONE', ( #1006 ), #415, .F. ) ;
#669 = ORIENTED_EDGE ( 'NONE', *, *, #786, .F. ) ;
#670 = CARTESIAN_POINT ( 'NONE',  ( -1.422549233279295278, 0.02585699698110779932, 25.56612727529158846 ) ) ;
#671 = ORIENTED_EDGE ( 'NONE', *, *, #894, .F. ) ;
#672 = CARTESIAN_POINT ( 'NONE',  ( -4.000000000000000000, -13.00000000000001776, 24.00000000000000711 ) ) ;
#673 = CARTESIAN_POINT ( 'NONE',  ( -7.499999999999999112, 5.000000000000004441, -25.00000000000000355 ) ) ;
#674 = EDGE_CURVE ( 'NONE', #39, #1115, #723, .T. ) ;
#675 = PLANE ( 'NONE',  #636 ) ;
#676 = SURFACE_STYLE_FILL_AREA ( #494 ) ;
#677 = DIRECTION ( 'NONE',  ( 0.000000000000000000, 0.000000000000000000, -1.000000000000000000 ) ) ;
#678 = AXIS2_PLACEMENT_3D ( 'NONE', #992, #1205, #1183 ) ;
#679 = DIRECTION ( 'NONE',  ( 0.000000000000000000, -1.000000000000000000, 0.000000000000000000 ) ) ;
#680 = AXIS2_PLACEMENT_3D ( 'NONE', #1177, #1181, #279 ) ;
#681 = CIRCLE ( 'NONE', #270, 2.999999999999999112 ) ;
#682 = DIRECTION ( 'NONE',  ( 0.000000000000000000, -1.000000000000000000, 0.000000000000000000 ) ) ;
#683 = PLANE ( 'NONE',  #578 ) ;
#684 = EDGE_LOOP ( 'NONE', ( #372, #417, #353, #920, #133, #222, #896, #69, #741, #646, #1190, #364, #1243, #1126, #545, #262 ) ) ;
#685 = CARTESIAN_POINT ( 'NONE',  ( -7.499999999999999112, 30.00000000000000000, 29.99999999999999289 ) ) ;
#686 = CARTESIAN_POINT ( 'NONE',  ( 4.000000000000007105, 0.000000000000000000, -21.00000000000000711 ) ) ;
#687 = FACE_OUTER_BOUND ( 'NONE', #803, .T. ) ;
#688 = PLANE ( 'NONE',  #820 ) ;
#689 = ADVANCED_FACE ( 'NONE', ( #109 ), #231, .F. ) ;
#690 = DIRECTION ( 'NONE',  ( 0.000000000000000000, -0.000000000000000000, -1.000000000000000000 ) ) ;
#691 = CIRCLE ( 'NONE', #975, 1.500000000000001332 ) ;
#692 = EDGE_LOOP ( 'NONE', ( #1003, #255, #932, #819 ) ) ;
#693 = VERTEX_POINT ( 'NONE', #904 ) ;
#694 = CIRCLE ( 'NONE', #427, 1.500000000000001332 ) ;
#695 = DIRECTION ( 'NONE',  ( -0.000000000000000000, -1.000000000000000000, -0.000000000000000000 ) ) ;
#696 = VECTOR ( 'NONE', #1042, 1000.000000000000000 ) ;
#697 =( GEOMETRIC_REPRESENTATION_CONTEXT ( 3 ) GLOBAL_UNCERTAINTY_ASSIGNED_CONTEXT ( ( #122 ) ) GLOBAL_UNIT_ASSIGNED_CONTEXT ( ( #288, #1096, #997 ) ) REPRESENTATION_CONTEXT ( 'NONE', 'WORKASPACE' ) );
#698 = DIRECTION ( 'NONE',  ( 0.000000000000000000, 0.000000000000000000, -1.000000000000000000 ) ) ;
#699 = EDGE_CURVE ( 'NONE', #20, #39, #401, .T. ) ;
#700 = CARTESIAN_POINT ( 'NONE',  ( 4.000000000000007105, 10.00000000000000000, -21.00000000000000711 ) ) ;
#701 = EDGE_CURVE ( 'NONE', #633, #623, #217, .T. ) ;
#702 = ORIENTED_EDGE ( 'NONE', *, *, #656, .F. ) ;
#703 = VERTEX_POINT ( 'NONE', #466 ) ;
#704 = DIRECTION ( 'NONE',  ( 0.000000000000000000, 0.000000000000000000, -1.000000000000000000 ) ) ;
#705 = CARTESIAN_POINT ( 'NONE',  ( 6.828427124746197840, 0.000000000000000000, -25.00000000000000355 ) ) ;
#706 = ADVANCED_FACE ( 'NONE', ( #736 ), #1260, .T. ) ;
#707 = ORIENTED_EDGE ( 'NONE', *, *, #608, .T. ) ;
#708 = CYLINDRICAL_SURFACE ( 'NONE', #557, 2.999999999999999112 ) ;
#709 = CARTESIAN_POINT ( 'NONE',  ( 7.500000000000000888, 13.99999999999999467, 15.99999999999999645 ) ) ;
#710 = ORIENTED_EDGE ( 'NONE', *, *, #993, .F. ) ;
#711 = DIRECTION ( 'NONE',  ( -0.000000000000000000, -1.000000000000000000, -0.000000000000000000 ) ) ;
#712 = CARTESIAN_POINT ( 'NONE',  ( -1.426624545383782916, 0.02670840623465753003, -25.57195555858243452 ) ) ;
#713 = ORIENTED_EDGE ( 'NONE', *, *, #244, .T. ) ;
#714 = CARTESIAN_POINT ( 'NONE',  ( 3.845603600705656877, 0.4174243050441705516, 27.00000000000001066 ) ) ;
#715 = CARTESIAN_POINT ( 'NONE',  ( 7.500000000000000888, 70.00000000000000000, -30.00000000000000711 ) ) ;
#716 = AXIS2_PLACEMENT_3D ( 'NONE', #1055, #555, #1191 ) ;
#717 = DIRECTION ( 'NONE',  ( 0.000000000000000000, -1.000000000000000000, 0.000000000000000000 ) ) ;
#718 = ORIENTED_EDGE ( 'NONE', *, *, #815, .F. ) ;
#719 = DIRECTION ( 'NONE',  ( 1.000000000000000000, 0.000000000000000000, 0.000000000000000000 ) ) ;
#720 = DIRECTION ( 'NONE',  ( 0.000000000000000000, 0.000000000000000000, -1.000000000000000000 ) ) ;
#721 = EDGE_CURVE ( 'NONE', #809, #752, #617, .T. ) ;
#722 = ORIENTED_EDGE ( 'NONE', *, *, #608, .F. ) ;
#723 = LINE ( 'NONE', #1107, #31 ) ;
#724 = DIRECTION ( 'NONE',  ( 0.000000000000000000, 0.000000000000000000, 1.000000000000000000 ) ) ;
#725 = ORIENTED_EDGE ( 'NONE', *, *, #71, .F. ) ;
#726 = CARTESIAN_POINT ( 'NONE',  ( -2.499999999999999556, 13.99999999999999467, 17.99999999999999645 ) ) ;
#727 = FACE_BOUND ( 'NONE', #1060, .T. ) ;
#728 = ORIENTED_EDGE ( 'NONE', *, *, #104, .T. ) ;
#729 = LINE ( 'NONE', #67, #219 ) ;
#730 = CARTESIAN_POINT ( 'NONE',  ( 5.480882475491925199, 0.2685047408181733819, 26.62705564920889145 ) ) ;
#731 = VERTEX_POINT ( 'NONE', #60 ) ;
#732 = CARTESIAN_POINT ( 'NONE',  ( -7.499999999999999112, 5.000000000000004441, 29.99999999999999289 ) ) ;
#733 = DIRECTION ( 'NONE',  ( 0.000000000000000000, 0.000000000000000000, -1.000000000000000000 ) ) ;
#734 = AXIS2_PLACEMENT_3D ( 'NONE', #1167, #299, #271 ) ;
#735 = VERTEX_POINT ( 'NONE', #144 ) ;
#736 = FACE_OUTER_BOUND ( 'NONE', #1156, .T. ) ;
#737 = AXIS2_PLACEMENT_3D ( 'NONE', #1050, #641, #836 ) ;
#738 = CIRCLE ( 'NONE', #57, 1.500000000000001332 ) ;
#739 = CARTESIAN_POINT ( 'NONE',  ( -4.765803845869975852, 0.3767271612682576709, -26.90470468897686018 ) ) ;
#740 = AXIS2_PLACEMENT_3D ( 'NONE', #926, #959, #562 ) ;
#741 = ORIENTED_EDGE ( 'NONE', *, *, #583, .F. ) ;
#742 = ADVANCED_FACE ( 'NONE', ( #249 ), #167, .F. ) ;
#743 = CARTESIAN_POINT ( 'NONE',  ( -2.499999999999999556, 13.99999999999999467, 15.99999999999999645 ) ) ;
#744 = DIRECTION ( 'NONE',  ( 0.000000000000000000, 0.000000000000000000, -1.000000000000000000 ) ) ;
#745 = ORIENTED_EDGE ( 'NONE', *, *, #943, .T. ) ;
#746 = CARTESIAN_POINT ( 'NONE',  ( -4.000000000000000000, 30.00000000000000000, 24.00000000000000711 ) ) ;
#747 = FACE_BOUND ( 'NONE', #847, .T. ) ;
#748 = ORIENTED_EDGE ( 'NONE', *, *, #922, .F. ) ;
#749 = CARTESIAN_POINT ( 'NONE',  ( -3.845281356987445331, 0.4174243050441721614, 27.00000000000000711 ) ) ;
#750 = EDGE_CURVE ( 'NONE', #160, #430, #729, .T. ) ;
#751 = CARTESIAN_POINT ( 'NONE',  ( -4.000000000000000000, 10.00000000000000178, 22.50000000000000711 ) ) ;
#752 = VERTEX_POINT ( 'NONE', #564 ) ;
#753 = CARTESIAN_POINT ( 'NONE',  ( -4.000000000000000000, 30.00000000000000000, 22.50000000000000711 ) ) ;
#754 = CARTESIAN_POINT ( 'NONE',  ( -5.982738725408879965, 0.1610225205482167798, -26.27226350519110909 ) ) ;
#755 = ORIENTED_EDGE ( 'NONE', *, *, #78, .F. ) ;
#756 = CARTESIAN_POINT ( 'NONE',  ( -6.296146827527550727, 0.08698943141861656403, 25.93675918058493579 ) ) ;
#757 = EDGE_CURVE ( 'NONE', #286, #812, #1250, .T. ) ;
#758 = CYLINDRICAL_SURFACE ( 'NONE', #734, 1.500000000000001332 ) ;
#759 = EDGE_CURVE ( 'NONE', #251, #731, #343, .T. ) ;
#760 = DIRECTION ( 'NONE',  ( -0.000000000000000000, 1.000000000000000000, -0.000000000000000000 ) ) ;
#761 = CARTESIAN_POINT ( 'NONE',  ( 6.577450766720709829, 0.02585699698110782360, 25.56612727529158846 ) ) ;
#762 = AXIS2_PLACEMENT_3D ( 'NONE', #673, #293, #84 ) ;
#763 = ORIENTED_EDGE ( 'NONE', *, *, #351, .T. ) ;
#764 = CARTESIAN_POINT ( 'NONE',  ( -1.171572875253803936, 0.000000000000000000, 24.99999999999998934 ) ) ;
#765 = CIRCLE ( 'NONE', #202, 2.999999999999999112 ) ;
#766 = AXIS2_PLACEMENT_3D ( 'NONE', #488, #1283, #771 ) ;
#767 = ORIENTED_EDGE ( 'NONE', *, *, #943, .F. ) ;
#768 = DIRECTION ( 'NONE',  ( -0.000000000000000000, 1.000000000000000000, -0.000000000000000000 ) ) ;
#769 = EDGE_CURVE ( 'NONE', #752, #809, #13, .T. ) ;
#770 = CARTESIAN_POINT ( 'NONE',  ( -2.499999999999999556, 13.99999999999999467, 15.99999999999999645 ) ) ;
#771 = DIRECTION ( 'NONE',  ( 0.000000000000000000, 0.000000000000000000, -1.000000000000000000 ) ) ;
#772 = CARTESIAN_POINT ( 'NONE',  ( -2.499999999999999556, 13.99999999999999822, -16.00000000000000355 ) ) ;
#773 = CARTESIAN_POINT ( 'NONE',  ( 7.500000000000000888, 5.000000000000004441, -25.00000000000000355 ) ) ;
#774 = CARTESIAN_POINT ( 'NONE',  ( 4.000000000000007105, 10.00000000000000178, 22.50000000000000711 ) ) ;
#775 = EDGE_LOOP ( 'NONE', ( #1022, #707 ) ) ;
#776 = CARTESIAN_POINT ( 'NONE',  ( 7.500000000000000888, 30.00000000000000000, 30.00000000000000711 ) ) ;
#777 = DIRECTION ( 'NONE',  ( 0.000000000000000000, 0.000000000000000000, -1.000000000000000000 ) ) ;
#778 = B_SPLINE_CURVE_WITH_KNOTS ( 'NONE', 3,
 ( #969, #265, #761, #344, #250, #730, #962, #645, #1268, #1261, #1138, #450 ),
 .UNSPECIFIED., .F., .F.,
 ( 4, 2, 2, 2, 2, 4 ),
 ( 0.000000000000000000, 0.0009259524368650086466, 0.001851904873730017293, 0.002777857310595025723, 0.003240833529027528637, 0.003703809747460031984 ),
 .UNSPECIFIED. ) ;
#779 = AXIS2_PLACEMENT_3D ( 'NONE', #802, #931, #1033 ) ;
#780 = CARTESIAN_POINT ( 'NONE',  ( -62.50000000000000000, 30.00000000000000000, 17.00000000000000000 ) ) ;
#781 = CIRCLE ( 'NONE', #82, 1.500000000000001332 ) ;
#782 = CYLINDRICAL_SURFACE ( 'NONE', #454, 1.500000000000001332 ) ;
#783 = VERTEX_POINT ( 'NONE', #851 ) ;
#784 = CARTESIAN_POINT ( 'NONE',  ( -4.000000000000000000, -13.00000000000001776, -25.50000000000000711 ) ) ;
#785 = DIRECTION ( 'NONE',  ( 1.000000000000000000, 0.000000000000000000, -0.000000000000000000 ) ) ;
#786 = EDGE_CURVE ( 'NONE', #1031, #735, #738, .T. ) ;
#787 = CARTESIAN_POINT ( 'NONE',  ( 4.000000000000007105, 30.00000000000000000, 24.00000000000000711 ) ) ;
#788 = CARTESIAN_POINT ( 'NONE',  ( -4.000000000000000000, 10.00000000000000000, 24.00000000000000711 ) ) ;
#789 = ORIENTED_EDGE ( 'NONE', *, *, #385, .F. ) ;
#790 = EDGE_CURVE ( 'NONE', #575, #227, #581, .T. ) ;
#791 = CARTESIAN_POINT ( 'NONE',  ( -7.500000000000000000, 30.00000000000000000, 17.00000000000000000 ) ) ;
#792 = ORIENTED_EDGE ( 'NONE', *, *, #1195, .F. ) ;
#793 = CARTESIAN_POINT ( 'NONE',  ( 7.500000000000000888, 13.99999999999999467, 17.99999999999999645 ) ) ;
#794 = AXIS2_PLACEMENT_3D ( 'NONE', #654, #172, #1282 ) ;
#795 = EDGE_LOOP ( 'NONE', ( #29, #1262, #970, #563, #554 ) ) ;
#796 = ORIENTED_EDGE ( 'NONE', *, *, #385, .T. ) ;
#797 = VECTOR ( 'NONE', #1109, 1000.000000000000000 ) ;
#798 = SHAPE_DEFINITION_REPRESENTATION ( #152, #292 ) ;
#799 = CIRCLE ( 'NONE', #561, 2.999999999999999112 ) ;
#800 = DIRECTION ( 'NONE',  ( -0.000000000000000000, -1.000000000000000000, -0.000000000000000000 ) ) ;
#801 = ADVANCED_FACE ( 'NONE', ( #1168 ), #158, .F. ) ;
#802 = CARTESIAN_POINT ( 'NONE',  ( -4.000000000000000000, 10.00000000000000000, 24.00000000000000711 ) ) ;
#803 = EDGE_LOOP ( 'NONE', ( #888, #1200 ) ) ;
#804 = DIRECTION ( 'NONE',  ( 1.000000000000000000, -0.000000000000000000, -0.000000000000000000 ) ) ;
#805 = CARTESIAN_POINT ( 'NONE',  ( 4.000000000000007105, -13.00000000000001776, 22.50000000000000711 ) ) ;
#806 = ORIENTED_EDGE ( 'NONE', *, *, #156, .F. ) ;
#807 = DIRECTION ( 'NONE',  ( -0.000000000000000000, 1.000000000000000000, -0.000000000000000000 ) ) ;
#808 = CARTESIAN_POINT ( 'NONE',  ( 4.766163665853968112, 0.3766764907235957138, -26.90457576673406948 ) ) ;
#809 = VERTEX_POINT ( 'NONE', #1148 ) ;
#810 = DIRECTION ( 'NONE',  ( 0.000000000000000000, 0.000000000000000000, -1.000000000000000000 ) ) ;
#811 = DIRECTION ( 'NONE',  ( 0.000000000000000000, -1.000000000000000000, 0.000000000000000000 ) ) ;
#812 = VERTEX_POINT ( 'NONE', #753 ) ;
#813 = DIRECTION ( 'NONE',  ( 1.000000000000000000, -0.000000000000000000, -0.000000000000000000 ) ) ;
#814 = ORIENTED_EDGE ( 'NONE', *, *, #1062, .T. ) ;
#815 = EDGE_CURVE ( 'NONE', #367, #1146, #141, .T. ) ;
#816 = CIRCLE ( 'NONE', #510, 17.00000000000000000 ) ;
#817 = DIRECTION ( 'NONE',  ( 0.000000000000000000, 1.000000000000000000, 0.000000000000000000 ) ) ;
#818 = AXIS2_PLACEMENT_3D ( 'NONE', #1233, #28, #1210 ) ;
#819 = ORIENTED_EDGE ( 'NONE', *, *, #263, .F. ) ;
#820 = AXIS2_PLACEMENT_3D ( 'NONE', #1019, #9, #1025 ) ;
#821 = CARTESIAN_POINT ( 'NONE',  ( -4.000000000000000000, 10.00000000000000000, -24.00000000000000711 ) ) ;
#822 = CARTESIAN_POINT ( 'NONE',  ( -2.024901816833635237, 0.1609820894024578952, -26.26326804888963906 ) ) ;
#823 = ORIENTED_EDGE ( 'NONE', *, *, #964, .F. ) ;
#824 = CARTESIAN_POINT ( 'NONE',  ( -4.000000000000000000, -13.00000000000001776, 25.50000000000000711 ) ) ;
#825 = EDGE_CURVE ( 'NONE', #612, #833, #534, .T. ) ;
#826 = FACE_OUTER_BOUND ( 'NONE', #1136, .T. ) ;
#827 = VERTEX_POINT ( 'NONE', #945 ) ;
#828 = DIRECTION ( 'NONE',  ( 0.000000000000000000, -1.000000000000000000, 0.000000000000000000 ) ) ;
#829 = DIRECTION ( 'NONE',  ( 0.000000000000000000, 0.000000000000000000, 1.000000000000000000 ) ) ;
#830 = ORIENTED_EDGE ( 'NONE', *, *, #856, .T. ) ;
#831 = CARTESIAN_POINT ( 'NONE',  ( -4.000000000000000000, 0.000000000000000000, -24.00000000000000711 ) ) ;
#832 = DIRECTION ( 'NONE',  ( 1.000000000000000000, -0.000000000000000000, -0.000000000000000000 ) ) ;
#833 = VERTEX_POINT ( 'NONE', #37 ) ;
#834 = DIRECTION ( 'NONE',  ( 0.000000000000000000, 0.000000000000000000, -1.000000000000000000 ) ) ;
#835 = EDGE_CURVE ( 'NONE', #321, #248, #1103, .T. ) ;
#836 = DIRECTION ( 'NONE',  ( 0.000000000000000000, 0.000000000000000000, -1.000000000000000000 ) ) ;
#837 = ORIENTED_EDGE ( 'NONE', *, *, #239, .T. ) ;
#838 = CARTESIAN_POINT ( 'NONE',  ( -4.000000000000000000, 0.4174243050441708847, 27.00000000000000711 ) ) ;
#839 = CARTESIAN_POINT ( 'NONE',  ( -2.499999999999999556, 13.99999999999999822, -16.00000000000000355 ) ) ;
#840 =( GEOMETRIC_REPRESENTATION_CONTEXT ( 3 ) GLOBAL_UNCERTAINTY_ASSIGNED_CONTEXT ( ( #198 ) ) GLOBAL_UNIT_ASSIGNED_CONTEXT ( ( #1134, #436, #214 ) ) REPRESENTATION_CONTEXT ( 'NONE', 'WORKASPACE' ) );
#841 = VERTEX_POINT ( 'NONE', #644 ) ;
#842 = DIRECTION ( 'NONE',  ( 0.000000000000000000, 0.000000000000000000, 1.000000000000000000 ) ) ;
#843 = AXIS2_PLACEMENT_3D ( 'NONE', #460, #176, #45 ) ;
#844 = AXIS2_PLACEMENT_3D ( 'NONE', #865, #682, #890 ) ;
#845 = FACE_OUTER_BOUND ( 'NONE', #601, .T. ) ;
#846 = EDGE_CURVE ( 'NONE', #597, #430, #408, .T. ) ;
#847 = EDGE_LOOP ( 'NONE', ( #973, #653 ) ) ;
#848 = DIRECTION ( 'NONE',  ( 0.000000000000000000, 0.000000000000000000, 1.000000000000000000 ) ) ;
#849 = CARTESIAN_POINT ( 'NONE',  ( -21.49999999999997158, 30.00000000000000000, 30.00000000000000711 ) ) ;
#850 = ORIENTED_EDGE ( 'NONE', *, *, #521, .T. ) ;
#851 = CARTESIAN_POINT ( 'NONE',  ( 7.500000000000000888, 5.000000000000004441, -30.00000000000000711 ) ) ;
#852 = CARTESIAN_POINT ( 'NONE',  ( -4.000000000000000000, 30.00000000000000000, -24.00000000000000711 ) ) ;
#853 = ADVANCED_FACE ( 'NONE', ( #358 ), #256, .F. ) ;
#854 = VERTEX_POINT ( 'NONE', #495 ) ;
#855 = CARTESIAN_POINT ( 'NONE',  ( -5.855966183829568905, 0.1881753276910690109, 26.36190385373364364 ) ) ;
#856 = EDGE_CURVE ( 'NONE', #213, #731, #781, .T. ) ;
#857 = FACE_OUTER_BOUND ( 'NONE', #858, .T. ) ;
#858 = EDGE_LOOP ( 'NONE', ( #174, #767, #17, #66 ) ) ;
#859 = DIRECTION ( 'NONE',  ( -0.000000000000000000, -1.000000000000000000, -0.000000000000000000 ) ) ;
#860 = DIRECTION ( 'NONE',  ( 0.000000000000000000, -1.000000000000000000, -0.000000000000000000 ) ) ;
#861 = EDGE_LOOP ( 'NONE', ( #940, #1150, #823, #181, #1111, #1074, #1255, #1133, #230, #755 ) ) ;
#862 = CARTESIAN_POINT ( 'NONE',  ( -1.276099690450591462, -1.905824131322175763E-18, 25.29564647936592436 ) ) ;
#863 = EDGE_CURVE ( 'NONE', #20, #1102, #1196, .T. ) ;
#864 = ORIENTED_EDGE ( 'NONE', *, *, #1099, .F. ) ;
#865 = CARTESIAN_POINT ( 'NONE',  ( 4.000000000000007105, 0.000000000000000000, -24.00000000000000711 ) ) ;
#866 = AXIS2_PLACEMENT_3D ( 'NONE', #770, #552, #354 ) ;
#867 = CIRCLE ( 'NONE', #535, 1.500000000000001332 ) ;
#868 = DIRECTION ( 'NONE',  ( 0.000000000000000000, 0.000000000000000000, 1.000000000000000000 ) ) ;
#869 = CIRCLE ( 'NONE', #909, 5.000000000000000888 ) ;
#870 = CARTESIAN_POINT ( 'NONE',  ( -4.000000000000000000, -13.00000000000001776, -22.50000000000000711 ) ) ;
#871 = VECTOR ( 'NONE', #930, 1000.000000000000000 ) ;
#872 = AXIS2_PLACEMENT_3D ( 'NONE', #849, #356, #132 ) ;
#873 = EDGE_CURVE ( 'NONE', #248, #206, #165, .T. ) ;
#874 = CARTESIAN_POINT ( 'NONE',  ( -4.000000000000000000, 10.00000000000000000, -24.00000000000000711 ) ) ;
#875 = FACE_OUTER_BOUND ( 'NONE', #146, .T. ) ;
#876 = DIRECTION ( 'NONE',  ( -0.000000000000000000, -1.000000000000000000, -0.000000000000000000 ) ) ;
#877 = ADVANCED_FACE ( 'NONE', ( #1180 ), #782, .F. ) ;
#878 = DIRECTION ( 'NONE',  ( -0.000000000000000000, 1.000000000000000000, -0.000000000000000000 ) ) ;
#879 = ORIENTED_EDGE ( 'NONE', *, *, #815, .T. ) ;
#880 = CARTESIAN_POINT ( 'NONE',  ( 4.000000000000007105, 10.00000000000000000, 24.00000000000000711 ) ) ;
#881 = CARTESIAN_POINT ( 'NONE',  ( 1.797053721677298155, 0.1072206740642300538, -26.05986280904954810 ) ) ;
#882 = PRESENTATION_LAYER_ASSIGNMENT (  '', '', ( #449 ) ) ;
#883 = EDGE_CURVE ( 'NONE', #612, #1005, #799, .T. ) ;
#884 = CARTESIAN_POINT ( 'NONE',  ( -4.000000000000000000, 10.00000000000000178, 25.50000000000000711 ) ) ;
#885 = CIRCLE ( 'NONE', #843, 1.999999999999998224 ) ;
#886 = ORIENTED_EDGE ( 'NONE', *, *, #1271, .T. ) ;
#887 = VECTOR ( 'NONE', #1176, 1000.000000000000000 ) ;
#888 = ORIENTED_EDGE ( 'NONE', *, *, #1237, .T. ) ;
#889 = AXIS2_PLACEMENT_3D ( 'NONE', #635, #1038, #935 ) ;
#890 = DIRECTION ( 'NONE',  ( 0.000000000000000000, 0.000000000000000000, -1.000000000000000000 ) ) ;
#891 = CARTESIAN_POINT ( 'NONE',  ( 6.828427124746197840, 0.000000000000000000, -25.00000000000000355 ) ) ;
#892 = ADVANCED_FACE ( 'NONE', ( #1 ), #1092, .F. ) ;
#893 = ORIENTED_EDGE ( 'NONE', *, *, #541, .T. ) ;
#894 = EDGE_CURVE ( 'NONE', #281, #251, #1186, .T. ) ;
#895 = DIRECTION ( 'NONE',  ( 0.000000000000000000, -1.000000000000000000, 0.000000000000000000 ) ) ;
#896 = ORIENTED_EDGE ( 'NONE', *, *, #990, .F. ) ;
#897 = DIRECTION ( 'NONE',  ( 0.000000000000000000, 0.000000000000000000, 1.000000000000000000 ) ) ;
#898 = DIRECTION ( 'NONE',  ( 0.000000000000000000, 0.000000000000000000, -1.000000000000000000 ) ) ;
#899 = ORIENTED_EDGE ( 'NONE', *, *, #990, .T. ) ;
#900 = APPLICATION_PROTOCOL_DEFINITION ( 'draft international standard', 'automotive_design', 1998, #444 ) ;
#901 = EDGE_CURVE ( 'NONE', #108, #607, #1277, .T. ) ;
#902 = CARTESIAN_POINT ( 'NONE',  ( -4.000000000000000000, 10.00000000000000000, -24.00000000000000711 ) ) ;
#903 = ORIENTED_EDGE ( 'NONE', *, *, #392, .F. ) ;
#904 = CARTESIAN_POINT ( 'NONE',  ( 4.000000000000007105, 30.00000000000000000, -22.50000000000000711 ) ) ;
#905 = CARTESIAN_POINT ( 'NONE',  ( -3.233836334146039881, 0.3766764907235957138, -26.90457576673406948 ) ) ;
#906 = CIRCLE ( 'NONE', #307, 2.000000000000000000 ) ;
#907 = ORIENTED_EDGE ( 'NONE', *, *, #438, .T. ) ;
#908 = PLANE ( 'NONE',  #218 ) ;
#909 = AXIS2_PLACEMENT_3D ( 'NONE', #489, #505, #622 ) ;
#910 = CARTESIAN_POINT ( 'NONE',  ( 4.000000000000007105, 10.00000000000000000, 27.00000000000000711 ) ) ;
#911 = CIRCLE ( 'NONE', #479, 1.999999999999998224 ) ;
#912 = CARTESIAN_POINT ( 'NONE',  ( -2.523317068080900505, 0.2677493673250165296, -26.61588209763295509 ) ) ;
#913 = EDGE_LOOP ( 'NONE', ( #551, #718, #728, #664 ) ) ;
#914 = CARTESIAN_POINT ( 'NONE',  ( 0.000000000000000000, 0.000000000000000000, -25.00000000000000355 ) ) ;
#915 = DIRECTION ( 'NONE',  ( -0.000000000000000000, 1.000000000000000000, -0.000000000000000000 ) ) ;
#916 = CARTESIAN_POINT ( 'NONE',  ( -3.383242013265617576, 0.3916229776764921233, -26.93998381946949294 ) ) ;
#917 = EDGE_CURVE ( 'NONE', #206, #623, #585, .T. ) ;
#918 = EDGE_LOOP ( 'NONE', ( #1194, #1269, #903, #763 ) ) ;
#919 = CARTESIAN_POINT ( 'NONE',  ( 7.500000000000000888, 5.000000000000004441, 29.99999999999999289 ) ) ;
#920 = ORIENTED_EDGE ( 'NONE', *, *, #1010, .F. ) ;
#921 = CARTESIAN_POINT ( 'NONE',  ( -1.171572875253809265, 0.000000000000000000, -25.00000000000000355 ) ) ;
#922 = EDGE_CURVE ( 'NONE', #1051, #336, #92, .T. ) ;
#923 = VERTEX_POINT ( 'NONE', #1068 ) ;
#924 = FACE_OUTER_BOUND ( 'NONE', #567, .T. ) ;
#925 = VECTOR ( 'NONE', #804, 1000.000000000000000 ) ;
#926 = CARTESIAN_POINT ( 'NONE',  ( 4.000000000000007105, 10.00000000000000000, -24.00000000000000711 ) ) ;
#927 = AXIS2_PLACEMENT_3D ( 'NONE', #338, #625, #829 ) ;
#928 = VERTEX_POINT ( 'NONE', #570 ) ;
#929 = VECTOR ( 'NONE', #1112, 1000.000000000000000 ) ;
#930 = DIRECTION ( 'NONE',  ( -0.000000000000000000, -1.000000000000000000, -0.000000000000000000 ) ) ;
#931 = DIRECTION ( 'NONE',  ( 0.000000000000000000, -1.000000000000000000, 0.000000000000000000 ) ) ;
#932 = ORIENTED_EDGE ( 'NONE', *, *, #1027, .T. ) ;
#933 = CARTESIAN_POINT ( 'NONE',  ( 4.000000000000007105, 0.4174243050441709957, 27.00000000000000711 ) ) ;
#934 = EDGE_CURVE ( 'NONE', #111, #227, #283, .T. ) ;
#935 = DIRECTION ( 'NONE',  ( 0.000000000000000000, 0.000000000000000000, -1.000000000000000000 ) ) ;
#936 = EDGE_CURVE ( 'NONE', #827, #336, #380, .T. ) ;
#937 = ORIENTED_EDGE ( 'NONE', *, *, #632, .T. ) ;
#938 = DIRECTION ( 'NONE',  ( 1.000000000000000000, 0.000000000000000000, 0.000000000000000000 ) ) ;
#939 = CARTESIAN_POINT ( 'NONE',  ( -4.154718643012554224, 0.4174243050441661662, -27.00000000000001066 ) ) ;
#940 = ORIENTED_EDGE ( 'NONE', *, *, #541, .F. ) ;
#941 = DIRECTION ( 'NONE',  ( 0.000000000000000000, 0.000000000000000000, -1.000000000000000000 ) ) ;
#942 = DIRECTION ( 'NONE',  ( 0.000000000000000000, 1.000000000000000000, 0.000000000000000000 ) ) ;
#943 = EDGE_CURVE ( 'NONE', #108, #854, #330, .T. ) ;
#944 = ORIENTED_EDGE ( 'NONE', *, *, #521, .F. ) ;
#945 = CARTESIAN_POINT ( 'NONE',  ( 7.500000000000007105, 30.00000000000000000, -17.00000000000000000 ) ) ;
#946 = FACE_BOUND ( 'NONE', #637, .T. ) ;
#947 = VERTEX_POINT ( 'NONE', #1082 ) ;
#948 = CARTESIAN_POINT ( 'NONE',  ( -7.500000000000000000, 30.00000000000000000, -17.00000000000000000 ) ) ;
#949 = CARTESIAN_POINT ( 'NONE',  ( -4.000000000000000000, 30.00000000000000000, -22.50000000000000711 ) ) ;
#950 = VECTOR ( 'NONE', #1235, 1000.000000000000000 ) ;
#951 = ORIENTED_EDGE ( 'NONE', *, *, #470, .F. ) ;
#952 = DIRECTION ( 'NONE',  ( 0.000000000000000000, 0.000000000000000000, -1.000000000000000000 ) ) ;
#953 = AXIS2_PLACEMENT_3D ( 'NONE', #458, #50, #842 ) ;
#954 = ADVANCED_FACE ( 'NONE', ( #185 ), #584, .F. ) ;
#955 = AXIS2_PLACEMENT_3D ( 'NONE', #772, #472, #677 ) ;
#956 = CARTESIAN_POINT ( 'NONE',  ( 7.500000000000000888, 13.99999999999999822, -18.00000000000000355 ) ) ;
#957 = ORIENTED_EDGE ( 'NONE', *, *, #759, .F. ) ;
#958 = DIRECTION ( 'NONE',  ( -0.000000000000000000, 1.000000000000000000, -0.000000000000000000 ) ) ;
#959 = DIRECTION ( 'NONE',  ( -0.000000000000000000, -1.000000000000000000, -0.000000000000000000 ) ) ;
#960 = ORIENTED_EDGE ( 'NONE', *, *, #632, .F. ) ;
#961 = CARTESIAN_POINT ( 'NONE',  ( 7.500000000000000888, 13.99999999999999467, 15.99999999999999645 ) ) ;
#962 = CARTESIAN_POINT ( 'NONE',  ( 5.206359216214639041, 0.3204196856953922534, 26.76401101363714830 ) ) ;
#963 = VERTEX_POINT ( 'NONE', #1184 ) ;
#964 = EDGE_CURVE ( 'NONE', #1115, #160, #869, .T. ) ;
#965 = CARTESIAN_POINT ( 'NONE',  ( -3.691721601620401305, 0.4121779772558737398, 26.98810277258131762 ) ) ;
#966 = CARTESIAN_POINT ( 'NONE',  ( 0.000000000000000000, 0.000000000000000000, 0.000000000000000000 ) ) ;
#967 = FACE_OUTER_BOUND ( 'NONE', #1067, .T. ) ;
#968 = CARTESIAN_POINT ( 'NONE',  ( -2.499999999999999556, 13.99999999999999467, 17.99999999999999645 ) ) ;
#969 = CARTESIAN_POINT ( 'NONE',  ( 6.828427124746202281, 0.000000000000000000, 24.99999999999998934 ) ) ;
#970 = ORIENTED_EDGE ( 'NONE', *, *, #873, .T. ) ;
#971 = PLANE ( 'NONE',  #794 ) ;
#972 = B_SPLINE_CURVE_WITH_KNOTS ( 'NONE', 3,
 ( #838, #1270, #443, #1157, #161, #373, #463, #574, #179, #855, #1263, #368, #756, #1164, #982, #1101 ),
 .UNSPECIFIED., .F., .F.,
 ( 4, 2, 2, 2, 2, 2, 2, 4 ),
 ( 0.003703809747460031984, 0.004165821691806606900, 0.004627833636153180948, 0.005089845580499755863, 0.005551857524846330778, 0.006013869469192904826, 0.006475881413539479742, 0.007399905302232620899 ),
 .UNSPECIFIED. ) ;
#973 = ORIENTED_EDGE ( 'NONE', *, *, #790, .F. ) ;
#974 = CARTESIAN_POINT ( 'NONE',  ( 2.793640783785380055, 0.3204196856953872019, -26.76401101363714830 ) ) ;
#975 = AXIS2_PLACEMENT_3D ( 'NONE', #1193, #878, #7 ) ;
#976 = VECTOR ( 'NONE', #859, 1000.000000000000000 ) ;
#977 = DIRECTION ( 'NONE',  ( -0.000000000000000000, 1.000000000000000000, -0.000000000000000000 ) ) ;
#978 = VECTOR ( 'NONE', #56, 1000.000000000000000 ) ;
#979 = EDGE_CURVE ( 'NONE', #336, #783, #308, .T. ) ;
#980 = CARTESIAN_POINT ( 'NONE',  ( 4.000000000000007105, 10.00000000000000000, -24.00000000000000711 ) ) ;
#981 = CARTESIAN_POINT ( 'NONE',  ( -4.000000000000000000, 10.00000000000000178, -24.00000000000000711 ) ) ;
#982 = CARTESIAN_POINT ( 'NONE',  ( -6.724128953393849528, 4.399489128038836750E-15, 25.29499977691440549 ) ) ;
#983 = DIRECTION ( 'NONE',  ( 0.000000000000000000, 0.000000000000000000, -1.000000000000000000 ) ) ;
#984 = CARTESIAN_POINT ( 'NONE',  ( 2.519117524508094341, 0.2685047408181700512, -26.62705564920888790 ) ) ;
#985 = EDGE_CURVE ( 'NONE', #947, #1115, #1106, .T. ) ;
#986 = DIRECTION ( 'NONE',  ( 0.000000000000000000, 0.000000000000000000, -1.000000000000000000 ) ) ;
#987 = ORIENTED_EDGE ( 'NONE', *, *, #296, .T. ) ;
#988 = FACE_OUTER_BOUND ( 'NONE', #369, .T. ) ;
#989 = CARTESIAN_POINT ( 'NONE',  ( 4.000000000000007105, 0.4174243050441656111, -27.00000000000000711 ) ) ;
#990 = EDGE_CURVE ( 'NONE', #1207, #4, #515, .T. ) ;
#991 = AXIS2_PLACEMENT_3D ( 'NONE', #492, #1296, #785 ) ;
#992 = CARTESIAN_POINT ( 'NONE',  ( 4.000000000000007105, 10.00000000000000000, 24.00000000000000711 ) ) ;
#993 = EDGE_CURVE ( 'NONE', #731, #213, #496, .T. ) ;
#994 = VERTEX_POINT ( 'NONE', #211 ) ;
#995 = AXIS2_PLACEMENT_3D ( 'NONE', #902, #224, #128 ) ;
#996 = FACE_OUTER_BOUND ( 'NONE', #629, .T. ) ;
#997 =( NAMED_UNIT ( * ) SI_UNIT ( $, .STERADIAN. ) SOLID_ANGLE_UNIT ( ) );
#998 = CARTESIAN_POINT ( 'NONE',  ( -4.000000000000000000, 10.00000000000000178, 24.00000000000000711 ) ) ;
#999 = ORIENTED_EDGE ( 'NONE', *, *, #863, .T. ) ;
#1000 = CARTESIAN_POINT ( 'NONE',  ( -2.499999999999999556, 13.99999999999999467, 13.99999999999999645 ) ) ;
#1001 = B_SPLINE_CURVE_WITH_KNOTS ( 'NONE', 3,
 ( #38, #631, #23, #916, #905, #421, #12, #912, #226, #323, #822, #434, #19, #712, #536, #921 ),
 .UNSPECIFIED., .F., .F.,
 ( 4, 2, 2, 2, 2, 2, 2, 4 ),
 ( 0.003703809747460015504, 0.004165821691806586950, 0.004627833636153159264, 0.005089845580499730709, 0.005551857524846302155, 0.006013869469192874469, 0.006475881413539445915, 0.007399905302232589674 ),
 .UNSPECIFIED. ) ;
#1002 = EDGE_CURVE ( 'NONE', #1065, #841, #27, .T. ) ;
#1003 = ORIENTED_EDGE ( 'NONE', *, *, #194, .F. ) ;
#1004 = DIRECTION ( 'NONE',  ( 0.000000000000000000, 0.000000000000000000, 1.000000000000000000 ) ) ;
#1005 = VERTEX_POINT ( 'NONE', #114 ) ;
#1006 = FACE_OUTER_BOUND ( 'NONE', #465, .T. ) ;
#1007 = CARTESIAN_POINT ( 'NONE',  ( 4.154396399294359554, 0.4174243050441661107, -27.00000000000000355 ) ) ;
#1008 = ORIENTED_EDGE ( 'NONE', *, *, #498, .F. ) ;
#1009 = ORIENTED_EDGE ( 'NONE', *, *, #1159, .F. ) ;
#1010 = EDGE_CURVE ( 'NONE', #963, #597, #681, .T. ) ;
#1011 = CARTESIAN_POINT ( 'NONE',  ( 7.500000000000000888, 30.00000000000000000, 30.00000000000000711 ) ) ;
#1012 = VERTEX_POINT ( 'NONE', #602 ) ;
#1013 = CARTESIAN_POINT ( 'NONE',  ( 5.476682931919107489, 0.2677493673250165296, -26.61588209763295509 ) ) ;
#1014 = CIRCLE ( 'NONE', #1274, 1.999999999999998224 ) ;
#1015 = EDGE_LOOP ( 'NONE', ( #153, #1113, #471, #626 ) ) ;
#1016 = DIRECTION ( 'NONE',  ( 0.000000000000000000, 0.000000000000000000, -1.000000000000000000 ) ) ;
#1017 = CIRCLE ( 'NONE', #762, 5.000000000000000888 ) ;
#1018 = AXIS2_PLACEMENT_3D ( 'NONE', #433, #828, #1239 ) ;
#1019 = CARTESIAN_POINT ( 'NONE',  ( -2.499999999999999556, 13.99999999999999822, -16.00000000000000355 ) ) ;
#1020 = ORIENTED_EDGE ( 'NONE', *, *, #656, .T. ) ;
#1021 = DIRECTION ( 'NONE',  ( 0.000000000000000000, 0.000000000000000000, -1.000000000000000000 ) ) ;
#1022 = ORIENTED_EDGE ( 'NONE', *, *, #786, .T. ) ;
#1023 = CARTESIAN_POINT ( 'NONE',  ( 1.703853172472456601, 0.08698943141861664730, 25.93675918058493579 ) ) ;
#1024 = PRODUCT_DEFINITION_CONTEXT ( 'detailed design', #444, 'design' ) ;
#1025 = DIRECTION ( 'NONE',  ( 0.000000000000000000, 0.000000000000000000, -1.000000000000000000 ) ) ;
#1026 = ORIENTED_EDGE ( 'NONE', *, *, #863, .F. ) ;
#1027 = EDGE_CURVE ( 'NONE', #227, #575, #118, .T. ) ;
#1028 = DIRECTION ( 'NONE',  ( 0.000000000000000000, 1.000000000000000000, 0.000000000000000000 ) ) ;
#1029 = EDGE_LOOP ( 'NONE', ( #1219, #523 ) ) ;
#1030 = DIRECTION ( 'NONE',  ( -1.000000000000000000, 0.000000000000000000, 0.000000000000000000 ) ) ;
#1031 = VERTEX_POINT ( 'NONE', #1117 ) ;
#1032 = PRODUCT_RELATED_PRODUCT_CATEGORY ( 'part', '', ( #1214 ) ) ;
#1033 = DIRECTION ( 'NONE',  ( 0.000000000000000000, 0.000000000000000000, -1.000000000000000000 ) ) ;
#1034 = ORIENTED_EDGE ( 'NONE', *, *, #1123, .F. ) ;
#1035 = CARTESIAN_POINT ( 'NONE',  ( 7.500000000000000888, 13.99999999999999822, -16.00000000000000355 ) ) ;
#1036 = VECTOR ( 'NONE', #1086, 1000.000000000000000 ) ;
#1037 = VECTOR ( 'NONE', #711, 1000.000000000000000 ) ;
#1038 = DIRECTION ( 'NONE',  ( 0.000000000000000000, -1.000000000000000000, 0.000000000000000000 ) ) ;
#1039 = AXIS2_PLACEMENT_3D ( 'NONE', #1154, #760, #447 ) ;
#1040 = EDGE_LOOP ( 'NONE', ( #1130, #518 ) ) ;
#1041 = PRODUCT_DEFINITION_FORMATION_WITH_SPECIFIED_SOURCE ( 'Symmetric', '', #1214, .NOT_KNOWN. ) ;
#1042 = DIRECTION ( 'NONE',  ( -0.000000000000000000, 1.000000000000000000, -0.000000000000000000 ) ) ;
#1043 = CARTESIAN_POINT ( 'NONE',  ( 4.000000000000007105, 10.00000000000000000, 21.00000000000000711 ) ) ;
#1044 = ORIENTED_EDGE ( 'NONE', *, *, #583, .T. ) ;
#1045 = FACE_OUTER_BOUND ( 'NONE', #1098, .T. ) ;
#1046 = EDGE_CURVE ( 'NONE', #1146, #367, #618, .T. ) ;
#1047 = FACE_BOUND ( 'NONE', #1029, .T. ) ;
#1048 = ORIENTED_EDGE ( 'NONE', *, *, #1046, .T. ) ;
#1049 = CARTESIAN_POINT ( 'NONE',  ( 4.000000000000007105, 0.000000000000000000, 24.00000000000000711 ) ) ;
#1050 = CARTESIAN_POINT ( 'NONE',  ( 4.000000000000007105, 10.00000000000000000, -24.00000000000000711 ) ) ;
#1051 = VERTEX_POINT ( 'NONE', #400 ) ;
#1052 = CYLINDRICAL_SURFACE ( 'NONE', #268, 1.500000000000001332 ) ;
#1053 = LINE ( 'NONE', #1242, #377 ) ;
#1054 = ORIENTED_EDGE ( 'NONE', *, *, #1108, .F. ) ;
#1055 = CARTESIAN_POINT ( 'NONE',  ( 4.000000000000007105, -13.00000000000001776, -24.00000000000000711 ) ) ;
#1056 = CARTESIAN_POINT ( 'NONE',  ( 7.500000000000000888, 5.000000000000004441, 24.99999999999998934 ) ) ;
#1057 = EDGE_LOOP ( 'NONE', ( #1044, #907, #357, #999, #313, #1160, #210, #1020 ) ) ;
#1058 = CYLINDRICAL_SURFACE ( 'NONE', #1290, 5.000000000000000888 ) ;
#1059 = CYLINDRICAL_SURFACE ( 'NONE', #1188, 1.999999999999998224 ) ;
#1060 = EDGE_LOOP ( 'NONE', ( #713, #361 ) ) ;
#1061 = DIRECTION ( 'NONE',  ( 0.000000000000000000, 0.000000000000000000, -1.000000000000000000 ) ) ;
#1062 = EDGE_CURVE ( 'NONE', #947, #99, #320, .T. ) ;
#1063 = AXIS2_PLACEMENT_3D ( 'NONE', #207, #895, #6 ) ;
#1064 = CARTESIAN_POINT ( 'NONE',  ( -21.49999999999997158, 30.00000000000000000, 30.00000000000000711 ) ) ;
#1065 = VERTEX_POINT ( 'NONE', #107 ) ;
#1066 = CARTESIAN_POINT ( 'NONE',  ( 7.500000000000000888, 0.000000000000000000, 24.99999999999998934 ) ) ;
#1067 = EDGE_LOOP ( 'NONE', ( #306, #36, #593, #508 ) ) ;
#1068 = CARTESIAN_POINT ( 'NONE',  ( 4.000000000000007105, 10.00000000000000000, 21.00000000000000711 ) ) ;
#1069 = B_SPLINE_CURVE_WITH_KNOTS ( 'NONE', 3,
 ( #208, #544, #145, #667, #754, #371, #75, #739, #61, #1240, #939, #366 ),
 .UNSPECIFIED., .F., .F.,
 ( 4, 2, 2, 2, 2, 4 ),
 ( 0.000000000000000000, 0.0009259524368650038761, 0.001851904873730007752, 0.002777857310595011411, 0.003240833529027513458, 0.003703809747460015504 ),
 .UNSPECIFIED. ) ;
#1070 = DIRECTION ( 'NONE',  ( -1.000000000000000000, 0.000000000000000000, 0.000000000000000000 ) ) ;
#1071 = ADVANCED_FACE ( 'NONE', ( #425 ), #215, .F. ) ;
#1072 = VERTEX_POINT ( 'NONE', #511 ) ;
#1073 = CARTESIAN_POINT ( 'NONE',  ( 0.000000000000000000, 0.000000000000000000, -25.00000000000000355 ) ) ;
#1074 = ORIENTED_EDGE ( 'NONE', *, *, #566, .F. ) ;
#1075 = CARTESIAN_POINT ( 'NONE',  ( -2.499999999999999556, 13.99999999999999822, -16.00000000000000355 ) ) ;
#1076 = DIRECTION ( 'NONE',  ( 0.000000000000000000, 0.000000000000000000, 1.000000000000000000 ) ) ;
#1077 = VERTEX_POINT ( 'NONE', #910 ) ;
#1078 = CYLINDRICAL_SURFACE ( 'NONE', #405, 2.999999999999999112 ) ;
#1079 = ADVANCED_FACE ( 'NONE', ( #100 ), #688, .T. ) ;
#1080 = ORIENTED_EDGE ( 'NONE', *, *, #351, .F. ) ;
#1081 =( LENGTH_UNIT ( ) NAMED_UNIT ( * ) SI_UNIT ( .MILLI., .METRE. ) );
#1082 = CARTESIAN_POINT ( 'NONE',  ( 7.500000000000000888, 30.00000000000000000, 30.00000000000000711 ) ) ;
#1083 = AXIS2_PLACEMENT_3D ( 'NONE', #212, #410, #1021 ) ;
#1084 = DIRECTION ( 'NONE',  ( -0.000000000000000000, 1.000000000000000000, -0.000000000000000000 ) ) ;
#1085 = VECTOR ( 'NONE', #1289, 1000.000000000000000 ) ;
#1086 = DIRECTION ( 'NONE',  ( 0.000000000000000000, 0.000000000000000000, -1.000000000000000000 ) ) ;
#1087 = VECTOR ( 'NONE', #1030, 1000.000000000000000 ) ;
#1088 = EDGE_CURVE ( 'NONE', #854, #342, #413, .T. ) ;
#1089 = CARTESIAN_POINT ( 'NONE',  ( -2.499999999999999556, 13.99999999999999822, -18.00000000000000355 ) ) ;
#1090 = CARTESIAN_POINT ( 'NONE',  ( -4.000000000000000000, 10.00000000000000000, -24.00000000000000711 ) ) ;
#1091 = FACE_OUTER_BOUND ( 'NONE', #1057, .T. ) ;
#1092 = CYLINDRICAL_SURFACE ( 'NONE', #291, 1.999999999999998224 ) ;
#1093 = EDGE_CURVE ( 'NONE', #4, #115, #765, .T. ) ;
#1094 = DIRECTION ( 'NONE',  ( 1.000000000000000000, 0.000000000000000000, 0.000000000000000000 ) ) ;
#1095 = FACE_BOUND ( 'NONE', #1110, .T. ) ;
#1096 =( NAMED_UNIT ( * ) PLANE_ANGLE_UNIT ( ) SI_UNIT ( $, .RADIAN. ) );
#1097 = CARTESIAN_POINT ( 'NONE',  ( 7.500000000000000888, 70.00000000000000000, 29.99999999999999289 ) ) ;
#1098 = EDGE_LOOP ( 'NONE', ( #1251, #542, #130, #1175 ) ) ;
#1099 = EDGE_CURVE ( 'NONE', #752, #693, #199, .T. ) ;
#1100 = AXIS2_PLACEMENT_3D ( 'NONE', #98, #600, #294 ) ;
#1101 = CARTESIAN_POINT ( 'NONE',  ( -6.828427124746196064, 0.000000000000000000, 24.99999999999998934 ) ) ;
#1102 = VERTEX_POINT ( 'NONE', #791 ) ;
#1103 = CIRCLE ( 'NONE', #1018, 2.999999999999999112 ) ;
#1104 = ORIENTED_EDGE ( 'NONE', *, *, #721, .T. ) ;
#1105 = VECTOR ( 'NONE', #254, 1000.000000000000000 ) ;
#1106 = LINE ( 'NONE', #1097, #1145 ) ;
#1107 = CARTESIAN_POINT ( 'NONE',  ( 7.500000000000000888, 5.000000000000004441, 29.99999999999999289 ) ) ;
#1108 = EDGE_CURVE ( 'NONE', #281, #213, #519, .T. ) ;
#1109 = DIRECTION ( 'NONE',  ( -0.000000000000000000, -1.000000000000000000, -0.000000000000000000 ) ) ;
#1110 = EDGE_LOOP ( 'NONE', ( #420, #1104 ) ) ;
#1111 = ORIENTED_EDGE ( 'NONE', *, *, #438, .F. ) ;
#1112 = DIRECTION ( 'NONE',  ( -0.000000000000000000, 1.000000000000000000, -0.000000000000000000 ) ) ;
#1113 = ORIENTED_EDGE ( 'NONE', *, *, #1088, .T. ) ;
#1114 = LINE ( 'NONE', #605, #116 ) ;
#1115 = VERTEX_POINT ( 'NONE', #919 ) ;
#1116 = DIRECTION ( 'NONE',  ( -0.000000000000000000, -1.000000000000000000, -0.000000000000000000 ) ) ;
#1117 = CARTESIAN_POINT ( 'NONE',  ( -4.000000000000000000, 10.00000000000000178, -22.50000000000000711 ) ) ;
#1118 = CARTESIAN_POINT ( 'NONE',  ( 5.058651066847712485, 0.3393029696124698624, -26.81119637632018993 ) ) ;
#1119 = ORIENTED_EDGE ( 'NONE', *, *, #1123, .T. ) ;
#1120 = CARTESIAN_POINT ( 'NONE',  ( 3.688683092792684803, 0.4120474732992189248, 26.98780472190368940 ) ) ;
#1121 = CIRCLE ( 'NONE', #269, 2.999999999999999112 ) ;
#1122 = AXIS2_PLACEMENT_3D ( 'NONE', #709, #1229, #1213 ) ;
#1123 = EDGE_CURVE ( 'NONE', #435, #4, #501, .T. ) ;
#1124 = DIRECTION ( 'NONE',  ( -0.000000000000000000, -1.000000000000000000, -0.000000000000000000 ) ) ;
#1125 = DIRECTION ( 'NONE',  ( 0.000000000000000000, 0.000000000000000000, -1.000000000000000000 ) ) ;
#1126 = ORIENTED_EDGE ( 'NONE', *, *, #873, .F. ) ;
#1127 = LINE ( 'NONE', #914, #925 ) ;
#1128 = PLANE ( 'NONE',  #246 ) ;
#1129 = EDGE_CURVE ( 'NONE', #854, #108, #911, .T. ) ;
#1130 = ORIENTED_EDGE ( 'NONE', *, *, #470, .T. ) ;
#1131 = DIRECTION ( 'NONE',  ( 1.000000000000000000, -0.000000000000000000, 0.000000000000000000 ) ) ;
#1132 = LINE ( 'NONE', #507, #387 ) ;
#1133 = ORIENTED_EDGE ( 'NONE', *, *, #178, .F. ) ;
#1134 =( LENGTH_UNIT ( ) NAMED_UNIT ( * ) SI_UNIT ( .MILLI., .METRE. ) );
#1135 = CARTESIAN_POINT ( 'NONE',  ( -7.499999999999999112, 30.00000000000000000, 29.99999999999999289 ) ) ;
#1136 = EDGE_LOOP ( 'NONE', ( #1259, #814, #1080, #1026 ) ) ;
#1137 = DIRECTION ( 'NONE',  ( 0.000000000000000000, 0.000000000000000000, -1.000000000000000000 ) ) ;
#1138 = CARTESIAN_POINT ( 'NONE',  ( 4.154718643012563994, 0.4174243050441704406, 27.00000000000000711 ) ) ;
#1139 = ADVANCED_FACE ( 'NONE', ( #1047, #655, #826 ), #142, .F. ) ;
#1140 = ORIENTED_EDGE ( 'NONE', *, *, #32, .T. ) ;
#1141 = CARTESIAN_POINT ( 'NONE',  ( 3.383242013265621129, 0.3916229776764985071, 26.93998381946950005 ) ) ;
#1142 = CIRCLE ( 'NONE', #96, 2.000000000000000000 ) ;
#1143 = CIRCLE ( 'NONE', #737, 2.999999999999999112 ) ;
#1144 = FACE_OUTER_BOUND ( 'NONE', #533, .T. ) ;
#1145 = VECTOR ( 'NONE', #1124, 1000.000000000000000 ) ;
#1146 = VERTEX_POINT ( 'NONE', #751 ) ;
#1147 = STYLED_ITEM ( 'NONE', ( #484 ), #292 ) ;
#1148 = CARTESIAN_POINT ( 'NONE',  ( 4.000000000000007105, 10.00000000000000178, -25.50000000000000711 ) ) ;
#1149 = FACE_OUTER_BOUND ( 'NONE', #275, .T. ) ;
#1150 = ORIENTED_EDGE ( 'NONE', *, *, #750, .F. ) ;
#1151 = DIRECTION ( 'NONE',  ( 1.000000000000000000, 0.000000000000000000, 0.000000000000000000 ) ) ;
#1152 = CARTESIAN_POINT ( 'NONE',  ( -62.50000000000000000, 30.00000000000000000, -17.00000000000000000 ) ) ;
#1153 = ORIENTED_EDGE ( 'NONE', *, *, #1002, .T. ) ;
#1154 = CARTESIAN_POINT ( 'NONE',  ( 4.000000000000007105, 10.00000000000000178, -24.00000000000000711 ) ) ;
#1155 = CARTESIAN_POINT ( 'NONE',  ( 4.000000000000007105, 0.000000000000000000, 21.00000000000000711 ) ) ;
#1156 = EDGE_LOOP ( 'NONE', ( #138, #302 ) ) ;
#1157 = CARTESIAN_POINT ( 'NONE',  ( -4.616757986734384644, 0.3916229776764984516, 26.93998381946950005 ) ) ;
#1158 = DIRECTION ( 'NONE',  ( 1.000000000000000000, -0.000000000000000000, -0.000000000000000000 ) ) ;
#1159 = EDGE_CURVE ( 'NONE', #827, #143, #1258, .T. ) ;
#1160 = ORIENTED_EDGE ( 'NONE', *, *, #1166, .T. ) ;
#1161 = DIRECTION ( 'NONE',  ( -0.000000000000000000, 1.000000000000000000, -0.000000000000000000 ) ) ;
#1162 = CARTESIAN_POINT ( 'NONE',  ( 7.500000000000000888, 70.00000000000000000, 29.99999999999999289 ) ) ;
#1163 = ORIENTED_EDGE ( 'NONE', *, *, #462, .F. ) ;
#1164 = CARTESIAN_POINT ( 'NONE',  ( -6.573375454616225966, 0.02670840623465818922, 25.57195555858241676 ) ) ;
#1165 = AXIS2_PLACEMENT_3D ( 'NONE', #831, #21, #613 ) ;
#1166 = EDGE_CURVE ( 'NONE', #143, #1051, #335, .T. ) ;
#1167 = CARTESIAN_POINT ( 'NONE',  ( 4.000000000000007105, -13.00000000000001776, 24.00000000000000711 ) ) ;
#1168 = FACE_OUTER_BOUND ( 'NONE', #918, .T. ) ;
#1169 = CIRCLE ( 'NONE', #79, 1.500000000000001332 ) ;
#1170 = VECTOR ( 'NONE', #525, 1000.000000000000000 ) ;
#1171 = LINE ( 'NONE', #467, #580 ) ;
#1172 = EDGE_LOOP ( 'NONE', ( #105, #951, #63, #1241, #837 ) ) ;
#1173 = LINE ( 'NONE', #870, #77 ) ;
#1174 = UNCERTAINTY_MEASURE_WITH_UNIT (LENGTH_MEASURE( 1.000000000000000082E-05 ), #1081, 'distance_accuracy_value', 'NONE');
#1175 = ORIENTED_EDGE ( 'NONE', *, *, #431, .F. ) ;
#1176 = DIRECTION ( 'NONE',  ( 1.000000000000000000, -0.000000000000000000, -0.000000000000000000 ) ) ;
#1177 = CARTESIAN_POINT ( 'NONE',  ( 4.000000000000007105, 10.00000000000000000, 24.00000000000000711 ) ) ;
#1178 = CARTESIAN_POINT ( 'NONE',  ( -2.793640783785368509, 0.3204196856953923089, 26.76401101363714119 ) ) ;
#1179 = ORIENTED_EDGE ( 'NONE', *, *, #478, .T. ) ;
#1180 = FACE_OUTER_BOUND ( 'NONE', #913, .T. ) ;
#1181 = DIRECTION ( 'NONE',  ( 0.000000000000000000, -1.000000000000000000, 0.000000000000000000 ) ) ;
#1182 = ADVANCED_FACE ( 'NONE', ( #857 ), #1059, .F. ) ;
#1183 = DIRECTION ( 'NONE',  ( 0.000000000000000000, 0.000000000000000000, -1.000000000000000000 ) ) ;
#1184 = CARTESIAN_POINT ( 'NONE',  ( 1.171572875253810819, 0.000000000000000000, 24.99999999999998934 ) ) ;
#1185 = CARTESIAN_POINT ( 'NONE',  ( 4.000000000000007105, 10.00000000000000000, -21.00000000000000711 ) ) ;
#1186 = CIRCLE ( 'NONE', #221, 1.500000000000001332 ) ;
#1187 = FACE_BOUND ( 'NONE', #775, .T. ) ;
#1188 = AXIS2_PLACEMENT_3D ( 'NONE', #648, #1158, #464 ) ;
#1189 = ADVANCED_FACE ( 'NONE', ( #164 ), #531, .F. ) ;
#1190 = ORIENTED_EDGE ( 'NONE', *, *, #32, .F. ) ;
#1191 = DIRECTION ( 'NONE',  ( 0.000000000000000000, 0.000000000000000000, 1.000000000000000000 ) ) ;
#1192 = DIRECTION ( 'NONE',  ( 0.000000000000000000, 1.000000000000000000, 0.000000000000000000 ) ) ;
#1193 = CARTESIAN_POINT ( 'NONE',  ( 4.000000000000007105, 10.00000000000000178, 24.00000000000000711 ) ) ;
#1194 = ORIENTED_EDGE ( 'NONE', *, *, #209, .T. ) ;
#1195 = EDGE_CURVE ( 'NONE', #1005, #994, #1053, .T. ) ;
#1196 = LINE ( 'NONE', #685, #537 ) ;
#1197 = ORIENTED_EDGE ( 'NONE', *, *, #448, .F. ) ;
#1198 = CARTESIAN_POINT ( 'NONE',  ( -4.000000000000000000, 30.00000000000000000, -24.00000000000000711 ) ) ;
#1199 = FACE_OUTER_BOUND ( 'NONE', #166, .T. ) ;
#1200 = ORIENTED_EDGE ( 'NONE', *, *, #556, .T. ) ;
#1201 = ORIENTED_EDGE ( 'NONE', *, *, #244, .F. ) ;
#1202 = CARTESIAN_POINT ( 'NONE',  ( -4.000000000000000000, 10.00000000000000000, 21.00000000000000711 ) ) ;
#1203 = COLOUR_RGB ( '',0.2509803921568627416, 0.2509803921568627416, 0.2509803921568627416 ) ;
#1204 = AXIS2_PLACEMENT_3D ( 'NONE', #1253, #1267, #1061 ) ;
#1205 = DIRECTION ( 'NONE',  ( 0.000000000000000000, -1.000000000000000000, 0.000000000000000000 ) ) ;
#1206 = AXIS2_PLACEMENT_3D ( 'NONE', #134, #1161, #952 ) ;
#1207 = VERTEX_POINT ( 'NONE', #341 ) ;
#1208 = ORIENTED_EDGE ( 'NONE', *, *, #649, .T. ) ;
#1209 = DIRECTION ( 'NONE',  ( 0.000000000000000000, 0.000000000000000000, -1.000000000000000000 ) ) ;
#1210 = DIRECTION ( 'NONE',  ( 0.000000000000000000, 0.000000000000000000, -1.000000000000000000 ) ) ;
#1211 = ORIENTED_EDGE ( 'NONE', *, *, #917, .F. ) ;
#1212 = CARTESIAN_POINT ( 'NONE',  ( 1.171572875253810819, 0.000000000000000000, 24.99999999999998934 ) ) ;
#1213 = DIRECTION ( 'NONE',  ( 0.000000000000000000, 0.000000000000000000, -1.000000000000000000 ) ) ;
#1214 = PRODUCT ( 'encoder-stand_flange-support-top', 'encoder-stand_flange-support-top', '', ( #500 ) ) ;
#1215 = ORIENTED_EDGE ( 'NONE', *, *, #205, .T. ) ;
#1216 = CARTESIAN_POINT ( 'NONE',  ( -4.000000000000000000, -13.00000000000001776, -24.00000000000000711 ) ) ;
#1217 = CARTESIAN_POINT ( 'NONE',  ( 5.202758054581844149, 0.3166608535748983155, -26.75259962440531680 ) ) ;
#1218 = ADVANCED_FACE ( 'NONE', ( #1144 ), #1236, .F. ) ;
#1219 = ORIENTED_EDGE ( 'NONE', *, *, #757, .F. ) ;
#1220 = CARTESIAN_POINT ( 'NONE',  ( 4.000000000000007105, 10.00000000000000000, -24.00000000000000711 ) ) ;
#1221 = CARTESIAN_POINT ( 'NONE',  ( -4.000000000000000000, 10.00000000000000000, 27.00000000000000711 ) ) ;
#1222 = EDGE_LOOP ( 'NONE', ( #725, #1008 ) ) ;
#1223 = CARTESIAN_POINT ( 'NONE',  ( 4.311316907207327631, 0.4120474732992128741, -26.98780472190369650 ) ) ;
#1224 = VECTOR ( 'NONE', #1226, 1000.000000000000000 ) ;
#1225 = ORIENTED_EDGE ( 'NONE', *, *, #97, .T. ) ;
#1226 = DIRECTION ( 'NONE',  ( -0.000000000000000000, -1.000000000000000000, -0.000000000000000000 ) ) ;
#1227 = ADVANCED_FACE ( 'NONE', ( #155, #727 ), #1128, .T. ) ;
#1228 = VECTOR ( 'NONE', #800, 1000.000000000000000 ) ;
#1229 = DIRECTION ( 'NONE',  ( 1.000000000000000000, 0.000000000000000000, 0.000000000000000000 ) ) ;
#1230 = EDGE_CURVE ( 'NONE', #1051, #237, #346, .T. ) ;
#1231 = VECTOR ( 'NONE', #915, 1000.000000000000000 ) ;
#1232 = ORIENTED_EDGE ( 'NONE', *, *, #1046, .F. ) ;
#1233 = CARTESIAN_POINT ( 'NONE',  ( -7.499999999999999112, 5.000000000000004441, 24.99999999999998934 ) ) ;
#1234 = VERTEX_POINT ( 'NONE', #949 ) ;
#1235 = DIRECTION ( 'NONE',  ( -0.000000000000000000, 1.000000000000000000, -0.000000000000000000 ) ) ;
#1236 = CYLINDRICAL_SURFACE ( 'NONE', #455, 2.999999999999999112 ) ;
#1237 = EDGE_CURVE ( 'NONE', #633, #650, #187, .T. ) ;
#1238 = ORIENTED_EDGE ( 'NONE', *, *, #97, .F. ) ;
#1239 = DIRECTION ( 'NONE',  ( 0.000000000000000000, 0.000000000000000000, -1.000000000000000000 ) ) ;
#1240 = CARTESIAN_POINT ( 'NONE',  ( -4.308278398379598251, 0.4121779772558674670, -26.98810277258132828 ) ) ;
#1241 = ORIENTED_EDGE ( 'NONE', *, *, #462, .T. ) ;
#1242 = CARTESIAN_POINT ( 'NONE',  ( -4.000000000000000000, 10.00000000000000000, -27.00000000000000711 ) ) ;
#1243 = ORIENTED_EDGE ( 'NONE', *, *, #113, .T. ) ;
#1244 = DIRECTION ( 'NONE',  ( -1.000000000000000000, 0.000000000000000000, -0.000000000000000000 ) ) ;
#1245 = LINE ( 'NONE', #151, #512 ) ;
#1246 = EDGE_LOOP ( 'NONE', ( #620, #258 ) ) ;
#1247 = CARTESIAN_POINT ( 'NONE',  ( -1.171572875253803936, 0.000000000000000000, 24.99999999999998934 ) ) ;
#1248 = VECTOR ( 'NONE', #592, 1000.000000000000000 ) ;
#1249 = AXIS2_PLACEMENT_3D ( 'NONE', #1064, #860, #1254 ) ;
#1250 = CIRCLE ( 'NONE', #375, 1.500000000000001332 ) ;
#1251 = ORIENTED_EDGE ( 'NONE', *, *, #699, .T. ) ;
#1252 =( GEOMETRIC_REPRESENTATION_CONTEXT ( 3 ) GLOBAL_UNCERTAINTY_ASSIGNED_CONTEXT ( ( #1174 ) ) GLOBAL_UNIT_ASSIGNED_CONTEXT ( ( #1081, #1273, #192 ) ) REPRESENTATION_CONTEXT ( 'NONE', 'WORKASPACE' ) );
#1253 = CARTESIAN_POINT ( 'NONE',  ( -2.499999999999999556, 13.99999999999999467, 15.99999999999999645 ) ) ;
#1254 = DIRECTION ( 'NONE',  ( 0.000000000000000000, 0.000000000000000000, -1.000000000000000000 ) ) ;
#1255 = ORIENTED_EDGE ( 'NONE', *, *, #205, .F. ) ;
#1256 = EDGE_CURVE ( 'NONE', #783, #237, #456, .T. ) ;
#1257 = FACE_OUTER_BOUND ( 'NONE', #1275, .T. ) ;
#1258 = LINE ( 'NONE', #1152, #355 ) ;
#1259 = ORIENTED_EDGE ( 'NONE', *, *, #431, .T. ) ;
#1260 = PLANE ( 'NONE',  #1204 ) ;
#1261 = CARTESIAN_POINT ( 'NONE',  ( 4.308278398379606244, 0.4121779772558738508, 26.98810277258132118 ) ) ;
#1262 = ORIENTED_EDGE ( 'NONE', *, *, #486, .T. ) ;
#1263 = CARTESIAN_POINT ( 'NONE',  ( -5.975098183166374533, 0.1609820894024608373, 26.26326804888963551 ) ) ;
#1264 = ADVANCED_FACE ( 'NONE', ( #48 ), #42, .F. ) ;
#1265 = SURFACE_SIDE_STYLE ('',( #676 ) ) ;
#1266 = ORIENTED_EDGE ( 'NONE', *, *, #124, .T. ) ;
#1267 = DIRECTION ( 'NONE',  ( 1.000000000000000000, 0.000000000000000000, 0.000000000000000000 ) ) ;
#1268 = CARTESIAN_POINT ( 'NONE',  ( 4.613123452666884283, 0.3919371188896585978, 26.94072667587545666 ) ) ;
#1269 = ORIENTED_EDGE ( 'NONE', *, *, #1159, .T. ) ;
#1270 = CARTESIAN_POINT ( 'NONE',  ( -4.154396399294353337, 0.4174243050441722724, 27.00000000000001066 ) ) ;
#1271 = EDGE_CURVE ( 'NONE', #812, #286, #516, .T. ) ;
#1272 = VECTOR ( 'NONE', #647, 1000.000000000000000 ) ;
#1273 =( NAMED_UNIT ( * ) PLANE_ANGLE_UNIT ( ) SI_UNIT ( $, .RADIAN. ) );
#1274 = AXIS2_PLACEMENT_3D ( 'NONE', #1035, #719, #810 ) ;
#1275 = EDGE_LOOP ( 'NONE', ( #643, #548, #573, #660 ) ) ;
#1276 = ADVANCED_FACE ( 'NONE', ( #988 ), #663, .F. ) ;
#1277 = LINE ( 'NONE', #1089, #887 ) ;
#1278 = CIRCLE ( 'NONE', #163, 5.000000000000000888 ) ;
#1279 = VECTOR ( 'NONE', #695, 1000.000000000000000 ) ;
#1280 = CARTESIAN_POINT ( 'NONE',  ( 4.000000000000007105, 10.00000000000000000, -27.00000000000000711 ) ) ;
#1281 = AXIS2_PLACEMENT_3D ( 'NONE', #412, #106, #398 ) ;
#1282 = DIRECTION ( 'NONE',  ( -1.000000000000000000, 0.000000000000000000, -0.000000000000000000 ) ) ;
#1283 = DIRECTION ( 'NONE',  ( 1.000000000000000000, -0.000000000000000000, 0.000000000000000000 ) ) ;
#1284 = CARTESIAN_POINT ( 'NONE',  ( 1.276099690450604340, -4.517509052022930263E-18, -25.29564647936593502 ) ) ;
#1285 = ADVANCED_FACE ( 'NONE', ( #388 ), #173, .F. ) ;
#1286 = CARTESIAN_POINT ( 'NONE',  ( 7.500000000000000888, 13.99999999999999822, -14.00000000000000355 ) ) ;
#1287 = DIRECTION ( 'NONE',  ( 0.000000000000000000, 0.000000000000000000, -1.000000000000000000 ) ) ;
#1288 = FACE_BOUND ( 'NONE', #529, .T. ) ;
#1289 = DIRECTION ( 'NONE',  ( 0.000000000000000000, 0.000000000000000000, -1.000000000000000000 ) ) ;
#1290 = AXIS2_PLACEMENT_3D ( 'NONE', #469, #47, #848 ) ;
#1291 = VECTOR ( 'NONE', #350, 1000.000000000000000 ) ;
#1292 = LINE ( 'NONE', #784, #54 ) ;
#1293 = MECHANICAL_DESIGN_GEOMETRIC_PRESENTATION_REPRESENTATION (  '', ( #1147 ), #697 ) ;
#1294 = ADVANCED_FACE ( 'NONE', ( #1091 ), #91, .F. ) ;
#1295 = ORIENTED_EDGE ( 'NONE', *, *, #1108, .T. ) ;
#1296 = DIRECTION ( 'NONE',  ( 0.000000000000000000, -0.000000000000000000, 1.000000000000000000 ) ) ;
ENDSEC;
END-ISO-10303-21;
