ISO-10303-21;
HEADER;
FILE_DESCRIPTION (( 'STEP AP214' ),
    '1' );
FILE_NAME ('encoder-stand_bearing-support-assy.STEP',
    '2026-01-08T13:34:34',
    ( '' ),
    ( '' ),
    'SwSTEP 2.0',
    'SolidWorks 2025',
    '' );
FILE_SCHEMA (( 'AUTOMOTIVE_DESIGN' ));
ENDSEC;

DATA;
#1 = PRODUCT_DEFINITION_SHAPE ( 'NONE', 'NONE',  #110 ) ;
#2 = CONTEXT_DEPENDENT_SHAPE_REPRESENTATION ( #102, #206 ) ;
#3 = PRODUCT_DEFINITION_CONTEXT ( 'detailed design', #136, 'design' ) ;
#4 = PRODUCT ( '6002-2z', '6002-2z', '', ( #93 ) ) ;
#5 = APPLIED_DOCUMENT_REFERENCE ( #64,'',( #164) ) ;
#6 = EXTERNAL_SOURCE (IDENTIFIER('') ) ;
#7 = EXTERNAL_SOURCE (IDENTIFIER('') ) ;
#8 = PROPERTY_DEFINITION ('document property','', #67 ) ;
#9 = APPLICATION_PROTOCOL_DEFINITION ( 'draft international standard', 'automotive_design', 1998, #19 ) ;
#10 = DIRECTION ( 'NONE',  ( 0.000000000000000000, 0.000000000000000000, 1.000000000000000000 ) ) ;
#11 =( LENGTH_UNIT ( ) NAMED_UNIT ( * ) SI_UNIT ( .MILLI., .METRE. ) );
#12 =( LENGTH_UNIT ( ) NAMED_UNIT ( * ) SI_UNIT ( .MILLI., .METRE. ) );
#13 = PRODUCT_DEFINITION_CONTEXT ( 'detailed design', #61, 'design' ) ;
#14 = APPLIED_EXTERNAL_IDENTIFICATION_ASSIGNMENT ( 'Insert M3 D5 L5mm_(mod).STEP' , #21, #6,( #211) ) ;
#15 = DIRECTION ( 'NONE',  ( 0.000000000000000000, -1.000000000000000000, 0.000000000000000000 ) ) ;
#16 = PROPERTY_DEFINITION_REPRESENTATION ( #130, #148 ) ;
#17 = DOCUMENT_TYPE ( 'geometry' ) ;
#18 = OBJECT_ROLE ('mandatory',$ ) ;
#19 = APPLICATION_CONTEXT ( 'automotive_design' ) ;
#20 = PRODUCT ( 'encoder-stand_bearing-support-base', 'encoder-stand_bearing-support-base', '', ( #197 ) ) ;
#21 = IDENTIFICATION_ROLE ( 'external document id and location', $) ;
#22 = DOCUMENT_TYPE ( 'geometry' ) ;
#23 = PROPERTY_DEFINITION_REPRESENTATION ( #35, #141 ) ;
#24 = APPLIED_EXTERNAL_IDENTIFICATION_ASSIGNMENT ( 'Insert M3 D5 L5mm_(mod).STEP' , #131, #117,( #165) ) ;
#25 = DOCUMENT_FILE ( 'Insert M3 D5 L5mm_(mod).STEP' , '', '', #17, '' ,$ ) ;
#26 = PROPERTY_DEFINITION ('external definition','', #243 ) ;
#27 = DIRECTION ( 'NONE',  ( 0.000000000000000000, 0.000000000000000000, 1.000000000000000000 ) ) ;
#28 = UNCERTAINTY_MEASURE_WITH_UNIT (LENGTH_MEASURE( 1.000000000000000082E-05 ), #50, 'distance_accuracy_value', 'NONE');
#29 =( NAMED_UNIT ( * ) SI_UNIT ( $, .STERADIAN. ) SOLID_ANGLE_UNIT ( ) );
#30 =( NAMED_UNIT ( * ) SI_UNIT ( $, .STERADIAN. ) SOLID_ANGLE_UNIT ( ) );
#31 = PROPERTY_DEFINITION ('document property','', #211 ) ;
#32 = CONTEXT_DEPENDENT_SHAPE_REPRESENTATION ( #126, #87 ) ;
#33 = SHAPE_DEFINITION_REPRESENTATION ( #160, #148 ) ;
#34 = OBJECT_ROLE ('mandatory',$ ) ;
#35 = PROPERTY_DEFINITION ('document property','', #64 ) ;
#36 = DOCUMENT_TYPE ( 'geometry' ) ;
#37 = DOCUMENT_TYPE ( 'geometry' ) ;
#38 = ITEM_DEFINED_TRANSFORMATION ( 'NONE', 'NONE', #142,  #170 ) ;
#39 = PRODUCT_DEFINITION_FORMATION_WITH_SPECIFIED_SOURCE ( 'Symmetric', '', #194, .NOT_KNOWN. ) ;
#40 = SHAPE_REPRESENTATION ( 'encoder-stand_bearing-support-assy', ( #221, #181, #142, #183, #62, #55, #129, #98, #202 ), #233 ) ;
#41 = APPLICATION_CONTEXT ( 'automotive_design' ) ;
#42 = ITEM_DEFINED_TRANSFORMATION ( 'NONE', 'NONE', #62,  #104 ) ;
#43 = DOCUMENT_TYPE ( 'geometry' ) ;
#44 = PROPERTY_DEFINITION_REPRESENTATION ( #26, #148 ) ;
#45 = OBJECT_ROLE ('mandatory',$ ) ;
#46 = ITEM_DEFINED_TRANSFORMATION ( 'NONE', 'NONE', #129,  #104 ) ;
#47 = PROPERTY_DEFINITION_REPRESENTATION ( #73, #148 ) ;
#48 = CARTESIAN_POINT ( 'NONE',  ( 0.000000000000000000, 0.000000000000000000, 0.000000000000000000 ) ) ;
#49 = APPLICATION_PROTOCOL_DEFINITION ( 'draft international standard', 'automotive_design', 1998, #136 ) ;
#50 =( LENGTH_UNIT ( ) NAMED_UNIT ( * ) SI_UNIT ( .MILLI., .METRE. ) );
#51 =( NAMED_UNIT ( * ) PLANE_ANGLE_UNIT ( ) SI_UNIT ( $, .RADIAN. ) );
#52 = APPLICATION_CONTEXT ( 'automotive_design' ) ;
#53 = PROPERTY_DEFINITION ('document property','', #243 ) ;
#54 = DOCUMENT_FILE ( '6002-2z.STEP' , '', '', #22, '' ,$ ) ;
#55 = AXIS2_PLACEMENT_3D ( 'NONE', #139, #161, #218 ) ;
#56 = CARTESIAN_POINT ( 'NONE',  ( 0.000000000000000000, 0.000000000000000000, 0.000000000000000000 ) ) ;
#57 = PROPERTY_DEFINITION ('document property','', #54 ) ;
#58 = OBJECT_ROLE ('mandatory',$ ) ;
#59 = CARTESIAN_POINT ( 'NONE',  ( 918.4050631332713692, 1025.641586276776479, 1059.453163417906808 ) ) ;
#60 = PROPERTY_DEFINITION ('external definition','', #211 ) ;
#61 = APPLICATION_CONTEXT ( 'automotive_design' ) ;
#62 = AXIS2_PLACEMENT_3D ( 'NONE', #222, #101, #125 ) ;
#63 = APPLIED_EXTERNAL_IDENTIFICATION_ASSIGNMENT ( 'Insert M3 D5 L5mm_(mod).STEP' , #75, #242,( #25) ) ;
#64 = DOCUMENT_FILE ( 'encoder-stand_bearing-support-base.STEP' , '', '', #43, '' ,$ ) ;
#65 = CONTEXT_DEPENDENT_SHAPE_REPRESENTATION ( #68, #223 ) ;
#66 = APPLICATION_CONTEXT ( 'automotive_design' ) ;
#67 = DOCUMENT_FILE ( 'Insert M3 D5 L5mm_(mod).STEP' , '', '', #37, '' ,$ ) ;
#68 =( REPRESENTATION_RELATIONSHIP ('NONE','NONE', #40, #148 ) REPRESENTATION_RELATIONSHIP_WITH_TRANSFORMATION ( #230 )SHAPE_REPRESENTATION_RELATIONSHIP( ) );
#69 = PRODUCT_CONTEXT ( 'NONE', #81, 'mechanical' ) ;
#70 = PRODUCT_CONTEXT ( 'NONE', #154, 'mechanical' ) ;
#71 = CARTESIAN_POINT ( 'NONE',  ( 918.4050631332718240, 1025.641586276776252, 1011.453163417906694 ) ) ;
#72 = CARTESIAN_POINT ( 'NONE',  ( 919.4050631332712555, 1022.145047319533887, 1010.453163417906353 ) ) ;
#73 = PROPERTY_DEFINITION ('external definition','', #25 ) ;
#74 = APPLIED_DOCUMENT_REFERENCE ( #67,'',( #100) ) ;
#75 = IDENTIFICATION_ROLE ( 'external document id and location', $) ;
#76 = DOCUMENT_TYPE ( 'geometry' ) ;
#77 = PROPERTY_DEFINITION_REPRESENTATION ( #31, #148 ) ;
#78 = PRODUCT ( 'Insert M3 D5 L5mm_(mod)', 'Insert M3 D5 L5mm_(mod)', '', ( #69 ) ) ;
#79 = AXIS2_PLACEMENT_3D ( 'NONE', #48, #135, #193 ) ;
#80 = CARTESIAN_POINT ( 'NONE',  ( 944.4050631332719377, 1010.145047319533887, 1035.453163417906808 ) ) ;
#81 = APPLICATION_CONTEXT ( 'automotive_design' ) ;
#82 = PRODUCT_DEFINITION_FORMATION_WITH_SPECIFIED_SOURCE ( 'Symmetric', '', #78, .NOT_KNOWN. ) ;
#83 = UNCERTAINTY_MEASURE_WITH_UNIT (LENGTH_MEASURE( 1.000000000000000082E-05 ), #12, 'distance_accuracy_value', 'NONE');
#84 = PRODUCT_DEFINITION_SHAPE ( 'NONE', 'NONE',  #253 ) ;
#85 = APPLIED_DOCUMENT_REFERENCE ( #105,'',( #100) ) ;
#86 = ROLE_ASSOCIATION ( #58, #5 ) ;
#87 = PRODUCT_DEFINITION_SHAPE ( 'NONE', 'NONE',  #255 ) ;
#88 = DIRECTION ( 'NONE',  ( -0.8371691043312223801, 0.000000000000000000, -0.5469441386039887165 ) ) ;
#89 =( REPRESENTATION_RELATIONSHIP ('NONE','NONE', #40, #148 ) REPRESENTATION_RELATIONSHIP_WITH_TRANSFORMATION ( #146 )SHAPE_REPRESENTATION_RELATIONSHIP( ) );
#90 = DIRECTION ( 'NONE',  ( -2.891205793294677833E-16, 1.232595164407830946E-32, -1.000000000000000000 ) ) ;
#91 = PRODUCT_RELATED_PRODUCT_CATEGORY ( 'part', '', ( #78 ) ) ;
#92 =( LENGTH_UNIT ( ) NAMED_UNIT ( * ) SI_UNIT ( .MILLI., .METRE. ) );
#93 = PRODUCT_CONTEXT ( 'NONE', #66, 'mechanical' ) ;
#94 = PROPERTY_DEFINITION ('external definition','', #165 ) ;
#95 = OBJECT_ROLE ('mandatory',$ ) ;
#96 = DIRECTION ( 'NONE',  ( 0.000000000000000000, 0.000000000000000000, 1.000000000000000000 ) ) ;
#97 =( REPRESENTATION_RELATIONSHIP ('NONE','NONE', #40, #148 ) REPRESENTATION_RELATIONSHIP_WITH_TRANSFORMATION ( #196 )SHAPE_REPRESENTATION_RELATIONSHIP( ) );
#98 = AXIS2_PLACEMENT_3D ( 'NONE', #122, #201, #88 ) ;
#99 = PRODUCT_DEFINITION_SHAPE ( 'NONE', 'NONE',  #252 ) ;
#100 = PRODUCT_DEFINITION ( 'General', '', #82, #240 ) ;
#101 = DIRECTION ( 'NONE',  ( 0.000000000000000000, -1.000000000000000000, 0.000000000000000000 ) ) ;
#102 =( REPRESENTATION_RELATIONSHIP ('NONE','NONE', #40, #141 ) REPRESENTATION_RELATIONSHIP_WITH_TRANSFORMATION ( #38 )SHAPE_REPRESENTATION_RELATIONSHIP( ) );
#103 = ROLE_ASSOCIATION ( #18, #74 ) ;
#104 = AXIS2_PLACEMENT_3D ( 'NONE', #56, #27, #237 ) ;
#105 = DOCUMENT_FILE ( 'Insert M3 D5 L5mm_(mod).STEP' , '', '', #163, '' ,$ ) ;
#106 = PROPERTY_DEFINITION ('external definition','', #105 ) ;
#107 = CONTEXT_DEPENDENT_SHAPE_REPRESENTATION ( #97, #111 ) ;
#108 =( NAMED_UNIT ( * ) PLANE_ANGLE_UNIT ( ) SI_UNIT ( $, .RADIAN. ) );
#109 =( NAMED_UNIT ( * ) PLANE_ANGLE_UNIT ( ) SI_UNIT ( $, .RADIAN. ) );
#110 = PRODUCT_DEFINITION ( 'General', '', #121, #3 ) ;
#111 = PRODUCT_DEFINITION_SHAPE ( 'NONE', 'NONE',  #256 ) ;
#112 = APPLICATION_PROTOCOL_DEFINITION ( 'draft international standard', 'automotive_design', 1998, #154 ) ;
#113 = ROLE_ASSOCIATION ( #177, #244 ) ;
#114 = ITEM_DEFINED_TRANSFORMATION ( 'NONE', 'NONE', #181,  #79 ) ;
#115 =( NAMED_UNIT ( * ) PLANE_ANGLE_UNIT ( ) SI_UNIT ( $, .RADIAN. ) );
#116 = PRODUCT_DEFINITION_SHAPE ( 'NONE', 'NONE',  #249 ) ;
#117 = EXTERNAL_SOURCE (IDENTIFIER('') ) ;
#118 = EXTERNAL_SOURCE (IDENTIFIER('') ) ;
#119 = DIRECTION ( 'NONE',  ( 0.000000000000000000, 0.000000000000000000, 1.000000000000000000 ) ) ;
#120 = PRODUCT_DEFINITION_SHAPE ( 'NONE', 'NONE',  #164 ) ;
#121 = PRODUCT_DEFINITION_FORMATION_WITH_SPECIFIED_SOURCE ( 'Symmetric', '', #4, .NOT_KNOWN. ) ;
#122 = CARTESIAN_POINT ( 'NONE',  ( 969.4050631332718240, 1022.145047319533887, 1060.453163417906353 ) ) ;
#123 = PROPERTY_DEFINITION_REPRESENTATION ( #228, #124 ) ;
#124 = SHAPE_REPRESENTATION ( '6002-2z', ( #79 ), #227 ) ;
#125 = DIRECTION ( 'NONE',  ( -0.8371691043312223801, 0.000000000000000000, -0.5469441386039887165 ) ) ;
#126 =( REPRESENTATION_RELATIONSHIP ('NONE','NONE', #40, #148 ) REPRESENTATION_RELATIONSHIP_WITH_TRANSFORMATION ( #213 )SHAPE_REPRESENTATION_RELATIONSHIP( ) );
#127 = CONTEXT_DEPENDENT_SHAPE_REPRESENTATION ( #214, #99 ) ;
#128 = PROPERTY_DEFINITION ('document property','', #165 ) ;
#129 = AXIS2_PLACEMENT_3D ( 'NONE', #59, #140, #220 ) ;
#130 = PROPERTY_DEFINITION ('document property','', #25 ) ;
#131 = IDENTIFICATION_ROLE ( 'external document id and location', $) ;
#132 = APPLIED_EXTERNAL_IDENTIFICATION_ASSIGNMENT ( 'Insert M3 D5 L5mm_(mod).STEP' , #219, #248,( #67) ) ;
#133 = APPLIED_DOCUMENT_REFERENCE ( #25,'',( #100) ) ;
#134 = SHAPE_DEFINITION_REPRESENTATION ( #1, #124 ) ;
#135 = DIRECTION ( 'NONE',  ( 0.000000000000000000, 0.000000000000000000, 1.000000000000000000 ) ) ;
#136 = APPLICATION_CONTEXT ( 'automotive_design' ) ;
#137 = APPLICATION_PROTOCOL_DEFINITION ( 'draft international standard', 'automotive_design', 1998, #81 ) ;
#138 = APPLIED_DOCUMENT_REFERENCE ( #54,'',( #110) ) ;
#139 = CARTESIAN_POINT ( 'NONE',  ( 969.4050631332720513, 1022.145047319533887, 1010.453163417906353 ) ) ;
#140 = DIRECTION ( 'NONE',  ( 5.782411586589354927E-17, 0.000000000000000000, 1.000000000000000000 ) ) ;
#141 = SHAPE_REPRESENTATION ( 'encoder-stand_bearing-support-base', ( #170 ), #210 ) ;
#142 = AXIS2_PLACEMENT_3D ( 'NONE', #80, #175, #204 ) ;
#143 = PROPERTY_DEFINITION_REPRESENTATION ( #94, #148 ) ;
#144 = APPLIED_EXTERNAL_IDENTIFICATION_ASSIGNMENT ( 'Insert M3 D5 L5mm_(mod).STEP' , #162, #191,( #243) ) ;
#145 = PRODUCT_DEFINITION ( 'General', '', #39, #190 ) ;
#146 = ITEM_DEFINED_TRANSFORMATION ( 'NONE', 'NONE', #55,  #104 ) ;
#147 =( REPRESENTATION_RELATIONSHIP ('NONE','NONE', #40, #124 ) REPRESENTATION_RELATIONSHIP_WITH_TRANSFORMATION ( #114 )SHAPE_REPRESENTATION_RELATIONSHIP( ) );
#148 = SHAPE_REPRESENTATION ( 'Insert M3 D5 L5mm_(mod)', ( #104 ), #199 ) ;
#149 = ROLE_ASSOCIATION ( #95, #133 ) ;
#150 = SHAPE_DEFINITION_REPRESENTATION ( #120, #141 ) ;
#151 = PROPERTY_DEFINITION_REPRESENTATION ( #217, #148 ) ;
#152 = DIRECTION ( 'NONE',  ( 0.9828229700350370468, -0.1845508319447752843, -2.841543464748380773E-16 ) ) ;
#153 = PROPERTY_DEFINITION ('external definition','', #64 ) ;
#154 = APPLICATION_CONTEXT ( 'automotive_design' ) ;
#155 = APPLICATION_PROTOCOL_DEFINITION ( 'draft international standard', 'automotive_design', 1998, #41 ) ;
#156 = PRODUCT_RELATED_PRODUCT_CATEGORY ( 'part', '', ( #20 ) ) ;
#157 = DIRECTION ( 'NONE',  ( 1.000000000000000000, 0.000000000000000000, 0.000000000000000000 ) ) ;
#158 = CONTEXT_DEPENDENT_SHAPE_REPRESENTATION ( #147, #116 ) ;
#159 = DOCUMENT_TYPE ( 'geometry' ) ;
#160 = PRODUCT_DEFINITION_SHAPE ( 'NONE', 'NONE',  #100 ) ;
#161 = DIRECTION ( 'NONE',  ( 0.000000000000000000, -1.000000000000000000, 0.000000000000000000 ) ) ;
#162 = IDENTIFICATION_ROLE ( 'external document id and location', $) ;
#163 = DOCUMENT_TYPE ( 'geometry' ) ;
#164 = PRODUCT_DEFINITION ( 'General', '', #186, #13 ) ;
#165 = DOCUMENT_FILE ( 'Insert M3 D5 L5mm_(mod).STEP' , '', '', #159, '' ,$ ) ;
#166 = APPLIED_EXTERNAL_IDENTIFICATION_ASSIGNMENT ( 'Insert M3 D5 L5mm_(mod).STEP' , #180, #205,( #105) ) ;
#167 = APPLIED_DOCUMENT_REFERENCE ( #243,'',( #100) ) ;
#168 = PROPERTY_DEFINITION ('document property','', #105 ) ;
#169 = PROPERTY_DEFINITION_REPRESENTATION ( #153, #141 ) ;
#170 = AXIS2_PLACEMENT_3D ( 'NONE', #179, #96, #231 ) ;
#171 = IDENTIFICATION_ROLE ( 'external document id and location', $) ;
#172 = UNCERTAINTY_MEASURE_WITH_UNIT (LENGTH_MEASURE( 1.000000000000000082E-05 ), #92, 'distance_accuracy_value', 'NONE');
#173 =( REPRESENTATION_RELATIONSHIP ('NONE','NONE', #40, #148 ) REPRESENTATION_RELATIONSHIP_WITH_TRANSFORMATION ( #46 )SHAPE_REPRESENTATION_RELATIONSHIP( ) );
#174 = PRODUCT_RELATED_PRODUCT_CATEGORY ( 'part', '', ( #4 ) ) ;
#175 = DIRECTION ( 'NONE',  ( 0.000000000000000000, 0.000000000000000000, 1.000000000000000000 ) ) ;
#176 = APPLIED_EXTERNAL_IDENTIFICATION_ASSIGNMENT ( 'encoder-stand_bearing-support-base.STEP' , #171, #118,( #64) ) ;
#177 = OBJECT_ROLE ('mandatory',$ ) ;
#178 = CARTESIAN_POINT ( 'NONE',  ( 0.000000000000000000, 0.000000000000000000, 0.000000000000000000 ) ) ;
#179 = CARTESIAN_POINT ( 'NONE',  ( 0.000000000000000000, 0.000000000000000000, 0.000000000000000000 ) ) ;
#180 = IDENTIFICATION_ROLE ( 'external document id and location', $) ;
#181 = AXIS2_PLACEMENT_3D ( 'NONE', #238, #119, #15 ) ;
#182 = PRODUCT_RELATED_PRODUCT_CATEGORY ( 'part', '', ( #194 ) ) ;
#183 = AXIS2_PLACEMENT_3D ( 'NONE', #72, #212, #225 ) ;
#184 = ROLE_ASSOCIATION ( #45, #167 ) ;
#185 = ROLE_ASSOCIATION ( #198, #241 ) ;
#186 = PRODUCT_DEFINITION_FORMATION_WITH_SPECIFIED_SOURCE ( 'Symmetric', '', #20, .NOT_KNOWN. ) ;
#187 = ROLE_ASSOCIATION ( #192, #85 ) ;
#188 = IDENTIFICATION_ROLE ( 'external document id and location', $) ;
#189 = PROPERTY_DEFINITION_REPRESENTATION ( #60, #148 ) ;
#190 = PRODUCT_DEFINITION_CONTEXT ( 'detailed design', #41, 'design' ) ;
#191 = EXTERNAL_SOURCE (IDENTIFIER('') ) ;
#192 = OBJECT_ROLE ('mandatory',$ ) ;
#193 = DIRECTION ( 'NONE',  ( 1.000000000000000000, 0.000000000000000000, 0.000000000000000000 ) ) ;
#194 = PRODUCT ( 'encoder-stand_bearing-support-assy', 'encoder-stand_bearing-support-assy', '', ( #70 ) ) ;
#195 = APPLIED_EXTERNAL_IDENTIFICATION_ASSIGNMENT ( '6002-2z.STEP' , #188, #7,( #54) ) ;
#196 = ITEM_DEFINED_TRANSFORMATION ( 'NONE', 'NONE', #202,  #104 ) ;
#197 = PRODUCT_CONTEXT ( 'NONE', #52, 'mechanical' ) ;
#198 = OBJECT_ROLE ('mandatory',$ ) ;
#199 =( GEOMETRIC_REPRESENTATION_CONTEXT ( 3 ) GLOBAL_UNCERTAINTY_ASSIGNED_CONTEXT ( ( #239 ) ) GLOBAL_UNIT_ASSIGNED_CONTEXT ( ( #11, #51, #235 ) ) REPRESENTATION_CONTEXT ( 'NONE', 'WORKASPACE' ) );
#200 = ROLE_ASSOCIATION ( #34, #138 ) ;
#201 = DIRECTION ( 'NONE',  ( 0.000000000000000000, -1.000000000000000000, 0.000000000000000000 ) ) ;
#202 = AXIS2_PLACEMENT_3D ( 'NONE', #71, #90, #152 ) ;
#203 = CONTEXT_DEPENDENT_SHAPE_REPRESENTATION ( #89, #84 ) ;
#204 = DIRECTION ( 'NONE',  ( 1.000000000000000000, 0.000000000000000000, 0.000000000000000000 ) ) ;
#205 = EXTERNAL_SOURCE (IDENTIFIER('') ) ;
#206 = PRODUCT_DEFINITION_SHAPE ( 'NONE', 'NONE',  #250 ) ;
#207 = CONTEXT_DEPENDENT_SHAPE_REPRESENTATION ( #173, #234 ) ;
#208 = PROPERTY_DEFINITION_REPRESENTATION ( #8, #148 ) ;
#209 =( NAMED_UNIT ( * ) SI_UNIT ( $, .STERADIAN. ) SOLID_ANGLE_UNIT ( ) );
#210 =( GEOMETRIC_REPRESENTATION_CONTEXT ( 3 ) GLOBAL_UNCERTAINTY_ASSIGNED_CONTEXT ( ( #172 ) ) GLOBAL_UNIT_ASSIGNED_CONTEXT ( ( #92, #115, #209 ) ) REPRESENTATION_CONTEXT ( 'NONE', 'WORKASPACE' ) );
#211 = DOCUMENT_FILE ( 'Insert M3 D5 L5mm_(mod).STEP' , '', '', #76, '' ,$ ) ;
#212 = DIRECTION ( 'NONE',  ( 0.000000000000000000, -1.000000000000000000, 0.000000000000000000 ) ) ;
#213 = ITEM_DEFINED_TRANSFORMATION ( 'NONE', 'NONE', #98,  #104 ) ;
#214 =( REPRESENTATION_RELATIONSHIP ('NONE','NONE', #40, #148 ) REPRESENTATION_RELATIONSHIP_WITH_TRANSFORMATION ( #42 )SHAPE_REPRESENTATION_RELATIONSHIP( ) );
#215 = APPLICATION_PROTOCOL_DEFINITION ( 'draft international standard', 'automotive_design', 1998, #52 ) ;
#216 = APPLICATION_PROTOCOL_DEFINITION ( 'draft international standard', 'automotive_design', 1998, #61 ) ;
#217 = PROPERTY_DEFINITION ('external definition','', #67 ) ;
#218 = DIRECTION ( 'NONE',  ( -0.8371691043312223801, 0.000000000000000000, -0.5469441386039887165 ) ) ;
#219 = IDENTIFICATION_ROLE ( 'external document id and location', $) ;
#220 = DIRECTION ( 'NONE',  ( 0.5638101505185173501, 0.8259044219353028904, -3.260182346994963362E-17 ) ) ;
#221 = AXIS2_PLACEMENT_3D ( 'NONE', #178, #10, #157 ) ;
#222 = CARTESIAN_POINT ( 'NONE',  ( 919.4050631332717103, 1022.145047319533887, 1060.453163417906353 ) ) ;
#223 = PRODUCT_DEFINITION_SHAPE ( 'NONE', 'NONE',  #251 ) ;
#224 = PROPERTY_DEFINITION_REPRESENTATION ( #57, #124 ) ;
#225 = DIRECTION ( 'NONE',  ( -0.8371691043312223801, 0.000000000000000000, -0.5469441386039887165 ) ) ;
#226 = PROPERTY_DEFINITION_REPRESENTATION ( #128, #148 ) ;
#227 =( GEOMETRIC_REPRESENTATION_CONTEXT ( 3 ) GLOBAL_UNCERTAINTY_ASSIGNED_CONTEXT ( ( #83 ) ) GLOBAL_UNIT_ASSIGNED_CONTEXT ( ( #12, #109, #29 ) ) REPRESENTATION_CONTEXT ( 'NONE', 'WORKASPACE' ) );
#228 = PROPERTY_DEFINITION ('external definition','', #54 ) ;
#229 = PROPERTY_DEFINITION_REPRESENTATION ( #168, #148 ) ;
#230 = ITEM_DEFINED_TRANSFORMATION ( 'NONE', 'NONE', #183,  #104 ) ;
#231 = DIRECTION ( 'NONE',  ( 1.000000000000000000, 0.000000000000000000, 0.000000000000000000 ) ) ;
#232 = APPLICATION_PROTOCOL_DEFINITION ( 'draft international standard', 'automotive_design', 1998, #66 ) ;
#233 =( GEOMETRIC_REPRESENTATION_CONTEXT ( 3 ) GLOBAL_UNCERTAINTY_ASSIGNED_CONTEXT ( ( #28 ) ) GLOBAL_UNIT_ASSIGNED_CONTEXT ( ( #50, #108, #30 ) ) REPRESENTATION_CONTEXT ( 'NONE', 'WORKASPACE' ) );
#234 = PRODUCT_DEFINITION_SHAPE ( 'NONE', 'NONE',  #254 ) ;
#235 =( NAMED_UNIT ( * ) SI_UNIT ( $, .STERADIAN. ) SOLID_ANGLE_UNIT ( ) );
#236 = SHAPE_DEFINITION_REPRESENTATION ( #247, #40 ) ;
#237 = DIRECTION ( 'NONE',  ( 1.000000000000000000, 0.000000000000000000, 0.000000000000000000 ) ) ;
#238 = CARTESIAN_POINT ( 'NONE',  ( 944.4050631332719377, 1030.145047319533660, 1035.453163417906808 ) ) ;
#239 = UNCERTAINTY_MEASURE_WITH_UNIT (LENGTH_MEASURE( 1.000000000000000082E-05 ), #11, 'distance_accuracy_value', 'NONE');
#240 = PRODUCT_DEFINITION_CONTEXT ( 'detailed design', #19, 'design' ) ;
#241 = APPLIED_DOCUMENT_REFERENCE ( #165,'',( #100) ) ;
#242 = EXTERNAL_SOURCE (IDENTIFIER('') ) ;
#243 = DOCUMENT_FILE ( 'Insert M3 D5 L5mm_(mod).STEP' , '', '', #36, '' ,$ ) ;
#244 = APPLIED_DOCUMENT_REFERENCE ( #211,'',( #100) ) ;
#245 = PROPERTY_DEFINITION_REPRESENTATION ( #53, #148 ) ;
#246 = PROPERTY_DEFINITION_REPRESENTATION ( #106, #148 ) ;
#247 = PRODUCT_DEFINITION_SHAPE ( 'NONE', 'NONE',  #145 ) ;
#248 = EXTERNAL_SOURCE (IDENTIFIER('') ) ;
#249 = NEXT_ASSEMBLY_USAGE_OCCURRENCE ( 'NAUO86', ' ', ' ', #145, #110, $ ) ;
#250 = NEXT_ASSEMBLY_USAGE_OCCURRENCE ( 'NAUO87', ' ', ' ', #145, #164, $ ) ;
#251 = NEXT_ASSEMBLY_USAGE_OCCURRENCE ( 'NAUO88', ' ', ' ', #145, #100, $ ) ;
#252 = NEXT_ASSEMBLY_USAGE_OCCURRENCE ( 'NAUO89', ' ', ' ', #145, #100, $ ) ;
#253 = NEXT_ASSEMBLY_USAGE_OCCURRENCE ( 'NAUO90', ' ', ' ', #145, #100, $ ) ;
#254 = NEXT_ASSEMBLY_USAGE_OCCURRENCE ( 'NAUO91', ' ', ' ', #145, #100, $ ) ;
#255 = NEXT_ASSEMBLY_USAGE_OCCURRENCE ( 'NAUO92', ' ', ' ', #145, #100, $ ) ;
#256 = NEXT_ASSEMBLY_USAGE_OCCURRENCE ( 'NAUO93', ' ', ' ', #145, #100, $ ) ;
ENDSEC;
END-ISO-10303-21;
