ISO-10303-21;
HEADER;
FILE_DESCRIPTION (( 'STEP AP214' ),
    '1' );
FILE_NAME ('0603 Capacitor001.step.STEP',
    '2026-01-08T13:34:33',
    ( '' ),
    ( '' ),
    'SwSTEP 2.0',
    'SolidWorks 2025',
    '' );
FILE_SCHEMA (( 'AUTOMOTIVE_DESIGN' ));
ENDSEC;

DATA;
#1 = PROPERTY_DEFINITION ('external definition','', #73 ) ;
#2 = APPLICATION_PROTOCOL_DEFINITION ( 'draft international standard', 'automotive_design', 1998, #26 ) ;
#3 = IDENTIFICATION_ROLE ( 'external document id and location', $) ;
#4 = PRODUCT_DEFINITION_SHAPE ( 'NONE', 'NONE',  #108 ) ;
#5 = DIRECTION ( 'NONE',  ( -1.040957192136566911E-31, -4.930380657631323784E-32, 1.000000000000000000 ) ) ;
#6 = PRODUCT_DEFINITION_SHAPE ( 'NONE', 'NONE',  #93 ) ;
#7 = PRODUCT_RELATED_PRODUCT_CATEGORY ( 'part', '', ( #13 ) ) ;
#8 = DOCUMENT_FILE ( 'Body001 (Mirror #1)001.step.STEP' , '', '', #68, '' ,$ ) ;
#9 = PRODUCT_CONTEXT ( 'NONE', #66, 'mechanical' ) ;
#10 = PRODUCT_CONTEXT ( 'NONE', #79, 'mechanical' ) ;
#11 =( NAMED_UNIT ( * ) PLANE_ANGLE_UNIT ( ) SI_UNIT ( $, .RADIAN. ) );
#12 = PRODUCT_DEFINITION_FORMATION_WITH_SPECIFIED_SOURCE ( 'Symmetric', '', #17, .NOT_KNOWN. ) ;
#13 = PRODUCT ( 'Body001 (Mirror #1)001.step', 'Body001 (Mirror #1)001.step', '', ( #9 ) ) ;
#14 =( REPRESENTATION_RELATIONSHIP ('NONE','NONE', #77, #48 ) REPRESENTATION_RELATIONSHIP_WITH_TRANSFORMATION ( #54 )SHAPE_REPRESENTATION_RELATIONSHIP( ) );
#15 = CARTESIAN_POINT ( 'NONE',  ( 0.000000000000000000, 0.000000000000000000, 0.000000000000000000 ) ) ;
#16 = APPLIED_EXTERNAL_IDENTIFICATION_ASSIGNMENT ( 'Body012.step.STEP' , #3, #84,( #73) ) ;
#17 = PRODUCT ( '0603 Capacitor001.step', '0603 Capacitor001.step', '', ( #10 ) ) ;
#18 = APPLICATION_CONTEXT ( 'automotive_design' ) ;
#19 = SHAPE_REPRESENTATION ( 'Body012.step', ( #71 ), #90 ) ;
#20 = SHAPE_DEFINITION_REPRESENTATION ( #105, #77 ) ;
#21 = DIRECTION ( 'NONE',  ( 0.000000000000000000, 0.000000000000000000, 1.000000000000000000 ) ) ;
#22 = APPLICATION_PROTOCOL_DEFINITION ( 'draft international standard', 'automotive_design', 1998, #66 ) ;
#23 =( LENGTH_UNIT ( ) NAMED_UNIT ( * ) SI_UNIT ( .MILLI., .METRE. ) );
#24 = APPLIED_DOCUMENT_REFERENCE ( #8,'',( #34) ) ;
#25 =( GEOMETRIC_REPRESENTATION_CONTEXT ( 3 ) GLOBAL_UNCERTAINTY_ASSIGNED_CONTEXT ( ( #29 ) ) GLOBAL_UNIT_ASSIGNED_CONTEXT ( ( #23, #101, #102 ) ) REPRESENTATION_CONTEXT ( 'NONE', 'WORKASPACE' ) );
#26 = APPLICATION_CONTEXT ( 'automotive_design' ) ;
#27 = ROLE_ASSOCIATION ( #87, #24 ) ;
#28 = AXIS2_PLACEMENT_3D ( 'NONE', #72, #5, #37 ) ;
#29 = UNCERTAINTY_MEASURE_WITH_UNIT (LENGTH_MEASURE( 1.000000000000000082E-05 ), #23, 'distance_accuracy_value', 'NONE');
#30 = PROPERTY_DEFINITION ('external definition','', #8 ) ;
#31 = APPLICATION_CONTEXT ( 'automotive_design' ) ;
#32 = DIRECTION ( 'NONE',  ( 0.000000000000000000, 0.000000000000000000, 1.000000000000000000 ) ) ;
#33 = ITEM_DEFINED_TRANSFORMATION ( 'NONE', 'NONE', #49,  #71 ) ;
#34 = PRODUCT_DEFINITION ( 'General', '', #57, #86 ) ;
#35 = PRODUCT_RELATED_PRODUCT_CATEGORY ( 'part', '', ( #17 ) ) ;
#36 = APPLICATION_PROTOCOL_DEFINITION ( 'draft international standard', 'automotive_design', 1998, #79 ) ;
#37 = DIRECTION ( 'NONE',  ( 1.000000000000000000, 2.220446049250314067E-16, -1.040957192136566911E-31 ) ) ;
#38 =( REPRESENTATION_RELATIONSHIP ('NONE','NONE', #77, #19 ) REPRESENTATION_RELATIONSHIP_WITH_TRANSFORMATION ( #33 )SHAPE_REPRESENTATION_RELATIONSHIP( ) );
#39 = PROPERTY_DEFINITION_REPRESENTATION ( #1, #19 ) ;
#40 = PRODUCT_RELATED_PRODUCT_CATEGORY ( 'part', '', ( #91 ) ) ;
#41 = APPLIED_EXTERNAL_IDENTIFICATION_ASSIGNMENT ( 'Body001 (Mirror #1)001.step.STEP' , #94, #63,( #8) ) ;
#42 = UNCERTAINTY_MEASURE_WITH_UNIT (LENGTH_MEASURE( 1.000000000000000082E-05 ), #50, 'distance_accuracy_value', 'NONE');
#43 = PROPERTY_DEFINITION_REPRESENTATION ( #30, #48 ) ;
#44 = PRODUCT_DEFINITION_SHAPE ( 'NONE', 'NONE',  #34 ) ;
#45 = DIRECTION ( 'NONE',  ( -1.040957192136566911E-31, -4.930380657631323784E-32, 1.000000000000000000 ) ) ;
#46 = CONTEXT_DEPENDENT_SHAPE_REPRESENTATION ( #38, #69 ) ;
#47 = DIRECTION ( 'NONE',  ( 0.000000000000000000, 0.000000000000000000, 1.000000000000000000 ) ) ;
#48 = SHAPE_REPRESENTATION ( 'Body001 (Mirror #1)001.step', ( #74 ), #81 ) ;
#49 = AXIS2_PLACEMENT_3D ( 'NONE', #80, #45, #76 ) ;
#50 =( LENGTH_UNIT ( ) NAMED_UNIT ( * ) SI_UNIT ( .MILLI., .METRE. ) );
#51 =( LENGTH_UNIT ( ) NAMED_UNIT ( * ) SI_UNIT ( .MILLI., .METRE. ) );
#52 = DIRECTION ( 'NONE',  ( 1.000000000000000000, 0.000000000000000000, 0.000000000000000000 ) ) ;
#53 = CARTESIAN_POINT ( 'NONE',  ( 0.000000000000000000, 0.000000000000000000, 0.000000000000000000 ) ) ;
#54 = ITEM_DEFINED_TRANSFORMATION ( 'NONE', 'NONE', #28,  #74 ) ;
#55 = UNCERTAINTY_MEASURE_WITH_UNIT (LENGTH_MEASURE( 1.000000000000000082E-05 ), #51, 'distance_accuracy_value', 'NONE');
#56 = CARTESIAN_POINT ( 'NONE',  ( 0.000000000000000000, 0.000000000000000000, 0.000000000000000000 ) ) ;
#57 = PRODUCT_DEFINITION_FORMATION_WITH_SPECIFIED_SOURCE ( 'Symmetric', '', #13, .NOT_KNOWN. ) ;
#58 = APPLICATION_PROTOCOL_DEFINITION ( 'draft international standard', 'automotive_design', 1998, #31 ) ;
#59 = ROLE_ASSOCIATION ( #96, #95 ) ;
#60 = DIRECTION ( 'NONE',  ( 1.000000000000000000, 0.000000000000000000, 0.000000000000000000 ) ) ;
#61 = PRODUCT_DEFINITION_FORMATION_WITH_SPECIFIED_SOURCE ( 'Symmetric', '', #91, .NOT_KNOWN. ) ;
#62 =( NAMED_UNIT ( * ) SI_UNIT ( $, .STERADIAN. ) SOLID_ANGLE_UNIT ( ) );
#63 = EXTERNAL_SOURCE (IDENTIFIER('') ) ;
#64 = APPLICATION_PROTOCOL_DEFINITION ( 'draft international standard', 'automotive_design', 1998, #85 ) ;
#65 = PROPERTY_DEFINITION_REPRESENTATION ( #75, #48 ) ;
#66 = APPLICATION_CONTEXT ( 'automotive_design' ) ;
#67 = PROPERTY_DEFINITION_REPRESENTATION ( #99, #19 ) ;
#68 = DOCUMENT_TYPE ( 'geometry' ) ;
#69 = PRODUCT_DEFINITION_SHAPE ( 'NONE', 'NONE',  #107 ) ;
#70 = DOCUMENT_TYPE ( 'geometry' ) ;
#71 = AXIS2_PLACEMENT_3D ( 'NONE', #15, #32, #60 ) ;
#72 = CARTESIAN_POINT ( 'NONE',  ( 0.000000000000000000, 0.000000000000000000, 0.000000000000000000 ) ) ;
#73 = DOCUMENT_FILE ( 'Body012.step.STEP' , '', '', #70, '' ,$ ) ;
#74 = AXIS2_PLACEMENT_3D ( 'NONE', #56, #21, #52 ) ;
#75 = PROPERTY_DEFINITION ('document property','', #8 ) ;
#76 = DIRECTION ( 'NONE',  ( 1.000000000000000000, 2.220446049250314067E-16, -1.040957192136566911E-31 ) ) ;
#77 = SHAPE_REPRESENTATION ( '0603 Capacitor001.step', ( #106, #49, #28 ), #25 ) ;
#78 = PRODUCT_DEFINITION ( 'General', '', #12, #100 ) ;
#79 = APPLICATION_CONTEXT ( 'automotive_design' ) ;
#80 = CARTESIAN_POINT ( 'NONE',  ( 0.000000000000000000, 0.000000000000000000, 0.000000000000000000 ) ) ;
#81 =( GEOMETRIC_REPRESENTATION_CONTEXT ( 3 ) GLOBAL_UNCERTAINTY_ASSIGNED_CONTEXT ( ( #55 ) ) GLOBAL_UNIT_ASSIGNED_CONTEXT ( ( #51, #11, #104 ) ) REPRESENTATION_CONTEXT ( 'NONE', 'WORKASPACE' ) );
#82 = SHAPE_DEFINITION_REPRESENTATION ( #44, #48 ) ;
#83 = PRODUCT_CONTEXT ( 'NONE', #31, 'mechanical' ) ;
#84 = EXTERNAL_SOURCE (IDENTIFIER('') ) ;
#85 = APPLICATION_CONTEXT ( 'automotive_design' ) ;
#86 = PRODUCT_DEFINITION_CONTEXT ( 'detailed design', #26, 'design' ) ;
#87 = OBJECT_ROLE ('mandatory',$ ) ;
#88 = APPLICATION_PROTOCOL_DEFINITION ( 'draft international standard', 'automotive_design', 1998, #18 ) ;
#89 = PRODUCT_DEFINITION_CONTEXT ( 'detailed design', #85, 'design' ) ;
#90 =( GEOMETRIC_REPRESENTATION_CONTEXT ( 3 ) GLOBAL_UNCERTAINTY_ASSIGNED_CONTEXT ( ( #42 ) ) GLOBAL_UNIT_ASSIGNED_CONTEXT ( ( #50, #92, #62 ) ) REPRESENTATION_CONTEXT ( 'NONE', 'WORKASPACE' ) );
#91 = PRODUCT ( 'Body012.step', 'Body012.step', '', ( #83 ) ) ;
#92 =( NAMED_UNIT ( * ) PLANE_ANGLE_UNIT ( ) SI_UNIT ( $, .RADIAN. ) );
#93 = PRODUCT_DEFINITION ( 'General', '', #61, #89 ) ;
#94 = IDENTIFICATION_ROLE ( 'external document id and location', $) ;
#95 = APPLIED_DOCUMENT_REFERENCE ( #73,'',( #93) ) ;
#96 = OBJECT_ROLE ('mandatory',$ ) ;
#97 = SHAPE_DEFINITION_REPRESENTATION ( #6, #19 ) ;
#98 = CONTEXT_DEPENDENT_SHAPE_REPRESENTATION ( #14, #4 ) ;
#99 = PROPERTY_DEFINITION ('document property','', #73 ) ;
#100 = PRODUCT_DEFINITION_CONTEXT ( 'detailed design', #18, 'design' ) ;
#101 =( NAMED_UNIT ( * ) PLANE_ANGLE_UNIT ( ) SI_UNIT ( $, .RADIAN. ) );
#102 =( NAMED_UNIT ( * ) SI_UNIT ( $, .STERADIAN. ) SOLID_ANGLE_UNIT ( ) );
#103 = DIRECTION ( 'NONE',  ( 1.000000000000000000, 0.000000000000000000, 0.000000000000000000 ) ) ;
#104 =( NAMED_UNIT ( * ) SI_UNIT ( $, .STERADIAN. ) SOLID_ANGLE_UNIT ( ) );
#105 = PRODUCT_DEFINITION_SHAPE ( 'NONE', 'NONE',  #78 ) ;
#106 = AXIS2_PLACEMENT_3D ( 'NONE', #53, #47, #103 ) ;
#107 = NEXT_ASSEMBLY_USAGE_OCCURRENCE ( 'NAUO35', ' ', ' ', #78, #93, $ ) ;
#108 = NEXT_ASSEMBLY_USAGE_OCCURRENCE ( 'NAUO36', ' ', ' ', #78, #34, $ ) ;
ENDSEC;
END-ISO-10303-21;
