ISO-10303-21;
HEADER;
FILE_DESCRIPTION (( 'STEP AP214' ),
    '1' );
FILE_NAME ('0603 Capacitor.step.STEP',
    '2026-01-08T13:34:34',
    ( '' ),
    ( '' ),
    'SwSTEP 2.0',
    'SolidWorks 2025',
    '' );
FILE_SCHEMA (( 'AUTOMOTIVE_DESIGN' ));
ENDSEC;

DATA;
#1 = ROLE_ASSOCIATION ( #88, #55 ) ;
#2 = PRODUCT_DEFINITION_FORMATION_WITH_SPECIFIED_SOURCE ( 'Symmetric', '', #3, .NOT_KNOWN. ) ;
#3 = PRODUCT ( 'Body001 (Mirror #1).step', 'Body001 (Mirror #1).step', '', ( #56 ) ) ;
#4 = PROPERTY_DEFINITION ('external definition','', #47 ) ;
#5 = PROPERTY_DEFINITION ('document property','', #38 ) ;
#6 =( LENGTH_UNIT ( ) NAMED_UNIT ( * ) SI_UNIT ( .MILLI., .METRE. ) );
#7 = UNCERTAINTY_MEASURE_WITH_UNIT (LENGTH_MEASURE( 1.000000000000000082E-05 ), #6, 'distance_accuracy_value', 'NONE');
#8 = DIRECTION ( 'NONE',  ( -1.040957192136566911E-31, -4.930380657631323784E-32, 1.000000000000000000 ) ) ;
#9 = PROPERTY_DEFINITION_REPRESENTATION ( #5, #41 ) ;
#10 = PRODUCT_RELATED_PRODUCT_CATEGORY ( 'part', '', ( #3 ) ) ;
#11 = CARTESIAN_POINT ( 'NONE',  ( 0.000000000000000000, 0.000000000000000000, 0.000000000000000000 ) ) ;
#12 = APPLICATION_PROTOCOL_DEFINITION ( 'draft international standard', 'automotive_design', 1998, #17 ) ;
#13 = CONTEXT_DEPENDENT_SHAPE_REPRESENTATION ( #32, #22 ) ;
#14 = PROPERTY_DEFINITION_REPRESENTATION ( #103, #90 ) ;
#15 = APPLICATION_CONTEXT ( 'automotive_design' ) ;
#16 = CARTESIAN_POINT ( 'NONE',  ( 0.000000000000000000, 0.000000000000000000, 0.000000000000000000 ) ) ;
#17 = APPLICATION_CONTEXT ( 'automotive_design' ) ;
#18 = PROPERTY_DEFINITION ('external definition','', #38 ) ;
#19 = APPLICATION_PROTOCOL_DEFINITION ( 'draft international standard', 'automotive_design', 1998, #15 ) ;
#20 = PROPERTY_DEFINITION_REPRESENTATION ( #18, #41 ) ;
#21 = DIRECTION ( 'NONE',  ( 1.000000000000000000, 0.000000000000000000, 0.000000000000000000 ) ) ;
#22 = PRODUCT_DEFINITION_SHAPE ( 'NONE', 'NONE',  #107 ) ;
#23 = APPLICATION_CONTEXT ( 'automotive_design' ) ;
#24 = APPLIED_EXTERNAL_IDENTIFICATION_ASSIGNMENT ( 'Body001 (Mirror #1).step.STEP' , #66, #39,( #38) ) ;
#25 = PRODUCT_DEFINITION ( 'General', '', #28, #58 ) ;
#26 = APPLICATION_CONTEXT ( 'automotive_design' ) ;
#27 = DIRECTION ( 'NONE',  ( 1.000000000000000000, 0.000000000000000000, 0.000000000000000000 ) ) ;
#28 = PRODUCT_DEFINITION_FORMATION_WITH_SPECIFIED_SOURCE ( 'Symmetric', '', #64, .NOT_KNOWN. ) ;
#29 = CONTEXT_DEPENDENT_SHAPE_REPRESENTATION ( #62, #85 ) ;
#30 = APPLIED_EXTERNAL_IDENTIFICATION_ASSIGNMENT ( 'Body010.step.STEP' , #45, #59,( #47) ) ;
#31 =( NAMED_UNIT ( * ) SI_UNIT ( $, .STERADIAN. ) SOLID_ANGLE_UNIT ( ) );
#32 =( REPRESENTATION_RELATIONSHIP ('NONE','NONE', #46, #90 ) REPRESENTATION_RELATIONSHIP_WITH_TRANSFORMATION ( #91 )SHAPE_REPRESENTATION_RELATIONSHIP( ) );
#33 = PRODUCT_DEFINITION_SHAPE ( 'NONE', 'NONE',  #54 ) ;
#34 = PRODUCT_DEFINITION_SHAPE ( 'NONE', 'NONE',  #74 ) ;
#35 = CARTESIAN_POINT ( 'NONE',  ( 0.000000000000000000, 0.000000000000000000, 0.000000000000000000 ) ) ;
#36 = PRODUCT_DEFINITION_FORMATION_WITH_SPECIFIED_SOURCE ( 'Symmetric', '', #37, .NOT_KNOWN. ) ;
#37 = PRODUCT ( 'Body010.step', 'Body010.step', '', ( #69 ) ) ;
#38 = DOCUMENT_FILE ( 'Body001 (Mirror #1).step.STEP' , '', '', #75, '' ,$ ) ;
#39 = EXTERNAL_SOURCE (IDENTIFIER('') ) ;
#40 =( GEOMETRIC_REPRESENTATION_CONTEXT ( 3 ) GLOBAL_UNCERTAINTY_ASSIGNED_CONTEXT ( ( #101 ) ) GLOBAL_UNIT_ASSIGNED_CONTEXT ( ( #60, #96, #105 ) ) REPRESENTATION_CONTEXT ( 'NONE', 'WORKASPACE' ) );
#41 = SHAPE_REPRESENTATION ( 'Body001 (Mirror #1).step', ( #93 ), #51 ) ;
#42 = PRODUCT_RELATED_PRODUCT_CATEGORY ( 'part', '', ( #64 ) ) ;
#43 =( LENGTH_UNIT ( ) NAMED_UNIT ( * ) SI_UNIT ( .MILLI., .METRE. ) );
#44 = PRODUCT_DEFINITION_CONTEXT ( 'detailed design', #26, 'design' ) ;
#45 = IDENTIFICATION_ROLE ( 'external document id and location', $) ;
#46 = SHAPE_REPRESENTATION ( '0603 Capacitor.step', ( #86, #104, #67 ), #72 ) ;
#47 = DOCUMENT_FILE ( 'Body010.step.STEP' , '', '', #53, '' ,$ ) ;
#48 =( NAMED_UNIT ( * ) SI_UNIT ( $, .STERADIAN. ) SOLID_ANGLE_UNIT ( ) );
#49 = APPLICATION_PROTOCOL_DEFINITION ( 'draft international standard', 'automotive_design', 1998, #23 ) ;
#50 = ROLE_ASSOCIATION ( #52, #70 ) ;
#51 =( GEOMETRIC_REPRESENTATION_CONTEXT ( 3 ) GLOBAL_UNCERTAINTY_ASSIGNED_CONTEXT ( ( #73 ) ) GLOBAL_UNIT_ASSIGNED_CONTEXT ( ( #43, #61, #48 ) ) REPRESENTATION_CONTEXT ( 'NONE', 'WORKASPACE' ) );
#52 = OBJECT_ROLE ('mandatory',$ ) ;
#53 = DOCUMENT_TYPE ( 'geometry' ) ;
#54 = PRODUCT_DEFINITION ( 'General', '', #36, #98 ) ;
#55 = APPLIED_DOCUMENT_REFERENCE ( #47,'',( #54) ) ;
#56 = PRODUCT_CONTEXT ( 'NONE', #15, 'mechanical' ) ;
#57 = SHAPE_DEFINITION_REPRESENTATION ( #34, #41 ) ;
#58 = PRODUCT_DEFINITION_CONTEXT ( 'detailed design', #23, 'design' ) ;
#59 = EXTERNAL_SOURCE (IDENTIFIER('') ) ;
#60 =( LENGTH_UNIT ( ) NAMED_UNIT ( * ) SI_UNIT ( .MILLI., .METRE. ) );
#61 =( NAMED_UNIT ( * ) PLANE_ANGLE_UNIT ( ) SI_UNIT ( $, .RADIAN. ) );
#62 =( REPRESENTATION_RELATIONSHIP ('NONE','NONE', #46, #41 ) REPRESENTATION_RELATIONSHIP_WITH_TRANSFORMATION ( #82 )SHAPE_REPRESENTATION_RELATIONSHIP( ) );
#63 =( NAMED_UNIT ( * ) PLANE_ANGLE_UNIT ( ) SI_UNIT ( $, .RADIAN. ) );
#64 = PRODUCT ( '0603 Capacitor.step', '0603 Capacitor.step', '', ( #81 ) ) ;
#65 = CARTESIAN_POINT ( 'NONE',  ( 0.000000000000000000, 0.000000000000000000, 0.000000000000000000 ) ) ;
#66 = IDENTIFICATION_ROLE ( 'external document id and location', $) ;
#67 = AXIS2_PLACEMENT_3D ( 'NONE', #65, #8, #92 ) ;
#68 = DIRECTION ( 'NONE',  ( 0.000000000000000000, 0.000000000000000000, 1.000000000000000000 ) ) ;
#69 = PRODUCT_CONTEXT ( 'NONE', #71, 'mechanical' ) ;
#70 = APPLIED_DOCUMENT_REFERENCE ( #38,'',( #74) ) ;
#71 = APPLICATION_CONTEXT ( 'automotive_design' ) ;
#72 =( GEOMETRIC_REPRESENTATION_CONTEXT ( 3 ) GLOBAL_UNCERTAINTY_ASSIGNED_CONTEXT ( ( #7 ) ) GLOBAL_UNIT_ASSIGNED_CONTEXT ( ( #6, #63, #31 ) ) REPRESENTATION_CONTEXT ( 'NONE', 'WORKASPACE' ) );
#73 = UNCERTAINTY_MEASURE_WITH_UNIT (LENGTH_MEASURE( 1.000000000000000082E-05 ), #43, 'distance_accuracy_value', 'NONE');
#74 = PRODUCT_DEFINITION ( 'General', '', #2, #44 ) ;
#75 = DOCUMENT_TYPE ( 'geometry' ) ;
#76 = DIRECTION ( 'NONE',  ( 0.000000000000000000, 0.000000000000000000, 1.000000000000000000 ) ) ;
#77 = APPLICATION_CONTEXT ( 'automotive_design' ) ;
#78 = DIRECTION ( 'NONE',  ( 1.000000000000000000, 0.000000000000000000, 0.000000000000000000 ) ) ;
#79 = PROPERTY_DEFINITION_REPRESENTATION ( #4, #90 ) ;
#80 = APPLICATION_PROTOCOL_DEFINITION ( 'draft international standard', 'automotive_design', 1998, #71 ) ;
#81 = PRODUCT_CONTEXT ( 'NONE', #17, 'mechanical' ) ;
#82 = ITEM_DEFINED_TRANSFORMATION ( 'NONE', 'NONE', #67,  #93 ) ;
#83 = CARTESIAN_POINT ( 'NONE',  ( 0.000000000000000000, 0.000000000000000000, 0.000000000000000000 ) ) ;
#84 = SHAPE_DEFINITION_REPRESENTATION ( #33, #90 ) ;
#85 = PRODUCT_DEFINITION_SHAPE ( 'NONE', 'NONE',  #108 ) ;
#86 = AXIS2_PLACEMENT_3D ( 'NONE', #35, #68, #21 ) ;
#87 = PRODUCT_DEFINITION_SHAPE ( 'NONE', 'NONE',  #25 ) ;
#88 = OBJECT_ROLE ('mandatory',$ ) ;
#89 = DIRECTION ( 'NONE',  ( -1.040957192136566911E-31, -4.930380657631323784E-32, 1.000000000000000000 ) ) ;
#90 = SHAPE_REPRESENTATION ( 'Body010.step', ( #95 ), #40 ) ;
#91 = ITEM_DEFINED_TRANSFORMATION ( 'NONE', 'NONE', #104,  #95 ) ;
#92 = DIRECTION ( 'NONE',  ( 1.000000000000000000, 2.220446049250314067E-16, -1.040957192136566911E-31 ) ) ;
#93 = AXIS2_PLACEMENT_3D ( 'NONE', #11, #76, #78 ) ;
#94 = PRODUCT_RELATED_PRODUCT_CATEGORY ( 'part', '', ( #37 ) ) ;
#95 = AXIS2_PLACEMENT_3D ( 'NONE', #16, #97, #27 ) ;
#96 =( NAMED_UNIT ( * ) PLANE_ANGLE_UNIT ( ) SI_UNIT ( $, .RADIAN. ) );
#97 = DIRECTION ( 'NONE',  ( 0.000000000000000000, 0.000000000000000000, 1.000000000000000000 ) ) ;
#98 = PRODUCT_DEFINITION_CONTEXT ( 'detailed design', #77, 'design' ) ;
#99 = APPLICATION_PROTOCOL_DEFINITION ( 'draft international standard', 'automotive_design', 1998, #26 ) ;
#100 = DIRECTION ( 'NONE',  ( 1.000000000000000000, 2.220446049250314067E-16, -1.040957192136566911E-31 ) ) ;
#101 = UNCERTAINTY_MEASURE_WITH_UNIT (LENGTH_MEASURE( 1.000000000000000082E-05 ), #60, 'distance_accuracy_value', 'NONE');
#102 = SHAPE_DEFINITION_REPRESENTATION ( #87, #46 ) ;
#103 = PROPERTY_DEFINITION ('document property','', #47 ) ;
#104 = AXIS2_PLACEMENT_3D ( 'NONE', #83, #89, #100 ) ;
#105 =( NAMED_UNIT ( * ) SI_UNIT ( $, .STERADIAN. ) SOLID_ANGLE_UNIT ( ) );
#106 = APPLICATION_PROTOCOL_DEFINITION ( 'draft international standard', 'automotive_design', 1998, #77 ) ;
#107 = NEXT_ASSEMBLY_USAGE_OCCURRENCE ( 'NAUO67', ' ', ' ', #25, #54, $ ) ;
#108 = NEXT_ASSEMBLY_USAGE_OCCURRENCE ( 'NAUO68', ' ', ' ', #25, #74, $ ) ;
ENDSEC;
END-ISO-10303-21;
