ISO-10303-21;
HEADER;
FILE_DESCRIPTION (( 'STEP AP214' ),
    '1' );
FILE_NAME ('0603 Resistor.step.STEP',
    '2026-01-08T13:34:34',
    ( '' ),
    ( '' ),
    'SwSTEP 2.0',
    'SolidWorks 2025',
    '' );
FILE_SCHEMA (( 'AUTOMOTIVE_DESIGN' ));
ENDSEC;

DATA;
#1 = PRODUCT_DEFINITION_CONTEXT ( 'detailed design', #83, 'design' ) ;
#2 = PRODUCT_RELATED_PRODUCT_CATEGORY ( 'part', '', ( #17 ) ) ;
#3 = APPLICATION_PROTOCOL_DEFINITION ( 'draft international standard', 'automotive_design', 1998, #16 ) ;
#4 = ROLE_ASSOCIATION ( #82, #89 ) ;
#5 = PROPERTY_DEFINITION ('document property','', #37 ) ;
#6 = PRODUCT_DEFINITION_FORMATION_WITH_SPECIFIED_SOURCE ( 'Symmetric', '', #17, .NOT_KNOWN. ) ;
#7 = PRODUCT ( 'Body001 (Mirror #1)003.step', 'Body001 (Mirror #1)003.step', '', ( #11 ) ) ;
#8 = UNCERTAINTY_MEASURE_WITH_UNIT (LENGTH_MEASURE( 1.000000000000000082E-05 ), #78, 'distance_accuracy_value', 'NONE');
#9 = PRODUCT_CONTEXT ( 'NONE', #26, 'mechanical' ) ;
#10 = APPLIED_DOCUMENT_REFERENCE ( #56,'',( #58) ) ;
#11 = PRODUCT_CONTEXT ( 'NONE', #79, 'mechanical' ) ;
#12 = PRODUCT_DEFINITION_SHAPE ( 'NONE', 'NONE',  #54 ) ;
#13 =( REPRESENTATION_RELATIONSHIP ('NONE','NONE', #55, #30 ) REPRESENTATION_RELATIONSHIP_WITH_TRANSFORMATION ( #69 )SHAPE_REPRESENTATION_RELATIONSHIP( ) );
#14 = PROPERTY_DEFINITION_REPRESENTATION ( #99, #30 ) ;
#15 = CONTEXT_DEPENDENT_SHAPE_REPRESENTATION ( #13, #41 ) ;
#16 = APPLICATION_CONTEXT ( 'automotive_design' ) ;
#17 = PRODUCT ( '0603 Resistor.step', '0603 Resistor.step', '', ( #9 ) ) ;
#18 =( LENGTH_UNIT ( ) NAMED_UNIT ( * ) SI_UNIT ( .MILLI., .METRE. ) );
#19 =( GEOMETRIC_REPRESENTATION_CONTEXT ( 3 ) GLOBAL_UNCERTAINTY_ASSIGNED_CONTEXT ( ( #96 ) ) GLOBAL_UNIT_ASSIGNED_CONTEXT ( ( #101, #93, #51 ) ) REPRESENTATION_CONTEXT ( 'NONE', 'WORKASPACE' ) );
#20 = APPLICATION_CONTEXT ( 'automotive_design' ) ;
#21 = UNCERTAINTY_MEASURE_WITH_UNIT (LENGTH_MEASURE( 1.000000000000000082E-05 ), #18, 'distance_accuracy_value', 'NONE');
#22 = PRODUCT_DEFINITION ( 'General', '', #6, #1 ) ;
#23 = APPLICATION_CONTEXT ( 'automotive_design' ) ;
#24 =( GEOMETRIC_REPRESENTATION_CONTEXT ( 3 ) GLOBAL_UNCERTAINTY_ASSIGNED_CONTEXT ( ( #21 ) ) GLOBAL_UNIT_ASSIGNED_CONTEXT ( ( #18, #43, #91 ) ) REPRESENTATION_CONTEXT ( 'NONE', 'WORKASPACE' ) );
#25 = APPLICATION_PROTOCOL_DEFINITION ( 'draft international standard', 'automotive_design', 1998, #83 ) ;
#26 = APPLICATION_CONTEXT ( 'automotive_design' ) ;
#27 = PROPERTY_DEFINITION_REPRESENTATION ( #5, #94 ) ;
#28 = APPLICATION_PROTOCOL_DEFINITION ( 'draft international standard', 'automotive_design', 1998, #20 ) ;
#29 = PROPERTY_DEFINITION_REPRESENTATION ( #32, #94 ) ;
#30 = SHAPE_REPRESENTATION ( 'Body021.step', ( #84 ), #19 ) ;
#31 = PROPERTY_DEFINITION ('document property','', #56 ) ;
#32 = PROPERTY_DEFINITION ('external definition','', #37 ) ;
#33 = CARTESIAN_POINT ( 'NONE',  ( 0.000000000000000000, 0.000000000000000000, 0.000000000000000000 ) ) ;
#34 = DOCUMENT_TYPE ( 'geometry' ) ;
#35 = ROLE_ASSOCIATION ( #75, #10 ) ;
#36 = CONTEXT_DEPENDENT_SHAPE_REPRESENTATION ( #48, #63 ) ;
#37 = DOCUMENT_FILE ( 'Body001 (Mirror #1)003.step.STEP' , '', '', #34, '' ,$ ) ;
#38 = PRODUCT_DEFINITION_FORMATION_WITH_SPECIFIED_SOURCE ( 'Symmetric', '', #47, .NOT_KNOWN. ) ;
#39 = DIRECTION ( 'NONE',  ( 0.000000000000000000, 0.000000000000000000, 1.000000000000000000 ) ) ;
#40 = PRODUCT_DEFINITION_SHAPE ( 'NONE', 'NONE',  #58 ) ;
#41 = PRODUCT_DEFINITION_SHAPE ( 'NONE', 'NONE',  #107 ) ;
#42 = IDENTIFICATION_ROLE ( 'external document id and location', $) ;
#43 =( NAMED_UNIT ( * ) PLANE_ANGLE_UNIT ( ) SI_UNIT ( $, .RADIAN. ) );
#44 = DIRECTION ( 'NONE',  ( 0.000000000000000000, 0.000000000000000000, 1.000000000000000000 ) ) ;
#45 = PRODUCT_RELATED_PRODUCT_CATEGORY ( 'part', '', ( #47 ) ) ;
#46 = ITEM_DEFINED_TRANSFORMATION ( 'NONE', 'NONE', #74,  #106 ) ;
#47 = PRODUCT ( 'Body021.step', 'Body021.step', '', ( #97 ) ) ;
#48 =( REPRESENTATION_RELATIONSHIP ('NONE','NONE', #55, #94 ) REPRESENTATION_RELATIONSHIP_WITH_TRANSFORMATION ( #46 )SHAPE_REPRESENTATION_RELATIONSHIP( ) );
#49 = EXTERNAL_SOURCE (IDENTIFIER('') ) ;
#50 = DIRECTION ( 'NONE',  ( -4.930380657631323784E-32, 1.040957192136566911E-31, 1.000000000000000000 ) ) ;
#51 =( NAMED_UNIT ( * ) SI_UNIT ( $, .STERADIAN. ) SOLID_ANGLE_UNIT ( ) );
#52 =( NAMED_UNIT ( * ) PLANE_ANGLE_UNIT ( ) SI_UNIT ( $, .RADIAN. ) );
#53 = AXIS2_PLACEMENT_3D ( 'NONE', #71, #39, #66 ) ;
#54 = PRODUCT_DEFINITION ( 'General', '', #60, #67 ) ;
#55 = SHAPE_REPRESENTATION ( '0603 Resistor.step', ( #53, #80, #74 ), #24 ) ;
#56 = DOCUMENT_FILE ( 'Body021.step.STEP' , '', '', #65, '' ,$ ) ;
#57 = APPLIED_EXTERNAL_IDENTIFICATION_ASSIGNMENT ( 'Body021.step.STEP' , #42, #59,( #56) ) ;
#58 = PRODUCT_DEFINITION ( 'General', '', #38, #77 ) ;
#59 = EXTERNAL_SOURCE (IDENTIFIER('') ) ;
#60 = PRODUCT_DEFINITION_FORMATION_WITH_SPECIFIED_SOURCE ( 'Symmetric', '', #7, .NOT_KNOWN. ) ;
#61 =( GEOMETRIC_REPRESENTATION_CONTEXT ( 3 ) GLOBAL_UNCERTAINTY_ASSIGNED_CONTEXT ( ( #8 ) ) GLOBAL_UNIT_ASSIGNED_CONTEXT ( ( #78, #52, #95 ) ) REPRESENTATION_CONTEXT ( 'NONE', 'WORKASPACE' ) );
#62 = DIRECTION ( 'NONE',  ( 0.000000000000000000, 0.000000000000000000, 1.000000000000000000 ) ) ;
#63 = PRODUCT_DEFINITION_SHAPE ( 'NONE', 'NONE',  #108 ) ;
#64 = CARTESIAN_POINT ( 'NONE',  ( 0.000000000000000000, 0.000000000000000000, 0.000000000000000000 ) ) ;
#65 = DOCUMENT_TYPE ( 'geometry' ) ;
#66 = DIRECTION ( 'NONE',  ( 1.000000000000000000, 0.000000000000000000, 0.000000000000000000 ) ) ;
#67 = PRODUCT_DEFINITION_CONTEXT ( 'detailed design', #16, 'design' ) ;
#68 = SHAPE_DEFINITION_REPRESENTATION ( #92, #55 ) ;
#69 = ITEM_DEFINED_TRANSFORMATION ( 'NONE', 'NONE', #80,  #84 ) ;
#70 = PROPERTY_DEFINITION_REPRESENTATION ( #31, #30 ) ;
#71 = CARTESIAN_POINT ( 'NONE',  ( 0.000000000000000000, 0.000000000000000000, 0.000000000000000000 ) ) ;
#72 = IDENTIFICATION_ROLE ( 'external document id and location', $) ;
#73 = PRODUCT_RELATED_PRODUCT_CATEGORY ( 'part', '', ( #7 ) ) ;
#74 = AXIS2_PLACEMENT_3D ( 'NONE', #100, #50, #85 ) ;
#75 = OBJECT_ROLE ('mandatory',$ ) ;
#76 = DIRECTION ( 'NONE',  ( 1.000000000000000000, 0.000000000000000000, 0.000000000000000000 ) ) ;
#77 = PRODUCT_DEFINITION_CONTEXT ( 'detailed design', #20, 'design' ) ;
#78 =( LENGTH_UNIT ( ) NAMED_UNIT ( * ) SI_UNIT ( .MILLI., .METRE. ) );
#79 = APPLICATION_CONTEXT ( 'automotive_design' ) ;
#80 = AXIS2_PLACEMENT_3D ( 'NONE', #33, #90, #103 ) ;
#81 = APPLICATION_PROTOCOL_DEFINITION ( 'draft international standard', 'automotive_design', 1998, #79 ) ;
#82 = OBJECT_ROLE ('mandatory',$ ) ;
#83 = APPLICATION_CONTEXT ( 'automotive_design' ) ;
#84 = AXIS2_PLACEMENT_3D ( 'NONE', #86, #62, #76 ) ;
#85 = DIRECTION ( 'NONE',  ( 1.000000000000000000, -2.220446049250314067E-16, -4.930380657631323784E-32 ) ) ;
#86 = CARTESIAN_POINT ( 'NONE',  ( 0.000000000000000000, 0.000000000000000000, 0.000000000000000000 ) ) ;
#87 = DIRECTION ( 'NONE',  ( 1.000000000000000000, 0.000000000000000000, 0.000000000000000000 ) ) ;
#88 = APPLICATION_PROTOCOL_DEFINITION ( 'draft international standard', 'automotive_design', 1998, #26 ) ;
#89 = APPLIED_DOCUMENT_REFERENCE ( #37,'',( #54) ) ;
#90 = DIRECTION ( 'NONE',  ( -4.930380657631323784E-32, 1.040957192136566911E-31, 1.000000000000000000 ) ) ;
#91 =( NAMED_UNIT ( * ) SI_UNIT ( $, .STERADIAN. ) SOLID_ANGLE_UNIT ( ) );
#92 = PRODUCT_DEFINITION_SHAPE ( 'NONE', 'NONE',  #22 ) ;
#93 =( NAMED_UNIT ( * ) PLANE_ANGLE_UNIT ( ) SI_UNIT ( $, .RADIAN. ) );
#94 = SHAPE_REPRESENTATION ( 'Body001 (Mirror #1)003.step', ( #106 ), #61 ) ;
#95 =( NAMED_UNIT ( * ) SI_UNIT ( $, .STERADIAN. ) SOLID_ANGLE_UNIT ( ) );
#96 = UNCERTAINTY_MEASURE_WITH_UNIT (LENGTH_MEASURE( 1.000000000000000082E-05 ), #101, 'distance_accuracy_value', 'NONE');
#97 = PRODUCT_CONTEXT ( 'NONE', #23, 'mechanical' ) ;
#98 = SHAPE_DEFINITION_REPRESENTATION ( #12, #94 ) ;
#99 = PROPERTY_DEFINITION ('external definition','', #56 ) ;
#100 = CARTESIAN_POINT ( 'NONE',  ( 0.000000000000000000, 0.000000000000000000, 0.000000000000000000 ) ) ;
#101 =( LENGTH_UNIT ( ) NAMED_UNIT ( * ) SI_UNIT ( .MILLI., .METRE. ) );
#102 = APPLIED_EXTERNAL_IDENTIFICATION_ASSIGNMENT ( 'Body001 (Mirror #1)003.step.STEP' , #72, #49,( #37) ) ;
#103 = DIRECTION ( 'NONE',  ( 1.000000000000000000, -2.220446049250314067E-16, -4.930380657631323784E-32 ) ) ;
#104 = SHAPE_DEFINITION_REPRESENTATION ( #40, #30 ) ;
#105 = APPLICATION_PROTOCOL_DEFINITION ( 'draft international standard', 'automotive_design', 1998, #23 ) ;
#106 = AXIS2_PLACEMENT_3D ( 'NONE', #64, #44, #87 ) ;
#107 = NEXT_ASSEMBLY_USAGE_OCCURRENCE ( 'NAUO69', ' ', ' ', #22, #58, $ ) ;
#108 = NEXT_ASSEMBLY_USAGE_OCCURRENCE ( 'NAUO70', ' ', ' ', #22, #54, $ ) ;
ENDSEC;
END-ISO-10303-21;
