ISO-10303-21;
HEADER;
FILE_DESCRIPTION (( 'STEP AP214' ),
    '1' );
FILE_NAME ('Array.step.STEP',
    '2026-01-08T13:34:34',
    ( '' ),
    ( '' ),
    'SwSTEP 2.0',
    'SolidWorks 2025',
    '' );
FILE_SCHEMA (( 'AUTOMOTIVE_DESIGN' ));
ENDSEC;

DATA;
#1 = PROPERTY_DEFINITION_REPRESENTATION ( #86, #132 ) ;
#2 = PRODUCT_DEFINITION_SHAPE ( 'NONE', 'NONE',  #190 ) ;
#3 = DIRECTION ( 'NONE',  ( -4.930380657631323784E-32, -1.040957192136566911E-31, 1.000000000000000000 ) ) ;
#4 =( GEOMETRIC_REPRESENTATION_CONTEXT ( 3 ) GLOBAL_UNCERTAINTY_ASSIGNED_CONTEXT ( ( #170 ) ) GLOBAL_UNIT_ASSIGNED_CONTEXT ( ( #72, #123, #31 ) ) REPRESENTATION_CONTEXT ( 'NONE', 'WORKASPACE' ) );
#5 = SHAPE_DEFINITION_REPRESENTATION ( #168, #132 ) ;
#6 = CARTESIAN_POINT ( 'NONE',  ( 0.000000000000000000, 0.000000000000000000, 0.000000000000000000 ) ) ;
#7 = CONTEXT_DEPENDENT_SHAPE_REPRESENTATION ( #104, #171 ) ;
#8 = PROPERTY_DEFINITION ('external definition','', #110 ) ;
#9 = PROPERTY_DEFINITION_REPRESENTATION ( #153, #132 ) ;
#10 = DOCUMENT_TYPE ( 'geometry' ) ;
#11 = PROPERTY_DEFINITION ('document property','', #108 ) ;
#12 = IDENTIFICATION_ROLE ( 'external document id and location', $) ;
#13 = PROPERTY_DEFINITION ('document property','', #21 ) ;
#14 = APPLICATION_PROTOCOL_DEFINITION ( 'draft international standard', 'automotive_design', 1998, #40 ) ;
#15 = DIRECTION ( 'NONE',  ( -4.930380657631323784E-32, -1.040957192136566911E-31, 1.000000000000000000 ) ) ;
#16 = OBJECT_ROLE ('mandatory',$ ) ;
#17 = APPLIED_DOCUMENT_REFERENCE ( #158,'',( #81) ) ;
#18 = PRODUCT_RELATED_PRODUCT_CATEGORY ( 'part', '', ( #166 ) ) ;
#19 = IDENTIFICATION_ROLE ( 'external document id and location', $) ;
#20 = DIRECTION ( 'NONE',  ( 1.000000000000000000, 2.220446049250314067E-16, -4.930380657631323784E-32 ) ) ;
#21 = DOCUMENT_FILE ( 'Body005.step.STEP' , '', '', #111, '' ,$ ) ;
#22 = ITEM_DEFINED_TRANSFORMATION ( 'NONE', 'NONE', #131,  #144 ) ;
#23 = ITEM_DEFINED_TRANSFORMATION ( 'NONE', 'NONE', #57,  #144 ) ;
#24 =( REPRESENTATION_RELATIONSHIP ('NONE','NONE', #76, #132 ) REPRESENTATION_RELATIONSHIP_WITH_TRANSFORMATION ( #121 )SHAPE_REPRESENTATION_RELATIONSHIP( ) );
#25 = APPLIED_EXTERNAL_IDENTIFICATION_ASSIGNMENT ( 'Body005.step.STEP' , #42, #82,( #80) ) ;
#26 = EXTERNAL_SOURCE (IDENTIFIER('') ) ;
#27 = DOCUMENT_TYPE ( 'geometry' ) ;
#28 = CARTESIAN_POINT ( 'NONE',  ( 6.999999999999895195, 1.249999999999973355, 0.000000000000000000 ) ) ;
#29 = PROPERTY_DEFINITION ('external definition','', #79 ) ;
#30 = PRODUCT_CONTEXT ( 'NONE', #115, 'mechanical' ) ;
#31 =( NAMED_UNIT ( * ) SI_UNIT ( $, .STERADIAN. ) SOLID_ANGLE_UNIT ( ) );
#32 = DIRECTION ( 'NONE',  ( 1.000000000000000000, 2.220446049250314067E-16, -4.930380657631323784E-32 ) ) ;
#33 =( GEOMETRIC_REPRESENTATION_CONTEXT ( 3 ) GLOBAL_UNCERTAINTY_ASSIGNED_CONTEXT ( ( #138 ) ) GLOBAL_UNIT_ASSIGNED_CONTEXT ( ( #135, #118, #105 ) ) REPRESENTATION_CONTEXT ( 'NONE', 'WORKASPACE' ) );
#34 = DOCUMENT_TYPE ( 'geometry' ) ;
#35 = ROLE_ASSOCIATION ( #156, #48 ) ;
#36 = ROLE_ASSOCIATION ( #154, #113 ) ;
#37 = APPLIED_DOCUMENT_REFERENCE ( #110,'',( #81) ) ;
#38 = CONTEXT_DEPENDENT_SHAPE_REPRESENTATION ( #129, #43 ) ;
#39 = PRODUCT_RELATED_PRODUCT_CATEGORY ( 'part', '', ( #127 ) ) ;
#40 = APPLICATION_CONTEXT ( 'automotive_design' ) ;
#41 = APPLIED_EXTERNAL_IDENTIFICATION_ASSIGNMENT ( 'Body005.step.STEP' , #19, #169,( #125) ) ;
#42 = IDENTIFICATION_ROLE ( 'external document id and location', $) ;
#43 = PRODUCT_DEFINITION_SHAPE ( 'NONE', 'NONE',  #188 ) ;
#44 = ITEM_DEFINED_TRANSFORMATION ( 'NONE', 'NONE', #101,  #144 ) ;
#45 = AXIS2_PLACEMENT_3D ( 'NONE', #124, #46, #20 ) ;
#46 = DIRECTION ( 'NONE',  ( -4.930380657631323784E-32, -1.040957192136566911E-31, 1.000000000000000000 ) ) ;
#47 = CONTEXT_DEPENDENT_SHAPE_REPRESENTATION ( #24, #70 ) ;
#48 = APPLIED_DOCUMENT_REFERENCE ( #79,'',( #81) ) ;
#49 = PROPERTY_DEFINITION_REPRESENTATION ( #13, #132 ) ;
#50 = APPLICATION_CONTEXT ( 'automotive_design' ) ;
#51 = ITEM_DEFINED_TRANSFORMATION ( 'NONE', 'NONE', #87,  #144 ) ;
#52 = PROPERTY_DEFINITION_REPRESENTATION ( #62, #132 ) ;
#53 = ROLE_ASSOCIATION ( #68, #165 ) ;
#54 = OBJECT_ROLE ('mandatory',$ ) ;
#55 = PROPERTY_DEFINITION ('external definition','', #108 ) ;
#56 = EXTERNAL_SOURCE (IDENTIFIER('') ) ;
#57 = AXIS2_PLACEMENT_3D ( 'NONE', #182, #3, #77 ) ;
#58 = DIRECTION ( 'NONE',  ( 1.000000000000000000, 0.000000000000000000, 0.000000000000000000 ) ) ;
#59 =( REPRESENTATION_RELATIONSHIP ('NONE','NONE', #76, #132 ) REPRESENTATION_RELATIONSHIP_WITH_TRANSFORMATION ( #44 )SHAPE_REPRESENTATION_RELATIONSHIP( ) );
#60 = CARTESIAN_POINT ( 'NONE',  ( 6.999999999999895195, 0.000000000000000000, 0.000000000000000000 ) ) ;
#61 = AXIS2_PLACEMENT_3D ( 'NONE', #159, #15, #89 ) ;
#62 = PROPERTY_DEFINITION ('document property','', #125 ) ;
#63 = ITEM_DEFINED_TRANSFORMATION ( 'NONE', 'NONE', #61,  #144 ) ;
#64 = PROPERTY_DEFINITION_REPRESENTATION ( #103, #132 ) ;
#65 = IDENTIFICATION_ROLE ( 'external document id and location', $) ;
#66 = PROPERTY_DEFINITION ('document property','', #79 ) ;
#67 = DOCUMENT_TYPE ( 'geometry' ) ;
#68 = OBJECT_ROLE ('mandatory',$ ) ;
#69 = APPLIED_EXTERNAL_IDENTIFICATION_ASSIGNMENT ( 'Body005.step.STEP' , #65, #26,( #108) ) ;
#70 = PRODUCT_DEFINITION_SHAPE ( 'NONE', 'NONE',  #186 ) ;
#71 = DIRECTION ( 'NONE',  ( -4.930380657631323784E-32, -1.040957192136566911E-31, 1.000000000000000000 ) ) ;
#72 =( LENGTH_UNIT ( ) NAMED_UNIT ( * ) SI_UNIT ( .MILLI., .METRE. ) );
#73 = APPLIED_EXTERNAL_IDENTIFICATION_ASSIGNMENT ( 'Body005.step.STEP' , #142, #102,( #158) ) ;
#74 = ROLE_ASSOCIATION ( #16, #17 ) ;
#75 = DIRECTION ( 'NONE',  ( -4.930380657631323784E-32, -1.040957192136566911E-31, 1.000000000000000000 ) ) ;
#76 = SHAPE_REPRESENTATION ( 'Array.step', ( #112, #101, #45, #57, #131, #178, #87, #61 ), #4 ) ;
#77 = DIRECTION ( 'NONE',  ( 1.000000000000000000, 2.220446049250314067E-16, -4.930380657631323784E-32 ) ) ;
#78 = PROPERTY_DEFINITION_REPRESENTATION ( #66, #132 ) ;
#79 = DOCUMENT_FILE ( 'Body005.step.STEP' , '', '', #130, '' ,$ ) ;
#80 = DOCUMENT_FILE ( 'Body005.step.STEP' , '', '', #34, '' ,$ ) ;
#81 = PRODUCT_DEFINITION ( 'General', '', #180, #151 ) ;
#82 = EXTERNAL_SOURCE (IDENTIFIER('') ) ;
#83 = PROPERTY_DEFINITION ('external definition','', #158 ) ;
#84 = CARTESIAN_POINT ( 'NONE',  ( 0.000000000000000000, 0.000000000000000000, 0.000000000000000000 ) ) ;
#85 = PRODUCT_DEFINITION_SHAPE ( 'NONE', 'NONE',  #93 ) ;
#86 = PROPERTY_DEFINITION ('document property','', #158 ) ;
#87 = AXIS2_PLACEMENT_3D ( 'NONE', #28, #173, #106 ) ;
#88 = APPLICATION_PROTOCOL_DEFINITION ( 'draft international standard', 'automotive_design', 1998, #50 ) ;
#89 = DIRECTION ( 'NONE',  ( 1.000000000000000000, 2.220446049250314067E-16, -4.930380657631323784E-32 ) ) ;
#90 = DIRECTION ( 'NONE',  ( 0.000000000000000000, 0.000000000000000000, 1.000000000000000000 ) ) ;
#91 = OBJECT_ROLE ('mandatory',$ ) ;
#92 = APPLIED_DOCUMENT_REFERENCE ( #108,'',( #81) ) ;
#93 = PRODUCT_DEFINITION ( 'General', '', #184, #133 ) ;
#94 = ROLE_ASSOCIATION ( #146, #92 ) ;
#95 = PROPERTY_DEFINITION ('external definition','', #125 ) ;
#96 = ROLE_ASSOCIATION ( #54, #147 ) ;
#97 = PROPERTY_DEFINITION ('external definition','', #80 ) ;
#98 = PROPERTY_DEFINITION_REPRESENTATION ( #29, #132 ) ;
#99 = EXTERNAL_SOURCE (IDENTIFIER('') ) ;
#100 = PROPERTY_DEFINITION_REPRESENTATION ( #97, #132 ) ;
#101 = AXIS2_PLACEMENT_3D ( 'NONE', #174, #75, #32 ) ;
#102 = EXTERNAL_SOURCE (IDENTIFIER('') ) ;
#103 = PROPERTY_DEFINITION ('external definition','', #21 ) ;
#104 =( REPRESENTATION_RELATIONSHIP ('NONE','NONE', #76, #132 ) REPRESENTATION_RELATIONSHIP_WITH_TRANSFORMATION ( #63 )SHAPE_REPRESENTATION_RELATIONSHIP( ) );
#105 =( NAMED_UNIT ( * ) SI_UNIT ( $, .STERADIAN. ) SOLID_ANGLE_UNIT ( ) );
#106 = DIRECTION ( 'NONE',  ( 1.000000000000000000, 2.220446049250314067E-16, -4.930380657631323784E-32 ) ) ;
#107 = CARTESIAN_POINT ( 'NONE',  ( 6.999999999999895195, -3.749999999999920064, 0.000000000000000000 ) ) ;
#108 = DOCUMENT_FILE ( 'Body005.step.STEP' , '', '', #119, '' ,$ ) ;
#109 = DIRECTION ( 'NONE',  ( 1.000000000000000000, 2.220446049250314067E-16, -4.930380657631323784E-32 ) ) ;
#110 = DOCUMENT_FILE ( 'Body005.step.STEP' , '', '', #67, '' ,$ ) ;
#111 = DOCUMENT_TYPE ( 'geometry' ) ;
#112 = AXIS2_PLACEMENT_3D ( 'NONE', #6, #90, #58 ) ;
#113 = APPLIED_DOCUMENT_REFERENCE ( #21,'',( #81) ) ;
#114 = ITEM_DEFINED_TRANSFORMATION ( 'NONE', 'NONE', #178,  #144 ) ;
#115 = APPLICATION_CONTEXT ( 'automotive_design' ) ;
#116 = IDENTIFICATION_ROLE ( 'external document id and location', $) ;
#117 = PRODUCT_DEFINITION_SHAPE ( 'NONE', 'NONE',  #187 ) ;
#118 =( NAMED_UNIT ( * ) PLANE_ANGLE_UNIT ( ) SI_UNIT ( $, .RADIAN. ) );
#119 = DOCUMENT_TYPE ( 'geometry' ) ;
#120 = IDENTIFICATION_ROLE ( 'external document id and location', $) ;
#121 = ITEM_DEFINED_TRANSFORMATION ( 'NONE', 'NONE', #45,  #144 ) ;
#122 = APPLIED_EXTERNAL_IDENTIFICATION_ASSIGNMENT ( 'Body005.step.STEP' , #116, #99,( #21) ) ;
#123 =( NAMED_UNIT ( * ) PLANE_ANGLE_UNIT ( ) SI_UNIT ( $, .RADIAN. ) );
#124 = CARTESIAN_POINT ( 'NONE',  ( 6.999999999999895195, -2.499999999999946709, 0.000000000000000000 ) ) ;
#125 = DOCUMENT_FILE ( 'Body005.step.STEP' , '', '', #27, '' ,$ ) ;
#126 = PROPERTY_DEFINITION ('document property','', #80 ) ;
#127 = PRODUCT ( 'Array.step', 'Array.step', '', ( #30 ) ) ;
#128 = PROPERTY_DEFINITION_REPRESENTATION ( #8, #132 ) ;
#129 =( REPRESENTATION_RELATIONSHIP ('NONE','NONE', #76, #132 ) REPRESENTATION_RELATIONSHIP_WITH_TRANSFORMATION ( #22 )SHAPE_REPRESENTATION_RELATIONSHIP( ) );
#130 = DOCUMENT_TYPE ( 'geometry' ) ;
#131 = AXIS2_PLACEMENT_3D ( 'NONE', #107, #175, #140 ) ;
#132 = SHAPE_REPRESENTATION ( 'Body005.step', ( #144 ), #33 ) ;
#133 = PRODUCT_DEFINITION_CONTEXT ( 'detailed design', #50, 'design' ) ;
#134 = EXTERNAL_SOURCE (IDENTIFIER('') ) ;
#135 =( LENGTH_UNIT ( ) NAMED_UNIT ( * ) SI_UNIT ( .MILLI., .METRE. ) );
#136 = CONTEXT_DEPENDENT_SHAPE_REPRESENTATION ( #59, #148 ) ;
#137 = APPLICATION_PROTOCOL_DEFINITION ( 'draft international standard', 'automotive_design', 1998, #115 ) ;
#138 = UNCERTAINTY_MEASURE_WITH_UNIT (LENGTH_MEASURE( 1.000000000000000082E-05 ), #135, 'distance_accuracy_value', 'NONE');
#139 = PROPERTY_DEFINITION_REPRESENTATION ( #83, #132 ) ;
#140 = DIRECTION ( 'NONE',  ( 1.000000000000000000, 2.220446049250314067E-16, -4.930380657631323784E-32 ) ) ;
#141 = PROPERTY_DEFINITION_REPRESENTATION ( #55, #132 ) ;
#142 = IDENTIFICATION_ROLE ( 'external document id and location', $) ;
#143 = ROLE_ASSOCIATION ( #91, #37 ) ;
#144 = AXIS2_PLACEMENT_3D ( 'NONE', #84, #181, #149 ) ;
#145 = PROPERTY_DEFINITION_REPRESENTATION ( #11, #132 ) ;
#146 = OBJECT_ROLE ('mandatory',$ ) ;
#147 = APPLIED_DOCUMENT_REFERENCE ( #80,'',( #81) ) ;
#148 = PRODUCT_DEFINITION_SHAPE ( 'NONE', 'NONE',  #185 ) ;
#149 = DIRECTION ( 'NONE',  ( 1.000000000000000000, 0.000000000000000000, 0.000000000000000000 ) ) ;
#150 = APPLICATION_CONTEXT ( 'automotive_design' ) ;
#151 = PRODUCT_DEFINITION_CONTEXT ( 'detailed design', #40, 'design' ) ;
#152 = APPLIED_EXTERNAL_IDENTIFICATION_ASSIGNMENT ( 'Body005.step.STEP' , #12, #56,( #110) ) ;
#153 = PROPERTY_DEFINITION ('document property','', #110 ) ;
#154 = OBJECT_ROLE ('mandatory',$ ) ;
#155 = APPLIED_EXTERNAL_IDENTIFICATION_ASSIGNMENT ( 'Body005.step.STEP' , #120, #134,( #79) ) ;
#156 = OBJECT_ROLE ('mandatory',$ ) ;
#157 = PRODUCT_CONTEXT ( 'NONE', #150, 'mechanical' ) ;
#158 = DOCUMENT_FILE ( 'Body005.step.STEP' , '', '', #10, '' ,$ ) ;
#159 = CARTESIAN_POINT ( 'NONE',  ( 6.999999999999895195, 2.499999999999946709, 0.000000000000000000 ) ) ;
#160 = PROPERTY_DEFINITION_REPRESENTATION ( #126, #132 ) ;
#161 =( REPRESENTATION_RELATIONSHIP ('NONE','NONE', #76, #132 ) REPRESENTATION_RELATIONSHIP_WITH_TRANSFORMATION ( #51 )SHAPE_REPRESENTATION_RELATIONSHIP( ) );
#162 = CONTEXT_DEPENDENT_SHAPE_REPRESENTATION ( #161, #2 ) ;
#163 = PRODUCT_DEFINITION_SHAPE ( 'NONE', 'NONE',  #189 ) ;
#164 = CONTEXT_DEPENDENT_SHAPE_REPRESENTATION ( #167, #163 ) ;
#165 = APPLIED_DOCUMENT_REFERENCE ( #125,'',( #81) ) ;
#166 = PRODUCT ( 'Body005.step', 'Body005.step', '', ( #157 ) ) ;
#167 =( REPRESENTATION_RELATIONSHIP ('NONE','NONE', #76, #132 ) REPRESENTATION_RELATIONSHIP_WITH_TRANSFORMATION ( #114 )SHAPE_REPRESENTATION_RELATIONSHIP( ) );
#168 = PRODUCT_DEFINITION_SHAPE ( 'NONE', 'NONE',  #81 ) ;
#169 = EXTERNAL_SOURCE (IDENTIFIER('') ) ;
#170 = UNCERTAINTY_MEASURE_WITH_UNIT (LENGTH_MEASURE( 1.000000000000000082E-05 ), #72, 'distance_accuracy_value', 'NONE');
#171 = PRODUCT_DEFINITION_SHAPE ( 'NONE', 'NONE',  #191 ) ;
#172 = SHAPE_DEFINITION_REPRESENTATION ( #85, #76 ) ;
#173 = DIRECTION ( 'NONE',  ( -4.930380657631323784E-32, -1.040957192136566911E-31, 1.000000000000000000 ) ) ;
#174 = CARTESIAN_POINT ( 'NONE',  ( 6.999999999999895195, 3.749999999999920064, 0.000000000000000000 ) ) ;
#175 = DIRECTION ( 'NONE',  ( -4.930380657631323784E-32, -1.040957192136566911E-31, 1.000000000000000000 ) ) ;
#176 =( REPRESENTATION_RELATIONSHIP ('NONE','NONE', #76, #132 ) REPRESENTATION_RELATIONSHIP_WITH_TRANSFORMATION ( #23 )SHAPE_REPRESENTATION_RELATIONSHIP( ) );
#177 = CONTEXT_DEPENDENT_SHAPE_REPRESENTATION ( #176, #117 ) ;
#178 = AXIS2_PLACEMENT_3D ( 'NONE', #60, #71, #109 ) ;
#179 = PROPERTY_DEFINITION_REPRESENTATION ( #95, #132 ) ;
#180 = PRODUCT_DEFINITION_FORMATION_WITH_SPECIFIED_SOURCE ( 'Symmetric', '', #166, .NOT_KNOWN. ) ;
#181 = DIRECTION ( 'NONE',  ( 0.000000000000000000, 0.000000000000000000, 1.000000000000000000 ) ) ;
#182 = CARTESIAN_POINT ( 'NONE',  ( 6.999999999999895195, -1.249999999999973355, 0.000000000000000000 ) ) ;
#183 = APPLICATION_PROTOCOL_DEFINITION ( 'draft international standard', 'automotive_design', 1998, #150 ) ;
#184 = PRODUCT_DEFINITION_FORMATION_WITH_SPECIFIED_SOURCE ( 'Symmetric', '', #127, .NOT_KNOWN. ) ;
#185 = NEXT_ASSEMBLY_USAGE_OCCURRENCE ( 'NAUO42', ' ', ' ', #93, #81, $ ) ;
#186 = NEXT_ASSEMBLY_USAGE_OCCURRENCE ( 'NAUO43', ' ', ' ', #93, #81, $ ) ;
#187 = NEXT_ASSEMBLY_USAGE_OCCURRENCE ( 'NAUO44', ' ', ' ', #93, #81, $ ) ;
#188 = NEXT_ASSEMBLY_USAGE_OCCURRENCE ( 'NAUO45', ' ', ' ', #93, #81, $ ) ;
#189 = NEXT_ASSEMBLY_USAGE_OCCURRENCE ( 'NAUO46', ' ', ' ', #93, #81, $ ) ;
#190 = NEXT_ASSEMBLY_USAGE_OCCURRENCE ( 'NAUO47', ' ', ' ', #93, #81, $ ) ;
#191 = NEXT_ASSEMBLY_USAGE_OCCURRENCE ( 'NAUO48', ' ', ' ', #93, #81, $ ) ;
ENDSEC;
END-ISO-10303-21;
