ISO-10303-21;
HEADER;
FILE_DESCRIPTION (( 'STEP AP214' ),
    '1' );
FILE_NAME ('Array001.step.STEP',
    '2026-01-08T13:34:34',
    ( '' ),
    ( '' ),
    'SwSTEP 2.0',
    'SolidWorks 2025',
    '' );
FILE_SCHEMA (( 'AUTOMOTIVE_DESIGN' ));
ENDSEC;

DATA;
#1 = ITEM_DEFINED_TRANSFORMATION ( 'NONE', 'NONE', #162,  #75 ) ;
#2 = ROLE_ASSOCIATION ( #109, #119 ) ;
#3 = APPLIED_EXTERNAL_IDENTIFICATION_ASSIGNMENT ( 'Body006.step.STEP' , #63, #80,( #36) ) ;
#4 = PRODUCT ( 'Body006.step', 'Body006.step', '', ( #129 ) ) ;
#5 = EXTERNAL_SOURCE (IDENTIFIER('') ) ;
#6 = PROPERTY_DEFINITION ('external definition','', #137 ) ;
#7 = APPLIED_DOCUMENT_REFERENCE ( #127,'',( #134) ) ;
#8 = PROPERTY_DEFINITION_REPRESENTATION ( #20, #185 ) ;
#9 = CARTESIAN_POINT ( 'NONE',  ( -6.999999999999895195, 0.6250000000000976996, 0.000000000000000000 ) ) ;
#10 = APPLIED_EXTERNAL_IDENTIFICATION_ASSIGNMENT ( 'Body006.step.STEP' , #135, #76,( #137) ) ;
#11 = PROPERTY_DEFINITION_REPRESENTATION ( #28, #185 ) ;
#12 = PRODUCT_DEFINITION_SHAPE ( 'NONE', 'NONE',  #210 ) ;
#13 = DIRECTION ( 'NONE',  ( -4.930380657631323784E-32, -1.040957192136566911E-31, 1.000000000000000000 ) ) ;
#14 = SHAPE_REPRESENTATION ( 'Array001.step', ( #184, #162, #31, #23, #153, #191, #140, #121, #138 ), #50 ) ;
#15 = DOCUMENT_TYPE ( 'geometry' ) ;
#16 = SHAPE_DEFINITION_REPRESENTATION ( #51, #185 ) ;
#17 =( REPRESENTATION_RELATIONSHIP ('NONE','NONE', #14, #185 ) REPRESENTATION_RELATIONSHIP_WITH_TRANSFORMATION ( #89 )SHAPE_REPRESENTATION_RELATIONSHIP( ) );
#18 = APPLIED_EXTERNAL_IDENTIFICATION_ASSIGNMENT ( 'Body006.step.STEP' , #24, #181,( #127) ) ;
#19 = APPLICATION_PROTOCOL_DEFINITION ( 'draft international standard', 'automotive_design', 1998, #47 ) ;
#20 = PROPERTY_DEFINITION ('external definition','', #160 ) ;
#21 =( LENGTH_UNIT ( ) NAMED_UNIT ( * ) SI_UNIT ( .MILLI., .METRE. ) );
#22 = IDENTIFICATION_ROLE ( 'external document id and location', $) ;
#23 = AXIS2_PLACEMENT_3D ( 'NONE', #67, #124, #161 ) ;
#24 = IDENTIFICATION_ROLE ( 'external document id and location', $) ;
#25 = CONTEXT_DEPENDENT_SHAPE_REPRESENTATION ( #122, #74 ) ;
#26 = PROPERTY_DEFINITION_REPRESENTATION ( #177, #185 ) ;
#27 = PROPERTY_DEFINITION_REPRESENTATION ( #98, #185 ) ;
#28 = PROPERTY_DEFINITION ('external definition','', #127 ) ;
#29 = PROPERTY_DEFINITION_REPRESENTATION ( #61, #185 ) ;
#30 = ROLE_ASSOCIATION ( #53, #182 ) ;
#31 = AXIS2_PLACEMENT_3D ( 'NONE', #196, #145, #62 ) ;
#32 = CARTESIAN_POINT ( 'NONE',  ( 0.000000000000000000, 0.000000000000000000, 0.000000000000000000 ) ) ;
#33 = DIRECTION ( 'NONE',  ( -4.930380657631323784E-32, -1.040957192136566911E-31, 1.000000000000000000 ) ) ;
#34 = OBJECT_ROLE ('mandatory',$ ) ;
#35 = DOCUMENT_TYPE ( 'geometry' ) ;
#36 = DOCUMENT_FILE ( 'Body006.step.STEP' , '', '', #15, '' ,$ ) ;
#37 = PROPERTY_DEFINITION ('document property','', #160 ) ;
#38 = APPLICATION_CONTEXT ( 'automotive_design' ) ;
#39 = ITEM_DEFINED_TRANSFORMATION ( 'NONE', 'NONE', #23,  #75 ) ;
#40 = PROPERTY_DEFINITION_REPRESENTATION ( #91, #185 ) ;
#41 = DOCUMENT_TYPE ( 'geometry' ) ;
#42 = EXTERNAL_SOURCE (IDENTIFIER('') ) ;
#43 =( REPRESENTATION_RELATIONSHIP ('NONE','NONE', #14, #185 ) REPRESENTATION_RELATIONSHIP_WITH_TRANSFORMATION ( #151 )SHAPE_REPRESENTATION_RELATIONSHIP( ) );
#44 = CONTEXT_DEPENDENT_SHAPE_REPRESENTATION ( #144, #164 ) ;
#45 = PRODUCT_DEFINITION_FORMATION_WITH_SPECIFIED_SOURCE ( 'Symmetric', '', #174, .NOT_KNOWN. ) ;
#46 = APPLICATION_PROTOCOL_DEFINITION ( 'draft international standard', 'automotive_design', 1998, #38 ) ;
#47 = APPLICATION_CONTEXT ( 'automotive_design' ) ;
#48 = PRODUCT_DEFINITION_SHAPE ( 'NONE', 'NONE',  #211 ) ;
#49 = CONTEXT_DEPENDENT_SHAPE_REPRESENTATION ( #59, #159 ) ;
#50 =( GEOMETRIC_REPRESENTATION_CONTEXT ( 3 ) GLOBAL_UNCERTAINTY_ASSIGNED_CONTEXT ( ( #105 ) ) GLOBAL_UNIT_ASSIGNED_CONTEXT ( ( #92, #79, #86 ) ) REPRESENTATION_CONTEXT ( 'NONE', 'WORKASPACE' ) );
#51 = PRODUCT_DEFINITION_SHAPE ( 'NONE', 'NONE',  #134 ) ;
#52 = PRODUCT_RELATED_PRODUCT_CATEGORY ( 'part', '', ( #174 ) ) ;
#53 = OBJECT_ROLE ('mandatory',$ ) ;
#54 = DIRECTION ( 'NONE',  ( -4.930380657631323784E-32, -1.040957192136566911E-31, 1.000000000000000000 ) ) ;
#55 = PROPERTY_DEFINITION ('external definition','', #168 ) ;
#56 = DOCUMENT_FILE ( 'Body006.step.STEP' , '', '', #113, '' ,$ ) ;
#57 = APPLIED_EXTERNAL_IDENTIFICATION_ASSIGNMENT ( 'Body006.step.STEP' , #110, #94,( #168) ) ;
#58 = APPLICATION_CONTEXT ( 'automotive_design' ) ;
#59 =( REPRESENTATION_RELATIONSHIP ('NONE','NONE', #14, #185 ) REPRESENTATION_RELATIONSHIP_WITH_TRANSFORMATION ( #93 )SHAPE_REPRESENTATION_RELATIONSHIP( ) );
#60 = ROLE_ASSOCIATION ( #128, #175 ) ;
#61 = PROPERTY_DEFINITION ('document property','', #127 ) ;
#62 = DIRECTION ( 'NONE',  ( -2.220446049250314067E-16, -1.000000000000000000, 1.040957192136566911E-31 ) ) ;
#63 = IDENTIFICATION_ROLE ( 'external document id and location', $) ;
#64 = DIRECTION ( 'NONE',  ( -2.220446049250314067E-16, -1.000000000000000000, 1.040957192136566911E-31 ) ) ;
#65 = DIRECTION ( 'NONE',  ( -4.930380657631323784E-32, -1.040957192136566911E-31, 1.000000000000000000 ) ) ;
#66 = PRODUCT_CONTEXT ( 'NONE', #126, 'mechanical' ) ;
#67 = CARTESIAN_POINT ( 'NONE',  ( -6.999999999999895195, -0.6250000000000976996, 0.000000000000000000 ) ) ;
#68 = ROLE_ASSOCIATION ( #34, #72 ) ;
#69 = PROPERTY_DEFINITION_REPRESENTATION ( #71, #185 ) ;
#70 = PRODUCT_DEFINITION_FORMATION_WITH_SPECIFIED_SOURCE ( 'Symmetric', '', #4, .NOT_KNOWN. ) ;
#71 = PROPERTY_DEFINITION ('external definition','', #56 ) ;
#72 = APPLIED_DOCUMENT_REFERENCE ( #137,'',( #134) ) ;
#73 = PROPERTY_DEFINITION_REPRESENTATION ( #6, #185 ) ;
#74 = PRODUCT_DEFINITION_SHAPE ( 'NONE', 'NONE',  #207 ) ;
#75 = AXIS2_PLACEMENT_3D ( 'NONE', #107, #187, #101 ) ;
#76 = EXTERNAL_SOURCE (IDENTIFIER('') ) ;
#77 = PRODUCT_DEFINITION_SHAPE ( 'NONE', 'NONE',  #209 ) ;
#78 = CARTESIAN_POINT ( 'NONE',  ( -6.999999999999895195, -4.375000000000017764, 0.000000000000000000 ) ) ;
#79 =( NAMED_UNIT ( * ) PLANE_ANGLE_UNIT ( ) SI_UNIT ( $, .RADIAN. ) );
#80 = EXTERNAL_SOURCE (IDENTIFIER('') ) ;
#81 = CARTESIAN_POINT ( 'NONE',  ( -6.999999999999895195, -3.125000000000044409, 0.000000000000000000 ) ) ;
#82 = PRODUCT_DEFINITION_SHAPE ( 'NONE', 'NONE',  #156 ) ;
#83 = APPLIED_DOCUMENT_REFERENCE ( #168,'',( #134) ) ;
#84 = DOCUMENT_TYPE ( 'geometry' ) ;
#85 =( NAMED_UNIT ( * ) SI_UNIT ( $, .STERADIAN. ) SOLID_ANGLE_UNIT ( ) );
#86 =( NAMED_UNIT ( * ) SI_UNIT ( $, .STERADIAN. ) SOLID_ANGLE_UNIT ( ) );
#87 =( GEOMETRIC_REPRESENTATION_CONTEXT ( 3 ) GLOBAL_UNCERTAINTY_ASSIGNED_CONTEXT ( ( #186 ) ) GLOBAL_UNIT_ASSIGNED_CONTEXT ( ( #21, #103, #85 ) ) REPRESENTATION_CONTEXT ( 'NONE', 'WORKASPACE' ) );
#88 = PROPERTY_DEFINITION ('document property','', #168 ) ;
#89 = ITEM_DEFINED_TRANSFORMATION ( 'NONE', 'NONE', #121,  #75 ) ;
#90 = ITEM_DEFINED_TRANSFORMATION ( 'NONE', 'NONE', #138,  #75 ) ;
#91 = PROPERTY_DEFINITION ('document property','', #36 ) ;
#92 =( LENGTH_UNIT ( ) NAMED_UNIT ( * ) SI_UNIT ( .MILLI., .METRE. ) );
#93 = ITEM_DEFINED_TRANSFORMATION ( 'NONE', 'NONE', #31,  #75 ) ;
#94 = EXTERNAL_SOURCE (IDENTIFIER('') ) ;
#95 = ROLE_ASSOCIATION ( #178, #83 ) ;
#96 = EXTERNAL_SOURCE (IDENTIFIER('') ) ;
#97 = DOCUMENT_FILE ( 'Body006.step.STEP' , '', '', #41, '' ,$ ) ;
#98 = PROPERTY_DEFINITION ('external definition','', #97 ) ;
#99 = CARTESIAN_POINT ( 'NONE',  ( -6.999999999999895195, 3.125000000000044409, 0.000000000000000000 ) ) ;
#100 = APPLIED_EXTERNAL_IDENTIFICATION_ASSIGNMENT ( 'Body006.step.STEP' , #170, #42,( #160) ) ;
#101 = DIRECTION ( 'NONE',  ( 1.000000000000000000, 0.000000000000000000, 0.000000000000000000 ) ) ;
#102 = PROPERTY_DEFINITION_REPRESENTATION ( #190, #185 ) ;
#103 =( NAMED_UNIT ( * ) PLANE_ANGLE_UNIT ( ) SI_UNIT ( $, .RADIAN. ) );
#104 = ITEM_DEFINED_TRANSFORMATION ( 'NONE', 'NONE', #140,  #75 ) ;
#105 = UNCERTAINTY_MEASURE_WITH_UNIT (LENGTH_MEASURE( 1.000000000000000082E-05 ), #92, 'distance_accuracy_value', 'NONE');
#106 = OBJECT_ROLE ('mandatory',$ ) ;
#107 = CARTESIAN_POINT ( 'NONE',  ( 0.000000000000000000, 0.000000000000000000, 0.000000000000000000 ) ) ;
#108 = PROPERTY_DEFINITION ('external definition','', #36 ) ;
#109 = OBJECT_ROLE ('mandatory',$ ) ;
#110 = IDENTIFICATION_ROLE ( 'external document id and location', $) ;
#111 = DIRECTION ( 'NONE',  ( -2.220446049250314067E-16, -1.000000000000000000, 1.040957192136566911E-31 ) ) ;
#112 = ROLE_ASSOCIATION ( #136, #143 ) ;
#113 = DOCUMENT_TYPE ( 'geometry' ) ;
#114 = APPLICATION_PROTOCOL_DEFINITION ( 'draft international standard', 'automotive_design', 1998, #58 ) ;
#115 = PRODUCT_RELATED_PRODUCT_CATEGORY ( 'part', '', ( #4 ) ) ;
#116 = CARTESIAN_POINT ( 'NONE',  ( -6.999999999999895195, 1.875000000000071054, 0.000000000000000000 ) ) ;
#117 = PRODUCT_DEFINITION_CONTEXT ( 'detailed design', #47, 'design' ) ;
#118 =( REPRESENTATION_RELATIONSHIP ('NONE','NONE', #14, #185 ) REPRESENTATION_RELATIONSHIP_WITH_TRANSFORMATION ( #104 )SHAPE_REPRESENTATION_RELATIONSHIP( ) );
#119 = APPLIED_DOCUMENT_REFERENCE ( #56,'',( #134) ) ;
#120 = APPLIED_DOCUMENT_REFERENCE ( #36,'',( #134) ) ;
#121 = AXIS2_PLACEMENT_3D ( 'NONE', #116, #13, #152 ) ;
#122 =( REPRESENTATION_RELATIONSHIP ('NONE','NONE', #14, #185 ) REPRESENTATION_RELATIONSHIP_WITH_TRANSFORMATION ( #39 )SHAPE_REPRESENTATION_RELATIONSHIP( ) );
#123 = PROPERTY_DEFINITION_REPRESENTATION ( #195, #185 ) ;
#124 = DIRECTION ( 'NONE',  ( -4.930380657631323784E-32, -1.040957192136566911E-31, 1.000000000000000000 ) ) ;
#125 = PROPERTY_DEFINITION ('document property','', #97 ) ;
#126 = APPLICATION_CONTEXT ( 'automotive_design' ) ;
#127 = DOCUMENT_FILE ( 'Body006.step.STEP' , '', '', #35, '' ,$ ) ;
#128 = OBJECT_ROLE ('mandatory',$ ) ;
#129 = PRODUCT_CONTEXT ( 'NONE', #38, 'mechanical' ) ;
#130 = CONTEXT_DEPENDENT_SHAPE_REPRESENTATION ( #150, #139 ) ;
#131 = APPLICATION_PROTOCOL_DEFINITION ( 'draft international standard', 'automotive_design', 1998, #126 ) ;
#132 = PRODUCT_DEFINITION_SHAPE ( 'NONE', 'NONE',  #208 ) ;
#133 = DIRECTION ( 'NONE',  ( -4.930380657631323784E-32, -1.040957192136566911E-31, 1.000000000000000000 ) ) ;
#134 = PRODUCT_DEFINITION ( 'General', '', #70, #149 ) ;
#135 = IDENTIFICATION_ROLE ( 'external document id and location', $) ;
#136 = OBJECT_ROLE ('mandatory',$ ) ;
#137 = DOCUMENT_FILE ( 'Body006.step.STEP' , '', '', #189, '' ,$ ) ;
#138 = AXIS2_PLACEMENT_3D ( 'NONE', #81, #54, #179 ) ;
#139 = PRODUCT_DEFINITION_SHAPE ( 'NONE', 'NONE',  #205 ) ;
#140 = AXIS2_PLACEMENT_3D ( 'NONE', #9, #200, #64 ) ;
#141 = DOCUMENT_FILE ( 'Body006.step.STEP' , '', '', #158, '' ,$ ) ;
#142 = IDENTIFICATION_ROLE ( 'external document id and location', $) ;
#143 = APPLIED_DOCUMENT_REFERENCE ( #141,'',( #134) ) ;
#144 =( REPRESENTATION_RELATIONSHIP ('NONE','NONE', #14, #185 ) REPRESENTATION_RELATIONSHIP_WITH_TRANSFORMATION ( #90 )SHAPE_REPRESENTATION_RELATIONSHIP( ) );
#145 = DIRECTION ( 'NONE',  ( -4.930380657631323784E-32, -1.040957192136566911E-31, 1.000000000000000000 ) ) ;
#146 = DIRECTION ( 'NONE',  ( -2.220446049250314067E-16, -1.000000000000000000, 1.040957192136566911E-31 ) ) ;
#147 = IDENTIFICATION_ROLE ( 'external document id and location', $) ;
#148 = DIRECTION ( 'NONE',  ( -2.220446049250314067E-16, -1.000000000000000000, 1.040957192136566911E-31 ) ) ;
#149 = PRODUCT_DEFINITION_CONTEXT ( 'detailed design', #58, 'design' ) ;
#150 =( REPRESENTATION_RELATIONSHIP ('NONE','NONE', #14, #185 ) REPRESENTATION_RELATIONSHIP_WITH_TRANSFORMATION ( #1 )SHAPE_REPRESENTATION_RELATIONSHIP( ) );
#151 = ITEM_DEFINED_TRANSFORMATION ( 'NONE', 'NONE', #153,  #75 ) ;
#152 = DIRECTION ( 'NONE',  ( -2.220446049250314067E-16, -1.000000000000000000, 1.040957192136566911E-31 ) ) ;
#153 = AXIS2_PLACEMENT_3D ( 'NONE', #163, #33, #148 ) ;
#154 =( REPRESENTATION_RELATIONSHIP ('NONE','NONE', #14, #185 ) REPRESENTATION_RELATIONSHIP_WITH_TRANSFORMATION ( #171 )SHAPE_REPRESENTATION_RELATIONSHIP( ) );
#155 = PROPERTY_DEFINITION_REPRESENTATION ( #88, #185 ) ;
#156 = PRODUCT_DEFINITION ( 'General', '', #45, #117 ) ;
#157 = APPLIED_EXTERNAL_IDENTIFICATION_ASSIGNMENT ( 'Body006.step.STEP' , #147, #173,( #141) ) ;
#158 = DOCUMENT_TYPE ( 'geometry' ) ;
#159 = PRODUCT_DEFINITION_SHAPE ( 'NONE', 'NONE',  #206 ) ;
#160 = DOCUMENT_FILE ( 'Body006.step.STEP' , '', '', #84, '' ,$ ) ;
#161 = DIRECTION ( 'NONE',  ( -2.220446049250314067E-16, -1.000000000000000000, 1.040957192136566911E-31 ) ) ;
#162 = AXIS2_PLACEMENT_3D ( 'NONE', #99, #65, #111 ) ;
#163 = CARTESIAN_POINT ( 'NONE',  ( -6.999999999999895195, -1.875000000000071054, 0.000000000000000000 ) ) ;
#164 = PRODUCT_DEFINITION_SHAPE ( 'NONE', 'NONE',  #212 ) ;
#165 = DOCUMENT_TYPE ( 'geometry' ) ;
#166 = PROPERTY_DEFINITION_REPRESENTATION ( #55, #185 ) ;
#167 = PROPERTY_DEFINITION_REPRESENTATION ( #125, #185 ) ;
#168 = DOCUMENT_FILE ( 'Body006.step.STEP' , '', '', #165, '' ,$ ) ;
#169 = APPLIED_EXTERNAL_IDENTIFICATION_ASSIGNMENT ( 'Body006.step.STEP' , #22, #5,( #56) ) ;
#170 = IDENTIFICATION_ROLE ( 'external document id and location', $) ;
#171 = ITEM_DEFINED_TRANSFORMATION ( 'NONE', 'NONE', #191,  #75 ) ;
#172 = CONTEXT_DEPENDENT_SHAPE_REPRESENTATION ( #118, #12 ) ;
#173 = EXTERNAL_SOURCE (IDENTIFIER('') ) ;
#174 = PRODUCT ( 'Array001.step', 'Array001.step', '', ( #66 ) ) ;
#175 = APPLIED_DOCUMENT_REFERENCE ( #160,'',( #134) ) ;
#176 = DIRECTION ( 'NONE',  ( 0.000000000000000000, 0.000000000000000000, 1.000000000000000000 ) ) ;
#177 = PROPERTY_DEFINITION ('external definition','', #141 ) ;
#178 = OBJECT_ROLE ('mandatory',$ ) ;
#179 = DIRECTION ( 'NONE',  ( -2.220446049250314067E-16, -1.000000000000000000, 1.040957192136566911E-31 ) ) ;
#180 = SHAPE_DEFINITION_REPRESENTATION ( #82, #14 ) ;
#181 = EXTERNAL_SOURCE (IDENTIFIER('') ) ;
#182 = APPLIED_DOCUMENT_REFERENCE ( #97,'',( #134) ) ;
#183 = CONTEXT_DEPENDENT_SHAPE_REPRESENTATION ( #154, #77 ) ;
#184 = AXIS2_PLACEMENT_3D ( 'NONE', #32, #176, #197 ) ;
#185 = SHAPE_REPRESENTATION ( 'Body006.step', ( #75 ), #87 ) ;
#186 = UNCERTAINTY_MEASURE_WITH_UNIT (LENGTH_MEASURE( 1.000000000000000082E-05 ), #21, 'distance_accuracy_value', 'NONE');
#187 = DIRECTION ( 'NONE',  ( 0.000000000000000000, 0.000000000000000000, 1.000000000000000000 ) ) ;
#188 = PROPERTY_DEFINITION_REPRESENTATION ( #108, #185 ) ;
#189 = DOCUMENT_TYPE ( 'geometry' ) ;
#190 = PROPERTY_DEFINITION ('document property','', #56 ) ;
#191 = AXIS2_PLACEMENT_3D ( 'NONE', #78, #133, #146 ) ;
#192 = ROLE_ASSOCIATION ( #106, #120 ) ;
#193 = PROPERTY_DEFINITION_REPRESENTATION ( #37, #185 ) ;
#194 = PROPERTY_DEFINITION_REPRESENTATION ( #198, #185 ) ;
#195 = PROPERTY_DEFINITION ('document property','', #137 ) ;
#196 = CARTESIAN_POINT ( 'NONE',  ( -6.999999999999895195, 4.375000000000017764, 0.000000000000000000 ) ) ;
#197 = DIRECTION ( 'NONE',  ( 1.000000000000000000, 0.000000000000000000, 0.000000000000000000 ) ) ;
#198 = PROPERTY_DEFINITION ('document property','', #141 ) ;
#199 = APPLIED_EXTERNAL_IDENTIFICATION_ASSIGNMENT ( 'Body006.step.STEP' , #142, #96,( #97) ) ;
#200 = DIRECTION ( 'NONE',  ( -4.930380657631323784E-32, -1.040957192136566911E-31, 1.000000000000000000 ) ) ;
#201 = CONTEXT_DEPENDENT_SHAPE_REPRESENTATION ( #43, #132 ) ;
#202 = CONTEXT_DEPENDENT_SHAPE_REPRESENTATION ( #17, #48 ) ;
#203 = OBJECT_ROLE ('mandatory',$ ) ;
#204 = ROLE_ASSOCIATION ( #203, #7 ) ;
#205 = NEXT_ASSEMBLY_USAGE_OCCURRENCE ( 'NAUO49', ' ', ' ', #156, #134, $ ) ;
#206 = NEXT_ASSEMBLY_USAGE_OCCURRENCE ( 'NAUO50', ' ', ' ', #156, #134, $ ) ;
#207 = NEXT_ASSEMBLY_USAGE_OCCURRENCE ( 'NAUO51', ' ', ' ', #156, #134, $ ) ;
#208 = NEXT_ASSEMBLY_USAGE_OCCURRENCE ( 'NAUO52', ' ', ' ', #156, #134, $ ) ;
#209 = NEXT_ASSEMBLY_USAGE_OCCURRENCE ( 'NAUO53', ' ', ' ', #156, #134, $ ) ;
#210 = NEXT_ASSEMBLY_USAGE_OCCURRENCE ( 'NAUO54', ' ', ' ', #156, #134, $ ) ;
#211 = NEXT_ASSEMBLY_USAGE_OCCURRENCE ( 'NAUO55', ' ', ' ', #156, #134, $ ) ;
#212 = NEXT_ASSEMBLY_USAGE_OCCURRENCE ( 'NAUO56', ' ', ' ', #156, #134, $ ) ;
ENDSEC;
END-ISO-10303-21;
