ISO-10303-21;
HEADER;
FILE_DESCRIPTION (( 'STEP AP214' ),
    '1' );
FILE_NAME ('Array003.step.STEP',
    '2026-01-08T13:34:34',
    ( '' ),
    ( '' ),
    'SwSTEP 2.0',
    'SolidWorks 2025',
    '' );
FILE_SCHEMA (( 'AUTOMOTIVE_DESIGN' ));
ENDSEC;

DATA;
#1 = PRODUCT_DEFINITION_SHAPE ( 'NONE', 'NONE',  #209 ) ;
#2 = DIRECTION ( 'NONE',  ( 0.000000000000000000, 0.000000000000000000, 1.000000000000000000 ) ) ;
#3 = PRODUCT_DEFINITION_FORMATION_WITH_SPECIFIED_SOURCE ( 'Symmetric', '', #161, .NOT_KNOWN. ) ;
#4 = ROLE_ASSOCIATION ( #77, #117 ) ;
#5 = AXIS2_PLACEMENT_3D ( 'NONE', #16, #176, #18 ) ;
#6 = PRODUCT_DEFINITION ( 'General', '', #3, #64 ) ;
#7 =( REPRESENTATION_RELATIONSHIP ('NONE','NONE', #9, #202 ) REPRESENTATION_RELATIONSHIP_WITH_TRANSFORMATION ( #108 )SHAPE_REPRESENTATION_RELATIONSHIP( ) );
#8 = DOCUMENT_FILE ( 'Body009.step.STEP' , '', '', #156, '' ,$ ) ;
#9 = SHAPE_REPRESENTATION ( 'Array003.step', ( #5, #169, #84, #145, #190, #153, #193, #91, #30 ), #119 ) ;
#10 = PROPERTY_DEFINITION ('document property','', #8 ) ;
#11 = DOCUMENT_TYPE ( 'geometry' ) ;
#12 = APPLICATION_PROTOCOL_DEFINITION ( 'draft international standard', 'automotive_design', 1998, #50 ) ;
#13 = UNCERTAINTY_MEASURE_WITH_UNIT (LENGTH_MEASURE( 1.000000000000000082E-05 ), #76, 'distance_accuracy_value', 'NONE');
#14 = APPLICATION_CONTEXT ( 'automotive_design' ) ;
#15 = PRODUCT_DEFINITION_SHAPE ( 'NONE', 'NONE',  #210 ) ;
#16 = CARTESIAN_POINT ( 'NONE',  ( 0.000000000000000000, 0.000000000000000000, 0.000000000000000000 ) ) ;
#17 = APPLIED_EXTERNAL_IDENTIFICATION_ASSIGNMENT ( 'Body009.step.STEP' , #96, #104,( #120) ) ;
#18 = DIRECTION ( 'NONE',  ( 1.000000000000000000, 0.000000000000000000, 0.000000000000000000 ) ) ;
#19 = SHAPE_DEFINITION_REPRESENTATION ( #175, #202 ) ;
#20 = OBJECT_ROLE ('mandatory',$ ) ;
#21 = APPLIED_DOCUMENT_REFERENCE ( #8,'',( #134) ) ;
#22 = CONTEXT_DEPENDENT_SHAPE_REPRESENTATION ( #166, #49 ) ;
#23 = CONTEXT_DEPENDENT_SHAPE_REPRESENTATION ( #171, #15 ) ;
#24 = PROPERTY_DEFINITION_REPRESENTATION ( #45, #202 ) ;
#25 = APPLIED_EXTERNAL_IDENTIFICATION_ASSIGNMENT ( 'Body009.step.STEP' , #184, #68,( #26) ) ;
#26 = DOCUMENT_FILE ( 'Body009.step.STEP' , '', '', #78, '' ,$ ) ;
#27 = DOCUMENT_TYPE ( 'geometry' ) ;
#28 =( REPRESENTATION_RELATIONSHIP ('NONE','NONE', #9, #202 ) REPRESENTATION_RELATIONSHIP_WITH_TRANSFORMATION ( #165 )SHAPE_REPRESENTATION_RELATIONSHIP( ) );
#29 = DIRECTION ( 'NONE',  ( 1.000000000000000000, -2.220446049250314067E-16, -1.040957192136566911E-31 ) ) ;
#30 = AXIS2_PLACEMENT_3D ( 'NONE', #48, #185, #81 ) ;
#31 = PRODUCT_DEFINITION_SHAPE ( 'NONE', 'NONE',  #206 ) ;
#32 =( REPRESENTATION_RELATIONSHIP ('NONE','NONE', #9, #202 ) REPRESENTATION_RELATIONSHIP_WITH_TRANSFORMATION ( #103 )SHAPE_REPRESENTATION_RELATIONSHIP( ) );
#33 = DIRECTION ( 'NONE',  ( -1.040957192136566911E-31, 4.930380657631323784E-32, 1.000000000000000000 ) ) ;
#34 = APPLIED_EXTERNAL_IDENTIFICATION_ASSIGNMENT ( 'Body009.step.STEP' , #199, #58,( #143) ) ;
#35 = ROLE_ASSOCIATION ( #112, #21 ) ;
#36 = OBJECT_ROLE ('mandatory',$ ) ;
#37 = IDENTIFICATION_ROLE ( 'external document id and location', $) ;
#38 = EXTERNAL_SOURCE (IDENTIFIER('') ) ;
#39 = ROLE_ASSOCIATION ( #36, #67 ) ;
#40 = APPLIED_DOCUMENT_REFERENCE ( #26,'',( #134) ) ;
#41 = APPLICATION_CONTEXT ( 'automotive_design' ) ;
#42 = ROLE_ASSOCIATION ( #20, #40 ) ;
#43 = PROPERTY_DEFINITION ('external definition','', #105 ) ;
#44 = CONTEXT_DEPENDENT_SHAPE_REPRESENTATION ( #102, #90 ) ;
#45 = PROPERTY_DEFINITION ('document property','', #179 ) ;
#46 = CARTESIAN_POINT ( 'NONE',  ( 0.000000000000000000, 0.3249999999999086953, 0.000000000000000000 ) ) ;
#47 =( REPRESENTATION_RELATIONSHIP ('NONE','NONE', #9, #202 ) REPRESENTATION_RELATIONSHIP_WITH_TRANSFORMATION ( #107 )SHAPE_REPRESENTATION_RELATIONSHIP( ) );
#48 = CARTESIAN_POINT ( 'NONE',  ( 0.000000000000000000, -2.275000000000027001, 0.000000000000000000 ) ) ;
#49 = PRODUCT_DEFINITION_SHAPE ( 'NONE', 'NONE',  #207 ) ;
#50 = APPLICATION_CONTEXT ( 'automotive_design' ) ;
#51 = CARTESIAN_POINT ( 'NONE',  ( 0.000000000000000000, -0.9749999999999481304, 0.000000000000000000 ) ) ;
#52 = PROPERTY_DEFINITION_REPRESENTATION ( #80, #202 ) ;
#53 = PROPERTY_DEFINITION_REPRESENTATION ( #92, #202 ) ;
#54 = PROPERTY_DEFINITION_REPRESENTATION ( #189, #202 ) ;
#55 = PROPERTY_DEFINITION_REPRESENTATION ( #43, #202 ) ;
#56 = APPLICATION_CONTEXT ( 'automotive_design' ) ;
#57 = APPLICATION_PROTOCOL_DEFINITION ( 'draft international standard', 'automotive_design', 1998, #41 ) ;
#58 = EXTERNAL_SOURCE (IDENTIFIER('') ) ;
#59 = APPLICATION_PROTOCOL_DEFINITION ( 'draft international standard', 'automotive_design', 1998, #14 ) ;
#60 = APPLIED_EXTERNAL_IDENTIFICATION_ASSIGNMENT ( 'Body009.step.STEP' , #37, #170,( #179) ) ;
#61 = DIRECTION ( 'NONE',  ( -1.040957192136566911E-31, 4.930380657631323784E-32, 1.000000000000000000 ) ) ;
#62 =( LENGTH_UNIT ( ) NAMED_UNIT ( * ) SI_UNIT ( .MILLI., .METRE. ) );
#63 =( NAMED_UNIT ( * ) SI_UNIT ( $, .STERADIAN. ) SOLID_ANGLE_UNIT ( ) );
#64 = PRODUCT_DEFINITION_CONTEXT ( 'detailed design', #50, 'design' ) ;
#65 =( NAMED_UNIT ( * ) SI_UNIT ( $, .STERADIAN. ) SOLID_ANGLE_UNIT ( ) );
#66 = ITEM_DEFINED_TRANSFORMATION ( 'NONE', 'NONE', #193,  #88 ) ;
#67 = APPLIED_DOCUMENT_REFERENCE ( #120,'',( #134) ) ;
#68 = EXTERNAL_SOURCE (IDENTIFIER('') ) ;
#69 = CONTEXT_DEPENDENT_SHAPE_REPRESENTATION ( #135, #192 ) ;
#70 = PROPERTY_DEFINITION ('document property','', #26 ) ;
#71 = APPLIED_DOCUMENT_REFERENCE ( #157,'',( #134) ) ;
#72 = PROPERTY_DEFINITION_REPRESENTATION ( #113, #202 ) ;
#73 = OBJECT_ROLE ('mandatory',$ ) ;
#74 = PRODUCT_DEFINITION_SHAPE ( 'NONE', 'NONE',  #6 ) ;
#75 = PROPERTY_DEFINITION ('document property','', #177 ) ;
#76 =( LENGTH_UNIT ( ) NAMED_UNIT ( * ) SI_UNIT ( .MILLI., .METRE. ) );
#77 = OBJECT_ROLE ('mandatory',$ ) ;
#78 = DOCUMENT_TYPE ( 'geometry' ) ;
#79 = DIRECTION ( 'NONE',  ( -1.040957192136566911E-31, 4.930380657631323784E-32, 1.000000000000000000 ) ) ;
#80 = PROPERTY_DEFINITION ('document property','', #105 ) ;
#81 = DIRECTION ( 'NONE',  ( 1.000000000000000000, -2.220446049250314067E-16, -1.040957192136566911E-31 ) ) ;
#82 = DOCUMENT_TYPE ( 'geometry' ) ;
#83 = DIRECTION ( 'NONE',  ( 1.000000000000000000, -2.220446049250314067E-16, -1.040957192136566911E-31 ) ) ;
#84 = AXIS2_PLACEMENT_3D ( 'NONE', #150, #33, #99 ) ;
#85 = PROPERTY_DEFINITION_REPRESENTATION ( #10, #202 ) ;
#86 = CONTEXT_DEPENDENT_SHAPE_REPRESENTATION ( #47, #31 ) ;
#87 = APPLIED_EXTERNAL_IDENTIFICATION_ASSIGNMENT ( 'Body009.step.STEP' , #159, #38,( #105) ) ;
#88 = AXIS2_PLACEMENT_3D ( 'NONE', #183, #2, #167 ) ;
#89 = APPLIED_DOCUMENT_REFERENCE ( #105,'',( #134) ) ;
#90 = PRODUCT_DEFINITION_SHAPE ( 'NONE', 'NONE',  #211 ) ;
#91 = AXIS2_PLACEMENT_3D ( 'NONE', #51, #195, #29 ) ;
#92 = PROPERTY_DEFINITION ('external definition','', #177 ) ;
#93 = PROPERTY_DEFINITION_REPRESENTATION ( #70, #202 ) ;
#94 = PROPERTY_DEFINITION ('document property','', #120 ) ;
#95 = EXTERNAL_SOURCE (IDENTIFIER('') ) ;
#96 = IDENTIFICATION_ROLE ( 'external document id and location', $) ;
#97 = APPLIED_EXTERNAL_IDENTIFICATION_ASSIGNMENT ( 'Body009.step.STEP' , #110, #95,( #177) ) ;
#98 = DIRECTION ( 'NONE',  ( -1.040957192136566911E-31, 4.930380657631323784E-32, 1.000000000000000000 ) ) ;
#99 = DIRECTION ( 'NONE',  ( 1.000000000000000000, -2.220446049250314067E-16, -1.040957192136566911E-31 ) ) ;
#100 = ITEM_DEFINED_TRANSFORMATION ( 'NONE', 'NONE', #190,  #88 ) ;
#101 = PRODUCT_DEFINITION_FORMATION_WITH_SPECIFIED_SOURCE ( 'Symmetric', '', #178, .NOT_KNOWN. ) ;
#102 =( REPRESENTATION_RELATIONSHIP ('NONE','NONE', #9, #202 ) REPRESENTATION_RELATIONSHIP_WITH_TRANSFORMATION ( #118 )SHAPE_REPRESENTATION_RELATIONSHIP( ) );
#103 = ITEM_DEFINED_TRANSFORMATION ( 'NONE', 'NONE', #169,  #88 ) ;
#104 = EXTERNAL_SOURCE (IDENTIFIER('') ) ;
#105 = DOCUMENT_FILE ( 'Body009.step.STEP' , '', '', #27, '' ,$ ) ;
#106 = PROPERTY_DEFINITION ('external definition','', #26 ) ;
#107 = ITEM_DEFINED_TRANSFORMATION ( 'NONE', 'NONE', #84,  #88 ) ;
#108 = ITEM_DEFINED_TRANSFORMATION ( 'NONE', 'NONE', #153,  #88 ) ;
#109 = EXTERNAL_SOURCE (IDENTIFIER('') ) ;
#110 = IDENTIFICATION_ROLE ( 'external document id and location', $) ;
#111 = APPLIED_DOCUMENT_REFERENCE ( #179,'',( #134) ) ;
#112 = OBJECT_ROLE ('mandatory',$ ) ;
#113 = PROPERTY_DEFINITION ('document property','', #157 ) ;
#114 = DIRECTION ( 'NONE',  ( 1.000000000000000000, -2.220446049250314067E-16, -1.040957192136566911E-31 ) ) ;
#115 = CARTESIAN_POINT ( 'NONE',  ( 0.000000000000000000, -1.624999999999987566, 0.000000000000000000 ) ) ;
#116 = CARTESIAN_POINT ( 'NONE',  ( 0.000000000000000000, 1.624999999999987566, 0.000000000000000000 ) ) ;
#117 = APPLIED_DOCUMENT_REFERENCE ( #143,'',( #134) ) ;
#118 = ITEM_DEFINED_TRANSFORMATION ( 'NONE', 'NONE', #91,  #88 ) ;
#119 =( GEOMETRIC_REPRESENTATION_CONTEXT ( 3 ) GLOBAL_UNCERTAINTY_ASSIGNED_CONTEXT ( ( #164 ) ) GLOBAL_UNIT_ASSIGNED_CONTEXT ( ( #62, #137, #65 ) ) REPRESENTATION_CONTEXT ( 'NONE', 'WORKASPACE' ) );
#120 = DOCUMENT_FILE ( 'Body009.step.STEP' , '', '', #146, '' ,$ ) ;
#121 = ROLE_ASSOCIATION ( #130, #203 ) ;
#122 = DOCUMENT_TYPE ( 'geometry' ) ;
#123 = PRODUCT_CONTEXT ( 'NONE', #41, 'mechanical' ) ;
#124 = CONTEXT_DEPENDENT_SHAPE_REPRESENTATION ( #32, #163 ) ;
#125 = PROPERTY_DEFINITION_REPRESENTATION ( #106, #202 ) ;
#126 = PROPERTY_DEFINITION ('external definition','', #143 ) ;
#127 = OBJECT_ROLE ('mandatory',$ ) ;
#128 = PROPERTY_DEFINITION ('external definition','', #120 ) ;
#129 = PRODUCT_DEFINITION_CONTEXT ( 'detailed design', #56, 'design' ) ;
#130 = OBJECT_ROLE ('mandatory',$ ) ;
#131 =( GEOMETRIC_REPRESENTATION_CONTEXT ( 3 ) GLOBAL_UNCERTAINTY_ASSIGNED_CONTEXT ( ( #13 ) ) GLOBAL_UNIT_ASSIGNED_CONTEXT ( ( #76, #168, #63 ) ) REPRESENTATION_CONTEXT ( 'NONE', 'WORKASPACE' ) );
#132 = PRODUCT_CONTEXT ( 'NONE', #14, 'mechanical' ) ;
#133 = DIRECTION ( 'NONE',  ( 1.000000000000000000, -2.220446049250314067E-16, -1.040957192136566911E-31 ) ) ;
#134 = PRODUCT_DEFINITION ( 'General', '', #101, #129 ) ;
#135 =( REPRESENTATION_RELATIONSHIP ('NONE','NONE', #9, #202 ) REPRESENTATION_RELATIONSHIP_WITH_TRANSFORMATION ( #100 )SHAPE_REPRESENTATION_RELATIONSHIP( ) );
#136 = EXTERNAL_SOURCE (IDENTIFIER('') ) ;
#137 =( NAMED_UNIT ( * ) PLANE_ANGLE_UNIT ( ) SI_UNIT ( $, .RADIAN. ) );
#138 = PROPERTY_DEFINITION_REPRESENTATION ( #126, #202 ) ;
#139 = SHAPE_DEFINITION_REPRESENTATION ( #74, #9 ) ;
#140 = APPLIED_EXTERNAL_IDENTIFICATION_ASSIGNMENT ( 'Body009.step.STEP' , #144, #109,( #8) ) ;
#141 = CONTEXT_DEPENDENT_SHAPE_REPRESENTATION ( #7, #1 ) ;
#142 = PROPERTY_DEFINITION_REPRESENTATION ( #128, #202 ) ;
#143 = DOCUMENT_FILE ( 'Body009.step.STEP' , '', '', #11, '' ,$ ) ;
#144 = IDENTIFICATION_ROLE ( 'external document id and location', $) ;
#145 = AXIS2_PLACEMENT_3D ( 'NONE', #115, #204, #151 ) ;
#146 = DOCUMENT_TYPE ( 'geometry' ) ;
#147 = DOCUMENT_TYPE ( 'geometry' ) ;
#148 = PROPERTY_DEFINITION_REPRESENTATION ( #158, #202 ) ;
#149 = IDENTIFICATION_ROLE ( 'external document id and location', $) ;
#150 = CARTESIAN_POINT ( 'NONE',  ( 0.000000000000000000, 0.9749999999999481304, 0.000000000000000000 ) ) ;
#151 = DIRECTION ( 'NONE',  ( 1.000000000000000000, -2.220446049250314067E-16, -1.040957192136566911E-31 ) ) ;
#152 = CARTESIAN_POINT ( 'NONE',  ( 0.000000000000000000, -0.3249999999999086953, 0.000000000000000000 ) ) ;
#153 = AXIS2_PLACEMENT_3D ( 'NONE', #46, #172, #114 ) ;
#154 = PROPERTY_DEFINITION_REPRESENTATION ( #75, #202 ) ;
#155 = APPLICATION_PROTOCOL_DEFINITION ( 'draft international standard', 'automotive_design', 1998, #56 ) ;
#156 = DOCUMENT_TYPE ( 'geometry' ) ;
#157 = DOCUMENT_FILE ( 'Body009.step.STEP' , '', '', #147, '' ,$ ) ;
#158 = PROPERTY_DEFINITION ('external definition','', #179 ) ;
#159 = IDENTIFICATION_ROLE ( 'external document id and location', $) ;
#160 = OBJECT_ROLE ('mandatory',$ ) ;
#161 = PRODUCT ( 'Array003.step', 'Array003.step', '', ( #132 ) ) ;
#162 = ROLE_ASSOCIATION ( #127, #111 ) ;
#163 = PRODUCT_DEFINITION_SHAPE ( 'NONE', 'NONE',  #205 ) ;
#164 = UNCERTAINTY_MEASURE_WITH_UNIT (LENGTH_MEASURE( 1.000000000000000082E-05 ), #62, 'distance_accuracy_value', 'NONE');
#165 = ITEM_DEFINED_TRANSFORMATION ( 'NONE', 'NONE', #30,  #88 ) ;
#166 =( REPRESENTATION_RELATIONSHIP ('NONE','NONE', #9, #202 ) REPRESENTATION_RELATIONSHIP_WITH_TRANSFORMATION ( #188 )SHAPE_REPRESENTATION_RELATIONSHIP( ) );
#167 = DIRECTION ( 'NONE',  ( 1.000000000000000000, 0.000000000000000000, 0.000000000000000000 ) ) ;
#168 =( NAMED_UNIT ( * ) PLANE_ANGLE_UNIT ( ) SI_UNIT ( $, .RADIAN. ) );
#169 = AXIS2_PLACEMENT_3D ( 'NONE', #196, #79, #83 ) ;
#170 = EXTERNAL_SOURCE (IDENTIFIER('') ) ;
#171 =( REPRESENTATION_RELATIONSHIP ('NONE','NONE', #9, #202 ) REPRESENTATION_RELATIONSHIP_WITH_TRANSFORMATION ( #66 )SHAPE_REPRESENTATION_RELATIONSHIP( ) );
#172 = DIRECTION ( 'NONE',  ( -1.040957192136566911E-31, 4.930380657631323784E-32, 1.000000000000000000 ) ) ;
#173 = ROLE_ASSOCIATION ( #73, #89 ) ;
#174 = APPLIED_EXTERNAL_IDENTIFICATION_ASSIGNMENT ( 'Body009.step.STEP' , #149, #136,( #157) ) ;
#175 = PRODUCT_DEFINITION_SHAPE ( 'NONE', 'NONE',  #134 ) ;
#176 = DIRECTION ( 'NONE',  ( 0.000000000000000000, 0.000000000000000000, 1.000000000000000000 ) ) ;
#177 = DOCUMENT_FILE ( 'Body009.step.STEP' , '', '', #122, '' ,$ ) ;
#178 = PRODUCT ( 'Body009.step', 'Body009.step', '', ( #123 ) ) ;
#179 = DOCUMENT_FILE ( 'Body009.step.STEP' , '', '', #82, '' ,$ ) ;
#180 = PROPERTY_DEFINITION ('external definition','', #8 ) ;
#181 = CONTEXT_DEPENDENT_SHAPE_REPRESENTATION ( #28, #182 ) ;
#182 = PRODUCT_DEFINITION_SHAPE ( 'NONE', 'NONE',  #212 ) ;
#183 = CARTESIAN_POINT ( 'NONE',  ( 0.000000000000000000, 0.000000000000000000, 0.000000000000000000 ) ) ;
#184 = IDENTIFICATION_ROLE ( 'external document id and location', $) ;
#185 = DIRECTION ( 'NONE',  ( -1.040957192136566911E-31, 4.930380657631323784E-32, 1.000000000000000000 ) ) ;
#186 = PROPERTY_DEFINITION ('document property','', #143 ) ;
#187 = PROPERTY_DEFINITION_REPRESENTATION ( #180, #202 ) ;
#188 = ITEM_DEFINED_TRANSFORMATION ( 'NONE', 'NONE', #145,  #88 ) ;
#189 = PROPERTY_DEFINITION ('external definition','', #157 ) ;
#190 = AXIS2_PLACEMENT_3D ( 'NONE', #116, #98, #194 ) ;
#191 = PRODUCT_RELATED_PRODUCT_CATEGORY ( 'part', '', ( #161 ) ) ;
#192 = PRODUCT_DEFINITION_SHAPE ( 'NONE', 'NONE',  #208 ) ;
#193 = AXIS2_PLACEMENT_3D ( 'NONE', #152, #61, #133 ) ;
#194 = DIRECTION ( 'NONE',  ( 1.000000000000000000, -2.220446049250314067E-16, -1.040957192136566911E-31 ) ) ;
#195 = DIRECTION ( 'NONE',  ( -1.040957192136566911E-31, 4.930380657631323784E-32, 1.000000000000000000 ) ) ;
#196 = CARTESIAN_POINT ( 'NONE',  ( 0.000000000000000000, 2.275000000000027001, 0.000000000000000000 ) ) ;
#197 = PROPERTY_DEFINITION_REPRESENTATION ( #186, #202 ) ;
#198 = PRODUCT_RELATED_PRODUCT_CATEGORY ( 'part', '', ( #178 ) ) ;
#199 = IDENTIFICATION_ROLE ( 'external document id and location', $) ;
#200 = PROPERTY_DEFINITION_REPRESENTATION ( #94, #202 ) ;
#201 = ROLE_ASSOCIATION ( #160, #71 ) ;
#202 = SHAPE_REPRESENTATION ( 'Body009.step', ( #88 ), #131 ) ;
#203 = APPLIED_DOCUMENT_REFERENCE ( #177,'',( #134) ) ;
#204 = DIRECTION ( 'NONE',  ( -1.040957192136566911E-31, 4.930380657631323784E-32, 1.000000000000000000 ) ) ;
#205 = NEXT_ASSEMBLY_USAGE_OCCURRENCE ( 'NAUO57', ' ', ' ', #6, #134, $ ) ;
#206 = NEXT_ASSEMBLY_USAGE_OCCURRENCE ( 'NAUO58', ' ', ' ', #6, #134, $ ) ;
#207 = NEXT_ASSEMBLY_USAGE_OCCURRENCE ( 'NAUO59', ' ', ' ', #6, #134, $ ) ;
#208 = NEXT_ASSEMBLY_USAGE_OCCURRENCE ( 'NAUO60', ' ', ' ', #6, #134, $ ) ;
#209 = NEXT_ASSEMBLY_USAGE_OCCURRENCE ( 'NAUO61', ' ', ' ', #6, #134, $ ) ;
#210 = NEXT_ASSEMBLY_USAGE_OCCURRENCE ( 'NAUO62', ' ', ' ', #6, #134, $ ) ;
#211 = NEXT_ASSEMBLY_USAGE_OCCURRENCE ( 'NAUO63', ' ', ' ', #6, #134, $ ) ;
#212 = NEXT_ASSEMBLY_USAGE_OCCURRENCE ( 'NAUO64', ' ', ' ', #6, #134, $ ) ;
ENDSEC;
END-ISO-10303-21;
