ISO-10303-21;
HEADER;
FILE_DESCRIPTION (( 'STEP AP214' ),
    '1' );
FILE_NAME ('Array002.step.STEP',
    '2026-01-08T13:34:33',
    ( '' ),
    ( '' ),
    'SwSTEP 2.0',
    'SolidWorks 2025',
    '' );
FILE_SCHEMA (( 'AUTOMOTIVE_DESIGN' ));
ENDSEC;

DATA;
#1 = CARTESIAN_POINT ( 'NONE',  ( -3.249999999999975131, 0.000000000000000000, -0.7999999999999118927 ) ) ;
#2 = PRODUCT_CONTEXT ( 'NONE', #82, 'mechanical' ) ;
#3 = UNCERTAINTY_MEASURE_WITH_UNIT (LENGTH_MEASURE( 1.000000000000000082E-05 ), #59, 'distance_accuracy_value', 'NONE');
#4 = UNCERTAINTY_MEASURE_WITH_UNIT (LENGTH_MEASURE( 1.000000000000000082E-05 ), #30, 'distance_accuracy_value', 'NONE');
#5 = DIRECTION ( 'NONE',  ( 0.000000000000000000, 0.000000000000000000, 1.000000000000000000 ) ) ;
#6 = DOCUMENT_TYPE ( 'geometry' ) ;
#7 = DOCUMENT_FILE ( 'Body007.step.STEP' , '', '', #65, '' ,$ ) ;
#8 = ITEM_DEFINED_TRANSFORMATION ( 'NONE', 'NONE', #78,  #84 ) ;
#9 = APPLICATION_PROTOCOL_DEFINITION ( 'draft international standard', 'automotive_design', 1998, #23 ) ;
#10 = OBJECT_ROLE ('mandatory',$ ) ;
#11 = DIRECTION ( 'NONE',  ( 2.220446049250314067E-16, 1.000000000000000000, -1.040957192136566911E-31 ) ) ;
#12 =( GEOMETRIC_REPRESENTATION_CONTEXT ( 3 ) GLOBAL_UNCERTAINTY_ASSIGNED_CONTEXT ( ( #4 ) ) GLOBAL_UNIT_ASSIGNED_CONTEXT ( ( #30, #20, #28 ) ) REPRESENTATION_CONTEXT ( 'NONE', 'WORKASPACE' ) );
#13 = CARTESIAN_POINT ( 'NONE',  ( 0.000000000000000000, 0.000000000000000000, 0.000000000000000000 ) ) ;
#14 = SHAPE_DEFINITION_REPRESENTATION ( #21, #40 ) ;
#15 = PRODUCT_DEFINITION_SHAPE ( 'NONE', 'NONE',  #105 ) ;
#16 = PROPERTY_DEFINITION_REPRESENTATION ( #54, #40 ) ;
#17 = IDENTIFICATION_ROLE ( 'external document id and location', $) ;
#18 =( REPRESENTATION_RELATIONSHIP ('NONE','NONE', #51, #40 ) REPRESENTATION_RELATIONSHIP_WITH_TRANSFORMATION ( #101 )SHAPE_REPRESENTATION_RELATIONSHIP( ) );
#19 = AXIS2_PLACEMENT_3D ( 'NONE', #88, #75, #38 ) ;
#20 =( NAMED_UNIT ( * ) PLANE_ANGLE_UNIT ( ) SI_UNIT ( $, .RADIAN. ) );
#21 = PRODUCT_DEFINITION_SHAPE ( 'NONE', 'NONE',  #71 ) ;
#22 = PRODUCT_DEFINITION_FORMATION_WITH_SPECIFIED_SOURCE ( 'Symmetric', '', #57, .NOT_KNOWN. ) ;
#23 = APPLICATION_CONTEXT ( 'automotive_design' ) ;
#24 = ITEM_DEFINED_TRANSFORMATION ( 'NONE', 'NONE', #80,  #84 ) ;
#25 = SHAPE_DEFINITION_REPRESENTATION ( #64, #51 ) ;
#26 = PROPERTY_DEFINITION ('external definition','', #41 ) ;
#27 = PROPERTY_DEFINITION ('document property','', #86 ) ;
#28 =( NAMED_UNIT ( * ) SI_UNIT ( $, .STERADIAN. ) SOLID_ANGLE_UNIT ( ) );
#29 = PROPERTY_DEFINITION_REPRESENTATION ( #45, #40 ) ;
#30 =( LENGTH_UNIT ( ) NAMED_UNIT ( * ) SI_UNIT ( .MILLI., .METRE. ) );
#31 = APPLICATION_PROTOCOL_DEFINITION ( 'draft international standard', 'automotive_design', 1998, #63 ) ;
#32 = APPLICATION_CONTEXT ( 'automotive_design' ) ;
#33 = PRODUCT_DEFINITION_SHAPE ( 'NONE', 'NONE',  #106 ) ;
#34 = PROPERTY_DEFINITION_REPRESENTATION ( #92, #40 ) ;
#35 =( REPRESENTATION_RELATIONSHIP ('NONE','NONE', #51, #40 ) REPRESENTATION_RELATIONSHIP_WITH_TRANSFORMATION ( #24 )SHAPE_REPRESENTATION_RELATIONSHIP( ) );
#36 =( GEOMETRIC_REPRESENTATION_CONTEXT ( 3 ) GLOBAL_UNCERTAINTY_ASSIGNED_CONTEXT ( ( #3 ) ) GLOBAL_UNIT_ASSIGNED_CONTEXT ( ( #59, #50, #85 ) ) REPRESENTATION_CONTEXT ( 'NONE', 'WORKASPACE' ) );
#37 = EXTERNAL_SOURCE (IDENTIFIER('') ) ;
#38 = DIRECTION ( 'NONE',  ( 1.000000000000000000, 0.000000000000000000, 0.000000000000000000 ) ) ;
#39 = CONTEXT_DEPENDENT_SHAPE_REPRESENTATION ( #18, #97 ) ;
#40 = SHAPE_REPRESENTATION ( 'Body007.step', ( #84 ), #36 ) ;
#41 = DOCUMENT_FILE ( 'Body007.step.STEP' , '', '', #93, '' ,$ ) ;
#42 = CARTESIAN_POINT ( 'NONE',  ( -3.249999999999975131, 1.249999999999973355, -0.7999999999999118927 ) ) ;
#43 = PROPERTY_DEFINITION ('document property','', #41 ) ;
#44 = CARTESIAN_POINT ( 'NONE',  ( -3.249999999999975131, -1.249999999999973355, -0.7999999999999118927 ) ) ;
#45 = PROPERTY_DEFINITION ('external definition','', #86 ) ;
#46 = ROLE_ASSOCIATION ( #68, #74 ) ;
#47 = IDENTIFICATION_ROLE ( 'external document id and location', $) ;
#48 = APPLICATION_PROTOCOL_DEFINITION ( 'draft international standard', 'automotive_design', 1998, #32 ) ;
#49 = PRODUCT_RELATED_PRODUCT_CATEGORY ( 'part', '', ( #91 ) ) ;
#50 =( NAMED_UNIT ( * ) PLANE_ANGLE_UNIT ( ) SI_UNIT ( $, .RADIAN. ) );
#51 = SHAPE_REPRESENTATION ( 'Array002.step', ( #19, #80, #78, #100 ), #12 ) ;
#52 = DIRECTION ( 'NONE',  ( 1.000000000000000000, 0.000000000000000000, 0.000000000000000000 ) ) ;
#53 = APPLIED_EXTERNAL_IDENTIFICATION_ASSIGNMENT ( 'Body007.step.STEP' , #17, #55,( #86) ) ;
#54 = PROPERTY_DEFINITION ('external definition','', #7 ) ;
#55 = EXTERNAL_SOURCE (IDENTIFIER('') ) ;
#56 = PRODUCT_DEFINITION_CONTEXT ( 'detailed design', #23, 'design' ) ;
#57 = PRODUCT ( 'Body007.step', 'Body007.step', '', ( #2 ) ) ;
#58 = APPLIED_DOCUMENT_REFERENCE ( #7,'',( #71) ) ;
#59 =( LENGTH_UNIT ( ) NAMED_UNIT ( * ) SI_UNIT ( .MILLI., .METRE. ) );
#60 = PRODUCT_CONTEXT ( 'NONE', #63, 'mechanical' ) ;
#61 = EXTERNAL_SOURCE (IDENTIFIER('') ) ;
#62 = OBJECT_ROLE ('mandatory',$ ) ;
#63 = APPLICATION_CONTEXT ( 'automotive_design' ) ;
#64 = PRODUCT_DEFINITION_SHAPE ( 'NONE', 'NONE',  #94 ) ;
#65 = DOCUMENT_TYPE ( 'geometry' ) ;
#66 = DIRECTION ( 'NONE',  ( 2.220446049250314067E-16, 1.000000000000000000, -1.040957192136566911E-31 ) ) ;
#67 = ROLE_ASSOCIATION ( #10, #89 ) ;
#68 = OBJECT_ROLE ('mandatory',$ ) ;
#69 = PRODUCT_DEFINITION_CONTEXT ( 'detailed design', #32, 'design' ) ;
#70 = PRODUCT_DEFINITION_FORMATION_WITH_SPECIFIED_SOURCE ( 'Symmetric', '', #91, .NOT_KNOWN. ) ;
#71 = PRODUCT_DEFINITION ( 'General', '', #22, #69 ) ;
#72 = CONTEXT_DEPENDENT_SHAPE_REPRESENTATION ( #35, #15 ) ;
#73 =( REPRESENTATION_RELATIONSHIP ('NONE','NONE', #51, #40 ) REPRESENTATION_RELATIONSHIP_WITH_TRANSFORMATION ( #8 )SHAPE_REPRESENTATION_RELATIONSHIP( ) );
#74 = APPLIED_DOCUMENT_REFERENCE ( #41,'',( #71) ) ;
#75 = DIRECTION ( 'NONE',  ( 0.000000000000000000, 0.000000000000000000, 1.000000000000000000 ) ) ;
#76 = PRODUCT_RELATED_PRODUCT_CATEGORY ( 'part', '', ( #57 ) ) ;
#77 = DIRECTION ( 'NONE',  ( -4.930380657631323784E-32, -1.040957192136566911E-31, 1.000000000000000000 ) ) ;
#78 = AXIS2_PLACEMENT_3D ( 'NONE', #1, #103, #79 ) ;
#79 = DIRECTION ( 'NONE',  ( 2.220446049250314067E-16, 1.000000000000000000, -1.040957192136566911E-31 ) ) ;
#80 = AXIS2_PLACEMENT_3D ( 'NONE', #42, #87, #11 ) ;
#81 = PROPERTY_DEFINITION_REPRESENTATION ( #26, #40 ) ;
#82 = APPLICATION_CONTEXT ( 'automotive_design' ) ;
#83 = PROPERTY_DEFINITION_REPRESENTATION ( #43, #40 ) ;
#84 = AXIS2_PLACEMENT_3D ( 'NONE', #13, #5, #52 ) ;
#85 =( NAMED_UNIT ( * ) SI_UNIT ( $, .STERADIAN. ) SOLID_ANGLE_UNIT ( ) );
#86 = DOCUMENT_FILE ( 'Body007.step.STEP' , '', '', #6, '' ,$ ) ;
#87 = DIRECTION ( 'NONE',  ( -4.930380657631323784E-32, -1.040957192136566911E-31, 1.000000000000000000 ) ) ;
#88 = CARTESIAN_POINT ( 'NONE',  ( 0.000000000000000000, 0.000000000000000000, 0.000000000000000000 ) ) ;
#89 = APPLIED_DOCUMENT_REFERENCE ( #86,'',( #71) ) ;
#90 = APPLIED_EXTERNAL_IDENTIFICATION_ASSIGNMENT ( 'Body007.step.STEP' , #47, #61,( #41) ) ;
#91 = PRODUCT ( 'Array002.step', 'Array002.step', '', ( #60 ) ) ;
#92 = PROPERTY_DEFINITION ('document property','', #7 ) ;
#93 = DOCUMENT_TYPE ( 'geometry' ) ;
#94 = PRODUCT_DEFINITION ( 'General', '', #70, #56 ) ;
#95 = APPLICATION_PROTOCOL_DEFINITION ( 'draft international standard', 'automotive_design', 1998, #82 ) ;
#96 = ROLE_ASSOCIATION ( #62, #58 ) ;
#97 = PRODUCT_DEFINITION_SHAPE ( 'NONE', 'NONE',  #107 ) ;
#98 = PROPERTY_DEFINITION_REPRESENTATION ( #27, #40 ) ;
#99 = IDENTIFICATION_ROLE ( 'external document id and location', $) ;
#100 = AXIS2_PLACEMENT_3D ( 'NONE', #44, #77, #66 ) ;
#101 = ITEM_DEFINED_TRANSFORMATION ( 'NONE', 'NONE', #100,  #84 ) ;
#102 = CONTEXT_DEPENDENT_SHAPE_REPRESENTATION ( #73, #33 ) ;
#103 = DIRECTION ( 'NONE',  ( -4.930380657631323784E-32, -1.040957192136566911E-31, 1.000000000000000000 ) ) ;
#104 = APPLIED_EXTERNAL_IDENTIFICATION_ASSIGNMENT ( 'Body007.step.STEP' , #99, #37,( #7) ) ;
#105 = NEXT_ASSEMBLY_USAGE_OCCURRENCE ( 'NAUO37', ' ', ' ', #94, #71, $ ) ;
#106 = NEXT_ASSEMBLY_USAGE_OCCURRENCE ( 'NAUO38', ' ', ' ', #94, #71, $ ) ;
#107 = NEXT_ASSEMBLY_USAGE_OCCURRENCE ( 'NAUO39', ' ', ' ', #94, #71, $ ) ;
ENDSEC;
END-ISO-10303-21;
