ISO-10303-21;
HEADER;
FILE_DESCRIPTION (( 'STEP AP214' ),
    '1' );
FILE_NAME ('Body012.step.STEP',
    '2026-01-08T13:34:33',
    ( '' ),
    ( '' ),
    'SwSTEP 2.0',
    'SolidWorks 2025',
    '' );
FILE_SCHEMA (( 'AUTOMOTIVE_DESIGN' ));
ENDSEC;

DATA;
#1 = SURFACE_STYLE_USAGE ( .BOTH. , #79 ) ;
#2 =( LENGTH_UNIT ( ) NAMED_UNIT ( * ) SI_UNIT ( .MILLI., .METRE. ) );
#3 = EDGE_CURVE ( 'NONE', #86, #5, #50, .T. ) ;
#4 = ORIENTED_EDGE ( 'NONE', *, *, #167, .F. ) ;
#5 = VERTEX_POINT ( 'NONE', #66 ) ;
#6 = ORIENTED_EDGE ( 'NONE', *, *, #34, .F. ) ;
#7 = FACE_OUTER_BOUND ( 'NONE', #38, .T. ) ;
#8 = DIRECTION ( 'NONE',  ( 0.000000000000000000, 1.000000000000000000, 0.000000000000000000 ) ) ;
#9 = DIRECTION ( 'NONE',  ( 0.000000000000000000, 0.000000000000000000, 1.000000000000000000 ) ) ;
#10 = DIRECTION ( 'NONE',  ( 0.000000000000000000, -1.000000000000000000, 0.000000000000000000 ) ) ;
#11 = AXIS2_PLACEMENT_3D ( 'NONE', #153, #44, #9 ) ;
#12 = DIRECTION ( 'NONE',  ( 0.000000000000000000, 1.000000000000000000, 0.000000000000000000 ) ) ;
#13 = DIRECTION ( 'NONE',  ( 1.000000000000000000, 0.000000000000000000, 0.000000000000000000 ) ) ;
#14 = AXIS2_PLACEMENT_3D ( 'NONE', #39, #25, #89 ) ;
#15 = LINE ( 'NONE', #175, #88 ) ;
#16 = PRODUCT_CONTEXT ( 'NONE', #95, 'mechanical' ) ;
#17 = VECTOR ( 'NONE', #155, 1000.000000000000000 ) ;
#18 = PRODUCT_DEFINITION_CONTEXT ( 'detailed design', #133, 'design' ) ;
#19 = MANIFOLD_SOLID_BREP ( 'Body012[1]', #161 ) ;
#20 = VERTEX_POINT ( 'NONE', #105 ) ;
#21 = VECTOR ( 'NONE', #138, 1000.000000000000000 ) ;
#22 = SURFACE_STYLE_FILL_AREA ( #69 ) ;
#23 = ORIENTED_EDGE ( 'NONE', *, *, #142, .T. ) ;
#24 = ORIENTED_EDGE ( 'NONE', *, *, #3, .F. ) ;
#25 = DIRECTION ( 'NONE',  ( 0.000000000000000000, 0.000000000000000000, 1.000000000000000000 ) ) ;
#26 = CARTESIAN_POINT ( 'NONE',  ( -0.5999999999999999778, -0.4000000000000000222, 1.000000000000000000 ) ) ;
#27 = DIRECTION ( 'NONE',  ( 0.000000000000000000, -1.000000000000000000, 0.000000000000000000 ) ) ;
#28 = LINE ( 'NONE', #70, #199 ) ;
#29 = LINE ( 'NONE', #135, #58 ) ;
#30 = UNCERTAINTY_MEASURE_WITH_UNIT (LENGTH_MEASURE( 1.000000000000000082E-05 ), #156, 'distance_accuracy_value', 'NONE');
#31 = VECTOR ( 'NONE', #194, 1000.000000000000000 ) ;
#32 = ADVANCED_FACE ( 'NONE', ( #196 ), #177, .T. ) ;
#33 =( NAMED_UNIT ( * ) SI_UNIT ( $, .STERADIAN. ) SOLID_ANGLE_UNIT ( ) );
#34 = EDGE_CURVE ( 'NONE', #149, #111, #28, .T. ) ;
#35 = VERTEX_POINT ( 'NONE', #26 ) ;
#36 = ORIENTED_EDGE ( 'NONE', *, *, #195, .F. ) ;
#37 = PRESENTATION_LAYER_ASSIGNMENT (  '', '', ( #74 ) ) ;
#38 = EDGE_LOOP ( 'NONE', ( #126, #114, #51, #162 ) ) ;
#39 = CARTESIAN_POINT ( 'NONE',  ( 0.000000000000000000, 0.000000000000000000, 1.000000000000000000 ) ) ;
#40 = ADVANCED_FACE ( 'NONE', ( #168 ), #197, .T. ) ;
#41 = FACE_OUTER_BOUND ( 'NONE', #67, .T. ) ;
#42 = CARTESIAN_POINT ( 'NONE',  ( 0.000000000000000000, 0.000000000000000000, 0.000000000000000000 ) ) ;
#43 = PRODUCT ( 'Body012.step', 'Body012.step', '', ( #16 ) ) ;
#44 = DIRECTION ( 'NONE',  ( -1.000000000000000000, 0.000000000000000000, 0.000000000000000000 ) ) ;
#45 = LINE ( 'NONE', #202, #180 ) ;
#46 = AXIS2_PLACEMENT_3D ( 'NONE', #42, #201, #61 ) ;
#47 = PRODUCT_RELATED_PRODUCT_CATEGORY ( 'part', '', ( #43 ) ) ;
#48 = DIRECTION ( 'NONE',  ( 1.000000000000000000, 0.000000000000000000, 0.000000000000000000 ) ) ;
#49 = ORIENTED_EDGE ( 'NONE', *, *, #96, .T. ) ;
#50 = LINE ( 'NONE', #193, #31 ) ;
#51 = ORIENTED_EDGE ( 'NONE', *, *, #96, .F. ) ;
#52 = SURFACE_STYLE_USAGE ( .BOTH. , #145 ) ;
#53 = EDGE_CURVE ( 'NONE', #20, #149, #29, .T. ) ;
#54 = FACE_OUTER_BOUND ( 'NONE', #160, .T. ) ;
#55 = LINE ( 'NONE', #71, #21 ) ;
#56 = ADVANCED_FACE ( 'NONE', ( #54 ), #75, .T. ) ;
#57 = PLANE ( 'NONE',  #84 ) ;
#58 = VECTOR ( 'NONE', #94, 1000.000000000000000 ) ;
#59 = UNCERTAINTY_MEASURE_WITH_UNIT (LENGTH_MEASURE( 1.000000000000000082E-05 ), #2, 'distance_accuracy_value', 'NONE');
#60 = CARTESIAN_POINT ( 'NONE',  ( 0.5999999999999999778, -0.4000000000000000222, 0.000000000000000000 ) ) ;
#61 = DIRECTION ( 'NONE',  ( 1.000000000000000000, 0.000000000000000000, 0.000000000000000000 ) ) ;
#62 = UNCERTAINTY_MEASURE_WITH_UNIT (LENGTH_MEASURE( 1.000000000000000082E-05 ), #159, 'distance_accuracy_value', 'NONE');
#63 = SHAPE_DEFINITION_REPRESENTATION ( #123, #185 ) ;
#64 = DIRECTION ( 'NONE',  ( 1.000000000000000000, 0.000000000000000000, 0.000000000000000000 ) ) ;
#65 = PRESENTATION_LAYER_ASSIGNMENT (  '', '', ( #147 ) ) ;
#66 = CARTESIAN_POINT ( 'NONE',  ( -0.5999999999999999778, 0.4000000000000000222, 1.000000000000000000 ) ) ;
#67 = EDGE_LOOP ( 'NONE', ( #129, #148, #6, #128 ) ) ;
#68 = ADVANCED_FACE ( 'NONE', ( #7 ), #57, .T. ) ;
#69 = FILL_AREA_STYLE ('',( #146 ) ) ;
#70 = CARTESIAN_POINT ( 'NONE',  ( 0.5999999999999999778, 0.4000000000000000222, 1.000000000000000000 ) ) ;
#71 = CARTESIAN_POINT ( 'NONE',  ( 0.5999999999999999778, -0.4000000000000000222, 0.000000000000000000 ) ) ;
#72 = DIRECTION ( 'NONE',  ( 1.000000000000000000, 0.000000000000000000, 0.000000000000000000 ) ) ;
#73 = EDGE_CURVE ( 'NONE', #179, #192, #55, .T. ) ;
#74 = STYLED_ITEM ( 'NONE', ( #172 ), #185 ) ;
#75 = PLANE ( 'NONE',  #109 ) ;
#76 = LINE ( 'NONE', #91, #122 ) ;
#77 = CARTESIAN_POINT ( 'NONE',  ( -0.5999999999999999778, -0.4000000000000000222, 0.000000000000000000 ) ) ;
#78 = CARTESIAN_POINT ( 'NONE',  ( 0.000000000000000000, 0.000000000000000000, 0.000000000000000000 ) ) ;
#79 = SURFACE_SIDE_STYLE ('',( #80 ) ) ;
#80 = SURFACE_STYLE_FILL_AREA ( #174 ) ;
#81 = ORIENTED_EDGE ( 'NONE', *, *, #187, .T. ) ;
#82 = ORIENTED_EDGE ( 'NONE', *, *, #165, .T. ) ;
#83 = MECHANICAL_DESIGN_GEOMETRIC_PRESENTATION_REPRESENTATION (  '', ( #147 ), #140 ) ;
#84 = AXIS2_PLACEMENT_3D ( 'NONE', #121, #183, #12 ) ;
#85 = EDGE_LOOP ( 'NONE', ( #23, #82, #24, #4 ) ) ;
#86 = VERTEX_POINT ( 'NONE', #134 ) ;
#87 = ORIENTED_EDGE ( 'NONE', *, *, #142, .F. ) ;
#88 = VECTOR ( 'NONE', #13, 1000.000000000000000 ) ;
#89 = DIRECTION ( 'NONE',  ( 1.000000000000000000, 0.000000000000000000, 0.000000000000000000 ) ) ;
#90 = CARTESIAN_POINT ( 'NONE',  ( 0.5999999999999999778, -0.4000000000000000222, 1.000000000000000000 ) ) ;
#91 = CARTESIAN_POINT ( 'NONE',  ( -0.5999999999999999778, -0.4000000000000000222, 1.000000000000000000 ) ) ;
#92 =( GEOMETRIC_REPRESENTATION_CONTEXT ( 3 ) GLOBAL_UNCERTAINTY_ASSIGNED_CONTEXT ( ( #59 ) ) GLOBAL_UNIT_ASSIGNED_CONTEXT ( ( #2, #157, #124 ) ) REPRESENTATION_CONTEXT ( 'NONE', 'WORKASPACE' ) );
#93 = LINE ( 'NONE', #200, #176 ) ;
#94 = DIRECTION ( 'NONE',  ( 0.000000000000000000, 0.000000000000000000, 1.000000000000000000 ) ) ;
#95 = APPLICATION_CONTEXT ( 'automotive_design' ) ;
#96 = EDGE_CURVE ( 'NONE', #179, #111, #169, .T. ) ;
#97 = ORIENTED_EDGE ( 'NONE', *, *, #73, .F. ) ;
#98 = EDGE_LOOP ( 'NONE', ( #191, #81, #150, #36 ) ) ;
#99 = ORIENTED_EDGE ( 'NONE', *, *, #73, .T. ) ;
#100 = ORIENTED_EDGE ( 'NONE', *, *, #195, .T. ) ;
#101 = DIRECTION ( 'NONE',  ( 0.000000000000000000, 0.000000000000000000, 1.000000000000000000 ) ) ;
#102 = COLOUR_RGB ( '',0.5490196078431373028, 0.4039215686274509887, 0.2392156862745097867 ) ;
#103 = CARTESIAN_POINT ( 'NONE',  ( -0.5999999999999999778, 0.4000000000000000222, 0.000000000000000000 ) ) ;
#104 = DIRECTION ( 'NONE',  ( -0.000000000000000000, 1.000000000000000000, 0.000000000000000000 ) ) ;
#105 = CARTESIAN_POINT ( 'NONE',  ( 0.5999999999999999778, 0.4000000000000000222, 0.000000000000000000 ) ) ;
#106 = VECTOR ( 'NONE', #101, 1000.000000000000000 ) ;
#107 = CARTESIAN_POINT ( 'NONE',  ( 0.5999999999999999778, 0.4000000000000000222, 0.000000000000000000 ) ) ;
#108 =( NAMED_UNIT ( * ) SI_UNIT ( $, .STERADIAN. ) SOLID_ANGLE_UNIT ( ) );
#109 = AXIS2_PLACEMENT_3D ( 'NONE', #166, #27, #136 ) ;
#110 = FILL_AREA_STYLE_COLOUR ( '', #102 ) ;
#111 = VERTEX_POINT ( 'NONE', #139 ) ;
#112 = ORIENTED_EDGE ( 'NONE', *, *, #130, .T. ) ;
#113 = EDGE_LOOP ( 'NONE', ( #100, #112, #99, #131 ) ) ;
#114 = ORIENTED_EDGE ( 'NONE', *, *, #34, .T. ) ;
#115 = AXIS2_PLACEMENT_3D ( 'NONE', #78, #143, #48 ) ;
#116 =( NAMED_UNIT ( * ) PLANE_ANGLE_UNIT ( ) SI_UNIT ( $, .RADIAN. ) );
#117 = DIRECTION ( 'NONE',  ( 0.000000000000000000, 0.000000000000000000, 1.000000000000000000 ) ) ;
#118 = DIRECTION ( 'NONE',  ( 0.000000000000000000, 1.000000000000000000, 0.000000000000000000 ) ) ;
#119 = LINE ( 'NONE', #171, #188 ) ;
#120 = FACE_OUTER_BOUND ( 'NONE', #113, .T. ) ;
#121 = CARTESIAN_POINT ( 'NONE',  ( 0.5999999999999999778, 0.4000000000000000222, 0.000000000000000000 ) ) ;
#122 = VECTOR ( 'NONE', #118, 1000.000000000000000 ) ;
#123 = PRODUCT_DEFINITION_SHAPE ( 'NONE', 'NONE',  #125 ) ;
#124 =( NAMED_UNIT ( * ) SI_UNIT ( $, .STERADIAN. ) SOLID_ANGLE_UNIT ( ) );
#125 = PRODUCT_DEFINITION ( 'General', '', #144, #18 ) ;
#126 = ORIENTED_EDGE ( 'NONE', *, *, #53, .T. ) ;
#127 = PRESENTATION_STYLE_ASSIGNMENT (( #52 ) ) ;
#128 = ORIENTED_EDGE ( 'NONE', *, *, #187, .F. ) ;
#129 = ORIENTED_EDGE ( 'NONE', *, *, #165, .F. ) ;
#130 = EDGE_CURVE ( 'NONE', #20, #179, #151, .T. ) ;
#131 = ORIENTED_EDGE ( 'NONE', *, *, #167, .T. ) ;
#132 = MECHANICAL_DESIGN_GEOMETRIC_PRESENTATION_REPRESENTATION (  '', ( #74 ), #154 ) ;
#133 = APPLICATION_CONTEXT ( 'automotive_design' ) ;
#134 = CARTESIAN_POINT ( 'NONE',  ( -0.5999999999999999778, 0.4000000000000000222, 0.000000000000000000 ) ) ;
#135 = CARTESIAN_POINT ( 'NONE',  ( 0.5999999999999999778, 0.4000000000000000222, 0.000000000000000000 ) ) ;
#136 = DIRECTION ( 'NONE',  ( 0.000000000000000000, 0.000000000000000000, -1.000000000000000000 ) ) ;
#137 = VECTOR ( 'NONE', #152, 1000.000000000000000 ) ;
#138 = DIRECTION ( 'NONE',  ( -1.000000000000000000, 0.000000000000000000, 0.000000000000000000 ) ) ;
#139 = CARTESIAN_POINT ( 'NONE',  ( 0.5999999999999999778, -0.4000000000000000222, 1.000000000000000000 ) ) ;
#140 =( GEOMETRIC_REPRESENTATION_CONTEXT ( 3 ) GLOBAL_UNCERTAINTY_ASSIGNED_CONTEXT ( ( #62 ) ) GLOBAL_UNIT_ASSIGNED_CONTEXT ( ( #159, #116, #33 ) ) REPRESENTATION_CONTEXT ( 'NONE', 'WORKASPACE' ) );
#141 = APPLICATION_PROTOCOL_DEFINITION ( 'draft international standard', 'automotive_design', 1998, #133 ) ;
#142 = EDGE_CURVE ( 'NONE', #192, #35, #119, .T. ) ;
#143 = DIRECTION ( 'NONE',  ( 0.000000000000000000, 0.000000000000000000, 1.000000000000000000 ) ) ;
#144 = PRODUCT_DEFINITION_FORMATION_WITH_SPECIFIED_SOURCE ( 'Symmetric', '', #43, .NOT_KNOWN. ) ;
#145 = SURFACE_SIDE_STYLE ('',( #22 ) ) ;
#146 = FILL_AREA_STYLE_COLOUR ( '', #173 ) ;
#147 = STYLED_ITEM ( 'NONE', ( #127 ), #19 ) ;
#148 = ORIENTED_EDGE ( 'NONE', *, *, #170, .F. ) ;
#149 = VERTEX_POINT ( 'NONE', #181 ) ;
#150 = ORIENTED_EDGE ( 'NONE', *, *, #53, .F. ) ;
#151 = LINE ( 'NONE', #107, #17 ) ;
#152 = DIRECTION ( 'NONE',  ( -1.000000000000000000, 0.000000000000000000, 0.000000000000000000 ) ) ;
#153 = CARTESIAN_POINT ( 'NONE',  ( -0.5999999999999999778, -0.4000000000000000222, 0.000000000000000000 ) ) ;
#154 =( GEOMETRIC_REPRESENTATION_CONTEXT ( 3 ) GLOBAL_UNCERTAINTY_ASSIGNED_CONTEXT ( ( #30 ) ) GLOBAL_UNIT_ASSIGNED_CONTEXT ( ( #156, #189, #108 ) ) REPRESENTATION_CONTEXT ( 'NONE', 'WORKASPACE' ) );
#155 = DIRECTION ( 'NONE',  ( 0.000000000000000000, -1.000000000000000000, 0.000000000000000000 ) ) ;
#156 =( LENGTH_UNIT ( ) NAMED_UNIT ( * ) SI_UNIT ( .MILLI., .METRE. ) );
#157 =( NAMED_UNIT ( * ) PLANE_ANGLE_UNIT ( ) SI_UNIT ( $, .RADIAN. ) );
#158 = APPLICATION_PROTOCOL_DEFINITION ( 'draft international standard', 'automotive_design', 1998, #95 ) ;
#159 =( LENGTH_UNIT ( ) NAMED_UNIT ( * ) SI_UNIT ( .MILLI., .METRE. ) );
#160 = EDGE_LOOP ( 'NONE', ( #49, #190, #87, #97 ) ) ;
#161 = CLOSED_SHELL ( 'NONE', ( #163, #178, #40, #56, #68, #32 ) ) ;
#162 = ORIENTED_EDGE ( 'NONE', *, *, #130, .F. ) ;
#163 = ADVANCED_FACE ( 'NONE', ( #41 ), #164, .T. ) ;
#164 = PLANE ( 'NONE',  #14 ) ;
#165 = EDGE_CURVE ( 'NONE', #35, #5, #76, .T. ) ;
#166 = CARTESIAN_POINT ( 'NONE',  ( 0.5999999999999999778, -0.4000000000000000222, 0.000000000000000000 ) ) ;
#167 = EDGE_CURVE ( 'NONE', #192, #86, #93, .T. ) ;
#168 = FACE_OUTER_BOUND ( 'NONE', #85, .T. ) ;
#169 = LINE ( 'NONE', #60, #106 ) ;
#170 = EDGE_CURVE ( 'NONE', #111, #35, #182, .T. ) ;
#171 = CARTESIAN_POINT ( 'NONE',  ( -0.5999999999999999778, -0.4000000000000000222, 0.000000000000000000 ) ) ;
#172 = PRESENTATION_STYLE_ASSIGNMENT (( #1 ) ) ;
#173 = COLOUR_RGB ( '',0.5490196078431373028, 0.4039215686274509887, 0.2392156862745097867 ) ;
#174 = FILL_AREA_STYLE ('',( #110 ) ) ;
#175 = CARTESIAN_POINT ( 'NONE',  ( -0.5999999999999999778, 0.4000000000000000222, 0.000000000000000000 ) ) ;
#176 = VECTOR ( 'NONE', #8, 1000.000000000000000 ) ;
#177 = PLANE ( 'NONE',  #198 ) ;
#178 = ADVANCED_FACE ( 'NONE', ( #120 ), #184, .F. ) ;
#179 = VERTEX_POINT ( 'NONE', #186 ) ;
#180 = VECTOR ( 'NONE', #64, 1000.000000000000000 ) ;
#181 = CARTESIAN_POINT ( 'NONE',  ( 0.5999999999999999778, 0.4000000000000000222, 1.000000000000000000 ) ) ;
#182 = LINE ( 'NONE', #90, #137 ) ;
#183 = DIRECTION ( 'NONE',  ( 1.000000000000000000, 0.000000000000000000, 0.000000000000000000 ) ) ;
#184 = PLANE ( 'NONE',  #46 ) ;
#185 = ADVANCED_BREP_SHAPE_REPRESENTATION ( 'Body012.step', ( #19, #115 ), #92 ) ;
#186 = CARTESIAN_POINT ( 'NONE',  ( 0.5999999999999999778, -0.4000000000000000222, 0.000000000000000000 ) ) ;
#187 = EDGE_CURVE ( 'NONE', #5, #149, #45, .T. ) ;
#188 = VECTOR ( 'NONE', #117, 1000.000000000000000 ) ;
#189 =( NAMED_UNIT ( * ) PLANE_ANGLE_UNIT ( ) SI_UNIT ( $, .RADIAN. ) );
#190 = ORIENTED_EDGE ( 'NONE', *, *, #170, .T. ) ;
#191 = ORIENTED_EDGE ( 'NONE', *, *, #3, .T. ) ;
#192 = VERTEX_POINT ( 'NONE', #77 ) ;
#193 = CARTESIAN_POINT ( 'NONE',  ( -0.5999999999999999778, 0.4000000000000000222, 0.000000000000000000 ) ) ;
#194 = DIRECTION ( 'NONE',  ( 0.000000000000000000, 0.000000000000000000, 1.000000000000000000 ) ) ;
#195 = EDGE_CURVE ( 'NONE', #86, #20, #15, .T. ) ;
#196 = FACE_OUTER_BOUND ( 'NONE', #98, .T. ) ;
#197 = PLANE ( 'NONE',  #11 ) ;
#198 = AXIS2_PLACEMENT_3D ( 'NONE', #103, #104, #72 ) ;
#199 = VECTOR ( 'NONE', #10, 1000.000000000000000 ) ;
#200 = CARTESIAN_POINT ( 'NONE',  ( -0.5999999999999999778, -0.4000000000000000222, 0.000000000000000000 ) ) ;
#201 = DIRECTION ( 'NONE',  ( 0.000000000000000000, 0.000000000000000000, 1.000000000000000000 ) ) ;
#202 = CARTESIAN_POINT ( 'NONE',  ( -0.5999999999999999778, 0.4000000000000000222, 1.000000000000000000 ) ) ;
ENDSEC;
END-ISO-10303-21;
