ISO-10303-21;
HEADER;
FILE_DESCRIPTION (( 'STEP AP214' ),
    '1' );
FILE_NAME ('Body001 (Mirror #1)002.step.STEP',
    '2026-01-08T13:34:34',
    ( '' ),
    ( '' ),
    'SwSTEP 2.0',
    'SolidWorks 2025',
    '' );
FILE_SCHEMA (( 'AUTOMOTIVE_DESIGN' ));
ENDSEC;

DATA;
#1 = ORIENTED_EDGE ( 'NONE', *, *, #54, .F. ) ;
#2 = VERTEX_POINT ( 'NONE', #34 ) ;
#3 = FILL_AREA_STYLE_COLOUR ( '', #96 ) ;
#4 = ADVANCED_FACE ( 'NONE', ( #140 ), #17, .F. ) ;
#5 = EDGE_LOOP ( 'NONE', ( #65, #124, #189, #50 ) ) ;
#6 = EDGE_CURVE ( 'NONE', #106, #36, #168, .T. ) ;
#7 = PRESENTATION_LAYER_ASSIGNMENT (  '', '', ( #87 ) ) ;
#8 = DIRECTION ( 'NONE',  ( 0.000000000000000000, 0.000000000000000000, 1.000000000000000000 ) ) ;
#9 = LINE ( 'NONE', #67, #138 ) ;
#10 = PRODUCT_DEFINITION_SHAPE ( 'NONE', 'NONE',  #123 ) ;
#11 = FACE_OUTER_BOUND ( 'NONE', #64, .T. ) ;
#12 = ADVANCED_FACE ( 'NONE', ( #53 ), #18, .T. ) ;
#13 = LINE ( 'NONE', #161, #118 ) ;
#14 =( GEOMETRIC_REPRESENTATION_CONTEXT ( 3 ) GLOBAL_UNCERTAINTY_ASSIGNED_CONTEXT ( ( #45 ) ) GLOBAL_UNIT_ASSIGNED_CONTEXT ( ( #151, #103, #117 ) ) REPRESENTATION_CONTEXT ( 'NONE', 'WORKASPACE' ) );
#15 = SURFACE_SIDE_STYLE ('',( #184 ) ) ;
#16 = PRODUCT_RELATED_PRODUCT_CATEGORY ( 'part', '', ( #46 ) ) ;
#17 = PLANE ( 'NONE',  #79 ) ;
#18 = PLANE ( 'NONE',  #133 ) ;
#19 = VERTEX_POINT ( 'NONE', #93 ) ;
#20 = AXIS2_PLACEMENT_3D ( 'NONE', #40, #163, #110 ) ;
#21 = SURFACE_STYLE_USAGE ( .BOTH. , #158 ) ;
#22 =( LENGTH_UNIT ( ) NAMED_UNIT ( * ) SI_UNIT ( .MILLI., .METRE. ) );
#23 = DIRECTION ( 'NONE',  ( 1.000000000000000000, 0.000000000000000000, 0.000000000000000000 ) ) ;
#24 = FACE_OUTER_BOUND ( 'NONE', #51, .T. ) ;
#25 = MANIFOLD_SOLID_BREP ( 'Body001 (Mirror #1)002[1]', #142 ) ;
#26 = CARTESIAN_POINT ( 'NONE',  ( -1.250000000000000000, -0.4000000000000000222, 0.6999999999999999556 ) ) ;
#27 = ADVANCED_FACE ( 'NONE', ( #11 ), #120, .T. ) ;
#28 = CARTESIAN_POINT ( 'NONE',  ( -1.500000000000000000, 0.4000000000000000222, 0.000000000000000000 ) ) ;
#29 = LINE ( 'NONE', #95, #112 ) ;
#30 = SHAPE_DEFINITION_REPRESENTATION ( #10, #146 ) ;
#31 = STYLED_ITEM ( 'NONE', ( #116 ), #146 ) ;
#32 = CARTESIAN_POINT ( 'NONE',  ( -1.375000000000000000, -1.321694076935000062E-17, 0.000000000000000000 ) ) ;
#33 = DIRECTION ( 'NONE',  ( -1.000000000000000000, 0.000000000000000000, 0.000000000000000000 ) ) ;
#34 = CARTESIAN_POINT ( 'NONE',  ( -1.250000000000000000, 0.4000000000000000222, 0.000000000000000000 ) ) ;
#35 = MECHANICAL_DESIGN_GEOMETRIC_PRESENTATION_REPRESENTATION (  '', ( #31 ), #14 ) ;
#36 = VERTEX_POINT ( 'NONE', #97 ) ;
#37 = LINE ( 'NONE', #113, #49 ) ;
#38 = VECTOR ( 'NONE', #115, 1000.000000000000000 ) ;
#39 = LINE ( 'NONE', #69, #68 ) ;
#40 = CARTESIAN_POINT ( 'NONE',  ( -1.250000000000000000, -0.4000000000000000222, 0.000000000000000000 ) ) ;
#41 = PLANE ( 'NONE',  #20 ) ;
#42 = EDGE_CURVE ( 'NONE', #19, #78, #191, .T. ) ;
#43 = APPLICATION_PROTOCOL_DEFINITION ( 'draft international standard', 'automotive_design', 1998, #88 ) ;
#44 =( LENGTH_UNIT ( ) NAMED_UNIT ( * ) SI_UNIT ( .MILLI., .METRE. ) );
#45 = UNCERTAINTY_MEASURE_WITH_UNIT (LENGTH_MEASURE( 1.000000000000000082E-05 ), #151, 'distance_accuracy_value', 'NONE');
#46 = PRODUCT ( 'Body001 (Mirror #1)002.step', 'Body001 (Mirror #1)002.step', '', ( #166 ) ) ;
#47 = DIRECTION ( 'NONE',  ( 0.000000000000000000, 0.000000000000000000, 1.000000000000000000 ) ) ;
#48 = PRODUCT_DEFINITION_CONTEXT ( 'detailed design', #99, 'design' ) ;
#49 = VECTOR ( 'NONE', #71, 1000.000000000000000 ) ;
#50 = ORIENTED_EDGE ( 'NONE', *, *, #135, .F. ) ;
#51 = EDGE_LOOP ( 'NONE', ( #74, #157, #139, #188 ) ) ;
#52 = ORIENTED_EDGE ( 'NONE', *, *, #129, .T. ) ;
#53 = FACE_OUTER_BOUND ( 'NONE', #154, .T. ) ;
#54 = EDGE_CURVE ( 'NONE', #36, #150, #13, .T. ) ;
#55 = CARTESIAN_POINT ( 'NONE',  ( -1.500000000000000000, 0.4000000000000000222, 0.6999999999999999556 ) ) ;
#56 = DIRECTION ( 'NONE',  ( 0.000000000000000000, 0.000000000000000000, -1.000000000000000000 ) ) ;
#57 = CARTESIAN_POINT ( 'NONE',  ( -1.500000000000000000, -0.4000000000000000222, 0.000000000000000000 ) ) ;
#58 =( NAMED_UNIT ( * ) SI_UNIT ( $, .STERADIAN. ) SOLID_ANGLE_UNIT ( ) );
#59 = FACE_OUTER_BOUND ( 'NONE', #5, .T. ) ;
#60 = EDGE_CURVE ( 'NONE', #19, #77, #126, .T. ) ;
#61 =( NAMED_UNIT ( * ) PLANE_ANGLE_UNIT ( ) SI_UNIT ( $, .RADIAN. ) );
#62 =( NAMED_UNIT ( * ) SI_UNIT ( $, .STERADIAN. ) SOLID_ANGLE_UNIT ( ) );
#63 = EDGE_LOOP ( 'NONE', ( #141, #107, #170, #66 ) ) ;
#64 = EDGE_LOOP ( 'NONE', ( #104, #121, #125, #94 ) ) ;
#65 = ORIENTED_EDGE ( 'NONE', *, *, #174, .T. ) ;
#66 = ORIENTED_EDGE ( 'NONE', *, *, #180, .F. ) ;
#67 = CARTESIAN_POINT ( 'NONE',  ( -1.500000000000000000, 0.4000000000000000222, 0.000000000000000000 ) ) ;
#68 = VECTOR ( 'NONE', #144, 1000.000000000000000 ) ;
#69 = CARTESIAN_POINT ( 'NONE',  ( -1.500000000000000000, 0.4000000000000000222, 0.000000000000000000 ) ) ;
#70 = CARTESIAN_POINT ( 'NONE',  ( -1.500000000000000000, -0.4000000000000000222, 0.000000000000000000 ) ) ;
#71 = DIRECTION ( 'NONE',  ( 0.000000000000000000, 0.000000000000000000, 1.000000000000000000 ) ) ;
#72 = CARTESIAN_POINT ( 'NONE',  ( -1.250000000000000000, 0.4000000000000000222, 0.000000000000000000 ) ) ;
#73 =( GEOMETRIC_REPRESENTATION_CONTEXT ( 3 ) GLOBAL_UNCERTAINTY_ASSIGNED_CONTEXT ( ( #172 ) ) GLOBAL_UNIT_ASSIGNED_CONTEXT ( ( #22, #185, #58 ) ) REPRESENTATION_CONTEXT ( 'NONE', 'WORKASPACE' ) );
#74 = ORIENTED_EDGE ( 'NONE', *, *, #42, .T. ) ;
#75 = SURFACE_STYLE_USAGE ( .BOTH. , #15 ) ;
#76 = ADVANCED_FACE ( 'NONE', ( #86 ), #193, .T. ) ;
#77 = VERTEX_POINT ( 'NONE', #192 ) ;
#78 = VERTEX_POINT ( 'NONE', #181 ) ;
#79 = AXIS2_PLACEMENT_3D ( 'NONE', #32, #47, #136 ) ;
#80 = CARTESIAN_POINT ( 'NONE',  ( -1.500000000000000000, 0.4000000000000000222, 0.000000000000000000 ) ) ;
#81 = AXIS2_PLACEMENT_3D ( 'NONE', #83, #127, #82 ) ;
#82 = DIRECTION ( 'NONE',  ( 1.000000000000000000, 0.000000000000000000, 0.000000000000000000 ) ) ;
#83 = CARTESIAN_POINT ( 'NONE',  ( -1.375000000000000000, -1.321694076935000062E-17, 0.6999999999999999556 ) ) ;
#84 = DIRECTION ( 'NONE',  ( -1.000000000000000000, 0.000000000000000000, 0.000000000000000000 ) ) ;
#85 = VECTOR ( 'NONE', #8, 1000.000000000000000 ) ;
#86 = FACE_OUTER_BOUND ( 'NONE', #167, .T. ) ;
#87 = STYLED_ITEM ( 'NONE', ( #173 ), #25 ) ;
#88 = APPLICATION_CONTEXT ( 'automotive_design' ) ;
#89 = FILL_AREA_STYLE_COLOUR ( '', #149 ) ;
#90 = EDGE_CURVE ( 'NONE', #2, #36, #37, .T. ) ;
#91 = ORIENTED_EDGE ( 'NONE', *, *, #129, .F. ) ;
#92 = ORIENTED_EDGE ( 'NONE', *, *, #90, .F. ) ;
#93 = CARTESIAN_POINT ( 'NONE',  ( -1.500000000000000000, -0.4000000000000000222, 0.000000000000000000 ) ) ;
#94 = ORIENTED_EDGE ( 'NONE', *, *, #6, .T. ) ;
#95 = CARTESIAN_POINT ( 'NONE',  ( -1.500000000000000000, -0.4000000000000000222, 0.6999999999999999556 ) ) ;
#96 = COLOUR_RGB ( '',0.7960784313725489669, 0.7960784313725489669, 0.7960784313725489669 ) ;
#97 = CARTESIAN_POINT ( 'NONE',  ( -1.250000000000000000, 0.4000000000000000222, 0.6999999999999999556 ) ) ;
#98 = DIRECTION ( 'NONE',  ( 0.000000000000000000, -1.000000000000000000, 0.000000000000000000 ) ) ;
#99 = APPLICATION_CONTEXT ( 'automotive_design' ) ;
#100 = LINE ( 'NONE', #176, #105 ) ;
#101 = DIRECTION ( 'NONE',  ( 1.000000000000000000, 0.000000000000000000, 0.000000000000000000 ) ) ;
#102 = VECTOR ( 'NONE', #128, 1000.000000000000000 ) ;
#103 =( NAMED_UNIT ( * ) PLANE_ANGLE_UNIT ( ) SI_UNIT ( $, .RADIAN. ) );
#104 = ORIENTED_EDGE ( 'NONE', *, *, #54, .T. ) ;
#105 = VECTOR ( 'NONE', #162, 1000.000000000000000 ) ;
#106 = VERTEX_POINT ( 'NONE', #26 ) ;
#107 = ORIENTED_EDGE ( 'NONE', *, *, #42, .F. ) ;
#108 = FILL_AREA_STYLE ('',( #3 ) ) ;
#109 = SURFACE_STYLE_FILL_AREA ( #108 ) ;
#110 = DIRECTION ( 'NONE',  ( 0.000000000000000000, 1.000000000000000000, 0.000000000000000000 ) ) ;
#111 = DIRECTION ( 'NONE',  ( -1.000000000000000000, 0.000000000000000000, 0.000000000000000000 ) ) ;
#112 = VECTOR ( 'NONE', #23, 1000.000000000000000 ) ;
#113 = CARTESIAN_POINT ( 'NONE',  ( -1.250000000000000000, 0.4000000000000000222, 0.000000000000000000 ) ) ;
#114 = LINE ( 'NONE', #159, #153 ) ;
#115 = DIRECTION ( 'NONE',  ( 0.000000000000000000, -1.000000000000000000, 0.000000000000000000 ) ) ;
#116 = PRESENTATION_STYLE_ASSIGNMENT (( #75 ) ) ;
#117 =( NAMED_UNIT ( * ) SI_UNIT ( $, .STERADIAN. ) SOLID_ANGLE_UNIT ( ) );
#118 = VECTOR ( 'NONE', #111, 1000.000000000000000 ) ;
#119 = ADVANCED_FACE ( 'NONE', ( #24 ), #195, .T. ) ;
#120 = PLANE ( 'NONE',  #81 ) ;
#121 = ORIENTED_EDGE ( 'NONE', *, *, #196, .T. ) ;
#122 = CARTESIAN_POINT ( 'NONE',  ( -1.250000000000000000, -0.4000000000000000222, 0.6999999999999999556 ) ) ;
#123 = PRODUCT_DEFINITION ( 'General', '', #165, #48 ) ;
#124 = ORIENTED_EDGE ( 'NONE', *, *, #90, .T. ) ;
#125 = ORIENTED_EDGE ( 'NONE', *, *, #200, .T. ) ;
#126 = LINE ( 'NONE', #57, #85 ) ;
#127 = DIRECTION ( 'NONE',  ( 0.000000000000000000, 0.000000000000000000, 1.000000000000000000 ) ) ;
#128 = DIRECTION ( 'NONE',  ( 1.000000000000000000, 0.000000000000000000, 0.000000000000000000 ) ) ;
#129 = EDGE_CURVE ( 'NONE', #175, #150, #39, .T. ) ;
#130 = PRESENTATION_LAYER_ASSIGNMENT (  '', '', ( #31 ) ) ;
#131 = EDGE_CURVE ( 'NONE', #175, #19, #9, .T. ) ;
#132 = LINE ( 'NONE', #197, #38 ) ;
#133 = AXIS2_PLACEMENT_3D ( 'NONE', #80, #33, #156 ) ;
#134 = CARTESIAN_POINT ( 'NONE',  ( 0.000000000000000000, 0.000000000000000000, 0.000000000000000000 ) ) ;
#135 = EDGE_CURVE ( 'NONE', #78, #106, #114, .T. ) ;
#136 = DIRECTION ( 'NONE',  ( 1.000000000000000000, 0.000000000000000000, 0.000000000000000000 ) ) ;
#137 = ORIENTED_EDGE ( 'NONE', *, *, #60, .T. ) ;
#138 = VECTOR ( 'NONE', #98, 1000.000000000000000 ) ;
#139 = ORIENTED_EDGE ( 'NONE', *, *, #200, .F. ) ;
#140 = FACE_OUTER_BOUND ( 'NONE', #63, .T. ) ;
#141 = ORIENTED_EDGE ( 'NONE', *, *, #174, .F. ) ;
#142 = CLOSED_SHELL ( 'NONE', ( #27, #4, #148, #119, #12, #76 ) ) ;
#143 = LINE ( 'NONE', #72, #178 ) ;
#144 = DIRECTION ( 'NONE',  ( 0.000000000000000000, 0.000000000000000000, 1.000000000000000000 ) ) ;
#145 = CARTESIAN_POINT ( 'NONE',  ( -1.500000000000000000, -0.4000000000000000222, 0.000000000000000000 ) ) ;
#146 = ADVANCED_BREP_SHAPE_REPRESENTATION ( 'Body001 (Mirror #1)002.step', ( #25, #202 ), #169 ) ;
#147 = CARTESIAN_POINT ( 'NONE',  ( -1.250000000000000000, 0.4000000000000000222, 0.000000000000000000 ) ) ;
#148 = ADVANCED_FACE ( 'NONE', ( #59 ), #41, .T. ) ;
#149 = COLOUR_RGB ( '',0.7960784313725489669, 0.7960784313725489669, 0.7960784313725489669 ) ;
#150 = VERTEX_POINT ( 'NONE', #55 ) ;
#151 =( LENGTH_UNIT ( ) NAMED_UNIT ( * ) SI_UNIT ( .MILLI., .METRE. ) );
#152 = APPLICATION_PROTOCOL_DEFINITION ( 'draft international standard', 'automotive_design', 1998, #99 ) ;
#153 = VECTOR ( 'NONE', #179, 1000.000000000000000 ) ;
#154 = EDGE_LOOP ( 'NONE', ( #155, #137, #190, #91 ) ) ;
#155 = ORIENTED_EDGE ( 'NONE', *, *, #131, .T. ) ;
#156 = DIRECTION ( 'NONE',  ( 0.000000000000000000, 0.000000000000000000, 1.000000000000000000 ) ) ;
#157 = ORIENTED_EDGE ( 'NONE', *, *, #135, .T. ) ;
#158 = SURFACE_SIDE_STYLE ('',( #109 ) ) ;
#159 = CARTESIAN_POINT ( 'NONE',  ( -1.250000000000000000, -0.4000000000000000222, 0.000000000000000000 ) ) ;
#160 = DIRECTION ( 'NONE',  ( 0.000000000000000000, -1.000000000000000000, 0.000000000000000000 ) ) ;
#161 = CARTESIAN_POINT ( 'NONE',  ( -1.250000000000000000, 0.4000000000000000222, 0.6999999999999999556 ) ) ;
#162 = DIRECTION ( 'NONE',  ( 0.000000000000000000, 1.000000000000000000, 0.000000000000000000 ) ) ;
#163 = DIRECTION ( 'NONE',  ( 1.000000000000000000, 0.000000000000000000, 0.000000000000000000 ) ) ;
#164 = DIRECTION ( 'NONE',  ( 0.000000000000000000, 0.000000000000000000, 1.000000000000000000 ) ) ;
#165 = PRODUCT_DEFINITION_FORMATION_WITH_SPECIFIED_SOURCE ( 'Symmetric', '', #46, .NOT_KNOWN. ) ;
#166 = PRODUCT_CONTEXT ( 'NONE', #88, 'mechanical' ) ;
#167 = EDGE_LOOP ( 'NONE', ( #186, #52, #1, #92 ) ) ;
#168 = LINE ( 'NONE', #122, #194 ) ;
#169 =( GEOMETRIC_REPRESENTATION_CONTEXT ( 3 ) GLOBAL_UNCERTAINTY_ASSIGNED_CONTEXT ( ( #201 ) ) GLOBAL_UNIT_ASSIGNED_CONTEXT ( ( #44, #61, #62 ) ) REPRESENTATION_CONTEXT ( 'NONE', 'WORKASPACE' ) );
#170 = ORIENTED_EDGE ( 'NONE', *, *, #131, .F. ) ;
#171 = DIRECTION ( 'NONE',  ( 0.000000000000000000, 1.000000000000000000, 0.000000000000000000 ) ) ;
#172 = UNCERTAINTY_MEASURE_WITH_UNIT (LENGTH_MEASURE( 1.000000000000000082E-05 ), #22, 'distance_accuracy_value', 'NONE');
#173 = PRESENTATION_STYLE_ASSIGNMENT (( #21 ) ) ;
#174 = EDGE_CURVE ( 'NONE', #78, #2, #100, .T. ) ;
#175 = VERTEX_POINT ( 'NONE', #28 ) ;
#176 = CARTESIAN_POINT ( 'NONE',  ( -1.250000000000000000, -0.4000000000000000222, 0.000000000000000000 ) ) ;
#177 = DIRECTION ( 'NONE',  ( -0.000000000000000000, 1.000000000000000000, 0.000000000000000000 ) ) ;
#178 = VECTOR ( 'NONE', #84, 1000.000000000000000 ) ;
#179 = DIRECTION ( 'NONE',  ( 0.000000000000000000, 0.000000000000000000, 1.000000000000000000 ) ) ;
#180 = EDGE_CURVE ( 'NONE', #2, #175, #143, .T. ) ;
#181 = CARTESIAN_POINT ( 'NONE',  ( -1.250000000000000000, -0.4000000000000000222, 0.000000000000000000 ) ) ;
#182 = DIRECTION ( 'NONE',  ( 1.000000000000000000, 0.000000000000000000, 0.000000000000000000 ) ) ;
#183 = AXIS2_PLACEMENT_3D ( 'NONE', #145, #160, #56 ) ;
#184 = SURFACE_STYLE_FILL_AREA ( #198 ) ;
#185 =( NAMED_UNIT ( * ) PLANE_ANGLE_UNIT ( ) SI_UNIT ( $, .RADIAN. ) );
#186 = ORIENTED_EDGE ( 'NONE', *, *, #180, .T. ) ;
#187 = AXIS2_PLACEMENT_3D ( 'NONE', #147, #177, #101 ) ;
#188 = ORIENTED_EDGE ( 'NONE', *, *, #60, .F. ) ;
#189 = ORIENTED_EDGE ( 'NONE', *, *, #6, .F. ) ;
#190 = ORIENTED_EDGE ( 'NONE', *, *, #196, .F. ) ;
#191 = LINE ( 'NONE', #70, #102 ) ;
#192 = CARTESIAN_POINT ( 'NONE',  ( -1.500000000000000000, -0.4000000000000000222, 0.6999999999999999556 ) ) ;
#193 = PLANE ( 'NONE',  #187 ) ;
#194 = VECTOR ( 'NONE', #171, 1000.000000000000000 ) ;
#195 = PLANE ( 'NONE',  #183 ) ;
#196 = EDGE_CURVE ( 'NONE', #150, #77, #132, .T. ) ;
#197 = CARTESIAN_POINT ( 'NONE',  ( -1.500000000000000000, 0.4000000000000000222, 0.6999999999999999556 ) ) ;
#198 = FILL_AREA_STYLE ('',( #89 ) ) ;
#199 = MECHANICAL_DESIGN_GEOMETRIC_PRESENTATION_REPRESENTATION (  '', ( #87 ), #73 ) ;
#200 = EDGE_CURVE ( 'NONE', #77, #106, #29, .T. ) ;
#201 = UNCERTAINTY_MEASURE_WITH_UNIT (LENGTH_MEASURE( 1.000000000000000082E-05 ), #44, 'distance_accuracy_value', 'NONE');
#202 = AXIS2_PLACEMENT_3D ( 'NONE', #134, #164, #182 ) ;
ENDSEC;
END-ISO-10303-21;
