ISO-10303-21;
HEADER;
FILE_DESCRIPTION (( 'STEP AP214' ),
    '1' );
FILE_NAME ('Body015.step.STEP',
    '2026-01-08T13:34:33',
    ( '' ),
    ( '' ),
    'SwSTEP 2.0',
    'SolidWorks 2025',
    '' );
FILE_SCHEMA (( 'AUTOMOTIVE_DESIGN' ));
ENDSEC;

DATA;
#1 = ADVANCED_FACE ( 'NONE', ( #123 ), #194, .T. ) ;
#2 = DIRECTION ( 'NONE',  ( 0.7071067811865474617, 0.000000000000000000, 0.7071067811865474617 ) ) ;
#3 = VERTEX_POINT ( 'NONE', #192 ) ;
#4 = VECTOR ( 'NONE', #127, 1000.000000000000000 ) ;
#5 = PRODUCT_DEFINITION_CONTEXT ( 'detailed design', #199, 'design' ) ;
#6 = ORIENTED_EDGE ( 'NONE', *, *, #220, .F. ) ;
#7 = CARTESIAN_POINT ( 'NONE',  ( 0.000000000000000000, 0.000000000000000000, 1.199999999999999956 ) ) ;
#8 = EDGE_CURVE ( 'NONE', #178, #221, #60, .T. ) ;
#9 = CARTESIAN_POINT ( 'NONE',  ( 1.250000000000000000, -0.7500000000000000000, 1.199999999999999956 ) ) ;
#10 = AXIS2_PLACEMENT_3D ( 'NONE', #97, #185, #30 ) ;
#11 = PLANE ( 'NONE',  #120 ) ;
#12 =( LENGTH_UNIT ( ) NAMED_UNIT ( * ) SI_UNIT ( .MILLI., .METRE. ) );
#13 = DIRECTION ( 'NONE',  ( 0.000000000000000000, -1.000000000000000000, 0.000000000000000000 ) ) ;
#14 = EDGE_CURVE ( 'NONE', #24, #178, #23, .T. ) ;
#15 = EDGE_LOOP ( 'NONE', ( #54, #125, #6, #144 ) ) ;
#16 = ADVANCED_FACE ( 'NONE', ( #39 ), #40, .T. ) ;
#17 =( LENGTH_UNIT ( ) NAMED_UNIT ( * ) SI_UNIT ( .MILLI., .METRE. ) );
#18 = DIRECTION ( 'NONE',  ( 0.000000000000000000, 0.000000000000000000, 1.000000000000000000 ) ) ;
#19 =( GEOMETRIC_REPRESENTATION_CONTEXT ( 3 ) GLOBAL_UNCERTAINTY_ASSIGNED_CONTEXT ( ( #141 ) ) GLOBAL_UNIT_ASSIGNED_CONTEXT ( ( #12, #49, #62 ) ) REPRESENTATION_CONTEXT ( 'NONE', 'WORKASPACE' ) );
#20 = VERTEX_POINT ( 'NONE', #59 ) ;
#21 = EDGE_LOOP ( 'NONE', ( #156, #58, #108, #179, #94 ) ) ;
#22 = CARTESIAN_POINT ( 'NONE',  ( -1.250000000000000000, -0.7500000000000000000, 0.000000000000000000 ) ) ;
#23 = LINE ( 'NONE', #128, #160 ) ;
#24 = VERTEX_POINT ( 'NONE', #42 ) ;
#25 = PLANE ( 'NONE',  #96 ) ;
#26 = VECTOR ( 'NONE', #112, 1000.000000000000000 ) ;
#27 = LINE ( 'NONE', #116, #207 ) ;
#28 = CARTESIAN_POINT ( 'NONE',  ( 1.250000000000000000, -0.7500000000000000000, 0.000000000000000000 ) ) ;
#29 = CARTESIAN_POINT ( 'NONE',  ( -1.149999999999999911, -0.7500000000000000000, 1.100000000000000089 ) ) ;
#30 = DIRECTION ( 'NONE',  ( 0.000000000000000000, 1.000000000000000000, 0.000000000000000000 ) ) ;
#31 = EDGE_CURVE ( 'NONE', #221, #157, #90, .T. ) ;
#32 =( NAMED_UNIT ( * ) PLANE_ANGLE_UNIT ( ) SI_UNIT ( $, .RADIAN. ) );
#33 = PRESENTATION_LAYER_ASSIGNMENT (  '', '', ( #149 ) ) ;
#34 = DIRECTION ( 'NONE',  ( 1.000000000000000000, 0.000000000000000000, 0.000000000000000000 ) ) ;
#35 = PRODUCT ( 'Body015.step', 'Body015.step', '', ( #104 ) ) ;
#36 = SURFACE_STYLE_USAGE ( .BOTH. , #186 ) ;
#37 = COLOUR_RGB ( '',0.2274509803921568596, 0.2274509803921568596, 0.2274509803921568596 ) ;
#38 = CARTESIAN_POINT ( 'NONE',  ( -1.449999999999999956, 0.7500000000000000000, 0.8000000000000000444 ) ) ;
#39 = FACE_OUTER_BOUND ( 'NONE', #15, .T. ) ;
#40 = PLANE ( 'NONE',  #230 ) ;
#41 = CARTESIAN_POINT ( 'NONE',  ( -1.250000000000000000, 0.7500000000000000000, 0.000000000000000000 ) ) ;
#42 = CARTESIAN_POINT ( 'NONE',  ( 1.250000000000000000, 0.7500000000000000000, 0.000000000000000000 ) ) ;
#43 = CARTESIAN_POINT ( 'NONE',  ( -1.250000000000000000, -0.7500000000000000000, 1.000000000000000000 ) ) ;
#44 = EDGE_CURVE ( 'NONE', #191, #24, #155, .T. ) ;
#45 = DIRECTION ( 'NONE',  ( 0.000000000000000000, 1.000000000000000000, 0.000000000000000000 ) ) ;
#46 = MECHANICAL_DESIGN_GEOMETRIC_PRESENTATION_REPRESENTATION (  '', ( #138 ), #229 ) ;
#47 = SURFACE_STYLE_USAGE ( .BOTH. , #204 ) ;
#48 = CARTESIAN_POINT ( 'NONE',  ( 1.250000000000000000, -0.7500000000000000000, 0.000000000000000000 ) ) ;
#49 =( NAMED_UNIT ( * ) PLANE_ANGLE_UNIT ( ) SI_UNIT ( $, .RADIAN. ) );
#50 = EDGE_CURVE ( 'NONE', #24, #218, #113, .T. ) ;
#51 = VECTOR ( 'NONE', #169, 1000.000000000000000 ) ;
#52 = SURFACE_STYLE_FILL_AREA ( #87 ) ;
#53 = DIRECTION ( 'NONE',  ( 0.000000000000000000, 0.000000000000000000, 1.000000000000000000 ) ) ;
#54 = ORIENTED_EDGE ( 'NONE', *, *, #154, .T. ) ;
#55 = PRODUCT_DEFINITION_SHAPE ( 'NONE', 'NONE',  #211 ) ;
#56 = ORIENTED_EDGE ( 'NONE', *, *, #31, .F. ) ;
#57 = ORIENTED_EDGE ( 'NONE', *, *, #231, .T. ) ;
#58 = ORIENTED_EDGE ( 'NONE', *, *, #65, .T. ) ;
#59 = CARTESIAN_POINT ( 'NONE',  ( -1.250000000000000000, -0.7500000000000000000, 1.000000000000000000 ) ) ;
#60 = LINE ( 'NONE', #181, #164 ) ;
#61 = LINE ( 'NONE', #225, #67 ) ;
#62 =( NAMED_UNIT ( * ) SI_UNIT ( $, .STERADIAN. ) SOLID_ANGLE_UNIT ( ) );
#63 = CARTESIAN_POINT ( 'NONE',  ( -1.050000000000000044, -0.7500000000000000000, 1.199999999999999956 ) ) ;
#64 = DIRECTION ( 'NONE',  ( 1.000000000000000000, 0.000000000000000000, 0.000000000000000000 ) ) ;
#65 = EDGE_CURVE ( 'NONE', #91, #143, #215, .T. ) ;
#66 = PRESENTATION_STYLE_ASSIGNMENT (( #36 ) ) ;
#67 = VECTOR ( 'NONE', #165, 1000.000000000000000 ) ;
#68 = ORIENTED_EDGE ( 'NONE', *, *, #14, .F. ) ;
#69 = LINE ( 'NONE', #189, #111 ) ;
#70 = LINE ( 'NONE', #137, #216 ) ;
#71 = CARTESIAN_POINT ( 'NONE',  ( 0.000000000000000000, 0.000000000000000000, 0.000000000000000000 ) ) ;
#72 = ORIENTED_EDGE ( 'NONE', *, *, #31, .T. ) ;
#73 = EDGE_LOOP ( 'NONE', ( #235, #95, #74, #72, #158 ) ) ;
#74 = ORIENTED_EDGE ( 'NONE', *, *, #8, .T. ) ;
#75 = DIRECTION ( 'NONE',  ( 1.000000000000000000, 0.000000000000000000, 0.000000000000000000 ) ) ;
#76 = ADVANCED_FACE ( 'NONE', ( #99 ), #161, .T. ) ;
#77 = SURFACE_STYLE_FILL_AREA ( #130 ) ;
#78 = CARTESIAN_POINT ( 'NONE',  ( -1.250000000000000000, 0.7500000000000000000, 0.000000000000000000 ) ) ;
#79 = DIRECTION ( 'NONE',  ( -0.7071067811865475727, 0.000000000000000000, 0.7071067811865475727 ) ) ;
#80 = CARTESIAN_POINT ( 'NONE',  ( -0.8249999999999999556, -0.7500000000000000000, 1.425000000000000044 ) ) ;
#81 = VECTOR ( 'NONE', #2, 1000.000000000000114 ) ;
#82 = DIRECTION ( 'NONE',  ( 0.000000000000000000, 0.000000000000000000, -1.000000000000000000 ) ) ;
#83 = EDGE_CURVE ( 'NONE', #157, #143, #150, .T. ) ;
#84 = ORIENTED_EDGE ( 'NONE', *, *, #175, .T. ) ;
#85 = AXIS2_PLACEMENT_3D ( 'NONE', #201, #208, #232 ) ;
#86 = EDGE_LOOP ( 'NONE', ( #93, #57, #110, #68 ) ) ;
#87 = FILL_AREA_STYLE ('',( #119 ) ) ;
#88 = LINE ( 'NONE', #173, #51 ) ;
#89 = ADVANCED_FACE ( 'NONE', ( #115 ), #11, .T. ) ;
#90 = LINE ( 'NONE', #9, #4 ) ;
#91 = VERTEX_POINT ( 'NONE', #147 ) ;
#92 = AXIS2_PLACEMENT_3D ( 'NONE', #7, #196, #75 ) ;
#93 = ORIENTED_EDGE ( 'NONE', *, *, #50, .T. ) ;
#94 = ORIENTED_EDGE ( 'NONE', *, *, #44, .F. ) ;
#95 = ORIENTED_EDGE ( 'NONE', *, *, #148, .F. ) ;
#96 = AXIS2_PLACEMENT_3D ( 'NONE', #78, #134, #64 ) ;
#97 = CARTESIAN_POINT ( 'NONE',  ( 1.250000000000000000, 0.7500000000000000000, 0.000000000000000000 ) ) ;
#98 = VECTOR ( 'NONE', #223, 1000.000000000000000 ) ;
#99 = FACE_OUTER_BOUND ( 'NONE', #73, .T. ) ;
#100 = CARTESIAN_POINT ( 'NONE',  ( -1.250000000000000000, -0.7500000000000000000, 0.000000000000000000 ) ) ;
#101 = DIRECTION ( 'NONE',  ( 0.000000000000000000, 1.000000000000000000, 0.000000000000000000 ) ) ;
#102 = CLOSED_SHELL ( 'NONE', ( #76, #193, #1, #213, #89, #16, #188 ) ) ;
#103 = DIRECTION ( 'NONE',  ( -1.000000000000000000, 0.000000000000000000, 0.000000000000000000 ) ) ;
#104 = PRODUCT_CONTEXT ( 'NONE', #166, 'mechanical' ) ;
#105 = ORIENTED_EDGE ( 'NONE', *, *, #83, .T. ) ;
#106 = CARTESIAN_POINT ( 'NONE',  ( 1.250000000000000000, 0.7500000000000000000, 1.199999999999999956 ) ) ;
#107 = APPLICATION_PROTOCOL_DEFINITION ( 'draft international standard', 'automotive_design', 1998, #166 ) ;
#108 = ORIENTED_EDGE ( 'NONE', *, *, #226, .T. ) ;
#109 = ORIENTED_EDGE ( 'NONE', *, *, #226, .F. ) ;
#110 = ORIENTED_EDGE ( 'NONE', *, *, #8, .F. ) ;
#111 = VECTOR ( 'NONE', #152, 1000.000000000000000 ) ;
#112 = DIRECTION ( 'NONE',  ( 1.000000000000000000, 0.000000000000000000, 0.000000000000000000 ) ) ;
#113 = LINE ( 'NONE', #159, #197 ) ;
#114 = AXIS2_PLACEMENT_3D ( 'NONE', #71, #53, #34 ) ;
#115 = FACE_OUTER_BOUND ( 'NONE', #176, .T. ) ;
#116 = CARTESIAN_POINT ( 'NONE',  ( 1.250000000000000000, -0.7500000000000000000, 0.000000000000000000 ) ) ;
#117 = FACE_OUTER_BOUND ( 'NONE', #86, .T. ) ;
#118 =( GEOMETRIC_REPRESENTATION_CONTEXT ( 3 ) GLOBAL_UNCERTAINTY_ASSIGNED_CONTEXT ( ( #171 ) ) GLOBAL_UNIT_ASSIGNED_CONTEXT ( ( #17, #210, #174 ) ) REPRESENTATION_CONTEXT ( 'NONE', 'WORKASPACE' ) );
#119 = FILL_AREA_STYLE_COLOUR ( '', #37 ) ;
#120 = AXIS2_PLACEMENT_3D ( 'NONE', #29, #79, #167 ) ;
#121 =( NAMED_UNIT ( * ) SI_UNIT ( $, .STERADIAN. ) SOLID_ANGLE_UNIT ( ) );
#122 = ORIENTED_EDGE ( 'NONE', *, *, #129, .T. ) ;
#123 = FACE_OUTER_BOUND ( 'NONE', #195, .T. ) ;
#124 = VECTOR ( 'NONE', #227, 1000.000000000000114 ) ;
#125 = ORIENTED_EDGE ( 'NONE', *, *, #205, .T. ) ;
#126 = DIRECTION ( 'NONE',  ( 0.000000000000000000, 0.000000000000000000, 1.000000000000000000 ) ) ;
#127 = DIRECTION ( 'NONE',  ( -1.000000000000000000, 0.000000000000000000, 0.000000000000000000 ) ) ;
#128 = CARTESIAN_POINT ( 'NONE',  ( 1.250000000000000000, 0.7500000000000000000, 0.000000000000000000 ) ) ;
#129 = EDGE_CURVE ( 'NONE', #20, #157, #135, .T. ) ;
#130 = FILL_AREA_STYLE ('',( #183 ) ) ;
#131 = PLANE ( 'NONE',  #85 ) ;
#132 = COLOUR_RGB ( '',0.2274509803921568596, 0.2274509803921568596, 0.2274509803921568596 ) ;
#133 = LINE ( 'NONE', #100, #234 ) ;
#134 = DIRECTION ( 'NONE',  ( -0.000000000000000000, 1.000000000000000000, 0.000000000000000000 ) ) ;
#135 = LINE ( 'NONE', #80, #124 ) ;
#136 =( LENGTH_UNIT ( ) NAMED_UNIT ( * ) SI_UNIT ( .MILLI., .METRE. ) );
#137 = CARTESIAN_POINT ( 'NONE',  ( -1.250000000000000000, 0.7500000000000000000, 0.000000000000000000 ) ) ;
#138 = STYLED_ITEM ( 'NONE', ( #66 ), #180 ) ;
#139 = APPLICATION_PROTOCOL_DEFINITION ( 'draft international standard', 'automotive_design', 1998, #199 ) ;
#140 = DIRECTION ( 'NONE',  ( 0.000000000000000000, -1.000000000000000000, 0.000000000000000000 ) ) ;
#141 = UNCERTAINTY_MEASURE_WITH_UNIT (LENGTH_MEASURE( 1.000000000000000082E-05 ), #12, 'distance_accuracy_value', 'NONE');
#142 = DIRECTION ( 'NONE',  ( -1.000000000000000000, 0.000000000000000000, 0.000000000000000000 ) ) ;
#143 = VERTEX_POINT ( 'NONE', #162 ) ;
#144 = ORIENTED_EDGE ( 'NONE', *, *, #175, .F. ) ;
#145 = ORIENTED_EDGE ( 'NONE', *, *, #205, .F. ) ;
#146 = FACE_OUTER_BOUND ( 'NONE', #209, .T. ) ;
#147 = CARTESIAN_POINT ( 'NONE',  ( -1.250000000000000000, 0.7500000000000000000, 1.000000000000000000 ) ) ;
#148 = EDGE_CURVE ( 'NONE', #178, #3, #27, .T. ) ;
#149 = STYLED_ITEM ( 'NONE', ( #163 ), #177 ) ;
#150 = LINE ( 'NONE', #203, #224 ) ;
#151 = ORIENTED_EDGE ( 'NONE', *, *, #44, .T. ) ;
#152 = DIRECTION ( 'NONE',  ( 1.000000000000000000, 0.000000000000000000, 0.000000000000000000 ) ) ;
#153 = ORIENTED_EDGE ( 'NONE', *, *, #65, .F. ) ;
#154 = EDGE_CURVE ( 'NONE', #3, #20, #61, .T. ) ;
#155 = LINE ( 'NONE', #41, #26 ) ;
#156 = ORIENTED_EDGE ( 'NONE', *, *, #220, .T. ) ;
#157 = VERTEX_POINT ( 'NONE', #63 ) ;
#158 = ORIENTED_EDGE ( 'NONE', *, *, #129, .F. ) ;
#159 = CARTESIAN_POINT ( 'NONE',  ( 1.250000000000000000, 0.7500000000000000000, 0.000000000000000000 ) ) ;
#160 = VECTOR ( 'NONE', #140, 1000.000000000000000 ) ;
#161 = PLANE ( 'NONE',  #212 ) ;
#162 = CARTESIAN_POINT ( 'NONE',  ( -1.050000000000000044, 0.7500000000000000000, 1.199999999999999956 ) ) ;
#163 = PRESENTATION_STYLE_ASSIGNMENT (( #47 ) ) ;
#164 = VECTOR ( 'NONE', #126, 1000.000000000000000 ) ;
#165 = DIRECTION ( 'NONE',  ( 0.000000000000000000, 0.000000000000000000, 1.000000000000000000 ) ) ;
#166 = APPLICATION_CONTEXT ( 'automotive_design' ) ;
#167 = DIRECTION ( 'NONE',  ( 0.000000000000000000, 1.000000000000000000, 0.000000000000000000 ) ) ;
#168 = PRODUCT_RELATED_PRODUCT_CATEGORY ( 'part', '', ( #35 ) ) ;
#169 = DIRECTION ( 'NONE',  ( 0.000000000000000000, -1.000000000000000000, 0.000000000000000000 ) ) ;
#170 = ORIENTED_EDGE ( 'NONE', *, *, #14, .T. ) ;
#171 = UNCERTAINTY_MEASURE_WITH_UNIT (LENGTH_MEASURE( 1.000000000000000082E-05 ), #17, 'distance_accuracy_value', 'NONE');
#172 = MECHANICAL_DESIGN_GEOMETRIC_PRESENTATION_REPRESENTATION (  '', ( #149 ), #19 ) ;
#173 = CARTESIAN_POINT ( 'NONE',  ( 1.250000000000000000, 0.7500000000000000000, 1.199999999999999956 ) ) ;
#174 =( NAMED_UNIT ( * ) SI_UNIT ( $, .STERADIAN. ) SOLID_ANGLE_UNIT ( ) );
#175 = EDGE_CURVE ( 'NONE', #3, #191, #133, .T. ) ;
#176 = EDGE_LOOP ( 'NONE', ( #105, #153, #145, #122 ) ) ;
#177 = MANIFOLD_SOLID_BREP ( 'Body015[1]', #102 ) ;
#178 = VERTEX_POINT ( 'NONE', #48 ) ;
#179 = ORIENTED_EDGE ( 'NONE', *, *, #50, .F. ) ;
#180 = ADVANCED_BREP_SHAPE_REPRESENTATION ( 'Body015.step', ( #177, #114 ), #118 ) ;
#181 = CARTESIAN_POINT ( 'NONE',  ( 1.250000000000000000, -0.7500000000000000000, 0.000000000000000000 ) ) ;
#182 = ORIENTED_EDGE ( 'NONE', *, *, #148, .T. ) ;
#183 = FILL_AREA_STYLE_COLOUR ( '', #132 ) ;
#184 = FACE_OUTER_BOUND ( 'NONE', #21, .T. ) ;
#185 = DIRECTION ( 'NONE',  ( 1.000000000000000000, 0.000000000000000000, 0.000000000000000000 ) ) ;
#186 = SURFACE_SIDE_STYLE ('',( #52 ) ) ;
#187 = PRODUCT_DEFINITION_FORMATION_WITH_SPECIFIED_SOURCE ( 'Symmetric', '', #35, .NOT_KNOWN. ) ;
#188 = ADVANCED_FACE ( 'NONE', ( #184 ), #25, .T. ) ;
#189 = CARTESIAN_POINT ( 'NONE',  ( -1.250000000000000000, 0.7500000000000000000, 1.199999999999999956 ) ) ;
#190 = SHAPE_DEFINITION_REPRESENTATION ( #55, #180 ) ;
#191 = VERTEX_POINT ( 'NONE', #206 ) ;
#192 = CARTESIAN_POINT ( 'NONE',  ( -1.250000000000000000, -0.7500000000000000000, 0.000000000000000000 ) ) ;
#193 = ADVANCED_FACE ( 'NONE', ( #117 ), #222, .T. ) ;
#194 = PLANE ( 'NONE',  #92 ) ;
#195 = EDGE_LOOP ( 'NONE', ( #109, #233, #56, #219 ) ) ;
#196 = DIRECTION ( 'NONE',  ( 0.000000000000000000, 0.000000000000000000, 1.000000000000000000 ) ) ;
#197 = VECTOR ( 'NONE', #214, 1000.000000000000000 ) ;
#198 = DIRECTION ( 'NONE',  ( 0.000000000000000000, 0.000000000000000000, 1.000000000000000000 ) ) ;
#199 = APPLICATION_CONTEXT ( 'automotive_design' ) ;
#200 = LINE ( 'NONE', #43, #98 ) ;
#201 = CARTESIAN_POINT ( 'NONE',  ( 0.000000000000000000, 0.000000000000000000, 0.000000000000000000 ) ) ;
#202 = PRESENTATION_LAYER_ASSIGNMENT (  '', '', ( #138 ) ) ;
#203 = CARTESIAN_POINT ( 'NONE',  ( -1.050000000000000044, -0.7500000000000000000, 1.199999999999999956 ) ) ;
#204 = SURFACE_SIDE_STYLE ('',( #77 ) ) ;
#205 = EDGE_CURVE ( 'NONE', #20, #91, #200, .T. ) ;
#206 = CARTESIAN_POINT ( 'NONE',  ( -1.250000000000000000, 0.7500000000000000000, 0.000000000000000000 ) ) ;
#207 = VECTOR ( 'NONE', #103, 1000.000000000000000 ) ;
#208 = DIRECTION ( 'NONE',  ( 0.000000000000000000, 0.000000000000000000, 1.000000000000000000 ) ) ;
#209 = EDGE_LOOP ( 'NONE', ( #151, #170, #182, #84 ) ) ;
#210 =( NAMED_UNIT ( * ) PLANE_ANGLE_UNIT ( ) SI_UNIT ( $, .RADIAN. ) );
#211 = PRODUCT_DEFINITION ( 'General', '', #187, #5 ) ;
#212 = AXIS2_PLACEMENT_3D ( 'NONE', #28, #13, #82 ) ;
#213 = ADVANCED_FACE ( 'NONE', ( #146 ), #131, .F. ) ;
#214 = DIRECTION ( 'NONE',  ( 0.000000000000000000, 0.000000000000000000, 1.000000000000000000 ) ) ;
#215 = LINE ( 'NONE', #38, #81 ) ;
#216 = VECTOR ( 'NONE', #18, 1000.000000000000000 ) ;
#217 = UNCERTAINTY_MEASURE_WITH_UNIT (LENGTH_MEASURE( 1.000000000000000082E-05 ), #136, 'distance_accuracy_value', 'NONE');
#218 = VERTEX_POINT ( 'NONE', #106 ) ;
#219 = ORIENTED_EDGE ( 'NONE', *, *, #231, .F. ) ;
#220 = EDGE_CURVE ( 'NONE', #191, #91, #70, .T. ) ;
#221 = VERTEX_POINT ( 'NONE', #228 ) ;
#222 = PLANE ( 'NONE',  #10 ) ;
#223 = DIRECTION ( 'NONE',  ( 0.000000000000000000, 1.000000000000000000, 0.000000000000000000 ) ) ;
#224 = VECTOR ( 'NONE', #45, 1000.000000000000000 ) ;
#225 = CARTESIAN_POINT ( 'NONE',  ( -1.250000000000000000, -0.7500000000000000000, 0.000000000000000000 ) ) ;
#226 = EDGE_CURVE ( 'NONE', #143, #218, #69, .T. ) ;
#227 = DIRECTION ( 'NONE',  ( 0.7071067811865474617, 0.000000000000000000, 0.7071067811865474617 ) ) ;
#228 = CARTESIAN_POINT ( 'NONE',  ( 1.250000000000000000, -0.7500000000000000000, 1.199999999999999956 ) ) ;
#229 =( GEOMETRIC_REPRESENTATION_CONTEXT ( 3 ) GLOBAL_UNCERTAINTY_ASSIGNED_CONTEXT ( ( #217 ) ) GLOBAL_UNIT_ASSIGNED_CONTEXT ( ( #136, #32, #121 ) ) REPRESENTATION_CONTEXT ( 'NONE', 'WORKASPACE' ) );
#230 = AXIS2_PLACEMENT_3D ( 'NONE', #22, #142, #198 ) ;
#231 = EDGE_CURVE ( 'NONE', #218, #221, #88, .T. ) ;
#232 = DIRECTION ( 'NONE',  ( 1.000000000000000000, 0.000000000000000000, 0.000000000000000000 ) ) ;
#233 = ORIENTED_EDGE ( 'NONE', *, *, #83, .F. ) ;
#234 = VECTOR ( 'NONE', #101, 1000.000000000000000 ) ;
#235 = ORIENTED_EDGE ( 'NONE', *, *, #154, .F. ) ;
ENDSEC;
END-ISO-10303-21;
