ISO-10303-21;
HEADER;
FILE_DESCRIPTION (( 'STEP AP214' ),
    '1' );
FILE_NAME ('Body001 (Mirror #1)003.step.STEP',
    '2026-01-08T13:34:34',
    ( '' ),
    ( '' ),
    'SwSTEP 2.0',
    'SolidWorks 2025',
    '' );
FILE_SCHEMA (( 'AUTOMOTIVE_DESIGN' ));
ENDSEC;

DATA;
#1 = ADVANCED_FACE ( 'NONE', ( #166 ), #99, .T. ) ;
#2 = CARTESIAN_POINT ( 'NONE',  ( -0.5999999999999999778, 0.4000000000000000222, 0.000000000000000000 ) ) ;
#3 = CARTESIAN_POINT ( 'NONE',  ( -0.5999999999999999778, -0.4000000000000000222, 0.000000000000000000 ) ) ;
#4 = VERTEX_POINT ( 'NONE', #129 ) ;
#5 = LINE ( 'NONE', #144, #94 ) ;
#6 = CARTESIAN_POINT ( 'NONE',  ( -0.5999999999999999778, 0.4000000000000000222, 0.000000000000000000 ) ) ;
#7 = DIRECTION ( 'NONE',  ( 0.000000000000000000, -1.000000000000000000, 0.000000000000000000 ) ) ;
#8 = LINE ( 'NONE', #58, #167 ) ;
#9 = CARTESIAN_POINT ( 'NONE',  ( -0.8000000000000000444, 0.4000000000000000222, 0.000000000000000000 ) ) ;
#10 = LINE ( 'NONE', #90, #45 ) ;
#11 = VECTOR ( 'NONE', #191, 1000.000000000000000 ) ;
#12 = ADVANCED_FACE ( 'NONE', ( #97 ), #110, .T. ) ;
#13 = ORIENTED_EDGE ( 'NONE', *, *, #113, .T. ) ;
#14 = DIRECTION ( 'NONE',  ( 1.000000000000000000, 0.000000000000000000, 0.000000000000000000 ) ) ;
#15 = UNCERTAINTY_MEASURE_WITH_UNIT (LENGTH_MEASURE( 1.000000000000000082E-05 ), #173, 'distance_accuracy_value', 'NONE');
#16 = PRODUCT_DEFINITION_SHAPE ( 'NONE', 'NONE',  #196 ) ;
#17 = FILL_AREA_STYLE ('',( #188 ) ) ;
#18 = ORIENTED_EDGE ( 'NONE', *, *, #75, .T. ) ;
#19 = LINE ( 'NONE', #2, #161 ) ;
#20 = APPLICATION_CONTEXT ( 'automotive_design' ) ;
#21 = AXIS2_PLACEMENT_3D ( 'NONE', #96, #165, #145 ) ;
#22 = VERTEX_POINT ( 'NONE', #3 ) ;
#23 = DIRECTION ( 'NONE',  ( 0.000000000000000000, 1.000000000000000000, 0.000000000000000000 ) ) ;
#24 = LINE ( 'NONE', #89, #49 ) ;
#25 = DIRECTION ( 'NONE',  ( 0.000000000000000000, 0.000000000000000000, 1.000000000000000000 ) ) ;
#26 = ADVANCED_FACE ( 'NONE', ( #146 ), #124, .F. ) ;
#27 = CARTESIAN_POINT ( 'NONE',  ( -0.8000000000000000444, 0.4000000000000000222, 0.000000000000000000 ) ) ;
#28 = CARTESIAN_POINT ( 'NONE',  ( -0.8000000000000000444, 0.4000000000000000222, 0.5000000000000000000 ) ) ;
#29 = DIRECTION ( 'NONE',  ( 0.000000000000000000, 0.000000000000000000, 1.000000000000000000 ) ) ;
#30 = APPLICATION_CONTEXT ( 'automotive_design' ) ;
#31 = MANIFOLD_SOLID_BREP ( 'Body001 (Mirror #1)003[1]', #70 ) ;
#32 = AXIS2_PLACEMENT_3D ( 'NONE', #87, #102, #170 ) ;
#33 = ORIENTED_EDGE ( 'NONE', *, *, #56, .T. ) ;
#34 = ORIENTED_EDGE ( 'NONE', *, *, #105, .F. ) ;
#35 = ORIENTED_EDGE ( 'NONE', *, *, #157, .F. ) ;
#36 = SURFACE_STYLE_USAGE ( .BOTH. , #37 ) ;
#37 = SURFACE_SIDE_STYLE ('',( #177 ) ) ;
#38 = LINE ( 'NONE', #6, #202 ) ;
#39 = DIRECTION ( 'NONE',  ( -1.000000000000000000, 0.000000000000000000, 0.000000000000000000 ) ) ;
#40 = CARTESIAN_POINT ( 'NONE',  ( -0.5999999999999999778, 0.4000000000000000222, 0.000000000000000000 ) ) ;
#41 = CARTESIAN_POINT ( 'NONE',  ( -0.6999999999999999556, 0.000000000000000000, 0.5000000000000000000 ) ) ;
#42 = DIRECTION ( 'NONE',  ( 1.000000000000000000, 0.000000000000000000, 0.000000000000000000 ) ) ;
#43 =( NAMED_UNIT ( * ) SI_UNIT ( $, .STERADIAN. ) SOLID_ANGLE_UNIT ( ) );
#44 = EDGE_LOOP ( 'NONE', ( #106, #64, #35, #34 ) ) ;
#45 = VECTOR ( 'NONE', #181, 1000.000000000000000 ) ;
#46 = SURFACE_SIDE_STYLE ('',( #137 ) ) ;
#47 = EDGE_CURVE ( 'NONE', #22, #98, #5, .T. ) ;
#48 = EDGE_LOOP ( 'NONE', ( #33, #143, #53, #175 ) ) ;
#49 = VECTOR ( 'NONE', #86, 1000.000000000000000 ) ;
#50 = ORIENTED_EDGE ( 'NONE', *, *, #47, .T. ) ;
#51 = ORIENTED_EDGE ( 'NONE', *, *, #119, .F. ) ;
#52 = VECTOR ( 'NONE', #42, 1000.000000000000000 ) ;
#53 = ORIENTED_EDGE ( 'NONE', *, *, #119, .T. ) ;
#54 = APPLICATION_PROTOCOL_DEFINITION ( 'draft international standard', 'automotive_design', 1998, #30 ) ;
#55 = ORIENTED_EDGE ( 'NONE', *, *, #184, .T. ) ;
#56 = EDGE_CURVE ( 'NONE', #195, #78, #85, .T. ) ;
#57 = FACE_OUTER_BOUND ( 'NONE', #48, .T. ) ;
#58 = CARTESIAN_POINT ( 'NONE',  ( -0.8000000000000000444, 0.4000000000000000222, 0.5000000000000000000 ) ) ;
#59 =( NAMED_UNIT ( * ) PLANE_ANGLE_UNIT ( ) SI_UNIT ( $, .RADIAN. ) );
#60 = FACE_OUTER_BOUND ( 'NONE', #190, .T. ) ;
#61 = UNCERTAINTY_MEASURE_WITH_UNIT (LENGTH_MEASURE( 1.000000000000000082E-05 ), #130, 'distance_accuracy_value', 'NONE');
#62 = PRESENTATION_STYLE_ASSIGNMENT (( #189 ) ) ;
#63 = EDGE_LOOP ( 'NONE', ( #13, #50, #51, #82 ) ) ;
#64 = ORIENTED_EDGE ( 'NONE', *, *, #133, .T. ) ;
#65 = FILL_AREA_STYLE ('',( #66 ) ) ;
#66 = FILL_AREA_STYLE_COLOUR ( '', #107 ) ;
#67 = AXIS2_PLACEMENT_3D ( 'NONE', #164, #174, #125 ) ;
#68 = DIRECTION ( 'NONE',  ( 1.000000000000000000, 0.000000000000000000, 0.000000000000000000 ) ) ;
#69 = CARTESIAN_POINT ( 'NONE',  ( -0.8000000000000000444, -0.4000000000000000222, 0.5000000000000000000 ) ) ;
#70 = CLOSED_SHELL ( 'NONE', ( #152, #26, #1, #122, #12, #76 ) ) ;
#71 = LINE ( 'NONE', #169, #201 ) ;
#72 = LINE ( 'NONE', #9, #194 ) ;
#73 = CARTESIAN_POINT ( 'NONE',  ( -0.5999999999999999778, -0.4000000000000000222, 0.000000000000000000 ) ) ;
#74 =( GEOMETRIC_REPRESENTATION_CONTEXT ( 3 ) GLOBAL_UNCERTAINTY_ASSIGNED_CONTEXT ( ( #135 ) ) GLOBAL_UNIT_ASSIGNED_CONTEXT ( ( #93, #120, #43 ) ) REPRESENTATION_CONTEXT ( 'NONE', 'WORKASPACE' ) );
#75 = EDGE_CURVE ( 'NONE', #114, #4, #19, .T. ) ;
#76 = ADVANCED_FACE ( 'NONE', ( #60 ), #168, .T. ) ;
#77 = STYLED_ITEM ( 'NONE', ( #192 ), #31 ) ;
#78 = VERTEX_POINT ( 'NONE', #28 ) ;
#79 = EDGE_CURVE ( 'NONE', #98, #195, #10, .T. ) ;
#80 = ORIENTED_EDGE ( 'NONE', *, *, #105, .T. ) ;
#81 = EDGE_LOOP ( 'NONE', ( #159, #162, #83, #171 ) ) ;
#82 = ORIENTED_EDGE ( 'NONE', *, *, #133, .F. ) ;
#83 = ORIENTED_EDGE ( 'NONE', *, *, #141, .F. ) ;
#84 =( NAMED_UNIT ( * ) PLANE_ANGLE_UNIT ( ) SI_UNIT ( $, .RADIAN. ) );
#85 = LINE ( 'NONE', #109, #11 ) ;
#86 = DIRECTION ( 'NONE',  ( 1.000000000000000000, 0.000000000000000000, 0.000000000000000000 ) ) ;
#87 = CARTESIAN_POINT ( 'NONE',  ( -0.8000000000000000444, -0.4000000000000000222, 0.000000000000000000 ) ) ;
#88 = CARTESIAN_POINT ( 'NONE',  ( -0.5999999999999999778, 0.4000000000000000222, 0.000000000000000000 ) ) ;
#89 = CARTESIAN_POINT ( 'NONE',  ( -0.8000000000000000444, -0.4000000000000000222, 0.000000000000000000 ) ) ;
#90 = CARTESIAN_POINT ( 'NONE',  ( -0.5999999999999999778, -0.4000000000000000222, 0.5000000000000000000 ) ) ;
#91 = CARTESIAN_POINT ( 'NONE',  ( 0.000000000000000000, 0.000000000000000000, 0.000000000000000000 ) ) ;
#92 = ADVANCED_BREP_SHAPE_REPRESENTATION ( 'Body001 (Mirror #1)003.step', ( #31, #140 ), #180 ) ;
#93 =( LENGTH_UNIT ( ) NAMED_UNIT ( * ) SI_UNIT ( .MILLI., .METRE. ) );
#94 = VECTOR ( 'NONE', #178, 1000.000000000000000 ) ;
#95 = VERTEX_POINT ( 'NONE', #69 ) ;
#96 = CARTESIAN_POINT ( 'NONE',  ( -0.8000000000000000444, 0.4000000000000000222, 0.000000000000000000 ) ) ;
#97 = FACE_OUTER_BOUND ( 'NONE', #44, .T. ) ;
#98 = VERTEX_POINT ( 'NONE', #117 ) ;
#99 = PLANE ( 'NONE',  #187 ) ;
#100 =( NAMED_UNIT ( * ) SI_UNIT ( $, .STERADIAN. ) SOLID_ANGLE_UNIT ( ) );
#101 = PLANE ( 'NONE',  #32 ) ;
#102 = DIRECTION ( 'NONE',  ( 0.000000000000000000, -1.000000000000000000, 0.000000000000000000 ) ) ;
#103 = AXIS2_PLACEMENT_3D ( 'NONE', #41, #151, #115 ) ;
#104 = LINE ( 'NONE', #73, #121 ) ;
#105 = EDGE_CURVE ( 'NONE', #4, #78, #72, .T. ) ;
#106 = ORIENTED_EDGE ( 'NONE', *, *, #141, .T. ) ;
#107 = COLOUR_RGB ( '',0.9176470588235293713, 0.9176470588235293713, 0.9176470588235293713 ) ;
#108 = APPLICATION_PROTOCOL_DEFINITION ( 'draft international standard', 'automotive_design', 1998, #20 ) ;
#109 = CARTESIAN_POINT ( 'NONE',  ( -0.5999999999999999778, 0.4000000000000000222, 0.5000000000000000000 ) ) ;
#110 = PLANE ( 'NONE',  #21 ) ;
#111 = PRESENTATION_LAYER_ASSIGNMENT (  '', '', ( #176 ) ) ;
#112 = ORIENTED_EDGE ( 'NONE', *, *, #79, .F. ) ;
#113 = EDGE_CURVE ( 'NONE', #150, #22, #24, .T. ) ;
#114 = VERTEX_POINT ( 'NONE', #40 ) ;
#115 = DIRECTION ( 'NONE',  ( 1.000000000000000000, 0.000000000000000000, 0.000000000000000000 ) ) ;
#116 = DIRECTION ( 'NONE',  ( 1.000000000000000000, 0.000000000000000000, 0.000000000000000000 ) ) ;
#117 = CARTESIAN_POINT ( 'NONE',  ( -0.5999999999999999778, -0.4000000000000000222, 0.5000000000000000000 ) ) ;
#118 = DIRECTION ( 'NONE',  ( -0.000000000000000000, 1.000000000000000000, 0.000000000000000000 ) ) ;
#119 = EDGE_CURVE ( 'NONE', #95, #98, #197, .T. ) ;
#120 =( NAMED_UNIT ( * ) PLANE_ANGLE_UNIT ( ) SI_UNIT ( $, .RADIAN. ) );
#121 = VECTOR ( 'NONE', #153, 1000.000000000000000 ) ;
#122 = ADVANCED_FACE ( 'NONE', ( #182 ), #101, .T. ) ;
#123 = ORIENTED_EDGE ( 'NONE', *, *, #147, .T. ) ;
#124 = PLANE ( 'NONE',  #67 ) ;
#125 = DIRECTION ( 'NONE',  ( 1.000000000000000000, 0.000000000000000000, 0.000000000000000000 ) ) ;
#126 =( GEOMETRIC_REPRESENTATION_CONTEXT ( 3 ) GLOBAL_UNCERTAINTY_ASSIGNED_CONTEXT ( ( #15 ) ) GLOBAL_UNIT_ASSIGNED_CONTEXT ( ( #173, #84, #100 ) ) REPRESENTATION_CONTEXT ( 'NONE', 'WORKASPACE' ) );
#127 = PRODUCT_CONTEXT ( 'NONE', #20, 'mechanical' ) ;
#128 = EDGE_LOOP ( 'NONE', ( #123, #55, #112, #142 ) ) ;
#129 = CARTESIAN_POINT ( 'NONE',  ( -0.8000000000000000444, 0.4000000000000000222, 0.000000000000000000 ) ) ;
#130 =( LENGTH_UNIT ( ) NAMED_UNIT ( * ) SI_UNIT ( .MILLI., .METRE. ) );
#131 = AXIS2_PLACEMENT_3D ( 'NONE', #88, #118, #116 ) ;
#132 = CARTESIAN_POINT ( 'NONE',  ( -0.8000000000000000444, -0.4000000000000000222, 0.000000000000000000 ) ) ;
#133 = EDGE_CURVE ( 'NONE', #150, #95, #71, .T. ) ;
#134 = PLANE ( 'NONE',  #103 ) ;
#135 = UNCERTAINTY_MEASURE_WITH_UNIT (LENGTH_MEASURE( 1.000000000000000082E-05 ), #93, 'distance_accuracy_value', 'NONE');
#136 = MECHANICAL_DESIGN_GEOMETRIC_PRESENTATION_REPRESENTATION (  '', ( #77 ), #126 ) ;
#137 = SURFACE_STYLE_FILL_AREA ( #17 ) ;
#138 = ORIENTED_EDGE ( 'NONE', *, *, #56, .F. ) ;
#139 = PRODUCT_DEFINITION_CONTEXT ( 'detailed design', #30, 'design' ) ;
#140 = AXIS2_PLACEMENT_3D ( 'NONE', #91, #160, #14 ) ;
#141 = EDGE_CURVE ( 'NONE', #4, #150, #200, .T. ) ;
#142 = ORIENTED_EDGE ( 'NONE', *, *, #47, .F. ) ;
#143 = ORIENTED_EDGE ( 'NONE', *, *, #157, .T. ) ;
#144 = CARTESIAN_POINT ( 'NONE',  ( -0.5999999999999999778, -0.4000000000000000222, 0.000000000000000000 ) ) ;
#145 = DIRECTION ( 'NONE',  ( 0.000000000000000000, 0.000000000000000000, 1.000000000000000000 ) ) ;
#146 = FACE_OUTER_BOUND ( 'NONE', #81, .T. ) ;
#147 = EDGE_CURVE ( 'NONE', #22, #114, #104, .T. ) ;
#148 = CARTESIAN_POINT ( 'NONE',  ( -0.5999999999999999778, -0.4000000000000000222, 0.000000000000000000 ) ) ;
#149 = MECHANICAL_DESIGN_GEOMETRIC_PRESENTATION_REPRESENTATION (  '', ( #176 ), #74 ) ;
#150 = VERTEX_POINT ( 'NONE', #132 ) ;
#151 = DIRECTION ( 'NONE',  ( 0.000000000000000000, 0.000000000000000000, 1.000000000000000000 ) ) ;
#152 = ADVANCED_FACE ( 'NONE', ( #57 ), #134, .T. ) ;
#153 = DIRECTION ( 'NONE',  ( 0.000000000000000000, 1.000000000000000000, 0.000000000000000000 ) ) ;
#154 = COLOUR_RGB ( '',0.9176470588235293713, 0.9176470588235293713, 0.9176470588235293713 ) ;
#155 = DIRECTION ( 'NONE',  ( 0.000000000000000000, -1.000000000000000000, 0.000000000000000000 ) ) ;
#156 = CARTESIAN_POINT ( 'NONE',  ( -0.8000000000000000444, -0.4000000000000000222, 0.5000000000000000000 ) ) ;
#157 = EDGE_CURVE ( 'NONE', #78, #95, #8, .T. ) ;
#158 = CARTESIAN_POINT ( 'NONE',  ( -0.5999999999999999778, 0.4000000000000000222, 0.5000000000000000000 ) ) ;
#159 = ORIENTED_EDGE ( 'NONE', *, *, #147, .F. ) ;
#160 = DIRECTION ( 'NONE',  ( 0.000000000000000000, 0.000000000000000000, 1.000000000000000000 ) ) ;
#161 = VECTOR ( 'NONE', #39, 1000.000000000000000 ) ;
#162 = ORIENTED_EDGE ( 'NONE', *, *, #113, .F. ) ;
#163 = SHAPE_DEFINITION_REPRESENTATION ( #16, #92 ) ;
#164 = CARTESIAN_POINT ( 'NONE',  ( -0.6999999999999999556, 0.000000000000000000, 0.000000000000000000 ) ) ;
#165 = DIRECTION ( 'NONE',  ( -1.000000000000000000, 0.000000000000000000, 0.000000000000000000 ) ) ;
#166 = FACE_OUTER_BOUND ( 'NONE', #128, .T. ) ;
#167 = VECTOR ( 'NONE', #7, 1000.000000000000000 ) ;
#168 = PLANE ( 'NONE',  #131 ) ;
#169 = CARTESIAN_POINT ( 'NONE',  ( -0.8000000000000000444, -0.4000000000000000222, 0.000000000000000000 ) ) ;
#170 = DIRECTION ( 'NONE',  ( 0.000000000000000000, 0.000000000000000000, -1.000000000000000000 ) ) ;
#171 = ORIENTED_EDGE ( 'NONE', *, *, #75, .F. ) ;
#172 = PRODUCT_DEFINITION_FORMATION_WITH_SPECIFIED_SOURCE ( 'Symmetric', '', #186, .NOT_KNOWN. ) ;
#173 =( LENGTH_UNIT ( ) NAMED_UNIT ( * ) SI_UNIT ( .MILLI., .METRE. ) );
#174 = DIRECTION ( 'NONE',  ( 0.000000000000000000, 0.000000000000000000, 1.000000000000000000 ) ) ;
#175 = ORIENTED_EDGE ( 'NONE', *, *, #79, .T. ) ;
#176 = STYLED_ITEM ( 'NONE', ( #62 ), #92 ) ;
#177 = SURFACE_STYLE_FILL_AREA ( #65 ) ;
#178 = DIRECTION ( 'NONE',  ( 0.000000000000000000, 0.000000000000000000, 1.000000000000000000 ) ) ;
#179 = PRODUCT_RELATED_PRODUCT_CATEGORY ( 'part', '', ( #186 ) ) ;
#180 =( GEOMETRIC_REPRESENTATION_CONTEXT ( 3 ) GLOBAL_UNCERTAINTY_ASSIGNED_CONTEXT ( ( #61 ) ) GLOBAL_UNIT_ASSIGNED_CONTEXT ( ( #130, #59, #199 ) ) REPRESENTATION_CONTEXT ( 'NONE', 'WORKASPACE' ) );
#181 = DIRECTION ( 'NONE',  ( 0.000000000000000000, 1.000000000000000000, 0.000000000000000000 ) ) ;
#182 = FACE_OUTER_BOUND ( 'NONE', #63, .T. ) ;
#183 = PRESENTATION_LAYER_ASSIGNMENT (  '', '', ( #77 ) ) ;
#184 = EDGE_CURVE ( 'NONE', #114, #195, #38, .T. ) ;
#185 = DIRECTION ( 'NONE',  ( 0.000000000000000000, 0.000000000000000000, 1.000000000000000000 ) ) ;
#186 = PRODUCT ( 'Body001 (Mirror #1)003.step', 'Body001 (Mirror #1)003.step', '', ( #127 ) ) ;
#187 = AXIS2_PLACEMENT_3D ( 'NONE', #148, #68, #23 ) ;
#188 = FILL_AREA_STYLE_COLOUR ( '', #154 ) ;
#189 = SURFACE_STYLE_USAGE ( .BOTH. , #46 ) ;
#190 = EDGE_LOOP ( 'NONE', ( #18, #80, #138, #193 ) ) ;
#191 = DIRECTION ( 'NONE',  ( -1.000000000000000000, 0.000000000000000000, 0.000000000000000000 ) ) ;
#192 = PRESENTATION_STYLE_ASSIGNMENT (( #36 ) ) ;
#193 = ORIENTED_EDGE ( 'NONE', *, *, #184, .F. ) ;
#194 = VECTOR ( 'NONE', #25, 1000.000000000000000 ) ;
#195 = VERTEX_POINT ( 'NONE', #158 ) ;
#196 = PRODUCT_DEFINITION ( 'General', '', #172, #139 ) ;
#197 = LINE ( 'NONE', #156, #52 ) ;
#198 = VECTOR ( 'NONE', #155, 1000.000000000000000 ) ;
#199 =( NAMED_UNIT ( * ) SI_UNIT ( $, .STERADIAN. ) SOLID_ANGLE_UNIT ( ) );
#200 = LINE ( 'NONE', #27, #198 ) ;
#201 = VECTOR ( 'NONE', #185, 1000.000000000000000 ) ;
#202 = VECTOR ( 'NONE', #29, 1000.000000000000000 ) ;
ENDSEC;
END-ISO-10303-21;
