ISO-10303-21;
HEADER;
FILE_DESCRIPTION (( 'STEP AP214' ),
    '1' );
FILE_NAME ('Body005.step.STEP',
    '2026-01-08T13:34:34',
    ( '' ),
    ( '' ),
    'SwSTEP 2.0',
    'SolidWorks 2025',
    '' );
FILE_SCHEMA (( 'AUTOMOTIVE_DESIGN' ));
ENDSEC;

DATA;
#1 = CARTESIAN_POINT ( 'NONE',  ( -0.5000000000000000000, -6.123233995736766036E-17, 0.8000000000000000444 ) ) ;
#2 = VERTEX_POINT ( 'NONE', #1 ) ;
#3 = AXIS2_PLACEMENT_3D ( 'NONE', #188, #56, #24 ) ;
#4 = VERTEX_POINT ( 'NONE', #38 ) ;
#5 = VERTEX_POINT ( 'NONE', #81 ) ;
#6 = CARTESIAN_POINT ( 'NONE',  ( 0.000000000000000000, 0.000000000000000000, -0.8000000000000000444 ) ) ;
#7 = AXIS2_PLACEMENT_3D ( 'NONE', #6, #35, #94 ) ;
#8 = CARTESIAN_POINT ( 'NONE',  ( 0.000000000000000000, 0.000000000000000000, -0.8000000000000000444 ) ) ;
#9 = LINE ( 'NONE', #185, #141 ) ;
#10 = CARTESIAN_POINT ( 'NONE',  ( 0.000000000000000000, 0.000000000000000000, 0.8000000000000000444 ) ) ;
#11 = EDGE_CURVE ( 'NONE', #98, #200, #23, .T. ) ;
#12 = CARTESIAN_POINT ( 'NONE',  ( -0.2500000000000000000, -3.061616997868383018E-17, 0.8000000000000000444 ) ) ;
#13 = PLANE ( 'NONE',  #19 ) ;
#14 = CIRCLE ( 'NONE', #112, 0.2500000000000000000 ) ;
#15 = DIRECTION ( 'NONE',  ( 0.000000000000000000, 0.000000000000000000, 1.000000000000000000 ) ) ;
#16 = ORIENTED_EDGE ( 'NONE', *, *, #11, .F. ) ;
#17 = EDGE_CURVE ( 'NONE', #21, #202, #148, .T. ) ;
#18 = EDGE_LOOP ( 'NONE', ( #100, #99 ) ) ;
#19 = AXIS2_PLACEMENT_3D ( 'NONE', #139, #89, #209 ) ;
#20 = EDGE_LOOP ( 'NONE', ( #113, #166, #97, #131 ) ) ;
#21 = VERTEX_POINT ( 'NONE', #129 ) ;
#22 = DIRECTION ( 'NONE',  ( 1.000000000000000000, 0.000000000000000000, 0.000000000000000000 ) ) ;
#23 = CIRCLE ( 'NONE', #7, 0.5000000000000000000 ) ;
#24 = DIRECTION ( 'NONE',  ( 1.000000000000000000, 0.000000000000000000, 0.000000000000000000 ) ) ;
#25 = DIRECTION ( 'NONE',  ( 0.000000000000000000, 0.000000000000000000, -1.000000000000000000 ) ) ;
#26 = DIRECTION ( 'NONE',  ( 1.000000000000000000, 0.000000000000000000, 0.000000000000000000 ) ) ;
#27 = AXIS2_PLACEMENT_3D ( 'NONE', #110, #178, #111 ) ;
#28 = FILL_AREA_STYLE ('',( #174 ) ) ;
#29 = EDGE_CURVE ( 'NONE', #4, #98, #196, .T. ) ;
#30 = DIRECTION ( 'NONE',  ( 1.000000000000000000, 0.000000000000000000, 0.000000000000000000 ) ) ;
#31 = UNCERTAINTY_MEASURE_WITH_UNIT (LENGTH_MEASURE( 1.000000000000000082E-05 ), #134, 'distance_accuracy_value', 'NONE');
#32 = FACE_OUTER_BOUND ( 'NONE', #66, .T. ) ;
#33 = PRODUCT_CONTEXT ( 'NONE', #103, 'mechanical' ) ;
#34 = STYLED_ITEM ( 'NONE', ( #68 ), #95 ) ;
#35 = DIRECTION ( 'NONE',  ( 0.000000000000000000, 0.000000000000000000, 1.000000000000000000 ) ) ;
#36 = ORIENTED_EDGE ( 'NONE', *, *, #117, .T. ) ;
#37 = EDGE_LOOP ( 'NONE', ( #144, #79 ) ) ;
#38 = CARTESIAN_POINT ( 'NONE',  ( 0.5000000000000000000, 0.000000000000000000, 0.8000000000000000444 ) ) ;
#39 = COLOUR_RGB ( '',0.9137254901960784048, 0.9137254901960784048, 0.9137254901960784048 ) ;
#40 = ADVANCED_FACE ( 'NONE', ( #149 ), #106, .T. ) ;
#41 = DIRECTION ( 'NONE',  ( 0.000000000000000000, 0.000000000000000000, -1.000000000000000000 ) ) ;
#42 = LINE ( 'NONE', #121, #63 ) ;
#43 = CYLINDRICAL_SURFACE ( 'NONE', #169, 0.2500000000000000000 ) ;
#44 = DIRECTION ( 'NONE',  ( 1.000000000000000000, 0.000000000000000000, 0.000000000000000000 ) ) ;
#45 = STYLED_ITEM ( 'NONE', ( #192 ), #50 ) ;
#46 = PLANE ( 'NONE',  #87 ) ;
#47 = DIRECTION ( 'NONE',  ( 0.000000000000000000, 0.000000000000000000, -1.000000000000000000 ) ) ;
#48 = DIRECTION ( 'NONE',  ( 0.000000000000000000, 0.000000000000000000, 1.000000000000000000 ) ) ;
#49 = PRODUCT ( 'Body005.step', 'Body005.step', '', ( #33 ) ) ;
#50 = ADVANCED_BREP_SHAPE_REPRESENTATION ( 'Body005.step', ( #95, #27 ), #75 ) ;
#51 = VERTEX_POINT ( 'NONE', #55 ) ;
#52 = ORIENTED_EDGE ( 'NONE', *, *, #207, .F. ) ;
#53 = ORIENTED_EDGE ( 'NONE', *, *, #127, .T. ) ;
#54 = COLOUR_RGB ( '',0.9137254901960784048, 0.9137254901960784048, 0.9137254901960784048 ) ;
#55 = CARTESIAN_POINT ( 'NONE',  ( 0.2500000000000000000, 0.000000000000000000, -0.8000000000000000444 ) ) ;
#56 = DIRECTION ( 'NONE',  ( 0.000000000000000000, 0.000000000000000000, -1.000000000000000000 ) ) ;
#57 = ADVANCED_FACE ( 'NONE', ( #208 ), #102, .T. ) ;
#58 = CARTESIAN_POINT ( 'NONE',  ( 0.000000000000000000, 0.000000000000000000, -0.8000000000000000444 ) ) ;
#59 = CIRCLE ( 'NONE', #65, 0.5000000000000000000 ) ;
#60 = FACE_BOUND ( 'NONE', #18, .T. ) ;
#61 = CARTESIAN_POINT ( 'NONE',  ( 0.000000000000000000, 0.000000000000000000, -0.8000000000000000444 ) ) ;
#62 =( NAMED_UNIT ( * ) SI_UNIT ( $, .STERADIAN. ) SOLID_ANGLE_UNIT ( ) );
#63 = VECTOR ( 'NONE', #25, 1000.000000000000000 ) ;
#64 = ORIENTED_EDGE ( 'NONE', *, *, #74, .T. ) ;
#65 = AXIS2_PLACEMENT_3D ( 'NONE', #71, #119, #123 ) ;
#66 = EDGE_LOOP ( 'NONE', ( #16, #145 ) ) ;
#67 = EDGE_CURVE ( 'NONE', #2, #4, #59, .T. ) ;
#68 = PRESENTATION_STYLE_ASSIGNMENT (( #204 ) ) ;
#69 = AXIS2_PLACEMENT_3D ( 'NONE', #137, #84, #206 ) ;
#70 = CARTESIAN_POINT ( 'NONE',  ( 0.5000000000000000000, 0.000000000000000000, -0.8000000000000000444 ) ) ;
#71 = CARTESIAN_POINT ( 'NONE',  ( 0.000000000000000000, 0.000000000000000000, 0.8000000000000000444 ) ) ;
#72 =( NAMED_UNIT ( * ) PLANE_ANGLE_UNIT ( ) SI_UNIT ( $, .RADIAN. ) );
#73 = DIRECTION ( 'NONE',  ( 1.000000000000000000, 0.000000000000000000, 0.000000000000000000 ) ) ;
#74 = EDGE_CURVE ( 'NONE', #200, #98, #184, .T. ) ;
#75 =( GEOMETRIC_REPRESENTATION_CONTEXT ( 3 ) GLOBAL_UNCERTAINTY_ASSIGNED_CONTEXT ( ( #96 ) ) GLOBAL_UNIT_ASSIGNED_CONTEXT ( ( #108, #175, #62 ) ) REPRESENTATION_CONTEXT ( 'NONE', 'WORKASPACE' ) );
#76 = SHAPE_DEFINITION_REPRESENTATION ( #92, #50 ) ;
#77 = DIRECTION ( 'NONE',  ( 1.000000000000000000, 0.000000000000000000, 0.000000000000000000 ) ) ;
#78 = CIRCLE ( 'NONE', #90, 0.5000000000000000000 ) ;
#79 = ORIENTED_EDGE ( 'NONE', *, *, #207, .T. ) ;
#80 = ORIENTED_EDGE ( 'NONE', *, *, #186, .T. ) ;
#81 = CARTESIAN_POINT ( 'NONE',  ( -0.2500000000000000000, -3.061616997868383018E-17, -0.8000000000000000444 ) ) ;
#82 =( GEOMETRIC_REPRESENTATION_CONTEXT ( 3 ) GLOBAL_UNCERTAINTY_ASSIGNED_CONTEXT ( ( #31 ) ) GLOBAL_UNIT_ASSIGNED_CONTEXT ( ( #134, #72, #152 ) ) REPRESENTATION_CONTEXT ( 'NONE', 'WORKASPACE' ) );
#83 = DIRECTION ( 'NONE',  ( 0.000000000000000000, 0.000000000000000000, 1.000000000000000000 ) ) ;
#84 = DIRECTION ( 'NONE',  ( 0.000000000000000000, 0.000000000000000000, 1.000000000000000000 ) ) ;
#85 = DIRECTION ( 'NONE',  ( 1.000000000000000000, 0.000000000000000000, 0.000000000000000000 ) ) ;
#86 = ADVANCED_FACE ( 'NONE', ( #155 ), #170, .F. ) ;
#87 = AXIS2_PLACEMENT_3D ( 'NONE', #91, #48, #30 ) ;
#88 = DIRECTION ( 'NONE',  ( 0.000000000000000000, 0.000000000000000000, -1.000000000000000000 ) ) ;
#89 = DIRECTION ( 'NONE',  ( 0.000000000000000000, 0.000000000000000000, 1.000000000000000000 ) ) ;
#90 = AXIS2_PLACEMENT_3D ( 'NONE', #10, #135, #44 ) ;
#91 = CARTESIAN_POINT ( 'NONE',  ( -2.848833609457000171E-17, 6.369813900927999972E-19, 0.8000000000000000444 ) ) ;
#92 = PRODUCT_DEFINITION_SHAPE ( 'NONE', 'NONE',  #167 ) ;
#93 = CARTESIAN_POINT ( 'NONE',  ( -0.5000000000000000000, -6.123233995736766036E-17, -0.8000000000000000444 ) ) ;
#94 = DIRECTION ( 'NONE',  ( 1.000000000000000000, 0.000000000000000000, 0.000000000000000000 ) ) ;
#95 = MANIFOLD_SOLID_BREP ( 'Body005[1]', #160 ) ;
#96 = UNCERTAINTY_MEASURE_WITH_UNIT (LENGTH_MEASURE( 1.000000000000000082E-05 ), #108, 'distance_accuracy_value', 'NONE');
#97 = ORIENTED_EDGE ( 'NONE', *, *, #29, .T. ) ;
#98 = VERTEX_POINT ( 'NONE', #70 ) ;
#99 = ORIENTED_EDGE ( 'NONE', *, *, #127, .F. ) ;
#100 = ORIENTED_EDGE ( 'NONE', *, *, #17, .F. ) ;
#101 = CARTESIAN_POINT ( 'NONE',  ( 0.000000000000000000, 0.000000000000000000, -0.8000000000000000444 ) ) ;
#102 = CYLINDRICAL_SURFACE ( 'NONE', #3, 0.5000000000000000000 ) ;
#103 = APPLICATION_CONTEXT ( 'automotive_design' ) ;
#104 = CARTESIAN_POINT ( 'NONE',  ( 0.000000000000000000, 0.000000000000000000, -0.8000000000000000444 ) ) ;
#105 = EDGE_CURVE ( 'NONE', #4, #2, #78, .T. ) ;
#106 = CYLINDRICAL_SURFACE ( 'NONE', #133, 0.5000000000000000000 ) ;
#107 =( NAMED_UNIT ( * ) PLANE_ANGLE_UNIT ( ) SI_UNIT ( $, .RADIAN. ) );
#108 =( LENGTH_UNIT ( ) NAMED_UNIT ( * ) SI_UNIT ( .MILLI., .METRE. ) );
#109 = CIRCLE ( 'NONE', #69, 0.2500000000000000000 ) ;
#110 = CARTESIAN_POINT ( 'NONE',  ( 0.000000000000000000, 0.000000000000000000, 0.000000000000000000 ) ) ;
#111 = DIRECTION ( 'NONE',  ( 1.000000000000000000, 0.000000000000000000, 0.000000000000000000 ) ) ;
#112 = AXIS2_PLACEMENT_3D ( 'NONE', #58, #122, #73 ) ;
#113 = ORIENTED_EDGE ( 'NONE', *, *, #117, .F. ) ;
#114 = ORIENTED_EDGE ( 'NONE', *, *, #186, .F. ) ;
#115 =( GEOMETRIC_REPRESENTATION_CONTEXT ( 3 ) GLOBAL_UNCERTAINTY_ASSIGNED_CONTEXT ( ( #198 ) ) GLOBAL_UNIT_ASSIGNED_CONTEXT ( ( #212, #107, #194 ) ) REPRESENTATION_CONTEXT ( 'NONE', 'WORKASPACE' ) );
#116 = EDGE_LOOP ( 'NONE', ( #146, #36, #64, #199 ) ) ;
#117 = EDGE_CURVE ( 'NONE', #2, #200, #9, .T. ) ;
#118 = SURFACE_SIDE_STYLE ('',( #168 ) ) ;
#119 = DIRECTION ( 'NONE',  ( 0.000000000000000000, 0.000000000000000000, 1.000000000000000000 ) ) ;
#120 = APPLICATION_CONTEXT ( 'automotive_design' ) ;
#121 = CARTESIAN_POINT ( 'NONE',  ( 0.2500000000000000000, 0.000000000000000000, -0.8000000000000000444 ) ) ;
#122 = DIRECTION ( 'NONE',  ( 0.000000000000000000, 0.000000000000000000, 1.000000000000000000 ) ) ;
#123 = DIRECTION ( 'NONE',  ( 1.000000000000000000, 0.000000000000000000, 0.000000000000000000 ) ) ;
#124 = EDGE_CURVE ( 'NONE', #21, #51, #42, .T. ) ;
#125 = PRODUCT_DEFINITION_CONTEXT ( 'detailed design', #120, 'design' ) ;
#126 = SURFACE_STYLE_FILL_AREA ( #142 ) ;
#127 = EDGE_CURVE ( 'NONE', #202, #21, #109, .T. ) ;
#128 = ORIENTED_EDGE ( 'NONE', *, *, #17, .T. ) ;
#129 = CARTESIAN_POINT ( 'NONE',  ( 0.2500000000000000000, 0.000000000000000000, 0.8000000000000000444 ) ) ;
#130 = PRESENTATION_LAYER_ASSIGNMENT (  '', '', ( #45 ) ) ;
#131 = ORIENTED_EDGE ( 'NONE', *, *, #11, .T. ) ;
#132 = ORIENTED_EDGE ( 'NONE', *, *, #124, .T. ) ;
#133 = AXIS2_PLACEMENT_3D ( 'NONE', #101, #41, #85 ) ;
#134 =( LENGTH_UNIT ( ) NAMED_UNIT ( * ) SI_UNIT ( .MILLI., .METRE. ) );
#135 = DIRECTION ( 'NONE',  ( 0.000000000000000000, 0.000000000000000000, 1.000000000000000000 ) ) ;
#136 = AXIS2_PLACEMENT_3D ( 'NONE', #61, #210, #158 ) ;
#137 = CARTESIAN_POINT ( 'NONE',  ( 0.000000000000000000, 0.000000000000000000, 0.8000000000000000444 ) ) ;
#138 = LINE ( 'NONE', #191, #153 ) ;
#139 = CARTESIAN_POINT ( 'NONE',  ( -2.848833609457000171E-17, 6.369813900927999972E-19, -0.8000000000000000444 ) ) ;
#140 = FILL_AREA_STYLE_COLOUR ( '', #54 ) ;
#141 = VECTOR ( 'NONE', #171, 1000.000000000000000 ) ;
#142 = FILL_AREA_STYLE ('',( #140 ) ) ;
#143 = PRODUCT_DEFINITION_FORMATION_WITH_SPECIFIED_SOURCE ( 'Symmetric', '', #49, .NOT_KNOWN. ) ;
#144 = ORIENTED_EDGE ( 'NONE', *, *, #159, .T. ) ;
#145 = ORIENTED_EDGE ( 'NONE', *, *, #74, .F. ) ;
#146 = ORIENTED_EDGE ( 'NONE', *, *, #67, .F. ) ;
#147 = EDGE_LOOP ( 'NONE', ( #164, #182 ) ) ;
#148 = CIRCLE ( 'NONE', #197, 0.2500000000000000000 ) ;
#149 = FACE_OUTER_BOUND ( 'NONE', #116, .T. ) ;
#150 = DIRECTION ( 'NONE',  ( 0.000000000000000000, 0.000000000000000000, -1.000000000000000000 ) ) ;
#151 = PRODUCT_RELATED_PRODUCT_CATEGORY ( 'part', '', ( #49 ) ) ;
#152 =( NAMED_UNIT ( * ) SI_UNIT ( $, .STERADIAN. ) SOLID_ANGLE_UNIT ( ) );
#153 = VECTOR ( 'NONE', #47, 1000.000000000000000 ) ;
#154 = DIRECTION ( 'NONE',  ( 1.000000000000000000, 0.000000000000000000, 0.000000000000000000 ) ) ;
#155 = FACE_OUTER_BOUND ( 'NONE', #183, .T. ) ;
#156 = SURFACE_STYLE_USAGE ( .BOTH. , #213 ) ;
#157 = FACE_BOUND ( 'NONE', #37, .T. ) ;
#158 = DIRECTION ( 'NONE',  ( 1.000000000000000000, 0.000000000000000000, 0.000000000000000000 ) ) ;
#159 = EDGE_CURVE ( 'NONE', #51, #5, #14, .T. ) ;
#160 = CLOSED_SHELL ( 'NONE', ( #40, #177, #201, #193, #86, #57 ) ) ;
#161 = CARTESIAN_POINT ( 'NONE',  ( 0.000000000000000000, 0.000000000000000000, 0.8000000000000000444 ) ) ;
#162 = EDGE_LOOP ( 'NONE', ( #128, #80, #195, #180 ) ) ;
#163 = APPLICATION_PROTOCOL_DEFINITION ( 'draft international standard', 'automotive_design', 1998, #120 ) ;
#164 = ORIENTED_EDGE ( 'NONE', *, *, #105, .T. ) ;
#165 = AXIS2_PLACEMENT_3D ( 'NONE', #8, #150, #26 ) ;
#166 = ORIENTED_EDGE ( 'NONE', *, *, #105, .F. ) ;
#167 = PRODUCT_DEFINITION ( 'General', '', #143, #125 ) ;
#168 = SURFACE_STYLE_FILL_AREA ( #28 ) ;
#169 = AXIS2_PLACEMENT_3D ( 'NONE', #104, #172, #154 ) ;
#170 = CYLINDRICAL_SURFACE ( 'NONE', #165, 0.2500000000000000000 ) ;
#171 = DIRECTION ( 'NONE',  ( 0.000000000000000000, 0.000000000000000000, -1.000000000000000000 ) ) ;
#172 = DIRECTION ( 'NONE',  ( 0.000000000000000000, 0.000000000000000000, -1.000000000000000000 ) ) ;
#173 = AXIS2_PLACEMENT_3D ( 'NONE', #205, #83, #22 ) ;
#174 = FILL_AREA_STYLE_COLOUR ( '', #39 ) ;
#175 =( NAMED_UNIT ( * ) PLANE_ANGLE_UNIT ( ) SI_UNIT ( $, .RADIAN. ) );
#176 = PRESENTATION_LAYER_ASSIGNMENT (  '', '', ( #34 ) ) ;
#177 = ADVANCED_FACE ( 'NONE', ( #189 ), #43, .F. ) ;
#178 = DIRECTION ( 'NONE',  ( 0.000000000000000000, 0.000000000000000000, 1.000000000000000000 ) ) ;
#179 = APPLICATION_PROTOCOL_DEFINITION ( 'draft international standard', 'automotive_design', 1998, #103 ) ;
#180 = ORIENTED_EDGE ( 'NONE', *, *, #124, .F. ) ;
#181 = CIRCLE ( 'NONE', #136, 0.2500000000000000000 ) ;
#182 = ORIENTED_EDGE ( 'NONE', *, *, #67, .T. ) ;
#183 = EDGE_LOOP ( 'NONE', ( #114, #53, #132, #52 ) ) ;
#184 = CIRCLE ( 'NONE', #173, 0.5000000000000000000 ) ;
#185 = CARTESIAN_POINT ( 'NONE',  ( -0.5000000000000000000, -6.123233995736766036E-17, -0.8000000000000000444 ) ) ;
#186 = EDGE_CURVE ( 'NONE', #202, #5, #138, .T. ) ;
#187 = MECHANICAL_DESIGN_GEOMETRIC_PRESENTATION_REPRESENTATION (  '', ( #34 ), #82 ) ;
#188 = CARTESIAN_POINT ( 'NONE',  ( 0.000000000000000000, 0.000000000000000000, -0.8000000000000000444 ) ) ;
#189 = FACE_OUTER_BOUND ( 'NONE', #162, .T. ) ;
#190 = MECHANICAL_DESIGN_GEOMETRIC_PRESENTATION_REPRESENTATION (  '', ( #45 ), #115 ) ;
#191 = CARTESIAN_POINT ( 'NONE',  ( -0.2500000000000000000, -3.061616997868383018E-17, -0.8000000000000000444 ) ) ;
#192 = PRESENTATION_STYLE_ASSIGNMENT (( #156 ) ) ;
#193 = ADVANCED_FACE ( 'NONE', ( #157, #32 ), #13, .F. ) ;
#194 =( NAMED_UNIT ( * ) SI_UNIT ( $, .STERADIAN. ) SOLID_ANGLE_UNIT ( ) );
#195 = ORIENTED_EDGE ( 'NONE', *, *, #159, .F. ) ;
#196 = LINE ( 'NONE', #203, #214 ) ;
#197 = AXIS2_PLACEMENT_3D ( 'NONE', #161, #15, #77 ) ;
#198 = UNCERTAINTY_MEASURE_WITH_UNIT (LENGTH_MEASURE( 1.000000000000000082E-05 ), #212, 'distance_accuracy_value', 'NONE');
#199 = ORIENTED_EDGE ( 'NONE', *, *, #29, .F. ) ;
#200 = VERTEX_POINT ( 'NONE', #93 ) ;
#201 = ADVANCED_FACE ( 'NONE', ( #60, #211 ), #46, .T. ) ;
#202 = VERTEX_POINT ( 'NONE', #12 ) ;
#203 = CARTESIAN_POINT ( 'NONE',  ( 0.5000000000000000000, 0.000000000000000000, -0.8000000000000000444 ) ) ;
#204 = SURFACE_STYLE_USAGE ( .BOTH. , #118 ) ;
#205 = CARTESIAN_POINT ( 'NONE',  ( 0.000000000000000000, 0.000000000000000000, -0.8000000000000000444 ) ) ;
#206 = DIRECTION ( 'NONE',  ( 1.000000000000000000, 0.000000000000000000, 0.000000000000000000 ) ) ;
#207 = EDGE_CURVE ( 'NONE', #5, #51, #181, .T. ) ;
#208 = FACE_OUTER_BOUND ( 'NONE', #20, .T. ) ;
#209 = DIRECTION ( 'NONE',  ( 1.000000000000000000, 0.000000000000000000, 0.000000000000000000 ) ) ;
#210 = DIRECTION ( 'NONE',  ( 0.000000000000000000, 0.000000000000000000, 1.000000000000000000 ) ) ;
#211 = FACE_OUTER_BOUND ( 'NONE', #147, .T. ) ;
#212 =( LENGTH_UNIT ( ) NAMED_UNIT ( * ) SI_UNIT ( .MILLI., .METRE. ) );
#213 = SURFACE_SIDE_STYLE ('',( #126 ) ) ;
#214 = VECTOR ( 'NONE', #88, 1000.000000000000000 ) ;
ENDSEC;
END-ISO-10303-21;
