ISO-10303-21;
HEADER;
FILE_DESCRIPTION (( 'STEP AP214' ),
    '1' );
FILE_NAME ('Body001 (Mirror #1).step.STEP',
    '2026-01-08T13:34:34',
    ( '' ),
    ( '' ),
    'SwSTEP 2.0',
    'SolidWorks 2025',
    '' );
FILE_SCHEMA (( 'AUTOMOTIVE_DESIGN' ));
ENDSEC;

DATA;
#1 = ORIENTED_EDGE ( 'NONE', *, *, #194, .T. ) ;
#2 = ADVANCED_FACE ( 'NONE', ( #61 ), #14, .F. ) ;
#3 = CARTESIAN_POINT ( 'NONE',  ( -0.6999999999999999556, 0.000000000000000000, 0.000000000000000000 ) ) ;
#4 = AXIS2_PLACEMENT_3D ( 'NONE', #38, #22, #101 ) ;
#5 = PLANE ( 'NONE',  #112 ) ;
#6 =( NAMED_UNIT ( * ) SI_UNIT ( $, .STERADIAN. ) SOLID_ANGLE_UNIT ( ) );
#7 = DIRECTION ( 'NONE',  ( 0.000000000000000000, 0.000000000000000000, 1.000000000000000000 ) ) ;
#8 = CARTESIAN_POINT ( 'NONE',  ( -0.8000000000000000444, 0.4000000000000000222, 0.000000000000000000 ) ) ;
#9 = CARTESIAN_POINT ( 'NONE',  ( -0.8000000000000000444, -0.4000000000000000222, 0.000000000000000000 ) ) ;
#10 = APPLICATION_CONTEXT ( 'automotive_design' ) ;
#11 = LINE ( 'NONE', #57, #106 ) ;
#12 = DIRECTION ( 'NONE',  ( 0.000000000000000000, 0.000000000000000000, 1.000000000000000000 ) ) ;
#13 =( LENGTH_UNIT ( ) NAMED_UNIT ( * ) SI_UNIT ( .MILLI., .METRE. ) );
#14 = PLANE ( 'NONE',  #164 ) ;
#15 = VECTOR ( 'NONE', #44, 1000.000000000000000 ) ;
#16 = VERTEX_POINT ( 'NONE', #62 ) ;
#17 = ORIENTED_EDGE ( 'NONE', *, *, #194, .F. ) ;
#18 = CARTESIAN_POINT ( 'NONE',  ( -0.8000000000000000444, 0.4000000000000000222, 0.000000000000000000 ) ) ;
#19 = ADVANCED_BREP_SHAPE_REPRESENTATION ( 'Body001 (Mirror #1).step', ( #30, #134 ), #82 ) ;
#20 =( GEOMETRIC_REPRESENTATION_CONTEXT ( 3 ) GLOBAL_UNCERTAINTY_ASSIGNED_CONTEXT ( ( #201 ) ) GLOBAL_UNIT_ASSIGNED_CONTEXT ( ( #195, #26, #72 ) ) REPRESENTATION_CONTEXT ( 'NONE', 'WORKASPACE' ) );
#21 = DIRECTION ( 'NONE',  ( -1.000000000000000000, 0.000000000000000000, 0.000000000000000000 ) ) ;
#22 = DIRECTION ( 'NONE',  ( -0.000000000000000000, 1.000000000000000000, 0.000000000000000000 ) ) ;
#23 = COLOUR_RGB ( '',0.9176470588235293713, 0.9176470588235293713, 0.9176470588235293713 ) ;
#24 = FACE_OUTER_BOUND ( 'NONE', #197, .T. ) ;
#25 = DIRECTION ( 'NONE',  ( 1.000000000000000000, 0.000000000000000000, 0.000000000000000000 ) ) ;
#26 =( NAMED_UNIT ( * ) PLANE_ANGLE_UNIT ( ) SI_UNIT ( $, .RADIAN. ) );
#27 = APPLICATION_CONTEXT ( 'automotive_design' ) ;
#28 = AXIS2_PLACEMENT_3D ( 'NONE', #9, #84, #147 ) ;
#29 = LINE ( 'NONE', #18, #186 ) ;
#30 = MANIFOLD_SOLID_BREP ( 'Body001 (Mirror #1)[1]', #125 ) ;
#31 = ORIENTED_EDGE ( 'NONE', *, *, #198, .F. ) ;
#32 = EDGE_CURVE ( 'NONE', #174, #80, #29, .T. ) ;
#33 = ADVANCED_FACE ( 'NONE', ( #86 ), #144, .T. ) ;
#34 = ORIENTED_EDGE ( 'NONE', *, *, #88, .T. ) ;
#35 = MECHANICAL_DESIGN_GEOMETRIC_PRESENTATION_REPRESENTATION (  '', ( #108 ), #20 ) ;
#36 = EDGE_LOOP ( 'NONE', ( #96, #1, #76, #190 ) ) ;
#37 = CARTESIAN_POINT ( 'NONE',  ( -0.5999999999999999778, -0.4000000000000000222, 1.000000000000000000 ) ) ;
#38 = CARTESIAN_POINT ( 'NONE',  ( -0.5999999999999999778, 0.4000000000000000222, 0.000000000000000000 ) ) ;
#39 = MECHANICAL_DESIGN_GEOMETRIC_PRESENTATION_REPRESENTATION (  '', ( #196 ), #130 ) ;
#40 = UNCERTAINTY_MEASURE_WITH_UNIT (LENGTH_MEASURE( 1.000000000000000082E-05 ), #121, 'distance_accuracy_value', 'NONE');
#41 = LINE ( 'NONE', #175, #149 ) ;
#42 = LINE ( 'NONE', #148, #100 ) ;
#43 = VECTOR ( 'NONE', #53, 1000.000000000000000 ) ;
#44 = DIRECTION ( 'NONE',  ( 0.000000000000000000, 0.000000000000000000, 1.000000000000000000 ) ) ;
#45 = LINE ( 'NONE', #68, #154 ) ;
#46 = EDGE_CURVE ( 'NONE', #49, #16, #129, .T. ) ;
#47 = EDGE_LOOP ( 'NONE', ( #124, #79, #141, #95 ) ) ;
#48 = ADVANCED_FACE ( 'NONE', ( #24 ), #5, .T. ) ;
#49 = VERTEX_POINT ( 'NONE', #64 ) ;
#50 = ORIENTED_EDGE ( 'NONE', *, *, #32, .F. ) ;
#51 = PLANE ( 'NONE',  #28 ) ;
#52 = DIRECTION ( 'NONE',  ( 1.000000000000000000, 0.000000000000000000, 0.000000000000000000 ) ) ;
#53 = DIRECTION ( 'NONE',  ( 0.000000000000000000, 1.000000000000000000, 0.000000000000000000 ) ) ;
#54 = CARTESIAN_POINT ( 'NONE',  ( -0.8000000000000000444, -0.4000000000000000222, 0.000000000000000000 ) ) ;
#55 = DIRECTION ( 'NONE',  ( 0.000000000000000000, 0.000000000000000000, 1.000000000000000000 ) ) ;
#56 = EDGE_CURVE ( 'NONE', #59, #122, #99, .T. ) ;
#57 = CARTESIAN_POINT ( 'NONE',  ( -0.5999999999999999778, 0.4000000000000000222, 0.000000000000000000 ) ) ;
#58 = SURFACE_STYLE_FILL_AREA ( #89 ) ;
#59 = VERTEX_POINT ( 'NONE', #146 ) ;
#60 = PRESENTATION_LAYER_ASSIGNMENT (  '', '', ( #108 ) ) ;
#61 = FACE_OUTER_BOUND ( 'NONE', #111, .T. ) ;
#62 = CARTESIAN_POINT ( 'NONE',  ( -0.8000000000000000444, -0.4000000000000000222, 1.000000000000000000 ) ) ;
#63 = COLOUR_RGB ( '',0.9176470588235293713, 0.9176470588235293713, 0.9176470588235293713 ) ;
#64 = CARTESIAN_POINT ( 'NONE',  ( -0.8000000000000000444, 0.4000000000000000222, 1.000000000000000000 ) ) ;
#65 = CARTESIAN_POINT ( 'NONE',  ( -0.8000000000000000444, -0.4000000000000000222, 1.000000000000000000 ) ) ;
#66 = CARTESIAN_POINT ( 'NONE',  ( -0.8000000000000000444, 0.4000000000000000222, 0.000000000000000000 ) ) ;
#67 = CARTESIAN_POINT ( 'NONE',  ( -0.8000000000000000444, 0.4000000000000000222, 1.000000000000000000 ) ) ;
#68 = CARTESIAN_POINT ( 'NONE',  ( -0.8000000000000000444, -0.4000000000000000222, 0.000000000000000000 ) ) ;
#69 = PRESENTATION_LAYER_ASSIGNMENT (  '', '', ( #196 ) ) ;
#70 = APPLICATION_PROTOCOL_DEFINITION ( 'draft international standard', 'automotive_design', 1998, #10 ) ;
#71 = CARTESIAN_POINT ( 'NONE',  ( -0.5999999999999999778, -0.4000000000000000222, 0.000000000000000000 ) ) ;
#72 =( NAMED_UNIT ( * ) SI_UNIT ( $, .STERADIAN. ) SOLID_ANGLE_UNIT ( ) );
#73 = EDGE_CURVE ( 'NONE', #202, #59, #117, .T. ) ;
#74 = AXIS2_PLACEMENT_3D ( 'NONE', #8, #127, #191 ) ;
#75 = ORIENTED_EDGE ( 'NONE', *, *, #73, .T. ) ;
#76 = ORIENTED_EDGE ( 'NONE', *, *, #46, .F. ) ;
#77 = VECTOR ( 'NONE', #83, 1000.000000000000000 ) ;
#78 = PRODUCT_DEFINITION_SHAPE ( 'NONE', 'NONE',  #161 ) ;
#79 = ORIENTED_EDGE ( 'NONE', *, *, #118, .T. ) ;
#80 = VERTEX_POINT ( 'NONE', #54 ) ;
#81 = CARTESIAN_POINT ( 'NONE',  ( -0.5999999999999999778, -0.4000000000000000222, 0.000000000000000000 ) ) ;
#82 =( GEOMETRIC_REPRESENTATION_CONTEXT ( 3 ) GLOBAL_UNCERTAINTY_ASSIGNED_CONTEXT ( ( #40 ) ) GLOBAL_UNIT_ASSIGNED_CONTEXT ( ( #121, #105, #171 ) ) REPRESENTATION_CONTEXT ( 'NONE', 'WORKASPACE' ) );
#83 = DIRECTION ( 'NONE',  ( 0.000000000000000000, -1.000000000000000000, 0.000000000000000000 ) ) ;
#84 = DIRECTION ( 'NONE',  ( 0.000000000000000000, -1.000000000000000000, 0.000000000000000000 ) ) ;
#85 = FACE_OUTER_BOUND ( 'NONE', #139, .T. ) ;
#86 = FACE_OUTER_BOUND ( 'NONE', #47, .T. ) ;
#87 = DIRECTION ( 'NONE',  ( 1.000000000000000000, 0.000000000000000000, 0.000000000000000000 ) ) ;
#88 = EDGE_CURVE ( 'NONE', #16, #173, #116, .T. ) ;
#89 = FILL_AREA_STYLE ('',( #91 ) ) ;
#90 = PRODUCT_CONTEXT ( 'NONE', #10, 'mechanical' ) ;
#91 = FILL_AREA_STYLE_COLOUR ( '', #23 ) ;
#92 = SURFACE_STYLE_USAGE ( .BOTH. , #187 ) ;
#93 = EDGE_CURVE ( 'NONE', #173, #122, #150, .T. ) ;
#94 = PRESENTATION_STYLE_ASSIGNMENT (( #92 ) ) ;
#95 = ORIENTED_EDGE ( 'NONE', *, *, #56, .F. ) ;
#96 = ORIENTED_EDGE ( 'NONE', *, *, #32, .T. ) ;
#97 = ORIENTED_EDGE ( 'NONE', *, *, #56, .T. ) ;
#98 = CARTESIAN_POINT ( 'NONE',  ( -0.6999999999999999556, 0.000000000000000000, 1.000000000000000000 ) ) ;
#99 = LINE ( 'NONE', #163, #170 ) ;
#100 = VECTOR ( 'NONE', #176, 1000.000000000000000 ) ;
#101 = DIRECTION ( 'NONE',  ( 1.000000000000000000, 0.000000000000000000, 0.000000000000000000 ) ) ;
#102 = DIRECTION ( 'NONE',  ( 0.000000000000000000, -1.000000000000000000, 0.000000000000000000 ) ) ;
#103 = CARTESIAN_POINT ( 'NONE',  ( -0.5999999999999999778, 0.4000000000000000222, 1.000000000000000000 ) ) ;
#104 = AXIS2_PLACEMENT_3D ( 'NONE', #98, #162, #52 ) ;
#105 =( NAMED_UNIT ( * ) PLANE_ANGLE_UNIT ( ) SI_UNIT ( $, .RADIAN. ) );
#106 = VECTOR ( 'NONE', #182, 1000.000000000000000 ) ;
#107 = FILL_AREA_STYLE_COLOUR ( '', #63 ) ;
#108 = STYLED_ITEM ( 'NONE', ( #169 ), #19 ) ;
#109 = ORIENTED_EDGE ( 'NONE', *, *, #152, .T. ) ;
#110 = ORIENTED_EDGE ( 'NONE', *, *, #93, .T. ) ;
#111 = EDGE_LOOP ( 'NONE', ( #160, #157, #50, #31 ) ) ;
#112 = AXIS2_PLACEMENT_3D ( 'NONE', #131, #166, #119 ) ;
#113 = PLANE ( 'NONE',  #74 ) ;
#114 = UNCERTAINTY_MEASURE_WITH_UNIT (LENGTH_MEASURE( 1.000000000000000082E-05 ), #13, 'distance_accuracy_value', 'NONE');
#115 = LINE ( 'NONE', #135, #15 ) ;
#116 = LINE ( 'NONE', #65, #180 ) ;
#117 = LINE ( 'NONE', #81, #168 ) ;
#118 = EDGE_CURVE ( 'NONE', #174, #49, #42, .T. ) ;
#119 = DIRECTION ( 'NONE',  ( 0.000000000000000000, 1.000000000000000000, 0.000000000000000000 ) ) ;
#120 = EDGE_CURVE ( 'NONE', #122, #49, #132, .T. ) ;
#121 =( LENGTH_UNIT ( ) NAMED_UNIT ( * ) SI_UNIT ( .MILLI., .METRE. ) );
#122 = VERTEX_POINT ( 'NONE', #103 ) ;
#123 = DIRECTION ( 'NONE',  ( 0.000000000000000000, 0.000000000000000000, 1.000000000000000000 ) ) ;
#124 = ORIENTED_EDGE ( 'NONE', *, *, #198, .T. ) ;
#125 = CLOSED_SHELL ( 'NONE', ( #179, #2, #48, #126, #136, #33 ) ) ;
#126 = ADVANCED_FACE ( 'NONE', ( #167 ), #51, .T. ) ;
#127 = DIRECTION ( 'NONE',  ( -1.000000000000000000, 0.000000000000000000, 0.000000000000000000 ) ) ;
#128 = DIRECTION ( 'NONE',  ( 1.000000000000000000, 0.000000000000000000, 0.000000000000000000 ) ) ;
#129 = LINE ( 'NONE', #67, #77 ) ;
#130 =( GEOMETRIC_REPRESENTATION_CONTEXT ( 3 ) GLOBAL_UNCERTAINTY_ASSIGNED_CONTEXT ( ( #114 ) ) GLOBAL_UNIT_ASSIGNED_CONTEXT ( ( #13, #185, #6 ) ) REPRESENTATION_CONTEXT ( 'NONE', 'WORKASPACE' ) );
#131 = CARTESIAN_POINT ( 'NONE',  ( -0.5999999999999999778, -0.4000000000000000222, 0.000000000000000000 ) ) ;
#132 = LINE ( 'NONE', #165, #145 ) ;
#133 = SURFACE_STYLE_USAGE ( .BOTH. , #181 ) ;
#134 = AXIS2_PLACEMENT_3D ( 'NONE', #153, #12, #87 ) ;
#135 = CARTESIAN_POINT ( 'NONE',  ( -0.8000000000000000444, -0.4000000000000000222, 0.000000000000000000 ) ) ;
#136 = ADVANCED_FACE ( 'NONE', ( #177 ), #113, .T. ) ;
#137 = FILL_AREA_STYLE ('',( #107 ) ) ;
#138 = PRODUCT_DEFINITION_CONTEXT ( 'detailed design', #27, 'design' ) ;
#139 = EDGE_LOOP ( 'NONE', ( #155, #142, #34, #110 ) ) ;
#140 = ORIENTED_EDGE ( 'NONE', *, *, #88, .F. ) ;
#141 = ORIENTED_EDGE ( 'NONE', *, *, #120, .F. ) ;
#142 = ORIENTED_EDGE ( 'NONE', *, *, #46, .T. ) ;
#143 = PRODUCT_RELATED_PRODUCT_CATEGORY ( 'part', '', ( #184 ) ) ;
#144 = PLANE ( 'NONE',  #4 ) ;
#145 = VECTOR ( 'NONE', #21, 1000.000000000000000 ) ;
#146 = CARTESIAN_POINT ( 'NONE',  ( -0.5999999999999999778, 0.4000000000000000222, 0.000000000000000000 ) ) ;
#147 = DIRECTION ( 'NONE',  ( 0.000000000000000000, 0.000000000000000000, -1.000000000000000000 ) ) ;
#148 = CARTESIAN_POINT ( 'NONE',  ( -0.8000000000000000444, 0.4000000000000000222, 0.000000000000000000 ) ) ;
#149 = VECTOR ( 'NONE', #7, 1000.000000000000000 ) ;
#150 = LINE ( 'NONE', #192, #43 ) ;
#151 = APPLICATION_PROTOCOL_DEFINITION ( 'draft international standard', 'automotive_design', 1998, #27 ) ;
#152 = EDGE_CURVE ( 'NONE', #202, #173, #41, .T. ) ;
#153 = CARTESIAN_POINT ( 'NONE',  ( 0.000000000000000000, 0.000000000000000000, 0.000000000000000000 ) ) ;
#154 = VECTOR ( 'NONE', #25, 1000.000000000000000 ) ;
#155 = ORIENTED_EDGE ( 'NONE', *, *, #120, .T. ) ;
#156 = ORIENTED_EDGE ( 'NONE', *, *, #152, .F. ) ;
#157 = ORIENTED_EDGE ( 'NONE', *, *, #200, .F. ) ;
#158 = ORIENTED_EDGE ( 'NONE', *, *, #93, .F. ) ;
#159 = ORIENTED_EDGE ( 'NONE', *, *, #200, .T. ) ;
#160 = ORIENTED_EDGE ( 'NONE', *, *, #73, .F. ) ;
#161 = PRODUCT_DEFINITION ( 'General', '', #183, #138 ) ;
#162 = DIRECTION ( 'NONE',  ( 0.000000000000000000, 0.000000000000000000, 1.000000000000000000 ) ) ;
#163 = CARTESIAN_POINT ( 'NONE',  ( -0.5999999999999999778, 0.4000000000000000222, 0.000000000000000000 ) ) ;
#164 = AXIS2_PLACEMENT_3D ( 'NONE', #3, #123, #189 ) ;
#165 = CARTESIAN_POINT ( 'NONE',  ( -0.5999999999999999778, 0.4000000000000000222, 1.000000000000000000 ) ) ;
#166 = DIRECTION ( 'NONE',  ( 1.000000000000000000, 0.000000000000000000, 0.000000000000000000 ) ) ;
#167 = FACE_OUTER_BOUND ( 'NONE', #188, .T. ) ;
#168 = VECTOR ( 'NONE', #178, 1000.000000000000000 ) ;
#169 = PRESENTATION_STYLE_ASSIGNMENT (( #133 ) ) ;
#170 = VECTOR ( 'NONE', #55, 1000.000000000000000 ) ;
#171 =( NAMED_UNIT ( * ) SI_UNIT ( $, .STERADIAN. ) SOLID_ANGLE_UNIT ( ) );
#172 = SURFACE_STYLE_FILL_AREA ( #137 ) ;
#173 = VERTEX_POINT ( 'NONE', #37 ) ;
#174 = VERTEX_POINT ( 'NONE', #66 ) ;
#175 = CARTESIAN_POINT ( 'NONE',  ( -0.5999999999999999778, -0.4000000000000000222, 0.000000000000000000 ) ) ;
#176 = DIRECTION ( 'NONE',  ( 0.000000000000000000, 0.000000000000000000, 1.000000000000000000 ) ) ;
#177 = FACE_OUTER_BOUND ( 'NONE', #36, .T. ) ;
#178 = DIRECTION ( 'NONE',  ( 0.000000000000000000, 1.000000000000000000, 0.000000000000000000 ) ) ;
#179 = ADVANCED_FACE ( 'NONE', ( #85 ), #193, .T. ) ;
#180 = VECTOR ( 'NONE', #128, 1000.000000000000000 ) ;
#181 = SURFACE_SIDE_STYLE ('',( #58 ) ) ;
#182 = DIRECTION ( 'NONE',  ( -1.000000000000000000, 0.000000000000000000, 0.000000000000000000 ) ) ;
#183 = PRODUCT_DEFINITION_FORMATION_WITH_SPECIFIED_SOURCE ( 'Symmetric', '', #184, .NOT_KNOWN. ) ;
#184 = PRODUCT ( 'Body001 (Mirror #1).step', 'Body001 (Mirror #1).step', '', ( #90 ) ) ;
#185 =( NAMED_UNIT ( * ) PLANE_ANGLE_UNIT ( ) SI_UNIT ( $, .RADIAN. ) );
#186 = VECTOR ( 'NONE', #102, 1000.000000000000000 ) ;
#187 = SURFACE_SIDE_STYLE ('',( #172 ) ) ;
#188 = EDGE_LOOP ( 'NONE', ( #159, #109, #140, #17 ) ) ;
#189 = DIRECTION ( 'NONE',  ( 1.000000000000000000, 0.000000000000000000, 0.000000000000000000 ) ) ;
#190 = ORIENTED_EDGE ( 'NONE', *, *, #118, .F. ) ;
#191 = DIRECTION ( 'NONE',  ( 0.000000000000000000, 0.000000000000000000, 1.000000000000000000 ) ) ;
#192 = CARTESIAN_POINT ( 'NONE',  ( -0.5999999999999999778, -0.4000000000000000222, 1.000000000000000000 ) ) ;
#193 = PLANE ( 'NONE',  #104 ) ;
#194 = EDGE_CURVE ( 'NONE', #80, #16, #115, .T. ) ;
#195 =( LENGTH_UNIT ( ) NAMED_UNIT ( * ) SI_UNIT ( .MILLI., .METRE. ) );
#196 = STYLED_ITEM ( 'NONE', ( #94 ), #30 ) ;
#197 = EDGE_LOOP ( 'NONE', ( #75, #97, #158, #156 ) ) ;
#198 = EDGE_CURVE ( 'NONE', #59, #174, #11, .T. ) ;
#199 = SHAPE_DEFINITION_REPRESENTATION ( #78, #19 ) ;
#200 = EDGE_CURVE ( 'NONE', #80, #202, #45, .T. ) ;
#201 = UNCERTAINTY_MEASURE_WITH_UNIT (LENGTH_MEASURE( 1.000000000000000082E-05 ), #195, 'distance_accuracy_value', 'NONE');
#202 = VERTEX_POINT ( 'NONE', #71 ) ;
ENDSEC;
END-ISO-10303-21;
