ISO-10303-21;
HEADER;
FILE_DESCRIPTION (( 'STEP AP214' ),
    '1' );
FILE_NAME ('Body004.step.STEP',
    '2026-01-08T13:34:34',
    ( '' ),
    ( '' ),
    'SwSTEP 2.0',
    'SolidWorks 2025',
    '' );
FILE_SCHEMA (( 'AUTOMOTIVE_DESIGN' ));
ENDSEC;

DATA;
#1 = AXIS2_PLACEMENT_3D ( 'NONE', #23, #122, #102 ) ;
#2 = UNCERTAINTY_MEASURE_WITH_UNIT (LENGTH_MEASURE( 1.000000000000000082E-05 ), #98, 'distance_accuracy_value', 'NONE');
#3 = CARTESIAN_POINT ( 'NONE',  ( -0.5000000000000000000, -6.123233995736766036E-17, 0.000000000000000000 ) ) ;
#4 = AXIS2_PLACEMENT_3D ( 'NONE', #90, #61, #69 ) ;
#5 = DIRECTION ( 'NONE',  ( 0.000000000000000000, 0.000000000000000000, 1.000000000000000000 ) ) ;
#6 = CARTESIAN_POINT ( 'NONE',  ( -3.204937810639000007E-17, 9.554720851393000478E-19, 0.000000000000000000 ) ) ;
#7 =( NAMED_UNIT ( * ) SI_UNIT ( $, .STERADIAN. ) SOLID_ANGLE_UNIT ( ) );
#8 = COLOUR_RGB ( '',0.9137254901960784048, 0.9137254901960784048, 0.9137254901960784048 ) ;
#9 = PRODUCT_RELATED_PRODUCT_CATEGORY ( 'part', '', ( #31 ) ) ;
#10 = CARTESIAN_POINT ( 'NONE',  ( 0.000000000000000000, 0.000000000000000000, 0.1000000000000000056 ) ) ;
#11 = CIRCLE ( 'NONE', #46, 0.5000000000000000000 ) ;
#12 = SURFACE_SIDE_STYLE ('',( #13 ) ) ;
#13 = SURFACE_STYLE_FILL_AREA ( #131 ) ;
#14 = FACE_OUTER_BOUND ( 'NONE', #89, .T. ) ;
#15 = PRODUCT_CONTEXT ( 'NONE', #88, 'mechanical' ) ;
#16 = SHAPE_DEFINITION_REPRESENTATION ( #138, #114 ) ;
#17 = APPLICATION_PROTOCOL_DEFINITION ( 'draft international standard', 'automotive_design', 1998, #88 ) ;
#18 = AXIS2_PLACEMENT_3D ( 'NONE', #6, #56, #85 ) ;
#19 = AXIS2_PLACEMENT_3D ( 'NONE', #58, #50, #79 ) ;
#20 = MANIFOLD_SOLID_BREP ( 'Body004[1]', #75 ) ;
#21 = DIRECTION ( 'NONE',  ( 0.000000000000000000, 0.000000000000000000, 1.000000000000000000 ) ) ;
#22 =( GEOMETRIC_REPRESENTATION_CONTEXT ( 3 ) GLOBAL_UNCERTAINTY_ASSIGNED_CONTEXT ( ( #91 ) ) GLOBAL_UNIT_ASSIGNED_CONTEXT ( ( #137, #103, #7 ) ) REPRESENTATION_CONTEXT ( 'NONE', 'WORKASPACE' ) );
#23 = CARTESIAN_POINT ( 'NONE',  ( 0.000000000000000000, 0.000000000000000000, 0.000000000000000000 ) ) ;
#24 = CARTESIAN_POINT ( 'NONE',  ( -0.5000000000000000000, -6.123233995736766036E-17, 0.000000000000000000 ) ) ;
#25 = DIRECTION ( 'NONE',  ( 1.000000000000000000, 0.000000000000000000, 0.000000000000000000 ) ) ;
#26 = APPLICATION_PROTOCOL_DEFINITION ( 'draft international standard', 'automotive_design', 1998, #106 ) ;
#27 = PRESENTATION_STYLE_ASSIGNMENT (( #28 ) ) ;
#28 = SURFACE_STYLE_USAGE ( .BOTH. , #41 ) ;
#29 = ORIENTED_EDGE ( 'NONE', *, *, #127, .F. ) ;
#30 =( GEOMETRIC_REPRESENTATION_CONTEXT ( 3 ) GLOBAL_UNCERTAINTY_ASSIGNED_CONTEXT ( ( #139 ) ) GLOBAL_UNIT_ASSIGNED_CONTEXT ( ( #42, #113, #125 ) ) REPRESENTATION_CONTEXT ( 'NONE', 'WORKASPACE' ) );
#31 = PRODUCT ( 'Body004.step', 'Body004.step', '', ( #15 ) ) ;
#32 = EDGE_CURVE ( 'NONE', #92, #51, #94, .T. ) ;
#33 = PRODUCT_DEFINITION_CONTEXT ( 'detailed design', #106, 'design' ) ;
#34 = CARTESIAN_POINT ( 'NONE',  ( -3.204937810639000007E-17, 9.554720851393000478E-19, 0.1000000000000000056 ) ) ;
#35 = CARTESIAN_POINT ( 'NONE',  ( 0.5000000000000000000, 0.000000000000000000, 0.000000000000000000 ) ) ;
#36 = SURFACE_STYLE_USAGE ( .BOTH. , #12 ) ;
#37 = ORIENTED_EDGE ( 'NONE', *, *, #72, .F. ) ;
#38 = ADVANCED_FACE ( 'NONE', ( #39 ), #82, .T. ) ;
#39 = FACE_OUTER_BOUND ( 'NONE', #105, .T. ) ;
#40 = EDGE_CURVE ( 'NONE', #51, #92, #126, .T. ) ;
#41 = SURFACE_SIDE_STYLE ('',( #76 ) ) ;
#42 =( LENGTH_UNIT ( ) NAMED_UNIT ( * ) SI_UNIT ( .MILLI., .METRE. ) );
#43 = CARTESIAN_POINT ( 'NONE',  ( 0.000000000000000000, 0.000000000000000000, 0.000000000000000000 ) ) ;
#44 = MECHANICAL_DESIGN_GEOMETRIC_PRESENTATION_REPRESENTATION (  '', ( #101 ), #30 ) ;
#45 = ORIENTED_EDGE ( 'NONE', *, *, #95, .T. ) ;
#46 = AXIS2_PLACEMENT_3D ( 'NONE', #112, #5, #67 ) ;
#47 = ORIENTED_EDGE ( 'NONE', *, *, #119, .T. ) ;
#48 = CIRCLE ( 'NONE', #97, 0.5000000000000000000 ) ;
#49 =( NAMED_UNIT ( * ) PLANE_ANGLE_UNIT ( ) SI_UNIT ( $, .RADIAN. ) );
#50 = DIRECTION ( 'NONE',  ( 0.000000000000000000, 0.000000000000000000, -1.000000000000000000 ) ) ;
#51 = VERTEX_POINT ( 'NONE', #24 ) ;
#52 = PRESENTATION_LAYER_ASSIGNMENT (  '', '', ( #135 ) ) ;
#53 = FACE_OUTER_BOUND ( 'NONE', #77, .T. ) ;
#54 = VERTEX_POINT ( 'NONE', #110 ) ;
#55 = AXIS2_PLACEMENT_3D ( 'NONE', #34, #133, #25 ) ;
#56 = DIRECTION ( 'NONE',  ( 0.000000000000000000, 0.000000000000000000, 1.000000000000000000 ) ) ;
#57 = FILL_AREA_STYLE_COLOUR ( '', #8 ) ;
#58 = CARTESIAN_POINT ( 'NONE',  ( 0.000000000000000000, 0.000000000000000000, 0.000000000000000000 ) ) ;
#59 = AXIS2_PLACEMENT_3D ( 'NONE', #117, #80, #78 ) ;
#60 = ORIENTED_EDGE ( 'NONE', *, *, #127, .T. ) ;
#61 = DIRECTION ( 'NONE',  ( 0.000000000000000000, 0.000000000000000000, 1.000000000000000000 ) ) ;
#62 = ORIENTED_EDGE ( 'NONE', *, *, #40, .F. ) ;
#63 = PRODUCT_DEFINITION_FORMATION_WITH_SPECIFIED_SOURCE ( 'Symmetric', '', #31, .NOT_KNOWN. ) ;
#64 = FACE_OUTER_BOUND ( 'NONE', #68, .T. ) ;
#65 = ADVANCED_FACE ( 'NONE', ( #53 ), #111, .T. ) ;
#66 = VERTEX_POINT ( 'NONE', #70 ) ;
#67 = DIRECTION ( 'NONE',  ( 1.000000000000000000, 0.000000000000000000, 0.000000000000000000 ) ) ;
#68 = EDGE_LOOP ( 'NONE', ( #115, #62 ) ) ;
#69 = DIRECTION ( 'NONE',  ( 1.000000000000000000, 0.000000000000000000, 0.000000000000000000 ) ) ;
#70 = CARTESIAN_POINT ( 'NONE',  ( 0.5000000000000000000, 0.000000000000000000, 0.1000000000000000056 ) ) ;
#71 = CARTESIAN_POINT ( 'NONE',  ( 0.5000000000000000000, 0.000000000000000000, 0.000000000000000000 ) ) ;
#72 = EDGE_CURVE ( 'NONE', #54, #51, #93, .T. ) ;
#73 = DIRECTION ( 'NONE',  ( 1.000000000000000000, 0.000000000000000000, 0.000000000000000000 ) ) ;
#74 = DIRECTION ( 'NONE',  ( 0.000000000000000000, 0.000000000000000000, 1.000000000000000000 ) ) ;
#75 = CLOSED_SHELL ( 'NONE', ( #38, #86, #134, #65 ) ) ;
#76 = SURFACE_STYLE_FILL_AREA ( #84 ) ;
#77 = EDGE_LOOP ( 'NONE', ( #37, #128, #47, #87 ) ) ;
#78 = DIRECTION ( 'NONE',  ( 1.000000000000000000, 0.000000000000000000, 0.000000000000000000 ) ) ;
#79 = DIRECTION ( 'NONE',  ( 1.000000000000000000, 0.000000000000000000, 0.000000000000000000 ) ) ;
#80 = DIRECTION ( 'NONE',  ( 0.000000000000000000, 0.000000000000000000, 1.000000000000000000 ) ) ;
#81 = ORIENTED_EDGE ( 'NONE', *, *, #72, .T. ) ;
#82 = CYLINDRICAL_SURFACE ( 'NONE', #1, 0.5000000000000000000 ) ;
#83 = VECTOR ( 'NONE', #118, 1000.000000000000000 ) ;
#84 = FILL_AREA_STYLE ('',( #57 ) ) ;
#85 = DIRECTION ( 'NONE',  ( 1.000000000000000000, 0.000000000000000000, 0.000000000000000000 ) ) ;
#86 = ADVANCED_FACE ( 'NONE', ( #14 ), #123, .T. ) ;
#87 = ORIENTED_EDGE ( 'NONE', *, *, #32, .T. ) ;
#88 = APPLICATION_CONTEXT ( 'automotive_design' ) ;
#89 = EDGE_LOOP ( 'NONE', ( #45, #60 ) ) ;
#90 = CARTESIAN_POINT ( 'NONE',  ( 0.000000000000000000, 0.000000000000000000, 0.000000000000000000 ) ) ;
#91 = UNCERTAINTY_MEASURE_WITH_UNIT (LENGTH_MEASURE( 1.000000000000000082E-05 ), #137, 'distance_accuracy_value', 'NONE');
#92 = VERTEX_POINT ( 'NONE', #71 ) ;
#93 = LINE ( 'NONE', #3, #132 ) ;
#94 = CIRCLE ( 'NONE', #59, 0.5000000000000000000 ) ;
#95 = EDGE_CURVE ( 'NONE', #66, #54, #11, .T. ) ;
#96 = ORIENTED_EDGE ( 'NONE', *, *, #40, .T. ) ;
#97 = AXIS2_PLACEMENT_3D ( 'NONE', #10, #21, #108 ) ;
#98 =( LENGTH_UNIT ( ) NAMED_UNIT ( * ) SI_UNIT ( .MILLI., .METRE. ) );
#99 = PRESENTATION_STYLE_ASSIGNMENT (( #36 ) ) ;
#100 = FILL_AREA_STYLE_COLOUR ( '', #140 ) ;
#101 = STYLED_ITEM ( 'NONE', ( #27 ), #114 ) ;
#102 = DIRECTION ( 'NONE',  ( 1.000000000000000000, 0.000000000000000000, 0.000000000000000000 ) ) ;
#103 =( NAMED_UNIT ( * ) PLANE_ANGLE_UNIT ( ) SI_UNIT ( $, .RADIAN. ) );
#104 = MECHANICAL_DESIGN_GEOMETRIC_PRESENTATION_REPRESENTATION (  '', ( #135 ), #121 ) ;
#105 = EDGE_LOOP ( 'NONE', ( #29, #81, #96, #120 ) ) ;
#106 = APPLICATION_CONTEXT ( 'automotive_design' ) ;
#107 = LINE ( 'NONE', #35, #83 ) ;
#108 = DIRECTION ( 'NONE',  ( 1.000000000000000000, 0.000000000000000000, 0.000000000000000000 ) ) ;
#109 = AXIS2_PLACEMENT_3D ( 'NONE', #43, #74, #73 ) ;
#110 = CARTESIAN_POINT ( 'NONE',  ( -0.5000000000000000000, -6.123233995736766036E-17, 0.1000000000000000056 ) ) ;
#111 = CYLINDRICAL_SURFACE ( 'NONE', #19, 0.5000000000000000000 ) ;
#112 = CARTESIAN_POINT ( 'NONE',  ( 0.000000000000000000, 0.000000000000000000, 0.1000000000000000056 ) ) ;
#113 =( NAMED_UNIT ( * ) PLANE_ANGLE_UNIT ( ) SI_UNIT ( $, .RADIAN. ) );
#114 = ADVANCED_BREP_SHAPE_REPRESENTATION ( 'Body004.step', ( #20, #109 ), #22 ) ;
#115 = ORIENTED_EDGE ( 'NONE', *, *, #32, .F. ) ;
#116 = PRESENTATION_LAYER_ASSIGNMENT (  '', '', ( #101 ) ) ;
#117 = CARTESIAN_POINT ( 'NONE',  ( 0.000000000000000000, 0.000000000000000000, 0.000000000000000000 ) ) ;
#118 = DIRECTION ( 'NONE',  ( 0.000000000000000000, 0.000000000000000000, -1.000000000000000000 ) ) ;
#119 = EDGE_CURVE ( 'NONE', #66, #92, #107, .T. ) ;
#120 = ORIENTED_EDGE ( 'NONE', *, *, #119, .F. ) ;
#121 =( GEOMETRIC_REPRESENTATION_CONTEXT ( 3 ) GLOBAL_UNCERTAINTY_ASSIGNED_CONTEXT ( ( #2 ) ) GLOBAL_UNIT_ASSIGNED_CONTEXT ( ( #98, #49, #130 ) ) REPRESENTATION_CONTEXT ( 'NONE', 'WORKASPACE' ) );
#122 = DIRECTION ( 'NONE',  ( 0.000000000000000000, 0.000000000000000000, -1.000000000000000000 ) ) ;
#123 = PLANE ( 'NONE',  #55 ) ;
#124 = PRODUCT_DEFINITION ( 'General', '', #63, #33 ) ;
#125 =( NAMED_UNIT ( * ) SI_UNIT ( $, .STERADIAN. ) SOLID_ANGLE_UNIT ( ) );
#126 = CIRCLE ( 'NONE', #4, 0.5000000000000000000 ) ;
#127 = EDGE_CURVE ( 'NONE', #54, #66, #48, .T. ) ;
#128 = ORIENTED_EDGE ( 'NONE', *, *, #95, .F. ) ;
#129 = DIRECTION ( 'NONE',  ( 0.000000000000000000, 0.000000000000000000, -1.000000000000000000 ) ) ;
#130 =( NAMED_UNIT ( * ) SI_UNIT ( $, .STERADIAN. ) SOLID_ANGLE_UNIT ( ) );
#131 = FILL_AREA_STYLE ('',( #100 ) ) ;
#132 = VECTOR ( 'NONE', #129, 1000.000000000000000 ) ;
#133 = DIRECTION ( 'NONE',  ( 0.000000000000000000, 0.000000000000000000, 1.000000000000000000 ) ) ;
#134 = ADVANCED_FACE ( 'NONE', ( #64 ), #136, .F. ) ;
#135 = STYLED_ITEM ( 'NONE', ( #99 ), #20 ) ;
#136 = PLANE ( 'NONE',  #18 ) ;
#137 =( LENGTH_UNIT ( ) NAMED_UNIT ( * ) SI_UNIT ( .MILLI., .METRE. ) );
#138 = PRODUCT_DEFINITION_SHAPE ( 'NONE', 'NONE',  #124 ) ;
#139 = UNCERTAINTY_MEASURE_WITH_UNIT (LENGTH_MEASURE( 1.000000000000000082E-05 ), #42, 'distance_accuracy_value', 'NONE');
#140 = COLOUR_RGB ( '',0.9137254901960784048, 0.9137254901960784048, 0.9137254901960784048 ) ;
ENDSEC;
END-ISO-10303-21;
