ISO-10303-21;
HEADER;
FILE_DESCRIPTION (( 'STEP AP214' ),
    '1' );
FILE_NAME ('Body019.step.STEP',
    '2026-01-08T13:34:34',
    ( '' ),
    ( '' ),
    'SwSTEP 2.0',
    'SolidWorks 2025',
    '' );
FILE_SCHEMA (( 'AUTOMOTIVE_DESIGN' ));
ENDSEC;

DATA;
#1 = CARTESIAN_POINT ( 'NONE',  ( 0.000000000000000000, 0.000000000000000000, 0.000000000000000000 ) ) ;
#2 = ADVANCED_FACE ( 'NONE', ( #165, #96 ), #36, .F. ) ;
#3 = CYLINDRICAL_SURFACE ( 'NONE', #83, 0.5000000000000000000 ) ;
#4 = ORIENTED_EDGE ( 'NONE', *, *, #143, .T. ) ;
#5 = EDGE_CURVE ( 'NONE', #10, #106, #122, .T. ) ;
#6 = DIRECTION ( 'NONE',  ( 0.000000000000000000, 0.000000000000000000, 1.000000000000000000 ) ) ;
#7 = CARTESIAN_POINT ( 'NONE',  ( -1.375000000000000000, 1.683889348827610506E-16, 0.000000000000000000 ) ) ;
#8 = CARTESIAN_POINT ( 'NONE',  ( 0.000000000000000000, 0.000000000000000000, -0.1000000000000000056 ) ) ;
#9 = APPLICATION_CONTEXT ( 'automotive_design' ) ;
#10 = VERTEX_POINT ( 'NONE', #73 ) ;
#11 = DIRECTION ( 'NONE',  ( 1.000000000000000000, 0.000000000000000000, 0.000000000000000000 ) ) ;
#12 = ORIENTED_EDGE ( 'NONE', *, *, #55, .F. ) ;
#13 = CARTESIAN_POINT ( 'NONE',  ( -7.691850745534000611E-17, -3.962887797635999439E-17, 0.000000000000000000 ) ) ;
#14 = STYLED_ITEM ( 'NONE', ( #136 ), #127 ) ;
#15 =( NAMED_UNIT ( * ) PLANE_ANGLE_UNIT ( ) SI_UNIT ( $, .RADIAN. ) );
#16 = ORIENTED_EDGE ( 'NONE', *, *, #124, .F. ) ;
#17 = DIRECTION ( 'NONE',  ( 1.000000000000000000, 0.000000000000000000, 0.000000000000000000 ) ) ;
#18 = CIRCLE ( 'NONE', #176, 0.5000000000000000000 ) ;
#19 = DIRECTION ( 'NONE',  ( 0.000000000000000000, 0.000000000000000000, 1.000000000000000000 ) ) ;
#20 = CARTESIAN_POINT ( 'NONE',  ( -0.5000000000000000000, 6.123233995736766036E-17, -0.1000000000000000056 ) ) ;
#21 = CIRCLE ( 'NONE', #130, 1.375000000000000000 ) ;
#22 = PRODUCT_DEFINITION_CONTEXT ( 'detailed design', #70, 'design' ) ;
#23 = CIRCLE ( 'NONE', #121, 1.375000000000000000 ) ;
#24 = CIRCLE ( 'NONE', #68, 1.375000000000000000 ) ;
#25 =( LENGTH_UNIT ( ) NAMED_UNIT ( * ) SI_UNIT ( .MILLI., .METRE. ) );
#26 = AXIS2_PLACEMENT_3D ( 'NONE', #114, #182, #167 ) ;
#27 = ORIENTED_EDGE ( 'NONE', *, *, #69, .T. ) ;
#28 = DIRECTION ( 'NONE',  ( 0.000000000000000000, 0.000000000000000000, 1.000000000000000000 ) ) ;
#29 = CARTESIAN_POINT ( 'NONE',  ( 0.000000000000000000, 0.000000000000000000, 0.000000000000000000 ) ) ;
#30 = LINE ( 'NONE', #84, #118 ) ;
#31 = DIRECTION ( 'NONE',  ( 1.000000000000000000, 0.000000000000000000, 0.000000000000000000 ) ) ;
#32 = AXIS2_PLACEMENT_3D ( 'NONE', #117, #33, #153 ) ;
#33 = DIRECTION ( 'NONE',  ( 0.000000000000000000, 0.000000000000000000, 1.000000000000000000 ) ) ;
#34 = CARTESIAN_POINT ( 'NONE',  ( 0.000000000000000000, 0.000000000000000000, -0.1000000000000000056 ) ) ;
#35 = ORIENTED_EDGE ( 'NONE', *, *, #54, .F. ) ;
#36 = PLANE ( 'NONE',  #163 ) ;
#37 = VECTOR ( 'NONE', #28, 1000.000000000000000 ) ;
#38 =( LENGTH_UNIT ( ) NAMED_UNIT ( * ) SI_UNIT ( .MILLI., .METRE. ) );
#39 = ORIENTED_EDGE ( 'NONE', *, *, #190, .T. ) ;
#40 = FILL_AREA_STYLE_COLOUR ( '', #154 ) ;
#41 = STYLED_ITEM ( 'NONE', ( #110 ), #105 ) ;
#42 = DIRECTION ( 'NONE',  ( 1.000000000000000000, 0.000000000000000000, 0.000000000000000000 ) ) ;
#43 = EDGE_LOOP ( 'NONE', ( #35, #63, #160, #12 ) ) ;
#44 =( LENGTH_UNIT ( ) NAMED_UNIT ( * ) SI_UNIT ( .MILLI., .METRE. ) );
#45 = PRODUCT ( 'Body019.step', 'Body019.step', '', ( #146 ) ) ;
#46 = EDGE_LOOP ( 'NONE', ( #183, #99, #39, #16 ) ) ;
#47 = FACE_OUTER_BOUND ( 'NONE', #191, .T. ) ;
#48 = EDGE_CURVE ( 'NONE', #10, #193, #21, .T. ) ;
#49 = CARTESIAN_POINT ( 'NONE',  ( 0.000000000000000000, 0.000000000000000000, 0.000000000000000000 ) ) ;
#50 = PRODUCT_DEFINITION_FORMATION_WITH_SPECIFIED_SOURCE ( 'Symmetric', '', #45, .NOT_KNOWN. ) ;
#51 = SURFACE_STYLE_FILL_AREA ( #85 ) ;
#52 = EDGE_CURVE ( 'NONE', #193, #10, #24, .T. ) ;
#53 = ORIENTED_EDGE ( 'NONE', *, *, #161, .T. ) ;
#54 = EDGE_CURVE ( 'NONE', #193, #87, #72, .T. ) ;
#55 = EDGE_CURVE ( 'NONE', #87, #106, #23, .T. ) ;
#56 = EDGE_LOOP ( 'NONE', ( #4, #152 ) ) ;
#57 = DIRECTION ( 'NONE',  ( 0.000000000000000000, 0.000000000000000000, 1.000000000000000000 ) ) ;
#58 = AXIS2_PLACEMENT_3D ( 'NONE', #49, #188, #139 ) ;
#59 = FACE_OUTER_BOUND ( 'NONE', #171, .T. ) ;
#60 =( NAMED_UNIT ( * ) SI_UNIT ( $, .STERADIAN. ) SOLID_ANGLE_UNIT ( ) );
#61 = SURFACE_STYLE_USAGE ( .BOTH. , #202 ) ;
#62 = AXIS2_PLACEMENT_3D ( 'NONE', #213, #79, #209 ) ;
#63 = ORIENTED_EDGE ( 'NONE', *, *, #52, .T. ) ;
#64 = CARTESIAN_POINT ( 'NONE',  ( 0.000000000000000000, 0.000000000000000000, -0.1000000000000000056 ) ) ;
#65 = DIRECTION ( 'NONE',  ( 0.000000000000000000, 0.000000000000000000, 1.000000000000000000 ) ) ;
#66 = AXIS2_PLACEMENT_3D ( 'NONE', #196, #101, #17 ) ;
#67 = DIRECTION ( 'NONE',  ( 1.000000000000000000, 0.000000000000000000, 0.000000000000000000 ) ) ;
#68 = AXIS2_PLACEMENT_3D ( 'NONE', #8, #65, #67 ) ;
#69 = EDGE_CURVE ( 'NONE', #106, #87, #174, .T. ) ;
#70 = APPLICATION_CONTEXT ( 'automotive_design' ) ;
#71 = CARTESIAN_POINT ( 'NONE',  ( -1.375000000000000000, 1.683889348827610506E-16, -0.1000000000000000056 ) ) ;
#72 = LINE ( 'NONE', #75, #37 ) ;
#73 = CARTESIAN_POINT ( 'NONE',  ( 1.375000000000000000, 0.000000000000000000, -0.1000000000000000056 ) ) ;
#74 = DIRECTION ( 'NONE',  ( 1.000000000000000000, 0.000000000000000000, 0.000000000000000000 ) ) ;
#75 = CARTESIAN_POINT ( 'NONE',  ( -1.375000000000000000, 1.683889348827610506E-16, 0.000000000000000000 ) ) ;
#76 = PRESENTATION_LAYER_ASSIGNMENT (  '', '', ( #41 ) ) ;
#77 = DIRECTION ( 'NONE',  ( 0.000000000000000000, 0.000000000000000000, 1.000000000000000000 ) ) ;
#78 = VERTEX_POINT ( 'NONE', #89 ) ;
#79 = DIRECTION ( 'NONE',  ( 0.000000000000000000, 0.000000000000000000, 1.000000000000000000 ) ) ;
#80 = FACE_OUTER_BOUND ( 'NONE', #43, .T. ) ;
#81 = DIRECTION ( 'NONE',  ( 0.000000000000000000, 0.000000000000000000, 1.000000000000000000 ) ) ;
#82 = APPLICATION_PROTOCOL_DEFINITION ( 'draft international standard', 'automotive_design', 1998, #9 ) ;
#83 = AXIS2_PLACEMENT_3D ( 'NONE', #1, #184, #31 ) ;
#84 = CARTESIAN_POINT ( 'NONE',  ( 0.5000000000000000000, 0.000000000000000000, 0.000000000000000000 ) ) ;
#85 = FILL_AREA_STYLE ('',( #199 ) ) ;
#86 = SHAPE_DEFINITION_REPRESENTATION ( #123, #105 ) ;
#87 = VERTEX_POINT ( 'NONE', #7 ) ;
#88 =( GEOMETRIC_REPRESENTATION_CONTEXT ( 3 ) GLOBAL_UNCERTAINTY_ASSIGNED_CONTEXT ( ( #205 ) ) GLOBAL_UNIT_ASSIGNED_CONTEXT ( ( #44, #97, #129 ) ) REPRESENTATION_CONTEXT ( 'NONE', 'WORKASPACE' ) );
#89 = CARTESIAN_POINT ( 'NONE',  ( -0.5000000000000000000, 6.123233995736766036E-17, 0.000000000000000000 ) ) ;
#90 =( GEOMETRIC_REPRESENTATION_CONTEXT ( 3 ) GLOBAL_UNCERTAINTY_ASSIGNED_CONTEXT ( ( #93 ) ) GLOBAL_UNIT_ASSIGNED_CONTEXT ( ( #38, #181, #108 ) ) REPRESENTATION_CONTEXT ( 'NONE', 'WORKASPACE' ) );
#91 = SURFACE_STYLE_USAGE ( .BOTH. , #211 ) ;
#92 = ADVANCED_FACE ( 'NONE', ( #80 ), #141, .T. ) ;
#93 = UNCERTAINTY_MEASURE_WITH_UNIT (LENGTH_MEASURE( 1.000000000000000082E-05 ), #38, 'distance_accuracy_value', 'NONE');
#94 = VERTEX_POINT ( 'NONE', #186 ) ;
#95 = ORIENTED_EDGE ( 'NONE', *, *, #48, .F. ) ;
#96 = FACE_OUTER_BOUND ( 'NONE', #168, .T. ) ;
#97 =( NAMED_UNIT ( * ) PLANE_ANGLE_UNIT ( ) SI_UNIT ( $, .RADIAN. ) );
#98 = ORIENTED_EDGE ( 'NONE', *, *, #161, .F. ) ;
#99 = ORIENTED_EDGE ( 'NONE', *, *, #104, .T. ) ;
#100 = DIRECTION ( 'NONE',  ( 1.000000000000000000, 0.000000000000000000, 0.000000000000000000 ) ) ;
#101 = DIRECTION ( 'NONE',  ( 0.000000000000000000, 0.000000000000000000, 1.000000000000000000 ) ) ;
#102 = CARTESIAN_POINT ( 'NONE',  ( -7.691850745534000611E-17, -3.962887797635999439E-17, -0.1000000000000000056 ) ) ;
#103 = AXIS2_PLACEMENT_3D ( 'NONE', #162, #77, #42 ) ;
#104 = EDGE_CURVE ( 'NONE', #120, #78, #135, .T. ) ;
#105 = ADVANCED_BREP_SHAPE_REPRESENTATION ( 'Body019.step', ( #127, #26 ), #90 ) ;
#106 = VERTEX_POINT ( 'NONE', #131 ) ;
#107 = CLOSED_SHELL ( 'NONE', ( #158, #214, #2, #156, #134, #92 ) ) ;
#108 =( NAMED_UNIT ( * ) SI_UNIT ( $, .STERADIAN. ) SOLID_ANGLE_UNIT ( ) );
#109 = VERTEX_POINT ( 'NONE', #116 ) ;
#110 = PRESENTATION_STYLE_ASSIGNMENT (( #91 ) ) ;
#111 = FILL_AREA_STYLE ('',( #40 ) ) ;
#112 = ORIENTED_EDGE ( 'NONE', *, *, #55, .T. ) ;
#113 = CIRCLE ( 'NONE', #62, 0.5000000000000000000 ) ;
#114 = CARTESIAN_POINT ( 'NONE',  ( 0.000000000000000000, 0.000000000000000000, 0.000000000000000000 ) ) ;
#115 = ORIENTED_EDGE ( 'NONE', *, *, #69, .F. ) ;
#116 = CARTESIAN_POINT ( 'NONE',  ( 0.5000000000000000000, 0.000000000000000000, 0.000000000000000000 ) ) ;
#117 = CARTESIAN_POINT ( 'NONE',  ( 0.000000000000000000, 0.000000000000000000, -0.1000000000000000056 ) ) ;
#118 = VECTOR ( 'NONE', #201, 1000.000000000000000 ) ;
#119 = UNCERTAINTY_MEASURE_WITH_UNIT (LENGTH_MEASURE( 1.000000000000000082E-05 ), #25, 'distance_accuracy_value', 'NONE');
#120 = VERTEX_POINT ( 'NONE', #20 ) ;
#121 = AXIS2_PLACEMENT_3D ( 'NONE', #185, #132, #169 ) ;
#122 = LINE ( 'NONE', #166, #170 ) ;
#123 = PRODUCT_DEFINITION_SHAPE ( 'NONE', 'NONE',  #207 ) ;
#124 = EDGE_CURVE ( 'NONE', #94, #109, #30, .T. ) ;
#125 = ORIENTED_EDGE ( 'NONE', *, *, #52, .F. ) ;
#126 = CYLINDRICAL_SURFACE ( 'NONE', #103, 1.375000000000000000 ) ;
#127 = MANIFOLD_SOLID_BREP ( 'Body019[1]', #107 ) ;
#128 = ORIENTED_EDGE ( 'NONE', *, *, #124, .T. ) ;
#129 =( NAMED_UNIT ( * ) SI_UNIT ( $, .STERADIAN. ) SOLID_ANGLE_UNIT ( ) );
#130 = AXIS2_PLACEMENT_3D ( 'NONE', #64, #175, #133 ) ;
#131 = CARTESIAN_POINT ( 'NONE',  ( 1.375000000000000000, 0.000000000000000000, 0.000000000000000000 ) ) ;
#132 = DIRECTION ( 'NONE',  ( 0.000000000000000000, 0.000000000000000000, 1.000000000000000000 ) ) ;
#133 = DIRECTION ( 'NONE',  ( 1.000000000000000000, 0.000000000000000000, 0.000000000000000000 ) ) ;
#134 = ADVANCED_FACE ( 'NONE', ( #47 ), #3, .F. ) ;
#135 = LINE ( 'NONE', #172, #198 ) ;
#136 = PRESENTATION_STYLE_ASSIGNMENT (( #61 ) ) ;
#137 = PRESENTATION_LAYER_ASSIGNMENT (  '', '', ( #14 ) ) ;
#138 = PRODUCT_RELATED_PRODUCT_CATEGORY ( 'part', '', ( #45 ) ) ;
#139 = DIRECTION ( 'NONE',  ( 1.000000000000000000, 0.000000000000000000, 0.000000000000000000 ) ) ;
#140 = CARTESIAN_POINT ( 'NONE',  ( 0.000000000000000000, 0.000000000000000000, 0.000000000000000000 ) ) ;
#141 = CYLINDRICAL_SURFACE ( 'NONE', #66, 1.375000000000000000 ) ;
#142 = ORIENTED_EDGE ( 'NONE', *, *, #54, .T. ) ;
#143 = EDGE_CURVE ( 'NONE', #94, #120, #159, .T. ) ;
#144 = CYLINDRICAL_SURFACE ( 'NONE', #195, 0.5000000000000000000 ) ;
#145 = FACE_OUTER_BOUND ( 'NONE', #46, .T. ) ;
#146 = PRODUCT_CONTEXT ( 'NONE', #9, 'mechanical' ) ;
#147 = COLOUR_RGB ( '',0.8941176470588234615, 0.6941176470588235059, 0.4549019607843137192 ) ;
#148 = EDGE_CURVE ( 'NONE', #120, #94, #206, .T. ) ;
#149 = ORIENTED_EDGE ( 'NONE', *, *, #5, .F. ) ;
#150 = FACE_BOUND ( 'NONE', #200, .T. ) ;
#151 = ORIENTED_EDGE ( 'NONE', *, *, #190, .F. ) ;
#152 = ORIENTED_EDGE ( 'NONE', *, *, #148, .T. ) ;
#153 = DIRECTION ( 'NONE',  ( 1.000000000000000000, 0.000000000000000000, 0.000000000000000000 ) ) ;
#154 = COLOUR_RGB ( '',0.8941176470588234615, 0.6941176470588235059, 0.4549019607843137192 ) ;
#155 = ORIENTED_EDGE ( 'NONE', *, *, #104, .F. ) ;
#156 = ADVANCED_FACE ( 'NONE', ( #150, #203 ), #180, .T. ) ;
#157 = MECHANICAL_DESIGN_GEOMETRIC_PRESENTATION_REPRESENTATION (  '', ( #14 ), #88 ) ;
#158 = ADVANCED_FACE ( 'NONE', ( #59 ), #126, .T. ) ;
#159 = CIRCLE ( 'NONE', #192, 0.5000000000000000000 ) ;
#160 = ORIENTED_EDGE ( 'NONE', *, *, #5, .T. ) ;
#161 = EDGE_CURVE ( 'NONE', #109, #78, #18, .T. ) ;
#162 = CARTESIAN_POINT ( 'NONE',  ( 0.000000000000000000, 0.000000000000000000, 0.000000000000000000 ) ) ;
#163 = AXIS2_PLACEMENT_3D ( 'NONE', #102, #6, #11 ) ;
#164 = ORIENTED_EDGE ( 'NONE', *, *, #48, .T. ) ;
#165 = FACE_BOUND ( 'NONE', #56, .T. ) ;
#166 = CARTESIAN_POINT ( 'NONE',  ( 1.375000000000000000, 0.000000000000000000, 0.000000000000000000 ) ) ;
#167 = DIRECTION ( 'NONE',  ( 1.000000000000000000, 0.000000000000000000, 0.000000000000000000 ) ) ;
#168 = EDGE_LOOP ( 'NONE', ( #95, #125 ) ) ;
#169 = DIRECTION ( 'NONE',  ( 1.000000000000000000, 0.000000000000000000, 0.000000000000000000 ) ) ;
#170 = VECTOR ( 'NONE', #81, 1000.000000000000000 ) ;
#171 = EDGE_LOOP ( 'NONE', ( #164, #142, #115, #149 ) ) ;
#172 = CARTESIAN_POINT ( 'NONE',  ( -0.5000000000000000000, 6.123233995736766036E-17, 0.000000000000000000 ) ) ;
#173 = DIRECTION ( 'NONE',  ( 0.000000000000000000, 0.000000000000000000, 1.000000000000000000 ) ) ;
#174 = CIRCLE ( 'NONE', #58, 1.375000000000000000 ) ;
#175 = DIRECTION ( 'NONE',  ( 0.000000000000000000, 0.000000000000000000, 1.000000000000000000 ) ) ;
#176 = AXIS2_PLACEMENT_3D ( 'NONE', #140, #179, #74 ) ;
#177 = SURFACE_STYLE_FILL_AREA ( #111 ) ;
#178 =( GEOMETRIC_REPRESENTATION_CONTEXT ( 3 ) GLOBAL_UNCERTAINTY_ASSIGNED_CONTEXT ( ( #119 ) ) GLOBAL_UNIT_ASSIGNED_CONTEXT ( ( #25, #15, #60 ) ) REPRESENTATION_CONTEXT ( 'NONE', 'WORKASPACE' ) );
#179 = DIRECTION ( 'NONE',  ( 0.000000000000000000, 0.000000000000000000, 1.000000000000000000 ) ) ;
#180 = PLANE ( 'NONE',  #187 ) ;
#181 =( NAMED_UNIT ( * ) PLANE_ANGLE_UNIT ( ) SI_UNIT ( $, .RADIAN. ) );
#182 = DIRECTION ( 'NONE',  ( 0.000000000000000000, 0.000000000000000000, 1.000000000000000000 ) ) ;
#183 = ORIENTED_EDGE ( 'NONE', *, *, #148, .F. ) ;
#184 = DIRECTION ( 'NONE',  ( 0.000000000000000000, 0.000000000000000000, 1.000000000000000000 ) ) ;
#185 = CARTESIAN_POINT ( 'NONE',  ( 0.000000000000000000, 0.000000000000000000, 0.000000000000000000 ) ) ;
#186 = CARTESIAN_POINT ( 'NONE',  ( 0.5000000000000000000, 0.000000000000000000, -0.1000000000000000056 ) ) ;
#187 = AXIS2_PLACEMENT_3D ( 'NONE', #13, #57, #210 ) ;
#188 = DIRECTION ( 'NONE',  ( 0.000000000000000000, 0.000000000000000000, 1.000000000000000000 ) ) ;
#189 = APPLICATION_PROTOCOL_DEFINITION ( 'draft international standard', 'automotive_design', 1998, #70 ) ;
#190 = EDGE_CURVE ( 'NONE', #78, #109, #113, .T. ) ;
#191 = EDGE_LOOP ( 'NONE', ( #155, #208, #128, #53 ) ) ;
#192 = AXIS2_PLACEMENT_3D ( 'NONE', #34, #173, #100 ) ;
#193 = VERTEX_POINT ( 'NONE', #71 ) ;
#194 = DIRECTION ( 'NONE',  ( 1.000000000000000000, 0.000000000000000000, 0.000000000000000000 ) ) ;
#195 = AXIS2_PLACEMENT_3D ( 'NONE', #29, #197, #194 ) ;
#196 = CARTESIAN_POINT ( 'NONE',  ( 0.000000000000000000, 0.000000000000000000, 0.000000000000000000 ) ) ;
#197 = DIRECTION ( 'NONE',  ( 0.000000000000000000, 0.000000000000000000, 1.000000000000000000 ) ) ;
#198 = VECTOR ( 'NONE', #19, 1000.000000000000000 ) ;
#199 = FILL_AREA_STYLE_COLOUR ( '', #147 ) ;
#200 = EDGE_LOOP ( 'NONE', ( #98, #151 ) ) ;
#201 = DIRECTION ( 'NONE',  ( 0.000000000000000000, 0.000000000000000000, 1.000000000000000000 ) ) ;
#202 = SURFACE_SIDE_STYLE ('',( #51 ) ) ;
#203 = FACE_OUTER_BOUND ( 'NONE', #212, .T. ) ;
#204 = MECHANICAL_DESIGN_GEOMETRIC_PRESENTATION_REPRESENTATION (  '', ( #41 ), #178 ) ;
#205 = UNCERTAINTY_MEASURE_WITH_UNIT (LENGTH_MEASURE( 1.000000000000000082E-05 ), #44, 'distance_accuracy_value', 'NONE');
#206 = CIRCLE ( 'NONE', #32, 0.5000000000000000000 ) ;
#207 = PRODUCT_DEFINITION ( 'General', '', #50, #22 ) ;
#208 = ORIENTED_EDGE ( 'NONE', *, *, #143, .F. ) ;
#209 = DIRECTION ( 'NONE',  ( 1.000000000000000000, 0.000000000000000000, 0.000000000000000000 ) ) ;
#210 = DIRECTION ( 'NONE',  ( 1.000000000000000000, 0.000000000000000000, 0.000000000000000000 ) ) ;
#211 = SURFACE_SIDE_STYLE ('',( #177 ) ) ;
#212 = EDGE_LOOP ( 'NONE', ( #27, #112 ) ) ;
#213 = CARTESIAN_POINT ( 'NONE',  ( 0.000000000000000000, 0.000000000000000000, 0.000000000000000000 ) ) ;
#214 = ADVANCED_FACE ( 'NONE', ( #145 ), #144, .F. ) ;
ENDSEC;
END-ISO-10303-21;
