ISO-10303-21;
HEADER;
FILE_DESCRIPTION (( 'STEP AP214' ),
    '1' );
FILE_NAME ('Body003.step.STEP',
    '2026-01-08T13:34:34',
    ( '' ),
    ( '' ),
    'SwSTEP 2.0',
    'SolidWorks 2025',
    '' );
FILE_SCHEMA (( 'AUTOMOTIVE_DESIGN' ));
ENDSEC;

DATA;
#1 = AXIS2_PLACEMENT_3D ( 'NONE', #25, #163, #212 ) ;
#2 = DIRECTION ( 'NONE',  ( 1.000000000000000000, 0.000000000000000000, 0.000000000000000000 ) ) ;
#3 = ORIENTED_EDGE ( 'NONE', *, *, #150, .T. ) ;
#4 = DIRECTION ( 'NONE',  ( 0.000000000000000000, 0.000000000000000000, 1.000000000000000000 ) ) ;
#5 = ORIENTED_EDGE ( 'NONE', *, *, #18, .T. ) ;
#6 = EDGE_CURVE ( 'NONE', #203, #191, #66, .T. ) ;
#7 = CARTESIAN_POINT ( 'NONE',  ( 0.5000000000000000000, 0.000000000000000000, 0.1000000000000000056 ) ) ;
#8 = FACE_OUTER_BOUND ( 'NONE', #127, .T. ) ;
#9 = LINE ( 'NONE', #117, #30 ) ;
#10 = CARTESIAN_POINT ( 'NONE',  ( -1.375000000000000000, -1.683889348827610506E-16, 0.1000000000000000056 ) ) ;
#11 = CYLINDRICAL_SURFACE ( 'NONE', #195, 1.375000000000000000 ) ;
#12 = PRODUCT_DEFINITION_FORMATION_WITH_SPECIFIED_SOURCE ( 'Symmetric', '', #67, .NOT_KNOWN. ) ;
#13 = EDGE_CURVE ( 'NONE', #123, #196, #93, .T. ) ;
#14 = SURFACE_SIDE_STYLE ('',( #167 ) ) ;
#15 = COLOUR_RGB ( '',0.8941176470588234615, 0.6941176470588235059, 0.4549019607843137192 ) ;
#16 = APPLICATION_PROTOCOL_DEFINITION ( 'draft international standard', 'automotive_design', 1998, #145 ) ;
#17 = ORIENTED_EDGE ( 'NONE', *, *, #48, .F. ) ;
#18 = EDGE_CURVE ( 'NONE', #60, #196, #35, .T. ) ;
#19 = VECTOR ( 'NONE', #107, 1000.000000000000000 ) ;
#20 = FACE_OUTER_BOUND ( 'NONE', #174, .T. ) ;
#21 = VERTEX_POINT ( 'NONE', #7 ) ;
#22 = DIRECTION ( 'NONE',  ( 0.000000000000000000, 0.000000000000000000, 1.000000000000000000 ) ) ;
#23 = DIRECTION ( 'NONE',  ( 0.000000000000000000, 0.000000000000000000, 1.000000000000000000 ) ) ;
#24 = FILL_AREA_STYLE_COLOUR ( '', #209 ) ;
#25 = CARTESIAN_POINT ( 'NONE',  ( 0.000000000000000000, 0.000000000000000000, 0.000000000000000000 ) ) ;
#26 = CARTESIAN_POINT ( 'NONE',  ( 0.000000000000000000, 0.000000000000000000, 0.000000000000000000 ) ) ;
#27 = DIRECTION ( 'NONE',  ( 0.000000000000000000, 0.000000000000000000, 1.000000000000000000 ) ) ;
#28 = DIRECTION ( 'NONE',  ( 0.000000000000000000, 0.000000000000000000, -1.000000000000000000 ) ) ;
#29 = PRODUCT_DEFINITION_SHAPE ( 'NONE', 'NONE',  #138 ) ;
#30 = VECTOR ( 'NONE', #63, 1000.000000000000000 ) ;
#31 = EDGE_LOOP ( 'NONE', ( #141, #205, #55, #3 ) ) ;
#32 = PRODUCT_DEFINITION_CONTEXT ( 'detailed design', #87, 'design' ) ;
#33 = EDGE_CURVE ( 'NONE', #191, #176, #75, .T. ) ;
#34 =( NAMED_UNIT ( * ) PLANE_ANGLE_UNIT ( ) SI_UNIT ( $, .RADIAN. ) );
#35 = LINE ( 'NONE', #161, #19 ) ;
#36 = EDGE_LOOP ( 'NONE', ( #39, #140 ) ) ;
#37 = SHAPE_DEFINITION_REPRESENTATION ( #29, #135 ) ;
#38 = AXIS2_PLACEMENT_3D ( 'NONE', #126, #61, #188 ) ;
#39 = ORIENTED_EDGE ( 'NONE', *, *, #13, .T. ) ;
#40 = ORIENTED_EDGE ( 'NONE', *, *, #121, .F. ) ;
#41 = CARTESIAN_POINT ( 'NONE',  ( 0.000000000000000000, 0.000000000000000000, 0.000000000000000000 ) ) ;
#42 = ORIENTED_EDGE ( 'NONE', *, *, #53, .F. ) ;
#43 = CIRCLE ( 'NONE', #109, 1.375000000000000000 ) ;
#44 = DIRECTION ( 'NONE',  ( 1.000000000000000000, 0.000000000000000000, 0.000000000000000000 ) ) ;
#45 = FACE_OUTER_BOUND ( 'NONE', #110, .T. ) ;
#46 = DIRECTION ( 'NONE',  ( 0.000000000000000000, 0.000000000000000000, -1.000000000000000000 ) ) ;
#47 = FACE_BOUND ( 'NONE', #36, .T. ) ;
#48 = EDGE_CURVE ( 'NONE', #191, #203, #156, .T. ) ;
#49 = DIRECTION ( 'NONE',  ( 0.000000000000000000, 0.000000000000000000, 1.000000000000000000 ) ) ;
#50 =( NAMED_UNIT ( * ) SI_UNIT ( $, .STERADIAN. ) SOLID_ANGLE_UNIT ( ) );
#51 = FILL_AREA_STYLE_COLOUR ( '', #15 ) ;
#52 = AXIS2_PLACEMENT_3D ( 'NONE', #157, #23, #190 ) ;
#53 = EDGE_CURVE ( 'NONE', #21, #60, #100, .T. ) ;
#54 = MECHANICAL_DESIGN_GEOMETRIC_PRESENTATION_REPRESENTATION (  '', ( #151 ), #74 ) ;
#55 = ORIENTED_EDGE ( 'NONE', *, *, #165, .T. ) ;
#56 = EDGE_LOOP ( 'NONE', ( #83, #155 ) ) ;
#57 = DIRECTION ( 'NONE',  ( 1.000000000000000000, 0.000000000000000000, 0.000000000000000000 ) ) ;
#58 = CYLINDRICAL_SURFACE ( 'NONE', #38, 1.375000000000000000 ) ;
#59 = PRESENTATION_LAYER_ASSIGNMENT (  '', '', ( #151 ) ) ;
#60 = VERTEX_POINT ( 'NONE', #172 ) ;
#61 = DIRECTION ( 'NONE',  ( 0.000000000000000000, 0.000000000000000000, -1.000000000000000000 ) ) ;
#62 = ADVANCED_FACE ( 'NONE', ( #20 ), #58, .T. ) ;
#63 = DIRECTION ( 'NONE',  ( 0.000000000000000000, 0.000000000000000000, -1.000000000000000000 ) ) ;
#64 = SURFACE_SIDE_STYLE ('',( #192 ) ) ;
#65 = CARTESIAN_POINT ( 'NONE',  ( -7.691850745534000611E-17, -3.962887797635999439E-17, 0.1000000000000000056 ) ) ;
#66 = CIRCLE ( 'NONE', #52, 1.375000000000000000 ) ;
#67 = PRODUCT ( 'Body003.step', 'Body003.step', '', ( #154 ) ) ;
#68 = CARTESIAN_POINT ( 'NONE',  ( 0.5000000000000000000, 0.000000000000000000, 0.000000000000000000 ) ) ;
#69 = AXIS2_PLACEMENT_3D ( 'NONE', #98, #28, #99 ) ;
#70 = ORIENTED_EDGE ( 'NONE', *, *, #6, .T. ) ;
#71 =( LENGTH_UNIT ( ) NAMED_UNIT ( * ) SI_UNIT ( .MILLI., .METRE. ) );
#72 = DIRECTION ( 'NONE',  ( 0.000000000000000000, 0.000000000000000000, 1.000000000000000000 ) ) ;
#73 = DIRECTION ( 'NONE',  ( 1.000000000000000000, 0.000000000000000000, 0.000000000000000000 ) ) ;
#74 =( GEOMETRIC_REPRESENTATION_CONTEXT ( 3 ) GLOBAL_UNCERTAINTY_ASSIGNED_CONTEXT ( ( #105 ) ) GLOBAL_UNIT_ASSIGNED_CONTEXT ( ( #71, #201, #184 ) ) REPRESENTATION_CONTEXT ( 'NONE', 'WORKASPACE' ) );
#75 = LINE ( 'NONE', #202, #130 ) ;
#76 = ORIENTED_EDGE ( 'NONE', *, *, #165, .F. ) ;
#77 = CIRCLE ( 'NONE', #137, 0.5000000000000000000 ) ;
#78 =( NAMED_UNIT ( * ) SI_UNIT ( $, .STERADIAN. ) SOLID_ANGLE_UNIT ( ) );
#79 = CARTESIAN_POINT ( 'NONE',  ( 1.375000000000000000, 0.000000000000000000, 0.1000000000000000056 ) ) ;
#80 = SURFACE_STYLE_USAGE ( .BOTH. , #64 ) ;
#81 = EDGE_CURVE ( 'NONE', #196, #123, #77, .T. ) ;
#82 = DIRECTION ( 'NONE',  ( 1.000000000000000000, 0.000000000000000000, 0.000000000000000000 ) ) ;
#83 = ORIENTED_EDGE ( 'NONE', *, *, #150, .F. ) ;
#84 = AXIS2_PLACEMENT_3D ( 'NONE', #65, #27, #44 ) ;
#85 = ADVANCED_FACE ( 'NONE', ( #194, #8 ), #208, .T. ) ;
#86 = EDGE_LOOP ( 'NONE', ( #42, #40 ) ) ;
#87 = APPLICATION_CONTEXT ( 'automotive_design' ) ;
#88 = AXIS2_PLACEMENT_3D ( 'NONE', #142, #91, #2 ) ;
#89 = ORIENTED_EDGE ( 'NONE', *, *, #18, .F. ) ;
#90 = CARTESIAN_POINT ( 'NONE',  ( 0.000000000000000000, 0.000000000000000000, 0.000000000000000000 ) ) ;
#91 = DIRECTION ( 'NONE',  ( 0.000000000000000000, 0.000000000000000000, 1.000000000000000000 ) ) ;
#92 = STYLED_ITEM ( 'NONE', ( #179 ), #108 ) ;
#93 = CIRCLE ( 'NONE', #189, 0.5000000000000000000 ) ;
#94 = ORIENTED_EDGE ( 'NONE', *, *, #206, .F. ) ;
#95 = DIRECTION ( 'NONE',  ( 1.000000000000000000, 0.000000000000000000, 0.000000000000000000 ) ) ;
#96 = CARTESIAN_POINT ( 'NONE',  ( 0.000000000000000000, 0.000000000000000000, 0.1000000000000000056 ) ) ;
#97 = DIRECTION ( 'NONE',  ( 1.000000000000000000, 0.000000000000000000, 0.000000000000000000 ) ) ;
#98 = CARTESIAN_POINT ( 'NONE',  ( 0.000000000000000000, 0.000000000000000000, 0.000000000000000000 ) ) ;
#99 = DIRECTION ( 'NONE',  ( 1.000000000000000000, 0.000000000000000000, 0.000000000000000000 ) ) ;
#100 = CIRCLE ( 'NONE', #88, 0.5000000000000000000 ) ;
#101 =( LENGTH_UNIT ( ) NAMED_UNIT ( * ) SI_UNIT ( .MILLI., .METRE. ) );
#102 = ORIENTED_EDGE ( 'NONE', *, *, #33, .T. ) ;
#103 = PRESENTATION_STYLE_ASSIGNMENT (( #197 ) ) ;
#104 = AXIS2_PLACEMENT_3D ( 'NONE', #41, #112, #57 ) ;
#105 = UNCERTAINTY_MEASURE_WITH_UNIT (LENGTH_MEASURE( 1.000000000000000082E-05 ), #71, 'distance_accuracy_value', 'NONE');
#106 = DIRECTION ( 'NONE',  ( 0.000000000000000000, 0.000000000000000000, -1.000000000000000000 ) ) ;
#107 = DIRECTION ( 'NONE',  ( 0.000000000000000000, 0.000000000000000000, -1.000000000000000000 ) ) ;
#108 = MANIFOLD_SOLID_BREP ( 'Body003[1]', #199 ) ;
#109 = AXIS2_PLACEMENT_3D ( 'NONE', #149, #210, #82 ) ;
#110 = EDGE_LOOP ( 'NONE', ( #89, #111, #139, #113 ) ) ;
#111 = ORIENTED_EDGE ( 'NONE', *, *, #121, .T. ) ;
#112 = DIRECTION ( 'NONE',  ( 0.000000000000000000, 0.000000000000000000, 1.000000000000000000 ) ) ;
#113 = ORIENTED_EDGE ( 'NONE', *, *, #81, .F. ) ;
#114 = PRODUCT_RELATED_PRODUCT_CATEGORY ( 'part', '', ( #67 ) ) ;
#115 = DIRECTION ( 'NONE',  ( 0.000000000000000000, 0.000000000000000000, 1.000000000000000000 ) ) ;
#116 = CARTESIAN_POINT ( 'NONE',  ( -0.5000000000000000000, -6.123233995736766036E-17, 0.000000000000000000 ) ) ;
#117 = CARTESIAN_POINT ( 'NONE',  ( 1.375000000000000000, 0.000000000000000000, 0.000000000000000000 ) ) ;
#118 =( GEOMETRIC_REPRESENTATION_CONTEXT ( 3 ) GLOBAL_UNCERTAINTY_ASSIGNED_CONTEXT ( ( #187 ) ) GLOBAL_UNIT_ASSIGNED_CONTEXT ( ( #134, #119, #78 ) ) REPRESENTATION_CONTEXT ( 'NONE', 'WORKASPACE' ) );
#119 =( NAMED_UNIT ( * ) PLANE_ANGLE_UNIT ( ) SI_UNIT ( $, .RADIAN. ) );
#120 = FILL_AREA_STYLE ('',( #24 ) ) ;
#121 = EDGE_CURVE ( 'NONE', #60, #21, #183, .T. ) ;
#122 = VECTOR ( 'NONE', #198, 1000.000000000000000 ) ;
#123 = VERTEX_POINT ( 'NONE', #178 ) ;
#124 = ORIENTED_EDGE ( 'NONE', *, *, #53, .T. ) ;
#125 = APPLICATION_PROTOCOL_DEFINITION ( 'draft international standard', 'automotive_design', 1998, #87 ) ;
#126 = CARTESIAN_POINT ( 'NONE',  ( 0.000000000000000000, 0.000000000000000000, 0.000000000000000000 ) ) ;
#127 = EDGE_LOOP ( 'NONE', ( #70, #185 ) ) ;
#128 = ADVANCED_FACE ( 'NONE', ( #131 ), #132, .F. ) ;
#129 = EDGE_LOOP ( 'NONE', ( #124, #5, #158, #94 ) ) ;
#130 = VECTOR ( 'NONE', #106, 1000.000000000000000 ) ;
#131 = FACE_OUTER_BOUND ( 'NONE', #129, .T. ) ;
#132 = CYLINDRICAL_SURFACE ( 'NONE', #146, 0.5000000000000000000 ) ;
#133 = DIRECTION ( 'NONE',  ( 1.000000000000000000, 0.000000000000000000, 0.000000000000000000 ) ) ;
#134 =( LENGTH_UNIT ( ) NAMED_UNIT ( * ) SI_UNIT ( .MILLI., .METRE. ) );
#135 = ADVANCED_BREP_SHAPE_REPRESENTATION ( 'Body003.step', ( #108, #104 ), #152 ) ;
#136 = CIRCLE ( 'NONE', #1, 1.375000000000000000 ) ;
#137 = AXIS2_PLACEMENT_3D ( 'NONE', #90, #4, #73 ) ;
#138 = PRODUCT_DEFINITION ( 'General', '', #12, #32 ) ;
#139 = ORIENTED_EDGE ( 'NONE', *, *, #206, .T. ) ;
#140 = ORIENTED_EDGE ( 'NONE', *, *, #81, .T. ) ;
#141 = ORIENTED_EDGE ( 'NONE', *, *, #33, .F. ) ;
#142 = CARTESIAN_POINT ( 'NONE',  ( 0.000000000000000000, 0.000000000000000000, 0.1000000000000000056 ) ) ;
#143 = VERTEX_POINT ( 'NONE', #162 ) ;
#144 = FACE_OUTER_BOUND ( 'NONE', #56, .T. ) ;
#145 = APPLICATION_CONTEXT ( 'automotive_design' ) ;
#146 = AXIS2_PLACEMENT_3D ( 'NONE', #177, #46, #95 ) ;
#147 = EDGE_CURVE ( 'NONE', #176, #143, #43, .T. ) ;
#148 = CARTESIAN_POINT ( 'NONE',  ( -7.691850745534000611E-17, -3.962887797635999439E-17, 0.000000000000000000 ) ) ;
#149 = CARTESIAN_POINT ( 'NONE',  ( 0.000000000000000000, 0.000000000000000000, 0.000000000000000000 ) ) ;
#150 = EDGE_CURVE ( 'NONE', #143, #176, #136, .T. ) ;
#151 = STYLED_ITEM ( 'NONE', ( #103 ), #135 ) ;
#152 =( GEOMETRIC_REPRESENTATION_CONTEXT ( 3 ) GLOBAL_UNCERTAINTY_ASSIGNED_CONTEXT ( ( #171 ) ) GLOBAL_UNIT_ASSIGNED_CONTEXT ( ( #101, #34, #50 ) ) REPRESENTATION_CONTEXT ( 'NONE', 'WORKASPACE' ) );
#153 = ADVANCED_FACE ( 'NONE', ( #47, #144 ), #180, .F. ) ;
#154 = PRODUCT_CONTEXT ( 'NONE', #145, 'mechanical' ) ;
#155 = ORIENTED_EDGE ( 'NONE', *, *, #147, .F. ) ;
#156 = CIRCLE ( 'NONE', #168, 1.375000000000000000 ) ;
#157 = CARTESIAN_POINT ( 'NONE',  ( 0.000000000000000000, 0.000000000000000000, 0.1000000000000000056 ) ) ;
#158 = ORIENTED_EDGE ( 'NONE', *, *, #13, .F. ) ;
#159 = ORIENTED_EDGE ( 'NONE', *, *, #147, .T. ) ;
#160 = ADVANCED_FACE ( 'NONE', ( #45 ), #181, .F. ) ;
#161 = CARTESIAN_POINT ( 'NONE',  ( -0.5000000000000000000, -6.123233995736766036E-17, 0.000000000000000000 ) ) ;
#162 = CARTESIAN_POINT ( 'NONE',  ( 1.375000000000000000, 0.000000000000000000, 0.000000000000000000 ) ) ;
#163 = DIRECTION ( 'NONE',  ( 0.000000000000000000, 0.000000000000000000, 1.000000000000000000 ) ) ;
#164 = CARTESIAN_POINT ( 'NONE',  ( -1.375000000000000000, -1.683889348827610506E-16, 0.000000000000000000 ) ) ;
#165 = EDGE_CURVE ( 'NONE', #203, #143, #9, .T. ) ;
#166 = FACE_OUTER_BOUND ( 'NONE', #31, .T. ) ;
#167 = SURFACE_STYLE_FILL_AREA ( #182 ) ;
#168 = AXIS2_PLACEMENT_3D ( 'NONE', #170, #22, #186 ) ;
#169 = ADVANCED_FACE ( 'NONE', ( #166 ), #11, .T. ) ;
#170 = CARTESIAN_POINT ( 'NONE',  ( 0.000000000000000000, 0.000000000000000000, 0.1000000000000000056 ) ) ;
#171 = UNCERTAINTY_MEASURE_WITH_UNIT (LENGTH_MEASURE( 1.000000000000000082E-05 ), #101, 'distance_accuracy_value', 'NONE');
#172 = CARTESIAN_POINT ( 'NONE',  ( -0.5000000000000000000, -6.123233995736766036E-17, 0.1000000000000000056 ) ) ;
#173 = AXIS2_PLACEMENT_3D ( 'NONE', #96, #49, #133 ) ;
#174 = EDGE_LOOP ( 'NONE', ( #17, #102, #159, #76 ) ) ;
#175 = CARTESIAN_POINT ( 'NONE',  ( 0.000000000000000000, 0.000000000000000000, 0.000000000000000000 ) ) ;
#176 = VERTEX_POINT ( 'NONE', #164 ) ;
#177 = CARTESIAN_POINT ( 'NONE',  ( 0.000000000000000000, 0.000000000000000000, 0.000000000000000000 ) ) ;
#178 = CARTESIAN_POINT ( 'NONE',  ( 0.5000000000000000000, 0.000000000000000000, 0.000000000000000000 ) ) ;
#179 = PRESENTATION_STYLE_ASSIGNMENT (( #80 ) ) ;
#180 = PLANE ( 'NONE',  #213 ) ;
#181 = CYLINDRICAL_SURFACE ( 'NONE', #69, 0.5000000000000000000 ) ;
#182 = FILL_AREA_STYLE ('',( #51 ) ) ;
#183 = CIRCLE ( 'NONE', #173, 0.5000000000000000000 ) ;
#184 =( NAMED_UNIT ( * ) SI_UNIT ( $, .STERADIAN. ) SOLID_ANGLE_UNIT ( ) );
#185 = ORIENTED_EDGE ( 'NONE', *, *, #48, .T. ) ;
#186 = DIRECTION ( 'NONE',  ( 1.000000000000000000, 0.000000000000000000, 0.000000000000000000 ) ) ;
#187 = UNCERTAINTY_MEASURE_WITH_UNIT (LENGTH_MEASURE( 1.000000000000000082E-05 ), #134, 'distance_accuracy_value', 'NONE');
#188 = DIRECTION ( 'NONE',  ( 1.000000000000000000, 0.000000000000000000, 0.000000000000000000 ) ) ;
#189 = AXIS2_PLACEMENT_3D ( 'NONE', #175, #72, #200 ) ;
#190 = DIRECTION ( 'NONE',  ( 1.000000000000000000, 0.000000000000000000, 0.000000000000000000 ) ) ;
#191 = VERTEX_POINT ( 'NONE', #10 ) ;
#192 = SURFACE_STYLE_FILL_AREA ( #120 ) ;
#193 = DIRECTION ( 'NONE',  ( 1.000000000000000000, 0.000000000000000000, 0.000000000000000000 ) ) ;
#194 = FACE_BOUND ( 'NONE', #86, .T. ) ;
#195 = AXIS2_PLACEMENT_3D ( 'NONE', #26, #207, #97 ) ;
#196 = VERTEX_POINT ( 'NONE', #116 ) ;
#197 = SURFACE_STYLE_USAGE ( .BOTH. , #14 ) ;
#198 = DIRECTION ( 'NONE',  ( 0.000000000000000000, 0.000000000000000000, -1.000000000000000000 ) ) ;
#199 = CLOSED_SHELL ( 'NONE', ( #62, #128, #85, #153, #160, #169 ) ) ;
#200 = DIRECTION ( 'NONE',  ( 1.000000000000000000, 0.000000000000000000, 0.000000000000000000 ) ) ;
#201 =( NAMED_UNIT ( * ) PLANE_ANGLE_UNIT ( ) SI_UNIT ( $, .RADIAN. ) );
#202 = CARTESIAN_POINT ( 'NONE',  ( -1.375000000000000000, -1.683889348827610506E-16, 0.000000000000000000 ) ) ;
#203 = VERTEX_POINT ( 'NONE', #79 ) ;
#204 = PRESENTATION_LAYER_ASSIGNMENT (  '', '', ( #92 ) ) ;
#205 = ORIENTED_EDGE ( 'NONE', *, *, #6, .F. ) ;
#206 = EDGE_CURVE ( 'NONE', #21, #123, #211, .T. ) ;
#207 = DIRECTION ( 'NONE',  ( 0.000000000000000000, 0.000000000000000000, -1.000000000000000000 ) ) ;
#208 = PLANE ( 'NONE',  #84 ) ;
#209 = COLOUR_RGB ( '',0.8941176470588234615, 0.6941176470588235059, 0.4549019607843137192 ) ;
#210 = DIRECTION ( 'NONE',  ( 0.000000000000000000, 0.000000000000000000, 1.000000000000000000 ) ) ;
#211 = LINE ( 'NONE', #68, #122 ) ;
#212 = DIRECTION ( 'NONE',  ( 1.000000000000000000, 0.000000000000000000, 0.000000000000000000 ) ) ;
#213 = AXIS2_PLACEMENT_3D ( 'NONE', #148, #115, #193 ) ;
#214 = MECHANICAL_DESIGN_GEOMETRIC_PRESENTATION_REPRESENTATION (  '', ( #92 ), #118 ) ;
ENDSEC;
END-ISO-10303-21;
