ISO-10303-21;
HEADER;
FILE_DESCRIPTION (( 'STEP AP214' ),
    '1' );
FILE_NAME ('Body021.step.STEP',
    '2026-01-08T13:34:34',
    ( '' ),
    ( '' ),
    'SwSTEP 2.0',
    'SolidWorks 2025',
    '' );
FILE_SCHEMA (( 'AUTOMOTIVE_DESIGN' ));
ENDSEC;

DATA;
#1 = ORIENTED_EDGE ( 'NONE', *, *, #143, .F. ) ;
#2 = ADVANCED_FACE ( 'NONE', ( #40 ), #192, .T. ) ;
#3 = PRODUCT ( 'Body021.step', 'Body021.step', '', ( #173 ) ) ;
#4 = VERTEX_POINT ( 'NONE', #6 ) ;
#5 = DIRECTION ( 'NONE',  ( 0.000000000000000000, 0.000000000000000000, 1.000000000000000000 ) ) ;
#6 = CARTESIAN_POINT ( 'NONE',  ( -0.5999999999999999778, -0.4000000000000000222, 0.000000000000000000 ) ) ;
#7 = SURFACE_STYLE_USAGE ( .BOTH. , #36 ) ;
#8 = PRODUCT_DEFINITION_FORMATION_WITH_SPECIFIED_SOURCE ( 'Symmetric', '', #3, .NOT_KNOWN. ) ;
#9 = PLANE ( 'NONE',  #75 ) ;
#10 = CARTESIAN_POINT ( 'NONE',  ( -0.5999999999999999778, 0.4000000000000000222, 0.000000000000000000 ) ) ;
#11 = LINE ( 'NONE', #63, #14 ) ;
#12 = CARTESIAN_POINT ( 'NONE',  ( -0.5999999999999999778, 0.4000000000000000222, 0.000000000000000000 ) ) ;
#13 = PLANE ( 'NONE',  #64 ) ;
#14 = VECTOR ( 'NONE', #93, 1000.000000000000000 ) ;
#15 = ORIENTED_EDGE ( 'NONE', *, *, #113, .F. ) ;
#16 = EDGE_LOOP ( 'NONE', ( #85, #188, #15, #69 ) ) ;
#17 = ORIENTED_EDGE ( 'NONE', *, *, #47, .F. ) ;
#18 = DIRECTION ( 'NONE',  ( 0.000000000000000000, 0.000000000000000000, 1.000000000000000000 ) ) ;
#19 = CARTESIAN_POINT ( 'NONE',  ( 0.5999999999999999778, 0.4000000000000000222, 0.000000000000000000 ) ) ;
#20 =( LENGTH_UNIT ( ) NAMED_UNIT ( * ) SI_UNIT ( .MILLI., .METRE. ) );
#21 = CARTESIAN_POINT ( 'NONE',  ( -0.5999999999999999778, 0.4000000000000000222, 0.000000000000000000 ) ) ;
#22 = CLOSED_SHELL ( 'NONE', ( #161, #117, #2, #128, #127, #199 ) ) ;
#23 = FILL_AREA_STYLE_COLOUR ( '', #33 ) ;
#24 = PLANE ( 'NONE',  #111 ) ;
#25 =( NAMED_UNIT ( * ) PLANE_ANGLE_UNIT ( ) SI_UNIT ( $, .RADIAN. ) );
#26 = EDGE_CURVE ( 'NONE', #32, #53, #136, .T. ) ;
#27 = DIRECTION ( 'NONE',  ( 0.000000000000000000, 1.000000000000000000, 0.000000000000000000 ) ) ;
#28 = CARTESIAN_POINT ( 'NONE',  ( -0.5999999999999999778, 0.4000000000000000222, 0.5000000000000000000 ) ) ;
#29 =( NAMED_UNIT ( * ) PLANE_ANGLE_UNIT ( ) SI_UNIT ( $, .RADIAN. ) );
#30 = EDGE_CURVE ( 'NONE', #32, #160, #74, .T. ) ;
#31 = SHAPE_DEFINITION_REPRESENTATION ( #52, #195 ) ;
#32 = VERTEX_POINT ( 'NONE', #137 ) ;
#33 = COLOUR_RGB ( '',0.1764705882352941013, 0.1764705882352941013, 0.1764705882352941013 ) ;
#34 = MANIFOLD_SOLID_BREP ( 'Body021[1]', #22 ) ;
#35 = ORIENTED_EDGE ( 'NONE', *, *, #47, .T. ) ;
#36 = SURFACE_SIDE_STYLE ('',( #58 ) ) ;
#37 = LINE ( 'NONE', #104, #124 ) ;
#38 = COLOUR_RGB ( '',0.1764705882352941013, 0.1764705882352941013, 0.1764705882352941013 ) ;
#39 = DIRECTION ( 'NONE',  ( 0.000000000000000000, 0.000000000000000000, 1.000000000000000000 ) ) ;
#40 = FACE_OUTER_BOUND ( 'NONE', #16, .T. ) ;
#41 = LINE ( 'NONE', #120, #162 ) ;
#42 = DIRECTION ( 'NONE',  ( 0.000000000000000000, 0.000000000000000000, 1.000000000000000000 ) ) ;
#43 = DIRECTION ( 'NONE',  ( 1.000000000000000000, 0.000000000000000000, 0.000000000000000000 ) ) ;
#44 = EDGE_CURVE ( 'NONE', #53, #84, #135, .T. ) ;
#45 = CARTESIAN_POINT ( 'NONE',  ( 0.5999999999999999778, -0.4000000000000000222, 0.000000000000000000 ) ) ;
#46 = FACE_OUTER_BOUND ( 'NONE', #163, .T. ) ;
#47 = EDGE_CURVE ( 'NONE', #202, #53, #179, .T. ) ;
#48 = ORIENTED_EDGE ( 'NONE', *, *, #44, .T. ) ;
#49 = STYLED_ITEM ( 'NONE', ( #165 ), #34 ) ;
#50 = EDGE_LOOP ( 'NONE', ( #164, #35, #54, #114 ) ) ;
#51 = ORIENTED_EDGE ( 'NONE', *, *, #158, .T. ) ;
#52 = PRODUCT_DEFINITION_SHAPE ( 'NONE', 'NONE',  #79 ) ;
#53 = VERTEX_POINT ( 'NONE', #108 ) ;
#54 = ORIENTED_EDGE ( 'NONE', *, *, #26, .F. ) ;
#55 = PRODUCT_DEFINITION_CONTEXT ( 'detailed design', #155, 'design' ) ;
#56 = DIRECTION ( 'NONE',  ( -1.000000000000000000, 0.000000000000000000, 0.000000000000000000 ) ) ;
#57 = VECTOR ( 'NONE', #146, 1000.000000000000000 ) ;
#58 = SURFACE_STYLE_FILL_AREA ( #133 ) ;
#59 = CARTESIAN_POINT ( 'NONE',  ( 0.5999999999999999778, 0.4000000000000000222, 0.5000000000000000000 ) ) ;
#60 = EDGE_CURVE ( 'NONE', #4, #82, #175, .T. ) ;
#61 = DIRECTION ( 'NONE',  ( 1.000000000000000000, 0.000000000000000000, 0.000000000000000000 ) ) ;
#62 = CARTESIAN_POINT ( 'NONE',  ( -0.5999999999999999778, 0.4000000000000000222, 0.000000000000000000 ) ) ;
#63 = CARTESIAN_POINT ( 'NONE',  ( -0.5999999999999999778, -0.4000000000000000222, 0.000000000000000000 ) ) ;
#64 = AXIS2_PLACEMENT_3D ( 'NONE', #95, #182, #170 ) ;
#65 =( NAMED_UNIT ( * ) SI_UNIT ( $, .STERADIAN. ) SOLID_ANGLE_UNIT ( ) );
#66 = ORIENTED_EDGE ( 'NONE', *, *, #30, .T. ) ;
#67 = VECTOR ( 'NONE', #86, 1000.000000000000000 ) ;
#68 = ORIENTED_EDGE ( 'NONE', *, *, #97, .T. ) ;
#69 = ORIENTED_EDGE ( 'NONE', *, *, #152, .F. ) ;
#70 = ORIENTED_EDGE ( 'NONE', *, *, #30, .F. ) ;
#71 =( NAMED_UNIT ( * ) SI_UNIT ( $, .STERADIAN. ) SOLID_ANGLE_UNIT ( ) );
#72 = DIRECTION ( 'NONE',  ( 1.000000000000000000, 0.000000000000000000, 0.000000000000000000 ) ) ;
#73 = CARTESIAN_POINT ( 'NONE',  ( 0.5999999999999999778, 0.4000000000000000222, 0.000000000000000000 ) ) ;
#74 = LINE ( 'NONE', #19, #91 ) ;
#75 = AXIS2_PLACEMENT_3D ( 'NONE', #145, #5, #118 ) ;
#76 = LINE ( 'NONE', #156, #181 ) ;
#77 = DIRECTION ( 'NONE',  ( 1.000000000000000000, 0.000000000000000000, 0.000000000000000000 ) ) ;
#78 = PRESENTATION_STYLE_ASSIGNMENT (( #157 ) ) ;
#79 = PRODUCT_DEFINITION ( 'General', '', #8, #55 ) ;
#80 = FACE_OUTER_BOUND ( 'NONE', #190, .T. ) ;
#81 = EDGE_CURVE ( 'NONE', #84, #82, #107, .T. ) ;
#82 = VERTEX_POINT ( 'NONE', #168 ) ;
#83 = VECTOR ( 'NONE', #88, 1000.000000000000000 ) ;
#84 = VERTEX_POINT ( 'NONE', #147 ) ;
#85 = ORIENTED_EDGE ( 'NONE', *, *, #60, .T. ) ;
#86 = DIRECTION ( 'NONE',  ( 0.000000000000000000, 0.000000000000000000, 1.000000000000000000 ) ) ;
#87 = PRESENTATION_LAYER_ASSIGNMENT (  '', '', ( #49 ) ) ;
#88 = DIRECTION ( 'NONE',  ( 0.000000000000000000, 0.000000000000000000, 1.000000000000000000 ) ) ;
#89 = CARTESIAN_POINT ( 'NONE',  ( -0.5999999999999999778, -0.4000000000000000222, 0.000000000000000000 ) ) ;
#90 = CARTESIAN_POINT ( 'NONE',  ( -0.5999999999999999778, 0.4000000000000000222, 0.5000000000000000000 ) ) ;
#91 = VECTOR ( 'NONE', #193, 1000.000000000000000 ) ;
#92 =( NAMED_UNIT ( * ) PLANE_ANGLE_UNIT ( ) SI_UNIT ( $, .RADIAN. ) );
#93 = DIRECTION ( 'NONE',  ( 0.000000000000000000, 1.000000000000000000, 0.000000000000000000 ) ) ;
#94 = AXIS2_PLACEMENT_3D ( 'NONE', #101, #18, #187 ) ;
#95 = CARTESIAN_POINT ( 'NONE',  ( 0.5999999999999999778, 0.4000000000000000222, 0.000000000000000000 ) ) ;
#96 = FILL_AREA_STYLE ('',( #172 ) ) ;
#97 = EDGE_CURVE ( 'NONE', #160, #84, #41, .T. ) ;
#98 = UNCERTAINTY_MEASURE_WITH_UNIT (LENGTH_MEASURE( 1.000000000000000082E-05 ), #185, 'distance_accuracy_value', 'NONE');
#99 = ORIENTED_EDGE ( 'NONE', *, *, #119, .T. ) ;
#100 = ORIENTED_EDGE ( 'NONE', *, *, #44, .F. ) ;
#101 = CARTESIAN_POINT ( 'NONE',  ( 0.000000000000000000, 0.000000000000000000, 0.000000000000000000 ) ) ;
#102 = ORIENTED_EDGE ( 'NONE', *, *, #119, .F. ) ;
#103 = UNCERTAINTY_MEASURE_WITH_UNIT (LENGTH_MEASURE( 1.000000000000000082E-05 ), #20, 'distance_accuracy_value', 'NONE');
#104 = CARTESIAN_POINT ( 'NONE',  ( 0.5999999999999999778, -0.4000000000000000222, 0.000000000000000000 ) ) ;
#105 =( GEOMETRIC_REPRESENTATION_CONTEXT ( 3 ) GLOBAL_UNCERTAINTY_ASSIGNED_CONTEXT ( ( #134 ) ) GLOBAL_UNIT_ASSIGNED_CONTEXT ( ( #183, #25, #153 ) ) REPRESENTATION_CONTEXT ( 'NONE', 'WORKASPACE' ) );
#106 = ORIENTED_EDGE ( 'NONE', *, *, #81, .F. ) ;
#107 = LINE ( 'NONE', #122, #194 ) ;
#108 = CARTESIAN_POINT ( 'NONE',  ( 0.5999999999999999778, 0.4000000000000000222, 0.5000000000000000000 ) ) ;
#109 = FACE_OUTER_BOUND ( 'NONE', #174, .T. ) ;
#110 = DIRECTION ( 'NONE',  ( -0.000000000000000000, 1.000000000000000000, 0.000000000000000000 ) ) ;
#111 = AXIS2_PLACEMENT_3D ( 'NONE', #45, #197, #125 ) ;
#112 = SURFACE_STYLE_FILL_AREA ( #96 ) ;
#113 = EDGE_CURVE ( 'NONE', #144, #202, #176, .T. ) ;
#114 = ORIENTED_EDGE ( 'NONE', *, *, #158, .F. ) ;
#115 =( GEOMETRIC_REPRESENTATION_CONTEXT ( 3 ) GLOBAL_UNCERTAINTY_ASSIGNED_CONTEXT ( ( #103 ) ) GLOBAL_UNIT_ASSIGNED_CONTEXT ( ( #20, #92, #71 ) ) REPRESENTATION_CONTEXT ( 'NONE', 'WORKASPACE' ) );
#116 = ORIENTED_EDGE ( 'NONE', *, *, #97, .F. ) ;
#117 = ADVANCED_FACE ( 'NONE', ( #169 ), #9, .F. ) ;
#118 = DIRECTION ( 'NONE',  ( 1.000000000000000000, 0.000000000000000000, 0.000000000000000000 ) ) ;
#119 = EDGE_CURVE ( 'NONE', #160, #4, #37, .T. ) ;
#120 = CARTESIAN_POINT ( 'NONE',  ( 0.5999999999999999778, -0.4000000000000000222, 0.000000000000000000 ) ) ;
#121 = PRODUCT_RELATED_PRODUCT_CATEGORY ( 'part', '', ( #3 ) ) ;
#122 = CARTESIAN_POINT ( 'NONE',  ( 0.5999999999999999778, -0.4000000000000000222, 0.5000000000000000000 ) ) ;
#123 = LINE ( 'NONE', #62, #186 ) ;
#124 = VECTOR ( 'NONE', #166, 1000.000000000000000 ) ;
#125 = DIRECTION ( 'NONE',  ( 0.000000000000000000, 0.000000000000000000, -1.000000000000000000 ) ) ;
#126 = CARTESIAN_POINT ( 'NONE',  ( 0.5999999999999999778, -0.4000000000000000222, 0.000000000000000000 ) ) ;
#127 = ADVANCED_FACE ( 'NONE', ( #46 ), #13, .T. ) ;
#128 = ADVANCED_FACE ( 'NONE', ( #109 ), #24, .T. ) ;
#129 = AXIS2_PLACEMENT_3D ( 'NONE', #196, #42, #43 ) ;
#130 = ORIENTED_EDGE ( 'NONE', *, *, #81, .T. ) ;
#131 = APPLICATION_CONTEXT ( 'automotive_design' ) ;
#132 = ORIENTED_EDGE ( 'NONE', *, *, #60, .F. ) ;
#133 = FILL_AREA_STYLE ('',( #23 ) ) ;
#134 = UNCERTAINTY_MEASURE_WITH_UNIT (LENGTH_MEASURE( 1.000000000000000082E-05 ), #183, 'distance_accuracy_value', 'NONE');
#135 = LINE ( 'NONE', #59, #57 ) ;
#136 = LINE ( 'NONE', #73, #83 ) ;
#137 = CARTESIAN_POINT ( 'NONE',  ( 0.5999999999999999778, 0.4000000000000000222, 0.000000000000000000 ) ) ;
#138 = PLANE ( 'NONE',  #184 ) ;
#139 = MECHANICAL_DESIGN_GEOMETRIC_PRESENTATION_REPRESENTATION (  '', ( #154 ), #177 ) ;
#140 = APPLICATION_PROTOCOL_DEFINITION ( 'draft international standard', 'automotive_design', 1998, #155 ) ;
#141 = EDGE_LOOP ( 'NONE', ( #51, #66, #99, #201 ) ) ;
#142 = MECHANICAL_DESIGN_GEOMETRIC_PRESENTATION_REPRESENTATION (  '', ( #49 ), #115 ) ;
#143 = EDGE_CURVE ( 'NONE', #82, #202, #76, .T. ) ;
#144 = VERTEX_POINT ( 'NONE', #12 ) ;
#145 = CARTESIAN_POINT ( 'NONE',  ( 0.000000000000000000, 0.000000000000000000, 0.000000000000000000 ) ) ;
#146 = DIRECTION ( 'NONE',  ( 0.000000000000000000, -1.000000000000000000, 0.000000000000000000 ) ) ;
#147 = CARTESIAN_POINT ( 'NONE',  ( 0.5999999999999999778, -0.4000000000000000222, 0.5000000000000000000 ) ) ;
#148 = DIRECTION ( 'NONE',  ( 0.000000000000000000, 0.000000000000000000, 1.000000000000000000 ) ) ;
#149 = AXIS2_PLACEMENT_3D ( 'NONE', #178, #150, #39 ) ;
#150 = DIRECTION ( 'NONE',  ( -1.000000000000000000, 0.000000000000000000, 0.000000000000000000 ) ) ;
#151 = FACE_OUTER_BOUND ( 'NONE', #50, .T. ) ;
#152 = EDGE_CURVE ( 'NONE', #4, #144, #11, .T. ) ;
#153 =( NAMED_UNIT ( * ) SI_UNIT ( $, .STERADIAN. ) SOLID_ANGLE_UNIT ( ) );
#154 = STYLED_ITEM ( 'NONE', ( #78 ), #195 ) ;
#155 = APPLICATION_CONTEXT ( 'automotive_design' ) ;
#156 = CARTESIAN_POINT ( 'NONE',  ( -0.5999999999999999778, -0.4000000000000000222, 0.5000000000000000000 ) ) ;
#157 = SURFACE_STYLE_USAGE ( .BOTH. , #180 ) ;
#158 = EDGE_CURVE ( 'NONE', #144, #32, #123, .T. ) ;
#159 = ORIENTED_EDGE ( 'NONE', *, *, #26, .T. ) ;
#160 = VERTEX_POINT ( 'NONE', #126 ) ;
#161 = ADVANCED_FACE ( 'NONE', ( #80 ), #198, .T. ) ;
#162 = VECTOR ( 'NONE', #191, 1000.000000000000000 ) ;
#163 = EDGE_LOOP ( 'NONE', ( #159, #48, #116, #70 ) ) ;
#164 = ORIENTED_EDGE ( 'NONE', *, *, #113, .T. ) ;
#165 = PRESENTATION_STYLE_ASSIGNMENT (( #7 ) ) ;
#166 = DIRECTION ( 'NONE',  ( -1.000000000000000000, 0.000000000000000000, 0.000000000000000000 ) ) ;
#167 = VECTOR ( 'NONE', #148, 1000.000000000000000 ) ;
#168 = CARTESIAN_POINT ( 'NONE',  ( -0.5999999999999999778, -0.4000000000000000222, 0.5000000000000000000 ) ) ;
#169 = FACE_OUTER_BOUND ( 'NONE', #141, .T. ) ;
#170 = DIRECTION ( 'NONE',  ( 0.000000000000000000, 1.000000000000000000, 0.000000000000000000 ) ) ;
#171 = VECTOR ( 'NONE', #72, 1000.000000000000000 ) ;
#172 = FILL_AREA_STYLE_COLOUR ( '', #38 ) ;
#173 = PRODUCT_CONTEXT ( 'NONE', #131, 'mechanical' ) ;
#174 = EDGE_LOOP ( 'NONE', ( #68, #130, #132, #102 ) ) ;
#175 = LINE ( 'NONE', #89, #67 ) ;
#176 = LINE ( 'NONE', #21, #167 ) ;
#177 =( GEOMETRIC_REPRESENTATION_CONTEXT ( 3 ) GLOBAL_UNCERTAINTY_ASSIGNED_CONTEXT ( ( #98 ) ) GLOBAL_UNIT_ASSIGNED_CONTEXT ( ( #185, #29, #65 ) ) REPRESENTATION_CONTEXT ( 'NONE', 'WORKASPACE' ) );
#178 = CARTESIAN_POINT ( 'NONE',  ( -0.5999999999999999778, -0.4000000000000000222, 0.000000000000000000 ) ) ;
#179 = LINE ( 'NONE', #90, #171 ) ;
#180 = SURFACE_SIDE_STYLE ('',( #112 ) ) ;
#181 = VECTOR ( 'NONE', #27, 1000.000000000000000 ) ;
#182 = DIRECTION ( 'NONE',  ( 1.000000000000000000, 0.000000000000000000, 0.000000000000000000 ) ) ;
#183 =( LENGTH_UNIT ( ) NAMED_UNIT ( * ) SI_UNIT ( .MILLI., .METRE. ) );
#184 = AXIS2_PLACEMENT_3D ( 'NONE', #10, #110, #77 ) ;
#185 =( LENGTH_UNIT ( ) NAMED_UNIT ( * ) SI_UNIT ( .MILLI., .METRE. ) );
#186 = VECTOR ( 'NONE', #61, 1000.000000000000000 ) ;
#187 = DIRECTION ( 'NONE',  ( 1.000000000000000000, 0.000000000000000000, 0.000000000000000000 ) ) ;
#188 = ORIENTED_EDGE ( 'NONE', *, *, #143, .T. ) ;
#189 = APPLICATION_PROTOCOL_DEFINITION ( 'draft international standard', 'automotive_design', 1998, #131 ) ;
#190 = EDGE_LOOP ( 'NONE', ( #1, #106, #100, #17 ) ) ;
#191 = DIRECTION ( 'NONE',  ( 0.000000000000000000, 0.000000000000000000, 1.000000000000000000 ) ) ;
#192 = PLANE ( 'NONE',  #149 ) ;
#193 = DIRECTION ( 'NONE',  ( 0.000000000000000000, -1.000000000000000000, 0.000000000000000000 ) ) ;
#194 = VECTOR ( 'NONE', #56, 1000.000000000000000 ) ;
#195 = ADVANCED_BREP_SHAPE_REPRESENTATION ( 'Body021.step', ( #34, #94 ), #105 ) ;
#196 = CARTESIAN_POINT ( 'NONE',  ( 0.000000000000000000, 0.000000000000000000, 0.5000000000000000000 ) ) ;
#197 = DIRECTION ( 'NONE',  ( 0.000000000000000000, -1.000000000000000000, 0.000000000000000000 ) ) ;
#198 = PLANE ( 'NONE',  #129 ) ;
#199 = ADVANCED_FACE ( 'NONE', ( #151 ), #138, .T. ) ;
#200 = PRESENTATION_LAYER_ASSIGNMENT (  '', '', ( #154 ) ) ;
#201 = ORIENTED_EDGE ( 'NONE', *, *, #152, .T. ) ;
#202 = VERTEX_POINT ( 'NONE', #28 ) ;
ENDSEC;
END-ISO-10303-21;
