ISO-10303-21;
HEADER;
FILE_DESCRIPTION (( 'STEP AP214' ),
    '1' );
FILE_NAME ('Body001 (Mirror #1)001.step.STEP',
    '2026-01-08T13:34:33',
    ( '' ),
    ( '' ),
    'SwSTEP 2.0',
    'SolidWorks 2025',
    '' );
FILE_SCHEMA (( 'AUTOMOTIVE_DESIGN' ));
ENDSEC;

DATA;
#1 = ADVANCED_FACE ( 'NONE', ( #175 ), #36, .T. ) ;
#2 = ORIENTED_EDGE ( 'NONE', *, *, #161, .T. ) ;
#3 = ORIENTED_EDGE ( 'NONE', *, *, #54, .F. ) ;
#4 = CARTESIAN_POINT ( 'NONE',  ( -0.5999999999999999778, 0.4000000000000000222, 1.000000000000000000 ) ) ;
#5 = DIRECTION ( 'NONE',  ( 0.000000000000000000, 0.000000000000000000, 1.000000000000000000 ) ) ;
#6 = LINE ( 'NONE', #193, #189 ) ;
#7 = CARTESIAN_POINT ( 'NONE',  ( -0.8000000000000000444, 0.4000000000000000222, 0.000000000000000000 ) ) ;
#8 = DIRECTION ( 'NONE',  ( 1.000000000000000000, 0.000000000000000000, 0.000000000000000000 ) ) ;
#9 = SURFACE_STYLE_USAGE ( .BOTH. , #120 ) ;
#10 = DIRECTION ( 'NONE',  ( 0.000000000000000000, -1.000000000000000000, 0.000000000000000000 ) ) ;
#11 = UNCERTAINTY_MEASURE_WITH_UNIT (LENGTH_MEASURE( 1.000000000000000082E-05 ), #46, 'distance_accuracy_value', 'NONE');
#12 = COLOUR_RGB ( '',0.9176470588235293713, 0.9176470588235293713, 0.9176470588235293713 ) ;
#13 = DIRECTION ( 'NONE',  ( 0.000000000000000000, 0.000000000000000000, 1.000000000000000000 ) ) ;
#14 = CARTESIAN_POINT ( 'NONE',  ( 0.000000000000000000, 0.000000000000000000, 0.000000000000000000 ) ) ;
#15 = FACE_OUTER_BOUND ( 'NONE', #21, .T. ) ;
#16 = PRESENTATION_LAYER_ASSIGNMENT (  '', '', ( #42 ) ) ;
#17 = VERTEX_POINT ( 'NONE', #7 ) ;
#18 = ORIENTED_EDGE ( 'NONE', *, *, #51, .F. ) ;
#19 = AXIS2_PLACEMENT_3D ( 'NONE', #47, #13, #184 ) ;
#20 = DIRECTION ( 'NONE',  ( -0.000000000000000000, 1.000000000000000000, 0.000000000000000000 ) ) ;
#21 = EDGE_LOOP ( 'NONE', ( #93, #128, #191, #63 ) ) ;
#22 = EDGE_LOOP ( 'NONE', ( #178, #125, #111, #176 ) ) ;
#23 = PRESENTATION_STYLE_ASSIGNMENT (( #55 ) ) ;
#24 = VECTOR ( 'NONE', #181, 1000.000000000000000 ) ;
#25 = LINE ( 'NONE', #86, #139 ) ;
#26 = DIRECTION ( 'NONE',  ( 0.000000000000000000, 1.000000000000000000, 0.000000000000000000 ) ) ;
#27 = DIRECTION ( 'NONE',  ( 1.000000000000000000, 0.000000000000000000, 0.000000000000000000 ) ) ;
#28 =( NAMED_UNIT ( * ) PLANE_ANGLE_UNIT ( ) SI_UNIT ( $, .RADIAN. ) );
#29 = CARTESIAN_POINT ( 'NONE',  ( -0.8000000000000000444, 0.4000000000000000222, 0.000000000000000000 ) ) ;
#30 = EDGE_CURVE ( 'NONE', #80, #81, #25, .T. ) ;
#31 = AXIS2_PLACEMENT_3D ( 'NONE', #14, #61, #75 ) ;
#32 = PRODUCT_CONTEXT ( 'NONE', #67, 'mechanical' ) ;
#33 = ORIENTED_EDGE ( 'NONE', *, *, #94, .T. ) ;
#34 = ADVANCED_FACE ( 'NONE', ( #84 ), #70, .T. ) ;
#35 = ORIENTED_EDGE ( 'NONE', *, *, #132, .F. ) ;
#36 = PLANE ( 'NONE',  #146 ) ;
#37 = ORIENTED_EDGE ( 'NONE', *, *, #173, .F. ) ;
#38 = VERTEX_POINT ( 'NONE', #44 ) ;
#39 = CARTESIAN_POINT ( 'NONE',  ( -0.8000000000000000444, -0.4000000000000000222, 1.000000000000000000 ) ) ;
#40 = ADVANCED_FACE ( 'NONE', ( #41 ), #180, .T. ) ;
#41 = FACE_OUTER_BOUND ( 'NONE', #113, .T. ) ;
#42 = STYLED_ITEM ( 'NONE', ( #23 ), #76 ) ;
#43 = DIRECTION ( 'NONE',  ( -1.000000000000000000, 0.000000000000000000, 0.000000000000000000 ) ) ;
#44 = CARTESIAN_POINT ( 'NONE',  ( -0.8000000000000000444, 0.4000000000000000222, 1.000000000000000000 ) ) ;
#45 = PRESENTATION_LAYER_ASSIGNMENT (  '', '', ( #69 ) ) ;
#46 =( LENGTH_UNIT ( ) NAMED_UNIT ( * ) SI_UNIT ( .MILLI., .METRE. ) );
#47 = CARTESIAN_POINT ( 'NONE',  ( -0.6999999999999999556, 0.000000000000000000, 0.000000000000000000 ) ) ;
#48 = CARTESIAN_POINT ( 'NONE',  ( -0.5999999999999999778, -0.4000000000000000222, 0.000000000000000000 ) ) ;
#49 = EDGE_CURVE ( 'NONE', #127, #38, #83, .T. ) ;
#50 = VECTOR ( 'NONE', #109, 1000.000000000000000 ) ;
#51 = EDGE_CURVE ( 'NONE', #98, #127, #199, .T. ) ;
#52 = ORIENTED_EDGE ( 'NONE', *, *, #49, .F. ) ;
#53 = EDGE_LOOP ( 'NONE', ( #2, #190, #37, #112 ) ) ;
#54 = EDGE_CURVE ( 'NONE', #130, #110, #6, .T. ) ;
#55 = SURFACE_STYLE_USAGE ( .BOTH. , #135 ) ;
#56 = SURFACE_STYLE_FILL_AREA ( #68 ) ;
#57 = CARTESIAN_POINT ( 'NONE',  ( -0.8000000000000000444, -0.4000000000000000222, 0.000000000000000000 ) ) ;
#58 = CARTESIAN_POINT ( 'NONE',  ( -0.8000000000000000444, -0.4000000000000000222, 0.000000000000000000 ) ) ;
#59 = VECTOR ( 'NONE', #107, 1000.000000000000000 ) ;
#60 = FILL_AREA_STYLE_COLOUR ( '', #156 ) ;
#61 = DIRECTION ( 'NONE',  ( 0.000000000000000000, 0.000000000000000000, 1.000000000000000000 ) ) ;
#62 =( LENGTH_UNIT ( ) NAMED_UNIT ( * ) SI_UNIT ( .MILLI., .METRE. ) );
#63 = ORIENTED_EDGE ( 'NONE', *, *, #129, .F. ) ;
#64 = VECTOR ( 'NONE', #108, 1000.000000000000000 ) ;
#65 = LINE ( 'NONE', #114, #167 ) ;
#66 = LINE ( 'NONE', #58, #50 ) ;
#67 = APPLICATION_CONTEXT ( 'automotive_design' ) ;
#68 = FILL_AREA_STYLE ('',( #133 ) ) ;
#69 = STYLED_ITEM ( 'NONE', ( #124 ), #99 ) ;
#70 = PLANE ( 'NONE',  #78 ) ;
#71 = PLANE ( 'NONE',  #196 ) ;
#72 = ADVANCED_FACE ( 'NONE', ( #198 ), #165, .T. ) ;
#73 =( NAMED_UNIT ( * ) SI_UNIT ( $, .STERADIAN. ) SOLID_ANGLE_UNIT ( ) );
#74 = APPLICATION_PROTOCOL_DEFINITION ( 'draft international standard', 'automotive_design', 1998, #121 ) ;
#75 = DIRECTION ( 'NONE',  ( 1.000000000000000000, 0.000000000000000000, 0.000000000000000000 ) ) ;
#76 = MANIFOLD_SOLID_BREP ( 'Body001 (Mirror #1)001[1]', #102 ) ;
#77 = ORIENTED_EDGE ( 'NONE', *, *, #132, .T. ) ;
#78 = AXIS2_PLACEMENT_3D ( 'NONE', #134, #106, #26 ) ;
#79 = PRODUCT_RELATED_PRODUCT_CATEGORY ( 'part', '', ( #119 ) ) ;
#80 = VERTEX_POINT ( 'NONE', #57 ) ;
#81 = VERTEX_POINT ( 'NONE', #117 ) ;
#82 =( GEOMETRIC_REPRESENTATION_CONTEXT ( 3 ) GLOBAL_UNCERTAINTY_ASSIGNED_CONTEXT ( ( #11 ) ) GLOBAL_UNIT_ASSIGNED_CONTEXT ( ( #46, #152, #73 ) ) REPRESENTATION_CONTEXT ( 'NONE', 'WORKASPACE' ) );
#83 = LINE ( 'NONE', #150, #177 ) ;
#84 = FACE_OUTER_BOUND ( 'NONE', #53, .T. ) ;
#85 =( LENGTH_UNIT ( ) NAMED_UNIT ( * ) SI_UNIT ( .MILLI., .METRE. ) );
#86 = CARTESIAN_POINT ( 'NONE',  ( -0.8000000000000000444, -0.4000000000000000222, 0.000000000000000000 ) ) ;
#87 = DIRECTION ( 'NONE',  ( 0.000000000000000000, 0.000000000000000000, 1.000000000000000000 ) ) ;
#88 = DIRECTION ( 'NONE',  ( -1.000000000000000000, 0.000000000000000000, 0.000000000000000000 ) ) ;
#89 = CARTESIAN_POINT ( 'NONE',  ( -0.8000000000000000444, 0.4000000000000000222, 1.000000000000000000 ) ) ;
#90 = SURFACE_STYLE_FILL_AREA ( #154 ) ;
#91 = APPLICATION_PROTOCOL_DEFINITION ( 'draft international standard', 'automotive_design', 1998, #67 ) ;
#92 = UNCERTAINTY_MEASURE_WITH_UNIT (LENGTH_MEASURE( 1.000000000000000082E-05 ), #62, 'distance_accuracy_value', 'NONE');
#93 = ORIENTED_EDGE ( 'NONE', *, *, #161, .F. ) ;
#94 = EDGE_CURVE ( 'NONE', #81, #110, #138, .T. ) ;
#95 = ORIENTED_EDGE ( 'NONE', *, *, #192, .F. ) ;
#96 = PRODUCT_DEFINITION_SHAPE ( 'NONE', 'NONE',  #101 ) ;
#97 = CARTESIAN_POINT ( 'NONE',  ( -0.5999999999999999778, 0.4000000000000000222, 0.000000000000000000 ) ) ;
#98 = VERTEX_POINT ( 'NONE', #182 ) ;
#99 = ADVANCED_BREP_SHAPE_REPRESENTATION ( 'Body001 (Mirror #1)001.step', ( #76, #31 ), #153 ) ;
#100 = LINE ( 'NONE', #147, #118 ) ;
#101 = PRODUCT_DEFINITION ( 'General', '', #149, #200 ) ;
#102 = CLOSED_SHELL ( 'NONE', ( #72, #164, #34, #40, #197, #1 ) ) ;
#103 = CARTESIAN_POINT ( 'NONE',  ( -0.6999999999999999556, 0.000000000000000000, 1.000000000000000000 ) ) ;
#104 =( NAMED_UNIT ( * ) SI_UNIT ( $, .STERADIAN. ) SOLID_ANGLE_UNIT ( ) );
#105 = MECHANICAL_DESIGN_GEOMETRIC_PRESENTATION_REPRESENTATION (  '', ( #42 ), #136 ) ;
#106 = DIRECTION ( 'NONE',  ( 1.000000000000000000, 0.000000000000000000, 0.000000000000000000 ) ) ;
#107 = DIRECTION ( 'NONE',  ( 0.000000000000000000, 1.000000000000000000, 0.000000000000000000 ) ) ;
#108 = DIRECTION ( 'NONE',  ( 0.000000000000000000, 1.000000000000000000, 0.000000000000000000 ) ) ;
#109 = DIRECTION ( 'NONE',  ( 0.000000000000000000, 0.000000000000000000, 1.000000000000000000 ) ) ;
#110 = VERTEX_POINT ( 'NONE', #160 ) ;
#111 = ORIENTED_EDGE ( 'NONE', *, *, #54, .T. ) ;
#112 = ORIENTED_EDGE ( 'NONE', *, *, #94, .F. ) ;
#113 = EDGE_LOOP ( 'NONE', ( #188, #33, #3, #142 ) ) ;
#114 = CARTESIAN_POINT ( 'NONE',  ( -0.5999999999999999778, 0.4000000000000000222, 0.000000000000000000 ) ) ;
#115 = CARTESIAN_POINT ( 'NONE',  ( -0.5999999999999999778, -0.4000000000000000222, 0.000000000000000000 ) ) ;
#116 = DIRECTION ( 'NONE',  ( 1.000000000000000000, 0.000000000000000000, 0.000000000000000000 ) ) ;
#117 = CARTESIAN_POINT ( 'NONE',  ( -0.5999999999999999778, -0.4000000000000000222, 0.000000000000000000 ) ) ;
#118 = VECTOR ( 'NONE', #5, 1000.000000000000000 ) ;
#119 = PRODUCT ( 'Body001 (Mirror #1)001.step', 'Body001 (Mirror #1)001.step', '', ( #32 ) ) ;
#120 = SURFACE_SIDE_STYLE ('',( #90 ) ) ;
#121 = APPLICATION_CONTEXT ( 'automotive_design' ) ;
#122 = DIRECTION ( 'NONE',  ( 0.000000000000000000, -1.000000000000000000, 0.000000000000000000 ) ) ;
#123 = VECTOR ( 'NONE', #87, 1000.000000000000000 ) ;
#124 = PRESENTATION_STYLE_ASSIGNMENT (( #9 ) ) ;
#125 = ORIENTED_EDGE ( 'NONE', *, *, #192, .T. ) ;
#126 = AXIS2_PLACEMENT_3D ( 'NONE', #103, #162, #8 ) ;
#127 = VERTEX_POINT ( 'NONE', #4 ) ;
#128 = ORIENTED_EDGE ( 'NONE', *, *, #30, .F. ) ;
#129 = EDGE_CURVE ( 'NONE', #98, #17, #65, .T. ) ;
#130 = VERTEX_POINT ( 'NONE', #39 ) ;
#131 = AXIS2_PLACEMENT_3D ( 'NONE', #163, #137, #194 ) ;
#132 = EDGE_CURVE ( 'NONE', #17, #38, #100, .T. ) ;
#133 = FILL_AREA_STYLE_COLOUR ( '', #12 ) ;
#134 = CARTESIAN_POINT ( 'NONE',  ( -0.5999999999999999778, -0.4000000000000000222, 0.000000000000000000 ) ) ;
#135 = SURFACE_SIDE_STYLE ('',( #56 ) ) ;
#136 =( GEOMETRIC_REPRESENTATION_CONTEXT ( 3 ) GLOBAL_UNCERTAINTY_ASSIGNED_CONTEXT ( ( #186 ) ) GLOBAL_UNIT_ASSIGNED_CONTEXT ( ( #85, #28, #104 ) ) REPRESENTATION_CONTEXT ( 'NONE', 'WORKASPACE' ) );
#137 = DIRECTION ( 'NONE',  ( 0.000000000000000000, -1.000000000000000000, 0.000000000000000000 ) ) ;
#138 = LINE ( 'NONE', #115, #123 ) ;
#139 = VECTOR ( 'NONE', #116, 1000.000000000000000 ) ;
#140 = EDGE_CURVE ( 'NONE', #80, #130, #66, .T. ) ;
#141 = DIRECTION ( 'NONE',  ( 0.000000000000000000, 0.000000000000000000, 1.000000000000000000 ) ) ;
#142 = ORIENTED_EDGE ( 'NONE', *, *, #140, .F. ) ;
#143 = VECTOR ( 'NONE', #10, 1000.000000000000000 ) ;
#144 = SHAPE_DEFINITION_REPRESENTATION ( #96, #99 ) ;
#145 = EDGE_LOOP ( 'NONE', ( #172, #77, #52, #18 ) ) ;
#146 = AXIS2_PLACEMENT_3D ( 'NONE', #97, #20, #27 ) ;
#147 = CARTESIAN_POINT ( 'NONE',  ( -0.8000000000000000444, 0.4000000000000000222, 0.000000000000000000 ) ) ;
#148 = CARTESIAN_POINT ( 'NONE',  ( -0.5999999999999999778, 0.4000000000000000222, 0.000000000000000000 ) ) ;
#149 = PRODUCT_DEFINITION_FORMATION_WITH_SPECIFIED_SOURCE ( 'Symmetric', '', #119, .NOT_KNOWN. ) ;
#150 = CARTESIAN_POINT ( 'NONE',  ( -0.5999999999999999778, 0.4000000000000000222, 1.000000000000000000 ) ) ;
#151 = LINE ( 'NONE', #29, #171 ) ;
#152 =( NAMED_UNIT ( * ) PLANE_ANGLE_UNIT ( ) SI_UNIT ( $, .RADIAN. ) );
#153 =( GEOMETRIC_REPRESENTATION_CONTEXT ( 3 ) GLOBAL_UNCERTAINTY_ASSIGNED_CONTEXT ( ( #92 ) ) GLOBAL_UNIT_ASSIGNED_CONTEXT ( ( #62, #202, #155 ) ) REPRESENTATION_CONTEXT ( 'NONE', 'WORKASPACE' ) );
#154 = FILL_AREA_STYLE ('',( #60 ) ) ;
#155 =( NAMED_UNIT ( * ) SI_UNIT ( $, .STERADIAN. ) SOLID_ANGLE_UNIT ( ) );
#156 = COLOUR_RGB ( '',0.9176470588235293713, 0.9176470588235293713, 0.9176470588235293713 ) ;
#157 = ORIENTED_EDGE ( 'NONE', *, *, #140, .T. ) ;
#158 = ORIENTED_EDGE ( 'NONE', *, *, #174, .T. ) ;
#159 = EDGE_LOOP ( 'NONE', ( #158, #157, #95, #35 ) ) ;
#160 = CARTESIAN_POINT ( 'NONE',  ( -0.5999999999999999778, -0.4000000000000000222, 1.000000000000000000 ) ) ;
#161 = EDGE_CURVE ( 'NONE', #81, #98, #185, .T. ) ;
#162 = DIRECTION ( 'NONE',  ( 0.000000000000000000, 0.000000000000000000, 1.000000000000000000 ) ) ;
#163 = CARTESIAN_POINT ( 'NONE',  ( -0.8000000000000000444, -0.4000000000000000222, 0.000000000000000000 ) ) ;
#164 = ADVANCED_FACE ( 'NONE', ( #15 ), #183, .F. ) ;
#165 = PLANE ( 'NONE',  #126 ) ;
#166 = LINE ( 'NONE', #89, #143 ) ;
#167 = VECTOR ( 'NONE', #179, 1000.000000000000000 ) ;
#168 = CARTESIAN_POINT ( 'NONE',  ( -0.8000000000000000444, 0.4000000000000000222, 0.000000000000000000 ) ) ;
#169 = CARTESIAN_POINT ( 'NONE',  ( -0.5999999999999999778, -0.4000000000000000222, 1.000000000000000000 ) ) ;
#170 = LINE ( 'NONE', #169, #64 ) ;
#171 = VECTOR ( 'NONE', #122, 1000.000000000000000 ) ;
#172 = ORIENTED_EDGE ( 'NONE', *, *, #129, .T. ) ;
#173 = EDGE_CURVE ( 'NONE', #110, #127, #170, .T. ) ;
#174 = EDGE_CURVE ( 'NONE', #17, #80, #151, .T. ) ;
#175 = FACE_OUTER_BOUND ( 'NONE', #145, .T. ) ;
#176 = ORIENTED_EDGE ( 'NONE', *, *, #173, .T. ) ;
#177 = VECTOR ( 'NONE', #43, 1000.000000000000000 ) ;
#178 = ORIENTED_EDGE ( 'NONE', *, *, #49, .T. ) ;
#179 = DIRECTION ( 'NONE',  ( -1.000000000000000000, 0.000000000000000000, 0.000000000000000000 ) ) ;
#180 = PLANE ( 'NONE',  #131 ) ;
#181 = DIRECTION ( 'NONE',  ( 0.000000000000000000, 0.000000000000000000, 1.000000000000000000 ) ) ;
#182 = CARTESIAN_POINT ( 'NONE',  ( -0.5999999999999999778, 0.4000000000000000222, 0.000000000000000000 ) ) ;
#183 = PLANE ( 'NONE',  #19 ) ;
#184 = DIRECTION ( 'NONE',  ( 1.000000000000000000, 0.000000000000000000, 0.000000000000000000 ) ) ;
#185 = LINE ( 'NONE', #48, #59 ) ;
#186 = UNCERTAINTY_MEASURE_WITH_UNIT (LENGTH_MEASURE( 1.000000000000000082E-05 ), #85, 'distance_accuracy_value', 'NONE');
#187 = FACE_OUTER_BOUND ( 'NONE', #159, .T. ) ;
#188 = ORIENTED_EDGE ( 'NONE', *, *, #30, .T. ) ;
#189 = VECTOR ( 'NONE', #195, 1000.000000000000000 ) ;
#190 = ORIENTED_EDGE ( 'NONE', *, *, #51, .T. ) ;
#191 = ORIENTED_EDGE ( 'NONE', *, *, #174, .F. ) ;
#192 = EDGE_CURVE ( 'NONE', #38, #130, #166, .T. ) ;
#193 = CARTESIAN_POINT ( 'NONE',  ( -0.8000000000000000444, -0.4000000000000000222, 1.000000000000000000 ) ) ;
#194 = DIRECTION ( 'NONE',  ( 0.000000000000000000, 0.000000000000000000, -1.000000000000000000 ) ) ;
#195 = DIRECTION ( 'NONE',  ( 1.000000000000000000, 0.000000000000000000, 0.000000000000000000 ) ) ;
#196 = AXIS2_PLACEMENT_3D ( 'NONE', #168, #88, #141 ) ;
#197 = ADVANCED_FACE ( 'NONE', ( #187 ), #71, .T. ) ;
#198 = FACE_OUTER_BOUND ( 'NONE', #22, .T. ) ;
#199 = LINE ( 'NONE', #148, #24 ) ;
#200 = PRODUCT_DEFINITION_CONTEXT ( 'detailed design', #121, 'design' ) ;
#201 = MECHANICAL_DESIGN_GEOMETRIC_PRESENTATION_REPRESENTATION (  '', ( #69 ), #82 ) ;
#202 =( NAMED_UNIT ( * ) PLANE_ANGLE_UNIT ( ) SI_UNIT ( $, .RADIAN. ) );
ENDSEC;
END-ISO-10303-21;
