ISO-10303-21;
HEADER;
FILE_DESCRIPTION (( 'STEP AP214' ),
    '1' );
FILE_NAME ('Body020.step.STEP',
    '2026-01-08T13:34:34',
    ( '' ),
    ( '' ),
    'SwSTEP 2.0',
    'SolidWorks 2025',
    '' );
FILE_SCHEMA (( 'AUTOMOTIVE_DESIGN' ));
ENDSEC;

DATA;
#1 = PRODUCT_DEFINITION_SHAPE ( 'NONE', 'NONE',  #133 ) ;
#2 = CARTESIAN_POINT ( 'NONE',  ( -0.5000000000000000000, 6.123233995736766036E-17, 0.000000000000000000 ) ) ;
#3 = CARTESIAN_POINT ( 'NONE',  ( 0.000000000000000000, 0.000000000000000000, -0.1000000000000000056 ) ) ;
#4 = DIRECTION ( 'NONE',  ( 0.000000000000000000, 0.000000000000000000, 1.000000000000000000 ) ) ;
#5 = PRODUCT_RELATED_PRODUCT_CATEGORY ( 'part', '', ( #29 ) ) ;
#6 = DIRECTION ( 'NONE',  ( 1.000000000000000000, 0.000000000000000000, 0.000000000000000000 ) ) ;
#7 = FILL_AREA_STYLE_COLOUR ( '', #53 ) ;
#8 = VERTEX_POINT ( 'NONE', #106 ) ;
#9 = CARTESIAN_POINT ( 'NONE',  ( 0.000000000000000000, 0.000000000000000000, -0.1000000000000000056 ) ) ;
#10 =( NAMED_UNIT ( * ) SI_UNIT ( $, .STERADIAN. ) SOLID_ANGLE_UNIT ( ) );
#11 = AXIS2_PLACEMENT_3D ( 'NONE', #124, #51, #96 ) ;
#12 = EDGE_LOOP ( 'NONE', ( #48, #74, #117, #97 ) ) ;
#13 = ORIENTED_EDGE ( 'NONE', *, *, #44, .T. ) ;
#14 =( GEOMETRIC_REPRESENTATION_CONTEXT ( 3 ) GLOBAL_UNCERTAINTY_ASSIGNED_CONTEXT ( ( #128 ) ) GLOBAL_UNIT_ASSIGNED_CONTEXT ( ( #85, #54, #93 ) ) REPRESENTATION_CONTEXT ( 'NONE', 'WORKASPACE' ) );
#15 = CARTESIAN_POINT ( 'NONE',  ( 0.5000000000000000000, 0.000000000000000000, 0.000000000000000000 ) ) ;
#16 = PRESENTATION_STYLE_ASSIGNMENT (( #89 ) ) ;
#17 = DIRECTION ( 'NONE',  ( 1.000000000000000000, 0.000000000000000000, 0.000000000000000000 ) ) ;
#18 = CARTESIAN_POINT ( 'NONE',  ( 0.000000000000000000, 0.000000000000000000, 0.000000000000000000 ) ) ;
#19 = COLOUR_RGB ( '',0.9176470588235293713, 0.9176470588235293713, 0.9176470588235293713 ) ;
#20 = DIRECTION ( 'NONE',  ( 0.000000000000000000, 0.000000000000000000, 1.000000000000000000 ) ) ;
#21 = AXIS2_PLACEMENT_3D ( 'NONE', #52, #40, #115 ) ;
#22 = DIRECTION ( 'NONE',  ( 0.000000000000000000, 0.000000000000000000, 1.000000000000000000 ) ) ;
#23 = AXIS2_PLACEMENT_3D ( 'NONE', #69, #118, #17 ) ;
#24 = ORIENTED_EDGE ( 'NONE', *, *, #71, .F. ) ;
#25 = ORIENTED_EDGE ( 'NONE', *, *, #71, .T. ) ;
#26 = DIRECTION ( 'NONE',  ( 1.000000000000000000, 0.000000000000000000, 0.000000000000000000 ) ) ;
#27 = SURFACE_SIDE_STYLE ('',( #60 ) ) ;
#28 = CYLINDRICAL_SURFACE ( 'NONE', #23, 0.5000000000000000000 ) ;
#29 = PRODUCT ( 'Body020.step', 'Body020.step', '', ( #129 ) ) ;
#30 = APPLICATION_PROTOCOL_DEFINITION ( 'draft international standard', 'automotive_design', 1998, #90 ) ;
#31 = FACE_OUTER_BOUND ( 'NONE', #75, .T. ) ;
#32 =( GEOMETRIC_REPRESENTATION_CONTEXT ( 3 ) GLOBAL_UNCERTAINTY_ASSIGNED_CONTEXT ( ( #61 ) ) GLOBAL_UNIT_ASSIGNED_CONTEXT ( ( #88, #80, #10 ) ) REPRESENTATION_CONTEXT ( 'NONE', 'WORKASPACE' ) );
#33 = EDGE_CURVE ( 'NONE', #8, #123, #114, .T. ) ;
#34 = PLANE ( 'NONE',  #107 ) ;
#35 = PRESENTATION_LAYER_ASSIGNMENT (  '', '', ( #130 ) ) ;
#36 = FACE_OUTER_BOUND ( 'NONE', #12, .T. ) ;
#37 = DIRECTION ( 'NONE',  ( 0.000000000000000000, 0.000000000000000000, 1.000000000000000000 ) ) ;
#38 = VECTOR ( 'NONE', #63, 1000.000000000000000 ) ;
#39 = FILL_AREA_STYLE_COLOUR ( '', #19 ) ;
#40 = DIRECTION ( 'NONE',  ( 0.000000000000000000, 0.000000000000000000, 1.000000000000000000 ) ) ;
#41 = DIRECTION ( 'NONE',  ( 1.000000000000000000, 0.000000000000000000, 0.000000000000000000 ) ) ;
#42 = DIRECTION ( 'NONE',  ( 0.000000000000000000, 0.000000000000000000, 1.000000000000000000 ) ) ;
#43 = STYLED_ITEM ( 'NONE', ( #16 ), #50 ) ;
#44 = EDGE_CURVE ( 'NONE', #45, #55, #116, .T. ) ;
#45 = VERTEX_POINT ( 'NONE', #56 ) ;
#46 = DIRECTION ( 'NONE',  ( 0.000000000000000000, 0.000000000000000000, 1.000000000000000000 ) ) ;
#47 = FACE_OUTER_BOUND ( 'NONE', #125, .T. ) ;
#48 = ORIENTED_EDGE ( 'NONE', *, *, #136, .T. ) ;
#49 = LINE ( 'NONE', #15, #68 ) ;
#50 = ADVANCED_BREP_SHAPE_REPRESENTATION ( 'Body020.step', ( #81, #95 ), #14 ) ;
#51 = DIRECTION ( 'NONE',  ( 0.000000000000000000, 0.000000000000000000, 1.000000000000000000 ) ) ;
#52 = CARTESIAN_POINT ( 'NONE',  ( -3.204937810639000007E-17, 9.554720851393000478E-19, -0.1000000000000000056 ) ) ;
#53 = COLOUR_RGB ( '',0.9176470588235293713, 0.9176470588235293713, 0.9176470588235293713 ) ;
#54 =( NAMED_UNIT ( * ) PLANE_ANGLE_UNIT ( ) SI_UNIT ( $, .RADIAN. ) );
#55 = VERTEX_POINT ( 'NONE', #127 ) ;
#56 = CARTESIAN_POINT ( 'NONE',  ( 0.5000000000000000000, 0.000000000000000000, 0.000000000000000000 ) ) ;
#57 = CARTESIAN_POINT ( 'NONE',  ( -3.204937810639000007E-17, 9.554720851393000478E-19, 0.000000000000000000 ) ) ;
#58 = PRESENTATION_STYLE_ASSIGNMENT (( #138 ) ) ;
#59 = CARTESIAN_POINT ( 'NONE',  ( 0.000000000000000000, 0.000000000000000000, 0.000000000000000000 ) ) ;
#60 = SURFACE_STYLE_FILL_AREA ( #84 ) ;
#61 = UNCERTAINTY_MEASURE_WITH_UNIT (LENGTH_MEASURE( 1.000000000000000082E-05 ), #88, 'distance_accuracy_value', 'NONE');
#62 = APPLICATION_PROTOCOL_DEFINITION ( 'draft international standard', 'automotive_design', 1998, #109 ) ;
#63 = DIRECTION ( 'NONE',  ( 0.000000000000000000, 0.000000000000000000, 1.000000000000000000 ) ) ;
#64 = PRODUCT_DEFINITION_FORMATION_WITH_SPECIFIED_SOURCE ( 'Symmetric', '', #29, .NOT_KNOWN. ) ;
#65 = ADVANCED_FACE ( 'NONE', ( #36 ), #28, .T. ) ;
#66 =( GEOMETRIC_REPRESENTATION_CONTEXT ( 3 ) GLOBAL_UNCERTAINTY_ASSIGNED_CONTEXT ( ( #131 ) ) GLOBAL_UNIT_ASSIGNED_CONTEXT ( ( #105, #102, #104 ) ) REPRESENTATION_CONTEXT ( 'NONE', 'WORKASPACE' ) );
#67 = ORIENTED_EDGE ( 'NONE', *, *, #33, .F. ) ;
#68 = VECTOR ( 'NONE', #46, 1000.000000000000000 ) ;
#69 = CARTESIAN_POINT ( 'NONE',  ( 0.000000000000000000, 0.000000000000000000, 0.000000000000000000 ) ) ;
#70 = SHAPE_DEFINITION_REPRESENTATION ( #1, #50 ) ;
#71 = EDGE_CURVE ( 'NONE', #55, #45, #120, .T. ) ;
#72 = LINE ( 'NONE', #2, #38 ) ;
#73 = CIRCLE ( 'NONE', #134, 0.5000000000000000000 ) ;
#74 = ORIENTED_EDGE ( 'NONE', *, *, #94, .T. ) ;
#75 = EDGE_LOOP ( 'NONE', ( #83, #139, #137, #24 ) ) ;
#76 = ADVANCED_FACE ( 'NONE', ( #31 ), #113, .T. ) ;
#77 = SURFACE_SIDE_STYLE ('',( #78 ) ) ;
#78 = SURFACE_STYLE_FILL_AREA ( #135 ) ;
#79 = ORIENTED_EDGE ( 'NONE', *, *, #136, .F. ) ;
#80 =( NAMED_UNIT ( * ) PLANE_ANGLE_UNIT ( ) SI_UNIT ( $, .RADIAN. ) );
#81 = MANIFOLD_SOLID_BREP ( 'Body020[1]', #121 ) ;
#82 = AXIS2_PLACEMENT_3D ( 'NONE', #59, #111, #101 ) ;
#83 = ORIENTED_EDGE ( 'NONE', *, *, #94, .F. ) ;
#84 = FILL_AREA_STYLE ('',( #39 ) ) ;
#85 =( LENGTH_UNIT ( ) NAMED_UNIT ( * ) SI_UNIT ( .MILLI., .METRE. ) );
#86 = CARTESIAN_POINT ( 'NONE',  ( 0.5000000000000000000, 0.000000000000000000, -0.1000000000000000056 ) ) ;
#87 = ADVANCED_FACE ( 'NONE', ( #108 ), #34, .T. ) ;
#88 =( LENGTH_UNIT ( ) NAMED_UNIT ( * ) SI_UNIT ( .MILLI., .METRE. ) );
#89 = SURFACE_STYLE_USAGE ( .BOTH. , #27 ) ;
#90 = APPLICATION_CONTEXT ( 'automotive_design' ) ;
#91 = AXIS2_PLACEMENT_3D ( 'NONE', #9, #37, #26 ) ;
#92 = AXIS2_PLACEMENT_3D ( 'NONE', #103, #4, #122 ) ;
#93 =( NAMED_UNIT ( * ) SI_UNIT ( $, .STERADIAN. ) SOLID_ANGLE_UNIT ( ) );
#94 = EDGE_CURVE ( 'NONE', #8, #55, #72, .T. ) ;
#95 = AXIS2_PLACEMENT_3D ( 'NONE', #18, #20, #100 ) ;
#96 = DIRECTION ( 'NONE',  ( 1.000000000000000000, 0.000000000000000000, 0.000000000000000000 ) ) ;
#97 = ORIENTED_EDGE ( 'NONE', *, *, #140, .F. ) ;
#98 = EDGE_LOOP ( 'NONE', ( #13, #25 ) ) ;
#99 = MECHANICAL_DESIGN_GEOMETRIC_PRESENTATION_REPRESENTATION (  '', ( #43 ), #32 ) ;
#100 = DIRECTION ( 'NONE',  ( 1.000000000000000000, 0.000000000000000000, 0.000000000000000000 ) ) ;
#101 = DIRECTION ( 'NONE',  ( 1.000000000000000000, 0.000000000000000000, 0.000000000000000000 ) ) ;
#102 =( NAMED_UNIT ( * ) PLANE_ANGLE_UNIT ( ) SI_UNIT ( $, .RADIAN. ) );
#103 = CARTESIAN_POINT ( 'NONE',  ( 0.000000000000000000, 0.000000000000000000, 0.000000000000000000 ) ) ;
#104 =( NAMED_UNIT ( * ) SI_UNIT ( $, .STERADIAN. ) SOLID_ANGLE_UNIT ( ) );
#105 =( LENGTH_UNIT ( ) NAMED_UNIT ( * ) SI_UNIT ( .MILLI., .METRE. ) );
#106 = CARTESIAN_POINT ( 'NONE',  ( -0.5000000000000000000, 6.123233995736766036E-17, -0.1000000000000000056 ) ) ;
#107 = AXIS2_PLACEMENT_3D ( 'NONE', #57, #22, #6 ) ;
#108 = FACE_OUTER_BOUND ( 'NONE', #98, .T. ) ;
#109 = APPLICATION_CONTEXT ( 'automotive_design' ) ;
#110 = PLANE ( 'NONE',  #21 ) ;
#111 = DIRECTION ( 'NONE',  ( 0.000000000000000000, 0.000000000000000000, 1.000000000000000000 ) ) ;
#112 = MECHANICAL_DESIGN_GEOMETRIC_PRESENTATION_REPRESENTATION (  '', ( #130 ), #66 ) ;
#113 = CYLINDRICAL_SURFACE ( 'NONE', #92, 0.5000000000000000000 ) ;
#114 = CIRCLE ( 'NONE', #91, 0.5000000000000000000 ) ;
#115 = DIRECTION ( 'NONE',  ( 1.000000000000000000, 0.000000000000000000, 0.000000000000000000 ) ) ;
#116 = CIRCLE ( 'NONE', #11, 0.5000000000000000000 ) ;
#117 = ORIENTED_EDGE ( 'NONE', *, *, #44, .F. ) ;
#118 = DIRECTION ( 'NONE',  ( 0.000000000000000000, 0.000000000000000000, 1.000000000000000000 ) ) ;
#119 = ADVANCED_FACE ( 'NONE', ( #47 ), #110, .F. ) ;
#120 = CIRCLE ( 'NONE', #82, 0.5000000000000000000 ) ;
#121 = CLOSED_SHELL ( 'NONE', ( #65, #119, #87, #76 ) ) ;
#122 = DIRECTION ( 'NONE',  ( 1.000000000000000000, 0.000000000000000000, 0.000000000000000000 ) ) ;
#123 = VERTEX_POINT ( 'NONE', #86 ) ;
#124 = CARTESIAN_POINT ( 'NONE',  ( 0.000000000000000000, 0.000000000000000000, 0.000000000000000000 ) ) ;
#125 = EDGE_LOOP ( 'NONE', ( #79, #67 ) ) ;
#126 = PRESENTATION_LAYER_ASSIGNMENT (  '', '', ( #43 ) ) ;
#127 = CARTESIAN_POINT ( 'NONE',  ( -0.5000000000000000000, 6.123233995736766036E-17, 0.000000000000000000 ) ) ;
#128 = UNCERTAINTY_MEASURE_WITH_UNIT (LENGTH_MEASURE( 1.000000000000000082E-05 ), #85, 'distance_accuracy_value', 'NONE');
#129 = PRODUCT_CONTEXT ( 'NONE', #109, 'mechanical' ) ;
#130 = STYLED_ITEM ( 'NONE', ( #58 ), #81 ) ;
#131 = UNCERTAINTY_MEASURE_WITH_UNIT (LENGTH_MEASURE( 1.000000000000000082E-05 ), #105, 'distance_accuracy_value', 'NONE');
#132 = PRODUCT_DEFINITION_CONTEXT ( 'detailed design', #90, 'design' ) ;
#133 = PRODUCT_DEFINITION ( 'General', '', #64, #132 ) ;
#134 = AXIS2_PLACEMENT_3D ( 'NONE', #3, #42, #41 ) ;
#135 = FILL_AREA_STYLE ('',( #7 ) ) ;
#136 = EDGE_CURVE ( 'NONE', #123, #8, #73, .T. ) ;
#137 = ORIENTED_EDGE ( 'NONE', *, *, #140, .T. ) ;
#138 = SURFACE_STYLE_USAGE ( .BOTH. , #77 ) ;
#139 = ORIENTED_EDGE ( 'NONE', *, *, #33, .T. ) ;
#140 = EDGE_CURVE ( 'NONE', #123, #45, #49, .T. ) ;
ENDSEC;
END-ISO-10303-21;
