ISO-10303-21;
HEADER;
FILE_DESCRIPTION (( 'STEP AP214' ),
    '1' );
FILE_NAME ('Body009.step.STEP',
    '2026-01-08T13:34:34',
    ( '' ),
    ( '' ),
    'SwSTEP 2.0',
    'SolidWorks 2025',
    '' );
FILE_SCHEMA (( 'AUTOMOTIVE_DESIGN' ));
ENDSEC;

DATA;
#1 = CARTESIAN_POINT ( 'NONE',  ( 2.339999999999999858, 0.1000000000000000056, 0.5199999999999999067 ) ) ;
#2 = FACE_OUTER_BOUND ( 'NONE', #498, .T. ) ;
#3 = ADVANCED_FACE ( 'NONE', ( #497 ), #611, .T. ) ;
#4 = DIRECTION ( 'NONE',  ( 0.000000000000000000, -1.000000000000000000, 2.220446049250000002E-16 ) ) ;
#5 = PLANE ( 'NONE',  #720 ) ;
#6 = CARTESIAN_POINT ( 'NONE',  ( -2.309098300564000006, -0.1000000000000000056, 0.4699999999999999734 ) ) ;
#7 = AXIS2_PLACEMENT_3D ( 'NONE', #328, #633, #103 ) ;
#8 = EDGE_LOOP ( 'NONE', ( #642, #478, #130, #587 ) ) ;
#9 = CARTESIAN_POINT ( 'NONE',  ( -3.200000000000000178, 0.1000000000000000056, -1.387778780781000401E-17 ) ) ;
#10 = EDGE_CURVE ( 'NONE', #444, #363, #23, .T. ) ;
#11 = VERTEX_POINT ( 'NONE', #541 ) ;
#12 = CARTESIAN_POINT ( 'NONE',  ( 2.723606797749999586, 0.1000000000000000056, -5.551115123126000255E-18 ) ) ;
#13 = ADVANCED_FACE ( 'NONE', ( #249 ), #443, .F. ) ;
#14 = ORIENTED_EDGE ( 'NONE', *, *, #348, .F. ) ;
#15 = EDGE_LOOP ( 'NONE', ( #735, #298, #128, #37 ) ) ;
#16 = VECTOR ( 'NONE', #427, 1000.000000000000000 ) ;
#17 = EDGE_CURVE ( 'NONE', #560, #347, #440, .T. ) ;
#18 = AXIS2_PLACEMENT_3D ( 'NONE', #179, #640, #64 ) ;
#19 = CARTESIAN_POINT ( 'NONE',  ( 2.723606797750999675, -0.1000000000000000056, 0.1499999999999999944 ) ) ;
#20 = DIRECTION ( 'NONE',  ( 0.000000000000000000, -2.220446049250000002E-16, -1.000000000000000000 ) ) ;
#21 = VERTEX_POINT ( 'NONE', #374 ) ;
#22 = CYLINDRICAL_SURFACE ( 'NONE', #215, 0.05000000000000005135 ) ;
#23 = LINE ( 'NONE', #502, #529 ) ;
#24 = ORIENTED_EDGE ( 'NONE', *, *, #726, .T. ) ;
#25 = DIRECTION ( 'NONE',  ( 0.000000000000000000, -2.710505431213759606E-16, -1.000000000000000000 ) ) ;
#26 = DIRECTION ( 'NONE',  ( -0.4472135954999579277, -1.986027322597814402E-16, -0.8944271909999158554 ) ) ;
#27 = EDGE_LOOP ( 'NONE', ( #542, #591, #649, #135 ) ) ;
#28 = CARTESIAN_POINT ( 'NONE',  ( 2.723606797749999586, 0.1000000000000000056, 0.2000000000000000111 ) ) ;
#29 = AXIS2_PLACEMENT_3D ( 'NONE', #333, #47, #276 ) ;
#30 = PLANE ( 'NONE',  #569 ) ;
#31 = DIRECTION ( 'NONE',  ( 0.000000000000000000, -1.000000000000000000, 2.220446049250000002E-16 ) ) ;
#32 = ORIENTED_EDGE ( 'NONE', *, *, #585, .F. ) ;
#33 = EDGE_CURVE ( 'NONE', #86, #83, #544, .T. ) ;
#34 = LINE ( 'NONE', #625, #553 ) ;
#35 = DIRECTION ( 'NONE',  ( 0.000000000000000000, 2.220446049250000002E-16, 1.000000000000000000 ) ) ;
#36 = CARTESIAN_POINT ( 'NONE',  ( -3.200000000000000178, 0.1000000000000000056, -2.220446049249999817E-17 ) ) ;
#37 = ORIENTED_EDGE ( 'NONE', *, *, #154, .F. ) ;
#38 = LINE ( 'NONE', #269, #80 ) ;
#39 = CARTESIAN_POINT ( 'NONE',  ( 3.200000000000000178, 0.1000000000000000056, 0.1499999999999999944 ) ) ;
#40 = ORIENTED_EDGE ( 'NONE', *, *, #195, .F. ) ;
#41 = VECTOR ( 'NONE', #662, 1000.000000000000000 ) ;
#42 = EDGE_CURVE ( 'NONE', #309, #86, #732, .T. ) ;
#43 = CIRCLE ( 'NONE', #493, 0.04999999999999999584 ) ;
#44 = CARTESIAN_POINT ( 'NONE',  ( -3.200000000000000178, 0.1000000000000000056, 0.1499999999999999944 ) ) ;
#45 = ORIENTED_EDGE ( 'NONE', *, *, #173, .F. ) ;
#46 = DIRECTION ( 'NONE',  ( 0.000000000000000000, 2.220446049250000002E-16, 1.000000000000000000 ) ) ;
#47 = DIRECTION ( 'NONE',  ( 0.000000000000000000, 1.000000000000000000, -2.220446049250000002E-16 ) ) ;
#48 = ADVANCED_FACE ( 'NONE', ( #261 ), #265, .T. ) ;
#49 = CARTESIAN_POINT ( 'NONE',  ( -3.200000000000000178, -0.1000000000000000056, 0.1499999999999999944 ) ) ;
#50 = ORIENTED_EDGE ( 'NONE', *, *, #538, .F. ) ;
#51 = PRODUCT_CONTEXT ( 'NONE', #627, 'mechanical' ) ;
#52 = CARTESIAN_POINT ( 'NONE',  ( 2.309098300563000361, 0.1000000000000000056, 0.5199999999999999067 ) ) ;
#53 = LINE ( 'NONE', #512, #431 ) ;
#54 = CARTESIAN_POINT ( 'NONE',  ( 2.309098300564000006, -0.1000000000000000056, 0.6700000000000000400 ) ) ;
#55 = DIRECTION ( 'NONE',  ( 0.4472135954999579277, 1.986027322597814402E-16, 0.8944271909999158554 ) ) ;
#56 = MECHANICAL_DESIGN_GEOMETRIC_PRESENTATION_REPRESENTATION (  '', ( #708 ), #636 ) ;
#57 = EDGE_CURVE ( 'NONE', #387, #444, #211, .T. ) ;
#58 = SURFACE_STYLE_USAGE ( .BOTH. , #291 ) ;
#59 = DIRECTION ( 'NONE',  ( 1.000000000000000000, 0.000000000000000000, 0.000000000000000000 ) ) ;
#60 = VERTEX_POINT ( 'NONE', #666 ) ;
#61 = EDGE_CURVE ( 'NONE', #258, #294, #608, .T. ) ;
#62 = ORIENTED_EDGE ( 'NONE', *, *, #438, .F. ) ;
#63 = ORIENTED_EDGE ( 'NONE', *, *, #70, .T. ) ;
#64 = DIRECTION ( 'NONE',  ( 1.000000000000000000, 0.000000000000000000, 0.000000000000000000 ) ) ;
#65 = EDGE_CURVE ( 'NONE', #196, #168, #428, .T. ) ;
#66 = CARTESIAN_POINT ( 'NONE',  ( 2.339999999999999858, -0.1000000000000000056, 0.5199999999999999067 ) ) ;
#67 = VECTOR ( 'NONE', #381, 1000.000000000000000 ) ;
#68 = ORIENTED_EDGE ( 'NONE', *, *, #70, .F. ) ;
#69 = CARTESIAN_POINT ( 'NONE',  ( -2.339999999999999858, -0.1000000000000000056, 0.5199999999999999067 ) ) ;
#70 = EDGE_CURVE ( 'NONE', #209, #366, #655, .T. ) ;
#71 = EDGE_LOOP ( 'NONE', ( #555, #564, #441, #375 ) ) ;
#72 = FILL_AREA_STYLE_COLOUR ( '', #602 ) ;
#73 = ORIENTED_EDGE ( 'NONE', *, *, #206, .F. ) ;
#74 = LINE ( 'NONE', #558, #16 ) ;
#75 = ORIENTED_EDGE ( 'NONE', *, *, #538, .T. ) ;
#76 = AXIS2_PLACEMENT_3D ( 'NONE', #578, #219, #167 ) ;
#77 = VERTEX_POINT ( 'NONE', #133 ) ;
#78 = VECTOR ( 'NONE', #393, 1000.000000000000000 ) ;
#79 = EDGE_CURVE ( 'NONE', #429, #309, #148, .T. ) ;
#80 = VECTOR ( 'NONE', #514, 1000.000000000000000 ) ;
#81 = FACE_OUTER_BOUND ( 'NONE', #71, .T. ) ;
#82 = LINE ( 'NONE', #204, #658 ) ;
#83 = VERTEX_POINT ( 'NONE', #252 ) ;
#84 = CARTESIAN_POINT ( 'NONE',  ( -2.339999999999999858, 0.1000000000000000056, 0.5199999999999999067 ) ) ;
#85 = DIRECTION ( 'NONE',  ( 0.000000000000000000, -2.032879073410320814E-16, -1.000000000000000000 ) ) ;
#86 = VERTEX_POINT ( 'NONE', #386 ) ;
#87 = CARTESIAN_POINT ( 'NONE',  ( -2.692705098314000178, 0.1000000000000000056, 0.1499999999999999944 ) ) ;
#88 = VERTEX_POINT ( 'NONE', #488 ) ;
#89 = ORIENTED_EDGE ( 'NONE', *, *, #600, .T. ) ;
#90 = DIRECTION ( 'NONE',  ( -1.000000000000000000, 0.000000000000000000, 0.000000000000000000 ) ) ;
#91 = AXIS2_PLACEMENT_3D ( 'NONE', #325, #563, #575 ) ;
#92 = VECTOR ( 'NONE', #90, 1000.000000000000000 ) ;
#93 = DIRECTION ( 'NONE',  ( 0.000000000000000000, 1.000000000000000000, -2.220446049250000002E-16 ) ) ;
#94 = CIRCLE ( 'NONE', #297, 0.04999999999999999584 ) ;
#95 = CARTESIAN_POINT ( 'NONE',  ( -2.309098300563000361, 0.1000000000000000056, 0.4699999999999999734 ) ) ;
#96 = ORIENTED_EDGE ( 'NONE', *, *, #119, .T. ) ;
#97 = PLANE ( 'NONE',  #687 ) ;
#98 = CARTESIAN_POINT ( 'NONE',  ( 2.309098300563000361, 0.1000000000000000056, 0.4699999999999999734 ) ) ;
#99 = ORIENTED_EDGE ( 'NONE', *, *, #524, .T. ) ;
#100 = EDGE_CURVE ( 'NONE', #363, #188, #492, .T. ) ;
#101 = FACE_OUTER_BOUND ( 'NONE', #629, .T. ) ;
#102 = FACE_OUTER_BOUND ( 'NONE', #311, .T. ) ;
#103 = DIRECTION ( 'NONE',  ( -0.8944271909999159664, 6.776263578034395317E-17, 0.4472135954999577057 ) ) ;
#104 = DIRECTION ( 'NONE',  ( 0.000000000000000000, -1.000000000000000000, 2.220446049250000002E-16 ) ) ;
#105 = EDGE_CURVE ( 'NONE', #294, #11, #491, .T. ) ;
#106 = CARTESIAN_POINT ( 'NONE',  ( 2.544721359550000450, -0.1000000000000000056, 0.1105572808999999990 ) ) ;
#107 = VECTOR ( 'NONE', #320, 1000.000000000000000 ) ;
#108 = CARTESIAN_POINT ( 'NONE',  ( 2.309098300564000006, 0.1000000000000000056, 0.6700000000000000400 ) ) ;
#109 = CARTESIAN_POINT ( 'NONE',  ( 2.600000000000000089, 0.1000000000000000056, -2.220446049249999817E-17 ) ) ;
#110 = CARTESIAN_POINT ( 'NONE',  ( -2.723606797750999675, -0.1000000000000000056, 0.2000000000000000111 ) ) ;
#111 = LINE ( 'NONE', #631, #592 ) ;
#112 = ORIENTED_EDGE ( 'NONE', *, *, #576, .T. ) ;
#113 = LINE ( 'NONE', #283, #480 ) ;
#114 = DIRECTION ( 'NONE',  ( 0.000000000000000000, -1.000000000000000000, 2.220446049250000002E-16 ) ) ;
#115 = VECTOR ( 'NONE', #559, 1000.000000000000000 ) ;
#116 = PRESENTATION_STYLE_ASSIGNMENT (( #58 ) ) ;
#117 = ORIENTED_EDGE ( 'NONE', *, *, #693, .F. ) ;
#118 = APPLICATION_PROTOCOL_DEFINITION ( 'draft international standard', 'automotive_design', 1998, #627 ) ;
#119 = EDGE_CURVE ( 'NONE', #527, #123, #82, .T. ) ;
#120 = DIRECTION ( 'NONE',  ( -0.000000000000000000, 1.000000000000000000, 0.000000000000000000 ) ) ;
#121 = ORIENTED_EDGE ( 'NONE', *, *, #324, .T. ) ;
#122 = EDGE_CURVE ( 'NONE', #168, #336, #436, .T. ) ;
#123 = VERTEX_POINT ( 'NONE', #623 ) ;
#124 = VECTOR ( 'NONE', #59, 1000.000000000000000 ) ;
#125 = AXIS2_PLACEMENT_3D ( 'NONE', #630, #449, #267 ) ;
#126 = EDGE_LOOP ( 'NONE', ( #378, #638, #89, #695 ) ) ;
#127 = CARTESIAN_POINT ( 'NONE',  ( 3.200000000000000178, -0.1000000000000000056, 2.220446049249999817E-17 ) ) ;
#128 = ORIENTED_EDGE ( 'NONE', *, *, #380, .T. ) ;
#129 = DIRECTION ( 'NONE',  ( 0.000000000000000000, -1.000000000000000000, 2.220446049250000002E-16 ) ) ;
#130 = ORIENTED_EDGE ( 'NONE', *, *, #517, .F. ) ;
#131 = ORIENTED_EDGE ( 'NONE', *, *, #367, .F. ) ;
#132 = CARTESIAN_POINT ( 'NONE',  ( 3.200000000000000178, 0.1000000000000000056, -2.220446049249999817E-17 ) ) ;
#133 = CARTESIAN_POINT ( 'NONE',  ( 2.723606797749999586, 0.1000000000000000056, -5.551115123126000255E-18 ) ) ;
#134 = CIRCLE ( 'NONE', #568, 0.05000000000000002359 ) ;
#135 = ORIENTED_EDGE ( 'NONE', *, *, #635, .F. ) ;
#136 = AXIS2_PLACEMENT_3D ( 'NONE', #110, #285, #218 ) ;
#137 = PRODUCT_DEFINITION_FORMATION_WITH_SPECIFIED_SOURCE ( 'Symmetric', '', #618, .NOT_KNOWN. ) ;
#138 = DIRECTION ( 'NONE',  ( 0.000000000000000000, -1.000000000000000000, 2.220446049250000002E-16 ) ) ;
#139 = DIRECTION ( 'NONE',  ( 0.000000000000000000, -1.000000000000000000, 2.220446049250000002E-16 ) ) ;
#140 = ORIENTED_EDGE ( 'NONE', *, *, #689, .T. ) ;
#141 = ADVANCED_FACE ( 'NONE', ( #572 ), #404, .T. ) ;
#142 = PLANE ( 'NONE',  #581 ) ;
#143 = DIRECTION ( 'NONE',  ( 0.4472135954999579277, -1.986027322597814402E-16, -0.8944271909999158554 ) ) ;
#144 = ORIENTED_EDGE ( 'NONE', *, *, #678, .F. ) ;
#145 = FACE_OUTER_BOUND ( 'NONE', #624, .T. ) ;
#146 = ADVANCED_FACE ( 'NONE', ( #281 ), #394, .F. ) ;
#147 = DIRECTION ( 'NONE',  ( 0.000000000000000000, -1.000000000000000000, 2.220446049250000002E-16 ) ) ;
#148 = LINE ( 'NONE', #673, #67 ) ;
#149 = ORIENTED_EDGE ( 'NONE', *, *, #561, .F. ) ;
#150 = CARTESIAN_POINT ( 'NONE',  ( 2.692705098314000178, 0.1000000000000000056, 0.1499999999999999944 ) ) ;
#151 = VECTOR ( 'NONE', #194, 1000.000000000000000 ) ;
#152 = MECHANICAL_DESIGN_GEOMETRIC_PRESENTATION_REPRESENTATION (  '', ( #189 ), #570 ) ;
#153 = DIRECTION ( 'NONE',  ( -3.351118103233789684E-30, -1.000000000000000000, 2.220446049250015039E-16 ) ) ;
#154 = EDGE_CURVE ( 'NONE', #294, #573, #53, .T. ) ;
#155 = ORIENTED_EDGE ( 'NONE', *, *, #585, .T. ) ;
#156 = DIRECTION ( 'NONE',  ( 0.000000000000000000, -2.032879073410320814E-16, -1.000000000000000000 ) ) ;
#157 = DIRECTION ( 'NONE',  ( 0.000000000000000000, -1.000000000000000000, 2.220446049250000002E-16 ) ) ;
#158 = ORIENTED_EDGE ( 'NONE', *, *, #547, .F. ) ;
#159 = CYLINDRICAL_SURFACE ( 'NONE', #187, 0.2000000000000000111 ) ;
#160 = CARTESIAN_POINT ( 'NONE',  ( 3.200000000000000178, 0.1000000000000000056, 0.1499999999999999944 ) ) ;
#161 = DIRECTION ( 'NONE',  ( 1.000000000000000000, 0.000000000000000000, 0.000000000000000000 ) ) ;
#162 = VERTEX_POINT ( 'NONE', #275 ) ;
#163 = DIRECTION ( 'NONE',  ( 0.000000000000000000, 1.000000000000000000, -2.220446049250000002E-16 ) ) ;
#164 = AXIS2_PLACEMENT_3D ( 'NONE', #98, #157, #389 ) ;
#165 = CARTESIAN_POINT ( 'NONE',  ( 2.723606797750999675, -0.1000000000000000056, 0.2000000000000000111 ) ) ;
#166 = AXIS2_PLACEMENT_3D ( 'NONE', #540, #207, #715 ) ;
#167 = DIRECTION ( 'NONE',  ( 0.000000000000000000, -2.710505431213761085E-16, -1.000000000000000000 ) ) ;
#168 = VERTEX_POINT ( 'NONE', #49 ) ;
#169 = CARTESIAN_POINT ( 'NONE',  ( 2.692705098314000178, 0.1000000000000000056, 0.1499999999999999944 ) ) ;
#170 = LINE ( 'NONE', #402, #247 ) ;
#171 = DIRECTION ( 'NONE',  ( 0.000000000000000000, 2.220446049250000002E-16, 1.000000000000000000 ) ) ;
#172 = CARTESIAN_POINT ( 'NONE',  ( -2.353819660112999923, 0.1000000000000000056, 0.4923606797749999209 ) ) ;
#173 = EDGE_CURVE ( 'NONE', #241, #429, #421, .T. ) ;
#174 = CARTESIAN_POINT ( 'NONE',  ( -2.723606797749999586, 0.1000000000000000056, 7.771561172376000380E-17 ) ) ;
#175 = VECTOR ( 'NONE', #230, 1000.000000000000000 ) ;
#176 = PRESENTATION_STYLE_ASSIGNMENT (( #422 ) ) ;
#177 = EDGE_CURVE ( 'NONE', #303, #241, #111, .T. ) ;
#178 = ORIENTED_EDGE ( 'NONE', *, *, #100, .T. ) ;
#179 = CARTESIAN_POINT ( 'NONE',  ( 0.000000000000000000, 0.000000000000000000, 0.000000000000000000 ) ) ;
#180 = PLANE ( 'NONE',  #507 ) ;
#181 = EDGE_LOOP ( 'NONE', ( #339, #350, #476, #68 ) ) ;
#182 = DIRECTION ( 'NONE',  ( 0.000000000000000000, -2.032879073410320814E-16, -1.000000000000000000 ) ) ;
#183 = ORIENTED_EDGE ( 'NONE', *, *, #420, .T. ) ;
#184 = ORIENTED_EDGE ( 'NONE', *, *, #206, .T. ) ;
#185 = DIRECTION ( 'NONE',  ( 1.000000000000000000, 0.000000000000000000, 0.000000000000000000 ) ) ;
#186 = VECTOR ( 'NONE', #716, 1000.000000000000000 ) ;
#187 = AXIS2_PLACEMENT_3D ( 'NONE', #28, #621, #156 ) ;
#188 = VERTEX_POINT ( 'NONE', #515 ) ;
#189 = STYLED_ITEM ( 'NONE', ( #116 ), #556 ) ;
#190 = EDGE_CURVE ( 'NONE', #366, #168, #694, .T. ) ;
#191 = DIRECTION ( 'NONE',  ( 0.8944271909999160775, -6.776263578034395317E-17, -0.4472135954999575946 ) ) ;
#192 = VERTEX_POINT ( 'NONE', #39 ) ;
#193 = ORIENTED_EDGE ( 'NONE', *, *, #61, .T. ) ;
#194 = DIRECTION ( 'NONE',  ( 0.000000000000000000, -1.000000000000000000, 2.220446049250000002E-16 ) ) ;
#195 = EDGE_CURVE ( 'NONE', #192, #162, #682, .T. ) ;
#196 = VERTEX_POINT ( 'NONE', #44 ) ;
#197 = ORIENTED_EDGE ( 'NONE', *, *, #348, .T. ) ;
#198 = PLANE ( 'NONE',  #308 ) ;
#199 = CARTESIAN_POINT ( 'NONE',  ( -2.309098300563000361, 0.1000000000000000056, 0.5199999999999999067 ) ) ;
#200 = ORIENTED_EDGE ( 'NONE', *, *, #289, .T. ) ;
#201 = EDGE_CURVE ( 'NONE', #253, #722, #743, .T. ) ;
#202 = VECTOR ( 'NONE', #296, 1000.000000000000000 ) ;
#203 = DIRECTION ( 'NONE',  ( -0.4472135954999579277, -1.986027322597814402E-16, -0.8944271909999158554 ) ) ;
#204 = CARTESIAN_POINT ( 'NONE',  ( 2.309098300563000361, 0.1000000000000000056, 0.5199999999999999067 ) ) ;
#205 = ORIENTED_EDGE ( 'NONE', *, *, #173, .T. ) ;
#206 = EDGE_CURVE ( 'NONE', #303, #714, #686, .T. ) ;
#207 = DIRECTION ( 'NONE',  ( 3.351118103233789684E-30, -1.000000000000000000, 2.220446049250015039E-16 ) ) ;
#208 = DIRECTION ( 'NONE',  ( -0.8944271909999162995, 0.000000000000000000, 0.4472135954999570395 ) ) ;
#209 = VERTEX_POINT ( 'NONE', #270 ) ;
#210 = DIRECTION ( 'NONE',  ( 1.000000000000000000, 0.000000000000000000, 0.000000000000000000 ) ) ;
#211 = LINE ( 'NONE', #432, #186 ) ;
#212 = ORIENTED_EDGE ( 'NONE', *, *, #122, .F. ) ;
#213 = LINE ( 'NONE', #454, #92 ) ;
#214 = AXIS2_PLACEMENT_3D ( 'NONE', #335, #277, #224 ) ;
#215 = AXIS2_PLACEMENT_3D ( 'NONE', #501, #435, #665 ) ;
#216 = PRODUCT_DEFINITION ( 'General', '', #137, #684 ) ;
#217 = DIRECTION ( 'NONE',  ( 0.000000000000000000, -2.220446049250000002E-16, -1.000000000000000000 ) ) ;
#218 = DIRECTION ( 'NONE',  ( 0.000000000000000000, -2.710505431213761085E-16, -1.000000000000000000 ) ) ;
#219 = DIRECTION ( 'NONE',  ( 0.000000000000000000, 1.000000000000000000, -2.220446049250000002E-16 ) ) ;
#220 = ORIENTED_EDGE ( 'NONE', *, *, #499, .F. ) ;
#221 = VERTEX_POINT ( 'NONE', #742 ) ;
#222 = DIRECTION ( 'NONE',  ( 0.000000000000000000, -1.000000000000000000, 2.220446049250000002E-16 ) ) ;
#223 = LINE ( 'NONE', #108, #469 ) ;
#224 = DIRECTION ( 'NONE',  ( 0.000000000000000000, -2.032879073410320814E-16, -1.000000000000000000 ) ) ;
#225 = ORIENTED_EDGE ( 'NONE', *, *, #462, .F. ) ;
#226 = ADVANCED_FACE ( 'NONE', ( #287 ), #229, .T. ) ;
#227 = VECTOR ( 'NONE', #619, 1000.000000000000000 ) ;
#228 = FACE_OUTER_BOUND ( 'NONE', #609, .T. ) ;
#229 = CYLINDRICAL_SURFACE ( 'NONE', #539, 0.2000000000000000389 ) ;
#230 = DIRECTION ( 'NONE',  ( -1.000000000000000000, 0.000000000000000000, 0.000000000000000000 ) ) ;
#231 = SURFACE_STYLE_FILL_AREA ( #528 ) ;
#232 = VERTEX_POINT ( 'NONE', #106 ) ;
#233 =( NAMED_UNIT ( * ) SI_UNIT ( $, .STERADIAN. ) SOLID_ANGLE_UNIT ( ) );
#234 = CIRCLE ( 'NONE', #603, 0.2000000000000000389 ) ;
#235 = CARTESIAN_POINT ( 'NONE',  ( -2.238117811259999965E-16, 0.1000000000000000056, 0.4620732295020000269 ) ) ;
#236 = CIRCLE ( 'NONE', #29, 0.2000000000000000111 ) ;
#237 = EDGE_CURVE ( 'NONE', #573, #494, #457, .T. ) ;
#238 = CIRCLE ( 'NONE', #346, 0.05000000000000002359 ) ;
#239 = ORIENTED_EDGE ( 'NONE', *, *, #453, .F. ) ;
#240 = DIRECTION ( 'NONE',  ( 0.000000000000000000, 2.220446049250000002E-16, 1.000000000000000000 ) ) ;
#241 = VERTEX_POINT ( 'NONE', #513 ) ;
#242 = ORIENTED_EDGE ( 'NONE', *, *, #79, .T. ) ;
#243 = UNCERTAINTY_MEASURE_WITH_UNIT (LENGTH_MEASURE( 1.000000000000000082E-05 ), #299, 'distance_accuracy_value', 'NONE');
#244 = CARTESIAN_POINT ( 'NONE',  ( 2.309098300563000361, -0.1000000000000000056, 0.4699999999999999734 ) ) ;
#245 = APPLICATION_CONTEXT ( 'automotive_design' ) ;
#246 = ORIENTED_EDGE ( 'NONE', *, *, #278, .F. ) ;
#247 = VECTOR ( 'NONE', #731, 1000.000000000000000 ) ;
#248 = ORIENTED_EDGE ( 'NONE', *, *, #292, .T. ) ;
#249 = FACE_OUTER_BOUND ( 'NONE', #27, .T. ) ;
#250 = ORIENTED_EDGE ( 'NONE', *, *, #312, .F. ) ;
#251 = CARTESIAN_POINT ( 'NONE',  ( 3.200000000000000178, -0.1000000000000000056, 0.1499999999999999944 ) ) ;
#252 = CARTESIAN_POINT ( 'NONE',  ( 2.678885438201000113, 0.1000000000000000056, 0.1776393202250000081 ) ) ;
#253 = VERTEX_POINT ( 'NONE', #685 ) ;
#254 = PLANE ( 'NONE',  #125 ) ;
#255 = CARTESIAN_POINT ( 'NONE',  ( -2.600000000000000089, -0.1000000000000000056, 1.387778780781000401E-17 ) ) ;
#256 = CARTESIAN_POINT ( 'NONE',  ( -3.200000000000000178, 0.1000000000000000056, 0.1499999999999999944 ) ) ;
#257 = VECTOR ( 'NONE', #217, 1000.000000000000000 ) ;
#258 = VERTEX_POINT ( 'NONE', #733 ) ;
#259 = AXIS2_PLACEMENT_3D ( 'NONE', #392, #327, #571 ) ;
#260 = DIRECTION ( 'NONE',  ( 1.110223024625041909E-16, 1.000000000000000000, 0.000000000000000000 ) ) ;
#261 = FACE_OUTER_BOUND ( 'NONE', #717, .T. ) ;
#262 = ORIENTED_EDGE ( 'NONE', *, *, #657, .T. ) ;
#263 = DIRECTION ( 'NONE',  ( 0.000000000000000000, -2.710505431213761085E-16, -1.000000000000000000 ) ) ;
#264 = FACE_OUTER_BOUND ( 'NONE', #729, .T. ) ;
#265 = PLANE ( 'NONE',  #580 ) ;
#266 = ORIENTED_EDGE ( 'NONE', *, *, #65, .T. ) ;
#267 = DIRECTION ( 'NONE',  ( 0.000000000000000000, -1.000000000000000000, 2.220446049250000002E-16 ) ) ;
#268 = ADVANCED_FACE ( 'NONE', ( #455 ), #401, .T. ) ;
#269 = CARTESIAN_POINT ( 'NONE',  ( 2.723606797750999675, 0.1000000000000000056, 0.1499999999999999944 ) ) ;
#270 = CARTESIAN_POINT ( 'NONE',  ( -3.200000000000000178, 0.1000000000000000056, -2.220446049249999817E-17 ) ) ;
#271 = ORIENTED_EDGE ( 'NONE', *, *, #576, .F. ) ;
#272 = VECTOR ( 'NONE', #4, 1000.000000000000000 ) ;
#273 = VECTOR ( 'NONE', #203, 1000.000000000000000 ) ;
#274 = LINE ( 'NONE', #736, #78 ) ;
#275 = CARTESIAN_POINT ( 'NONE',  ( 3.200000000000000178, 0.1000000000000000056, -2.220446049249999817E-17 ) ) ;
#276 = DIRECTION ( 'NONE',  ( 0.000000000000000000, -2.032879073410320814E-16, -1.000000000000000000 ) ) ;
#277 = DIRECTION ( 'NONE',  ( 0.000000000000000000, 1.000000000000000000, -2.220446049250000002E-16 ) ) ;
#278 = EDGE_CURVE ( 'NONE', #527, #560, #520, .T. ) ;
#279 = CARTESIAN_POINT ( 'NONE',  ( 2.353819660112999923, -0.1000000000000000056, 0.4923606797749999209 ) ) ;
#280 = DIRECTION ( 'NONE',  ( 0.000000000000000000, -1.000000000000000000, 2.220446049250000002E-16 ) ) ;
#281 = FACE_OUTER_BOUND ( 'NONE', #652, .T. ) ;
#282 = EDGE_CURVE ( 'NONE', #11, #494, #464, .T. ) ;
#283 = CARTESIAN_POINT ( 'NONE',  ( -2.723606797750999675, 0.1000000000000000056, 0.1499999999999999944 ) ) ;
#284 = AXIS2_PLACEMENT_3D ( 'NONE', #109, #338, #691 ) ;
#285 = DIRECTION ( 'NONE',  ( 0.000000000000000000, 1.000000000000000000, -2.220446049250000002E-16 ) ) ;
#286 = AXIS2_PLACEMENT_3D ( 'NONE', #597, #702, #358 ) ;
#287 = FACE_OUTER_BOUND ( 'NONE', #656, .T. ) ;
#288 =( NAMED_UNIT ( * ) PLANE_ANGLE_UNIT ( ) SI_UNIT ( $, .RADIAN. ) );
#289 = EDGE_CURVE ( 'NONE', #588, #537, #345, .T. ) ;
#290 = FILL_AREA_STYLE ('',( #72 ) ) ;
#291 = SURFACE_SIDE_STYLE ('',( #231 ) ) ;
#292 = EDGE_CURVE ( 'NONE', #77, #188, #407, .T. ) ;
#293 = CARTESIAN_POINT ( 'NONE',  ( -2.432705098313999947, -0.1000000000000000056, 0.6700000000000000400 ) ) ;
#294 = VERTEX_POINT ( 'NONE', #349 ) ;
#295 = LINE ( 'NONE', #356, #331 ) ;
#296 = DIRECTION ( 'NONE',  ( -1.000000000000000000, 0.000000000000000000, 0.000000000000000000 ) ) ;
#297 = AXIS2_PLACEMENT_3D ( 'NONE', #557, #446, #263 ) ;
#298 = ORIENTED_EDGE ( 'NONE', *, *, #635, .T. ) ;
#299 =( LENGTH_UNIT ( ) NAMED_UNIT ( * ) SI_UNIT ( .MILLI., .METRE. ) );
#300 = EDGE_LOOP ( 'NONE', ( #149, #266, #615, #620 ) ) ;
#301 = MANIFOLD_SOLID_BREP ( 'Body009[1]', #506 ) ;
#302 = DIRECTION ( 'NONE',  ( 0.000000000000000000, 1.000000000000000000, -2.220446049250000002E-16 ) ) ;
#303 = VERTEX_POINT ( 'NONE', #353 ) ;
#304 = LINE ( 'NONE', #546, #397 ) ;
#305 = VECTOR ( 'NONE', #737, 1000.000000000000000 ) ;
#306 = CARTESIAN_POINT ( 'NONE',  ( 3.200000000000000178, 0.1000000000000000056, -2.220446049249999817E-17 ) ) ;
#307 = VECTOR ( 'NONE', #143, 1000.000000000000000 ) ;
#308 = AXIS2_PLACEMENT_3D ( 'NONE', #364, #35, #138 ) ;
#309 = VERTEX_POINT ( 'NONE', #583 ) ;
#310 = ORIENTED_EDGE ( 'NONE', *, *, #651, .T. ) ;
#311 = EDGE_LOOP ( 'NONE', ( #310, #653, #62, #40 ) ) ;
#312 = EDGE_CURVE ( 'NONE', #86, #616, #522, .T. ) ;
#313 = CARTESIAN_POINT ( 'NONE',  ( -2.723606797749999586, -0.1000000000000000056, 1.165734175856000018E-16 ) ) ;
#314 = DIRECTION ( 'NONE',  ( 0.000000000000000000, -1.000000000000000000, 2.220446049250000002E-16 ) ) ;
#315 = ORIENTED_EDGE ( 'NONE', *, *, #42, .T. ) ;
#316 = CARTESIAN_POINT ( 'NONE',  ( -2.723606797749999586, 0.1000000000000000056, 0.2000000000000000111 ) ) ;
#317 = CARTESIAN_POINT ( 'NONE',  ( 2.309098300564000006, 0.1000000000000000056, 0.4699999999999999734 ) ) ;
#318 = AXIS2_PLACEMENT_3D ( 'NONE', #370, #605, #85 ) ;
#319 = ORIENTED_EDGE ( 'NONE', *, *, #495, .F. ) ;
#320 = DIRECTION ( 'NONE',  ( 0.000000000000000000, -1.000000000000000000, 2.220446049250000002E-16 ) ) ;
#321 = CARTESIAN_POINT ( 'NONE',  ( -2.309098300564000006, 0.1000000000000000056, 0.6700000000000000400 ) ) ;
#322 = CARTESIAN_POINT ( 'NONE',  ( 2.432705098313999947, 0.1000000000000000056, 0.6700000000000000400 ) ) ;
#323 = ORIENTED_EDGE ( 'NONE', *, *, #693, .T. ) ;
#324 = EDGE_CURVE ( 'NONE', #77, #545, #698, .T. ) ;
#325 = CARTESIAN_POINT ( 'NONE',  ( -2.309098300564000006, 0.1000000000000000056, 0.4699999999999999734 ) ) ;
#326 = ORIENTED_EDGE ( 'NONE', *, *, #561, .T. ) ;
#327 = DIRECTION ( 'NONE',  ( -0.000000000000000000, 1.000000000000000000, 0.000000000000000000 ) ) ;
#328 = CARTESIAN_POINT ( 'NONE',  ( -2.309098300564000006, 0.1000000000000000056, 0.4699999999999999734 ) ) ;
#329 = ORIENTED_EDGE ( 'NONE', *, *, #177, .T. ) ;
#330 = LINE ( 'NONE', #442, #332 ) ;
#331 = VECTOR ( 'NONE', #403, 1000.000000000000000 ) ;
#332 = VECTOR ( 'NONE', #676, 1000.000000000000000 ) ;
#333 = CARTESIAN_POINT ( 'NONE',  ( 2.723606797749999586, -0.1000000000000000056, 0.2000000000000000111 ) ) ;
#334 = EDGE_CURVE ( 'NONE', #123, #722, #134, .T. ) ;
#335 = CARTESIAN_POINT ( 'NONE',  ( -2.723606797749999586, -0.1000000000000000056, 0.2000000000000000111 ) ) ;
#336 = VERTEX_POINT ( 'NONE', #466 ) ;
#337 = EDGE_CURVE ( 'NONE', #88, #588, #234, .T. ) ;
#338 = DIRECTION ( 'NONE',  ( -0.8944271909999159664, -9.930136612988068677E-17, -0.4472135954999579832 ) ) ;
#339 = ORIENTED_EDGE ( 'NONE', *, *, #672, .F. ) ;
#340 = CARTESIAN_POINT ( 'NONE',  ( 2.309098300564000006, -0.1000000000000000056, 0.4699999999999999734 ) ) ;
#341 = CARTESIAN_POINT ( 'NONE',  ( 2.353819660112999923, 0.1000000000000000056, 0.4923606797749999209 ) ) ;
#342 =( LENGTH_UNIT ( ) NAMED_UNIT ( * ) SI_UNIT ( .MILLI., .METRE. ) );
#343 = LINE ( 'NONE', #172, #458 ) ;
#344 = CIRCLE ( 'NONE', #674, 0.05000000000000002359 ) ;
#345 = LINE ( 'NONE', #293, #124 ) ;
#346 = AXIS2_PLACEMENT_3D ( 'NONE', #740, #163, #584 ) ;
#347 = VERTEX_POINT ( 'NONE', #410 ) ;
#348 = EDGE_CURVE ( 'NONE', #429, #588, #417, .T. ) ;
#349 = CARTESIAN_POINT ( 'NONE',  ( -2.544721359550000450, 0.1000000000000000056, 0.1105572808999999990 ) ) ;
#350 = ORIENTED_EDGE ( 'NONE', *, *, #282, .T. ) ;
#351 = EDGE_LOOP ( 'NONE', ( #472, #489, #323, #437 ) ) ;
#352 = APPLICATION_PROTOCOL_DEFINITION ( 'draft international standard', 'automotive_design', 1998, #245 ) ;
#353 = CARTESIAN_POINT ( 'NONE',  ( -2.678885438201000113, 0.1000000000000000056, 0.1776393202250000081 ) ) ;
#354 = ORIENTED_EDGE ( 'NONE', *, *, #337, .F. ) ;
#355 = ORIENTED_EDGE ( 'NONE', *, *, #362, .T. ) ;
#356 = CARTESIAN_POINT ( 'NONE',  ( -2.692705098314000178, -0.1000000000000000056, 0.1499999999999999944 ) ) ;
#357 = ADVANCED_FACE ( 'NONE', ( #637 ), #180, .T. ) ;
#358 = DIRECTION ( 'NONE',  ( 0.000000000000000000, 0.000000000000000000, 1.000000000000000000 ) ) ;
#359 = AXIS2_PLACEMENT_3D ( 'NONE', #340, #681, #622 ) ;
#360 = ORIENTED_EDGE ( 'NONE', *, *, #190, .F. ) ;
#361 = PLANE ( 'NONE',  #286 ) ;
#362 = EDGE_CURVE ( 'NONE', #123, #347, #700, .T. ) ;
#363 = VERTEX_POINT ( 'NONE', #127 ) ;
#364 = CARTESIAN_POINT ( 'NONE',  ( -3.200000000000000178, 0.1000000000000000056, 0.1499999999999999944 ) ) ;
#365 = EDGE_LOOP ( 'NONE', ( #183, #639, #14, #45 ) ) ;
#366 = VERTEX_POINT ( 'NONE', #530 ) ;
#367 = EDGE_CURVE ( 'NONE', #209, #196, #534, .T. ) ;
#368 = LINE ( 'NONE', #132, #479 ) ;
#369 = AXIS2_PLACEMENT_3D ( 'NONE', #648, #302, #182 ) ;
#370 = CARTESIAN_POINT ( 'NONE',  ( -2.723606797749999586, 0.1000000000000000056, 0.2000000000000000111 ) ) ;
#371 = AXIS2_PLACEMENT_3D ( 'NONE', #607, #93, #25 ) ;
#372 = ORIENTED_EDGE ( 'NONE', *, *, #57, .T. ) ;
#373 = ADVANCED_FACE ( 'NONE', ( #643 ), #361, .T. ) ;
#374 = CARTESIAN_POINT ( 'NONE',  ( -2.678885438201000113, -0.1000000000000000056, 0.1776393202250000081 ) ) ;
#375 = ORIENTED_EDGE ( 'NONE', *, *, #105, .F. ) ;
#376 = DIRECTION ( 'NONE',  ( 0.000000000000000000, 1.000000000000000000, -2.220446049250000002E-16 ) ) ;
#377 = DIRECTION ( 'NONE',  ( 0.000000000000000000, -1.000000000000000000, 2.220446049250000002E-16 ) ) ;
#378 = ORIENTED_EDGE ( 'NONE', *, *, #177, .F. ) ;
#379 = DIRECTION ( 'NONE',  ( -3.351118103233789684E-30, -1.000000000000000000, 2.220446049250015039E-16 ) ) ;
#380 = EDGE_CURVE ( 'NONE', #423, #573, #594, .T. ) ;
#381 = DIRECTION ( 'NONE',  ( 1.000000000000000000, 0.000000000000000000, 0.000000000000000000 ) ) ;
#382 = PRESENTATION_LAYER_ASSIGNMENT (  '', '', ( #708 ) ) ;
#383 = ORIENTED_EDGE ( 'NONE', *, *, #334, .F. ) ;
#384 = FACE_OUTER_BOUND ( 'NONE', #486, .T. ) ;
#385 = DIRECTION ( 'NONE',  ( 0.000000000000000000, -1.000000000000000000, 2.220446049250000002E-16 ) ) ;
#386 = CARTESIAN_POINT ( 'NONE',  ( 2.487983738764000030, 0.1000000000000000056, 0.5594427190999999855 ) ) ;
#387 = VERTEX_POINT ( 'NONE', #19 ) ;
#388 = CARTESIAN_POINT ( 'NONE',  ( 2.544721359550000450, 0.1000000000000000056, 0.1105572808999999990 ) ) ;
#389 = DIRECTION ( 'NONE',  ( 0.000000000000000000, 2.710505431213763057E-16, 1.000000000000000000 ) ) ;
#390 = ORIENTED_EDGE ( 'NONE', *, *, #289, .F. ) ;
#391 = ADVANCED_FACE ( 'NONE', ( #264 ), #22, .F. ) ;
#392 = CARTESIAN_POINT ( 'NONE',  ( -2.238117811259999965E-16, -0.1000000000000000056, 0.4620732295020000269 ) ) ;
#393 = DIRECTION ( 'NONE',  ( 1.000000000000000000, 0.000000000000000000, 0.000000000000000000 ) ) ;
#394 = CYLINDRICAL_SURFACE ( 'NONE', #164, 0.04999999999999996808 ) ;
#395 = AXIS2_PLACEMENT_3D ( 'NONE', #317, #552, #485 ) ;
#396 = LINE ( 'NONE', #150, #646 ) ;
#397 = VECTOR ( 'NONE', #129, 1000.000000000000000 ) ;
#398 = ADVANCED_FACE ( 'NONE', ( #723 ), #484, .F. ) ;
#399 = COLOUR_RGB ( '',0.9176470588235293713, 0.9176470588235293713, 0.9176470588235293713 ) ;
#400 = CARTESIAN_POINT ( 'NONE',  ( 2.339999999999999858, 0.1000000000000000056, 0.5199999999999999067 ) ) ;
#401 = PLANE ( 'NONE',  #284 ) ;
#402 = CARTESIAN_POINT ( 'NONE',  ( 3.200000000000000178, 0.1000000000000000056, -1.387778780781000401E-17 ) ) ;
#403 = DIRECTION ( 'NONE',  ( 0.4472135954999579277, 1.986027322597814402E-16, 0.8944271909999158554 ) ) ;
#404 = CYLINDRICAL_SURFACE ( 'NONE', #7, 0.2000000000000002331 ) ;
#405 =( NAMED_UNIT ( * ) SI_UNIT ( $, .STERADIAN. ) SOLID_ANGLE_UNIT ( ) );
#406 = FACE_OUTER_BOUND ( 'NONE', #181, .T. ) ;
#407 = LINE ( 'NONE', #12, #468 ) ;
#408 = ADVANCED_FACE ( 'NONE', ( #654 ), #198, .T. ) ;
#409 = VECTOR ( 'NONE', #240, 1000.000000000000000 ) ;
#410 = CARTESIAN_POINT ( 'NONE',  ( -2.309098300563000361, -0.1000000000000000056, 0.5199999999999999067 ) ) ;
#411 = ORIENTED_EDGE ( 'NONE', *, *, #57, .F. ) ;
#412 = EDGE_CURVE ( 'NONE', #527, #253, #344, .T. ) ;
#413 = ORIENTED_EDGE ( 'NONE', *, *, #324, .F. ) ;
#414 = FILL_AREA_STYLE_COLOUR ( '', #399 ) ;
#415 = UNCERTAINTY_MEASURE_WITH_UNIT (LENGTH_MEASURE( 1.000000000000000082E-05 ), #342, 'distance_accuracy_value', 'NONE');
#416 = ORIENTED_EDGE ( 'NONE', *, *, #10, .F. ) ;
#417 = LINE ( 'NONE', #634, #433 ) ;
#418 = EDGE_LOOP ( 'NONE', ( #329, #205, #242, #315, #508, #140, #262, #606, #75, #121, #99, #675, #663, #739, #193, #419, #667, #503, #326, #73 ) ) ;
#419 = ORIENTED_EDGE ( 'NONE', *, *, #105, .T. ) ;
#420 = EDGE_CURVE ( 'NONE', #241, #88, #439, .T. ) ;
#421 = CIRCLE ( 'NONE', #91, 0.2000000000000000389 ) ;
#422 = SURFACE_STYLE_USAGE ( .BOTH. , #586 ) ;
#423 = VERTEX_POINT ( 'NONE', #650 ) ;
#424 = DIRECTION ( 'NONE',  ( 0.8944271909999159664, -9.930136612988073608E-17, -0.4472135954999579832 ) ) ;
#425 = ORIENTED_EDGE ( 'NONE', *, *, #42, .F. ) ;
#426 = ORIENTED_EDGE ( 'NONE', *, *, #521, .F. ) ;
#427 = DIRECTION ( 'NONE',  ( 0.4472135954999579277, -1.986027322597814402E-16, -0.8944271909999158554 ) ) ;
#428 = LINE ( 'NONE', #256, #115 ) ;
#429 = VERTEX_POINT ( 'NONE', #321 ) ;
#430 = DIRECTION ( 'NONE',  ( 0.000000000000000000, -1.000000000000000000, 2.220446049250000002E-16 ) ) ;
#431 = VECTOR ( 'NONE', #567, 1000.000000000000000 ) ;
#432 = CARTESIAN_POINT ( 'NONE',  ( 2.692705098314000178, -0.1000000000000000056, 0.1499999999999999944 ) ) ;
#433 = VECTOR ( 'NONE', #536, 1000.000000000000000 ) ;
#434 = ORIENTED_EDGE ( 'NONE', *, *, #362, .F. ) ;
#435 = DIRECTION ( 'NONE',  ( -3.351118103233789684E-30, -1.000000000000000000, 2.220446049250015039E-16 ) ) ;
#436 = LINE ( 'NONE', #677, #744 ) ;
#437 = ORIENTED_EDGE ( 'NONE', *, *, #201, .F. ) ;
#438 = EDGE_CURVE ( 'NONE', #162, #363, #368, .T. ) ;
#439 = LINE ( 'NONE', #668, #734 ) ;
#440 = LINE ( 'NONE', #199, #718 ) ;
#441 = ORIENTED_EDGE ( 'NONE', *, *, #282, .F. ) ;
#442 = CARTESIAN_POINT ( 'NONE',  ( 2.600000000000000089, -0.1000000000000000056, 1.387778780781000401E-17 ) ) ;
#443 = CYLINDRICAL_SURFACE ( 'NONE', #614, 0.05000000000000003747 ) ;
#444 = VERTEX_POINT ( 'NONE', #251 ) ;
#445 = AXIS2_PLACEMENT_3D ( 'NONE', #160, #566, #577 ) ;
#446 = DIRECTION ( 'NONE',  ( 0.000000000000000000, -1.000000000000000000, 2.220446049250000002E-16 ) ) ;
#447 = CARTESIAN_POINT ( 'NONE',  ( -3.200000000000000178, -0.1000000000000000056, 1.387778780781000401E-17 ) ) ;
#448 = ADVANCED_FACE ( 'NONE', ( #81 ), #660, .T. ) ;
#449 = DIRECTION ( 'NONE',  ( 0.000000000000000000, -2.220446049250000002E-16, -1.000000000000000000 ) ) ;
#450 = LINE ( 'NONE', #617, #593 ) ;
#451 = DIRECTION ( 'NONE',  ( 0.000000000000000000, -1.000000000000000000, 2.220446049250000002E-16 ) ) ;
#452 = ORIENTED_EDGE ( 'NONE', *, *, #17, .F. ) ;
#453 = EDGE_CURVE ( 'NONE', #303, #21, #610, .T. ) ;
#454 = CARTESIAN_POINT ( 'NONE',  ( -2.600000000000000089, 0.1000000000000000056, -1.387778780781000401E-17 ) ) ;
#455 = FACE_OUTER_BOUND ( 'NONE', #351, .T. ) ;
#456 = ORIENTED_EDGE ( 'NONE', *, *, #657, .F. ) ;
#457 = CIRCLE ( 'NONE', #214, 0.2000000000000000111 ) ;
#458 = VECTOR ( 'NONE', #582, 1000.000000000000000 ) ;
#459 =( GEOMETRIC_REPRESENTATION_CONTEXT ( 3 ) GLOBAL_UNCERTAINTY_ASSIGNED_CONTEXT ( ( #415 ) ) GLOBAL_UNIT_ASSIGNED_CONTEXT ( ( #342, #288, #405 ) ) REPRESENTATION_CONTEXT ( 'NONE', 'WORKASPACE' ) );
#460 = CARTESIAN_POINT ( 'NONE',  ( 3.200000000000000178, 0.1000000000000000056, 0.1499999999999999944 ) ) ;
#461 =( LENGTH_UNIT ( ) NAMED_UNIT ( * ) SI_UNIT ( .MILLI., .METRE. ) );
#462 = EDGE_CURVE ( 'NONE', #494, #366, #487, .T. ) ;
#463 = CARTESIAN_POINT ( 'NONE',  ( 2.487983738764000030, -0.1000000000000000056, 0.5594427190999999855 ) ) ;
#464 = LINE ( 'NONE', #174, #227 ) ;
#465 =( NAMED_UNIT ( * ) PLANE_ANGLE_UNIT ( ) SI_UNIT ( $, .RADIAN. ) );
#466 = CARTESIAN_POINT ( 'NONE',  ( -2.723606797750999675, -0.1000000000000000056, 0.1499999999999999944 ) ) ;
#467 = DIRECTION ( 'NONE',  ( 0.000000000000000000, -1.000000000000000000, 2.220446049250000002E-16 ) ) ;
#468 = VECTOR ( 'NONE', #114, 1000.000000000000000 ) ;
#469 = VECTOR ( 'NONE', #280, 1000.000000000000000 ) ;
#470 = PRESENTATION_LAYER_ASSIGNMENT (  '', '', ( #189 ) ) ;
#471 = EDGE_CURVE ( 'NONE', #423, #347, #719, .T. ) ;
#472 = ORIENTED_EDGE ( 'NONE', *, *, #524, .F. ) ;
#473 = SHAPE_DEFINITION_REPRESENTATION ( #595, #556 ) ;
#474 =( NAMED_UNIT ( * ) PLANE_ANGLE_UNIT ( ) SI_UNIT ( $, .RADIAN. ) );
#475 = ORIENTED_EDGE ( 'NONE', *, *, #412, .T. ) ;
#476 = ORIENTED_EDGE ( 'NONE', *, *, #462, .T. ) ;
#477 = DIRECTION ( 'NONE',  ( 0.000000000000000000, 1.000000000000000000, -2.220446049250000002E-16 ) ) ;
#478 = ORIENTED_EDGE ( 'NONE', *, *, #511, .T. ) ;
#479 = VECTOR ( 'NONE', #147, 1000.000000000000000 ) ;
#480 = VECTOR ( 'NONE', #518, 1000.000000000000000 ) ;
#481 = ORIENTED_EDGE ( 'NONE', *, *, #65, .F. ) ;
#482 = ORIENTED_EDGE ( 'NONE', *, *, #190, .T. ) ;
#483 = ADVANCED_FACE ( 'NONE', ( #613 ), #30, .T. ) ;
#484 = CYLINDRICAL_SURFACE ( 'NONE', #166, 0.05000000000000005135 ) ;
#485 = DIRECTION ( 'NONE',  ( 0.000000000000000000, -2.032879073410320321E-16, -1.000000000000000000 ) ) ;
#486 = EDGE_LOOP ( 'NONE', ( #707, #197, #200, #426 ) ) ;
#487 = LINE ( 'NONE', #255, #699 ) ;
#488 = CARTESIAN_POINT ( 'NONE',  ( -2.487983738764000030, -0.1000000000000000056, 0.5594427190999999855 ) ) ;
#489 = ORIENTED_EDGE ( 'NONE', *, *, #499, .T. ) ;
#490 = FACE_OUTER_BOUND ( 'NONE', #126, .T. ) ;
#491 = CIRCLE ( 'NONE', #318, 0.2000000000000000111 ) ;
#492 = LINE ( 'NONE', #721, #41 ) ;
#493 = AXIS2_PLACEMENT_3D ( 'NONE', #165, #385, #741 ) ;
#494 = VERTEX_POINT ( 'NONE', #313 ) ;
#495 = EDGE_CURVE ( 'NONE', #616, #221, #74, .T. ) ;
#496 = CARTESIAN_POINT ( 'NONE',  ( -2.678885438201000113, 0.1000000000000000056, 0.1776393202250000081 ) ) ;
#497 = FACE_OUTER_BOUND ( 'NONE', #683, .T. ) ;
#498 = EDGE_LOOP ( 'NONE', ( #456, #679, #372, #532 ) ) ;
#499 = EDGE_CURVE ( 'NONE', #545, #232, #304, .T. ) ;
#500 = CARTESIAN_POINT ( 'NONE',  ( 2.678885438201000113, 0.1000000000000000056, 0.1776393202250000081 ) ) ;
#501 = CARTESIAN_POINT ( 'NONE',  ( -2.723606797750999675, 0.1000000000000000056, 0.2000000000000000111 ) ) ;
#502 = CARTESIAN_POINT ( 'NONE',  ( 3.200000000000000178, -0.1000000000000000056, 0.1499999999999999944 ) ) ;
#503 = ORIENTED_EDGE ( 'NONE', *, *, #367, .T. ) ;
#504 = ADVANCED_FACE ( 'NONE', ( #490 ), #142, .T. ) ;
#505 = CARTESIAN_POINT ( 'NONE',  ( 2.309098300564000006, 0.1000000000000000056, 0.4699999999999999734 ) ) ;
#506 = CLOSED_SHELL ( 'NONE', ( #268, #664, #146, #3, #531, #554, #13, #738, #483, #398, #448, #48, #647, #226, #373, #705, #408, #697, #141, #391, #357, #504 ) ) ;
#507 = AXIS2_PLACEMENT_3D ( 'NONE', #235, #120, #185 ) ;
#508 = ORIENTED_EDGE ( 'NONE', *, *, #33, .T. ) ;
#509 = CARTESIAN_POINT ( 'NONE',  ( -2.432705098313999947, 0.1000000000000000056, 0.6700000000000000400 ) ) ;
#510 = CARTESIAN_POINT ( 'NONE',  ( -2.309098300563000361, 0.1000000000000000056, 0.5199999999999999067 ) ) ;
#511 = EDGE_CURVE ( 'NONE', #221, #387, #43, .T. ) ;
#512 = CARTESIAN_POINT ( 'NONE',  ( -2.544721359550000450, 0.1000000000000000056, 0.1105572808999999990 ) ) ;
#513 = CARTESIAN_POINT ( 'NONE',  ( -2.487983738764000030, 0.1000000000000000056, 0.5594427190999999855 ) ) ;
#514 = DIRECTION ( 'NONE',  ( 0.000000000000000000, -1.000000000000000000, 2.220446049250000002E-16 ) ) ;
#515 = CARTESIAN_POINT ( 'NONE',  ( 2.723606797749999586, -0.1000000000000000056, 3.330669073874999879E-17 ) ) ;
#516 = VECTOR ( 'NONE', #171, 1000.000000000000000 ) ;
#517 = EDGE_CURVE ( 'NONE', #60, #387, #38, .T. ) ;
#518 = DIRECTION ( 'NONE',  ( 0.000000000000000000, -1.000000000000000000, 2.220446049250000002E-16 ) ) ;
#519 = CIRCLE ( 'NONE', #359, 0.2000000000000000389 ) ;
#520 = LINE ( 'NONE', #1, #175 ) ;
#521 = EDGE_CURVE ( 'NONE', #309, #537, #223, .T. ) ;
#522 = LINE ( 'NONE', #525, #272 ) ;
#523 = ORIENTED_EDGE ( 'NONE', *, *, #312, .T. ) ;
#524 = EDGE_CURVE ( 'NONE', #545, #253, #450, .T. ) ;
#525 = CARTESIAN_POINT ( 'NONE',  ( 2.487983738764000030, 0.1000000000000000056, 0.5594427190999999855 ) ) ;
#526 = ORIENTED_EDGE ( 'NONE', *, *, #237, .F. ) ;
#527 = VERTEX_POINT ( 'NONE', #52 ) ;
#528 = FILL_AREA_STYLE ('',( #414 ) ) ;
#529 = VECTOR ( 'NONE', #548, 1000.000000000000000 ) ;
#530 = CARTESIAN_POINT ( 'NONE',  ( -3.200000000000000178, -0.1000000000000000056, 2.220446049249999817E-17 ) ) ;
#531 = ADVANCED_FACE ( 'NONE', ( #228 ), #97, .T. ) ;
#532 = ORIENTED_EDGE ( 'NONE', *, *, #651, .F. ) ;
#533 = UNCERTAINTY_MEASURE_WITH_UNIT (LENGTH_MEASURE( 1.000000000000000082E-05 ), #461, 'distance_accuracy_value', 'NONE');
#534 = LINE ( 'NONE', #9, #409 ) ;
#535 = ORIENTED_EDGE ( 'NONE', *, *, #521, .T. ) ;
#536 = DIRECTION ( 'NONE',  ( 0.000000000000000000, -1.000000000000000000, 2.220446049250000002E-16 ) ) ;
#537 = VERTEX_POINT ( 'NONE', #54 ) ;
#538 = EDGE_CURVE ( 'NONE', #162, #77, #170, .T. ) ;
#539 = AXIS2_PLACEMENT_3D ( 'NONE', #505, #451, #628 ) ;
#540 = CARTESIAN_POINT ( 'NONE',  ( 2.723606797750999675, 0.1000000000000000056, 0.2000000000000000111 ) ) ;
#541 = CARTESIAN_POINT ( 'NONE',  ( -2.723606797749999586, 0.1000000000000000056, 7.771561172376000380E-17 ) ) ;
#542 = ORIENTED_EDGE ( 'NONE', *, *, #712, .T. ) ;
#543 = DIRECTION ( 'NONE',  ( 0.000000000000000000, -2.710505431213759606E-16, -1.000000000000000000 ) ) ;
#544 = LINE ( 'NONE', #669, #307 ) ;
#545 = VERTEX_POINT ( 'NONE', #388 ) ;
#546 = CARTESIAN_POINT ( 'NONE',  ( 2.544721359550000450, 0.1000000000000000056, 0.1105572808999999990 ) ) ;
#547 = EDGE_CURVE ( 'NONE', #537, #616, #519, .T. ) ;
#548 = DIRECTION ( 'NONE',  ( 0.000000000000000000, -2.220446049250000002E-16, -1.000000000000000000 ) ) ;
#549 = ORIENTED_EDGE ( 'NONE', *, *, #471, .T. ) ;
#550 = DIRECTION ( 'NONE',  ( -1.000000000000000000, 0.000000000000000000, 0.000000000000000000 ) ) ;
#551 = VECTOR ( 'NONE', #26, 1000.000000000000000 ) ;
#552 = DIRECTION ( 'NONE',  ( 0.000000000000000000, 1.000000000000000000, -2.220446049250000002E-16 ) ) ;
#553 = VECTOR ( 'NONE', #222, 1000.000000000000000 ) ;
#554 = ADVANCED_FACE ( 'NONE', ( #102 ), #632, .T. ) ;
#555 = ORIENTED_EDGE ( 'NONE', *, *, #154, .T. ) ;
#556 = ADVANCED_BREP_SHAPE_REPRESENTATION ( 'Body009.step', ( #301, #18 ), #459 ) ;
#557 = CARTESIAN_POINT ( 'NONE',  ( 2.723606797750999675, 0.1000000000000000056, 0.2000000000000000111 ) ) ;
#558 = CARTESIAN_POINT ( 'NONE',  ( 2.432705098313999947, -0.1000000000000000056, 0.6700000000000000400 ) ) ;
#559 = DIRECTION ( 'NONE',  ( 0.000000000000000000, -1.000000000000000000, 2.220446049250000002E-16 ) ) ;
#560 = VERTEX_POINT ( 'NONE', #510 ) ;
#561 = EDGE_CURVE ( 'NONE', #196, #714, #274, .T. ) ;
#562 = DIRECTION ( 'NONE',  ( 0.000000000000000000, -2.220446049250000002E-16, -1.000000000000000000 ) ) ;
#563 = DIRECTION ( 'NONE',  ( 0.000000000000000000, 1.000000000000000000, -2.220446049250000002E-16 ) ) ;
#564 = ORIENTED_EDGE ( 'NONE', *, *, #237, .T. ) ;
#565 = PLANE ( 'NONE',  #661 ) ;
#566 = DIRECTION ( 'NONE',  ( 1.000000000000000000, 0.000000000000000000, 0.000000000000000000 ) ) ;
#567 = DIRECTION ( 'NONE',  ( 0.000000000000000000, -1.000000000000000000, 2.220446049250000002E-16 ) ) ;
#568 = AXIS2_PLACEMENT_3D ( 'NONE', #244, #641, #709 ) ;
#569 = AXIS2_PLACEMENT_3D ( 'NONE', #84, #424, #604 ) ;
#570 =( GEOMETRIC_REPRESENTATION_CONTEXT ( 3 ) GLOBAL_UNCERTAINTY_ASSIGNED_CONTEXT ( ( #533 ) ) GLOBAL_UNIT_ASSIGNED_CONTEXT ( ( #461, #465, #233 ) ) REPRESENTATION_CONTEXT ( 'NONE', 'WORKASPACE' ) );
#571 = DIRECTION ( 'NONE',  ( 1.000000000000000000, 0.000000000000000000, 0.000000000000000000 ) ) ;
#572 = FACE_OUTER_BOUND ( 'NONE', #365, .T. ) ;
#573 = VERTEX_POINT ( 'NONE', #626 ) ;
#574 = DIRECTION ( 'NONE',  ( -0.4472135954999579277, 1.986027322597814402E-16, 0.8944271909999158554 ) ) ;
#575 = DIRECTION ( 'NONE',  ( 0.000000000000000000, -2.032879073410320321E-16, -1.000000000000000000 ) ) ;
#576 = EDGE_CURVE ( 'NONE', #21, #336, #745, .T. ) ;
#577 = DIRECTION ( 'NONE',  ( 0.000000000000000000, 1.000000000000000000, 0.000000000000000000 ) ) ;
#578 = CARTESIAN_POINT ( 'NONE',  ( -2.723606797750999675, 0.1000000000000000056, 0.2000000000000000111 ) ) ;
#579 = PRODUCT_RELATED_PRODUCT_CATEGORY ( 'part', '', ( #618 ) ) ;
#580 = AXIS2_PLACEMENT_3D ( 'NONE', #322, #728, #724 ) ;
#581 = AXIS2_PLACEMENT_3D ( 'NONE', #87, #599, #260 ) ;
#582 = DIRECTION ( 'NONE',  ( 0.000000000000000000, -1.000000000000000000, 2.220446049250000002E-16 ) ) ;
#583 = CARTESIAN_POINT ( 'NONE',  ( 2.309098300564000006, 0.1000000000000000056, 0.6700000000000000400 ) ) ;
#584 = DIRECTION ( 'NONE',  ( 0.000000000000000000, -2.710505431213759606E-16, -1.000000000000000000 ) ) ;
#585 = EDGE_CURVE ( 'NONE', #188, #232, #236, .T. ) ;
#586 = SURFACE_SIDE_STYLE ('',( #706 ) ) ;
#587 = ORIENTED_EDGE ( 'NONE', *, *, #689, .F. ) ;
#588 = VERTEX_POINT ( 'NONE', #727 ) ;
#589 = CARTESIAN_POINT ( 'NONE',  ( -2.723606797750999675, 0.1000000000000000056, 0.1499999999999999944 ) ) ;
#590 = DIRECTION ( 'NONE',  ( 0.000000000000000000, -2.032879073410320321E-16, -1.000000000000000000 ) ) ;
#591 = ORIENTED_EDGE ( 'NONE', *, *, #17, .T. ) ;
#592 = VECTOR ( 'NONE', #55, 1000.000000000000000 ) ;
#593 = VECTOR ( 'NONE', #574, 1000.000000000000000 ) ;
#594 = LINE ( 'NONE', #69, #273 ) ;
#595 = PRODUCT_DEFINITION_SHAPE ( 'NONE', 'NONE',  #216 ) ;
#596 = ORIENTED_EDGE ( 'NONE', *, *, #600, .F. ) ;
#597 = CARTESIAN_POINT ( 'NONE',  ( -3.200000000000000178, 0.1000000000000000056, -2.220446049249999817E-17 ) ) ;
#598 = ORIENTED_EDGE ( 'NONE', *, *, #292, .F. ) ;
#599 = DIRECTION ( 'NONE',  ( -0.8944271909999159664, 9.930136612988067445E-17, 0.4472135954999579832 ) ) ;
#600 = EDGE_CURVE ( 'NONE', #21, #88, #295, .T. ) ;
#601 = ORIENTED_EDGE ( 'NONE', *, *, #33, .F. ) ;
#602 = COLOUR_RGB ( '',0.9176470588235293713, 0.9176470588235293713, 0.9176470588235293713 ) ;
#603 = AXIS2_PLACEMENT_3D ( 'NONE', #6, #477, #590 ) ;
#604 = DIRECTION ( 'NONE',  ( 0.000000000000000000, -1.000000000000000000, 2.220446049250085051E-16 ) ) ;
#605 = DIRECTION ( 'NONE',  ( 0.000000000000000000, 1.000000000000000000, -2.220446049250000002E-16 ) ) ;
#606 = ORIENTED_EDGE ( 'NONE', *, *, #195, .T. ) ;
#607 = CARTESIAN_POINT ( 'NONE',  ( -2.309098300563000361, -0.1000000000000000056, 0.4699999999999999734 ) ) ;
#608 = LINE ( 'NONE', #713, #551 ) ;
#609 = EDGE_LOOP ( 'NONE', ( #246, #96, #355, #452 ) ) ;
#610 = LINE ( 'NONE', #496, #151 ) ;
#611 = PLANE ( 'NONE',  #645 ) ;
#612 = ORIENTED_EDGE ( 'NONE', *, *, #511, .F. ) ;
#613 = FACE_OUTER_BOUND ( 'NONE', #15, .T. ) ;
#614 = AXIS2_PLACEMENT_3D ( 'NONE', #95, #153, #208 ) ;
#615 = ORIENTED_EDGE ( 'NONE', *, *, #122, .T. ) ;
#616 = VERTEX_POINT ( 'NONE', #463 ) ;
#617 = CARTESIAN_POINT ( 'NONE',  ( 2.600000000000000089, 0.1000000000000000056, -1.387778780781000401E-17 ) ) ;
#618 = PRODUCT ( 'Body009.step', 'Body009.step', '', ( #51 ) ) ;
#619 = DIRECTION ( 'NONE',  ( 0.000000000000000000, -1.000000000000000000, 2.220446049250000002E-16 ) ) ;
#620 = ORIENTED_EDGE ( 'NONE', *, *, #726, .F. ) ;
#621 = DIRECTION ( 'NONE',  ( 0.000000000000000000, -1.000000000000000000, 2.220446049250000002E-16 ) ) ;
#622 = DIRECTION ( 'NONE',  ( 0.000000000000000000, -2.032879073410320321E-16, -1.000000000000000000 ) ) ;
#623 = CARTESIAN_POINT ( 'NONE',  ( 2.309098300563000361, -0.1000000000000000056, 0.5199999999999999067 ) ) ;
#624 = EDGE_LOOP ( 'NONE', ( #248, #155, #220, #413 ) ) ;
#625 = CARTESIAN_POINT ( 'NONE',  ( 3.200000000000000178, 0.1000000000000000056, 0.1499999999999999944 ) ) ;
#626 = CARTESIAN_POINT ( 'NONE',  ( -2.544721359550000450, -0.1000000000000000056, 0.1105572808999999990 ) ) ;
#627 = APPLICATION_CONTEXT ( 'automotive_design' ) ;
#628 = DIRECTION ( 'NONE',  ( 0.000000000000000000, 2.032879073410320321E-16, 1.000000000000000000 ) ) ;
#629 = EDGE_LOOP ( 'NONE', ( #112, #212, #360, #225, #526, #701, #549, #434, #692, #117, #32, #703, #416, #411, #612, #319, #158, #390, #354, #596 ) ) ;
#630 = CARTESIAN_POINT ( 'NONE',  ( -2.600000000000000089, 0.1000000000000000056, -2.220446049249999817E-17 ) ) ;
#631 = CARTESIAN_POINT ( 'NONE',  ( -2.692705098314000178, 0.1000000000000000056, 0.1499999999999999944 ) ) ;
#632 = PLANE ( 'NONE',  #445 ) ;
#633 = DIRECTION ( 'NONE',  ( -3.351118103233789684E-30, -1.000000000000000000, 2.220446049250015039E-16 ) ) ;
#634 = CARTESIAN_POINT ( 'NONE',  ( -2.309098300564000006, 0.1000000000000000056, 0.6700000000000000400 ) ) ;
#635 = EDGE_CURVE ( 'NONE', #258, #423, #343, .T. ) ;
#636 =( GEOMETRIC_REPRESENTATION_CONTEXT ( 3 ) GLOBAL_UNCERTAINTY_ASSIGNED_CONTEXT ( ( #243 ) ) GLOBAL_UNIT_ASSIGNED_CONTEXT ( ( #299, #474, #696 ) ) REPRESENTATION_CONTEXT ( 'NONE', 'WORKASPACE' ) );
#637 = FACE_OUTER_BOUND ( 'NONE', #418, .T. ) ;
#638 = ORIENTED_EDGE ( 'NONE', *, *, #453, .T. ) ;
#639 = ORIENTED_EDGE ( 'NONE', *, *, #337, .T. ) ;
#640 = DIRECTION ( 'NONE',  ( 0.000000000000000000, 0.000000000000000000, 1.000000000000000000 ) ) ;
#641 = DIRECTION ( 'NONE',  ( 0.000000000000000000, 1.000000000000000000, -2.220446049250000002E-16 ) ) ;
#642 = ORIENTED_EDGE ( 'NONE', *, *, #678, .T. ) ;
#643 = FACE_OUTER_BOUND ( 'NONE', #670, .T. ) ;
#644 = ORIENTED_EDGE ( 'NONE', *, *, #438, .T. ) ;
#645 = AXIS2_PLACEMENT_3D ( 'NONE', #306, #20, #31 ) ;
#646 = VECTOR ( 'NONE', #210, 1000.000000000000000 ) ;
#647 = ADVANCED_FACE ( 'NONE', ( #406 ), #254, .T. ) ;
#648 = CARTESIAN_POINT ( 'NONE',  ( 2.723606797749999586, 0.1000000000000000056, 0.2000000000000000111 ) ) ;
#649 = ORIENTED_EDGE ( 'NONE', *, *, #471, .F. ) ;
#650 = CARTESIAN_POINT ( 'NONE',  ( -2.353819660112999923, -0.1000000000000000056, 0.4923606797749999209 ) ) ;
#651 = EDGE_CURVE ( 'NONE', #192, #444, #34, .T. ) ;
#652 = EDGE_LOOP ( 'NONE', ( #475, #704, #383, #725 ) ) ;
#653 = ORIENTED_EDGE ( 'NONE', *, *, #10, .T. ) ;
#654 = FACE_OUTER_BOUND ( 'NONE', #300, .T. ) ;
#655 = LINE ( 'NONE', #36, #730 ) ;
#656 = EDGE_LOOP ( 'NONE', ( #535, #688, #250, #425 ) ) ;
#657 = EDGE_CURVE ( 'NONE', #60, #192, #396, .T. ) ;
#658 = VECTOR ( 'NONE', #314, 1000.000000000000000 ) ;
#659 = AXIS2_PLACEMENT_3D ( 'NONE', #316, #379, #191 ) ;
#660 = CYLINDRICAL_SURFACE ( 'NONE', #659, 0.2000000000000002054 ) ;
#661 = AXIS2_PLACEMENT_3D ( 'NONE', #509, #46, #104 ) ;
#662 = DIRECTION ( 'NONE',  ( -1.000000000000000000, 0.000000000000000000, 0.000000000000000000 ) ) ;
#663 = ORIENTED_EDGE ( 'NONE', *, *, #278, .T. ) ;
#664 = ADVANCED_FACE ( 'NONE', ( #145 ), #159, .T. ) ;
#665 = DIRECTION ( 'NONE',  ( 0.8944271909999160775, 0.000000000000000000, -0.4472135954999574836 ) ) ;
#666 = CARTESIAN_POINT ( 'NONE',  ( 2.723606797750999675, 0.1000000000000000056, 0.1499999999999999944 ) ) ;
#667 = ORIENTED_EDGE ( 'NONE', *, *, #672, .T. ) ;
#668 = CARTESIAN_POINT ( 'NONE',  ( -2.487983738764000030, 0.1000000000000000056, 0.5594427190999999855 ) ) ;
#669 = CARTESIAN_POINT ( 'NONE',  ( 2.432705098313999947, 0.1000000000000000056, 0.6700000000000000400 ) ) ;
#670 = EDGE_LOOP ( 'NONE', ( #63, #482, #481, #131 ) ) ;
#671 = PLANE ( 'NONE',  #259 ) ;
#672 = EDGE_CURVE ( 'NONE', #11, #209, #213, .T. ) ;
#673 = CARTESIAN_POINT ( 'NONE',  ( -2.432705098313999947, 0.1000000000000000056, 0.6700000000000000400 ) ) ;
#674 = AXIS2_PLACEMENT_3D ( 'NONE', #711, #376, #543 ) ;
#675 = ORIENTED_EDGE ( 'NONE', *, *, #412, .F. ) ;
#676 = DIRECTION ( 'NONE',  ( -0.4472135954999579277, 1.986027322597814402E-16, 0.8944271909999158554 ) ) ;
#677 = CARTESIAN_POINT ( 'NONE',  ( -3.200000000000000178, -0.1000000000000000056, 0.1499999999999999944 ) ) ;
#678 = EDGE_CURVE ( 'NONE', #83, #221, #680, .T. ) ;
#679 = ORIENTED_EDGE ( 'NONE', *, *, #517, .T. ) ;
#680 = LINE ( 'NONE', #500, #107 ) ;
#681 = DIRECTION ( 'NONE',  ( 0.000000000000000000, 1.000000000000000000, -2.220446049250000002E-16 ) ) ;
#682 = LINE ( 'NONE', #460, #257 ) ;
#683 = EDGE_LOOP ( 'NONE', ( #50, #644, #178, #598 ) ) ;
#684 = PRODUCT_DEFINITION_CONTEXT ( 'detailed design', #245, 'design' ) ;
#685 = CARTESIAN_POINT ( 'NONE',  ( 2.353819660112999923, 0.1000000000000000056, 0.4923606797749999209 ) ) ;
#686 = CIRCLE ( 'NONE', #76, 0.04999999999999999584 ) ;
#687 = AXIS2_PLACEMENT_3D ( 'NONE', #400, #562, #690 ) ;
#688 = ORIENTED_EDGE ( 'NONE', *, *, #547, .T. ) ;
#689 = EDGE_CURVE ( 'NONE', #83, #60, #94, .T. ) ;
#690 = DIRECTION ( 'NONE',  ( 0.000000000000000000, -1.000000000000000000, 2.220446049250000002E-16 ) ) ;
#691 = DIRECTION ( 'NONE',  ( -0.4472135954999579277, 0.000000000000000000, 0.8944271909999158554 ) ) ;
#692 = ORIENTED_EDGE ( 'NONE', *, *, #334, .T. ) ;
#693 = EDGE_CURVE ( 'NONE', #232, #722, #330, .T. ) ;
#694 = LINE ( 'NONE', #447, #516 ) ;
#695 = ORIENTED_EDGE ( 'NONE', *, *, #420, .F. ) ;
#696 =( NAMED_UNIT ( * ) SI_UNIT ( $, .STERADIAN. ) SOLID_ANGLE_UNIT ( ) );
#697 = ADVANCED_FACE ( 'NONE', ( #101 ), #671, .F. ) ;
#698 = CIRCLE ( 'NONE', #369, 0.2000000000000000111 ) ;
#699 = VECTOR ( 'NONE', #550, 1000.000000000000000 ) ;
#700 = LINE ( 'NONE', #66, #202 ) ;
#701 = ORIENTED_EDGE ( 'NONE', *, *, #380, .F. ) ;
#702 = DIRECTION ( 'NONE',  ( -1.000000000000000000, 0.000000000000000000, 0.000000000000000000 ) ) ;
#703 = ORIENTED_EDGE ( 'NONE', *, *, #100, .F. ) ;
#704 = ORIENTED_EDGE ( 'NONE', *, *, #201, .T. ) ;
#705 = ADVANCED_FACE ( 'NONE', ( #384 ), #565, .T. ) ;
#706 = SURFACE_STYLE_FILL_AREA ( #290 ) ;
#707 = ORIENTED_EDGE ( 'NONE', *, *, #79, .F. ) ;
#708 = STYLED_ITEM ( 'NONE', ( #176 ), #301 ) ;
#709 = DIRECTION ( 'NONE',  ( 0.000000000000000000, -2.710505431213759606E-16, -1.000000000000000000 ) ) ;
#710 = ORIENTED_EDGE ( 'NONE', *, *, #495, .T. ) ;
#711 = CARTESIAN_POINT ( 'NONE',  ( 2.309098300563000361, 0.1000000000000000056, 0.4699999999999999734 ) ) ;
#712 = EDGE_CURVE ( 'NONE', #258, #560, #238, .T. ) ;
#713 = CARTESIAN_POINT ( 'NONE',  ( -2.339999999999999858, 0.1000000000000000056, 0.5199999999999999067 ) ) ;
#714 = VERTEX_POINT ( 'NONE', #589 ) ;
#715 = DIRECTION ( 'NONE',  ( -0.8944271909999160775, 0.000000000000000000, -0.4472135954999574836 ) ) ;
#716 = DIRECTION ( 'NONE',  ( 1.000000000000000000, 0.000000000000000000, 0.000000000000000000 ) ) ;
#717 = EDGE_LOOP ( 'NONE', ( #601, #523, #710, #144 ) ) ;
#718 = VECTOR ( 'NONE', #377, 1000.000000000000000 ) ;
#719 = CIRCLE ( 'NONE', #371, 0.05000000000000002359 ) ;
#720 = AXIS2_PLACEMENT_3D ( 'NONE', #169, #746, #467 ) ;
#721 = CARTESIAN_POINT ( 'NONE',  ( 3.200000000000000178, -0.1000000000000000056, 1.387778780781000401E-17 ) ) ;
#722 = VERTEX_POINT ( 'NONE', #279 ) ;
#723 = FACE_OUTER_BOUND ( 'NONE', #8, .T. ) ;
#724 = DIRECTION ( 'NONE',  ( 0.000000000000000000, -1.000000000000000000, 2.220446049250085051E-16 ) ) ;
#725 = ORIENTED_EDGE ( 'NONE', *, *, #119, .F. ) ;
#726 = EDGE_CURVE ( 'NONE', #714, #336, #113, .T. ) ;
#727 = CARTESIAN_POINT ( 'NONE',  ( -2.309098300564000006, -0.1000000000000000056, 0.6700000000000000400 ) ) ;
#728 = DIRECTION ( 'NONE',  ( 0.8944271909999159664, 9.930136612988073608E-17, 0.4472135954999579832 ) ) ;
#729 = EDGE_LOOP ( 'NONE', ( #184, #24, #271, #239 ) ) ;
#730 = VECTOR ( 'NONE', #139, 1000.000000000000000 ) ;
#731 = DIRECTION ( 'NONE',  ( -1.000000000000000000, 0.000000000000000000, 0.000000000000000000 ) ) ;
#732 = CIRCLE ( 'NONE', #395, 0.2000000000000000389 ) ;
#733 = CARTESIAN_POINT ( 'NONE',  ( -2.353819660112999923, 0.1000000000000000056, 0.4923606797749999209 ) ) ;
#734 = VECTOR ( 'NONE', #430, 1000.000000000000000 ) ;
#735 = ORIENTED_EDGE ( 'NONE', *, *, #61, .F. ) ;
#736 = CARTESIAN_POINT ( 'NONE',  ( -3.200000000000000178, 0.1000000000000000056, 0.1499999999999999944 ) ) ;
#737 = DIRECTION ( 'NONE',  ( 0.000000000000000000, -1.000000000000000000, 2.220446049250000002E-16 ) ) ;
#738 = ADVANCED_FACE ( 'NONE', ( #2 ), #5, .T. ) ;
#739 = ORIENTED_EDGE ( 'NONE', *, *, #712, .F. ) ;
#740 = CARTESIAN_POINT ( 'NONE',  ( -2.309098300563000361, 0.1000000000000000056, 0.4699999999999999734 ) ) ;
#741 = DIRECTION ( 'NONE',  ( 0.000000000000000000, -2.710505431213761085E-16, -1.000000000000000000 ) ) ;
#742 = CARTESIAN_POINT ( 'NONE',  ( 2.678885438201000113, -0.1000000000000000056, 0.1776393202250000081 ) ) ;
#743 = LINE ( 'NONE', #341, #305 ) ;
#744 = VECTOR ( 'NONE', #161, 1000.000000000000000 ) ;
#745 = CIRCLE ( 'NONE', #136, 0.04999999999999999584 ) ;
#746 = DIRECTION ( 'NONE',  ( 0.000000000000000000, 2.220446049250000002E-16, 1.000000000000000000 ) ) ;
ENDSEC;
END-ISO-10303-21;
