ISO-10303-21;
HEADER;
FILE_DESCRIPTION (( 'STEP AP214' ),
    '1' );
FILE_NAME ('Body010.step.STEP',
    '2026-01-08T13:34:34',
    ( '' ),
    ( '' ),
    'SwSTEP 2.0',
    'SolidWorks 2025',
    '' );
FILE_SCHEMA (( 'AUTOMOTIVE_DESIGN' ));
ENDSEC;

DATA;
#1 = SURFACE_STYLE_FILL_AREA ( #49 ) ;
#2 = UNCERTAINTY_MEASURE_WITH_UNIT (LENGTH_MEASURE( 1.000000000000000082E-05 ), #64, 'distance_accuracy_value', 'NONE');
#3 = DIRECTION ( 'NONE',  ( 0.000000000000000000, 1.000000000000000000, 0.000000000000000000 ) ) ;
#4 = VECTOR ( 'NONE', #94, 1000.000000000000000 ) ;
#5 = CARTESIAN_POINT ( 'NONE',  ( -0.5999999999999999778, 0.4000000000000000222, 1.000000000000000000 ) ) ;
#6 = DIRECTION ( 'NONE',  ( 1.000000000000000000, 0.000000000000000000, 0.000000000000000000 ) ) ;
#7 = CARTESIAN_POINT ( 'NONE',  ( -0.5999999999999999778, -0.4000000000000000222, 0.000000000000000000 ) ) ;
#8 = FACE_OUTER_BOUND ( 'NONE', #13, .T. ) ;
#9 = ORIENTED_EDGE ( 'NONE', *, *, #85, .T. ) ;
#10 = SHAPE_DEFINITION_REPRESENTATION ( #48, #40 ) ;
#11 = EDGE_LOOP ( 'NONE', ( #134, #196, #200, #179 ) ) ;
#12 = EDGE_CURVE ( 'NONE', #187, #93, #168, .T. ) ;
#13 = EDGE_LOOP ( 'NONE', ( #17, #185, #70, #75 ) ) ;
#14 = ORIENTED_EDGE ( 'NONE', *, *, #90, .F. ) ;
#15 = AXIS2_PLACEMENT_3D ( 'NONE', #96, #20, #52 ) ;
#16 = LINE ( 'NONE', #183, #152 ) ;
#17 = ORIENTED_EDGE ( 'NONE', *, *, #117, .T. ) ;
#18 = CARTESIAN_POINT ( 'NONE',  ( 0.5999999999999999778, -0.4000000000000000222, 0.000000000000000000 ) ) ;
#19 = DIRECTION ( 'NONE',  ( 0.000000000000000000, 0.000000000000000000, 1.000000000000000000 ) ) ;
#20 = DIRECTION ( 'NONE',  ( 0.000000000000000000, 0.000000000000000000, 1.000000000000000000 ) ) ;
#21 = CARTESIAN_POINT ( 'NONE',  ( 0.5999999999999999778, -0.4000000000000000222, 1.000000000000000000 ) ) ;
#22 = AXIS2_PLACEMENT_3D ( 'NONE', #61, #32, #201 ) ;
#23 = DIRECTION ( 'NONE',  ( 0.000000000000000000, -1.000000000000000000, 0.000000000000000000 ) ) ;
#24 = EDGE_CURVE ( 'NONE', #136, #133, #16, .T. ) ;
#25 =( NAMED_UNIT ( * ) SI_UNIT ( $, .STERADIAN. ) SOLID_ANGLE_UNIT ( ) );
#26 = VERTEX_POINT ( 'NONE', #105 ) ;
#27 = SURFACE_STYLE_USAGE ( .BOTH. , #130 ) ;
#28 = ORIENTED_EDGE ( 'NONE', *, *, #69, .F. ) ;
#29 = ORIENTED_EDGE ( 'NONE', *, *, #90, .T. ) ;
#30 = ADVANCED_FACE ( 'NONE', ( #123 ), #169, .T. ) ;
#31 = EDGE_CURVE ( 'NONE', #133, #158, #153, .T. ) ;
#32 = DIRECTION ( 'NONE',  ( -1.000000000000000000, 0.000000000000000000, 0.000000000000000000 ) ) ;
#33 = MANIFOLD_SOLID_BREP ( 'Body010[1]', #81 ) ;
#34 = CARTESIAN_POINT ( 'NONE',  ( 0.5999999999999999778, 0.4000000000000000222, 1.000000000000000000 ) ) ;
#35 = CARTESIAN_POINT ( 'NONE',  ( 0.5999999999999999778, 0.4000000000000000222, 0.000000000000000000 ) ) ;
#36 = VECTOR ( 'NONE', #140, 1000.000000000000000 ) ;
#37 =( NAMED_UNIT ( * ) PLANE_ANGLE_UNIT ( ) SI_UNIT ( $, .RADIAN. ) );
#38 = DIRECTION ( 'NONE',  ( -1.000000000000000000, 0.000000000000000000, 0.000000000000000000 ) ) ;
#39 = PLANE ( 'NONE',  #60 ) ;
#40 = ADVANCED_BREP_SHAPE_REPRESENTATION ( 'Body010.step', ( #33, #137 ), #120 ) ;
#41 = STYLED_ITEM ( 'NONE', ( #119 ), #33 ) ;
#42 = SURFACE_STYLE_FILL_AREA ( #198 ) ;
#43 =( NAMED_UNIT ( * ) SI_UNIT ( $, .STERADIAN. ) SOLID_ANGLE_UNIT ( ) );
#44 = ORIENTED_EDGE ( 'NONE', *, *, #194, .F. ) ;
#45 = VECTOR ( 'NONE', #23, 1000.000000000000000 ) ;
#46 = DIRECTION ( 'NONE',  ( 1.000000000000000000, 0.000000000000000000, 0.000000000000000000 ) ) ;
#47 = ORIENTED_EDGE ( 'NONE', *, *, #194, .T. ) ;
#48 = PRODUCT_DEFINITION_SHAPE ( 'NONE', 'NONE',  #180 ) ;
#49 = FILL_AREA_STYLE ('',( #139 ) ) ;
#50 = PRODUCT_DEFINITION_FORMATION_WITH_SPECIFIED_SOURCE ( 'Symmetric', '', #182, .NOT_KNOWN. ) ;
#51 = CARTESIAN_POINT ( 'NONE',  ( 0.5999999999999999778, -0.4000000000000000222, 0.000000000000000000 ) ) ;
#52 = DIRECTION ( 'NONE',  ( 1.000000000000000000, 0.000000000000000000, 0.000000000000000000 ) ) ;
#53 = DIRECTION ( 'NONE',  ( 0.000000000000000000, 0.000000000000000000, 1.000000000000000000 ) ) ;
#54 = PRODUCT_RELATED_PRODUCT_CATEGORY ( 'part', '', ( #182 ) ) ;
#55 = DIRECTION ( 'NONE',  ( 1.000000000000000000, 0.000000000000000000, 0.000000000000000000 ) ) ;
#56 = EDGE_LOOP ( 'NONE', ( #151, #135, #14, #72 ) ) ;
#57 =( NAMED_UNIT ( * ) PLANE_ANGLE_UNIT ( ) SI_UNIT ( $, .RADIAN. ) );
#58 = PRESENTATION_LAYER_ASSIGNMENT (  '', '', ( #111 ) ) ;
#59 = CARTESIAN_POINT ( 'NONE',  ( -0.5999999999999999778, -0.4000000000000000222, 1.000000000000000000 ) ) ;
#60 = AXIS2_PLACEMENT_3D ( 'NONE', #82, #110, #190 ) ;
#61 = CARTESIAN_POINT ( 'NONE',  ( -0.5999999999999999778, -0.4000000000000000222, 0.000000000000000000 ) ) ;
#62 = CARTESIAN_POINT ( 'NONE',  ( -0.5999999999999999778, 0.4000000000000000222, 1.000000000000000000 ) ) ;
#63 = DIRECTION ( 'NONE',  ( 1.000000000000000000, 0.000000000000000000, 0.000000000000000000 ) ) ;
#64 =( LENGTH_UNIT ( ) NAMED_UNIT ( * ) SI_UNIT ( .MILLI., .METRE. ) );
#65 = CARTESIAN_POINT ( 'NONE',  ( -0.5999999999999999778, 0.4000000000000000222, 0.000000000000000000 ) ) ;
#66 = LINE ( 'NONE', #51, #129 ) ;
#67 = COLOUR_RGB ( '',0.5490196078431373028, 0.4039215686274509887, 0.2392156862745097867 ) ;
#68 = APPLICATION_CONTEXT ( 'automotive_design' ) ;
#69 = EDGE_CURVE ( 'NONE', #158, #116, #74, .T. ) ;
#70 = ORIENTED_EDGE ( 'NONE', *, *, #102, .F. ) ;
#71 =( NAMED_UNIT ( * ) SI_UNIT ( $, .STERADIAN. ) SOLID_ANGLE_UNIT ( ) );
#72 = ORIENTED_EDGE ( 'NONE', *, *, #85, .F. ) ;
#73 = VECTOR ( 'NONE', #19, 1000.000000000000000 ) ;
#74 = LINE ( 'NONE', #62, #176 ) ;
#75 = ORIENTED_EDGE ( 'NONE', *, *, #138, .F. ) ;
#76 = CARTESIAN_POINT ( 'NONE',  ( 0.000000000000000000, 0.000000000000000000, 0.000000000000000000 ) ) ;
#77 = COLOUR_RGB ( '',0.5490196078431373028, 0.4039215686274509887, 0.2392156862745097867 ) ;
#78 = LINE ( 'NONE', #165, #45 ) ;
#79 = CARTESIAN_POINT ( 'NONE',  ( -0.5999999999999999778, -0.4000000000000000222, 0.000000000000000000 ) ) ;
#80 = PLANE ( 'NONE',  #173 ) ;
#81 = CLOSED_SHELL ( 'NONE', ( #106, #155, #30, #147, #197, #159 ) ) ;
#82 = CARTESIAN_POINT ( 'NONE',  ( -0.5999999999999999778, 0.4000000000000000222, 0.000000000000000000 ) ) ;
#83 =( LENGTH_UNIT ( ) NAMED_UNIT ( * ) SI_UNIT ( .MILLI., .METRE. ) );
#84 = CARTESIAN_POINT ( 'NONE',  ( 0.000000000000000000, 0.000000000000000000, 0.000000000000000000 ) ) ;
#85 = EDGE_CURVE ( 'NONE', #26, #187, #191, .T. ) ;
#86 = AXIS2_PLACEMENT_3D ( 'NONE', #76, #141, #163 ) ;
#87 = ORIENTED_EDGE ( 'NONE', *, *, #12, .T. ) ;
#88 = PRODUCT_CONTEXT ( 'NONE', #149, 'mechanical' ) ;
#89 = CARTESIAN_POINT ( 'NONE',  ( 0.5999999999999999778, 0.4000000000000000222, 0.000000000000000000 ) ) ;
#90 = EDGE_CURVE ( 'NONE', #187, #116, #161, .T. ) ;
#91 = EDGE_LOOP ( 'NONE', ( #9, #87, #99, #177 ) ) ;
#92 = ORIENTED_EDGE ( 'NONE', *, *, #24, .F. ) ;
#93 = VERTEX_POINT ( 'NONE', #146 ) ;
#94 = DIRECTION ( 'NONE',  ( 0.000000000000000000, 0.000000000000000000, 1.000000000000000000 ) ) ;
#95 = CARTESIAN_POINT ( 'NONE',  ( -0.5999999999999999778, -0.4000000000000000222, 1.000000000000000000 ) ) ;
#96 = CARTESIAN_POINT ( 'NONE',  ( 0.000000000000000000, 0.000000000000000000, 1.000000000000000000 ) ) ;
#97 = DIRECTION ( 'NONE',  ( 0.000000000000000000, -1.000000000000000000, 0.000000000000000000 ) ) ;
#98 = CARTESIAN_POINT ( 'NONE',  ( 0.5999999999999999778, 0.4000000000000000222, 0.000000000000000000 ) ) ;
#99 = ORIENTED_EDGE ( 'NONE', *, *, #138, .T. ) ;
#100 = AXIS2_PLACEMENT_3D ( 'NONE', #35, #6, #128 ) ;
#101 = DIRECTION ( 'NONE',  ( 0.000000000000000000, 0.000000000000000000, 1.000000000000000000 ) ) ;
#102 = EDGE_CURVE ( 'NONE', #156, #133, #125, .T. ) ;
#103 = SURFACE_SIDE_STYLE ('',( #1 ) ) ;
#104 =( GEOMETRIC_REPRESENTATION_CONTEXT ( 3 ) GLOBAL_UNCERTAINTY_ASSIGNED_CONTEXT ( ( #118 ) ) GLOBAL_UNIT_ASSIGNED_CONTEXT ( ( #83, #57, #25 ) ) REPRESENTATION_CONTEXT ( 'NONE', 'WORKASPACE' ) );
#105 = CARTESIAN_POINT ( 'NONE',  ( -0.5999999999999999778, 0.4000000000000000222, 0.000000000000000000 ) ) ;
#106 = ADVANCED_FACE ( 'NONE', ( #175 ), #174, .T. ) ;
#107 =( NAMED_UNIT ( * ) PLANE_ANGLE_UNIT ( ) SI_UNIT ( $, .RADIAN. ) );
#108 = PRESENTATION_LAYER_ASSIGNMENT (  '', '', ( #41 ) ) ;
#109 = CARTESIAN_POINT ( 'NONE',  ( -0.5999999999999999778, 0.4000000000000000222, 0.000000000000000000 ) ) ;
#110 = DIRECTION ( 'NONE',  ( -0.000000000000000000, 1.000000000000000000, 0.000000000000000000 ) ) ;
#111 = STYLED_ITEM ( 'NONE', ( #115 ), #40 ) ;
#112 = CARTESIAN_POINT ( 'NONE',  ( -0.5999999999999999778, -0.4000000000000000222, 0.000000000000000000 ) ) ;
#113 = CARTESIAN_POINT ( 'NONE',  ( 0.5999999999999999778, 0.4000000000000000222, 0.000000000000000000 ) ) ;
#114 = MECHANICAL_DESIGN_GEOMETRIC_PRESENTATION_REPRESENTATION (  '', ( #111 ), #104 ) ;
#115 = PRESENTATION_STYLE_ASSIGNMENT (( #27 ) ) ;
#116 = VERTEX_POINT ( 'NONE', #34 ) ;
#117 = EDGE_CURVE ( 'NONE', #93, #136, #189, .T. ) ;
#118 = UNCERTAINTY_MEASURE_WITH_UNIT (LENGTH_MEASURE( 1.000000000000000082E-05 ), #83, 'distance_accuracy_value', 'NONE');
#119 = PRESENTATION_STYLE_ASSIGNMENT (( #122 ) ) ;
#120 =( GEOMETRIC_REPRESENTATION_CONTEXT ( 3 ) GLOBAL_UNCERTAINTY_ASSIGNED_CONTEXT ( ( #2 ) ) GLOBAL_UNIT_ASSIGNED_CONTEXT ( ( #64, #37, #43 ) ) REPRESENTATION_CONTEXT ( 'NONE', 'WORKASPACE' ) );
#121 =( LENGTH_UNIT ( ) NAMED_UNIT ( * ) SI_UNIT ( .MILLI., .METRE. ) );
#122 = SURFACE_STYLE_USAGE ( .BOTH. , #103 ) ;
#123 = FACE_OUTER_BOUND ( 'NONE', #11, .T. ) ;
#124 = EDGE_CURVE ( 'NONE', #26, #158, #160, .T. ) ;
#125 = LINE ( 'NONE', #112, #142 ) ;
#126 = FACE_OUTER_BOUND ( 'NONE', #56, .T. ) ;
#127 = DIRECTION ( 'NONE',  ( 0.000000000000000000, 0.000000000000000000, -1.000000000000000000 ) ) ;
#128 = DIRECTION ( 'NONE',  ( 0.000000000000000000, 1.000000000000000000, 0.000000000000000000 ) ) ;
#129 = VECTOR ( 'NONE', #38, 1000.000000000000000 ) ;
#130 = SURFACE_SIDE_STYLE ('',( #42 ) ) ;
#131 = APPLICATION_PROTOCOL_DEFINITION ( 'draft international standard', 'automotive_design', 1998, #149 ) ;
#132 = VECTOR ( 'NONE', #63, 1000.000000000000000 ) ;
#133 = VERTEX_POINT ( 'NONE', #95 ) ;
#134 = ORIENTED_EDGE ( 'NONE', *, *, #102, .T. ) ;
#135 = ORIENTED_EDGE ( 'NONE', *, *, #69, .T. ) ;
#136 = VERTEX_POINT ( 'NONE', #21 ) ;
#137 = AXIS2_PLACEMENT_3D ( 'NONE', #84, #101, #55 ) ;
#138 = EDGE_CURVE ( 'NONE', #93, #156, #66, .T. ) ;
#139 = FILL_AREA_STYLE_COLOUR ( '', #67 ) ;
#140 = DIRECTION ( 'NONE',  ( 0.000000000000000000, -1.000000000000000000, 0.000000000000000000 ) ) ;
#141 = DIRECTION ( 'NONE',  ( 0.000000000000000000, 0.000000000000000000, 1.000000000000000000 ) ) ;
#142 = VECTOR ( 'NONE', #53, 1000.000000000000000 ) ;
#143 = FACE_OUTER_BOUND ( 'NONE', #154, .T. ) ;
#144 = FACE_OUTER_BOUND ( 'NONE', #91, .T. ) ;
#145 = DIRECTION ( 'NONE',  ( 0.000000000000000000, 1.000000000000000000, 0.000000000000000000 ) ) ;
#146 = CARTESIAN_POINT ( 'NONE',  ( 0.5999999999999999778, -0.4000000000000000222, 0.000000000000000000 ) ) ;
#147 = ADVANCED_FACE ( 'NONE', ( #8 ), #80, .T. ) ;
#148 = VECTOR ( 'NONE', #3, 1000.000000000000000 ) ;
#149 = APPLICATION_CONTEXT ( 'automotive_design' ) ;
#150 = EDGE_CURVE ( 'NONE', #156, #26, #193, .T. ) ;
#151 = ORIENTED_EDGE ( 'NONE', *, *, #124, .T. ) ;
#152 = VECTOR ( 'NONE', #202, 1000.000000000000000 ) ;
#153 = LINE ( 'NONE', #59, #148 ) ;
#154 = EDGE_LOOP ( 'NONE', ( #29, #47, #157, #181 ) ) ;
#155 = ADVANCED_FACE ( 'NONE', ( #144 ), #164, .F. ) ;
#156 = VERTEX_POINT ( 'NONE', #7 ) ;
#157 = ORIENTED_EDGE ( 'NONE', *, *, #117, .F. ) ;
#158 = VERTEX_POINT ( 'NONE', #5 ) ;
#159 = ADVANCED_FACE ( 'NONE', ( #126 ), #39, .T. ) ;
#160 = LINE ( 'NONE', #65, #73 ) ;
#161 = LINE ( 'NONE', #113, #166 ) ;
#162 =( GEOMETRIC_REPRESENTATION_CONTEXT ( 3 ) GLOBAL_UNCERTAINTY_ASSIGNED_CONTEXT ( ( #199 ) ) GLOBAL_UNIT_ASSIGNED_CONTEXT ( ( #121, #107, #71 ) ) REPRESENTATION_CONTEXT ( 'NONE', 'WORKASPACE' ) );
#163 = DIRECTION ( 'NONE',  ( 1.000000000000000000, 0.000000000000000000, 0.000000000000000000 ) ) ;
#164 = PLANE ( 'NONE',  #86 ) ;
#165 = CARTESIAN_POINT ( 'NONE',  ( 0.5999999999999999778, 0.4000000000000000222, 1.000000000000000000 ) ) ;
#166 = VECTOR ( 'NONE', #172, 1000.000000000000000 ) ;
#167 = ORIENTED_EDGE ( 'NONE', *, *, #31, .F. ) ;
#168 = LINE ( 'NONE', #89, #36 ) ;
#169 = PLANE ( 'NONE',  #22 ) ;
#170 = CARTESIAN_POINT ( 'NONE',  ( 0.5999999999999999778, -0.4000000000000000222, 0.000000000000000000 ) ) ;
#171 = PLANE ( 'NONE',  #100 ) ;
#172 = DIRECTION ( 'NONE',  ( 0.000000000000000000, 0.000000000000000000, 1.000000000000000000 ) ) ;
#173 = AXIS2_PLACEMENT_3D ( 'NONE', #18, #97, #127 ) ;
#174 = PLANE ( 'NONE',  #15 ) ;
#175 = FACE_OUTER_BOUND ( 'NONE', #186, .T. ) ;
#176 = VECTOR ( 'NONE', #46, 1000.000000000000000 ) ;
#177 = ORIENTED_EDGE ( 'NONE', *, *, #150, .T. ) ;
#178 = APPLICATION_PROTOCOL_DEFINITION ( 'draft international standard', 'automotive_design', 1998, #68 ) ;
#179 = ORIENTED_EDGE ( 'NONE', *, *, #150, .F. ) ;
#180 = PRODUCT_DEFINITION ( 'General', '', #50, #188 ) ;
#181 = ORIENTED_EDGE ( 'NONE', *, *, #12, .F. ) ;
#182 = PRODUCT ( 'Body010.step', 'Body010.step', '', ( #88 ) ) ;
#183 = CARTESIAN_POINT ( 'NONE',  ( 0.5999999999999999778, -0.4000000000000000222, 1.000000000000000000 ) ) ;
#184 = MECHANICAL_DESIGN_GEOMETRIC_PRESENTATION_REPRESENTATION (  '', ( #41 ), #162 ) ;
#185 = ORIENTED_EDGE ( 'NONE', *, *, #24, .T. ) ;
#186 = EDGE_LOOP ( 'NONE', ( #167, #92, #44, #28 ) ) ;
#187 = VERTEX_POINT ( 'NONE', #98 ) ;
#188 = PRODUCT_DEFINITION_CONTEXT ( 'detailed design', #68, 'design' ) ;
#189 = LINE ( 'NONE', #170, #4 ) ;
#190 = DIRECTION ( 'NONE',  ( 1.000000000000000000, 0.000000000000000000, 0.000000000000000000 ) ) ;
#191 = LINE ( 'NONE', #109, #132 ) ;
#192 = VECTOR ( 'NONE', #145, 1000.000000000000000 ) ;
#193 = LINE ( 'NONE', #79, #192 ) ;
#194 = EDGE_CURVE ( 'NONE', #116, #136, #78, .T. ) ;
#195 = FILL_AREA_STYLE_COLOUR ( '', #77 ) ;
#196 = ORIENTED_EDGE ( 'NONE', *, *, #31, .T. ) ;
#197 = ADVANCED_FACE ( 'NONE', ( #143 ), #171, .T. ) ;
#198 = FILL_AREA_STYLE ('',( #195 ) ) ;
#199 = UNCERTAINTY_MEASURE_WITH_UNIT (LENGTH_MEASURE( 1.000000000000000082E-05 ), #121, 'distance_accuracy_value', 'NONE');
#200 = ORIENTED_EDGE ( 'NONE', *, *, #124, .F. ) ;
#201 = DIRECTION ( 'NONE',  ( 0.000000000000000000, 0.000000000000000000, 1.000000000000000000 ) ) ;
#202 = DIRECTION ( 'NONE',  ( -1.000000000000000000, 0.000000000000000000, 0.000000000000000000 ) ) ;
ENDSEC;
END-ISO-10303-21;
