ISO-10303-21;
HEADER;
FILE_DESCRIPTION (( 'STEP AP214' ),
    '1' );
FILE_NAME ('Body006.step.STEP',
    '2026-01-08T13:34:34',
    ( '' ),
    ( '' ),
    'SwSTEP 2.0',
    'SolidWorks 2025',
    '' );
FILE_SCHEMA (( 'AUTOMOTIVE_DESIGN' ));
ENDSEC;

DATA;
#1 = ORIENTED_EDGE ( 'NONE', *, *, #116, .F. ) ;
#2 = PRESENTATION_STYLE_ASSIGNMENT (( #153 ) ) ;
#3 =( NAMED_UNIT ( * ) PLANE_ANGLE_UNIT ( ) SI_UNIT ( $, .RADIAN. ) );
#4 = AXIS2_PLACEMENT_3D ( 'NONE', #13, #24, #83 ) ;
#5 = PRODUCT_RELATED_PRODUCT_CATEGORY ( 'part', '', ( #31 ) ) ;
#6 = PRODUCT_DEFINITION_SHAPE ( 'NONE', 'NONE',  #170 ) ;
#7 = CARTESIAN_POINT ( 'NONE',  ( -2.848833609457000171E-17, 6.369813900927999972E-19, 0.8000000000000000444 ) ) ;
#8 = FACE_BOUND ( 'NONE', #110, .T. ) ;
#9 = CARTESIAN_POINT ( 'NONE',  ( 0.000000000000000000, 0.000000000000000000, -0.8000000000000000444 ) ) ;
#10 = FACE_BOUND ( 'NONE', #59, .T. ) ;
#11 = PRODUCT_DEFINITION_FORMATION_WITH_SPECIFIED_SOURCE ( 'Symmetric', '', #31, .NOT_KNOWN. ) ;
#12 = ADVANCED_FACE ( 'NONE', ( #75 ), #95, .T. ) ;
#13 = CARTESIAN_POINT ( 'NONE',  ( 0.000000000000000000, 0.000000000000000000, -0.8000000000000000444 ) ) ;
#14 = EDGE_LOOP ( 'NONE', ( #62, #142, #140, #189 ) ) ;
#15 = ORIENTED_EDGE ( 'NONE', *, *, #147, .F. ) ;
#16 = VERTEX_POINT ( 'NONE', #80 ) ;
#17 = SHAPE_DEFINITION_REPRESENTATION ( #6, #42 ) ;
#18 = AXIS2_PLACEMENT_3D ( 'NONE', #88, #165, #159 ) ;
#19 = AXIS2_PLACEMENT_3D ( 'NONE', #202, #173, #54 ) ;
#20 = SURFACE_SIDE_STYLE ('',( #134 ) ) ;
#21 = AXIS2_PLACEMENT_3D ( 'NONE', #58, #73, #46 ) ;
#22 = CYLINDRICAL_SURFACE ( 'NONE', #44, 0.5000000000000000000 ) ;
#23 = PRESENTATION_LAYER_ASSIGNMENT (  '', '', ( #184 ) ) ;
#24 = DIRECTION ( 'NONE',  ( 0.000000000000000000, 0.000000000000000000, 1.000000000000000000 ) ) ;
#25 = DIRECTION ( 'NONE',  ( 0.000000000000000000, 0.000000000000000000, -1.000000000000000000 ) ) ;
#26 = VERTEX_POINT ( 'NONE', #94 ) ;
#27 = DIRECTION ( 'NONE',  ( 0.000000000000000000, 0.000000000000000000, -1.000000000000000000 ) ) ;
#28 = EDGE_LOOP ( 'NONE', ( #15, #74, #175, #47 ) ) ;
#29 = CIRCLE ( 'NONE', #135, 0.5000000000000000000 ) ;
#30 = FACE_OUTER_BOUND ( 'NONE', #14, .T. ) ;
#31 = PRODUCT ( 'Body006.step', 'Body006.step', '', ( #38 ) ) ;
#32 = ORIENTED_EDGE ( 'NONE', *, *, #128, .F. ) ;
#33 = SURFACE_STYLE_FILL_AREA ( #192 ) ;
#34 = PRODUCT_DEFINITION_CONTEXT ( 'detailed design', #100, 'design' ) ;
#35 = ORIENTED_EDGE ( 'NONE', *, *, #132, .T. ) ;
#36 = EDGE_CURVE ( 'NONE', #16, #162, #176, .T. ) ;
#37 = ORIENTED_EDGE ( 'NONE', *, *, #147, .T. ) ;
#38 = PRODUCT_CONTEXT ( 'NONE', #131, 'mechanical' ) ;
#39 = AXIS2_PLACEMENT_3D ( 'NONE', #124, #194, #178 ) ;
#40 = FACE_OUTER_BOUND ( 'NONE', #122, .T. ) ;
#41 = PLANE ( 'NONE',  #82 ) ;
#42 = ADVANCED_BREP_SHAPE_REPRESENTATION ( 'Body006.step', ( #64, #104 ), #61 ) ;
#43 = DIRECTION ( 'NONE',  ( 1.000000000000000000, 0.000000000000000000, 0.000000000000000000 ) ) ;
#44 = AXIS2_PLACEMENT_3D ( 'NONE', #9, #187, #206 ) ;
#45 = LINE ( 'NONE', #55, #167 ) ;
#46 = DIRECTION ( 'NONE',  ( 1.000000000000000000, 0.000000000000000000, 0.000000000000000000 ) ) ;
#47 = ORIENTED_EDGE ( 'NONE', *, *, #203, .F. ) ;
#48 = APPLICATION_PROTOCOL_DEFINITION ( 'draft international standard', 'automotive_design', 1998, #131 ) ;
#49 = AXIS2_PLACEMENT_3D ( 'NONE', #7, #137, #68 ) ;
#50 = VERTEX_POINT ( 'NONE', #127 ) ;
#51 = ORIENTED_EDGE ( 'NONE', *, *, #116, .T. ) ;
#52 = DIRECTION ( 'NONE',  ( 0.000000000000000000, 0.000000000000000000, -1.000000000000000000 ) ) ;
#53 = LINE ( 'NONE', #185, #89 ) ;
#54 = DIRECTION ( 'NONE',  ( 1.000000000000000000, 0.000000000000000000, 0.000000000000000000 ) ) ;
#55 = CARTESIAN_POINT ( 'NONE',  ( -0.2500000000000000000, -3.061616997868383018E-17, -0.8000000000000000444 ) ) ;
#56 = DIRECTION ( 'NONE',  ( 0.000000000000000000, 0.000000000000000000, -1.000000000000000000 ) ) ;
#57 = ORIENTED_EDGE ( 'NONE', *, *, #132, .F. ) ;
#58 = CARTESIAN_POINT ( 'NONE',  ( 0.000000000000000000, 0.000000000000000000, -0.8000000000000000444 ) ) ;
#59 = EDGE_LOOP ( 'NONE', ( #35, #166 ) ) ;
#60 = ORIENTED_EDGE ( 'NONE', *, *, #111, .F. ) ;
#61 =( GEOMETRIC_REPRESENTATION_CONTEXT ( 3 ) GLOBAL_UNCERTAINTY_ASSIGNED_CONTEXT ( ( #91 ) ) GLOBAL_UNIT_ASSIGNED_CONTEXT ( ( #90, #76, #123 ) ) REPRESENTATION_CONTEXT ( 'NONE', 'WORKASPACE' ) );
#62 = ORIENTED_EDGE ( 'NONE', *, *, #114, .F. ) ;
#63 = CARTESIAN_POINT ( 'NONE',  ( 0.2500000000000000000, 0.000000000000000000, -0.8000000000000000444 ) ) ;
#64 = MANIFOLD_SOLID_BREP ( 'Body006[1]', #149 ) ;
#65 = DIRECTION ( 'NONE',  ( 1.000000000000000000, 0.000000000000000000, 0.000000000000000000 ) ) ;
#66 = DIRECTION ( 'NONE',  ( 0.000000000000000000, 0.000000000000000000, 1.000000000000000000 ) ) ;
#67 = EDGE_CURVE ( 'NONE', #211, #207, #117, .T. ) ;
#68 = DIRECTION ( 'NONE',  ( 1.000000000000000000, 0.000000000000000000, 0.000000000000000000 ) ) ;
#69 = VECTOR ( 'NONE', #56, 1000.000000000000000 ) ;
#70 = CARTESIAN_POINT ( 'NONE',  ( 0.000000000000000000, 0.000000000000000000, -0.8000000000000000444 ) ) ;
#71 = PLANE ( 'NONE',  #49 ) ;
#72 = FILL_AREA_STYLE_COLOUR ( '', #154 ) ;
#73 = DIRECTION ( 'NONE',  ( 0.000000000000000000, 0.000000000000000000, 1.000000000000000000 ) ) ;
#74 = ORIENTED_EDGE ( 'NONE', *, *, #114, .T. ) ;
#75 = FACE_OUTER_BOUND ( 'NONE', #28, .T. ) ;
#76 =( NAMED_UNIT ( * ) PLANE_ANGLE_UNIT ( ) SI_UNIT ( $, .RADIAN. ) );
#77 = ORIENTED_EDGE ( 'NONE', *, *, #168, .F. ) ;
#78 = PRESENTATION_STYLE_ASSIGNMENT (( #163 ) ) ;
#79 = AXIS2_PLACEMENT_3D ( 'NONE', #106, #27, #97 ) ;
#80 = CARTESIAN_POINT ( 'NONE',  ( -0.5000000000000000000, -6.123233995736766036E-17, -0.8000000000000000444 ) ) ;
#81 = FILL_AREA_STYLE_COLOUR ( '', #151 ) ;
#82 = AXIS2_PLACEMENT_3D ( 'NONE', #152, #129, #65 ) ;
#83 = DIRECTION ( 'NONE',  ( 1.000000000000000000, 0.000000000000000000, 0.000000000000000000 ) ) ;
#84 = PRESENTATION_LAYER_ASSIGNMENT (  '', '', ( #183 ) ) ;
#85 = VECTOR ( 'NONE', #171, 1000.000000000000000 ) ;
#86 = DIRECTION ( 'NONE',  ( 0.000000000000000000, 0.000000000000000000, 1.000000000000000000 ) ) ;
#87 = CARTESIAN_POINT ( 'NONE',  ( 0.000000000000000000, 0.000000000000000000, 0.8000000000000000444 ) ) ;
#88 = CARTESIAN_POINT ( 'NONE',  ( 0.000000000000000000, 0.000000000000000000, -0.8000000000000000444 ) ) ;
#89 = VECTOR ( 'NONE', #52, 1000.000000000000000 ) ;
#90 =( LENGTH_UNIT ( ) NAMED_UNIT ( * ) SI_UNIT ( .MILLI., .METRE. ) );
#91 = UNCERTAINTY_MEASURE_WITH_UNIT (LENGTH_MEASURE( 1.000000000000000082E-05 ), #90, 'distance_accuracy_value', 'NONE');
#92 = CARTESIAN_POINT ( 'NONE',  ( 0.000000000000000000, 0.000000000000000000, 0.8000000000000000444 ) ) ;
#93 = ORIENTED_EDGE ( 'NONE', *, *, #36, .F. ) ;
#94 = CARTESIAN_POINT ( 'NONE',  ( 0.5000000000000000000, 0.000000000000000000, 0.8000000000000000444 ) ) ;
#95 = CYLINDRICAL_SURFACE ( 'NONE', #39, 0.5000000000000000000 ) ;
#96 = CARTESIAN_POINT ( 'NONE',  ( 0.000000000000000000, 0.000000000000000000, 0.000000000000000000 ) ) ;
#97 = DIRECTION ( 'NONE',  ( 1.000000000000000000, 0.000000000000000000, 0.000000000000000000 ) ) ;
#98 = UNCERTAINTY_MEASURE_WITH_UNIT (LENGTH_MEASURE( 1.000000000000000082E-05 ), #198, 'distance_accuracy_value', 'NONE');
#99 = CARTESIAN_POINT ( 'NONE',  ( 0.000000000000000000, 0.000000000000000000, -0.8000000000000000444 ) ) ;
#100 = APPLICATION_CONTEXT ( 'automotive_design' ) ;
#101 = FACE_OUTER_BOUND ( 'NONE', #121, .T. ) ;
#102 = ADVANCED_FACE ( 'NONE', ( #10, #40 ), #41, .F. ) ;
#103 =( GEOMETRIC_REPRESENTATION_CONTEXT ( 3 ) GLOBAL_UNCERTAINTY_ASSIGNED_CONTEXT ( ( #212 ) ) GLOBAL_UNIT_ASSIGNED_CONTEXT ( ( #199, #113, #182 ) ) REPRESENTATION_CONTEXT ( 'NONE', 'WORKASPACE' ) );
#104 = AXIS2_PLACEMENT_3D ( 'NONE', #96, #130, #180 ) ;
#105 = CARTESIAN_POINT ( 'NONE',  ( -0.2500000000000000000, -3.061616997868383018E-17, -0.8000000000000000444 ) ) ;
#106 = CARTESIAN_POINT ( 'NONE',  ( 0.000000000000000000, 0.000000000000000000, -0.8000000000000000444 ) ) ;
#107 = APPLICATION_PROTOCOL_DEFINITION ( 'draft international standard', 'automotive_design', 1998, #100 ) ;
#108 = CIRCLE ( 'NONE', #4, 0.2500000000000000000 ) ;
#109 = EDGE_LOOP ( 'NONE', ( #77, #51, #191, #60 ) ) ;
#110 = EDGE_LOOP ( 'NONE', ( #32, #1 ) ) ;
#111 = EDGE_CURVE ( 'NONE', #145, #207, #205, .T. ) ;
#112 = CARTESIAN_POINT ( 'NONE',  ( 0.000000000000000000, 0.000000000000000000, 0.8000000000000000444 ) ) ;
#113 =( NAMED_UNIT ( * ) PLANE_ANGLE_UNIT ( ) SI_UNIT ( $, .RADIAN. ) );
#114 = EDGE_CURVE ( 'NONE', #179, #16, #53, .T. ) ;
#115 = AXIS2_PLACEMENT_3D ( 'NONE', #70, #25, #188 ) ;
#116 = EDGE_CURVE ( 'NONE', #50, #211, #155, .T. ) ;
#117 = LINE ( 'NONE', #63, #85 ) ;
#118 = DIRECTION ( 'NONE',  ( 0.000000000000000000, 0.000000000000000000, -1.000000000000000000 ) ) ;
#119 = ORIENTED_EDGE ( 'NONE', *, *, #148, .T. ) ;
#120 = FACE_OUTER_BOUND ( 'NONE', #109, .T. ) ;
#121 = EDGE_LOOP ( 'NONE', ( #119, #37 ) ) ;
#122 = EDGE_LOOP ( 'NONE', ( #177, #93 ) ) ;
#123 =( NAMED_UNIT ( * ) SI_UNIT ( $, .STERADIAN. ) SOLID_ANGLE_UNIT ( ) );
#124 = CARTESIAN_POINT ( 'NONE',  ( 0.000000000000000000, 0.000000000000000000, -0.8000000000000000444 ) ) ;
#125 = AXIS2_PLACEMENT_3D ( 'NONE', #92, #86, #172 ) ;
#126 =( NAMED_UNIT ( * ) SI_UNIT ( $, .STERADIAN. ) SOLID_ANGLE_UNIT ( ) );
#127 = CARTESIAN_POINT ( 'NONE',  ( -0.2500000000000000000, -3.061616997868383018E-17, 0.8000000000000000444 ) ) ;
#128 = EDGE_CURVE ( 'NONE', #211, #50, #193, .T. ) ;
#129 = DIRECTION ( 'NONE',  ( 0.000000000000000000, 0.000000000000000000, 1.000000000000000000 ) ) ;
#130 = DIRECTION ( 'NONE',  ( 0.000000000000000000, 0.000000000000000000, 1.000000000000000000 ) ) ;
#131 = APPLICATION_CONTEXT ( 'automotive_design' ) ;
#132 = EDGE_CURVE ( 'NONE', #207, #145, #108, .T. ) ;
#133 = CIRCLE ( 'NONE', #21, 0.5000000000000000000 ) ;
#134 = SURFACE_STYLE_FILL_AREA ( #181 ) ;
#135 = AXIS2_PLACEMENT_3D ( 'NONE', #87, #141, #43 ) ;
#136 = FACE_OUTER_BOUND ( 'NONE', #195, .T. ) ;
#137 = DIRECTION ( 'NONE',  ( 0.000000000000000000, 0.000000000000000000, 1.000000000000000000 ) ) ;
#138 = ADVANCED_FACE ( 'NONE', ( #30 ), #22, .T. ) ;
#139 =( GEOMETRIC_REPRESENTATION_CONTEXT ( 3 ) GLOBAL_UNCERTAINTY_ASSIGNED_CONTEXT ( ( #98 ) ) GLOBAL_UNIT_ASSIGNED_CONTEXT ( ( #198, #3, #126 ) ) REPRESENTATION_CONTEXT ( 'NONE', 'WORKASPACE' ) );
#140 = ORIENTED_EDGE ( 'NONE', *, *, #203, .T. ) ;
#141 = DIRECTION ( 'NONE',  ( 0.000000000000000000, 0.000000000000000000, 1.000000000000000000 ) ) ;
#142 = ORIENTED_EDGE ( 'NONE', *, *, #148, .F. ) ;
#143 = CARTESIAN_POINT ( 'NONE',  ( 0.2500000000000000000, 0.000000000000000000, 0.8000000000000000444 ) ) ;
#144 = ORIENTED_EDGE ( 'NONE', *, *, #168, .T. ) ;
#145 = VERTEX_POINT ( 'NONE', #105 ) ;
#146 = MECHANICAL_DESIGN_GEOMETRIC_PRESENTATION_REPRESENTATION (  '', ( #184 ), #139 ) ;
#147 = EDGE_CURVE ( 'NONE', #179, #26, #29, .T. ) ;
#148 = EDGE_CURVE ( 'NONE', #26, #179, #214, .T. ) ;
#149 = CLOSED_SHELL ( 'NONE', ( #12, #197, #164, #102, #209, #138 ) ) ;
#150 = AXIS2_PLACEMENT_3D ( 'NONE', #112, #156, #186 ) ;
#151 = COLOUR_RGB ( '',0.9137254901960784048, 0.9137254901960784048, 0.9137254901960784048 ) ;
#152 = CARTESIAN_POINT ( 'NONE',  ( -2.848833609457000171E-17, 6.369813900927999972E-19, -0.8000000000000000444 ) ) ;
#153 = SURFACE_STYLE_USAGE ( .BOTH. , #20 ) ;
#154 = COLOUR_RGB ( '',0.9137254901960784048, 0.9137254901960784048, 0.9137254901960784048 ) ;
#155 = CIRCLE ( 'NONE', #150, 0.2500000000000000000 ) ;
#156 = DIRECTION ( 'NONE',  ( 0.000000000000000000, 0.000000000000000000, 1.000000000000000000 ) ) ;
#157 = EDGE_CURVE ( 'NONE', #162, #16, #133, .T. ) ;
#158 = CARTESIAN_POINT ( 'NONE',  ( 0.5000000000000000000, 0.000000000000000000, -0.8000000000000000444 ) ) ;
#159 = DIRECTION ( 'NONE',  ( 1.000000000000000000, 0.000000000000000000, 0.000000000000000000 ) ) ;
#160 = CARTESIAN_POINT ( 'NONE',  ( -0.5000000000000000000, -6.123233995736766036E-17, 0.8000000000000000444 ) ) ;
#161 = ORIENTED_EDGE ( 'NONE', *, *, #67, .F. ) ;
#162 = VERTEX_POINT ( 'NONE', #204 ) ;
#163 = SURFACE_STYLE_USAGE ( .BOTH. , #196 ) ;
#164 = ADVANCED_FACE ( 'NONE', ( #8, #101 ), #71, .T. ) ;
#165 = DIRECTION ( 'NONE',  ( 0.000000000000000000, 0.000000000000000000, 1.000000000000000000 ) ) ;
#166 = ORIENTED_EDGE ( 'NONE', *, *, #111, .T. ) ;
#167 = VECTOR ( 'NONE', #118, 1000.000000000000000 ) ;
#168 = EDGE_CURVE ( 'NONE', #50, #145, #45, .T. ) ;
#169 = DIRECTION ( 'NONE',  ( 1.000000000000000000, 0.000000000000000000, 0.000000000000000000 ) ) ;
#170 = PRODUCT_DEFINITION ( 'General', '', #11, #34 ) ;
#171 = DIRECTION ( 'NONE',  ( 0.000000000000000000, 0.000000000000000000, -1.000000000000000000 ) ) ;
#172 = DIRECTION ( 'NONE',  ( 1.000000000000000000, 0.000000000000000000, 0.000000000000000000 ) ) ;
#173 = DIRECTION ( 'NONE',  ( 0.000000000000000000, 0.000000000000000000, 1.000000000000000000 ) ) ;
#174 = CYLINDRICAL_SURFACE ( 'NONE', #115, 0.2500000000000000000 ) ;
#175 = ORIENTED_EDGE ( 'NONE', *, *, #36, .T. ) ;
#176 = CIRCLE ( 'NONE', #18, 0.5000000000000000000 ) ;
#177 = ORIENTED_EDGE ( 'NONE', *, *, #157, .F. ) ;
#178 = DIRECTION ( 'NONE',  ( 1.000000000000000000, 0.000000000000000000, 0.000000000000000000 ) ) ;
#179 = VERTEX_POINT ( 'NONE', #160 ) ;
#180 = DIRECTION ( 'NONE',  ( 1.000000000000000000, 0.000000000000000000, 0.000000000000000000 ) ) ;
#181 = FILL_AREA_STYLE ('',( #72 ) ) ;
#182 =( NAMED_UNIT ( * ) SI_UNIT ( $, .STERADIAN. ) SOLID_ANGLE_UNIT ( ) );
#183 = STYLED_ITEM ( 'NONE', ( #2 ), #64 ) ;
#184 = STYLED_ITEM ( 'NONE', ( #78 ), #42 ) ;
#185 = CARTESIAN_POINT ( 'NONE',  ( -0.5000000000000000000, -6.123233995736766036E-17, -0.8000000000000000444 ) ) ;
#186 = DIRECTION ( 'NONE',  ( 1.000000000000000000, 0.000000000000000000, 0.000000000000000000 ) ) ;
#187 = DIRECTION ( 'NONE',  ( 0.000000000000000000, 0.000000000000000000, -1.000000000000000000 ) ) ;
#188 = DIRECTION ( 'NONE',  ( 1.000000000000000000, 0.000000000000000000, 0.000000000000000000 ) ) ;
#189 = ORIENTED_EDGE ( 'NONE', *, *, #157, .T. ) ;
#190 = CYLINDRICAL_SURFACE ( 'NONE', #79, 0.2500000000000000000 ) ;
#191 = ORIENTED_EDGE ( 'NONE', *, *, #67, .T. ) ;
#192 = FILL_AREA_STYLE ('',( #81 ) ) ;
#193 = CIRCLE ( 'NONE', #19, 0.2500000000000000000 ) ;
#194 = DIRECTION ( 'NONE',  ( 0.000000000000000000, 0.000000000000000000, -1.000000000000000000 ) ) ;
#195 = EDGE_LOOP ( 'NONE', ( #210, #144, #57, #161 ) ) ;
#196 = SURFACE_SIDE_STYLE ('',( #33 ) ) ;
#197 = ADVANCED_FACE ( 'NONE', ( #136 ), #174, .F. ) ;
#198 =( LENGTH_UNIT ( ) NAMED_UNIT ( * ) SI_UNIT ( .MILLI., .METRE. ) );
#199 =( LENGTH_UNIT ( ) NAMED_UNIT ( * ) SI_UNIT ( .MILLI., .METRE. ) );
#200 = AXIS2_PLACEMENT_3D ( 'NONE', #99, #66, #169 ) ;
#201 = LINE ( 'NONE', #158, #69 ) ;
#202 = CARTESIAN_POINT ( 'NONE',  ( 0.000000000000000000, 0.000000000000000000, 0.8000000000000000444 ) ) ;
#203 = EDGE_CURVE ( 'NONE', #26, #162, #201, .T. ) ;
#204 = CARTESIAN_POINT ( 'NONE',  ( 0.5000000000000000000, 0.000000000000000000, -0.8000000000000000444 ) ) ;
#205 = CIRCLE ( 'NONE', #200, 0.2500000000000000000 ) ;
#206 = DIRECTION ( 'NONE',  ( 1.000000000000000000, 0.000000000000000000, 0.000000000000000000 ) ) ;
#207 = VERTEX_POINT ( 'NONE', #208 ) ;
#208 = CARTESIAN_POINT ( 'NONE',  ( 0.2500000000000000000, 0.000000000000000000, -0.8000000000000000444 ) ) ;
#209 = ADVANCED_FACE ( 'NONE', ( #120 ), #190, .F. ) ;
#210 = ORIENTED_EDGE ( 'NONE', *, *, #128, .T. ) ;
#211 = VERTEX_POINT ( 'NONE', #143 ) ;
#212 = UNCERTAINTY_MEASURE_WITH_UNIT (LENGTH_MEASURE( 1.000000000000000082E-05 ), #199, 'distance_accuracy_value', 'NONE');
#213 = MECHANICAL_DESIGN_GEOMETRIC_PRESENTATION_REPRESENTATION (  '', ( #183 ), #103 ) ;
#214 = CIRCLE ( 'NONE', #125, 0.5000000000000000000 ) ;
ENDSEC;
END-ISO-10303-21;
