ISO-10303-21;
HEADER;
FILE_DESCRIPTION (( 'STEP AP214' ),
    '1' );
FILE_NAME ('Body008.step.STEP',
    '2026-01-08T13:34:34',
    ( '' ),
    ( '' ),
    'SwSTEP 2.0',
    'SolidWorks 2025',
    '' );
FILE_SCHEMA (( 'AUTOMOTIVE_DESIGN' ));
ENDSEC;

DATA;
#1 = CARTESIAN_POINT ( 'NONE',  ( -1.899999999999999911, 2.295000000000000373, 1.000000000000000000 ) ) ;
#2 = DIRECTION ( 'NONE',  ( -0.5299989400030901132, 0.000000000000000000, 0.8479983040051441989 ) ) ;
#3 = ADVANCED_FACE ( 'NONE', ( #388 ), #149, .T. ) ;
#4 = DIRECTION ( 'NONE',  ( 1.000000000000000000, 0.000000000000000000, 0.000000000000000000 ) ) ;
#5 = DIRECTION ( 'NONE',  ( 1.000000000000000000, 0.000000000000000000, 0.000000000000000000 ) ) ;
#6 = ORIENTED_EDGE ( 'NONE', *, *, #392, .F. ) ;
#7 = CARTESIAN_POINT ( 'NONE',  ( -2.075000000000000178, 2.245000000000000107, 0.2000000000000000111 ) ) ;
#8 = AXIS2_PLACEMENT_3D ( 'NONE', #286, #119, #293 ) ;
#9 = ORIENTED_EDGE ( 'NONE', *, *, #128, .T. ) ;
#10 = CIRCLE ( 'NONE', #296, 0.04999999999999991257 ) ;
#11 = UNCERTAINTY_MEASURE_WITH_UNIT (LENGTH_MEASURE( 1.000000000000000082E-05 ), #814, 'distance_accuracy_value', 'NONE');
#12 = FACE_OUTER_BOUND ( 'NONE', #609, .T. ) ;
#13 = VERTEX_POINT ( 'NONE', #305 ) ;
#14 = EDGE_CURVE ( 'NONE', #178, #780, #334, .T. ) ;
#15 = CARTESIAN_POINT ( 'NONE',  ( -1.899999999999999911, 2.544999999999999929, 0.4000000000000000222 ) ) ;
#16 = ORIENTED_EDGE ( 'NONE', *, *, #595, .F. ) ;
#17 = VERTEX_POINT ( 'NONE', #269 ) ;
#18 = CARTESIAN_POINT ( 'NONE',  ( -1.949999999999999956, 2.245000000000000107, 1.000000000000000000 ) ) ;
#19 = ADVANCED_FACE ( 'NONE', ( #20 ), #264, .T. ) ;
#20 = FACE_OUTER_BOUND ( 'NONE', #291, .T. ) ;
#21 = DIRECTION ( 'NONE',  ( 0.000000000000000000, 0.000000000000000000, -1.000000000000000000 ) ) ;
#22 = AXIS2_PLACEMENT_3D ( 'NONE', #31, #289, #626 ) ;
#23 = AXIS2_PLACEMENT_3D ( 'NONE', #237, #488, #425 ) ;
#24 = ORIENTED_EDGE ( 'NONE', *, *, #481, .F. ) ;
#25 = EDGE_CURVE ( 'NONE', #411, #800, #188, .T. ) ;
#26 = AXIS2_PLACEMENT_3D ( 'NONE', #779, #210, #660 ) ;
#27 = FACE_OUTER_BOUND ( 'NONE', #661, .T. ) ;
#28 = VERTEX_POINT ( 'NONE', #634 ) ;
#29 = CARTESIAN_POINT ( 'NONE',  ( -1.949999999999999956, -2.245000000000000107, -5.551115123125999639E-17 ) ) ;
#30 = ORIENTED_EDGE ( 'NONE', *, *, #615, .F. ) ;
#31 = CARTESIAN_POINT ( 'NONE',  ( -2.200000000000000178, 2.544999999999999929, 0.000000000000000000 ) ) ;
#32 = CARTESIAN_POINT ( 'NONE',  ( -2.200000000000000178, -2.245000000000000107, 0.4000000000000000222 ) ) ;
#33 = EDGE_LOOP ( 'NONE', ( #121, #703, #483, #24 ) ) ;
#34 = ADVANCED_BREP_SHAPE_REPRESENTATION ( 'Body008.step', ( #143, #428 ), #681 ) ;
#35 = CARTESIAN_POINT ( 'NONE',  ( 2.200000000000000178, -2.245000000000000107, 0.000000000000000000 ) ) ;
#36 = AXIS2_PLACEMENT_3D ( 'NONE', #516, #758, #708 ) ;
#37 = FACE_OUTER_BOUND ( 'NONE', #789, .T. ) ;
#38 = ORIENTED_EDGE ( 'NONE', *, *, #194, .T. ) ;
#39 = COLOUR_RGB ( '',0.2274509803921568596, 0.2274509803921568596, 0.2274509803921568596 ) ;
#40 = PRODUCT_CONTEXT ( 'NONE', #739, 'mechanical' ) ;
#41 = EDGE_CURVE ( 'NONE', #446, #485, #500, .T. ) ;
#42 = DIRECTION ( 'NONE',  ( -0.8479983040051441989, 0.000000000000000000, 0.5299989400030901132 ) ) ;
#43 = ORIENTED_EDGE ( 'NONE', *, *, #759, .T. ) ;
#44 = CYLINDRICAL_SURFACE ( 'NONE', #280, 0.1663210000000000799 ) ;
#45 = DIRECTION ( 'NONE',  ( 0.000000000000000000, 1.000000000000000000, 0.000000000000000000 ) ) ;
#46 = VERTEX_POINT ( 'NONE', #18 ) ;
#47 = DIRECTION ( 'NONE',  ( 0.000000000000000000, 0.000000000000000000, 1.000000000000000000 ) ) ;
#48 = DIRECTION ( 'NONE',  ( 0.000000000000000000, 0.000000000000000000, -1.000000000000000000 ) ) ;
#49 = VERTEX_POINT ( 'NONE', #304 ) ;
#50 = LINE ( 'NONE', #170, #592 ) ;
#51 = VECTOR ( 'NONE', #347, 1000.000000000000000 ) ;
#52 = EDGE_CURVE ( 'NONE', #126, #178, #541, .T. ) ;
#53 = DIRECTION ( 'NONE',  ( 0.000000000000000000, 0.5299989400030901132, 0.8479983040051441989 ) ) ;
#54 = ORIENTED_EDGE ( 'NONE', *, *, #41, .T. ) ;
#55 = VECTOR ( 'NONE', #632, 1000.000000000000000 ) ;
#56 = DIRECTION ( 'NONE',  ( 0.000000000000000000, 0.000000000000000000, -1.000000000000000000 ) ) ;
#57 = AXIS2_PLACEMENT_3D ( 'NONE', #642, #323, #4 ) ;
#58 = PLANE ( 'NONE',  #23 ) ;
#59 = CARTESIAN_POINT ( 'NONE',  ( -1.899999999999999911, -2.544999999999999929, 0.4000000000000000222 ) ) ;
#60 = VERTEX_POINT ( 'NONE', #577 ) ;
#61 = CYLINDRICAL_SURFACE ( 'NONE', #426, 0.3000000000000001554 ) ;
#62 = CARTESIAN_POINT ( 'NONE',  ( -1.494977000000000000, 1.992537000000000003, 1.000000000000000000 ) ) ;
#63 = ORIENTED_EDGE ( 'NONE', *, *, #532, .F. ) ;
#64 = CARTESIAN_POINT ( 'NONE',  ( 2.200000000000000178, 2.245000000000000107, 0.5999999999999999778 ) ) ;
#65 = FACE_OUTER_BOUND ( 'NONE', #324, .T. ) ;
#66 = FACE_OUTER_BOUND ( 'NONE', #667, .T. ) ;
#67 = PRESENTATION_LAYER_ASSIGNMENT (  '', '', ( #618 ) ) ;
#68 = CARTESIAN_POINT ( 'NONE',  ( -2.200000000000000178, -2.245000000000000107, 0.4000000000000000222 ) ) ;
#69 = VECTOR ( 'NONE', #665, 1000.000000000000000 ) ;
#70 = ADVANCED_FACE ( 'NONE', ( #65 ), #603, .T. ) ;
#71 = DIRECTION ( 'NONE',  ( 0.000000000000000000, 0.000000000000000000, 1.000000000000000000 ) ) ;
#72 = ORIENTED_EDGE ( 'NONE', *, *, #733, .F. ) ;
#73 = LINE ( 'NONE', #68, #310 ) ;
#74 = DIRECTION ( 'NONE',  ( 0.000000000000000000, 1.000000000000000000, 0.000000000000000000 ) ) ;
#75 = EDGE_LOOP ( 'NONE', ( #277, #9, #333, #491 ) ) ;
#76 = CARTESIAN_POINT ( 'NONE',  ( 1.949999999999999956, 2.245000000000000107, 1.000000000000000000 ) ) ;
#77 = DIRECTION ( 'NONE',  ( 0.000000000000000000, 0.000000000000000000, 1.000000000000000000 ) ) ;
#78 = EDGE_CURVE ( 'NONE', #553, #126, #435, .T. ) ;
#79 = EDGE_LOOP ( 'NONE', ( #407, #216, #605, #617 ) ) ;
#80 = VECTOR ( 'NONE', #538, 1000.000000000000000 ) ;
#81 = CIRCLE ( 'NONE', #662, 0.1663210000000000799 ) ;
#82 = FACE_OUTER_BOUND ( 'NONE', #110, .T. ) ;
#83 = EDGE_CURVE ( 'NONE', #512, #200, #250, .T. ) ;
#84 = DIRECTION ( 'NONE',  ( 1.000000000000000000, 0.000000000000000000, 0.000000000000000000 ) ) ;
#85 = CARTESIAN_POINT ( 'NONE',  ( -1.899999999999999911, -2.544999999999999929, 0.5999999999999999778 ) ) ;
#86 = ORIENTED_EDGE ( 'NONE', *, *, #782, .F. ) ;
#87 = VECTOR ( 'NONE', #627, 1000.000000000000000 ) ;
#88 = CONICAL_SURFACE ( 'NONE', #465, 0.2999999999999999334, 0.5585993153440000913 ) ;
#89 = ADVANCED_FACE ( 'NONE', ( #754 ), #699, .T. ) ;
#90 = AXIS2_PLACEMENT_3D ( 'NONE', #127, #56, #107 ) ;
#91 = FACE_OUTER_BOUND ( 'NONE', #33, .T. ) ;
#92 = ORIENTED_EDGE ( 'NONE', *, *, #575, .F. ) ;
#93 = CARTESIAN_POINT ( 'NONE',  ( -1.899999999999999911, -2.245000000000000107, 0.000000000000000000 ) ) ;
#94 = ORIENTED_EDGE ( 'NONE', *, *, #713, .F. ) ;
#95 = DIRECTION ( 'NONE',  ( 0.000000000000000000, -0.5299989400030901132, 0.8479983040051441989 ) ) ;
#96 = ORIENTED_EDGE ( 'NONE', *, *, #777, .T. ) ;
#97 = CARTESIAN_POINT ( 'NONE',  ( 0.000000000000000000, 0.000000000000000000, 0.000000000000000000 ) ) ;
#98 = EDGE_CURVE ( 'NONE', #591, #704, #136, .T. ) ;
#99 = DIRECTION ( 'NONE',  ( 0.000000000000000000, 0.000000000000000000, 1.000000000000000000 ) ) ;
#100 = CONICAL_SURFACE ( 'NONE', #529, 0.2999999999999999334, 0.5585993153440000913 ) ;
#101 = DIRECTION ( 'NONE',  ( 0.8479983040051441989, 0.000000000000000000, 0.5299989400030901132 ) ) ;
#102 = DIRECTION ( 'NONE',  ( 0.000000000000000000, 0.000000000000000000, -1.000000000000000000 ) ) ;
#103 = ORIENTED_EDGE ( 'NONE', *, *, #513, .T. ) ;
#104 = AXIS2_PLACEMENT_3D ( 'NONE', #596, #525, #152 ) ;
#105 = CARTESIAN_POINT ( 'NONE',  ( 1.949999999999999956, 2.245000000000000107, 0.000000000000000000 ) ) ;
#106 = ORIENTED_EDGE ( 'NONE', *, *, #427, .T. ) ;
#107 = DIRECTION ( 'NONE',  ( 0.000000000000000000, 1.000000000000000000, 0.000000000000000000 ) ) ;
#108 = FACE_OUTER_BOUND ( 'NONE', #271, .T. ) ;
#109 = DIRECTION ( 'NONE',  ( 0.000000000000000000, -1.000000000000000000, 0.000000000000000000 ) ) ;
#110 = EDGE_LOOP ( 'NONE', ( #348, #539, #807, #30 ) ) ;
#111 = DIRECTION ( 'NONE',  ( 0.000000000000000000, -1.000000000000000000, 0.000000000000000000 ) ) ;
#112 = DIRECTION ( 'NONE',  ( -0.000000000000000000, 0.8479983040051441989, 0.5299989400030901132 ) ) ;
#113 = EDGE_CURVE ( 'NONE', #800, #49, #243, .T. ) ;
#114 = MECHANICAL_DESIGN_GEOMETRIC_PRESENTATION_REPRESENTATION (  '', ( #618 ), #401 ) ;
#115 = CARTESIAN_POINT ( 'NONE',  ( 1.899999999999999911, 2.295000000000000373, 1.000000000000000000 ) ) ;
#116 = EDGE_LOOP ( 'NONE', ( #364, #651, #602, #38 ) ) ;
#117 = CARTESIAN_POINT ( 'NONE',  ( 1.899999999999999911, -2.544999999999999929, 0.4000000000000000222 ) ) ;
#118 = VECTOR ( 'NONE', #445, 1000.000000000000000 ) ;
#119 = DIRECTION ( 'NONE',  ( 0.000000000000000000, 0.000000000000000000, 1.000000000000000000 ) ) ;
#120 = LINE ( 'NONE', #544, #732 ) ;
#121 = ORIENTED_EDGE ( 'NONE', *, *, #633, .T. ) ;
#122 = DIRECTION ( 'NONE',  ( -1.000000000000000000, 0.000000000000000000, 0.000000000000000000 ) ) ;
#123 = EDGE_CURVE ( 'NONE', #723, #126, #73, .T. ) ;
#124 = CARTESIAN_POINT ( 'NONE',  ( 2.200000000000000178, 2.245000000000000107, 0.4000000000000000222 ) ) ;
#125 = DIRECTION ( 'NONE',  ( 0.000000000000000000, 0.000000000000000000, -1.000000000000000000 ) ) ;
#126 = VERTEX_POINT ( 'NONE', #565 ) ;
#127 = CARTESIAN_POINT ( 'NONE',  ( 1.899999999999999911, 2.245000000000000107, 0.4000000000000000222 ) ) ;
#128 = EDGE_CURVE ( 'NONE', #480, #156, #181, .T. ) ;
#129 = DIRECTION ( 'NONE',  ( 0.000000000000000000, 0.000000000000000000, 1.000000000000000000 ) ) ;
#130 = VECTOR ( 'NONE', #340, 1000.000000000000000 ) ;
#131 = DIRECTION ( 'NONE',  ( 0.5299989400030901132, 0.000000000000000000, 0.8479983040051441989 ) ) ;
#132 = EDGE_CURVE ( 'NONE', #670, #200, #570, .T. ) ;
#133 = FILL_AREA_STYLE ('',( #694 ) ) ;
#134 = LINE ( 'NONE', #564, #311 ) ;
#135 = ORIENTED_EDGE ( 'NONE', *, *, #25, .F. ) ;
#136 = LINE ( 'NONE', #644, #451 ) ;
#137 = ORIENTED_EDGE ( 'NONE', *, *, #733, .T. ) ;
#138 = DIRECTION ( 'NONE',  ( 1.000000000000000000, 0.000000000000000000, 0.000000000000000000 ) ) ;
#139 = EDGE_LOOP ( 'NONE', ( #405, #655, #218, #638 ) ) ;
#140 = CARTESIAN_POINT ( 'NONE',  ( 2.200000000000000178, 2.245000000000000107, 0.5999999999999999778 ) ) ;
#141 = AXIS2_PLACEMENT_3D ( 'NONE', #499, #187, #308 ) ;
#142 = AXIS2_PLACEMENT_3D ( 'NONE', #442, #702, #763 ) ;
#143 = MANIFOLD_SOLID_BREP ( 'Body008[1]', #795 ) ;
#144 = DIRECTION ( 'NONE',  ( 0.000000000000000000, 0.000000000000000000, 1.000000000000000000 ) ) ;
#145 = CARTESIAN_POINT ( 'NONE',  ( 1.899999999999999911, 2.295000000000000373, 5.551115123125999639E-17 ) ) ;
#146 = ORIENTED_EDGE ( 'NONE', *, *, #52, .F. ) ;
#147 = DIRECTION ( 'NONE',  ( 0.000000000000000000, -1.000000000000000000, 0.000000000000000000 ) ) ;
#148 = ORIENTED_EDGE ( 'NONE', *, *, #610, .T. ) ;
#149 = PLANE ( 'NONE',  #22 ) ;
#150 =( NAMED_UNIT ( * ) PLANE_ANGLE_UNIT ( ) SI_UNIT ( $, .RADIAN. ) );
#151 = VECTOR ( 'NONE', #354, 1000.000000000000000 ) ;
#152 = DIRECTION ( 'NONE',  ( 0.000000000000000000, 1.000000000000000000, 0.000000000000000000 ) ) ;
#153 = ORIENTED_EDGE ( 'NONE', *, *, #182, .T. ) ;
#154 = EDGE_CURVE ( 'NONE', #156, #485, #756, .T. ) ;
#155 = CARTESIAN_POINT ( 'NONE',  ( -1.899999999999999911, -2.419999999999999929, 0.2000000000000000111 ) ) ;
#156 = VERTEX_POINT ( 'NONE', #788 ) ;
#157 = CARTESIAN_POINT ( 'NONE',  ( -1.899999999999999911, 2.544999999999999929, 0.5999999999999999778 ) ) ;
#158 = CARTESIAN_POINT ( 'NONE',  ( 2.075000000000000178, 2.245000000000000107, 0.8000000000000000444 ) ) ;
#159 = ADVANCED_FACE ( 'NONE', ( #799 ), #746, .T. ) ;
#160 = CARTESIAN_POINT ( 'NONE',  ( 1.899999999999999911, -2.544999999999999929, 0.5999999999999999778 ) ) ;
#161 = ORIENTED_EDGE ( 'NONE', *, *, #502, .T. ) ;
#162 = DIRECTION ( 'NONE',  ( -3.245307527132554999E-17, 0.5299989400030901132, -0.8479983040051441989 ) ) ;
#163 = DIRECTION ( 'NONE',  ( 0.000000000000000000, -1.000000000000000000, 0.000000000000000000 ) ) ;
#164 = ORIENTED_EDGE ( 'NONE', *, *, #257, .F. ) ;
#165 = FACE_OUTER_BOUND ( 'NONE', #328, .T. ) ;
#166 = EDGE_CURVE ( 'NONE', #206, #723, #792, .T. ) ;
#167 = DIRECTION ( 'NONE',  ( 0.000000000000000000, 1.000000000000000000, 0.000000000000000000 ) ) ;
#168 = LINE ( 'NONE', #351, #658 ) ;
#169 = ORIENTED_EDGE ( 'NONE', *, *, #350, .F. ) ;
#170 = CARTESIAN_POINT ( 'NONE',  ( -1.661298000000000163, 1.992537000000000003, 1.000000000000000000 ) ) ;
#171 = LINE ( 'NONE', #283, #380 ) ;
#172 = CARTESIAN_POINT ( 'NONE',  ( 2.200000000000000178, 2.544999999999999929, 0.000000000000000000 ) ) ;
#173 = ORIENTED_EDGE ( 'NONE', *, *, #666, .T. ) ;
#174 = CARTESIAN_POINT ( 'NONE',  ( -1.899999999999999911, -2.245000000000000107, 0.5999999999999999778 ) ) ;
#175 = DIRECTION ( 'NONE',  ( -1.000000000000000000, 0.000000000000000000, 0.000000000000000000 ) ) ;
#176 = AXIS2_PLACEMENT_3D ( 'NONE', #62, #290, #616 ) ;
#177 = DIRECTION ( 'NONE',  ( 0.000000000000000000, 0.000000000000000000, -1.000000000000000000 ) ) ;
#178 = VERTEX_POINT ( 'NONE', #230 ) ;
#179 = AXIS2_PLACEMENT_3D ( 'NONE', #174, #797, #111 ) ;
#180 = CIRCLE ( 'NONE', #455, 0.05000000000000012768 ) ;
#181 = LINE ( 'NONE', #76, #424 ) ;
#182 = EDGE_CURVE ( 'NONE', #200, #675, #509, .T. ) ;
#183 = VERTEX_POINT ( 'NONE', #115 ) ;
#184 = CARTESIAN_POINT ( 'NONE',  ( -1.899999999999999911, 2.419999999999999929, 0.8000000000000000444 ) ) ;
#185 = EDGE_CURVE ( 'NONE', #17, #679, #484, .T. ) ;
#186 = LINE ( 'NONE', #646, #193 ) ;
#187 = DIRECTION ( 'NONE',  ( 0.000000000000000000, 0.000000000000000000, 1.000000000000000000 ) ) ;
#188 = LINE ( 'NONE', #687, #278 ) ;
#189 = CIRCLE ( 'NONE', #176, 0.1663210000000000799 ) ;
#190 = PLANE ( 'NONE',  #142 ) ;
#191 = EDGE_LOOP ( 'NONE', ( #408, #173, #164, #320 ) ) ;
#192 =( LENGTH_UNIT ( ) NAMED_UNIT ( * ) SI_UNIT ( .MILLI., .METRE. ) );
#193 = VECTOR ( 'NONE', #77, 1000.000000000000000 ) ;
#194 = EDGE_CURVE ( 'NONE', #206, #679, #429, .T. ) ;
#195 = FACE_OUTER_BOUND ( 'NONE', #365, .T. ) ;
#196 = ORIENTED_EDGE ( 'NONE', *, *, #487, .T. ) ;
#197 = CARTESIAN_POINT ( 'NONE',  ( -1.899999999999999911, 2.544999999999999929, 0.000000000000000000 ) ) ;
#198 = VERTEX_POINT ( 'NONE', #356 ) ;
#199 = DIRECTION ( 'NONE',  ( 0.000000000000000000, -1.000000000000000000, 0.000000000000000000 ) ) ;
#200 = VERTEX_POINT ( 'NONE', #479 ) ;
#201 = LINE ( 'NONE', #514, #229 ) ;
#202 = VECTOR ( 'NONE', #727, 1000.000000000000000 ) ;
#203 = CIRCLE ( 'NONE', #402, 0.04999999999999991257 ) ;
#204 = DIRECTION ( 'NONE',  ( 0.000000000000000000, 0.5299989400030901132, -0.8479983040051441989 ) ) ;
#205 = EDGE_CURVE ( 'NONE', #28, #512, #473, .T. ) ;
#206 = VERTEX_POINT ( 'NONE', #59 ) ;
#207 = LINE ( 'NONE', #459, #69 ) ;
#208 = ORIENTED_EDGE ( 'NONE', *, *, #600, .T. ) ;
#209 = ADVANCED_FACE ( 'NONE', ( #621 ), #100, .T. ) ;
#210 = DIRECTION ( 'NONE',  ( 0.000000000000000000, 0.000000000000000000, 1.000000000000000000 ) ) ;
#211 = ORIENTED_EDGE ( 'NONE', *, *, #586, .F. ) ;
#212 = EDGE_CURVE ( 'NONE', #704, #274, #189, .T. ) ;
#213 = VECTOR ( 'NONE', #162, 1000.000000000000000 ) ;
#214 = CIRCLE ( 'NONE', #579, 0.04999999999999991257 ) ;
#215 = CARTESIAN_POINT ( 'NONE',  ( 1.899999999999999911, -2.295000000000000373, 0.000000000000000000 ) ) ;
#216 = ORIENTED_EDGE ( 'NONE', *, *, #782, .T. ) ;
#217 = EDGE_CURVE ( 'NONE', #723, #523, #552, .T. ) ;
#218 = ORIENTED_EDGE ( 'NONE', *, *, #182, .F. ) ;
#219 = DIRECTION ( 'NONE',  ( 1.000000000000000000, 0.000000000000000000, 0.000000000000000000 ) ) ;
#220 = EDGE_LOOP ( 'NONE', ( #576, #567, #374, #784 ) ) ;
#221 = CARTESIAN_POINT ( 'NONE',  ( -1.899999999999999911, -2.245000000000000107, 0.5999999999999999778 ) ) ;
#222 = FACE_OUTER_BOUND ( 'NONE', #75, .T. ) ;
#223 = DIRECTION ( 'NONE',  ( 1.000000000000000000, 0.000000000000000000, 0.000000000000000000 ) ) ;
#224 = ORIENTED_EDGE ( 'NONE', *, *, #132, .T. ) ;
#225 = APPLICATION_PROTOCOL_DEFINITION ( 'draft international standard', 'automotive_design', 1998, #657 ) ;
#226 = DIRECTION ( 'NONE',  ( -1.000000000000000000, 0.000000000000000000, 0.000000000000000000 ) ) ;
#227 = DIRECTION ( 'NONE',  ( 1.000000000000000000, 0.000000000000000000, 0.000000000000000000 ) ) ;
#228 = AXIS2_PLACEMENT_3D ( 'NONE', #260, #652, #501 ) ;
#229 = VECTOR ( 'NONE', #144, 1000.000000000000000 ) ;
#230 = CARTESIAN_POINT ( 'NONE',  ( -2.200000000000000178, 2.245000000000000107, 0.5999999999999999778 ) ) ;
#231 = ORIENTED_EDGE ( 'NONE', *, *, #600, .F. ) ;
#232 =( GEOMETRIC_REPRESENTATION_CONTEXT ( 3 ) GLOBAL_UNCERTAINTY_ASSIGNED_CONTEXT ( ( #689 ) ) GLOBAL_UNIT_ASSIGNED_CONTEXT ( ( #385, #150, #796 ) ) REPRESENTATION_CONTEXT ( 'NONE', 'WORKASPACE' ) );
#233 = DIRECTION ( 'NONE',  ( 1.000000000000000000, 0.000000000000000000, 0.000000000000000000 ) ) ;
#234 = EDGE_CURVE ( 'NONE', #715, #387, #168, .T. ) ;
#235 = DIRECTION ( 'NONE',  ( -1.000000000000000000, 0.000000000000000000, 0.000000000000000000 ) ) ;
#236 = ORIENTED_EDGE ( 'NONE', *, *, #713, .T. ) ;
#237 = CARTESIAN_POINT ( 'NONE',  ( 0.000000000000000000, -9.359098205481001276E-17, 0.000000000000000000 ) ) ;
#238 = CARTESIAN_POINT ( 'NONE',  ( -2.200000000000000178, -2.245000000000000107, 0.000000000000000000 ) ) ;
#239 = ORIENTED_EDGE ( 'NONE', *, *, #83, .F. ) ;
#240 = DIRECTION ( 'NONE',  ( 0.000000000000000000, 0.000000000000000000, -1.000000000000000000 ) ) ;
#241 = DIRECTION ( 'NONE',  ( 0.000000000000000000, -1.000000000000000000, 0.000000000000000000 ) ) ;
#242 = EDGE_CURVE ( 'NONE', #198, #387, #490, .T. ) ;
#243 = CIRCLE ( 'NONE', #760, 0.05000000000000012768 ) ;
#244 =( NAMED_UNIT ( * ) SI_UNIT ( $, .STERADIAN. ) SOLID_ANGLE_UNIT ( ) );
#245 = EDGE_LOOP ( 'NONE', ( #753, #710 ) ) ;
#246 = DIRECTION ( 'NONE',  ( -0.5299989400030901132, 0.000000000000000000, -0.8479983040051441989 ) ) ;
#247 = AXIS2_PLACEMENT_3D ( 'NONE', #469, #587, #84 ) ;
#248 = EDGE_CURVE ( 'NONE', #731, #715, #120, .T. ) ;
#249 = DIRECTION ( 'NONE',  ( 0.000000000000000000, 0.000000000000000000, -1.000000000000000000 ) ) ;
#250 = LINE ( 'NONE', #493, #390 ) ;
#251 = DIRECTION ( 'NONE',  ( -0.8479983040051441989, 0.000000000000000000, 0.5299989400030901132 ) ) ;
#252 = DIRECTION ( 'NONE',  ( 0.000000000000000000, 0.000000000000000000, 1.000000000000000000 ) ) ;
#253 = SURFACE_STYLE_USAGE ( .BOTH. , #272 ) ;
#254 = AXIS2_PLACEMENT_3D ( 'NONE', #611, #102, #45 ) ;
#255 = LINE ( 'NONE', #511, #118 ) ;
#256 = CIRCLE ( 'NONE', #495, 0.3000000000000001554 ) ;
#257 = EDGE_CURVE ( 'NONE', #387, #60, #608, .T. ) ;
#258 = CARTESIAN_POINT ( 'NONE',  ( -1.899999999999999911, -2.245000000000000107, 0.000000000000000000 ) ) ;
#259 = EDGE_LOOP ( 'NONE', ( #285, #773, #103, #330 ) ) ;
#260 = CARTESIAN_POINT ( 'NONE',  ( -1.899999999999999911, 2.245000000000000107, 0.5999999999999999778 ) ) ;
#261 = CARTESIAN_POINT ( 'NONE',  ( 0.000000000000000000, -9.359098205481001276E-17, 1.000000000000000000 ) ) ;
#262 = PLANE ( 'NONE',  #313 ) ;
#263 = ORIENTED_EDGE ( 'NONE', *, *, #448, .T. ) ;
#264 = CYLINDRICAL_SURFACE ( 'NONE', #8, 0.2999999999999999334 ) ;
#265 = CYLINDRICAL_SURFACE ( 'NONE', #26, 0.1663210000000000799 ) ;
#266 = VECTOR ( 'NONE', #803, 1000.000000000000000 ) ;
#267 = CIRCLE ( 'NONE', #798, 0.3000000000000001554 ) ;
#268 = VECTOR ( 'NONE', #204, 1000.000000000000000 ) ;
#269 = CARTESIAN_POINT ( 'NONE',  ( 1.899999999999999911, -2.544999999999999929, 0.5999999999999999778 ) ) ;
#270 = CARTESIAN_POINT ( 'NONE',  ( -1.899999999999999911, 2.544999999999999929, 0.5999999999999999778 ) ) ;
#271 = EDGE_LOOP ( 'NONE', ( #224, #239, #414, #106 ) ) ;
#272 = SURFACE_SIDE_STYLE ('',( #593 ) ) ;
#273 = PLANE ( 'NONE',  #326 ) ;
#274 = VERTEX_POINT ( 'NONE', #669 ) ;
#275 = CARTESIAN_POINT ( 'NONE',  ( 1.899999999999999911, 2.245000000000000107, 0.5999999999999999778 ) ) ;
#276 = DIRECTION ( 'NONE',  ( 1.000000000000000000, 0.000000000000000000, 0.000000000000000000 ) ) ;
#277 = ORIENTED_EDGE ( 'NONE', *, *, #610, .F. ) ;
#278 = VECTOR ( 'NONE', #700, 1000.000000000000000 ) ;
#279 = CONICAL_SURFACE ( 'NONE', #36, 0.3000000000000001554, 0.5585993153440000913 ) ;
#280 = AXIS2_PLACEMENT_3D ( 'NONE', #787, #607, #537 ) ;
#281 = PLANE ( 'NONE',  #477 ) ;
#282 = ORIENTED_EDGE ( 'NONE', *, *, #297, .F. ) ;
#283 = CARTESIAN_POINT ( 'NONE',  ( 1.899999999999999911, -2.544999999999999929, 0.5999999999999999778 ) ) ;
#284 = DIRECTION ( 'NONE',  ( 1.000000000000000000, 0.000000000000000000, 0.000000000000000000 ) ) ;
#285 = ORIENTED_EDGE ( 'NONE', *, *, #717, .F. ) ;
#286 = CARTESIAN_POINT ( 'NONE',  ( -1.899999999999999911, 2.245000000000000107, 0.000000000000000000 ) ) ;
#287 = DIRECTION ( 'NONE',  ( 0.000000000000000000, 0.000000000000000000, -1.000000000000000000 ) ) ;
#288 = EDGE_CURVE ( 'NONE', #183, #480, #705, .T. ) ;
#289 = DIRECTION ( 'NONE',  ( -0.000000000000000000, 1.000000000000000000, 0.000000000000000000 ) ) ;
#290 = DIRECTION ( 'NONE',  ( 0.000000000000000000, 0.000000000000000000, 1.000000000000000000 ) ) ;
#291 = EDGE_LOOP ( 'NONE', ( #63, #528, #453, #447 ) ) ;
#292 = FACE_OUTER_BOUND ( 'NONE', #259, .T. ) ;
#293 = DIRECTION ( 'NONE',  ( 0.000000000000000000, 1.000000000000000000, 0.000000000000000000 ) ) ;
#294 = VECTOR ( 'NONE', #413, 1000.000000000000000 ) ;
#295 = CIRCLE ( 'NONE', #520, 0.2999999999999999334 ) ;
#296 = AXIS2_PLACEMENT_3D ( 'NONE', #346, #668, #284 ) ;
#297 = EDGE_CURVE ( 'NONE', #715, #28, #378, .T. ) ;
#298 = ORIENTED_EDGE ( 'NONE', *, *, #416, .F. ) ;
#299 = CARTESIAN_POINT ( 'NONE',  ( -1.899999999999999911, 2.245000000000000107, 0.4000000000000000222 ) ) ;
#300 = DIRECTION ( 'NONE',  ( 0.000000000000000000, 0.000000000000000000, 1.000000000000000000 ) ) ;
#301 = ORIENTED_EDGE ( 'NONE', *, *, #448, .F. ) ;
#302 = DIRECTION ( 'NONE',  ( 0.5299989400030901132, 3.245307527132554999E-17, 0.8479983040051441989 ) ) ;
#303 = ADVANCED_FACE ( 'NONE', ( #321 ), #503, .T. ) ;
#304 = CARTESIAN_POINT ( 'NONE',  ( -1.949999999999999956, -2.245000000000000107, 1.000000000000000000 ) ) ;
#305 = CARTESIAN_POINT ( 'NONE',  ( 1.899999999999999911, -2.295000000000000373, 5.551115123125999639E-17 ) ) ;
#306 = ORIENTED_EDGE ( 'NONE', *, *, #582, .T. ) ;
#307 = CARTESIAN_POINT ( 'NONE',  ( 2.200000000000000178, 2.245000000000000107, 0.4000000000000000222 ) ) ;
#308 = DIRECTION ( 'NONE',  ( 1.000000000000000000, 0.000000000000000000, 0.000000000000000000 ) ) ;
#309 = ADVANCED_FACE ( 'NONE', ( #637 ), #325, .T. ) ;
#310 = VECTOR ( 'NONE', #750, 1000.000000000000000 ) ;
#311 = VECTOR ( 'NONE', #574, 1000.000000000000000 ) ;
#312 = CARTESIAN_POINT ( 'NONE',  ( 1.899999999999999911, -2.245000000000000107, 0.5999999999999999778 ) ) ;
#313 = AXIS2_PLACEMENT_3D ( 'NONE', #381, #251, #406 ) ;
#314 = DIRECTION ( 'NONE',  ( 0.000000000000000000, 0.000000000000000000, 1.000000000000000000 ) ) ;
#315 = EDGE_CURVE ( 'NONE', #679, #523, #695, .T. ) ;
#316 = LINE ( 'NONE', #197, #648 ) ;
#317 = ORIENTED_EDGE ( 'NONE', *, *, #575, .T. ) ;
#318 = FILL_AREA_STYLE ('',( #377 ) ) ;
#319 = DIRECTION ( 'NONE',  ( 0.5299989400030901132, 3.245307527132554999E-17, -0.8479983040051441989 ) ) ;
#320 = ORIENTED_EDGE ( 'NONE', *, *, #242, .F. ) ;
#321 = FACE_OUTER_BOUND ( 'NONE', #573, .T. ) ;
#322 = VECTOR ( 'NONE', #508, 1000.000000000000000 ) ;
#323 = DIRECTION ( 'NONE',  ( 0.000000000000000000, 0.000000000000000000, 1.000000000000000000 ) ) ;
#324 = EDGE_LOOP ( 'NONE', ( #153, #457, #92, #712 ) ) ;
#325 = CONICAL_SURFACE ( 'NONE', #751, 0.2999999999999999334, 0.5585993153440000913 ) ;
#326 = AXIS2_PLACEMENT_3D ( 'NONE', #399, #147, #21 ) ;
#327 = DIRECTION ( 'NONE',  ( 0.000000000000000000, 0.000000000000000000, 1.000000000000000000 ) ) ;
#328 = EDGE_LOOP ( 'NONE', ( #747, #785, #282, #622 ) ) ;
#329 = LINE ( 'NONE', #518, #268 ) ;
#330 = ORIENTED_EDGE ( 'NONE', *, *, #315, .F. ) ;
#331 = ADVANCED_FACE ( 'NONE', ( #614 ), #471, .F. ) ;
#332 = DIRECTION ( 'NONE',  ( 0.000000000000000000, 0.000000000000000000, -1.000000000000000000 ) ) ;
#333 = ORIENTED_EDGE ( 'NONE', *, *, #154, .T. ) ;
#334 = CIRCLE ( 'NONE', #228, 0.3000000000000001554 ) ;
#335 = VECTOR ( 'NONE', #363, 1000.000000000000000 ) ;
#336 = DIRECTION ( 'NONE',  ( 0.000000000000000000, 0.000000000000000000, 1.000000000000000000 ) ) ;
#337 = ORIENTED_EDGE ( 'NONE', *, *, #25, .T. ) ;
#338 = CARTESIAN_POINT ( 'NONE',  ( 2.200000000000000178, 2.245000000000000107, 0.4000000000000000222 ) ) ;
#339 = ORIENTED_EDGE ( 'NONE', *, *, #586, .T. ) ;
#340 = DIRECTION ( 'NONE',  ( 0.000000000000000000, -1.000000000000000000, 0.000000000000000000 ) ) ;
#341 = DIRECTION ( 'NONE',  ( 0.000000000000000000, 0.000000000000000000, -1.000000000000000000 ) ) ;
#342 = ORIENTED_EDGE ( 'NONE', *, *, #78, .F. ) ;
#343 = EDGE_CURVE ( 'NONE', #628, #780, #478, .T. ) ;
#344 = VECTOR ( 'NONE', #762, 1000.000000000000000 ) ;
#345 = DIRECTION ( 'NONE',  ( 0.000000000000000000, -0.8479983040051441989, 0.5299989400030901132 ) ) ;
#346 = CARTESIAN_POINT ( 'NONE',  ( 1.899999999999999911, -2.245000000000000107, 1.000000000000000000 ) ) ;
#347 = DIRECTION ( 'NONE',  ( 0.000000000000000000, 0.000000000000000000, 1.000000000000000000 ) ) ;
#348 = ORIENTED_EDGE ( 'NONE', *, *, #513, .F. ) ;
#349 = DIRECTION ( 'NONE',  ( 0.000000000000000000, 0.000000000000000000, 1.000000000000000000 ) ) ;
#350 = EDGE_CURVE ( 'NONE', #60, #446, #295, .T. ) ;
#351 = CARTESIAN_POINT ( 'NONE',  ( 1.899999999999999911, 2.419999999999999929, 0.2000000000000000111 ) ) ;
#352 = EDGE_LOOP ( 'NONE', ( #643, #367, #148, #169 ) ) ;
#353 = SHAPE_DEFINITION_REPRESENTATION ( #497, #34 ) ;
#354 = DIRECTION ( 'NONE',  ( -0.5299989400030901132, 0.000000000000000000, -0.8479983040051441989 ) ) ;
#355 = DIRECTION ( 'NONE',  ( 0.000000000000000000, -1.000000000000000000, 0.000000000000000000 ) ) ;
#356 = CARTESIAN_POINT ( 'NONE',  ( -1.899999999999999911, 2.544999999999999929, 0.4000000000000000222 ) ) ;
#357 = ORIENTED_EDGE ( 'NONE', *, *, #742, .T. ) ;
#358 = DIRECTION ( 'NONE',  ( 0.000000000000000000, 0.000000000000000000, 1.000000000000000000 ) ) ;
#359 = FACE_OUTER_BOUND ( 'NONE', #220, .T. ) ;
#360 = ADVANCED_FACE ( 'NONE', ( #359 ), #674, .F. ) ;
#361 = CARTESIAN_POINT ( 'NONE',  ( -1.899999999999999911, -2.544999999999999929, 0.000000000000000000 ) ) ;
#362 = ORIENTED_EDGE ( 'NONE', *, *, #630, .F. ) ;
#363 = DIRECTION ( 'NONE',  ( -1.000000000000000000, 0.000000000000000000, 0.000000000000000000 ) ) ;
#364 = ORIENTED_EDGE ( 'NONE', *, *, #315, .T. ) ;
#365 = EDGE_LOOP ( 'NONE', ( #583, #534, #146, #647 ) ) ;
#366 = CARTESIAN_POINT ( 'NONE',  ( -1.899999999999999911, -2.245000000000000107, 0.4000000000000000222 ) ) ;
#367 = ORIENTED_EDGE ( 'NONE', *, *, #288, .T. ) ;
#368 = ADVANCED_FACE ( 'NONE', ( #108 ), #536, .F. ) ;
#369 = LINE ( 'NONE', #475, #151 ) ;
#370 = ORIENTED_EDGE ( 'NONE', *, *, #806, .T. ) ;
#371 = SURFACE_STYLE_USAGE ( .BOTH. , #382 ) ;
#372 = DIRECTION ( 'NONE',  ( -1.000000000000000000, 0.000000000000000000, 0.000000000000000000 ) ) ;
#373 = PRODUCT ( 'Body008.step', 'Body008.step', '', ( #40 ) ) ;
#374 = ORIENTED_EDGE ( 'NONE', *, *, #248, .F. ) ;
#375 = EDGE_LOOP ( 'NONE', ( #301, #94, #571, #744 ) ) ;
#376 = FACE_OUTER_BOUND ( 'NONE', #430, .T. ) ;
#377 = FILL_AREA_STYLE_COLOUR ( '', #463 ) ;
#378 = CIRCLE ( 'NONE', #718, 0.05000000000000012768 ) ;
#379 = DIRECTION ( 'NONE',  ( 1.000000000000000000, 0.000000000000000000, 0.000000000000000000 ) ) ;
#380 = VECTOR ( 'NONE', #412, 1000.000000000000000 ) ;
#381 = CARTESIAN_POINT ( 'NONE',  ( -2.075000000000000178, -2.245000000000000107, 0.8000000000000000444 ) ) ;
#382 = SURFACE_SIDE_STYLE ('',( #693 ) ) ;
#383 = LINE ( 'NONE', #15, #55 ) ;
#384 = PRESENTATION_STYLE_ASSIGNMENT (( #371 ) ) ;
#385 =( LENGTH_UNIT ( ) NAMED_UNIT ( * ) SI_UNIT ( .MILLI., .METRE. ) );
#386 = LINE ( 'NONE', #140, #521 ) ;
#387 = VERTEX_POINT ( 'NONE', #743 ) ;
#388 = FACE_OUTER_BOUND ( 'NONE', #191, .T. ) ;
#389 = DIRECTION ( 'NONE',  ( 0.000000000000000000, 0.000000000000000000, -1.000000000000000000 ) ) ;
#390 = VECTOR ( 'NONE', #131, 1000.000000000000000 ) ;
#391 = DIRECTION ( 'NONE',  ( 0.000000000000000000, 0.000000000000000000, -1.000000000000000000 ) ) ;
#392 = EDGE_CURVE ( 'NONE', #411, #17, #171, .T. ) ;
#393 = AXIS2_PLACEMENT_3D ( 'NONE', #620, #42, #802 ) ;
#394 = AXIS2_PLACEMENT_3D ( 'NONE', #770, #341, #601 ) ;
#395 = FACE_OUTER_BOUND ( 'NONE', #507, .T. ) ;
#396 = LINE ( 'NONE', #32, #531 ) ;
#397 = ORIENTED_EDGE ( 'NONE', *, *, #806, .F. ) ;
#398 = ADVANCED_FACE ( 'NONE', ( #421 ), #58, .F. ) ;
#399 = CARTESIAN_POINT ( 'NONE',  ( 2.200000000000000178, -2.544999999999999929, 0.000000000000000000 ) ) ;
#400 = ORIENTED_EDGE ( 'NONE', *, *, #666, .F. ) ;
#401 =( GEOMETRIC_REPRESENTATION_CONTEXT ( 3 ) GLOBAL_UNCERTAINTY_ASSIGNED_CONTEXT ( ( #431 ) ) GLOBAL_UNIT_ASSIGNED_CONTEXT ( ( #192, #738, #244 ) ) REPRESENTATION_CONTEXT ( 'NONE', 'WORKASPACE' ) );
#402 = AXIS2_PLACEMENT_3D ( 'NONE', #697, #249, #138 ) ;
#403 = EDGE_CURVE ( 'NONE', #200, #485, #682, .T. ) ;
#404 = LINE ( 'NONE', #215, #550 ) ;
#405 = ORIENTED_EDGE ( 'NONE', *, *, #561, .T. ) ;
#406 = DIRECTION ( 'NONE',  ( 0.000000000000000000, 1.000000000000000000, 0.000000000000000000 ) ) ;
#407 = ORIENTED_EDGE ( 'NONE', *, *, #154, .F. ) ;
#408 = ORIENTED_EDGE ( 'NONE', *, *, #532, .T. ) ;
#409 = FACE_OUTER_BOUND ( 'NONE', #721, .T. ) ;
#410 = CARTESIAN_POINT ( 'NONE',  ( -1.899999999999999911, -2.245000000000000107, 0.4000000000000000222 ) ) ;
#411 = VERTEX_POINT ( 'NONE', #440 ) ;
#412 = DIRECTION ( 'NONE',  ( 3.245307527132554999E-17, -0.5299989400030901132, -0.8479983040051441989 ) ) ;
#413 = DIRECTION ( 'NONE',  ( 1.000000000000000000, 0.000000000000000000, 0.000000000000000000 ) ) ;
#414 = ORIENTED_EDGE ( 'NONE', *, *, #205, .F. ) ;
#415 = DIRECTION ( 'NONE',  ( 0.000000000000000000, 0.000000000000000000, 1.000000000000000000 ) ) ;
#416 = EDGE_CURVE ( 'NONE', #387, #670, #812, .T. ) ;
#417 = DIRECTION ( 'NONE',  ( 0.000000000000000000, 0.000000000000000000, 1.000000000000000000 ) ) ;
#418 = ORIENTED_EDGE ( 'NONE', *, *, #98, .F. ) ;
#419 = LINE ( 'NONE', #307, #562 ) ;
#420 = ADVANCED_FACE ( 'NONE', ( #376 ), #635, .T. ) ;
#421 = FACE_OUTER_BOUND ( 'NONE', #460, .T. ) ;
#422 = EDGE_LOOP ( 'NONE', ( #581, #526, #569, #43 ) ) ;
#423 = FACE_OUTER_BOUND ( 'NONE', #139, .T. ) ;
#424 = VECTOR ( 'NONE', #686, 1000.000000000000000 ) ;
#425 = DIRECTION ( 'NONE',  ( 1.000000000000000000, 0.000000000000000000, 0.000000000000000000 ) ) ;
#426 = AXIS2_PLACEMENT_3D ( 'NONE', #673, #358, #613 ) ;
#427 = EDGE_CURVE ( 'NONE', #28, #670, #419, .T. ) ;
#428 = AXIS2_PLACEMENT_3D ( 'NONE', #97, #349, #233 ) ;
#429 = LINE ( 'NONE', #361, #547 ) ;
#430 = EDGE_LOOP ( 'NONE', ( #161, #16, #397, #809 ) ) ;
#431 = UNCERTAINTY_MEASURE_WITH_UNIT (LENGTH_MEASURE( 1.000000000000000082E-05 ), #192, 'distance_accuracy_value', 'NONE');
#432 = CARTESIAN_POINT ( 'NONE',  ( 1.899999999999999911, -2.419999999999999929, 0.8000000000000000444 ) ) ;
#433 = DIRECTION ( 'NONE',  ( 0.000000000000000000, 1.000000000000000000, 0.000000000000000000 ) ) ;
#434 = VERTEX_POINT ( 'NONE', #790 ) ;
#435 = LINE ( 'NONE', #7, #749 ) ;
#436 = DIRECTION ( 'NONE',  ( -0.000000000000000000, 0.8479983040051441989, 0.5299989400030901132 ) ) ;
#437 = FACE_BOUND ( 'NONE', #245, .T. ) ;
#438 = ADVANCED_FACE ( 'NONE', ( #801 ), #741, .T. ) ;
#439 = CARTESIAN_POINT ( 'NONE',  ( -1.899999999999999911, -2.245000000000000107, 1.000000000000000000 ) ) ;
#440 = CARTESIAN_POINT ( 'NONE',  ( 1.899999999999999911, -2.295000000000000373, 1.000000000000000000 ) ) ;
#441 = VECTOR ( 'NONE', #99, 1000.000000000000000 ) ;
#442 = CARTESIAN_POINT ( 'NONE',  ( -2.075000000000000178, -2.245000000000000107, 0.2000000000000000111 ) ) ;
#443 = VECTOR ( 'NONE', #74, 1000.000000000000000 ) ;
#444 = EDGE_CURVE ( 'NONE', #46, #178, #369, .T. ) ;
#445 = DIRECTION ( 'NONE',  ( 0.000000000000000000, 1.000000000000000000, 0.000000000000000000 ) ) ;
#446 = VERTEX_POINT ( 'NONE', #64 ) ;
#447 = ORIENTED_EDGE ( 'NONE', *, *, #14, .T. ) ;
#448 = EDGE_CURVE ( 'NONE', #434, #274, #50, .T. ) ;
#449 = CARTESIAN_POINT ( 'NONE',  ( -1.949999999999999956, 2.245000000000000107, 5.551115123125999639E-17 ) ) ;
#450 = ADVANCED_FACE ( 'NONE', ( #165 ), #88, .T. ) ;
#451 = VECTOR ( 'NONE', #314, 1000.000000000000000 ) ;
#452 = CARTESIAN_POINT ( 'NONE',  ( -2.200000000000000178, -2.544999999999999929, 0.000000000000000000 ) ) ;
#453 = ORIENTED_EDGE ( 'NONE', *, *, #52, .T. ) ;
#454 = VERTEX_POINT ( 'NONE', #745 ) ;
#455 = AXIS2_PLACEMENT_3D ( 'NONE', #93, #332, #522 ) ;
#456 = CARTESIAN_POINT ( 'NONE',  ( -2.200000000000000178, -2.245000000000000107, 0.4000000000000000222 ) ) ;
#457 = ORIENTED_EDGE ( 'NONE', *, *, #582, .F. ) ;
#458 = ADVANCED_FACE ( 'NONE', ( #292 ), #530, .T. ) ;
#459 = CARTESIAN_POINT ( 'NONE',  ( -1.899999999999999911, -2.419999999999999929, 0.8000000000000000444 ) ) ;
#460 = EDGE_LOOP ( 'NONE', ( #467, #740, #370, #771, #470, #559, #317, #357 ) ) ;
#461 = DIRECTION ( 'NONE',  ( 1.000000000000000000, 0.000000000000000000, 0.000000000000000000 ) ) ;
#462 = EDGE_LOOP ( 'NONE', ( #339, #54, #496, #794 ) ) ;
#463 = COLOUR_RGB ( '',0.2274509803921568596, 0.2274509803921568596, 0.2274509803921568596 ) ;
#464 =( NAMED_UNIT ( * ) PLANE_ANGLE_UNIT ( ) SI_UNIT ( $, .RADIAN. ) );
#465 = AXIS2_PLACEMENT_3D ( 'NONE', #498, #676, #486 ) ;
#466 = DIRECTION ( 'NONE',  ( -0.5299989400030901132, -3.245307527132554999E-17, 0.8479983040051441989 ) ) ;
#467 = ORIENTED_EDGE ( 'NONE', *, *, #656, .T. ) ;
#468 = ADVANCED_FACE ( 'NONE', ( #423 ), #61, .T. ) ;
#469 = CARTESIAN_POINT ( 'NONE',  ( -1.494977000000000000, 1.992537000000000003, 1.000000000000000000 ) ) ;
#470 = ORIENTED_EDGE ( 'NONE', *, *, #297, .T. ) ;
#471 = PLANE ( 'NONE',  #734 ) ;
#472 = PLANE ( 'NONE',  #769 ) ;
#473 = LINE ( 'NONE', #105, #266 ) ;
#474 = ORIENTED_EDGE ( 'NONE', *, *, #113, .F. ) ;
#475 = CARTESIAN_POINT ( 'NONE',  ( -2.075000000000000178, 2.245000000000000107, 0.8000000000000000444 ) ) ;
#476 = VECTOR ( 'NONE', #246, 1000.000000000000000 ) ;
#477 = AXIS2_PLACEMENT_3D ( 'NONE', #533, #783, #219 ) ;
#478 = LINE ( 'NONE', #157, #213 ) ;
#479 = CARTESIAN_POINT ( 'NONE',  ( 2.200000000000000178, -2.245000000000000107, 0.4000000000000000222 ) ) ;
#480 = VERTEX_POINT ( 'NONE', #554 ) ;
#481 = EDGE_CURVE ( 'NONE', #675, #206, #680, .T. ) ;
#482 = CARTESIAN_POINT ( 'NONE',  ( -1.899999999999999911, 2.419999999999999929, 0.2000000000000000111 ) ) ;
#483 = ORIENTED_EDGE ( 'NONE', *, *, #194, .F. ) ;
#484 = LINE ( 'NONE', #160, #87 ) ;
#485 = VERTEX_POINT ( 'NONE', #557 ) ;
#486 = DIRECTION ( 'NONE',  ( 0.000000000000000000, 1.000000000000000000, 0.000000000000000000 ) ) ;
#487 = EDGE_CURVE ( 'NONE', #46, #628, #719, .T. ) ;
#488 = DIRECTION ( 'NONE',  ( 0.000000000000000000, 0.000000000000000000, 1.000000000000000000 ) ) ;
#489 = ORIENTED_EDGE ( 'NONE', *, *, #123, .T. ) ;
#490 = LINE ( 'NONE', #683, #294 ) ;
#491 = ORIENTED_EDGE ( 'NONE', *, *, #41, .F. ) ;
#492 = DIRECTION ( 'NONE',  ( -1.000000000000000000, 0.000000000000000000, 0.000000000000000000 ) ) ;
#493 = CARTESIAN_POINT ( 'NONE',  ( 2.075000000000000178, -2.245000000000000107, 0.2000000000000000111 ) ) ;
#494 = AXIS2_PLACEMENT_3D ( 'NONE', #258, #252, #241 ) ;
#495 = AXIS2_PLACEMENT_3D ( 'NONE', #312, #391, #5 ) ;
#496 = ORIENTED_EDGE ( 'NONE', *, *, #403, .F. ) ;
#497 = PRODUCT_DEFINITION_SHAPE ( 'NONE', 'NONE',  #535 ) ;
#498 = CARTESIAN_POINT ( 'NONE',  ( 1.899999999999999911, 2.245000000000000107, 0.4000000000000000222 ) ) ;
#499 = CARTESIAN_POINT ( 'NONE',  ( 1.899999999999999911, -2.245000000000000107, 0.4000000000000000222 ) ) ;
#500 = LINE ( 'NONE', #524, #130 ) ;
#501 = DIRECTION ( 'NONE',  ( -1.000000000000000000, 0.000000000000000000, 0.000000000000000000 ) ) ;
#502 = EDGE_CURVE ( 'NONE', #126, #198, #267, .T. ) ;
#503 = PLANE ( 'NONE',  #589 ) ;
#504 = LINE ( 'NONE', #755, #344 ) ;
#505 = DIRECTION ( 'NONE',  ( 0.000000000000000000, -1.000000000000000000, 0.000000000000000000 ) ) ;
#506 = CARTESIAN_POINT ( 'NONE',  ( -2.200000000000000178, -2.245000000000000107, 0.5999999999999999778 ) ) ;
#507 = EDGE_LOOP ( 'NONE', ( #684, #196, #585, #776 ) ) ;
#508 = DIRECTION ( 'NONE',  ( 0.000000000000000000, 0.000000000000000000, 1.000000000000000000 ) ) ;
#509 = CIRCLE ( 'NONE', #811, 0.3000000000000001554 ) ;
#510 = CIRCLE ( 'NONE', #57, 0.1663210000000000799 ) ;
#511 = CARTESIAN_POINT ( 'NONE',  ( -2.200000000000000178, -2.245000000000000107, 0.5999999999999999778 ) ) ;
#512 = VERTEX_POINT ( 'NONE', #629 ) ;
#513 = EDGE_CURVE ( 'NONE', #49, #523, #560, .T. ) ;
#514 = CARTESIAN_POINT ( 'NONE',  ( 2.200000000000000178, 2.245000000000000107, 0.000000000000000000 ) ) ;
#515 = PRODUCT_RELATED_PRODUCT_CATEGORY ( 'part', '', ( #373 ) ) ;
#516 = CARTESIAN_POINT ( 'NONE',  ( 1.899999999999999911, -2.245000000000000107, 0.5999999999999999778 ) ) ;
#517 = AXIS2_PLACEMENT_3D ( 'NONE', #172, #671, #678 ) ;
#518 = CARTESIAN_POINT ( 'NONE',  ( 1.899999999999999911, 2.419999999999999929, 0.8000000000000000444 ) ) ;
#519 = ORIENTED_EDGE ( 'NONE', *, *, #185, .F. ) ;
#520 = AXIS2_PLACEMENT_3D ( 'NONE', #551, #737, #167 ) ;
#521 = VECTOR ( 'NONE', #319, 1000.000000000000000 ) ;
#522 = DIRECTION ( 'NONE',  ( 0.000000000000000000, -1.000000000000000000, 0.000000000000000000 ) ) ;
#523 = VERTEX_POINT ( 'NONE', #506 ) ;
#524 = CARTESIAN_POINT ( 'NONE',  ( 2.200000000000000178, 2.245000000000000107, 0.5999999999999999778 ) ) ;
#525 = DIRECTION ( 'NONE',  ( 0.000000000000000000, 0.000000000000000000, 1.000000000000000000 ) ) ;
#526 = ORIENTED_EDGE ( 'NONE', *, *, #752, .F. ) ;
#527 = CARTESIAN_POINT ( 'NONE',  ( -1.899999999999999911, 2.295000000000000373, -5.551115123125999639E-17 ) ) ;
#528 = ORIENTED_EDGE ( 'NONE', *, *, #502, .F. ) ;
#529 = AXIS2_PLACEMENT_3D ( 'NONE', #410, #417, #163 ) ;
#530 = CONICAL_SURFACE ( 'NONE', #179, 0.2999999999999999334, 0.5585993153440000913 ) ;
#531 = VECTOR ( 'NONE', #466, 1000.000000000000000 ) ;
#532 = EDGE_CURVE ( 'NONE', #198, #780, #316, .T. ) ;
#533 = CARTESIAN_POINT ( 'NONE',  ( -1.494977000000000000, 1.992537000000000003, 0.9000000000000000222 ) ) ;
#534 = ORIENTED_EDGE ( 'NONE', *, *, #615, .T. ) ;
#535 = PRODUCT_DEFINITION ( 'General', '', #549, #546 ) ;
#536 = PLANE ( 'NONE',  #393 ) ;
#537 = DIRECTION ( 'NONE',  ( 1.000000000000000000, 0.000000000000000000, 0.000000000000000000 ) ) ;
#538 = DIRECTION ( 'NONE',  ( 0.5299989400030901132, 0.000000000000000000, -0.8479983040051441989 ) ) ;
#539 = ORIENTED_EDGE ( 'NONE', *, *, #630, .T. ) ;
#540 = APPLICATION_PROTOCOL_DEFINITION ( 'draft international standard', 'automotive_design', 1998, #739 ) ;
#541 = LINE ( 'NONE', #735, #322 ) ;
#542 = ORIENTED_EDGE ( 'NONE', *, *, #774, .T. ) ;
#543 = ADVANCED_FACE ( 'NONE', ( #584 ), #279, .T. ) ;
#544 = CARTESIAN_POINT ( 'NONE',  ( -1.899999999999999911, 2.295000000000000373, 0.000000000000000000 ) ) ;
#545 = ORIENTED_EDGE ( 'NONE', *, *, #752, .T. ) ;
#546 = PRODUCT_DEFINITION_CONTEXT ( 'detailed design', #657, 'design' ) ;
#547 = VECTOR ( 'NONE', #300, 1000.000000000000000 ) ;
#548 = AXIS2_PLACEMENT_3D ( 'NONE', #805, #240, #492 ) ;
#549 = PRODUCT_DEFINITION_FORMATION_WITH_SPECIFIED_SOURCE ( 'Symmetric', '', #373, .NOT_KNOWN. ) ;
#550 = VECTOR ( 'NONE', #663, 1000.000000000000000 ) ;
#551 = CARTESIAN_POINT ( 'NONE',  ( 1.899999999999999911, 2.245000000000000107, 0.5999999999999999778 ) ) ;
#552 = LINE ( 'NONE', #238, #51 ) ;
#553 = VERTEX_POINT ( 'NONE', #449 ) ;
#554 = CARTESIAN_POINT ( 'NONE',  ( 1.949999999999999956, 2.245000000000000107, 1.000000000000000000 ) ) ;
#555 = CARTESIAN_POINT ( 'NONE',  ( 2.075000000000000178, -2.245000000000000107, 0.8000000000000000444 ) ) ;
#556 = ORIENTED_EDGE ( 'NONE', *, *, #717, .T. ) ;
#557 = CARTESIAN_POINT ( 'NONE',  ( 2.200000000000000178, -2.245000000000000107, 0.5999999999999999778 ) ) ;
#558 = DIRECTION ( 'NONE',  ( 1.000000000000000000, 0.000000000000000000, 0.000000000000000000 ) ) ;
#559 = ORIENTED_EDGE ( 'NONE', *, *, #205, .T. ) ;
#560 = LINE ( 'NONE', #810, #476 ) ;
#561 = EDGE_CURVE ( 'NONE', #485, #17, #256, .T. ) ;
#562 = VECTOR ( 'NONE', #302, 1000.000000000000000 ) ;
#563 = CIRCLE ( 'NONE', #247, 0.1663210000000000799 ) ;
#564 = CARTESIAN_POINT ( 'NONE',  ( 1.899999999999999911, -2.419999999999999929, 0.2000000000000000111 ) ) ;
#565 = CARTESIAN_POINT ( 'NONE',  ( -2.200000000000000178, 2.245000000000000107, 0.4000000000000000222 ) ) ;
#566 = ADVANCED_FACE ( 'NONE', ( #66 ), #190, .F. ) ;
#567 = ORIENTED_EDGE ( 'NONE', *, *, #234, .F. ) ;
#568 = PLANE ( 'NONE',  #659 ) ;
#569 = ORIENTED_EDGE ( 'NONE', *, *, #656, .F. ) ;
#570 = LINE ( 'NONE', #124, #767 ) ;
#571 = ORIENTED_EDGE ( 'NONE', *, *, #98, .T. ) ;
#572 =( NAMED_UNIT ( * ) SI_UNIT ( $, .STERADIAN. ) SOLID_ANGLE_UNIT ( ) );
#573 = EDGE_LOOP ( 'NONE', ( #672, #137, #96, #400 ) ) ;
#574 = DIRECTION ( 'NONE',  ( 0.000000000000000000, -0.5299989400030901132, 0.8479983040051441989 ) ) ;
#575 = EDGE_CURVE ( 'NONE', #512, #13, #203, .T. ) ;
#576 = ORIENTED_EDGE ( 'NONE', *, *, #242, .T. ) ;
#577 = CARTESIAN_POINT ( 'NONE',  ( 1.899999999999999911, 2.544999999999999929, 0.5999999999999999778 ) ) ;
#578 = AXIS2_PLACEMENT_3D ( 'NONE', #366, #48, #109 ) ;
#579 = AXIS2_PLACEMENT_3D ( 'NONE', #757, #125, #372 ) ;
#580 = CARTESIAN_POINT ( 'NONE',  ( -1.949999999999999956, -2.245000000000000107, 0.000000000000000000 ) ) ;
#581 = ORIENTED_EDGE ( 'NONE', *, *, #166, .T. ) ;
#582 = EDGE_CURVE ( 'NONE', #13, #675, #134, .T. ) ;
#583 = ORIENTED_EDGE ( 'NONE', *, *, #217, .T. ) ;
#584 = FACE_OUTER_BOUND ( 'NONE', #79, .T. ) ;
#585 = ORIENTED_EDGE ( 'NONE', *, *, #343, .T. ) ;
#586 = EDGE_CURVE ( 'NONE', #670, #446, #201, .T. ) ;
#587 = DIRECTION ( 'NONE',  ( 0.000000000000000000, 0.000000000000000000, 1.000000000000000000 ) ) ;
#588 = ADVANCED_FACE ( 'NONE', ( #195 ), #568, .T. ) ;
#589 = AXIS2_PLACEMENT_3D ( 'NONE', #184, #436, #379 ) ;
#590 = CARTESIAN_POINT ( 'NONE',  ( 1.899999999999999911, -2.544999999999999929, 0.4000000000000000222 ) ) ;
#591 = VERTEX_POINT ( 'NONE', #639 ) ;
#592 = VECTOR ( 'NONE', #415, 1000.000000000000000 ) ;
#593 = SURFACE_STYLE_FILL_AREA ( #133 ) ;
#594 = MECHANICAL_DESIGN_GEOMETRIC_PRESENTATION_REPRESENTATION (  '', ( #736 ), #232 ) ;
#595 = EDGE_CURVE ( 'NONE', #731, #198, #383, .T. ) ;
#596 = CARTESIAN_POINT ( 'NONE',  ( 1.899999999999999911, 2.245000000000000107, 0.000000000000000000 ) ) ;
#597 = ORIENTED_EDGE ( 'NONE', *, *, #288, .F. ) ;
#598 = LINE ( 'NONE', #726, #696 ) ;
#599 = ORIENTED_EDGE ( 'NONE', *, *, #604, .F. ) ;
#600 = EDGE_CURVE ( 'NONE', #434, #591, #510, .T. ) ;
#601 = DIRECTION ( 'NONE',  ( -1.000000000000000000, 0.000000000000000000, 0.000000000000000000 ) ) ;
#602 = ORIENTED_EDGE ( 'NONE', *, *, #166, .F. ) ;
#603 = CONICAL_SURFACE ( 'NONE', #141, 0.3000000000000001554, 0.5585993153440000913 ) ;
#604 = EDGE_CURVE ( 'NONE', #728, #553, #765, .T. ) ;
#605 = ORIENTED_EDGE ( 'NONE', *, *, #392, .T. ) ;
#606 = CARTESIAN_POINT ( 'NONE',  ( 1.899999999999999911, -2.419999999999999929, 0.2000000000000000111 ) ) ;
#607 = DIRECTION ( 'NONE',  ( 0.000000000000000000, 0.000000000000000000, 1.000000000000000000 ) ) ;
#608 = LINE ( 'NONE', #808, #202 ) ;
#609 = EDGE_LOOP ( 'NONE', ( #362, #474, #135, #86, #688, #597, #72, #625 ) ) ;
#610 = EDGE_CURVE ( 'NONE', #480, #446, #386, .T. ) ;
#611 = CARTESIAN_POINT ( 'NONE',  ( 1.899999999999999911, 2.245000000000000107, 1.000000000000000000 ) ) ;
#612 = EDGE_LOOP ( 'NONE', ( #6, #337, #556, #519 ) ) ;
#613 = DIRECTION ( 'NONE',  ( 1.000000000000000000, 0.000000000000000000, 0.000000000000000000 ) ) ;
#614 = FACE_OUTER_BOUND ( 'NONE', #725, .T. ) ;
#615 = EDGE_CURVE ( 'NONE', #523, #178, #255, .T. ) ;
#616 = DIRECTION ( 'NONE',  ( 1.000000000000000000, 0.000000000000000000, 0.000000000000000000 ) ) ;
#617 = ORIENTED_EDGE ( 'NONE', *, *, #561, .F. ) ;
#618 = STYLED_ITEM ( 'NONE', ( #384 ), #143 ) ;
#619 = AXIS2_PLACEMENT_3D ( 'NONE', #299, #47, #235 ) ;
#620 = CARTESIAN_POINT ( 'NONE',  ( 2.075000000000000178, 2.245000000000000107, 0.2000000000000000111 ) ) ;
#621 = FACE_OUTER_BOUND ( 'NONE', #422, .T. ) ;
#622 = ORIENTED_EDGE ( 'NONE', *, *, #234, .T. ) ;
#623 = DIRECTION ( 'NONE',  ( 0.000000000000000000, -0.8479983040051441989, 0.5299989400030901132 ) ) ;
#624 = ORIENTED_EDGE ( 'NONE', *, *, #759, .F. ) ;
#625 = ORIENTED_EDGE ( 'NONE', *, *, #487, .F. ) ;
#626 = DIRECTION ( 'NONE',  ( 1.000000000000000000, 0.000000000000000000, 0.000000000000000000 ) ) ;
#627 = DIRECTION ( 'NONE',  ( -1.000000000000000000, 0.000000000000000000, 0.000000000000000000 ) ) ;
#628 = VERTEX_POINT ( 'NONE', #1 ) ;
#629 = CARTESIAN_POINT ( 'NONE',  ( 1.949999999999999956, -2.245000000000000107, 5.551115123125999639E-17 ) ) ;
#630 = EDGE_CURVE ( 'NONE', #49, #46, #504, .T. ) ;
#631 = ORIENTED_EDGE ( 'NONE', *, *, #742, .F. ) ;
#632 = DIRECTION ( 'NONE',  ( -3.245307527132554999E-17, 0.5299989400030901132, 0.8479983040051441989 ) ) ;
#633 = EDGE_CURVE ( 'NONE', #675, #17, #186, .T. ) ;
#634 = CARTESIAN_POINT ( 'NONE',  ( 1.949999999999999956, 2.245000000000000107, -5.551115123125999639E-17 ) ) ;
#635 = CONICAL_SURFACE ( 'NONE', #619, 0.3000000000000001554, 0.5585993153440000913 ) ;
#636 = CONICAL_SURFACE ( 'NONE', #394, 0.3000000000000001554, 0.5585993153440000913 ) ;
#637 = FACE_OUTER_BOUND ( 'NONE', #352, .T. ) ;
#638 = ORIENTED_EDGE ( 'NONE', *, *, #403, .T. ) ;
#639 = CARTESIAN_POINT ( 'NONE',  ( -1.328655999999999837, 1.992537000000000003, 0.9000000000000000222 ) ) ;
#640 = DIRECTION ( 'NONE',  ( 0.000000000000000000, 0.000000000000000000, -1.000000000000000000 ) ) ;
#641 = ADVANCED_FACE ( 'NONE', ( #437, #12 ), #692, .T. ) ;
#642 = CARTESIAN_POINT ( 'NONE',  ( -1.494977000000000000, 1.992537000000000003, 0.9000000000000000222 ) ) ;
#643 = ORIENTED_EDGE ( 'NONE', *, *, #777, .F. ) ;
#644 = CARTESIAN_POINT ( 'NONE',  ( -1.328655999999999837, 1.992537000000000003, 1.000000000000000000 ) ) ;
#645 = ADVANCED_FACE ( 'NONE', ( #82 ), #262, .T. ) ;
#646 = CARTESIAN_POINT ( 'NONE',  ( 1.899999999999999911, -2.544999999999999929, 0.000000000000000000 ) ) ;
#647 = ORIENTED_EDGE ( 'NONE', *, *, #123, .F. ) ;
#648 = VECTOR ( 'NONE', #327, 1000.000000000000000 ) ;
#649 = VECTOR ( 'NONE', #95, 1000.000000000000000 ) ;
#650 = DIRECTION ( 'NONE',  ( 1.000000000000000000, 0.000000000000000000, 0.000000000000000000 ) ) ;
#651 = ORIENTED_EDGE ( 'NONE', *, *, #217, .F. ) ;
#652 = DIRECTION ( 'NONE',  ( 0.000000000000000000, 0.000000000000000000, -1.000000000000000000 ) ) ;
#653 = DIRECTION ( 'NONE',  ( 1.000000000000000000, 0.000000000000000000, 0.000000000000000000 ) ) ;
#654 = CARTESIAN_POINT ( 'NONE',  ( -1.494977000000000000, 1.992537000000000003, 0.9000000000000000222 ) ) ;
#655 = ORIENTED_EDGE ( 'NONE', *, *, #633, .F. ) ;
#656 = EDGE_CURVE ( 'NONE', #454, #728, #180, .T. ) ;
#657 = APPLICATION_CONTEXT ( 'automotive_design' ) ;
#658 = VECTOR ( 'NONE', #53, 1000.000000000000000 ) ;
#659 = AXIS2_PLACEMENT_3D ( 'NONE', #452, #701, #71 ) ;
#660 = DIRECTION ( 'NONE',  ( 1.000000000000000000, 0.000000000000000000, 0.000000000000000000 ) ) ;
#661 = EDGE_LOOP ( 'NONE', ( #664, #211, #298, #804 ) ) ;
#662 = AXIS2_PLACEMENT_3D ( 'NONE', #654, #336, #653 ) ;
#663 = DIRECTION ( 'NONE',  ( -1.000000000000000000, 0.000000000000000000, 0.000000000000000000 ) ) ;
#664 = ORIENTED_EDGE ( 'NONE', *, *, #350, .T. ) ;
#665 = DIRECTION ( 'NONE',  ( 0.000000000000000000, -0.5299989400030901132, -0.8479983040051441989 ) ) ;
#666 = EDGE_CURVE ( 'NONE', #780, #60, #714, .T. ) ;
#667 = EDGE_LOOP ( 'NONE', ( #489, #342, #599, #545 ) ) ;
#668 = DIRECTION ( 'NONE',  ( 0.000000000000000000, 0.000000000000000000, -1.000000000000000000 ) ) ;
#669 = CARTESIAN_POINT ( 'NONE',  ( -1.661298000000000163, 1.992537000000000003, 1.000000000000000000 ) ) ;
#670 = VERTEX_POINT ( 'NONE', #338 ) ;
#671 = DIRECTION ( 'NONE',  ( 1.000000000000000000, 0.000000000000000000, 0.000000000000000000 ) ) ;
#672 = ORIENTED_EDGE ( 'NONE', *, *, #343, .F. ) ;
#673 = CARTESIAN_POINT ( 'NONE',  ( 1.899999999999999911, -2.245000000000000107, 0.000000000000000000 ) ) ;
#674 = PLANE ( 'NONE',  #706 ) ;
#675 = VERTEX_POINT ( 'NONE', #590 ) ;
#676 = DIRECTION ( 'NONE',  ( 0.000000000000000000, 0.000000000000000000, 1.000000000000000000 ) ) ;
#677 = DIRECTION ( 'NONE',  ( 0.000000000000000000, 1.000000000000000000, 0.000000000000000000 ) ) ;
#678 = DIRECTION ( 'NONE',  ( 0.000000000000000000, 1.000000000000000000, 0.000000000000000000 ) ) ;
#679 = VERTEX_POINT ( 'NONE', #85 ) ;
#680 = LINE ( 'NONE', #117, #335 ) ;
#681 =( GEOMETRIC_REPRESENTATION_CONTEXT ( 3 ) GLOBAL_UNCERTAINTY_ASSIGNED_CONTEXT ( ( #11 ) ) GLOBAL_UNIT_ASSIGNED_CONTEXT ( ( #814, #464, #572 ) ) REPRESENTATION_CONTEXT ( 'NONE', 'WORKASPACE' ) );
#682 = LINE ( 'NONE', #35, #441 ) ;
#683 = CARTESIAN_POINT ( 'NONE',  ( -1.899999999999999911, 2.544999999999999929, 0.4000000000000000222 ) ) ;
#684 = ORIENTED_EDGE ( 'NONE', *, *, #444, .F. ) ;
#685 = DIRECTION ( 'NONE',  ( 0.000000000000000000, 0.000000000000000000, -1.000000000000000000 ) ) ;
#686 = DIRECTION ( 'NONE',  ( 0.000000000000000000, -1.000000000000000000, 0.000000000000000000 ) ) ;
#687 = CARTESIAN_POINT ( 'NONE',  ( 1.899999999999999911, -2.295000000000000373, 1.000000000000000000 ) ) ;
#688 = ORIENTED_EDGE ( 'NONE', *, *, #128, .F. ) ;
#689 = UNCERTAINTY_MEASURE_WITH_UNIT (LENGTH_MEASURE( 1.000000000000000082E-05 ), #385, 'distance_accuracy_value', 'NONE');
#690 = ADVANCED_FACE ( 'NONE', ( #91 ), #273, .T. ) ;
#691 = DIRECTION ( 'NONE',  ( 0.000000000000000000, -1.000000000000000000, 0.000000000000000000 ) ) ;
#692 = PLANE ( 'NONE',  #707 ) ;
#693 = SURFACE_STYLE_FILL_AREA ( #318 ) ;
#694 = FILL_AREA_STYLE_COLOUR ( '', #39 ) ;
#695 = CIRCLE ( 'NONE', #778, 0.2999999999999999334 ) ;
#696 = VECTOR ( 'NONE', #461, 1000.000000000000000 ) ;
#697 = CARTESIAN_POINT ( 'NONE',  ( 1.899999999999999911, -2.245000000000000107, 0.000000000000000000 ) ) ;
#698 = ORIENTED_EDGE ( 'NONE', *, *, #481, .T. ) ;
#699 = CYLINDRICAL_SURFACE ( 'NONE', #494, 0.2999999999999999334 ) ;
#700 = DIRECTION ( 'NONE',  ( -1.000000000000000000, 0.000000000000000000, 0.000000000000000000 ) ) ;
#701 = DIRECTION ( 'NONE',  ( -1.000000000000000000, 0.000000000000000000, 0.000000000000000000 ) ) ;
#702 = DIRECTION ( 'NONE',  ( 0.8479983040051441989, 0.000000000000000000, 0.5299989400030901132 ) ) ;
#703 = ORIENTED_EDGE ( 'NONE', *, *, #185, .T. ) ;
#704 = VERTEX_POINT ( 'NONE', #772 ) ;
#705 = CIRCLE ( 'NONE', #254, 0.05000000000000012768 ) ;
#706 = AXIS2_PLACEMENT_3D ( 'NONE', #482, #345, #175 ) ;
#707 = AXIS2_PLACEMENT_3D ( 'NONE', #261, #129, #650 ) ;
#708 = DIRECTION ( 'NONE',  ( 1.000000000000000000, 0.000000000000000000, 0.000000000000000000 ) ) ;
#709 = ADVANCED_FACE ( 'NONE', ( #27 ), #720, .T. ) ;
#710 = ORIENTED_EDGE ( 'NONE', *, *, #774, .F. ) ;
#711 = CARTESIAN_POINT ( 'NONE',  ( -1.899999999999999911, 2.544999999999999929, 0.5999999999999999778 ) ) ;
#712 = ORIENTED_EDGE ( 'NONE', *, *, #83, .T. ) ;
#713 = EDGE_CURVE ( 'NONE', #591, #434, #81, .T. ) ;
#714 = LINE ( 'NONE', #270, #813 ) ;
#715 = VERTEX_POINT ( 'NONE', #145 ) ;
#716 = PRESENTATION_STYLE_ASSIGNMENT (( #253 ) ) ;
#717 = EDGE_CURVE ( 'NONE', #800, #679, #207, .T. ) ;
#718 = AXIS2_PLACEMENT_3D ( 'NONE', #793, #389, #433 ) ;
#719 = CIRCLE ( 'NONE', #548, 0.04999999999999991257 ) ;
#720 = CYLINDRICAL_SURFACE ( 'NONE', #104, 0.2999999999999999334 ) ;
#721 = EDGE_LOOP ( 'NONE', ( #231, #263, #542, #418 ) ) ;
#722 = ADVANCED_FACE ( 'NONE', ( #775 ), #265, .F. ) ;
#723 = VERTEX_POINT ( 'NONE', #456 ) ;
#724 = LINE ( 'NONE', #155, #649 ) ;
#725 = EDGE_LOOP ( 'NONE', ( #698, #624, #631, #306 ) ) ;
#726 = CARTESIAN_POINT ( 'NONE',  ( -1.899999999999999911, 2.295000000000000373, 1.000000000000000000 ) ) ;
#727 = DIRECTION ( 'NONE',  ( 0.000000000000000000, 0.000000000000000000, 1.000000000000000000 ) ) ;
#728 = VERTEX_POINT ( 'NONE', #29 ) ;
#729 = DIRECTION ( 'NONE',  ( 0.000000000000000000, 0.000000000000000000, -1.000000000000000000 ) ) ;
#730 = CARTESIAN_POINT ( 'NONE',  ( 1.899999999999999911, -2.245000000000000107, 0.4000000000000000222 ) ) ;
#731 = VERTEX_POINT ( 'NONE', #527 ) ;
#732 = VECTOR ( 'NONE', #558, 1000.000000000000000 ) ;
#733 = EDGE_CURVE ( 'NONE', #628, #183, #598, .T. ) ;
#734 = AXIS2_PLACEMENT_3D ( 'NONE', #606, #112, #227 ) ;
#735 = CARTESIAN_POINT ( 'NONE',  ( -2.200000000000000178, 2.245000000000000107, 0.000000000000000000 ) ) ;
#736 = STYLED_ITEM ( 'NONE', ( #716 ), #34 ) ;
#737 = DIRECTION ( 'NONE',  ( 0.000000000000000000, 0.000000000000000000, -1.000000000000000000 ) ) ;
#738 =( NAMED_UNIT ( * ) PLANE_ANGLE_UNIT ( ) SI_UNIT ( $, .RADIAN. ) );
#739 = APPLICATION_CONTEXT ( 'automotive_design' ) ;
#740 = ORIENTED_EDGE ( 'NONE', *, *, #604, .T. ) ;
#741 = PLANE ( 'NONE',  #761 ) ;
#742 = EDGE_CURVE ( 'NONE', #13, #454, #404, .T. ) ;
#743 = CARTESIAN_POINT ( 'NONE',  ( 1.899999999999999911, 2.544999999999999929, 0.4000000000000000222 ) ) ;
#744 = ORIENTED_EDGE ( 'NONE', *, *, #212, .T. ) ;
#745 = CARTESIAN_POINT ( 'NONE',  ( -1.899999999999999911, -2.295000000000000373, 5.551115123125999639E-17 ) ) ;
#746 = PLANE ( 'NONE',  #517 ) ;
#747 = ORIENTED_EDGE ( 'NONE', *, *, #416, .T. ) ;
#748 = CARTESIAN_POINT ( 'NONE',  ( -1.899999999999999911, 2.245000000000000107, 0.4000000000000000222 ) ) ;
#749 = VECTOR ( 'NONE', #2, 1000.000000000000000 ) ;
#750 = DIRECTION ( 'NONE',  ( 0.000000000000000000, 1.000000000000000000, 0.000000000000000000 ) ) ;
#751 = AXIS2_PLACEMENT_3D ( 'NONE', #275, #287, #677 ) ;
#752 = EDGE_CURVE ( 'NONE', #728, #723, #396, .T. ) ;
#753 = ORIENTED_EDGE ( 'NONE', *, *, #212, .F. ) ;
#754 = FACE_OUTER_BOUND ( 'NONE', #116, .T. ) ;
#755 = CARTESIAN_POINT ( 'NONE',  ( -1.949999999999999956, -2.245000000000000107, 1.000000000000000000 ) ) ;
#756 = LINE ( 'NONE', #555, #80 ) ;
#757 = CARTESIAN_POINT ( 'NONE',  ( -1.899999999999999911, 2.245000000000000107, 0.000000000000000000 ) ) ;
#758 = DIRECTION ( 'NONE',  ( 0.000000000000000000, 0.000000000000000000, -1.000000000000000000 ) ) ;
#759 = EDGE_CURVE ( 'NONE', #454, #206, #724, .T. ) ;
#760 = AXIS2_PLACEMENT_3D ( 'NONE', #439, #640, #691 ) ;
#761 = AXIS2_PLACEMENT_3D ( 'NONE', #432, #623, #226 ) ;
#762 = DIRECTION ( 'NONE',  ( 0.000000000000000000, 1.000000000000000000, 0.000000000000000000 ) ) ;
#763 = DIRECTION ( 'NONE',  ( 0.000000000000000000, -1.000000000000000000, 0.000000000000000000 ) ) ;
#764 = ADVANCED_FACE ( 'NONE', ( #395 ), #636, .T. ) ;
#765 = LINE ( 'NONE', #580, #443 ) ;
#766 = CARTESIAN_POINT ( 'NONE',  ( -1.899999999999999911, -2.295000000000000373, 1.000000000000000000 ) ) ;
#767 = VECTOR ( 'NONE', #505, 1000.000000000000000 ) ;
#768 = ADVANCED_FACE ( 'NONE', ( #37 ), #281, .T. ) ;
#769 = AXIS2_PLACEMENT_3D ( 'NONE', #158, #101, #199 ) ;
#770 = CARTESIAN_POINT ( 'NONE',  ( -1.899999999999999911, 2.245000000000000107, 0.5999999999999999778 ) ) ;
#771 = ORIENTED_EDGE ( 'NONE', *, *, #248, .T. ) ;
#772 = CARTESIAN_POINT ( 'NONE',  ( -1.328655999999999837, 1.992537000000000003, 1.000000000000000000 ) ) ;
#773 = ORIENTED_EDGE ( 'NONE', *, *, #113, .T. ) ;
#774 = EDGE_CURVE ( 'NONE', #274, #704, #563, .T. ) ;
#775 = FACE_OUTER_BOUND ( 'NONE', #375, .T. ) ;
#776 = ORIENTED_EDGE ( 'NONE', *, *, #14, .F. ) ;
#777 = EDGE_CURVE ( 'NONE', #183, #60, #329, .T. ) ;
#778 = AXIS2_PLACEMENT_3D ( 'NONE', #221, #729, #355 ) ;
#779 = CARTESIAN_POINT ( 'NONE',  ( -1.494977000000000000, 1.992537000000000003, 1.000000000000000000 ) ) ;
#780 = VERTEX_POINT ( 'NONE', #711 ) ;
#781 = PRESENTATION_LAYER_ASSIGNMENT (  '', '', ( #736 ) ) ;
#782 = EDGE_CURVE ( 'NONE', #156, #411, #10, .T. ) ;
#783 = DIRECTION ( 'NONE',  ( 0.000000000000000000, 0.000000000000000000, 1.000000000000000000 ) ) ;
#784 = ORIENTED_EDGE ( 'NONE', *, *, #595, .T. ) ;
#785 = ORIENTED_EDGE ( 'NONE', *, *, #427, .F. ) ;
#786 = ADVANCED_FACE ( 'NONE', ( #409 ), #44, .F. ) ;
#787 = CARTESIAN_POINT ( 'NONE',  ( -1.494977000000000000, 1.992537000000000003, 1.000000000000000000 ) ) ;
#788 = CARTESIAN_POINT ( 'NONE',  ( 1.949999999999999956, -2.245000000000000107, 1.000000000000000000 ) ) ;
#789 = EDGE_LOOP ( 'NONE', ( #236, #208 ) ) ;
#790 = CARTESIAN_POINT ( 'NONE',  ( -1.661298000000000163, 1.992537000000000003, 0.9000000000000000222 ) ) ;
#791 = ADVANCED_FACE ( 'NONE', ( #222 ), #472, .T. ) ;
#792 = CIRCLE ( 'NONE', #578, 0.2999999999999999334 ) ;
#793 = CARTESIAN_POINT ( 'NONE',  ( 1.899999999999999911, 2.245000000000000107, 0.000000000000000000 ) ) ;
#794 = ORIENTED_EDGE ( 'NONE', *, *, #132, .F. ) ;
#795 = CLOSED_SHELL ( 'NONE', ( #786, #768, #690, #468, #722, #791, #543, #438, #458, #368, #209, #70, #331, #89, #645, #566, #159, #309, #641, #450, #398, #588, #764, #420, #709, #303, #360, #19, #3 ) ) ;
#796 =( NAMED_UNIT ( * ) SI_UNIT ( $, .STERADIAN. ) SOLID_ANGLE_UNIT ( ) );
#797 = DIRECTION ( 'NONE',  ( 0.000000000000000000, 0.000000000000000000, -1.000000000000000000 ) ) ;
#798 = AXIS2_PLACEMENT_3D ( 'NONE', #748, #685, #122 ) ;
#799 = FACE_OUTER_BOUND ( 'NONE', #462, .T. ) ;
#800 = VERTEX_POINT ( 'NONE', #766 ) ;
#801 = FACE_OUTER_BOUND ( 'NONE', #612, .T. ) ;
#802 = DIRECTION ( 'NONE',  ( 0.000000000000000000, 1.000000000000000000, 0.000000000000000000 ) ) ;
#803 = DIRECTION ( 'NONE',  ( 0.000000000000000000, -1.000000000000000000, 0.000000000000000000 ) ) ;
#804 = ORIENTED_EDGE ( 'NONE', *, *, #257, .T. ) ;
#805 = CARTESIAN_POINT ( 'NONE',  ( -1.899999999999999911, 2.245000000000000107, 1.000000000000000000 ) ) ;
#806 = EDGE_CURVE ( 'NONE', #553, #731, #214, .T. ) ;
#807 = ORIENTED_EDGE ( 'NONE', *, *, #444, .T. ) ;
#808 = CARTESIAN_POINT ( 'NONE',  ( 1.899999999999999911, 2.544999999999999929, 0.000000000000000000 ) ) ;
#809 = ORIENTED_EDGE ( 'NONE', *, *, #78, .T. ) ;
#810 = CARTESIAN_POINT ( 'NONE',  ( -2.075000000000000178, -2.245000000000000107, 0.8000000000000000444 ) ) ;
#811 = AXIS2_PLACEMENT_3D ( 'NONE', #730, #177, #223 ) ;
#812 = CIRCLE ( 'NONE', #90, 0.2999999999999999334 ) ;
#813 = VECTOR ( 'NONE', #276, 1000.000000000000000 ) ;
#814 =( LENGTH_UNIT ( ) NAMED_UNIT ( * ) SI_UNIT ( .MILLI., .METRE. ) );
ENDSEC;
END-ISO-10303-21;
