ISO-10303-21;
HEADER;
FILE_DESCRIPTION (( 'STEP AP214' ),
    '1' );
FILE_NAME ('Body007.step.STEP',
    '2026-01-08T13:34:33',
    ( '' ),
    ( '' ),
    'SwSTEP 2.0',
    'SolidWorks 2025',
    '' );
FILE_SCHEMA (( 'AUTOMOTIVE_DESIGN' ));
ENDSEC;

DATA;
#1 = ORIENTED_EDGE ( 'NONE', *, *, #33, .F. ) ;
#2 = EDGE_LOOP ( 'NONE', ( #80, #63, #114, #115 ) ) ;
#3 = CARTESIAN_POINT ( 'NONE',  ( -0.5000000000000000000, 0.5000000000000000000, 0.000000000000000000 ) ) ;
#4 = PRESENTATION_STYLE_ASSIGNMENT (( #116 ) ) ;
#5 = AXIS2_PLACEMENT_3D ( 'NONE', #52, #120, #23 ) ;
#6 = DIRECTION ( 'NONE',  ( 1.000000000000000000, 0.000000000000000000, 0.000000000000000000 ) ) ;
#7 = EDGE_CURVE ( 'NONE', #189, #47, #16, .T. ) ;
#8 = LINE ( 'NONE', #190, #71 ) ;
#9 = AXIS2_PLACEMENT_3D ( 'NONE', #110, #91, #153 ) ;
#10 = CARTESIAN_POINT ( 'NONE',  ( -0.5000000000000000000, 0.5000000000000000000, 0.000000000000000000 ) ) ;
#11 = CYLINDRICAL_SURFACE ( 'NONE', #178, 0.5000000000000000000 ) ;
#12 = APPLICATION_CONTEXT ( 'automotive_design' ) ;
#13 = LINE ( 'NONE', #10, #65 ) ;
#14 = EDGE_CURVE ( 'NONE', #30, #48, #186, .T. ) ;
#15 = SURFACE_STYLE_USAGE ( .BOTH. , #108 ) ;
#16 = LINE ( 'NONE', #188, #117 ) ;
#17 = ORIENTED_EDGE ( 'NONE', *, *, #7, .T. ) ;
#18 = ORIENTED_EDGE ( 'NONE', *, *, #14, .F. ) ;
#19 = CIRCLE ( 'NONE', #9, 0.5000000000000000000 ) ;
#20 = DIRECTION ( 'NONE',  ( 0.000000000000000000, 0.000000000000000000, 1.000000000000000000 ) ) ;
#21 = CYLINDRICAL_SURFACE ( 'NONE', #29, 0.5000000000000000000 ) ;
#22 = CARTESIAN_POINT ( 'NONE',  ( 0.5000000000000000000, 0.5000000000000000000, 0.1000000000000000056 ) ) ;
#23 = DIRECTION ( 'NONE',  ( -5.551115123125999639E-17, 1.000000000000000000, 0.000000000000000000 ) ) ;
#24 = CARTESIAN_POINT ( 'NONE',  ( 0.000000000000000000, 0.000000000000000000, 0.000000000000000000 ) ) ;
#25 = SURFACE_STYLE_FILL_AREA ( #198 ) ;
#26 = EDGE_LOOP ( 'NONE', ( #144, #46, #28, #1 ) ) ;
#27 = PRODUCT_DEFINITION_SHAPE ( 'NONE', 'NONE',  #197 ) ;
#28 = ORIENTED_EDGE ( 'NONE', *, *, #82, .F. ) ;
#29 = AXIS2_PLACEMENT_3D ( 'NONE', #146, #133, #191 ) ;
#30 = VERTEX_POINT ( 'NONE', #134 ) ;
#31 = CIRCLE ( 'NONE', #93, 0.5000000000000000000 ) ;
#32 = ORIENTED_EDGE ( 'NONE', *, *, #167, .F. ) ;
#33 = EDGE_CURVE ( 'NONE', #189, #97, #163, .T. ) ;
#34 =( NAMED_UNIT ( * ) PLANE_ANGLE_UNIT ( ) SI_UNIT ( $, .RADIAN. ) );
#35 = FILL_AREA_STYLE ('',( #118 ) ) ;
#36 = COLOUR_RGB ( '',0.9176470588235293713, 0.9176470588235293713, 0.9176470588235293713 ) ;
#37 = EDGE_CURVE ( 'NONE', #48, #203, #54, .T. ) ;
#38 = DIRECTION ( 'NONE',  ( 1.000000000000000000, 0.000000000000000000, 0.000000000000000000 ) ) ;
#39 = CIRCLE ( 'NONE', #112, 0.5000000000000000000 ) ;
#40 = CARTESIAN_POINT ( 'NONE',  ( 2.372390395931000038E-32, -0.5000000000000000000, 0.1000000000000000056 ) ) ;
#41 = EDGE_CURVE ( 'NONE', #143, #203, #88, .T. ) ;
#42 = AXIS2_PLACEMENT_3D ( 'NONE', #107, #38, #92 ) ;
#43 = ORIENTED_EDGE ( 'NONE', *, *, #171, .F. ) ;
#44 =( GEOMETRIC_REPRESENTATION_CONTEXT ( 3 ) GLOBAL_UNCERTAINTY_ASSIGNED_CONTEXT ( ( #121 ) ) GLOBAL_UNIT_ASSIGNED_CONTEXT ( ( #140, #200, #137 ) ) REPRESENTATION_CONTEXT ( 'NONE', 'WORKASPACE' ) );
#45 = SHAPE_DEFINITION_REPRESENTATION ( #27, #87 ) ;
#46 = ORIENTED_EDGE ( 'NONE', *, *, #171, .T. ) ;
#47 = VERTEX_POINT ( 'NONE', #64 ) ;
#48 = VERTEX_POINT ( 'NONE', #86 ) ;
#49 = CARTESIAN_POINT ( 'NONE',  ( 0.5000000000000000000, 0.5000000000000000000, 0.1000000000000000056 ) ) ;
#50 =( GEOMETRIC_REPRESENTATION_CONTEXT ( 3 ) GLOBAL_UNCERTAINTY_ASSIGNED_CONTEXT ( ( #192 ) ) GLOBAL_UNIT_ASSIGNED_CONTEXT ( ( #195, #34, #103 ) ) REPRESENTATION_CONTEXT ( 'NONE', 'WORKASPACE' ) );
#51 = DIRECTION ( 'NONE',  ( 0.000000000000000000, -1.000000000000000000, 0.000000000000000000 ) ) ;
#52 = CARTESIAN_POINT ( 'NONE',  ( 0.5000000000000000000, 0.5000000000000000000, 0.000000000000000000 ) ) ;
#53 = CARTESIAN_POINT ( 'NONE',  ( 0.5000000000000000000, 0.5000000000000000000, 0.000000000000000000 ) ) ;
#54 = LINE ( 'NONE', #162, #154 ) ;
#55 = CARTESIAN_POINT ( 'NONE',  ( 0.5000000000000000000, 0.5000000000000000000, 0.000000000000000000 ) ) ;
#56 = DIRECTION ( 'NONE',  ( 1.000000000000000000, 0.000000000000000000, 0.000000000000000000 ) ) ;
#57 = AXIS2_PLACEMENT_3D ( 'NONE', #89, #119, #6 ) ;
#58 = FACE_OUTER_BOUND ( 'NONE', #99, .T. ) ;
#59 = EDGE_CURVE ( 'NONE', #97, #94, #84, .T. ) ;
#60 = VECTOR ( 'NONE', #160, 1000.000000000000000 ) ;
#61 = DIRECTION ( 'NONE',  ( 5.551115123125999639E-17, -1.000000000000000000, 0.000000000000000000 ) ) ;
#62 = PRESENTATION_LAYER_ASSIGNMENT (  '', '', ( #96 ) ) ;
#63 = ORIENTED_EDGE ( 'NONE', *, *, #90, .T. ) ;
#64 = CARTESIAN_POINT ( 'NONE',  ( 0.5000000000000000000, -0.5000000000000000000, 0.000000000000000000 ) ) ;
#65 = VECTOR ( 'NONE', #74, 1000.000000000000000 ) ;
#66 = FACE_OUTER_BOUND ( 'NONE', #130, .T. ) ;
#67 = DIRECTION ( 'NONE',  ( 0.000000000000000000, 0.000000000000000000, 1.000000000000000000 ) ) ;
#68 = SURFACE_SIDE_STYLE ('',( #101 ) ) ;
#69 = ADVANCED_FACE ( 'NONE', ( #66 ), #149, .F. ) ;
#70 = DIRECTION ( 'NONE',  ( 0.000000000000000000, 0.000000000000000000, 1.000000000000000000 ) ) ;
#71 = VECTOR ( 'NONE', #67, 1000.000000000000000 ) ;
#72 = DIRECTION ( 'NONE',  ( 0.000000000000000000, 0.000000000000000000, 1.000000000000000000 ) ) ;
#73 = ADVANCED_FACE ( 'NONE', ( #147 ), #136, .T. ) ;
#74 = DIRECTION ( 'NONE',  ( 0.000000000000000000, 0.000000000000000000, 1.000000000000000000 ) ) ;
#75 = MECHANICAL_DESIGN_GEOMETRIC_PRESENTATION_REPRESENTATION (  '', ( #96 ), #168 ) ;
#76 = PRESENTATION_STYLE_ASSIGNMENT (( #15 ) ) ;
#77 = ORIENTED_EDGE ( 'NONE', *, *, #14, .T. ) ;
#78 = ORIENTED_EDGE ( 'NONE', *, *, #59, .T. ) ;
#79 = PRODUCT_RELATED_PRODUCT_CATEGORY ( 'part', '', ( #113 ) ) ;
#80 = ORIENTED_EDGE ( 'NONE', *, *, #167, .T. ) ;
#81 = ORIENTED_EDGE ( 'NONE', *, *, #41, .T. ) ;
#82 = EDGE_CURVE ( 'NONE', #97, #143, #141, .T. ) ;
#83 = DIRECTION ( 'NONE',  ( 0.000000000000000000, 0.000000000000000000, 1.000000000000000000 ) ) ;
#84 = LINE ( 'NONE', #22, #184 ) ;
#85 = MECHANICAL_DESIGN_GEOMETRIC_PRESENTATION_REPRESENTATION (  '', ( #183 ), #50 ) ;
#86 = CARTESIAN_POINT ( 'NONE',  ( -0.5000000000000000000, -0.5000000000000000000, 0.000000000000000000 ) ) ;
#87 = ADVANCED_BREP_SHAPE_REPRESENTATION ( 'Body007.step', ( #102, #201 ), #44 ) ;
#88 = LINE ( 'NONE', #123, #122 ) ;
#89 = CARTESIAN_POINT ( 'NONE',  ( 0.000000000000000000, 0.5000000000000000000, 0.1000000000000000056 ) ) ;
#90 = EDGE_CURVE ( 'NONE', #47, #94, #8, .T. ) ;
#91 = DIRECTION ( 'NONE',  ( 0.000000000000000000, 0.000000000000000000, 1.000000000000000000 ) ) ;
#92 = DIRECTION ( 'NONE',  ( 0.000000000000000000, 1.000000000000000000, 0.000000000000000000 ) ) ;
#93 = AXIS2_PLACEMENT_3D ( 'NONE', #40, #72, #166 ) ;
#94 = VERTEX_POINT ( 'NONE', #179 ) ;
#95 = EDGE_LOOP ( 'NONE', ( #170, #78, #177, #176 ) ) ;
#96 = STYLED_ITEM ( 'NONE', ( #76 ), #87 ) ;
#97 = VERTEX_POINT ( 'NONE', #49 ) ;
#98 = APPLICATION_PROTOCOL_DEFINITION ( 'draft international standard', 'automotive_design', 1998, #12 ) ;
#99 = EDGE_LOOP ( 'NONE', ( #77, #206, #129, #43 ) ) ;
#100 = FACE_OUTER_BOUND ( 'NONE', #175, .T. ) ;
#101 = SURFACE_STYLE_FILL_AREA ( #35 ) ;
#102 = MANIFOLD_SOLID_BREP ( 'Body007[1]', #104 ) ;
#103 =( NAMED_UNIT ( * ) SI_UNIT ( $, .STERADIAN. ) SOLID_ANGLE_UNIT ( ) );
#104 = CLOSED_SHELL ( 'NONE', ( #106, #69, #73, #145, #172, #138 ) ) ;
#105 = FACE_OUTER_BOUND ( 'NONE', #26, .T. ) ;
#106 = ADVANCED_FACE ( 'NONE', ( #100 ), #194, .T. ) ;
#107 = CARTESIAN_POINT ( 'NONE',  ( -0.5000000000000000000, 0.5000000000000000000, 0.000000000000000000 ) ) ;
#108 = SURFACE_SIDE_STYLE ('',( #25 ) ) ;
#109 = APPLICATION_CONTEXT ( 'automotive_design' ) ;
#110 = CARTESIAN_POINT ( 'NONE',  ( 0.000000000000000000, 0.5000000000000000000, 0.000000000000000000 ) ) ;
#111 = PLANE ( 'NONE',  #42 ) ;
#112 = AXIS2_PLACEMENT_3D ( 'NONE', #182, #70, #125 ) ;
#113 = PRODUCT ( 'Body007.step', 'Body007.step', '', ( #185 ) ) ;
#114 = ORIENTED_EDGE ( 'NONE', *, *, #202, .F. ) ;
#115 = ORIENTED_EDGE ( 'NONE', *, *, #37, .F. ) ;
#116 = SURFACE_STYLE_USAGE ( .BOTH. , #68 ) ;
#117 = VECTOR ( 'NONE', #61, 1000.000000000000000 ) ;
#118 = FILL_AREA_STYLE_COLOUR ( '', #36 ) ;
#119 = DIRECTION ( 'NONE',  ( 0.000000000000000000, 0.000000000000000000, 1.000000000000000000 ) ) ;
#120 = DIRECTION ( 'NONE',  ( 1.000000000000000000, 5.551115123125999639E-17, 0.000000000000000000 ) ) ;
#121 = UNCERTAINTY_MEASURE_WITH_UNIT (LENGTH_MEASURE( 1.000000000000000082E-05 ), #140, 'distance_accuracy_value', 'NONE');
#122 = VECTOR ( 'NONE', #131, 1000.000000000000000 ) ;
#123 = CARTESIAN_POINT ( 'NONE',  ( -0.5000000000000000000, 0.5000000000000000000, 0.1000000000000000056 ) ) ;
#124 =( LENGTH_UNIT ( ) NAMED_UNIT ( * ) SI_UNIT ( .MILLI., .METRE. ) );
#125 = DIRECTION ( 'NONE',  ( 1.000000000000000000, 0.000000000000000000, 0.000000000000000000 ) ) ;
#126 = CARTESIAN_POINT ( 'NONE',  ( -0.5000000000000000000, -0.5000000000000000000, 0.1000000000000000056 ) ) ;
#127 =( NAMED_UNIT ( * ) PLANE_ANGLE_UNIT ( ) SI_UNIT ( $, .RADIAN. ) );
#128 = VECTOR ( 'NONE', #51, 1000.000000000000000 ) ;
#129 = ORIENTED_EDGE ( 'NONE', *, *, #41, .F. ) ;
#130 = EDGE_LOOP ( 'NONE', ( #17, #32, #18, #156 ) ) ;
#131 = DIRECTION ( 'NONE',  ( 0.000000000000000000, -1.000000000000000000, 0.000000000000000000 ) ) ;
#132 = PRODUCT_DEFINITION_CONTEXT ( 'detailed design', #12, 'design' ) ;
#133 = DIRECTION ( 'NONE',  ( 0.000000000000000000, 0.000000000000000000, -1.000000000000000000 ) ) ;
#134 = CARTESIAN_POINT ( 'NONE',  ( -0.5000000000000000000, 0.5000000000000000000, 0.000000000000000000 ) ) ;
#135 = DIRECTION ( 'NONE',  ( 1.000000000000000000, 0.000000000000000000, 0.000000000000000000 ) ) ;
#136 = PLANE ( 'NONE',  #5 ) ;
#137 =( NAMED_UNIT ( * ) SI_UNIT ( $, .STERADIAN. ) SOLID_ANGLE_UNIT ( ) );
#138 = ADVANCED_FACE ( 'NONE', ( #105 ), #21, .T. ) ;
#139 = FACE_OUTER_BOUND ( 'NONE', #2, .T. ) ;
#140 =( LENGTH_UNIT ( ) NAMED_UNIT ( * ) SI_UNIT ( .MILLI., .METRE. ) );
#141 = CIRCLE ( 'NONE', #57, 0.5000000000000000000 ) ;
#142 = ORIENTED_EDGE ( 'NONE', *, *, #59, .F. ) ;
#143 = VERTEX_POINT ( 'NONE', #148 ) ;
#144 = ORIENTED_EDGE ( 'NONE', *, *, #164, .T. ) ;
#145 = ADVANCED_FACE ( 'NONE', ( #139 ), #11, .T. ) ;
#146 = CARTESIAN_POINT ( 'NONE',  ( 0.000000000000000000, 0.5000000000000000000, 0.000000000000000000 ) ) ;
#147 = FACE_OUTER_BOUND ( 'NONE', #95, .T. ) ;
#148 = CARTESIAN_POINT ( 'NONE',  ( -0.5000000000000000000, 0.5000000000000000000, 0.1000000000000000056 ) ) ;
#149 = PLANE ( 'NONE',  #151 ) ;
#150 = DIRECTION ( 'NONE',  ( 5.551115123125999639E-17, -1.000000000000000000, 0.000000000000000000 ) ) ;
#151 = AXIS2_PLACEMENT_3D ( 'NONE', #180, #193, #135 ) ;
#152 = FILL_AREA_STYLE_COLOUR ( '', #205 ) ;
#153 = DIRECTION ( 'NONE',  ( 1.000000000000000000, 0.000000000000000000, 0.000000000000000000 ) ) ;
#154 = VECTOR ( 'NONE', #20, 1000.000000000000000 ) ;
#155 =( NAMED_UNIT ( * ) SI_UNIT ( $, .STERADIAN. ) SOLID_ANGLE_UNIT ( ) );
#156 = ORIENTED_EDGE ( 'NONE', *, *, #164, .F. ) ;
#157 = UNCERTAINTY_MEASURE_WITH_UNIT (LENGTH_MEASURE( 1.000000000000000082E-05 ), #124, 'distance_accuracy_value', 'NONE');
#158 = ORIENTED_EDGE ( 'NONE', *, *, #202, .T. ) ;
#159 = CARTESIAN_POINT ( 'NONE',  ( 0.000000000000000000, -2.220446049249999817E-17, 0.1000000000000000056 ) ) ;
#160 = DIRECTION ( 'NONE',  ( 0.000000000000000000, 0.000000000000000000, 1.000000000000000000 ) ) ;
#161 = DIRECTION ( 'NONE',  ( 1.000000000000000000, 0.000000000000000000, 0.000000000000000000 ) ) ;
#162 = CARTESIAN_POINT ( 'NONE',  ( -0.5000000000000000000, -0.5000000000000000000, 0.000000000000000000 ) ) ;
#163 = LINE ( 'NONE', #53, #60 ) ;
#164 = EDGE_CURVE ( 'NONE', #189, #30, #19, .T. ) ;
#165 = DIRECTION ( 'NONE',  ( 0.000000000000000000, 0.000000000000000000, 1.000000000000000000 ) ) ;
#166 = DIRECTION ( 'NONE',  ( 1.000000000000000000, 0.000000000000000000, 0.000000000000000000 ) ) ;
#167 = EDGE_CURVE ( 'NONE', #48, #47, #39, .T. ) ;
#168 =( GEOMETRIC_REPRESENTATION_CONTEXT ( 3 ) GLOBAL_UNCERTAINTY_ASSIGNED_CONTEXT ( ( #157 ) ) GLOBAL_UNIT_ASSIGNED_CONTEXT ( ( #124, #127, #155 ) ) REPRESENTATION_CONTEXT ( 'NONE', 'WORKASPACE' ) );
#169 = DIRECTION ( 'NONE',  ( 0.000000000000000000, 0.000000000000000000, -1.000000000000000000 ) ) ;
#170 = ORIENTED_EDGE ( 'NONE', *, *, #33, .T. ) ;
#171 = EDGE_CURVE ( 'NONE', #30, #143, #13, .T. ) ;
#172 = ADVANCED_FACE ( 'NONE', ( #58 ), #111, .F. ) ;
#173 = APPLICATION_PROTOCOL_DEFINITION ( 'draft international standard', 'automotive_design', 1998, #109 ) ;
#174 = PRESENTATION_LAYER_ASSIGNMENT (  '', '', ( #183 ) ) ;
#175 = EDGE_LOOP ( 'NONE', ( #187, #81, #158, #142 ) ) ;
#176 = ORIENTED_EDGE ( 'NONE', *, *, #7, .F. ) ;
#177 = ORIENTED_EDGE ( 'NONE', *, *, #90, .F. ) ;
#178 = AXIS2_PLACEMENT_3D ( 'NONE', #199, #169, #56 ) ;
#179 = CARTESIAN_POINT ( 'NONE',  ( 0.5000000000000000000, -0.5000000000000000000, 0.1000000000000000056 ) ) ;
#180 = CARTESIAN_POINT ( 'NONE',  ( 0.000000000000000000, -2.220446049249999817E-17, 0.000000000000000000 ) ) ;
#181 = AXIS2_PLACEMENT_3D ( 'NONE', #159, #83, #161 ) ;
#182 = CARTESIAN_POINT ( 'NONE',  ( 2.372390395931000038E-32, -0.5000000000000000000, 0.000000000000000000 ) ) ;
#183 = STYLED_ITEM ( 'NONE', ( #4 ), #102 ) ;
#184 = VECTOR ( 'NONE', #150, 1000.000000000000000 ) ;
#185 = PRODUCT_CONTEXT ( 'NONE', #109, 'mechanical' ) ;
#186 = LINE ( 'NONE', #3, #128 ) ;
#187 = ORIENTED_EDGE ( 'NONE', *, *, #82, .T. ) ;
#188 = CARTESIAN_POINT ( 'NONE',  ( 0.5000000000000000000, 0.5000000000000000000, 0.000000000000000000 ) ) ;
#189 = VERTEX_POINT ( 'NONE', #55 ) ;
#190 = CARTESIAN_POINT ( 'NONE',  ( 0.5000000000000000000, -0.5000000000000000000, 0.000000000000000000 ) ) ;
#191 = DIRECTION ( 'NONE',  ( 1.000000000000000000, 0.000000000000000000, 0.000000000000000000 ) ) ;
#192 = UNCERTAINTY_MEASURE_WITH_UNIT (LENGTH_MEASURE( 1.000000000000000082E-05 ), #195, 'distance_accuracy_value', 'NONE');
#193 = DIRECTION ( 'NONE',  ( 0.000000000000000000, 0.000000000000000000, 1.000000000000000000 ) ) ;
#194 = PLANE ( 'NONE',  #181 ) ;
#195 =( LENGTH_UNIT ( ) NAMED_UNIT ( * ) SI_UNIT ( .MILLI., .METRE. ) );
#196 = PRODUCT_DEFINITION_FORMATION_WITH_SPECIFIED_SOURCE ( 'Symmetric', '', #113, .NOT_KNOWN. ) ;
#197 = PRODUCT_DEFINITION ( 'General', '', #196, #132 ) ;
#198 = FILL_AREA_STYLE ('',( #152 ) ) ;
#199 = CARTESIAN_POINT ( 'NONE',  ( 2.372390395931000038E-32, -0.5000000000000000000, 0.000000000000000000 ) ) ;
#200 =( NAMED_UNIT ( * ) PLANE_ANGLE_UNIT ( ) SI_UNIT ( $, .RADIAN. ) );
#201 = AXIS2_PLACEMENT_3D ( 'NONE', #24, #165, #204 ) ;
#202 = EDGE_CURVE ( 'NONE', #203, #94, #31, .T. ) ;
#203 = VERTEX_POINT ( 'NONE', #126 ) ;
#204 = DIRECTION ( 'NONE',  ( 1.000000000000000000, 0.000000000000000000, 0.000000000000000000 ) ) ;
#205 = COLOUR_RGB ( '',0.9176470588235293713, 0.9176470588235293713, 0.9176470588235293713 ) ;
#206 = ORIENTED_EDGE ( 'NONE', *, *, #37, .T. ) ;
ENDSEC;
END-ISO-10303-21;
