ISO-10303-21;
HEADER;
FILE_DESCRIPTION (( 'STEP AP214' ),
    '1' );
FILE_NAME ('Diode.step.STEP',
    '2026-01-08T13:34:34',
    ( '' ),
    ( '' ),
    'SwSTEP 2.0',
    'SolidWorks 2025',
    '' );
FILE_SCHEMA (( 'AUTOMOTIVE_DESIGN' ));
ENDSEC;

DATA;
#1 = DIRECTION ( 'NONE',  ( 0.000000000000000000, 0.000000000000000000, 1.000000000000000000 ) ) ;
#2 = PRODUCT_CONTEXT ( 'NONE', #79, 'mechanical' ) ;
#3 = APPLICATION_PROTOCOL_DEFINITION ( 'draft international standard', 'automotive_design', 1998, #22 ) ;
#4 =( NAMED_UNIT ( * ) PLANE_ANGLE_UNIT ( ) SI_UNIT ( $, .RADIAN. ) );
#5 = IDENTIFICATION_ROLE ( 'external document id and location', $) ;
#6 = DIRECTION ( 'NONE',  ( 1.000000000000000000, 0.000000000000000000, 0.000000000000000000 ) ) ;
#7 = APPLICATION_CONTEXT ( 'automotive_design' ) ;
#8 = DIRECTION ( 'NONE',  ( 1.000000000000000000, 0.000000000000000000, 0.000000000000000000 ) ) ;
#9 = PROPERTY_DEFINITION_REPRESENTATION ( #104, #72 ) ;
#10 = OBJECT_ROLE ('mandatory',$ ) ;
#11 = APPLICATION_PROTOCOL_DEFINITION ( 'draft international standard', 'automotive_design', 1998, #34 ) ;
#12 = APPLICATION_PROTOCOL_DEFINITION ( 'draft international standard', 'automotive_design', 1998, #28 ) ;
#13 =( GEOMETRIC_REPRESENTATION_CONTEXT ( 3 ) GLOBAL_UNCERTAINTY_ASSIGNED_CONTEXT ( ( #40 ) ) GLOBAL_UNIT_ASSIGNED_CONTEXT ( ( #68, #4, #91 ) ) REPRESENTATION_CONTEXT ( 'NONE', 'WORKASPACE' ) );
#14 =( REPRESENTATION_RELATIONSHIP ('NONE','NONE', #84, #72 ) REPRESENTATION_RELATIONSHIP_WITH_TRANSFORMATION ( #43 )SHAPE_REPRESENTATION_RELATIONSHIP( ) );
#15 = AXIS2_PLACEMENT_3D ( 'NONE', #81, #106, #6 ) ;
#16 = PROPERTY_DEFINITION_REPRESENTATION ( #58, #63 ) ;
#17 =( REPRESENTATION_RELATIONSHIP ('NONE','NONE', #84, #63 ) REPRESENTATION_RELATIONSHIP_WITH_TRANSFORMATION ( #19 )SHAPE_REPRESENTATION_RELATIONSHIP( ) );
#18 = CARTESIAN_POINT ( 'NONE',  ( 0.000000000000000000, 0.000000000000000000, 0.000000000000000000 ) ) ;
#19 = ITEM_DEFINED_TRANSFORMATION ( 'NONE', 'NONE', #44,  #95 ) ;
#20 = AXIS2_PLACEMENT_3D ( 'NONE', #76, #1, #8 ) ;
#21 = PRODUCT_DEFINITION ( 'General', '', #85, #102 ) ;
#22 = APPLICATION_CONTEXT ( 'automotive_design' ) ;
#23 = DIRECTION ( 'NONE',  ( 1.000000000000000000, 0.000000000000000000, 0.000000000000000000 ) ) ;
#24 = PRODUCT_DEFINITION_SHAPE ( 'NONE', 'NONE',  #108 ) ;
#25 = UNCERTAINTY_MEASURE_WITH_UNIT (LENGTH_MEASURE( 1.000000000000000082E-05 ), #26, 'distance_accuracy_value', 'NONE');
#26 =( LENGTH_UNIT ( ) NAMED_UNIT ( * ) SI_UNIT ( .MILLI., .METRE. ) );
#27 = PRODUCT_DEFINITION_SHAPE ( 'NONE', 'NONE',  #32 ) ;
#28 = APPLICATION_CONTEXT ( 'automotive_design' ) ;
#29 = SHAPE_DEFINITION_REPRESENTATION ( #82, #84 ) ;
#30 = DIRECTION ( 'NONE',  ( 1.040957192136566911E-31, 4.930380657631323784E-32, 1.000000000000000000 ) ) ;
#31 = APPLICATION_CONTEXT ( 'automotive_design' ) ;
#32 = PRODUCT_DEFINITION ( 'General', '', #77, #87 ) ;
#33 = SHAPE_DEFINITION_REPRESENTATION ( #54, #72 ) ;
#34 = APPLICATION_CONTEXT ( 'automotive_design' ) ;
#35 = PROPERTY_DEFINITION_REPRESENTATION ( #97, #63 ) ;
#36 = UNCERTAINTY_MEASURE_WITH_UNIT (LENGTH_MEASURE( 1.000000000000000082E-05 ), #38, 'distance_accuracy_value', 'NONE');
#37 = PRODUCT_CONTEXT ( 'NONE', #28, 'mechanical' ) ;
#38 =( LENGTH_UNIT ( ) NAMED_UNIT ( * ) SI_UNIT ( .MILLI., .METRE. ) );
#39 = PRODUCT ( 'Body001 (Mirror #1)002.step', 'Body001 (Mirror #1)002.step', '', ( #67 ) ) ;
#40 = UNCERTAINTY_MEASURE_WITH_UNIT (LENGTH_MEASURE( 1.000000000000000082E-05 ), #68, 'distance_accuracy_value', 'NONE');
#41 = APPLICATION_PROTOCOL_DEFINITION ( 'draft international standard', 'automotive_design', 1998, #7 ) ;
#42 = AXIS2_PLACEMENT_3D ( 'NONE', #18, #100, #92 ) ;
#43 = ITEM_DEFINED_TRANSFORMATION ( 'NONE', 'NONE', #42,  #15 ) ;
#44 = AXIS2_PLACEMENT_3D ( 'NONE', #64, #30, #53 ) ;
#45 =( GEOMETRIC_REPRESENTATION_CONTEXT ( 3 ) GLOBAL_UNCERTAINTY_ASSIGNED_CONTEXT ( ( #25 ) ) GLOBAL_UNIT_ASSIGNED_CONTEXT ( ( #26, #88, #71 ) ) REPRESENTATION_CONTEXT ( 'NONE', 'WORKASPACE' ) );
#46 = PRODUCT_DEFINITION_SHAPE ( 'NONE', 'NONE',  #107 ) ;
#47 = CARTESIAN_POINT ( 'NONE',  ( 0.000000000000000000, 0.000000000000000000, 0.000000000000000000 ) ) ;
#48 = PRODUCT ( 'Diode.step', 'Diode.step', '', ( #37 ) ) ;
#49 = PROPERTY_DEFINITION ('external definition','', #61 ) ;
#50 = EXTERNAL_SOURCE (IDENTIFIER('') ) ;
#51 = CONTEXT_DEPENDENT_SHAPE_REPRESENTATION ( #14, #24 ) ;
#52 = APPLICATION_PROTOCOL_DEFINITION ( 'draft international standard', 'automotive_design', 1998, #31 ) ;
#53 = DIRECTION ( 'NONE',  ( 1.000000000000000000, 2.220446049250314067E-16, 1.040957192136566911E-31 ) ) ;
#54 = PRODUCT_DEFINITION_SHAPE ( 'NONE', 'NONE',  #21 ) ;
#55 = APPLIED_EXTERNAL_IDENTIFICATION_ASSIGNMENT ( 'Body001 (Mirror #1)002.step.STEP' , #56, #50,( #61) ) ;
#56 = IDENTIFICATION_ROLE ( 'external document id and location', $) ;
#57 = DOCUMENT_TYPE ( 'geometry' ) ;
#58 = PROPERTY_DEFINITION ('document property','', #89 ) ;
#59 = CONTEXT_DEPENDENT_SHAPE_REPRESENTATION ( #17, #46 ) ;
#60 = APPLICATION_PROTOCOL_DEFINITION ( 'draft international standard', 'automotive_design', 1998, #79 ) ;
#61 = DOCUMENT_FILE ( 'Body001 (Mirror #1)002.step.STEP' , '', '', #66, '' ,$ ) ;
#62 = OBJECT_ROLE ('mandatory',$ ) ;
#63 = SHAPE_REPRESENTATION ( 'Body015.step', ( #95 ), #90 ) ;
#64 = CARTESIAN_POINT ( 'NONE',  ( 0.000000000000000000, 0.000000000000000000, 0.000000000000000000 ) ) ;
#65 = ROLE_ASSOCIATION ( #62, #83 ) ;
#66 = DOCUMENT_TYPE ( 'geometry' ) ;
#67 = PRODUCT_CONTEXT ( 'NONE', #34, 'mechanical' ) ;
#68 =( LENGTH_UNIT ( ) NAMED_UNIT ( * ) SI_UNIT ( .MILLI., .METRE. ) );
#69 = PRODUCT_RELATED_PRODUCT_CATEGORY ( 'part', '', ( #48 ) ) ;
#70 = APPLIED_EXTERNAL_IDENTIFICATION_ASSIGNMENT ( 'Body015.step.STEP' , #5, #78,( #89) ) ;
#71 =( NAMED_UNIT ( * ) SI_UNIT ( $, .STERADIAN. ) SOLID_ANGLE_UNIT ( ) );
#72 = SHAPE_REPRESENTATION ( 'Body001 (Mirror #1)002.step', ( #15 ), #45 ) ;
#73 =( NAMED_UNIT ( * ) SI_UNIT ( $, .STERADIAN. ) SOLID_ANGLE_UNIT ( ) );
#74 =( NAMED_UNIT ( * ) PLANE_ANGLE_UNIT ( ) SI_UNIT ( $, .RADIAN. ) );
#75 = PRODUCT_RELATED_PRODUCT_CATEGORY ( 'part', '', ( #39 ) ) ;
#76 = CARTESIAN_POINT ( 'NONE',  ( 0.000000000000000000, 0.000000000000000000, 0.000000000000000000 ) ) ;
#77 = PRODUCT_DEFINITION_FORMATION_WITH_SPECIFIED_SOURCE ( 'Symmetric', '', #96, .NOT_KNOWN. ) ;
#78 = EXTERNAL_SOURCE (IDENTIFIER('') ) ;
#79 = APPLICATION_CONTEXT ( 'automotive_design' ) ;
#80 = PRODUCT_RELATED_PRODUCT_CATEGORY ( 'part', '', ( #96 ) ) ;
#81 = CARTESIAN_POINT ( 'NONE',  ( 0.000000000000000000, 0.000000000000000000, 0.000000000000000000 ) ) ;
#82 = PRODUCT_DEFINITION_SHAPE ( 'NONE', 'NONE',  #86 ) ;
#83 = APPLIED_DOCUMENT_REFERENCE ( #61,'',( #21) ) ;
#84 = SHAPE_REPRESENTATION ( 'Diode.step', ( #20, #44, #42 ), #13 ) ;
#85 = PRODUCT_DEFINITION_FORMATION_WITH_SPECIFIED_SOURCE ( 'Symmetric', '', #39, .NOT_KNOWN. ) ;
#86 = PRODUCT_DEFINITION ( 'General', '', #105, #98 ) ;
#87 = PRODUCT_DEFINITION_CONTEXT ( 'detailed design', #31, 'design' ) ;
#88 =( NAMED_UNIT ( * ) PLANE_ANGLE_UNIT ( ) SI_UNIT ( $, .RADIAN. ) );
#89 = DOCUMENT_FILE ( 'Body015.step.STEP' , '', '', #57, '' ,$ ) ;
#90 =( GEOMETRIC_REPRESENTATION_CONTEXT ( 3 ) GLOBAL_UNCERTAINTY_ASSIGNED_CONTEXT ( ( #36 ) ) GLOBAL_UNIT_ASSIGNED_CONTEXT ( ( #38, #74, #73 ) ) REPRESENTATION_CONTEXT ( 'NONE', 'WORKASPACE' ) );
#91 =( NAMED_UNIT ( * ) SI_UNIT ( $, .STERADIAN. ) SOLID_ANGLE_UNIT ( ) );
#92 = DIRECTION ( 'NONE',  ( 1.000000000000000000, 2.220446049250314067E-16, 1.040957192136566911E-31 ) ) ;
#93 = SHAPE_DEFINITION_REPRESENTATION ( #27, #63 ) ;
#94 = APPLIED_DOCUMENT_REFERENCE ( #89,'',( #32) ) ;
#95 = AXIS2_PLACEMENT_3D ( 'NONE', #47, #99, #23 ) ;
#96 = PRODUCT ( 'Body015.step', 'Body015.step', '', ( #2 ) ) ;
#97 = PROPERTY_DEFINITION ('external definition','', #89 ) ;
#98 = PRODUCT_DEFINITION_CONTEXT ( 'detailed design', #22, 'design' ) ;
#99 = DIRECTION ( 'NONE',  ( 0.000000000000000000, 0.000000000000000000, 1.000000000000000000 ) ) ;
#100 = DIRECTION ( 'NONE',  ( 1.040957192136566911E-31, 4.930380657631323784E-32, 1.000000000000000000 ) ) ;
#101 = PROPERTY_DEFINITION_REPRESENTATION ( #49, #72 ) ;
#102 = PRODUCT_DEFINITION_CONTEXT ( 'detailed design', #7, 'design' ) ;
#103 = ROLE_ASSOCIATION ( #10, #94 ) ;
#104 = PROPERTY_DEFINITION ('document property','', #61 ) ;
#105 = PRODUCT_DEFINITION_FORMATION_WITH_SPECIFIED_SOURCE ( 'Symmetric', '', #48, .NOT_KNOWN. ) ;
#106 = DIRECTION ( 'NONE',  ( 0.000000000000000000, 0.000000000000000000, 1.000000000000000000 ) ) ;
#107 = NEXT_ASSEMBLY_USAGE_OCCURRENCE ( 'NAUO40', ' ', ' ', #86, #32, $ ) ;
#108 = NEXT_ASSEMBLY_USAGE_OCCURRENCE ( 'NAUO41', ' ', ' ', #86, #21, $ ) ;
ENDSEC;
END-ISO-10303-21;
