ISO-10303-21;
HEADER;
FILE_DESCRIPTION (( 'STEP AP214' ),
    '1' );
FILE_NAME ('encoder-stand_flange-support-bottom.STEP',
    '2026-01-08T13:34:33',
    ( '' ),
    ( '' ),
    'SwSTEP 2.0',
    'SolidWorks 2025',
    '' );
FILE_SCHEMA (( 'AUTOMOTIVE_DESIGN' ));
ENDSEC;

DATA;
#1 = CARTESIAN_POINT ( 'NONE',  ( 4.000000000000007105, 30.00000000000000000, 24.00000000000000711 ) ) ;
#2 = ORIENTED_EDGE ( 'NONE', *, *, #887, .F. ) ;
#3 = CARTESIAN_POINT ( 'NONE',  ( 7.500000000000000888, 30.00000000000000000, 30.00000000000000711 ) ) ;
#4 = EDGE_CURVE ( 'NONE', #454, #524, #291, .T. ) ;
#5 = PRODUCT_DEFINITION_CONTEXT ( 'detailed design', #266, 'design' ) ;
#6 = DIRECTION ( 'NONE',  ( 0.000000000000000000, 0.000000000000000000, 1.000000000000000000 ) ) ;
#7 = EDGE_LOOP ( 'NONE', ( #459, #439 ) ) ;
#8 = CARTESIAN_POINT ( 'NONE',  ( 4.000000000000007105, 24.00000000000000000, -24.00000000000000711 ) ) ;
#9 = ADVANCED_FACE ( 'NONE', ( #367 ), #713, .F. ) ;
#10 = DIRECTION ( 'NONE',  ( -0.000000000000000000, -0.000000000000000000, 1.000000000000000000 ) ) ;
#11 = CIRCLE ( 'NONE', #128, 1.999999999999998224 ) ;
#12 = DIRECTION ( 'NONE',  ( -0.000000000000000000, 1.000000000000000000, -0.000000000000000000 ) ) ;
#13 = VECTOR ( 'NONE', #12, 1000.000000000000000 ) ;
#14 = ORIENTED_EDGE ( 'NONE', *, *, #629, .T. ) ;
#15 = FACE_BOUND ( 'NONE', #478, .T. ) ;
#16 = DIRECTION ( 'NONE',  ( 1.000000000000000000, -0.000000000000000000, -0.000000000000000000 ) ) ;
#17 = EDGE_CURVE ( 'NONE', #177, #532, #637, .T. ) ;
#18 = CARTESIAN_POINT ( 'NONE',  ( -4.000000000000000000, 24.00000000000000000, 22.00000000000000711 ) ) ;
#19 = VERTEX_POINT ( 'NONE', #574 ) ;
#20 = FACE_OUTER_BOUND ( 'NONE', #40, .T. ) ;
#21 = CARTESIAN_POINT ( 'NONE',  ( -2.499999999999999556, 13.99999999999999822, -14.00000000000000355 ) ) ;
#22 = EDGE_LOOP ( 'NONE', ( #52, #844 ) ) ;
#23 = DIRECTION ( 'NONE',  ( 0.000000000000000000, 0.000000000000000000, -1.000000000000000000 ) ) ;
#24 = CARTESIAN_POINT ( 'NONE',  ( -4.000000000000000000, 24.00000000000000000, -22.00000000000001066 ) ) ;
#25 = CIRCLE ( 'NONE', #609, 2.000000000000001776 ) ;
#26 = VERTEX_POINT ( 'NONE', #773 ) ;
#27 = CARTESIAN_POINT ( 'NONE',  ( 4.000000000000007105, 24.00000000000000000, -26.00000000000000711 ) ) ;
#28 = VECTOR ( 'NONE', #680, 1000.000000000000000 ) ;
#29 = EDGE_CURVE ( 'NONE', #877, #666, #687, .T. ) ;
#30 = COLOUR_RGB ( '',0.2509803921568627416, 0.2509803921568627416, 0.2509803921568627416 ) ;
#31 = DIRECTION ( 'NONE',  ( 0.000000000000000000, 1.000000000000000000, 0.000000000000000000 ) ) ;
#32 = DIRECTION ( 'NONE',  ( 0.000000000000000000, 0.000000000000000000, 1.000000000000000000 ) ) ;
#33 = ORIENTED_EDGE ( 'NONE', *, *, #695, .T. ) ;
#34 = CARTESIAN_POINT ( 'NONE',  ( -7.500000000000000000, 30.00000000000000000, -30.00000000000000711 ) ) ;
#35 = CARTESIAN_POINT ( 'NONE',  ( 4.000000000000007105, 30.00000000000000000, 24.00000000000000711 ) ) ;
#36 = SURFACE_STYLE_FILL_AREA ( #677 ) ;
#37 = ORIENTED_EDGE ( 'NONE', *, *, #368, .F. ) ;
#38 = DIRECTION ( 'NONE',  ( -1.000000000000000000, 0.000000000000000000, -0.000000000000000000 ) ) ;
#39 = FACE_OUTER_BOUND ( 'NONE', #615, .T. ) ;
#40 = EDGE_LOOP ( 'NONE', ( #485, #213, #285, #226 ) ) ;
#41 = FACE_OUTER_BOUND ( 'NONE', #909, .T. ) ;
#42 = VECTOR ( 'NONE', #633, 1000.000000000000000 ) ;
#43 = VERTEX_POINT ( 'NONE', #724 ) ;
#44 = CARTESIAN_POINT ( 'NONE',  ( -62.50000000000000000, 30.00000000000000000, 0.000000000000000000 ) ) ;
#45 = DIRECTION ( 'NONE',  ( 0.000000000000000000, -0.000000000000000000, 1.000000000000000000 ) ) ;
#46 = EDGE_CURVE ( 'NONE', #320, #762, #244, .T. ) ;
#47 = EDGE_LOOP ( 'NONE', ( #813, #736 ) ) ;
#48 = CARTESIAN_POINT ( 'NONE',  ( -62.50000000000000000, 30.00000000000000000, -17.00000000000000000 ) ) ;
#49 = ORIENTED_EDGE ( 'NONE', *, *, #179, .F. ) ;
#50 = CARTESIAN_POINT ( 'NONE',  ( 7.500000000000000888, 30.00000000000000000, 30.00000000000000711 ) ) ;
#51 = DIRECTION ( 'NONE',  ( 0.000000000000000000, 0.000000000000000000, -1.000000000000000000 ) ) ;
#52 = ORIENTED_EDGE ( 'NONE', *, *, #525, .T. ) ;
#53 = ADVANCED_BREP_SHAPE_REPRESENTATION ( 'encoder-stand_flange-support-bottom', ( #665, #381 ), #750 ) ;
#54 = CARTESIAN_POINT ( 'NONE',  ( 4.000000000000007105, 24.00000000000000000, 24.00000000000000711 ) ) ;
#55 = EDGE_CURVE ( 'NONE', #419, #308, #85, .T. ) ;
#56 = DIRECTION ( 'NONE',  ( 0.000000000000000000, 0.000000000000000000, 1.000000000000000000 ) ) ;
#57 = APPLICATION_PROTOCOL_DEFINITION ( 'draft international standard', 'automotive_design', 1998, #266 ) ;
#58 = CARTESIAN_POINT ( 'NONE',  ( 7.500000000000000888, 0.000000000000000000, 29.99999999999999289 ) ) ;
#59 = ADVANCED_FACE ( 'NONE', ( #372 ), #287, .F. ) ;
#60 = AXIS2_PLACEMENT_3D ( 'NONE', #414, #410, #835 ) ;
#61 = FACE_OUTER_BOUND ( 'NONE', #500, .T. ) ;
#62 = CIRCLE ( 'NONE', #299, 2.000000000000000000 ) ;
#63 = CARTESIAN_POINT ( 'NONE',  ( 7.500000000000000888, 13.99999999999999467, 15.99999999999999645 ) ) ;
#64 = ORIENTED_EDGE ( 'NONE', *, *, #217, .F. ) ;
#65 = LINE ( 'NONE', #553, #332 ) ;
#66 = EDGE_LOOP ( 'NONE', ( #222, #323 ) ) ;
#67 = EDGE_CURVE ( 'NONE', #656, #811, #11, .T. ) ;
#68 = SURFACE_STYLE_USAGE ( .BOTH. , #907 ) ;
#69 = EDGE_LOOP ( 'NONE', ( #304, #538, #675, #691 ) ) ;
#70 = AXIS2_PLACEMENT_3D ( 'NONE', #630, #570, #648 ) ;
#71 = AXIS2_PLACEMENT_3D ( 'NONE', #164, #498, #508 ) ;
#72 = EDGE_CURVE ( 'NONE', #490, #646, #842, .T. ) ;
#73 = PRESENTATION_STYLE_ASSIGNMENT (( #68 ) ) ;
#74 = ORIENTED_EDGE ( 'NONE', *, *, #394, .T. ) ;
#75 = DIRECTION ( 'NONE',  ( 0.000000000000000000, 0.000000000000000000, 1.000000000000000000 ) ) ;
#76 = DIRECTION ( 'NONE',  ( 0.000000000000000000, 0.000000000000000000, -1.000000000000000000 ) ) ;
#77 = CARTESIAN_POINT ( 'NONE',  ( -4.000000000000000000, 30.00000000000000000, 24.00000000000000711 ) ) ;
#78 = VERTEX_POINT ( 'NONE', #103 ) ;
#79 = DIRECTION ( 'NONE',  ( -1.000000000000000000, 0.000000000000000000, 0.000000000000000000 ) ) ;
#80 = CARTESIAN_POINT ( 'NONE',  ( 4.000000000000007105, 30.00000000000000000, -24.00000000000000711 ) ) ;
#81 = DIRECTION ( 'NONE',  ( 0.000000000000000000, 0.000000000000000000, -1.000000000000000000 ) ) ;
#82 = ORIENTED_EDGE ( 'NONE', *, *, #761, .T. ) ;
#83 = CARTESIAN_POINT ( 'NONE',  ( -4.000000000000000000, 24.00000000000000000, 26.00000000000001066 ) ) ;
#84 = EDGE_CURVE ( 'NONE', #95, #904, #302, .T. ) ;
#85 = LINE ( 'NONE', #355, #747 ) ;
#86 = AXIS2_PLACEMENT_3D ( 'NONE', #826, #712, #195 ) ;
#87 = DIRECTION ( 'NONE',  ( 0.000000000000000000, 0.000000000000000000, -1.000000000000000000 ) ) ;
#88 = AXIS2_PLACEMENT_3D ( 'NONE', #851, #221, #575 ) ;
#89 = ORIENTED_EDGE ( 'NONE', *, *, #146, .F. ) ;
#90 = LINE ( 'NONE', #366, #115 ) ;
#91 = DIRECTION ( 'NONE',  ( 0.000000000000000000, 0.000000000000000000, 1.000000000000000000 ) ) ;
#92 = VERTEX_POINT ( 'NONE', #385 ) ;
#93 = DIRECTION ( 'NONE',  ( 1.000000000000000000, 0.000000000000000000, -0.000000000000000000 ) ) ;
#94 = LINE ( 'NONE', #24, #13 ) ;
#95 = VERTEX_POINT ( 'NONE', #743 ) ;
#96 = DIRECTION ( 'NONE',  ( 0.000000000000000000, 0.000000000000000000, -1.000000000000000000 ) ) ;
#97 = CARTESIAN_POINT ( 'NONE',  ( -2.499999999999999556, 13.99999999999999467, 15.99999999999999645 ) ) ;
#98 = AXIS2_PLACEMENT_3D ( 'NONE', #486, #491, #79 ) ;
#99 = DIRECTION ( 'NONE',  ( 0.000000000000000000, 0.000000000000000000, 1.000000000000000000 ) ) ;
#100 = AXIS2_PLACEMENT_3D ( 'NONE', #1, #561, #270 ) ;
#101 = ORIENTED_EDGE ( 'NONE', *, *, #368, .T. ) ;
#102 = CARTESIAN_POINT ( 'NONE',  ( 7.500000000000000888, 70.00000000000000000, 29.99999999999999289 ) ) ;
#103 = CARTESIAN_POINT ( 'NONE',  ( -4.000000000000000000, 30.00000000000000000, 22.00000000000000711 ) ) ;
#104 = VERTEX_POINT ( 'NONE', #884 ) ;
#105 = DIRECTION ( 'NONE',  ( 1.000000000000000000, -0.000000000000000000, -0.000000000000000000 ) ) ;
#106 = FACE_OUTER_BOUND ( 'NONE', #391, .T. ) ;
#107 = APPLICATION_CONTEXT ( 'automotive_design' ) ;
#108 = CARTESIAN_POINT ( 'NONE',  ( -7.499999999999999112, 0.000000000000000000, 29.99999999999999289 ) ) ;
#109 = ORIENTED_EDGE ( 'NONE', *, *, #578, .T. ) ;
#110 = DIRECTION ( 'NONE',  ( 0.000000000000000000, 0.000000000000000000, -1.000000000000000000 ) ) ;
#111 = EDGE_CURVE ( 'NONE', #532, #524, #659, .T. ) ;
#112 = DIRECTION ( 'NONE',  ( -0.000000000000000000, 1.000000000000000000, -0.000000000000000000 ) ) ;
#113 = EDGE_LOOP ( 'NONE', ( #37, #711 ) ) ;
#114 = DIRECTION ( 'NONE',  ( 0.000000000000000000, 0.000000000000000000, 1.000000000000000000 ) ) ;
#115 = VECTOR ( 'NONE', #652, 1000.000000000000000 ) ;
#116 = AXIS2_PLACEMENT_3D ( 'NONE', #159, #148, #641 ) ;
#117 = CARTESIAN_POINT ( 'NONE',  ( -4.000000000000000000, 30.00000000000000000, -24.00000000000000711 ) ) ;
#118 = EDGE_CURVE ( 'NONE', #456, #339, #585, .T. ) ;
#119 = EDGE_LOOP ( 'NONE', ( #174, #143, #248, #881 ) ) ;
#120 = CARTESIAN_POINT ( 'NONE',  ( 7.500000000000000888, 30.00000000000000000, 30.00000000000000711 ) ) ;
#121 = FACE_OUTER_BOUND ( 'NONE', #554, .T. ) ;
#122 = ORIENTED_EDGE ( 'NONE', *, *, #761, .F. ) ;
#123 = ADVANCED_FACE ( 'NONE', ( #106 ), #669, .F. ) ;
#124 = CARTESIAN_POINT ( 'NONE',  ( 4.440892098500626162E-13, 4.000000000039409365, -16.00000000000000711 ) ) ;
#125 = LINE ( 'NONE', #497, #42 ) ;
#126 = CARTESIAN_POINT ( 'NONE',  ( -4.000000000000000000, 30.00000000000000000, -26.00000000000000711 ) ) ;
#127 = ORIENTED_EDGE ( 'NONE', *, *, #679, .F. ) ;
#128 = AXIS2_PLACEMENT_3D ( 'NONE', #635, #502, #151 ) ;
#129 = AXIS2_PLACEMENT_3D ( 'NONE', #860, #81, #714 ) ;
#130 = VERTEX_POINT ( 'NONE', #466 ) ;
#131 = ADVANCED_FACE ( 'NONE', ( #39 ), #664, .T. ) ;
#132 = CARTESIAN_POINT ( 'NONE',  ( -1.999999999999555911, 4.000000000039409365, 29.99999999999999289 ) ) ;
#133 = ORIENTED_EDGE ( 'NONE', *, *, #418, .T. ) ;
#134 = EDGE_CURVE ( 'NONE', #147, #104, #892, .T. ) ;
#135 = DIRECTION ( 'NONE',  ( 1.000000000000000000, 0.000000000000000000, 0.000000000000000000 ) ) ;
#136 = ORIENTED_EDGE ( 'NONE', *, *, #163, .F. ) ;
#137 = FACE_OUTER_BOUND ( 'NONE', #867, .T. ) ;
#138 = DIRECTION ( 'NONE',  ( 0.000000000000000000, 1.000000000000000000, 0.000000000000000000 ) ) ;
#139 =( GEOMETRIC_REPRESENTATION_CONTEXT ( 3 ) GLOBAL_UNCERTAINTY_ASSIGNED_CONTEXT ( ( #350 ) ) GLOBAL_UNIT_ASSIGNED_CONTEXT ( ( #744, #240, #536 ) ) REPRESENTATION_CONTEXT ( 'NONE', 'WORKASPACE' ) );
#140 = ORIENTED_EDGE ( 'NONE', *, *, #706, .T. ) ;
#141 = DIRECTION ( 'NONE',  ( 0.000000000000000000, 0.000000000000000000, 1.000000000000000000 ) ) ;
#142 = ADVANCED_FACE ( 'NONE', ( #527, #175 ), #251, .F. ) ;
#143 = ORIENTED_EDGE ( 'NONE', *, *, #800, .T. ) ;
#144 = DIRECTION ( 'NONE',  ( 0.000000000000000000, 1.000000000000000000, 0.000000000000000000 ) ) ;
#145 = CARTESIAN_POINT ( 'NONE',  ( 4.440892098500626162E-13, 4.000000000039409365, 29.99999999999999289 ) ) ;
#146 = EDGE_CURVE ( 'NONE', #904, #156, #846, .T. ) ;
#147 = VERTEX_POINT ( 'NONE', #162 ) ;
#148 = DIRECTION ( 'NONE',  ( 0.000000000000000000, 1.000000000000000000, 0.000000000000000000 ) ) ;
#149 = VERTEX_POINT ( 'NONE', #589 ) ;
#150 = CARTESIAN_POINT ( 'NONE',  ( 4.440892098500626162E-13, 4.000000000039409365, 15.99999999999999289 ) ) ;
#151 = DIRECTION ( 'NONE',  ( 0.000000000000000000, 0.000000000000000000, 1.000000000000000000 ) ) ;
#152 = AXIS2_PLACEMENT_3D ( 'NONE', #44, #580, #815 ) ;
#153 = CIRCLE ( 'NONE', #670, 2.000000000000000000 ) ;
#154 = LINE ( 'NONE', #779, #611 ) ;
#155 = VECTOR ( 'NONE', #830, 1000.000000000000000 ) ;
#156 = VERTEX_POINT ( 'NONE', #872 ) ;
#157 = DIRECTION ( 'NONE',  ( 0.000000000000000000, 0.000000000000000000, 1.000000000000000000 ) ) ;
#158 = CARTESIAN_POINT ( 'NONE',  ( 4.000000000000007105, 24.00000000000000000, 24.00000000000000711 ) ) ;
#159 = CARTESIAN_POINT ( 'NONE',  ( 4.000000000000007105, 24.00000000000000000, -24.00000000000000711 ) ) ;
#160 = ORIENTED_EDGE ( 'NONE', *, *, #841, .F. ) ;
#161 = DIRECTION ( 'NONE',  ( -1.000000000000000000, 0.000000000000000000, 0.000000000000000000 ) ) ;
#162 = CARTESIAN_POINT ( 'NONE',  ( -2.499999999999999556, 13.99999999999999822, -14.00000000000000355 ) ) ;
#163 = EDGE_CURVE ( 'NONE', #401, #207, #378, .T. ) ;
#164 = CARTESIAN_POINT ( 'NONE',  ( 4.440892098500626162E-13, 4.000000000039409365, 15.99999999999999289 ) ) ;
#165 = ORIENTED_EDGE ( 'NONE', *, *, #228, .T. ) ;
#166 = CARTESIAN_POINT ( 'NONE',  ( -1.999999999999555911, 4.000000000039409365, -30.00000000000000711 ) ) ;
#167 = CARTESIAN_POINT ( 'NONE',  ( 7.500000000000000888, 13.99999999999999467, 15.99999999999999645 ) ) ;
#168 = CLOSED_SHELL ( 'NONE', ( #856, #59, #327, #341, #530, #334, #658, #767, #269, #461, #413, #142, #908, #184, #820, #476, #829, #487, #246, #293, #9, #556, #234, #495, #535, #337, #123, #131, #361, #584, #499, #442 ) ) ;
#169 = VECTOR ( 'NONE', #406, 1000.000000000000000 ) ;
#170 = EDGE_LOOP ( 'NONE', ( #697, #211, #504, #678 ) ) ;
#171 = EDGE_CURVE ( 'NONE', #308, #130, #446, .T. ) ;
#172 = LINE ( 'NONE', #510, #421 ) ;
#173 = CIRCLE ( 'NONE', #250, 2.000000000000000000 ) ;
#174 = ORIENTED_EDGE ( 'NONE', *, *, #134, .F. ) ;
#175 = FACE_OUTER_BOUND ( 'NONE', #605, .T. ) ;
#176 = DIRECTION ( 'NONE',  ( 1.000000000000000000, 0.000000000000000000, 0.000000000000000000 ) ) ;
#177 = VERTEX_POINT ( 'NONE', #516 ) ;
#178 = DIRECTION ( 'NONE',  ( 0.000000000000000000, 0.000000000000000000, 1.000000000000000000 ) ) ;
#179 = EDGE_CURVE ( 'NONE', #268, #320, #739, .T. ) ;
#180 = FACE_OUTER_BOUND ( 'NONE', #661, .T. ) ;
#181 = ORIENTED_EDGE ( 'NONE', *, *, #791, .T. ) ;
#182 = CYLINDRICAL_SURFACE ( 'NONE', #905, 1.999999999999998224 ) ;
#183 = DIRECTION ( 'NONE',  ( 0.000000000000000000, 1.000000000000000000, 0.000000000000000000 ) ) ;
#184 = ADVANCED_FACE ( 'NONE', ( #180 ), #748, .F. ) ;
#185 =( NAMED_UNIT ( * ) PLANE_ANGLE_UNIT ( ) SI_UNIT ( $, .RADIAN. ) );
#186 = ORIENTED_EDGE ( 'NONE', *, *, #841, .T. ) ;
#187 = DIRECTION ( 'NONE',  ( -1.000000000000000000, 0.000000000000000000, 0.000000000000000000 ) ) ;
#188 = AXIS2_PLACEMENT_3D ( 'NONE', #462, #254, #310 ) ;
#189 = ORIENTED_EDGE ( 'NONE', *, *, #400, .F. ) ;
#190 = VECTOR ( 'NONE', #785, 1000.000000000000000 ) ;
#191 = PRESENTATION_LAYER_ASSIGNMENT (  '', '', ( #863 ) ) ;
#192 = PLANE ( 'NONE',  #215 ) ;
#193 = ORIENTED_EDGE ( 'NONE', *, *, #645, .F. ) ;
#194 = DIRECTION ( 'NONE',  ( 0.000000000000000000, 1.000000000000000000, 0.000000000000000000 ) ) ;
#195 = DIRECTION ( 'NONE',  ( 0.000000000000000000, 0.000000000000000000, -1.000000000000000000 ) ) ;
#196 = DIRECTION ( 'NONE',  ( -0.000000000000000000, -0.000000000000000000, 1.000000000000000000 ) ) ;
#197 = EDGE_LOOP ( 'NONE', ( #160, #273, #387, #289 ) ) ;
#198 = CARTESIAN_POINT ( 'NONE',  ( -2.499999999999999556, 13.99999999999999467, 17.99999999999999645 ) ) ;
#199 = ORIENTED_EDGE ( 'NONE', *, *, #306, .F. ) ;
#200 = AXIS2_PLACEMENT_3D ( 'NONE', #475, #263, #604 ) ;
#201 = VECTOR ( 'NONE', #794, 1000.000000000000000 ) ;
#202 = AXIS2_PLACEMENT_3D ( 'NONE', #581, #303, #288 ) ;
#203 = DIRECTION ( 'NONE',  ( -0.000000000000000000, 1.000000000000000000, -0.000000000000000000 ) ) ;
#204 = ORIENTED_EDGE ( 'NONE', *, *, #700, .F. ) ;
#205 = EDGE_CURVE ( 'NONE', #811, #656, #359, .T. ) ;
#206 = CARTESIAN_POINT ( 'NONE',  ( 7.500000000000000888, 13.99999999999999822, -16.00000000000000355 ) ) ;
#207 = VERTEX_POINT ( 'NONE', #676 ) ;
#208 = DIRECTION ( 'NONE',  ( 0.000000000000000000, 0.000000000000000000, 1.000000000000000000 ) ) ;
#209 = EDGE_CURVE ( 'NONE', #415, #210, #733, .T. ) ;
#210 = VERTEX_POINT ( 'NONE', #377 ) ;
#211 = ORIENTED_EDGE ( 'NONE', *, *, #418, .F. ) ;
#212 = FILL_AREA_STYLE ('',( #902 ) ) ;
#213 = ORIENTED_EDGE ( 'NONE', *, *, #111, .T. ) ;
#214 = DIRECTION ( 'NONE',  ( 1.000000000000000000, 0.000000000000000000, 0.000000000000000000 ) ) ;
#215 = AXIS2_PLACEMENT_3D ( 'NONE', #403, #430, #845 ) ;
#216 = AXIS2_PLACEMENT_3D ( 'NONE', #730, #219, #32 ) ;
#217 = EDGE_CURVE ( 'NONE', #43, #268, #506, .T. ) ;
#218 = AXIS2_PLACEMENT_3D ( 'NONE', #655, #87, #364 ) ;
#219 = DIRECTION ( 'NONE',  ( 0.000000000000000000, 1.000000000000000000, 0.000000000000000000 ) ) ;
#220 = ORIENTED_EDGE ( 'NONE', *, *, #634, .F. ) ;
#221 = DIRECTION ( 'NONE',  ( -0.000000000000000000, 1.000000000000000000, -0.000000000000000000 ) ) ;
#222 = ORIENTED_EDGE ( 'NONE', *, *, #46, .F. ) ;
#223 = DIRECTION ( 'NONE',  ( -0.000000000000000000, -1.000000000000000000, -0.000000000000000000 ) ) ;
#224 = DIRECTION ( 'NONE',  ( 0.000000000000000000, 0.000000000000000000, 1.000000000000000000 ) ) ;
#225 = CARTESIAN_POINT ( 'NONE',  ( -4.000000000000000000, 24.00000000000000000, -24.00000000000000711 ) ) ;
#226 = ORIENTED_EDGE ( 'NONE', *, *, #616, .F. ) ;
#227 = DIRECTION ( 'NONE',  ( -0.000000000000000000, -0.000000000000000000, -1.000000000000000000 ) ) ;
#228 = EDGE_CURVE ( 'NONE', #552, #210, #125, .T. ) ;
#229 = CIRCLE ( 'NONE', #593, 2.000000000000000000 ) ;
#230 = VECTOR ( 'NONE', #848, 1000.000000000000000 ) ;
#231 = FACE_BOUND ( 'NONE', #831, .T. ) ;
#232 = VERTEX_POINT ( 'NONE', #354 ) ;
#233 = CARTESIAN_POINT ( 'NONE',  ( -7.499999999999999112, 0.000000000000000000, -30.00000000000000711 ) ) ;
#234 = ADVANCED_FACE ( 'NONE', ( #137 ), #821, .F. ) ;
#235 = DIRECTION ( 'NONE',  ( 1.000000000000000000, 0.000000000000000000, 0.000000000000000000 ) ) ;
#236 = DIRECTION ( 'NONE',  ( -0.000000000000000000, -1.000000000000000000, -0.000000000000000000 ) ) ;
#237 = ORIENTED_EDGE ( 'NONE', *, *, #738, .F. ) ;
#238 = DIRECTION ( 'NONE',  ( 0.000000000000000000, 0.000000000000000000, -1.000000000000000000 ) ) ;
#239 = CARTESIAN_POINT ( 'NONE',  ( 7.500000000000000888, 70.00000000000000000, -30.00000000000000711 ) ) ;
#240 =( NAMED_UNIT ( * ) PLANE_ANGLE_UNIT ( ) SI_UNIT ( $, .RADIAN. ) );
#241 = ORIENTED_EDGE ( 'NONE', *, *, #55, .T. ) ;
#242 = DIRECTION ( 'NONE',  ( 0.000000000000000000, 1.000000000000000000, 0.000000000000000000 ) ) ;
#243 = CARTESIAN_POINT ( 'NONE',  ( 4.000000000000007105, 24.00000000000000000, 26.00000000000001066 ) ) ;
#244 = CIRCLE ( 'NONE', #395, 1.999999999999998224 ) ;
#245 = DIRECTION ( 'NONE',  ( -0.000000000000000000, -0.000000000000000000, 1.000000000000000000 ) ) ;
#246 = ADVANCED_FACE ( 'NONE', ( #61 ), #910, .F. ) ;
#247 = AXIS2_PLACEMENT_3D ( 'NONE', #383, #868, #238 ) ;
#248 = ORIENTED_EDGE ( 'NONE', *, *, #663, .T. ) ;
#249 = CARTESIAN_POINT ( 'NONE',  ( 4.440892098500626162E-13, 4.000000000039409365, 29.99999999999999289 ) ) ;
#250 = AXIS2_PLACEMENT_3D ( 'NONE', #644, #443, #298 ) ;
#251 = PLANE ( 'NONE',  #698 ) ;
#252 = EDGE_LOOP ( 'NONE', ( #550, #780 ) ) ;
#253 = CARTESIAN_POINT ( 'NONE',  ( -4.000000000000000000, 24.00000000000000000, 24.00000000000000711 ) ) ;
#254 = DIRECTION ( 'NONE',  ( 1.000000000000000000, 0.000000000000000000, 0.000000000000000000 ) ) ;
#255 = ORIENTED_EDGE ( 'NONE', *, *, #603, .F. ) ;
#256 = PLANE ( 'NONE',  #804 ) ;
#257 = FACE_OUTER_BOUND ( 'NONE', #294, .T. ) ;
#258 = EDGE_LOOP ( 'NONE', ( #776, #186 ) ) ;
#259 = DIRECTION ( 'NONE',  ( 1.000000000000000000, -0.000000000000000000, -0.000000000000000000 ) ) ;
#260 = AXIS2_PLACEMENT_3D ( 'NONE', #8, #555, #328 ) ;
#261 = CIRCLE ( 'NONE', #100, 2.000000000000001776 ) ;
#262 = AXIS2_PLACEMENT_3D ( 'NONE', #145, #99, #432 ) ;
#263 = DIRECTION ( 'NONE',  ( 1.000000000000000000, -0.000000000000000000, -0.000000000000000000 ) ) ;
#264 = CARTESIAN_POINT ( 'NONE',  ( -1.999999999999555911, 4.000000000039409365, 15.99999999999999289 ) ) ;
#265 = EDGE_LOOP ( 'NONE', ( #444, #852, #885, #433 ) ) ;
#266 = APPLICATION_CONTEXT ( 'automotive_design' ) ;
#267 = LINE ( 'NONE', #705, #155 ) ;
#268 = VERTEX_POINT ( 'NONE', #420 ) ;
#269 = ADVANCED_FACE ( 'NONE', ( #121 ), #850, .F. ) ;
#270 = DIRECTION ( 'NONE',  ( 0.000000000000000000, 0.000000000000000000, 1.000000000000000000 ) ) ;
#271 = ORIENTED_EDGE ( 'NONE', *, *, #321, .F. ) ;
#272 = VECTOR ( 'NONE', #447, 1000.000000000000000 ) ;
#273 = ORIENTED_EDGE ( 'NONE', *, *, #650, .T. ) ;
#274 = CARTESIAN_POINT ( 'NONE',  ( -2.499999999999999556, 13.99999999999999822, -16.00000000000000355 ) ) ;
#275 = FACE_OUTER_BOUND ( 'NONE', #591, .T. ) ;
#276 = ORIENTED_EDGE ( 'NONE', *, *, #228, .F. ) ;
#277 = DIRECTION ( 'NONE',  ( -0.000000000000000000, 1.000000000000000000, -0.000000000000000000 ) ) ;
#278 = LINE ( 'NONE', #198, #823 ) ;
#279 = EDGE_LOOP ( 'NONE', ( #14, #336 ) ) ;
#280 = FACE_OUTER_BOUND ( 'NONE', #119, .T. ) ;
#281 = AXIS2_PLACEMENT_3D ( 'NONE', #859, #351, #362 ) ;
#282 = AXIS2_PLACEMENT_3D ( 'NONE', #150, #375, #93 ) ;
#283 = CIRCLE ( 'NONE', #764, 2.000000000000000000 ) ;
#284 = FACE_OUTER_BOUND ( 'NONE', #807, .T. ) ;
#285 = ORIENTED_EDGE ( 'NONE', *, *, #4, .F. ) ;
#286 = CARTESIAN_POINT ( 'NONE',  ( 7.500000000000000888, 13.99999999999999467, 17.99999999999999645 ) ) ;
#287 = CYLINDRICAL_SURFACE ( 'NONE', #70, 2.000000000000000000 ) ;
#288 = DIRECTION ( 'NONE',  ( 0.000000000000000000, 0.000000000000000000, 1.000000000000000000 ) ) ;
#289 = ORIENTED_EDGE ( 'NONE', *, *, #431, .F. ) ;
#290 = FACE_OUTER_BOUND ( 'NONE', #576, .T. ) ;
#291 = LINE ( 'NONE', #782, #668 ) ;
#292 = CARTESIAN_POINT ( 'NONE',  ( -4.000000000000000000, 30.00000000000000000, -22.00000000000001066 ) ) ;
#293 = ADVANCED_FACE ( 'NONE', ( #426 ), #192, .T. ) ;
#294 = EDGE_LOOP ( 'NONE', ( #828, #874, #618, #797 ) ) ;
#295 = FACE_BOUND ( 'NONE', #547, .T. ) ;
#296 = AXIS2_PLACEMENT_3D ( 'NONE', #35, #307, #599 ) ;
#297 = AXIS2_PLACEMENT_3D ( 'NONE', #124, #602, #38 ) ;
#298 = DIRECTION ( 'NONE',  ( 1.000000000000000000, 0.000000000000000000, 0.000000000000000000 ) ) ;
#299 = AXIS2_PLACEMENT_3D ( 'NONE', #690, #480, #335 ) ;
#300 = VERTEX_POINT ( 'NONE', #772 ) ;
#301 = FACE_BOUND ( 'NONE', #702, .T. ) ;
#302 = LINE ( 'NONE', #243, #344 ) ;
#303 = DIRECTION ( 'NONE',  ( 0.000000000000000000, 1.000000000000000000, 0.000000000000000000 ) ) ;
#304 = ORIENTED_EDGE ( 'NONE', *, *, #901, .F. ) ;
#305 = CARTESIAN_POINT ( 'NONE',  ( -4.000000000000000000, 24.00000000000000000, -24.00000000000000711 ) ) ;
#306 = EDGE_CURVE ( 'NONE', #490, #357, #229, .T. ) ;
#307 = DIRECTION ( 'NONE',  ( 0.000000000000000000, 1.000000000000000000, 0.000000000000000000 ) ) ;
#308 = VERTEX_POINT ( 'NONE', #3 ) ;
#309 = FACE_OUTER_BOUND ( 'NONE', #279, .T. ) ;
#310 = DIRECTION ( 'NONE',  ( 0.000000000000000000, 0.000000000000000000, -1.000000000000000000 ) ) ;
#311 = AXIS2_PLACEMENT_3D ( 'NONE', #274, #214, #408 ) ;
#312 = PRESENTATION_STYLE_ASSIGNMENT (( #471 ) ) ;
#313 = AXIS2_PLACEMENT_3D ( 'NONE', #253, #544, #114 ) ;
#314 = ORIENTED_EDGE ( 'NONE', *, *, #472, .F. ) ;
#315 = CARTESIAN_POINT ( 'NONE',  ( 4.440892098500626162E-13, 4.000000000039409365, 15.99999999999999289 ) ) ;
#316 = CIRCLE ( 'NONE', #202, 1.999999999999998224 ) ;
#317 = ORIENTED_EDGE ( 'NONE', *, *, #645, .T. ) ;
#318 = DIRECTION ( 'NONE',  ( 0.000000000000000000, 0.000000000000000000, -1.000000000000000000 ) ) ;
#319 = CARTESIAN_POINT ( 'NONE',  ( 2.000000000000444089, 4.000000000039409365, -30.00000000000000711 ) ) ;
#320 = VERTEX_POINT ( 'NONE', #781 ) ;
#321 = EDGE_CURVE ( 'NONE', #751, #456, #450, .T. ) ;
#322 = PLANE ( 'NONE',  #345 ) ;
#323 = ORIENTED_EDGE ( 'NONE', *, *, #791, .F. ) ;
#324 = CYLINDRICAL_SURFACE ( 'NONE', #200, 2.000000000000000000 ) ;
#325 = ORIENTED_EDGE ( 'NONE', *, *, #400, .T. ) ;
#326 = LINE ( 'NONE', #606, #169 ) ;
#327 = ADVANCED_FACE ( 'NONE', ( #608 ), #324, .F. ) ;
#328 = DIRECTION ( 'NONE',  ( 0.000000000000000000, 0.000000000000000000, 1.000000000000000000 ) ) ;
#329 = DIRECTION ( 'NONE',  ( 1.000000000000000000, 0.000000000000000000, 0.000000000000000000 ) ) ;
#330 = VECTOR ( 'NONE', #10, 1000.000000000000000 ) ;
#331 = CYLINDRICAL_SURFACE ( 'NONE', #595, 2.000000000000000000 ) ;
#332 = VECTOR ( 'NONE', #477, 1000.000000000000000 ) ;
#333 = CIRCLE ( 'NONE', #218, 2.000000000000000000 ) ;
#334 = ADVANCED_FACE ( 'NONE', ( #686 ), #758, .F. ) ;
#335 = DIRECTION ( 'NONE',  ( -1.000000000000000000, 0.000000000000000000, 0.000000000000000000 ) ) ;
#336 = ORIENTED_EDGE ( 'NONE', *, *, #321, .T. ) ;
#337 = ADVANCED_FACE ( 'NONE', ( #343 ), #625, .T. ) ;
#338 = DIRECTION ( 'NONE',  ( 0.000000000000000000, 0.000000000000000000, 1.000000000000000000 ) ) ;
#339 = VERTEX_POINT ( 'NONE', #628 ) ;
#340 = DIRECTION ( 'NONE',  ( 0.000000000000000000, 0.000000000000000000, -1.000000000000000000 ) ) ;
#341 = ADVANCED_FACE ( 'NONE', ( #280 ), #564, .F. ) ;
#342 = ORIENTED_EDGE ( 'NONE', *, *, #163, .T. ) ;
#343 = FACE_OUTER_BOUND ( 'NONE', #411, .T. ) ;
#344 = VECTOR ( 'NONE', #112, 1000.000000000000000 ) ;
#345 = AXIS2_PLACEMENT_3D ( 'NONE', #898, #812, #667 ) ;
#346 = AXIS2_PLACEMENT_3D ( 'NONE', #672, #660, #45 ) ;
#347 = PRODUCT_RELATED_PRODUCT_CATEGORY ( 'part', '', ( #543 ) ) ;
#348 = ORIENTED_EDGE ( 'NONE', *, *, #472, .T. ) ;
#349 = CARTESIAN_POINT ( 'NONE',  ( -4.000000000000000000, 24.00000000000000000, 24.00000000000000711 ) ) ;
#350 = UNCERTAINTY_MEASURE_WITH_UNIT (LENGTH_MEASURE( 1.000000000000000082E-05 ), #744, 'distance_accuracy_value', 'NONE');
#351 = DIRECTION ( 'NONE',  ( 0.000000000000000000, 1.000000000000000000, 0.000000000000000000 ) ) ;
#352 = CYLINDRICAL_SURFACE ( 'NONE', #452, 1.999999999999998224 ) ;
#353 = ORIENTED_EDGE ( 'NONE', *, *, #607, .F. ) ;
#354 = CARTESIAN_POINT ( 'NONE',  ( -2.499999999999999556, 13.99999999999999467, 17.99999999999999645 ) ) ;
#355 = CARTESIAN_POINT ( 'NONE',  ( -21.49999999999997158, 30.00000000000000000, 30.00000000000000711 ) ) ;
#356 = FACE_BOUND ( 'NONE', #113, .T. ) ;
#357 = VERTEX_POINT ( 'NONE', #839 ) ;
#358 = DIRECTION ( 'NONE',  ( -0.000000000000000000, 1.000000000000000000, -0.000000000000000000 ) ) ;
#359 = CIRCLE ( 'NONE', #376, 1.999999999999998224 ) ;
#360 = CIRCLE ( 'NONE', #507, 1.999999999999998224 ) ;
#361 = ADVANCED_FACE ( 'NONE', ( #257 ), #470, .F. ) ;
#362 = DIRECTION ( 'NONE',  ( 0.000000000000000000, 0.000000000000000000, 1.000000000000000000 ) ) ;
#363 = PRESENTATION_LAYER_ASSIGNMENT (  '', '', ( #897 ) ) ;
#364 = DIRECTION ( 'NONE',  ( -1.000000000000000000, 0.000000000000000000, 0.000000000000000000 ) ) ;
#365 = ORIENTED_EDGE ( 'NONE', *, *, #205, .T. ) ;
#366 = CARTESIAN_POINT ( 'NONE',  ( -62.50000000000000000, 30.00000000000000000, 17.00000000000000000 ) ) ;
#367 = FACE_OUTER_BOUND ( 'NONE', #651, .T. ) ;
#368 = EDGE_CURVE ( 'NONE', #339, #78, #25, .T. ) ;
#369 = CARTESIAN_POINT ( 'NONE',  ( -4.000000000000000000, 24.00000000000000000, -22.00000000000001066 ) ) ;
#370 = ORIENTED_EDGE ( 'NONE', *, *, #179, .T. ) ;
#371 = FACE_OUTER_BOUND ( 'NONE', #582, .T. ) ;
#372 = FACE_OUTER_BOUND ( 'NONE', #197, .T. ) ;
#373 = CARTESIAN_POINT ( 'NONE',  ( -2.499999999999999556, 13.99999999999999467, 15.99999999999999645 ) ) ;
#374 = ORIENTED_EDGE ( 'NONE', *, *, #134, .T. ) ;
#375 = DIRECTION ( 'NONE',  ( 0.000000000000000000, 0.000000000000000000, 1.000000000000000000 ) ) ;
#376 = AXIS2_PLACEMENT_3D ( 'NONE', #117, #183, #399 ) ;
#377 = CARTESIAN_POINT ( 'NONE',  ( 7.500000000000000888, 13.99999999999999467, 13.99999999999999645 ) ) ;
#378 = CIRCLE ( 'NONE', #489, 17.00000000000000000 ) ;
#379 = VECTOR ( 'NONE', #757, 1000.000000000000000 ) ;
#380 = CYLINDRICAL_SURFACE ( 'NONE', #790, 1.999999999999998224 ) ;
#381 = AXIS2_PLACEMENT_3D ( 'NONE', #810, #523, #176 ) ;
#382 = ORIENTED_EDGE ( 'NONE', *, *, #864, .F. ) ;
#383 = CARTESIAN_POINT ( 'NONE',  ( -21.49999999999997158, 30.00000000000000000, 30.00000000000000711 ) ) ;
#384 = EDGE_CURVE ( 'NONE', #43, #762, #732, .T. ) ;
#385 = CARTESIAN_POINT ( 'NONE',  ( 2.000000000000444089, 4.000000000039409365, -16.00000000000000711 ) ) ;
#386 = FACE_OUTER_BOUND ( 'NONE', #69, .T. ) ;
#387 = ORIENTED_EDGE ( 'NONE', *, *, #692, .T. ) ;
#388 = FACE_OUTER_BOUND ( 'NONE', #22, .T. ) ;
#389 = ORIENTED_EDGE ( 'NONE', *, *, #205, .F. ) ;
#390 = DIRECTION ( 'NONE',  ( 1.000000000000000000, -0.000000000000000000, -0.000000000000000000 ) ) ;
#391 = EDGE_LOOP ( 'NONE', ( #237, #890, #165, #317 ) ) ;
#392 = CARTESIAN_POINT ( 'NONE',  ( 7.500000000000000888, 70.00000000000000000, -30.00000000000000711 ) ) ;
#393 = CARTESIAN_POINT ( 'NONE',  ( -7.500000000000000000, 30.00000000000000000, 0.000000000000000000 ) ) ;
#394 = EDGE_CURVE ( 'NONE', #149, #405, #639, .T. ) ;
#395 = AXIS2_PLACEMENT_3D ( 'NONE', #80, #138, #854 ) ;
#396 = CARTESIAN_POINT ( 'NONE',  ( 4.000000000000007105, 30.00000000000000000, 26.00000000000001066 ) ) ;
#397 = ORIENTED_EDGE ( 'NONE', *, *, #566, .T. ) ;
#398 = CARTESIAN_POINT ( 'NONE',  ( -2.499999999999999556, 13.99999999999999467, 13.99999999999999645 ) ) ;
#399 = DIRECTION ( 'NONE',  ( 0.000000000000000000, 0.000000000000000000, 1.000000000000000000 ) ) ;
#400 = EDGE_CURVE ( 'NONE', #666, #656, #788, .T. ) ;
#401 = VERTEX_POINT ( 'NONE', #455 ) ;
#402 = CARTESIAN_POINT ( 'NONE',  ( 4.440892098500626162E-13, 4.000000000039409365, -16.00000000000000711 ) ) ;
#403 = CARTESIAN_POINT ( 'NONE',  ( 4.000000000000007105, 24.00000000000000000, -24.00000000000000711 ) ) ;
#404 =( NAMED_UNIT ( * ) SI_UNIT ( $, .STERADIAN. ) SOLID_ANGLE_UNIT ( ) );
#405 = VERTEX_POINT ( 'NONE', #233 ) ;
#406 = DIRECTION ( 'NONE',  ( 0.000000000000000000, 0.000000000000000000, -1.000000000000000000 ) ) ;
#407 = PRODUCT_DEFINITION_SHAPE ( 'NONE', 'NONE',  #511 ) ;
#408 = DIRECTION ( 'NONE',  ( 0.000000000000000000, 0.000000000000000000, -1.000000000000000000 ) ) ;
#409 = VECTOR ( 'NONE', #729, 1000.000000000000000 ) ;
#410 = DIRECTION ( 'NONE',  ( 1.000000000000000000, 0.000000000000000000, 0.000000000000000000 ) ) ;
#411 = EDGE_LOOP ( 'NONE', ( #133, #374 ) ) ;
#412 = AXIS2_PLACEMENT_3D ( 'NONE', #77, #631, #6 ) ;
#413 = ADVANCED_FACE ( 'NONE', ( #15, #295, #290 ), #573, .F. ) ;
#414 = CARTESIAN_POINT ( 'NONE',  ( 7.500000000000000888, 13.99999999999999822, -16.00000000000000355 ) ) ;
#415 = VERTEX_POINT ( 'NONE', #286 ) ;
#416 = DIRECTION ( 'NONE',  ( 0.000000000000000000, 0.000000000000000000, -1.000000000000000000 ) ) ;
#417 = ORIENTED_EDGE ( 'NONE', *, *, #882, .F. ) ;
#418 = EDGE_CURVE ( 'NONE', #104, #147, #360, .T. ) ;
#419 = VERTEX_POINT ( 'NONE', #723 ) ;
#420 = CARTESIAN_POINT ( 'NONE',  ( 4.000000000000007105, 24.00000000000000000, -22.00000000000001066 ) ) ;
#421 = VECTOR ( 'NONE', #223, 1000.000000000000000 ) ;
#422 = CIRCLE ( 'NONE', #906, 1.999999999999998224 ) ;
#423 = DIRECTION ( 'NONE',  ( 1.000000000000000000, 0.000000000000000000, 0.000000000000000000 ) ) ;
#424 = DIRECTION ( 'NONE',  ( 1.000000000000000000, 0.000000000000000000, 0.000000000000000000 ) ) ;
#425 = EDGE_LOOP ( 'NONE', ( #241, #817, #314, #707 ) ) ;
#426 = FACE_OUTER_BOUND ( 'NONE', #627, .T. ) ;
#427 = ORIENTED_EDGE ( 'NONE', *, *, #435, .T. ) ;
#428 = CARTESIAN_POINT ( 'NONE',  ( 7.500000000000000888, 0.000000000000000000, 29.99999999999999289 ) ) ;
#429 = ORIENTED_EDGE ( 'NONE', *, *, #738, .T. ) ;
#430 = DIRECTION ( 'NONE',  ( 0.000000000000000000, 1.000000000000000000, 0.000000000000000000 ) ) ;
#431 = EDGE_CURVE ( 'NONE', #787, #483, #802, .T. ) ;
#432 = DIRECTION ( 'NONE',  ( 1.000000000000000000, 0.000000000000000000, 0.000000000000000000 ) ) ;
#433 = ORIENTED_EDGE ( 'NONE', *, *, #84, .F. ) ;
#434 = LINE ( 'NONE', #717, #521 ) ;
#435 = EDGE_CURVE ( 'NONE', #419, #19, #172, .T. ) ;
#436 = VECTOR ( 'NONE', #227, 1000.000000000000000 ) ;
#437 = CIRCLE ( 'NONE', #624, 2.000000000000000000 ) ;
#438 = LINE ( 'NONE', #428, #522 ) ;
#439 = ORIENTED_EDGE ( 'NONE', *, *, #755, .F. ) ;
#440 = DIRECTION ( 'NONE',  ( 0.000000000000000000, 0.000000000000000000, 1.000000000000000000 ) ) ;
#441 = DIRECTION ( 'NONE',  ( -0.000000000000000000, 1.000000000000000000, -0.000000000000000000 ) ) ;
#442 = ADVANCED_FACE ( 'NONE', ( #445 ), #728, .T. ) ;
#443 = DIRECTION ( 'NONE',  ( 0.000000000000000000, 0.000000000000000000, 1.000000000000000000 ) ) ;
#444 = ORIENTED_EDGE ( 'NONE', *, *, #596, .F. ) ;
#445 = FACE_OUTER_BOUND ( 'NONE', #252, .T. ) ;
#446 = LINE ( 'NONE', #654, #893 ) ;
#447 = DIRECTION ( 'NONE',  ( 1.000000000000000000, -0.000000000000000000, -0.000000000000000000 ) ) ;
#448 = ORIENTED_EDGE ( 'NONE', *, *, #67, .T. ) ;
#449 = FACE_OUTER_BOUND ( 'NONE', #47, .T. ) ;
#450 = CIRCLE ( 'NONE', #562, 2.000000000000001776 ) ;
#451 = DIRECTION ( 'NONE',  ( 0.000000000000000000, 0.000000000000000000, -1.000000000000000000 ) ) ;
#452 = AXIS2_PLACEMENT_3D ( 'NONE', #693, #617, #141 ) ;
#453 = CIRCLE ( 'NONE', #129, 2.000000000000000000 ) ;
#454 = VERTEX_POINT ( 'NONE', #34 ) ;
#455 = CARTESIAN_POINT ( 'NONE',  ( -7.500000000000000000, 30.00000000000000000, 17.00000000000000000 ) ) ;
#456 = VERTEX_POINT ( 'NONE', #83 ) ;
#457 = DIRECTION ( 'NONE',  ( 1.000000000000000000, -0.000000000000000000, 0.000000000000000000 ) ) ;
#458 = LINE ( 'NONE', #108, #879 ) ;
#459 = ORIENTED_EDGE ( 'NONE', *, *, #578, .F. ) ;
#460 = DIRECTION ( 'NONE',  ( 0.000000000000000000, 0.000000000000000000, 1.000000000000000000 ) ) ;
#461 = ADVANCED_FACE ( 'NONE', ( #798, #371 ), #501, .F. ) ;
#462 = CARTESIAN_POINT ( 'NONE',  ( -2.499999999999999556, 13.99999999999999822, -16.00000000000000355 ) ) ;
#463 = ORIENTED_EDGE ( 'NONE', *, *, #29, .F. ) ;
#464 = DIRECTION ( 'NONE',  ( -0.000000000000000000, -1.000000000000000000, -0.000000000000000000 ) ) ;
#465 = EDGE_CURVE ( 'NONE', #751, #78, #434, .T. ) ;
#466 = CARTESIAN_POINT ( 'NONE',  ( 7.500000000000000888, 0.000000000000000000, 29.99999999999999289 ) ) ;
#467 = AXIS2_PLACEMENT_3D ( 'NONE', #559, #682, #888 ) ;
#468 = ORIENTED_EDGE ( 'NONE', *, *, #209, .T. ) ;
#469 = LINE ( 'NONE', #120, #28 ) ;
#470 = CYLINDRICAL_SURFACE ( 'NONE', #98, 2.000000000000000000 ) ;
#471 = SURFACE_STYLE_USAGE ( .BOTH. , #889 ) ;
#472 = EDGE_CURVE ( 'NONE', #401, #177, #90, .T. ) ;
#473 = ORIENTED_EDGE ( 'NONE', *, *, #895, .T. ) ;
#474 = CYLINDRICAL_SURFACE ( 'NONE', #313, 2.000000000000001776 ) ;
#475 = CARTESIAN_POINT ( 'NONE',  ( -2.499999999999999556, 13.99999999999999467, 15.99999999999999645 ) ) ;
#476 = ADVANCED_FACE ( 'NONE', ( #643, #301, #20 ), #583, .F. ) ;
#477 = DIRECTION ( 'NONE',  ( -0.000000000000000000, -0.000000000000000000, -1.000000000000000000 ) ) ;
#478 = EDGE_LOOP ( 'NONE', ( #193, #727 ) ) ;
#479 = AXIS2_PLACEMENT_3D ( 'NONE', #512, #31, #534 ) ;
#480 = DIRECTION ( 'NONE',  ( 0.000000000000000000, 0.000000000000000000, -1.000000000000000000 ) ) ;
#481 = CIRCLE ( 'NONE', #718, 2.000000000000001776 ) ;
#482 = VERTEX_POINT ( 'NONE', #515 ) ;
#483 = VERTEX_POINT ( 'NONE', #166 ) ;
#484 =( NAMED_UNIT ( * ) PLANE_ANGLE_UNIT ( ) SI_UNIT ( $, .RADIAN. ) );
#485 = ORIENTED_EDGE ( 'NONE', *, *, #566, .F. ) ;
#486 = CARTESIAN_POINT ( 'NONE',  ( 4.440892098500626162E-13, 4.000000000039409365, -16.00000000000000711 ) ) ;
#487 = ADVANCED_FACE ( 'NONE', ( #449 ), #657, .T. ) ;
#488 = SURFACE_STYLE_FILL_AREA ( #212 ) ;
#489 = AXIS2_PLACEMENT_3D ( 'NONE', #393, #457, #531 ) ;
#490 = VERTEX_POINT ( 'NONE', #264 ) ;
#491 = DIRECTION ( 'NONE',  ( -0.000000000000000000, -0.000000000000000000, -1.000000000000000000 ) ) ;
#492 = AXIS2_PLACEMENT_3D ( 'NONE', #871, #23, #862 ) ;
#493 = PRODUCT_DEFINITION_FORMATION_WITH_SPECIFIED_SOURCE ( 'Symmetric', '', #543, .NOT_KNOWN. ) ;
#494 = FACE_OUTER_BOUND ( 'NONE', #838, .T. ) ;
#495 = ADVANCED_FACE ( 'NONE', ( #309 ), #322, .T. ) ;
#496 = EDGE_LOOP ( 'NONE', ( #623, #429, #468, #276 ) ) ;
#497 = CARTESIAN_POINT ( 'NONE',  ( -2.499999999999999556, 13.99999999999999467, 13.99999999999999645 ) ) ;
#498 = DIRECTION ( 'NONE',  ( -0.000000000000000000, -0.000000000000000000, 1.000000000000000000 ) ) ;
#499 = ADVANCED_FACE ( 'NONE', ( #41 ), #331, .F. ) ;
#500 = EDGE_LOOP ( 'NONE', ( #597, #2, #370, #722 ) ) ;
#501 = PLANE ( 'NONE',  #492 ) ;
#502 = DIRECTION ( 'NONE',  ( 0.000000000000000000, 1.000000000000000000, 0.000000000000000000 ) ) ;
#503 = FACE_OUTER_BOUND ( 'NONE', #587, .T. ) ;
#504 = ORIENTED_EDGE ( 'NONE', *, *, #542, .T. ) ;
#505 = CARTESIAN_POINT ( 'NONE',  ( 7.500000000000000888, 0.000000000000000000, -30.00000000000000711 ) ) ;
#506 = CIRCLE ( 'NONE', #479, 1.999999999999998224 ) ;
#507 = AXIS2_PLACEMENT_3D ( 'NONE', #858, #569, #96 ) ;
#508 = DIRECTION ( 'NONE',  ( 1.000000000000000000, 0.000000000000000000, 0.000000000000000000 ) ) ;
#509 = ORIENTED_EDGE ( 'NONE', *, *, #17, .F. ) ;
#510 = CARTESIAN_POINT ( 'NONE',  ( -7.499999999999999112, 70.00000000000000000, 29.99999999999999289 ) ) ;
#511 = PRODUCT_DEFINITION ( 'General', '', #493, #5 ) ;
#512 = CARTESIAN_POINT ( 'NONE',  ( 4.000000000000007105, 24.00000000000000000, -24.00000000000000711 ) ) ;
#513 = CARTESIAN_POINT ( 'NONE',  ( -1.999999999999555911, 4.000000000039409365, -16.00000000000000711 ) ) ;
#514 = ORIENTED_EDGE ( 'NONE', *, *, #171, .F. ) ;
#515 = CARTESIAN_POINT ( 'NONE',  ( 4.000000000000007105, 24.00000000000000000, 22.00000000000000711 ) ) ;
#516 = CARTESIAN_POINT ( 'NONE',  ( 7.500000000000000888, 30.00000000000000000, 17.00000000000000000 ) ) ;
#517 = SHAPE_DEFINITION_REPRESENTATION ( #407, #53 ) ;
#518 = ORIENTED_EDGE ( 'NONE', *, *, #887, .T. ) ;
#519 = CARTESIAN_POINT ( 'NONE',  ( -4.000000000000000000, 24.00000000000000000, -26.00000000000000711 ) ) ;
#520 = DIRECTION ( 'NONE',  ( 1.000000000000000000, 0.000000000000000000, -0.000000000000000000 ) ) ;
#521 = VECTOR ( 'NONE', #358, 1000.000000000000000 ) ;
#522 = VECTOR ( 'NONE', #710, 1000.000000000000000 ) ;
#523 = DIRECTION ( 'NONE',  ( 0.000000000000000000, 0.000000000000000000, 1.000000000000000000 ) ) ;
#524 = VERTEX_POINT ( 'NONE', #746 ) ;
#525 = EDGE_CURVE ( 'NONE', #95, #482, #481, .T. ) ;
#526 = PLANE ( 'NONE',  #297 ) ;
#527 = FACE_BOUND ( 'NONE', #899, .T. ) ;
#528 = ORIENTED_EDGE ( 'NONE', *, *, #111, .F. ) ;
#529 = LINE ( 'NONE', #392, #701 ) ;
#530 = ADVANCED_FACE ( 'NONE', ( #818 ), #474, .F. ) ;
#531 = DIRECTION ( 'NONE',  ( 0.000000000000000000, 0.000000000000000000, -1.000000000000000000 ) ) ;
#532 = VERTEX_POINT ( 'NONE', #737 ) ;
#533 = DIRECTION ( 'NONE',  ( 0.000000000000000000, 0.000000000000000000, 1.000000000000000000 ) ) ;
#534 = DIRECTION ( 'NONE',  ( 0.000000000000000000, 0.000000000000000000, 1.000000000000000000 ) ) ;
#535 = ADVANCED_FACE ( 'NONE', ( #674 ), #182, .F. ) ;
#536 =( NAMED_UNIT ( * ) SI_UNIT ( $, .STERADIAN. ) SOLID_ANGLE_UNIT ( ) );
#537 = CIRCLE ( 'NONE', #653, 2.000000000000001776 ) ;
#538 = ORIENTED_EDGE ( 'NONE', *, *, #394, .F. ) ;
#539 = DIRECTION ( 'NONE',  ( 0.000000000000000000, 1.000000000000000000, 0.000000000000000000 ) ) ;
#540 = MECHANICAL_DESIGN_GEOMETRIC_PRESENTATION_REPRESENTATION (  '', ( #863 ), #139 ) ;
#541 = CARTESIAN_POINT ( 'NONE',  ( -4.000000000000000000, 24.00000000000000000, 24.00000000000000711 ) ) ;
#542 = EDGE_CURVE ( 'NONE', #104, #300, #891, .T. ) ;
#543 = PRODUCT ( 'encoder-stand_flange-support-bottom', 'encoder-stand_flange-support-bottom', '', ( #740 ) ) ;
#544 = DIRECTION ( 'NONE',  ( -0.000000000000000000, 1.000000000000000000, -0.000000000000000000 ) ) ;
#545 = ORIENTED_EDGE ( 'NONE', *, *, #616, .T. ) ;
#546 = CARTESIAN_POINT ( 'NONE',  ( 4.000000000000007105, 24.00000000000000000, 22.00000000000000711 ) ) ;
#547 = EDGE_LOOP ( 'NONE', ( #204, #709 ) ) ;
#548 = VECTOR ( 'NONE', #318, 1000.000000000000000 ) ;
#549 = VECTOR ( 'NONE', #259, 1000.000000000000000 ) ;
#550 = ORIENTED_EDGE ( 'NONE', *, *, #769, .T. ) ;
#551 = MECHANICAL_DESIGN_GEOMETRIC_PRESENTATION_REPRESENTATION (  '', ( #897 ), #689 ) ;
#552 = VERTEX_POINT ( 'NONE', #398 ) ;
#553 = CARTESIAN_POINT ( 'NONE',  ( 2.000000000000444089, 4.000000000039409365, -16.00000000000000711 ) ) ;
#554 = EDGE_LOOP ( 'NONE', ( #759, #140, #342, #545, #784, #819 ) ) ;
#555 = DIRECTION ( 'NONE',  ( -0.000000000000000000, 1.000000000000000000, -0.000000000000000000 ) ) ;
#556 = ADVANCED_FACE ( 'NONE', ( #388 ), #256, .T. ) ;
#557 = LINE ( 'NONE', #546, #777 ) ;
#558 = ORIENTED_EDGE ( 'NONE', *, *, #692, .F. ) ;
#559 = CARTESIAN_POINT ( 'NONE',  ( -2.499999999999999556, 13.99999999999999822, -16.00000000000000355 ) ) ;
#560 = DIRECTION ( 'NONE',  ( 1.000000000000000000, -0.000000000000000000, -0.000000000000000000 ) ) ;
#561 = DIRECTION ( 'NONE',  ( 0.000000000000000000, 1.000000000000000000, 0.000000000000000000 ) ) ;
#562 = AXIS2_PLACEMENT_3D ( 'NONE', #541, #144, #894 ) ;
#563 = ORIENTED_EDGE ( 'NONE', *, *, #769, .F. ) ;
#564 = CYLINDRICAL_SURFACE ( 'NONE', #467, 1.999999999999998224 ) ;
#565 = AXIS2_PLACEMENT_3D ( 'NONE', #402, #110, #187 ) ;
#566 = EDGE_CURVE ( 'NONE', #532, #207, #752, .T. ) ;
#567 = CYLINDRICAL_SURFACE ( 'NONE', #88, 1.999999999999998224 ) ;
#568 = ORIENTED_EDGE ( 'NONE', *, *, #67, .F. ) ;
#569 = DIRECTION ( 'NONE',  ( 1.000000000000000000, 0.000000000000000000, 0.000000000000000000 ) ) ;
#570 = DIRECTION ( 'NONE',  ( -0.000000000000000000, -0.000000000000000000, -1.000000000000000000 ) ) ;
#571 = LINE ( 'NONE', #649, #613 ) ;
#572 = ORIENTED_EDGE ( 'NONE', *, *, #171, .T. ) ;
#573 = PLANE ( 'NONE',  #822 ) ;
#574 = CARTESIAN_POINT ( 'NONE',  ( -7.499999999999999112, 0.000000000000000000, 29.99999999999999289 ) ) ;
#575 = DIRECTION ( 'NONE',  ( 0.000000000000000000, 0.000000000000000000, 1.000000000000000000 ) ) ;
#576 = EDGE_LOOP ( 'NONE', ( #255, #528, #509, #353, #572, #685 ) ) ;
#577 = CARTESIAN_POINT ( 'NONE',  ( -4.000000000000000000, 30.00000000000000000, 24.00000000000000711 ) ) ;
#578 = EDGE_CURVE ( 'NONE', #26, #646, #153, .T. ) ;
#579 = AXIS2_PLACEMENT_3D ( 'NONE', #720, #423, #76 ) ;
#580 = DIRECTION ( 'NONE',  ( 1.000000000000000000, -0.000000000000000000, -0.000000000000000000 ) ) ;
#581 = CARTESIAN_POINT ( 'NONE',  ( 4.000000000000007105, 30.00000000000000000, -24.00000000000000711 ) ) ;
#582 = EDGE_LOOP ( 'NONE', ( #514, #801, #427, #861 ) ) ;
#583 = PLANE ( 'NONE',  #247 ) ;
#584 = ADVANCED_FACE ( 'NONE', ( #662 ), #526, .T. ) ;
#585 = LINE ( 'NONE', #806, #803 ) ;
#586 = DIRECTION ( 'NONE',  ( -0.000000000000000000, 1.000000000000000000, -0.000000000000000000 ) ) ;
#587 = EDGE_LOOP ( 'NONE', ( #382, #325, #448, #122 ) ) ;
#588 = DIRECTION ( 'NONE',  ( 0.000000000000000000, 1.000000000000000000, 0.000000000000000000 ) ) ;
#589 = CARTESIAN_POINT ( 'NONE',  ( 7.500000000000000888, 0.000000000000000000, -30.00000000000000711 ) ) ;
#590 = EDGE_CURVE ( 'NONE', #787, #92, #622, .T. ) ;
#591 = EDGE_LOOP ( 'NONE', ( #64, #716, #181, #49 ) ) ;
#592 = CARTESIAN_POINT ( 'NONE',  ( -2.499999999999999556, 13.99999999999999822, -18.00000000000000355 ) ) ;
#593 = AXIS2_PLACEMENT_3D ( 'NONE', #703, #208, #778 ) ;
#594 = DIRECTION ( 'NONE',  ( 0.000000000000000000, -0.000000000000000000, 1.000000000000000000 ) ) ;
#595 = AXIS2_PLACEMENT_3D ( 'NONE', #315, #196, #598 ) ;
#596 = EDGE_CURVE ( 'NONE', #482, #95, #896, .T. ) ;
#597 = ORIENTED_EDGE ( 'NONE', *, *, #384, .F. ) ;
#598 = DIRECTION ( 'NONE',  ( 1.000000000000000000, 0.000000000000000000, 0.000000000000000000 ) ) ;
#599 = DIRECTION ( 'NONE',  ( 0.000000000000000000, 0.000000000000000000, 1.000000000000000000 ) ) ;
#600 = PLANE ( 'NONE',  #346 ) ;
#601 = ORIENTED_EDGE ( 'NONE', *, *, #118, .T. ) ;
#602 = DIRECTION ( 'NONE',  ( 0.000000000000000000, 0.000000000000000000, -1.000000000000000000 ) ) ;
#603 = EDGE_CURVE ( 'NONE', #524, #149, #529, .T. ) ;
#604 = DIRECTION ( 'NONE',  ( 0.000000000000000000, 0.000000000000000000, -1.000000000000000000 ) ) ;
#605 = EDGE_LOOP ( 'NONE', ( #683, #731, #771, #74 ) ) ;
#606 = CARTESIAN_POINT ( 'NONE',  ( -7.499999999999999112, 30.00000000000000000, 29.99999999999999289 ) ) ;
#607 = EDGE_CURVE ( 'NONE', #308, #177, #469, .T. ) ;
#608 = FACE_OUTER_BOUND ( 'NONE', #496, .T. ) ;
#609 = AXIS2_PLACEMENT_3D ( 'NONE', #577, #242, #157 ) ;
#610 = CIRCLE ( 'NONE', #734, 2.000000000000000000 ) ;
#611 = VECTOR ( 'NONE', #783, 1000.000000000000000 ) ;
#612 = CARTESIAN_POINT ( 'NONE',  ( -2.499999999999999556, 13.99999999999999822, -16.00000000000000355 ) ) ;
#613 = VECTOR ( 'NONE', #236, 1000.000000000000000 ) ;
#614 = DIRECTION ( 'NONE',  ( 0.000000000000000000, 0.000000000000000000, -1.000000000000000000 ) ) ;
#615 = EDGE_LOOP ( 'NONE', ( #33, #473 ) ) ;
#616 = EDGE_CURVE ( 'NONE', #207, #454, #326, .T. ) ;
#617 = DIRECTION ( 'NONE',  ( -0.000000000000000000, 1.000000000000000000, -0.000000000000000000 ) ) ;
#618 = ORIENTED_EDGE ( 'NONE', *, *, #431, .T. ) ;
#619 = AXIS2_PLACEMENT_3D ( 'NONE', #349, #277, #56 ) ;
#620 = EDGE_CURVE ( 'NONE', #19, #130, #684, .T. ) ;
#621 = CARTESIAN_POINT ( 'NONE',  ( -4.000000000000000000, 24.00000000000000000, 24.00000000000000711 ) ) ;
#622 = CIRCLE ( 'NONE', #565, 2.000000000000000000 ) ;
#623 = ORIENTED_EDGE ( 'NONE', *, *, #895, .F. ) ;
#624 = AXIS2_PLACEMENT_3D ( 'NONE', #373, #329, #51 ) ;
#625 = PLANE ( 'NONE',  #311 ) ;
#626 =( NAMED_UNIT ( * ) SI_UNIT ( $, .STERADIAN. ) SOLID_ANGLE_UNIT ( ) );
#627 = EDGE_LOOP ( 'NONE', ( #518, #681 ) ) ;
#628 = CARTESIAN_POINT ( 'NONE',  ( -4.000000000000000000, 30.00000000000000000, 26.00000000000001066 ) ) ;
#629 = EDGE_CURVE ( 'NONE', #456, #751, #537, .T. ) ;
#630 = CARTESIAN_POINT ( 'NONE',  ( 4.440892098500626162E-13, 4.000000000039409365, -16.00000000000000711 ) ) ;
#631 = DIRECTION ( 'NONE',  ( 0.000000000000000000, 1.000000000000000000, 0.000000000000000000 ) ) ;
#632 = ORIENTED_EDGE ( 'NONE', *, *, #84, .T. ) ;
#633 = DIRECTION ( 'NONE',  ( 1.000000000000000000, -0.000000000000000000, -0.000000000000000000 ) ) ;
#634 = EDGE_CURVE ( 'NONE', #156, #904, #261, .T. ) ;
#635 = CARTESIAN_POINT ( 'NONE',  ( -4.000000000000000000, 30.00000000000000000, -24.00000000000000711 ) ) ;
#636 = DIRECTION ( 'NONE',  ( 0.000000000000000000, -1.000000000000000000, -0.000000000000000000 ) ) ;
#637 = CIRCLE ( 'NONE', #579, 17.00000000000000000 ) ;
#638 = ORIENTED_EDGE ( 'NONE', *, *, #629, .F. ) ;
#639 = LINE ( 'NONE', #505, #190 ) ;
#640 = AXIS2_PLACEMENT_3D ( 'NONE', #796, #636, #786 ) ;
#641 = DIRECTION ( 'NONE',  ( 0.000000000000000000, 0.000000000000000000, 1.000000000000000000 ) ) ;
#642 = ORIENTED_EDGE ( 'NONE', *, *, #725, .T. ) ;
#643 = FACE_BOUND ( 'NONE', #66, .T. ) ;
#644 = CARTESIAN_POINT ( 'NONE',  ( 4.440892098500626162E-13, 4.000000000039409365, 15.99999999999999289 ) ) ;
#645 = EDGE_CURVE ( 'NONE', #210, #415, #610, .T. ) ;
#646 = VERTEX_POINT ( 'NONE', #132 ) ;
#647 = DIRECTION ( 'NONE',  ( -0.000000000000000000, 1.000000000000000000, -0.000000000000000000 ) ) ;
#648 = DIRECTION ( 'NONE',  ( -1.000000000000000000, 0.000000000000000000, 0.000000000000000000 ) ) ;
#649 = CARTESIAN_POINT ( 'NONE',  ( -7.499999999999999112, 70.00000000000000000, -30.00000000000000711 ) ) ;
#650 = EDGE_CURVE ( 'NONE', #92, #903, #65, .T. ) ;
#651 = EDGE_LOOP ( 'NONE', ( #127, #741, #632, #836 ) ) ;
#652 = DIRECTION ( 'NONE',  ( 1.000000000000000000, -0.000000000000000000, -0.000000000000000000 ) ) ;
#653 = AXIS2_PLACEMENT_3D ( 'NONE', #621, #699, #338 ) ;
#654 = CARTESIAN_POINT ( 'NONE',  ( 7.500000000000000888, 70.00000000000000000, 29.99999999999999289 ) ) ;
#655 = CARTESIAN_POINT ( 'NONE',  ( 4.440892098500626162E-13, 4.000000000039409365, -16.00000000000000711 ) ) ;
#656 = VERTEX_POINT ( 'NONE', #126 ) ;
#657 = PLANE ( 'NONE',  #878 ) ;
#658 = ADVANCED_FACE ( 'NONE', ( #275 ), #352, .F. ) ;
#659 = LINE ( 'NONE', #50, #548 ) ;
#660 = DIRECTION ( 'NONE',  ( 0.000000000000000000, 1.000000000000000000, 0.000000000000000000 ) ) ;
#661 = EDGE_LOOP ( 'NONE', ( #824, #397, #136, #348 ) ) ;
#662 = FACE_OUTER_BOUND ( 'NONE', #258, .T. ) ;
#663 = EDGE_CURVE ( 'NONE', #673, #300, #847, .T. ) ;
#664 = PLANE ( 'NONE',  #763 ) ;
#665 = MANIFOLD_SOLID_BREP ( 'Cut-Extrude6', #168 ) ;
#666 = VERTEX_POINT ( 'NONE', #843 ) ;
#667 = DIRECTION ( 'NONE',  ( 0.000000000000000000, -0.000000000000000000, 1.000000000000000000 ) ) ;
#668 = VECTOR ( 'NONE', #16, 1000.000000000000000 ) ;
#669 = CYLINDRICAL_SURFACE ( 'NONE', #715, 2.000000000000000000 ) ;
#670 = AXIS2_PLACEMENT_3D ( 'NONE', #249, #178, #742 ) ;
#671 = CIRCLE ( 'NONE', #262, 2.000000000000000000 ) ;
#672 = CARTESIAN_POINT ( 'NONE',  ( 0.000000000000000000, 0.000000000000000000, 0.000000000000000000 ) ) ;
#673 = VERTEX_POINT ( 'NONE', #770 ) ;
#674 = FACE_OUTER_BOUND ( 'NONE', #170, .T. ) ;
#675 = ORIENTED_EDGE ( 'NONE', *, *, #774, .F. ) ;
#676 = CARTESIAN_POINT ( 'NONE',  ( -7.500000000000000000, 30.00000000000000000, -17.00000000000000000 ) ) ;
#677 = FILL_AREA_STYLE ('',( #816 ) ) ;
#678 = ORIENTED_EDGE ( 'NONE', *, *, #700, .T. ) ;
#679 = EDGE_CURVE ( 'NONE', #482, #156, #557, .T. ) ;
#680 = DIRECTION ( 'NONE',  ( 0.000000000000000000, 0.000000000000000000, -1.000000000000000000 ) ) ;
#681 = ORIENTED_EDGE ( 'NONE', *, *, #217, .T. ) ;
#682 = DIRECTION ( 'NONE',  ( 1.000000000000000000, -0.000000000000000000, -0.000000000000000000 ) ) ;
#683 = ORIENTED_EDGE ( 'NONE', *, *, #749, .F. ) ;
#684 = LINE ( 'NONE', #58, #230 ) ;
#685 = ORIENTED_EDGE ( 'NONE', *, *, #774, .T. ) ;
#686 = FACE_OUTER_BOUND ( 'NONE', #265, .T. ) ;
#687 = CIRCLE ( 'NONE', #281, 1.999999999999998224 ) ;
#688 = COLOUR_RGB ( '',0.2509803921568627416, 0.2509803921568627416, 0.2509803921568627416 ) ;
#689 =( GEOMETRIC_REPRESENTATION_CONTEXT ( 3 ) GLOBAL_UNCERTAINTY_ASSIGNED_CONTEXT ( ( #840 ) ) GLOBAL_UNIT_ASSIGNED_CONTEXT ( ( #696, #484, #626 ) ) REPRESENTATION_CONTEXT ( 'NONE', 'WORKASPACE' ) );
#690 = CARTESIAN_POINT ( 'NONE',  ( 4.440892098500626162E-13, 4.000000000039409365, -30.00000000000000711 ) ) ;
#691 = ORIENTED_EDGE ( 'NONE', *, *, #620, .F. ) ;
#692 = EDGE_CURVE ( 'NONE', #903, #483, #62, .T. ) ;
#693 = CARTESIAN_POINT ( 'NONE',  ( 4.000000000000007105, 24.00000000000000000, -24.00000000000000711 ) ) ;
#694 = EDGE_LOOP ( 'NONE', ( #271, #766, #642, #870 ) ) ;
#695 = EDGE_CURVE ( 'NONE', #552, #232, #283, .T. ) ;
#696 =( LENGTH_UNIT ( ) NAMED_UNIT ( * ) SI_UNIT ( .MILLI., .METRE. ) );
#697 = ORIENTED_EDGE ( 'NONE', *, *, #800, .F. ) ;
#698 = AXIS2_PLACEMENT_3D ( 'NONE', #239, #594, #520 ) ;
#699 = DIRECTION ( 'NONE',  ( 0.000000000000000000, 1.000000000000000000, 0.000000000000000000 ) ) ;
#700 = EDGE_CURVE ( 'NONE', #300, #673, #422, .T. ) ;
#701 = VECTOR ( 'NONE', #464, 1000.000000000000000 ) ;
#702 = EDGE_LOOP ( 'NONE', ( #389, #568 ) ) ;
#703 = CARTESIAN_POINT ( 'NONE',  ( 4.440892098500626162E-13, 4.000000000039409365, 15.99999999999999289 ) ) ;
#704 = CARTESIAN_POINT ( 'NONE',  ( -1.999999999999555911, 4.000000000039409365, 15.99999999999999289 ) ) ;
#705 = CARTESIAN_POINT ( 'NONE',  ( -7.499999999999999112, 30.00000000000000000, 29.99999999999999289 ) ) ;
#706 = EDGE_CURVE ( 'NONE', #419, #401, #267, .T. ) ;
#707 = ORIENTED_EDGE ( 'NONE', *, *, #706, .F. ) ;
#708 = CARTESIAN_POINT ( 'NONE',  ( 4.000000000000007105, 24.00000000000000000, 24.00000000000000711 ) ) ;
#709 = ORIENTED_EDGE ( 'NONE', *, *, #663, .F. ) ;
#710 = DIRECTION ( 'NONE',  ( 0.000000000000000000, 0.000000000000000000, -1.000000000000000000 ) ) ;
#711 = ORIENTED_EDGE ( 'NONE', *, *, #725, .F. ) ;
#712 = DIRECTION ( 'NONE',  ( 1.000000000000000000, -0.000000000000000000, 0.000000000000000000 ) ) ;
#713 = CYLINDRICAL_SURFACE ( 'NONE', #775, 2.000000000000001776 ) ;
#714 = DIRECTION ( 'NONE',  ( -1.000000000000000000, 0.000000000000000000, 0.000000000000000000 ) ) ;
#715 = AXIS2_PLACEMENT_3D ( 'NONE', #97, #390, #809 ) ;
#716 = ORIENTED_EDGE ( 'NONE', *, *, #384, .T. ) ;
#717 = CARTESIAN_POINT ( 'NONE',  ( -4.000000000000000000, 24.00000000000000000, 22.00000000000000711 ) ) ;
#718 = AXIS2_PLACEMENT_3D ( 'NONE', #883, #539, #460 ) ;
#719 = CIRCLE ( 'NONE', #216, 1.999999999999998224 ) ;
#720 = CARTESIAN_POINT ( 'NONE',  ( 7.500000000000000888, 30.00000000000000000, 0.000000000000000000 ) ) ;
#721 = CYLINDRICAL_SURFACE ( 'NONE', #71, 2.000000000000000000 ) ;
#722 = ORIENTED_EDGE ( 'NONE', *, *, #46, .T. ) ;
#723 = CARTESIAN_POINT ( 'NONE',  ( -7.500000000000000000, 30.00000000000000000, 30.00000000000000711 ) ) ;
#724 = CARTESIAN_POINT ( 'NONE',  ( 4.000000000000007105, 24.00000000000000000, -26.00000000000000711 ) ) ;
#725 = EDGE_CURVE ( 'NONE', #78, #339, #805, .T. ) ;
#726 = FACE_OUTER_BOUND ( 'NONE', #425, .T. ) ;
#727 = ORIENTED_EDGE ( 'NONE', *, *, #209, .F. ) ;
#728 = PLANE ( 'NONE',  #282 ) ;
#729 = DIRECTION ( 'NONE',  ( -0.000000000000000000, 1.000000000000000000, -0.000000000000000000 ) ) ;
#730 = CARTESIAN_POINT ( 'NONE',  ( -4.000000000000000000, 24.00000000000000000, -24.00000000000000711 ) ) ;
#731 = ORIENTED_EDGE ( 'NONE', *, *, #4, .T. ) ;
#732 = LINE ( 'NONE', #27, #833 ) ;
#733 = CIRCLE ( 'NONE', #876, 2.000000000000000000 ) ;
#734 = AXIS2_PLACEMENT_3D ( 'NONE', #63, #760, #614 ) ;
#735 = CARTESIAN_POINT ( 'NONE',  ( -2.499999999999999556, 13.99999999999999467, 15.99999999999999645 ) ) ;
#736 = ORIENTED_EDGE ( 'NONE', *, *, #864, .T. ) ;
#737 = CARTESIAN_POINT ( 'NONE',  ( 7.500000000000007105, 30.00000000000000000, -17.00000000000000000 ) ) ;
#738 = EDGE_CURVE ( 'NONE', #232, #415, #278, .T. ) ;
#739 = LINE ( 'NONE', #880, #409 ) ;
#740 = PRODUCT_CONTEXT ( 'NONE', #107, 'mechanical' ) ;
#741 = ORIENTED_EDGE ( 'NONE', *, *, #525, .F. ) ;
#742 = DIRECTION ( 'NONE',  ( 1.000000000000000000, 0.000000000000000000, 0.000000000000000000 ) ) ;
#743 = CARTESIAN_POINT ( 'NONE',  ( 4.000000000000007105, 24.00000000000000000, 26.00000000000001066 ) ) ;
#744 =( LENGTH_UNIT ( ) NAMED_UNIT ( * ) SI_UNIT ( .MILLI., .METRE. ) );
#745 = ORIENTED_EDGE ( 'NONE', *, *, #72, .T. ) ;
#746 = CARTESIAN_POINT ( 'NONE',  ( 7.500000000000000888, 30.00000000000000000, -30.00000000000000711 ) ) ;
#747 = VECTOR ( 'NONE', #560, 1000.000000000000000 ) ;
#748 = CYLINDRICAL_SURFACE ( 'NONE', #152, 17.00000000000000000 ) ;
#749 = EDGE_CURVE ( 'NONE', #454, #405, #571, .T. ) ;
#750 =( GEOMETRIC_REPRESENTATION_CONTEXT ( 3 ) GLOBAL_UNCERTAINTY_ASSIGNED_CONTEXT ( ( #900 ) ) GLOBAL_UNIT_ASSIGNED_CONTEXT ( ( #873, #185, #404 ) ) REPRESENTATION_CONTEXT ( 'NONE', 'WORKASPACE' ) );
#751 = VERTEX_POINT ( 'NONE', #18 ) ;
#752 = LINE ( 'NONE', #48, #379 ) ;
#753 = DIRECTION ( 'NONE',  ( -0.000000000000000000, 1.000000000000000000, -0.000000000000000000 ) ) ;
#754 = APPLICATION_PROTOCOL_DEFINITION ( 'draft international standard', 'automotive_design', 1998, #107 ) ;
#755 = EDGE_CURVE ( 'NONE', #646, #26, #671, .T. ) ;
#756 = ORIENTED_EDGE ( 'NONE', *, *, #814, .F. ) ;
#757 = DIRECTION ( 'NONE',  ( -1.000000000000000000, 0.000000000000000000, 0.000000000000000000 ) ) ;
#758 = CYLINDRICAL_SURFACE ( 'NONE', #832, 2.000000000000001776 ) ;
#759 = ORIENTED_EDGE ( 'NONE', *, *, #435, .F. ) ;
#760 = DIRECTION ( 'NONE',  ( 1.000000000000000000, 0.000000000000000000, 0.000000000000000000 ) ) ;
#761 = EDGE_CURVE ( 'NONE', #877, #811, #94, .T. ) ;
#762 = VERTEX_POINT ( 'NONE', #792 ) ;
#763 = AXIS2_PLACEMENT_3D ( 'NONE', #735, #799, #795 ) ;
#764 = AXIS2_PLACEMENT_3D ( 'NONE', #837, #424, #340 ) ;
#765 = DIRECTION ( 'NONE',  ( 1.000000000000000000, -0.000000000000000000, -0.000000000000000000 ) ) ;
#766 = ORIENTED_EDGE ( 'NONE', *, *, #465, .T. ) ;
#767 = ADVANCED_FACE ( 'NONE', ( #503 ), #380, .F. ) ;
#768 = ORIENTED_EDGE ( 'NONE', *, *, #882, .T. ) ;
#769 = EDGE_CURVE ( 'NONE', #357, #490, #173, .T. ) ;
#770 = CARTESIAN_POINT ( 'NONE',  ( 7.500000000000000888, 13.99999999999999822, -14.00000000000000355 ) ) ;
#771 = ORIENTED_EDGE ( 'NONE', *, *, #603, .T. ) ;
#772 = CARTESIAN_POINT ( 'NONE',  ( 7.500000000000000888, 13.99999999999999822, -18.00000000000000355 ) ) ;
#773 = CARTESIAN_POINT ( 'NONE',  ( 2.000000000000444089, 4.000000000039409365, 29.99999999999999289 ) ) ;
#774 = EDGE_CURVE ( 'NONE', #130, #149, #438, .T. ) ;
#775 = AXIS2_PLACEMENT_3D ( 'NONE', #158, #441, #224 ) ;
#776 = ORIENTED_EDGE ( 'NONE', *, *, #590, .T. ) ;
#777 = VECTOR ( 'NONE', #203, 1000.000000000000000 ) ;
#778 = DIRECTION ( 'NONE',  ( 1.000000000000000000, 0.000000000000000000, 0.000000000000000000 ) ) ;
#779 = CARTESIAN_POINT ( 'NONE',  ( 2.000000000000444089, 4.000000000039409365, 15.99999999999999289 ) ) ;
#780 = ORIENTED_EDGE ( 'NONE', *, *, #306, .T. ) ;
#781 = CARTESIAN_POINT ( 'NONE',  ( 4.000000000000007105, 30.00000000000000000, -22.00000000000001066 ) ) ;
#782 = CARTESIAN_POINT ( 'NONE',  ( -21.49999999999997158, 30.00000000000000000, -30.00000000000000711 ) ) ;
#783 = DIRECTION ( 'NONE',  ( -0.000000000000000000, -0.000000000000000000, 1.000000000000000000 ) ) ;
#784 = ORIENTED_EDGE ( 'NONE', *, *, #749, .T. ) ;
#785 = DIRECTION ( 'NONE',  ( -1.000000000000000000, 0.000000000000000000, 0.000000000000000000 ) ) ;
#786 = DIRECTION ( 'NONE',  ( 0.000000000000000000, 0.000000000000000000, -1.000000000000000000 ) ) ;
#787 = VERTEX_POINT ( 'NONE', #513 ) ;
#788 = LINE ( 'NONE', #519, #201 ) ;
#789 = AXIS2_PLACEMENT_3D ( 'NONE', #886, #808, #533 ) ;
#790 = AXIS2_PLACEMENT_3D ( 'NONE', #225, #586, #91 ) ;
#791 = EDGE_CURVE ( 'NONE', #762, #320, #316, .T. ) ;
#792 = CARTESIAN_POINT ( 'NONE',  ( 4.000000000000007105, 30.00000000000000000, -26.00000000000000711 ) ) ;
#793 = ORIENTED_EDGE ( 'NONE', *, *, #465, .F. ) ;
#794 = DIRECTION ( 'NONE',  ( -0.000000000000000000, 1.000000000000000000, -0.000000000000000000 ) ) ;
#795 = DIRECTION ( 'NONE',  ( 0.000000000000000000, 0.000000000000000000, -1.000000000000000000 ) ) ;
#796 = CARTESIAN_POINT ( 'NONE',  ( -21.49999999999997158, 30.00000000000000000, 30.00000000000000711 ) ) ;
#797 = ORIENTED_EDGE ( 'NONE', *, *, #814, .T. ) ;
#798 = FACE_BOUND ( 'NONE', #7, .T. ) ;
#799 = DIRECTION ( 'NONE',  ( 1.000000000000000000, 0.000000000000000000, 0.000000000000000000 ) ) ;
#800 = EDGE_CURVE ( 'NONE', #147, #673, #855, .T. ) ;
#801 = ORIENTED_EDGE ( 'NONE', *, *, #55, .F. ) ;
#802 = LINE ( 'NONE', #853, #436 ) ;
#803 = VECTOR ( 'NONE', #869, 1000.000000000000000 ) ;
#804 = AXIS2_PLACEMENT_3D ( 'NONE', #54, #194, #875 ) ;
#805 = CIRCLE ( 'NONE', #412, 2.000000000000001776 ) ;
#806 = CARTESIAN_POINT ( 'NONE',  ( -4.000000000000000000, 24.00000000000000000, 26.00000000000001066 ) ) ;
#807 = EDGE_LOOP ( 'NONE', ( #189, #463, #82, #365 ) ) ;
#808 = DIRECTION ( 'NONE',  ( 0.000000000000000000, 1.000000000000000000, 0.000000000000000000 ) ) ;
#809 = DIRECTION ( 'NONE',  ( 0.000000000000000000, 0.000000000000000000, -1.000000000000000000 ) ) ;
#810 = CARTESIAN_POINT ( 'NONE',  ( 0.000000000000000000, 0.000000000000000000, 0.000000000000000000 ) ) ;
#811 = VERTEX_POINT ( 'NONE', #292 ) ;
#812 = DIRECTION ( 'NONE',  ( 0.000000000000000000, 1.000000000000000000, 0.000000000000000000 ) ) ;
#813 = ORIENTED_EDGE ( 'NONE', *, *, #29, .T. ) ;
#814 = EDGE_CURVE ( 'NONE', #483, #903, #453, .T. ) ;
#815 = DIRECTION ( 'NONE',  ( 0.000000000000000000, 0.000000000000000000, -1.000000000000000000 ) ) ;
#816 = FILL_AREA_STYLE_COLOUR ( '', #30 ) ;
#817 = ORIENTED_EDGE ( 'NONE', *, *, #607, .T. ) ;
#818 = FACE_OUTER_BOUND ( 'NONE', #694, .T. ) ;
#819 = ORIENTED_EDGE ( 'NONE', *, *, #901, .T. ) ;
#820 = ADVANCED_FACE ( 'NONE', ( #356, #231, #726 ), #866, .F. ) ;
#821 = CYLINDRICAL_SURFACE ( 'NONE', #619, 2.000000000000001776 ) ;
#822 = AXIS2_PLACEMENT_3D ( 'NONE', #102, #161, #440 ) ;
#823 = VECTOR ( 'NONE', #765, 1000.000000000000000 ) ;
#824 = ORIENTED_EDGE ( 'NONE', *, *, #17, .T. ) ;
#825 = DIRECTION ( 'NONE',  ( 0.000000000000000000, 0.000000000000000000, -1.000000000000000000 ) ) ;
#826 = CARTESIAN_POINT ( 'NONE',  ( -7.499999999999999112, 70.00000000000000000, 29.99999999999999289 ) ) ;
#827 = DIRECTION ( 'NONE',  ( 0.000000000000000000, -0.000000000000000000, 1.000000000000000000 ) ) ;
#828 = ORIENTED_EDGE ( 'NONE', *, *, #650, .F. ) ;
#829 = ADVANCED_FACE ( 'NONE', ( #284 ), #567, .F. ) ;
#830 = DIRECTION ( 'NONE',  ( 0.000000000000000000, 0.000000000000000000, -1.000000000000000000 ) ) ;
#831 = EDGE_LOOP ( 'NONE', ( #89, #220 ) ) ;
#832 = AXIS2_PLACEMENT_3D ( 'NONE', #708, #753, #75 ) ;
#833 = VECTOR ( 'NONE', #647, 1000.000000000000000 ) ;
#834 = CIRCLE ( 'NONE', #116, 1.999999999999998224 ) ;
#835 = DIRECTION ( 'NONE',  ( 0.000000000000000000, 0.000000000000000000, -1.000000000000000000 ) ) ;
#836 = ORIENTED_EDGE ( 'NONE', *, *, #146, .T. ) ;
#837 = CARTESIAN_POINT ( 'NONE',  ( -2.499999999999999556, 13.99999999999999467, 15.99999999999999645 ) ) ;
#838 = EDGE_LOOP ( 'NONE', ( #199, #745, #849, #417 ) ) ;
#839 = CARTESIAN_POINT ( 'NONE',  ( 2.000000000000444089, 4.000000000039409365, 15.99999999999999289 ) ) ;
#840 = UNCERTAINTY_MEASURE_WITH_UNIT (LENGTH_MEASURE( 1.000000000000000082E-05 ), #696, 'distance_accuracy_value', 'NONE');
#841 = EDGE_CURVE ( 'NONE', #92, #787, #333, .T. ) ;
#842 = LINE ( 'NONE', #704, #330 ) ;
#843 = CARTESIAN_POINT ( 'NONE',  ( -4.000000000000000000, 24.00000000000000000, -26.00000000000000711 ) ) ;
#844 = ORIENTED_EDGE ( 'NONE', *, *, #596, .T. ) ;
#845 = DIRECTION ( 'NONE',  ( 0.000000000000000000, -0.000000000000000000, 1.000000000000000000 ) ) ;
#846 = CIRCLE ( 'NONE', #296, 2.000000000000001776 ) ;
#847 = CIRCLE ( 'NONE', #60, 1.999999999999998224 ) ;
#848 = DIRECTION ( 'NONE',  ( 1.000000000000000000, -0.000000000000000000, -0.000000000000000000 ) ) ;
#849 = ORIENTED_EDGE ( 'NONE', *, *, #755, .T. ) ;
#850 = PLANE ( 'NONE',  #86 ) ;
#851 = CARTESIAN_POINT ( 'NONE',  ( -4.000000000000000000, 24.00000000000000000, -24.00000000000000711 ) ) ;
#852 = ORIENTED_EDGE ( 'NONE', *, *, #679, .T. ) ;
#853 = CARTESIAN_POINT ( 'NONE',  ( -1.999999999999555911, 4.000000000039409365, -16.00000000000000711 ) ) ;
#854 = DIRECTION ( 'NONE',  ( 0.000000000000000000, 0.000000000000000000, 1.000000000000000000 ) ) ;
#855 = LINE ( 'NONE', #21, #272 ) ;
#856 = ADVANCED_FACE ( 'NONE', ( #494 ), #721, .F. ) ;
#857 = ORIENTED_EDGE ( 'NONE', *, *, #72, .F. ) ;
#858 = CARTESIAN_POINT ( 'NONE',  ( -2.499999999999999556, 13.99999999999999822, -16.00000000000000355 ) ) ;
#859 = CARTESIAN_POINT ( 'NONE',  ( -4.000000000000000000, 24.00000000000000000, -24.00000000000000711 ) ) ;
#860 = CARTESIAN_POINT ( 'NONE',  ( 4.440892098500626162E-13, 4.000000000039409365, -30.00000000000000711 ) ) ;
#861 = ORIENTED_EDGE ( 'NONE', *, *, #620, .T. ) ;
#862 = DIRECTION ( 'NONE',  ( -1.000000000000000000, 0.000000000000000000, -0.000000000000000000 ) ) ;
#863 = STYLED_ITEM ( 'NONE', ( #312 ), #53 ) ;
#864 = EDGE_CURVE ( 'NONE', #666, #877, #719, .T. ) ;
#865 = DIRECTION ( 'NONE',  ( -0.000000000000000000, -1.000000000000000000, -0.000000000000000000 ) ) ;
#866 = PLANE ( 'NONE',  #640 ) ;
#867 = EDGE_LOOP ( 'NONE', ( #793, #638, #601, #101 ) ) ;
#868 = DIRECTION ( 'NONE',  ( 0.000000000000000000, -1.000000000000000000, -0.000000000000000000 ) ) ;
#869 = DIRECTION ( 'NONE',  ( -0.000000000000000000, 1.000000000000000000, -0.000000000000000000 ) ) ;
#870 = ORIENTED_EDGE ( 'NONE', *, *, #118, .F. ) ;
#871 = CARTESIAN_POINT ( 'NONE',  ( 7.500000000000000888, 70.00000000000000000, 29.99999999999999289 ) ) ;
#872 = CARTESIAN_POINT ( 'NONE',  ( 4.000000000000007105, 30.00000000000000000, 22.00000000000000711 ) ) ;
#873 =( LENGTH_UNIT ( ) NAMED_UNIT ( * ) SI_UNIT ( .MILLI., .METRE. ) );
#874 = ORIENTED_EDGE ( 'NONE', *, *, #590, .F. ) ;
#875 = DIRECTION ( 'NONE',  ( 0.000000000000000000, -0.000000000000000000, 1.000000000000000000 ) ) ;
#876 = AXIS2_PLACEMENT_3D ( 'NONE', #167, #235, #451 ) ;
#877 = VERTEX_POINT ( 'NONE', #369 ) ;
#878 = AXIS2_PLACEMENT_3D ( 'NONE', #305, #588, #827 ) ;
#879 = VECTOR ( 'NONE', #245, 1000.000000000000000 ) ;
#880 = CARTESIAN_POINT ( 'NONE',  ( 4.000000000000007105, 24.00000000000000000, -22.00000000000001066 ) ) ;
#881 = ORIENTED_EDGE ( 'NONE', *, *, #542, .F. ) ;
#882 = EDGE_CURVE ( 'NONE', #357, #26, #154, .T. ) ;
#883 = CARTESIAN_POINT ( 'NONE',  ( 4.000000000000007105, 24.00000000000000000, 24.00000000000000711 ) ) ;
#884 = CARTESIAN_POINT ( 'NONE',  ( -2.499999999999999556, 13.99999999999999822, -18.00000000000000355 ) ) ;
#885 = ORIENTED_EDGE ( 'NONE', *, *, #634, .T. ) ;
#886 = CARTESIAN_POINT ( 'NONE',  ( 4.000000000000007105, 24.00000000000000000, 24.00000000000000711 ) ) ;
#887 = EDGE_CURVE ( 'NONE', #268, #43, #834, .T. ) ;
#888 = DIRECTION ( 'NONE',  ( 0.000000000000000000, 0.000000000000000000, -1.000000000000000000 ) ) ;
#889 = SURFACE_SIDE_STYLE ('',( #36 ) ) ;
#890 = ORIENTED_EDGE ( 'NONE', *, *, #695, .F. ) ;
#891 = LINE ( 'NONE', #592, #549 ) ;
#892 = CIRCLE ( 'NONE', #188, 1.999999999999998224 ) ;
#893 = VECTOR ( 'NONE', #865, 1000.000000000000000 ) ;
#894 = DIRECTION ( 'NONE',  ( 0.000000000000000000, 0.000000000000000000, 1.000000000000000000 ) ) ;
#895 = EDGE_CURVE ( 'NONE', #232, #552, #437, .T. ) ;
#896 = CIRCLE ( 'NONE', #789, 2.000000000000001776 ) ;
#897 = STYLED_ITEM ( 'NONE', ( #73 ), #665 ) ;
#898 = CARTESIAN_POINT ( 'NONE',  ( -4.000000000000000000, 24.00000000000000000, 24.00000000000000711 ) ) ;
#899 = EDGE_LOOP ( 'NONE', ( #756, #558 ) ) ;
#900 = UNCERTAINTY_MEASURE_WITH_UNIT (LENGTH_MEASURE( 1.000000000000000082E-05 ), #873, 'distance_accuracy_value', 'NONE');
#901 = EDGE_CURVE ( 'NONE', #405, #19, #458, .T. ) ;
#902 = FILL_AREA_STYLE_COLOUR ( '', #688 ) ;
#903 = VERTEX_POINT ( 'NONE', #319 ) ;
#904 = VERTEX_POINT ( 'NONE', #396 ) ;
#905 = AXIS2_PLACEMENT_3D ( 'NONE', #612, #105, #825 ) ;
#906 = AXIS2_PLACEMENT_3D ( 'NONE', #206, #135, #416 ) ;
#907 = SURFACE_SIDE_STYLE ('',( #488 ) ) ;
#908 = ADVANCED_FACE ( 'NONE', ( #386 ), #600, .F. ) ;
#909 = EDGE_LOOP ( 'NONE', ( #857, #563, #768, #109 ) ) ;
#910 = CYLINDRICAL_SURFACE ( 'NONE', #260, 1.999999999999998224 ) ;
ENDSEC;
END-ISO-10303-21;
