ISO-10303-21;
HEADER;
FILE_DESCRIPTION (( 'STEP AP214' ),
    '1' );
FILE_NAME ('encoder-stand_assy.STEP',
    '2026-01-08T13:34:34',
    ( '' ),
    ( '' ),
    'SwSTEP 2.0',
    'SolidWorks 2025',
    '' );
FILE_SCHEMA (( 'AUTOMOTIVE_DESIGN' ));
ENDSEC;

DATA;
#1 = PROPERTY_DEFINITION_REPRESENTATION ( #594, #690 ) ;
#2 = PRODUCT_DEFINITION_SHAPE ( 'NONE', 'NONE',  #1252 ) ;
#3 = SHAPE_DEFINITION_REPRESENTATION ( #1161, #985 ) ;
#4 = PRODUCT_RELATED_PRODUCT_CATEGORY ( 'part', '', ( #163 ) ) ;
#5 = PRODUCT_DEFINITION_SHAPE ( 'NONE', 'NONE',  #1229 ) ;
#6 = DOCUMENT_TYPE ( 'geometry' ) ;
#7 = PROPERTY_DEFINITION_REPRESENTATION ( #971, #733 ) ;
#8 = PRODUCT ( 'encoder-stand_assy', 'encoder-stand_assy', '', ( #391 ) ) ;
#9 = PROPERTY_DEFINITION ('external definition','', #799 ) ;
#10 = PRODUCT_DEFINITION ( 'General', '', #735, #133 ) ;
#11 = EXTERNAL_SOURCE (IDENTIFIER('') ) ;
#12 = PRODUCT_CONTEXT ( 'NONE', #103, 'mechanical' ) ;
#13 = DOCUMENT_FILE ( 'MT6835 Magnetic Encoder B.step.STEP' , '', '', #120, '' ,$ ) ;
#14 = EXTERNAL_SOURCE (IDENTIFIER('') ) ;
#15 = AXIS2_PLACEMENT_3D ( 'NONE', #655, #950, #729 ) ;
#16 = PROPERTY_DEFINITION ('document property','', #520 ) ;
#17 = APPLIED_DOCUMENT_REFERENCE ( #1172,'',( #276) ) ;
#18 = IDENTIFICATION_ROLE ( 'external document id and location', $) ;
#19 = DOCUMENT_FILE ( 'encoder-stand_magnetic-encoder-holder-assy.STEP' , '', '', #789, '' ,$ ) ;
#20 = PROPERTY_DEFINITION ('external definition','', #94 ) ;
#21 = DOCUMENT_FILE ( 'socket head cap screw_am_B18.3.1M - 3 x 0.5 x 50 Hex SHCS -- 50SHX.STEP' , '', '', #472, '' ,$ ) ;
#22 = APPLICATION_PROTOCOL_DEFINITION ( 'draft international standard', 'automotive_design', 1998, #611 ) ;
#23 = ITEM_DEFINED_TRANSFORMATION ( 'NONE', 'NONE', #217,  #500 ) ;
#24 = PROPERTY_DEFINITION ('document property','', #446 ) ;
#25 = PRODUCT_CONTEXT ( 'NONE', #32, 'mechanical' ) ;
#26 = PRODUCT_CONTEXT ( 'NONE', #782, 'mechanical' ) ;
#27 = EXTERNAL_SOURCE (IDENTIFIER('') ) ;
#28 = PROPERTY_DEFINITION_REPRESENTATION ( #1117, #690 ) ;
#29 = PROPERTY_DEFINITION ('external definition','', #198 ) ;
#30 = DIRECTION ( 'NONE',  ( 1.000000000000000000, 0.000000000000000000, 0.000000000000000000 ) ) ;
#31 = PROPERTY_DEFINITION_REPRESENTATION ( #121, #616 ) ;
#32 = APPLICATION_CONTEXT ( 'automotive_design' ) ;
#33 =( REPRESENTATION_RELATIONSHIP ('NONE','NONE', #918, #1151 ) REPRESENTATION_RELATIONSHIP_WITH_TRANSFORMATION ( #23 )SHAPE_REPRESENTATION_RELATIONSHIP( ) );
#34 = DIRECTION ( 'NONE',  ( -1.000000000000000000, -9.270066680578385108E-17, 3.835302521603177229E-16 ) ) ;
#35 = AXIS2_PLACEMENT_3D ( 'NONE', #754, #241, #66 ) ;
#36 = PROPERTY_DEFINITION_REPRESENTATION ( #518, #690 ) ;
#37 = PRODUCT_DEFINITION_SHAPE ( 'NONE', 'NONE',  #1240 ) ;
#38 = APPLIED_EXTERNAL_IDENTIFICATION_ASSIGNMENT ( 'encoder-stand_flange-support-assy.STEP' , #161, #107,( #488) ) ;
#39 = DIRECTION ( 'NONE',  ( -0.3818493186865929423, -0.9242245927363029745, 8.253497424764700155E-48 ) ) ;
#40 = PROPERTY_DEFINITION_REPRESENTATION ( #699, #690 ) ;
#41 = PRODUCT_RELATED_PRODUCT_CATEGORY ( 'part', '', ( #1120 ) ) ;
#42 = PRODUCT ( 'MT6835 Magnetic Encoder B.step', 'MT6835 Magnetic Encoder B.step', '', ( #457 ) ) ;
#43 =( NAMED_UNIT ( * ) SI_UNIT ( $, .STERADIAN. ) SOLID_ANGLE_UNIT ( ) );
#44 = CONTEXT_DEPENDENT_SHAPE_REPRESENTATION ( #303, #1173 ) ;
#45 = EXTERNAL_SOURCE (IDENTIFIER('') ) ;
#46 = EXTERNAL_SOURCE (IDENTIFIER('') ) ;
#47 = DIRECTION ( 'NONE',  ( -0.3818493186865928313, -0.9242245927363029745, 4.676305458861337593E-17 ) ) ;
#48 = PRODUCT_CONTEXT ( 'NONE', #1057, 'mechanical' ) ;
#49 = APPLICATION_CONTEXT ( 'automotive_design' ) ;
#50 = APPLIED_DOCUMENT_REFERENCE ( #449,'',( #498) ) ;
#51 = PROPERTY_DEFINITION ('external definition','', #897 ) ;
#52 = CONTEXT_DEPENDENT_SHAPE_REPRESENTATION ( #796, #101 ) ;
#53 = DIRECTION ( 'NONE',  ( -1.000000000000000000, -1.848892746611747787E-32, -7.969271116853711353E-34 ) ) ;
#54 = PRODUCT ( 'socket head cap screw 4762_din_EN ISO 4762 M3 x 20 - 18S', 'socket head cap screw 4762_din_EN ISO 4762 M3 x 20 - 18S', '', ( #48 ) ) ;
#55 = PRODUCT_RELATED_PRODUCT_CATEGORY ( 'part', '', ( #286 ) ) ;
#56 = ITEM_DEFINED_TRANSFORMATION ( 'NONE', 'NONE', #35,  #677 ) ;
#57 =( REPRESENTATION_RELATIONSHIP ('NONE','NONE', #918, #616 ) REPRESENTATION_RELATIONSHIP_WITH_TRANSFORMATION ( #629 )SHAPE_REPRESENTATION_RELATIONSHIP( ) );
#58 = SHAPE_REPRESENTATION ( 'Magnet-round-4x2', ( #583 ), #517 ) ;
#59 = PROPERTY_DEFINITION_REPRESENTATION ( #777, #485 ) ;
#60 = DIRECTION ( 'NONE',  ( 0.3818493186865929423, -0.9242245927363029745, -8.253497424764700155E-48 ) ) ;
#61 = AXIS2_PLACEMENT_3D ( 'NONE', #1126, #1035, #622 ) ;
#62 = PRODUCT_DEFINITION_FORMATION_WITH_SPECIFIED_SOURCE ( 'Symmetric', '', #356, .NOT_KNOWN. ) ;
#63 = CONTEXT_DEPENDENT_SHAPE_REPRESENTATION ( #766, #567 ) ;
#64 = DOCUMENT_TYPE ( 'geometry' ) ;
#65 =( NAMED_UNIT ( * ) PLANE_ANGLE_UNIT ( ) SI_UNIT ( $, .RADIAN. ) );
#66 = DIRECTION ( 'NONE',  ( -1.000000000000000000, -5.734331479693103690E-16, -1.386008923308470075E-16 ) ) ;
#67 =( LENGTH_UNIT ( ) NAMED_UNIT ( * ) SI_UNIT ( .MILLI., .METRE. ) );
#68 = CARTESIAN_POINT ( 'NONE',  ( 885.1366237186139188, 1006.093800830823966, 1002.767843389040991 ) ) ;
#69 = CONTEXT_DEPENDENT_SHAPE_REPRESENTATION ( #91, #555 ) ;
#70 = CONTEXT_DEPENDENT_SHAPE_REPRESENTATION ( #334, #178 ) ;
#71 = OBJECT_ROLE ('mandatory',$ ) ;
#72 =( NAMED_UNIT ( * ) SI_UNIT ( $, .STERADIAN. ) SOLID_ANGLE_UNIT ( ) );
#73 = DOCUMENT_FILE ( 'socket head cap screw_am_B18.3.1M - 3 x 0.5 x 50 Hex SHCS -- 50SHX.STEP' , '', '', #829, '' ,$ ) ;
#74 = EXTERNAL_SOURCE (IDENTIFIER('') ) ;
#75 = DIRECTION ( 'NONE',  ( 0.000000000000000000, 0.000000000000000000, 1.000000000000000000 ) ) ;
#76 =( GEOMETRIC_REPRESENTATION_CONTEXT ( 3 ) GLOBAL_UNCERTAINTY_ASSIGNED_CONTEXT ( ( #371 ) ) GLOBAL_UNIT_ASSIGNED_CONTEXT ( ( #256, #361, #1159 ) ) REPRESENTATION_CONTEXT ( 'NONE', 'WORKASPACE' ) );
#77 = DIRECTION ( 'NONE',  ( -1.000000000000000000, -6.953565449566581611E-16, -1.129884910236594014E-16 ) ) ;
#78 = PROPERTY_DEFINITION_REPRESENTATION ( #20, #834 ) ;
#79 = AXIS2_PLACEMENT_3D ( 'NONE', #916, #47, #331 ) ;
#80 = IDENTIFICATION_ROLE ( 'external document id and location', $) ;
#81 = OBJECT_ROLE ('mandatory',$ ) ;
#82 = PRODUCT_DEFINITION_SHAPE ( 'NONE', 'NONE',  #221 ) ;
#83 = IDENTIFICATION_ROLE ( 'external document id and location', $) ;
#84 = CONTEXT_DEPENDENT_SHAPE_REPRESENTATION ( #1204, #117 ) ;
#85 = DIRECTION ( 'NONE',  ( 0.000000000000000000, 0.000000000000000000, 1.000000000000000000 ) ) ;
#86 = DIRECTION ( 'NONE',  ( 0.000000000000000000, 1.000000000000000000, 0.000000000000000000 ) ) ;
#87 = PROPERTY_DEFINITION_REPRESENTATION ( #948, #1071 ) ;
#88 = UNCERTAINTY_MEASURE_WITH_UNIT (LENGTH_MEASURE( 1.000000000000000082E-05 ), #545, 'distance_accuracy_value', 'NONE');
#89 = EXTERNAL_SOURCE (IDENTIFIER('') ) ;
#90 = APPLICATION_CONTEXT ( 'automotive_design' ) ;
#91 =( REPRESENTATION_RELATIONSHIP ('NONE','NONE', #918, #834 ) REPRESENTATION_RELATIONSHIP_WITH_TRANSFORMATION ( #357 )SHAPE_REPRESENTATION_RELATIONSHIP( ) );
#92 = CARTESIAN_POINT ( 'NONE',  ( 0.000000000000000000, 0.000000000000000000, 0.000000000000000000 ) ) ;
#93 = DIRECTION ( 'NONE',  ( -3.164154577751476349E-16, 0.8870282861401528329, -0.4617150848599856361 ) ) ;
#94 = DOCUMENT_FILE ( 'socket head cap screw_am_B18.3.1M - 3 x 0.5 x 50 Hex SHCS -- 50SHX.STEP' , '', '', #364, '' ,$ ) ;
#95 = PRODUCT_DEFINITION ( 'General', '', #982, #508 ) ;
#96 = PRODUCT_CONTEXT ( 'NONE', #363, 'mechanical' ) ;
#97 = PROPERTY_DEFINITION_REPRESENTATION ( #599, #485 ) ;
#98 =( GEOMETRIC_REPRESENTATION_CONTEXT ( 3 ) GLOBAL_UNCERTAINTY_ASSIGNED_CONTEXT ( ( #360 ) ) GLOBAL_UNIT_ASSIGNED_CONTEXT ( ( #1068, #65, #265 ) ) REPRESENTATION_CONTEXT ( 'NONE', 'WORKASPACE' ) );
#99 = UNCERTAINTY_MEASURE_WITH_UNIT (LENGTH_MEASURE( 1.000000000000000082E-05 ), #192, 'distance_accuracy_value', 'NONE');
#100 = PRODUCT_CONTEXT ( 'NONE', #822, 'mechanical' ) ;
#101 = PRODUCT_DEFINITION_SHAPE ( 'NONE', 'NONE',  #1237 ) ;
#102 = PRODUCT_DEFINITION_FORMATION_WITH_SPECIFIED_SOURCE ( 'Symmetric', '', #428, .NOT_KNOWN. ) ;
#103 = APPLICATION_CONTEXT ( 'automotive_design' ) ;
#104 = APPLIED_EXTERNAL_IDENTIFICATION_ASSIGNMENT ( 'socket head cap screw 4762_din_EN ISO 4762 M3 x 10 - 10S.STEP' , #836, #143,( #327) ) ;
#105 = PRODUCT ( 'encoder-stand_base', 'encoder-stand_base', '', ( #100 ) ) ;
#106 = APPLIED_EXTERNAL_IDENTIFICATION_ASSIGNMENT ( 'socket head cap screw 4762_din_EN ISO 4762 M3 x 10 - 10S.STEP' , #83, #924,( #919) ) ;
#107 = EXTERNAL_SOURCE (IDENTIFIER('') ) ;
#108 = PROPERTY_DEFINITION_REPRESENTATION ( #1003, #834 ) ;
#109 = APPLICATION_PROTOCOL_DEFINITION ( 'draft international standard', 'automotive_design', 1998, #330 ) ;
#110 = IDENTIFICATION_ROLE ( 'external document id and location', $) ;
#111 = PROPERTY_DEFINITION ('document property','', #824 ) ;
#112 = PRODUCT_CONTEXT ( 'NONE', #981, 'mechanical' ) ;
#113 = EXTERNAL_SOURCE (IDENTIFIER('') ) ;
#114 = IDENTIFICATION_ROLE ( 'external document id and location', $) ;
#115 = PROPERTY_DEFINITION_REPRESENTATION ( #618, #171 ) ;
#116 = APPLICATION_CONTEXT ( 'automotive_design' ) ;
#117 = PRODUCT_DEFINITION_SHAPE ( 'NONE', 'NONE',  #1253 ) ;
#118 = PROPERTY_DEFINITION_REPRESENTATION ( #481, #485 ) ;
#119 = AXIS2_PLACEMENT_3D ( 'NONE', #1020, #60, #816 ) ;
#120 = DOCUMENT_TYPE ( 'geometry' ) ;
#121 = PROPERTY_DEFINITION ('external definition','', #1015 ) ;
#122 = APPLIED_EXTERNAL_IDENTIFICATION_ASSIGNMENT ( 'socket head cap screw 4762_din_EN ISO 4762 M3 x 10 - 10S.STEP' , #589, #581,( #520) ) ;
#123 = APPLIED_EXTERNAL_IDENTIFICATION_ASSIGNMENT ( 'MT6835 Magnetic Encoder B.step.STEP' , #1190, #1131,( #13) ) ;
#124 = ITEM_DEFINED_TRANSFORMATION ( 'NONE', 'NONE', #845,  #582 ) ;
#125 = CONTEXT_DEPENDENT_SHAPE_REPRESENTATION ( #207, #191 ) ;
#126 = DOCUMENT_TYPE ( 'geometry' ) ;
#127 = DOCUMENT_FILE ( 'socket head cap screw 4762_din_EN ISO 4762 M3 x 10 - 10S.STEP' , '', '', #860, '' ,$ ) ;
#128 = IDENTIFICATION_ROLE ( 'external document id and location', $) ;
#129 =( LENGTH_UNIT ( ) NAMED_UNIT ( * ) SI_UNIT ( .MILLI., .METRE. ) );
#130 = PRODUCT_DEFINITION ( 'General', '', #826, #182 ) ;
#131 = PRODUCT_DEFINITION_SHAPE ( 'NONE', 'NONE',  #1245 ) ;
#132 = DIRECTION ( 'NONE',  ( 1.000000000000000000, 0.000000000000000000, 0.000000000000000000 ) ) ;
#133 = PRODUCT_DEFINITION_CONTEXT ( 'detailed design', #231, 'design' ) ;
#134 = DOCUMENT_FILE ( 'encoder-stand_magnet-holder_4x2-round.STEP' , '', '', #637, '' ,$ ) ;
#135 = PROPERTY_DEFINITION ('document property','', #799 ) ;
#136 = DIRECTION ( 'NONE',  ( -0.3818493186865929423, -0.9242245927363029745, 8.253497424764700155E-48 ) ) ;
#137 = APPLIED_DOCUMENT_REFERENCE ( #327,'',( #669) ) ;
#138 =( GEOMETRIC_REPRESENTATION_CONTEXT ( 3 ) GLOBAL_UNCERTAINTY_ASSIGNED_CONTEXT ( ( #968 ) ) GLOBAL_UNIT_ASSIGNED_CONTEXT ( ( #851, #828, #926 ) ) REPRESENTATION_CONTEXT ( 'NONE', 'WORKASPACE' ) );
#139 = AXIS2_PLACEMENT_3D ( 'NONE', #922, #1113, #908 ) ;
#140 = PROPERTY_DEFINITION ('document property','', #228 ) ;
#141 = DIRECTION ( 'NONE',  ( 0.000000000000000000, 0.000000000000000000, 1.000000000000000000 ) ) ;
#142 = ITEM_DEFINED_TRANSFORMATION ( 'NONE', 'NONE', #865,  #677 ) ;
#143 = EXTERNAL_SOURCE (IDENTIFIER('') ) ;
#144 = PRODUCT_RELATED_PRODUCT_CATEGORY ( 'part', '', ( #8 ) ) ;
#145 = OBJECT_ROLE ('mandatory',$ ) ;
#146 = CONTEXT_DEPENDENT_SHAPE_REPRESENTATION ( #820, #720 ) ;
#147 = DIRECTION ( 'NONE',  ( 0.3818493186865929423, -0.9242245927363029745, -8.253497424764700155E-48 ) ) ;
#148 = ITEM_DEFINED_TRANSFORMATION ( 'NONE', 'NONE', #435,  #431 ) ;
#149 = DIRECTION ( 'NONE',  ( 1.000000000000000000, 0.000000000000000000, 0.000000000000000000 ) ) ;
#150 = PROPERTY_DEFINITION ('external definition','', #488 ) ;
#151 =( REPRESENTATION_RELATIONSHIP ('NONE','NONE', #918, #690 ) REPRESENTATION_RELATIONSHIP_WITH_TRANSFORMATION ( #821 )SHAPE_REPRESENTATION_RELATIONSHIP( ) );
#152 = DIRECTION ( 'NONE',  ( 0.000000000000000000, 0.1864118593573700911, -0.9824716884933264449 ) ) ;
#153 = PROPERTY_DEFINITION_REPRESENTATION ( #491, #1186 ) ;
#154 = CONTEXT_DEPENDENT_SHAPE_REPRESENTATION ( #333, #625 ) ;
#155 = DIRECTION ( 'NONE',  ( 1.739222753214340817E-32, -0.9242245927363030855, -0.3818493186865927203 ) ) ;
#156 = PRODUCT_DEFINITION_CONTEXT ( 'detailed design', #848, 'design' ) ;
#157 =( REPRESENTATION_RELATIONSHIP ('NONE','NONE', #918, #58 ) REPRESENTATION_RELATIONSHIP_WITH_TRANSFORMATION ( #1096 )SHAPE_REPRESENTATION_RELATIONSHIP( ) );
#158 = DIRECTION ( 'NONE',  ( -3.330669073875469621E-16, -2.419885059049226937E-16, 1.000000000000000000 ) ) ;
#159 = ITEM_DEFINED_TRANSFORMATION ( 'NONE', 'NONE', #377,  #352 ) ;
#160 = CONTEXT_DEPENDENT_SHAPE_REPRESENTATION ( #978, #1024 ) ;
#161 = IDENTIFICATION_ROLE ( 'external document id and location', $) ;
#162 = PROPERTY_DEFINITION_REPRESENTATION ( #213, #441 ) ;
#163 = PRODUCT ( 'slotted pan head screw_din_DIN EN ISO 1580 - M2 x 5 - 5S', 'slotted pan head screw_din_DIN EN ISO 1580 - M2 x 5 - 5S', '', ( #96 ) ) ;
#164 = PRODUCT_DEFINITION_CONTEXT ( 'detailed design', #202, 'design' ) ;
#165 = PRODUCT_DEFINITION_SHAPE ( 'NONE', 'NONE',  #1223 ) ;
#166 = OBJECT_ROLE ('mandatory',$ ) ;
#167 = DIRECTION ( 'NONE',  ( 1.000000000000000000, 0.000000000000000000, 0.000000000000000000 ) ) ;
#168 = APPLICATION_CONTEXT ( 'automotive_design' ) ;
#169 =( GEOMETRIC_REPRESENTATION_CONTEXT ( 3 ) GLOBAL_UNCERTAINTY_ASSIGNED_CONTEXT ( ( #1079 ) ) GLOBAL_UNIT_ASSIGNED_CONTEXT ( ( #660, #739, #650 ) ) REPRESENTATION_CONTEXT ( 'NONE', 'WORKASPACE' ) );
#170 = DIRECTION ( 'NONE',  ( 1.000000000000000000, 0.000000000000000000, 0.000000000000000000 ) ) ;
#171 = SHAPE_REPRESENTATION ( 'LIR-DA237T', ( #431 ), #317 ) ;
#172 = ITEM_DEFINED_TRANSFORMATION ( 'NONE', 'NONE', #999,  #352 ) ;
#173 = AXIS2_PLACEMENT_3D ( 'NONE', #714, #93, #375 ) ;
#174 = APPLIED_EXTERNAL_IDENTIFICATION_ASSIGNMENT ( 'Insert M3 D5 L5mm_(mod).STEP' , #932, #725,( #609) ) ;
#175 = PRODUCT ( 'encoder-stand_bearing-support-assy', 'encoder-stand_bearing-support-assy', '', ( #26 ) ) ;
#176 = DOCUMENT_FILE ( 'socket head cap screw 4762_din_EN ISO 4762 M3 x 10 - 10S.STEP' , '', '', #756, '' ,$ ) ;
#177 = APPLICATION_PROTOCOL_DEFINITION ( 'draft international standard', 'automotive_design', 1998, #445 ) ;
#178 = PRODUCT_DEFINITION_SHAPE ( 'NONE', 'NONE',  #1257 ) ;
#179 = PRODUCT_RELATED_PRODUCT_CATEGORY ( 'part', '', ( #420 ) ) ;
#180 = EXTERNAL_SOURCE (IDENTIFIER('') ) ;
#181 = DOCUMENT_TYPE ( 'geometry' ) ;
#182 = PRODUCT_DEFINITION_CONTEXT ( 'detailed design', #186, 'design' ) ;
#183 = APPLICATION_PROTOCOL_DEFINITION ( 'draft international standard', 'automotive_design', 1998, #933 ) ;
#184 = DOCUMENT_FILE ( 'socket head cap screw 4762_din_EN ISO 4762 M3 x 10 - 10S.STEP' , '', '', #1048, '' ,$ ) ;
#185 = DIRECTION ( 'NONE',  ( -6.938890719029016182E-18, -1.000000000000000000, -9.203657725432492767E-09 ) ) ;
#186 = APPLICATION_CONTEXT ( 'automotive_design' ) ;
#187 = IDENTIFICATION_ROLE ( 'external document id and location', $) ;
#188 = APPLICATION_PROTOCOL_DEFINITION ( 'draft international standard', 'automotive_design', 1998, #1196 ) ;
#189 = PRODUCT_CONTEXT ( 'NONE', #862, 'mechanical' ) ;
#190 = DOCUMENT_TYPE ( 'geometry' ) ;
#191 = PRODUCT_DEFINITION_SHAPE ( 'NONE', 'NONE',  #1251 ) ;
#192 =( LENGTH_UNIT ( ) NAMED_UNIT ( * ) SI_UNIT ( .MILLI., .METRE. ) );
#193 =( GEOMETRIC_REPRESENTATION_CONTEXT ( 3 ) GLOBAL_UNCERTAINTY_ASSIGNED_CONTEXT ( ( #832 ) ) GLOBAL_UNIT_ASSIGNED_CONTEXT ( ( #67, #1072, #336 ) ) REPRESENTATION_CONTEXT ( 'NONE', 'WORKASPACE' ) );
#194 = APPLICATION_PROTOCOL_DEFINITION ( 'draft international standard', 'automotive_design', 1998, #737 ) ;
#195 = PROPERTY_DEFINITION_REPRESENTATION ( #1025, #1151 ) ;
#196 = PROPERTY_DEFINITION ('external definition','', #446 ) ;
#197 = AXIS2_PLACEMENT_3D ( 'NONE', #467, #548, #320 ) ;
#198 = DOCUMENT_FILE ( 'Magnet-round-4x2.STEP' , '', '', #226, '' ,$ ) ;
#199 = APPLIED_EXTERNAL_IDENTIFICATION_ASSIGNMENT ( 'LIR-DA237T.STEP' , #80, #11,( #897) ) ;
#200 = CARTESIAN_POINT ( 'NONE',  ( 0.000000000000000000, 0.000000000000000000, 0.000000000000000000 ) ) ;
#201 = ROLE_ASSOCIATION ( #843, #505 ) ;
#202 = APPLICATION_CONTEXT ( 'automotive_design' ) ;
#203 = APPLICATION_PROTOCOL_DEFINITION ( 'draft international standard', 'automotive_design', 1998, #103 ) ;
#204 = ITEM_DEFINED_TRANSFORMATION ( 'NONE', 'NONE', #954,  #804 ) ;
#205 = IDENTIFICATION_ROLE ( 'external document id and location', $) ;
#206 = EXTERNAL_SOURCE (IDENTIFIER('') ) ;
#207 =( REPRESENTATION_RELATIONSHIP ('NONE','NONE', #918, #359 ) REPRESENTATION_RELATIONSHIP_WITH_TRANSFORMATION ( #794 )SHAPE_REPRESENTATION_RELATIONSHIP( ) );
#208 = ROLE_ASSOCIATION ( #81, #17 ) ;
#209 = PRODUCT_DEFINITION_SHAPE ( 'NONE', 'NONE',  #1233 ) ;
#210 = CARTESIAN_POINT ( 'NONE',  ( 1053.633162675856738, 1016.093800830824193, 1010.769509437137003 ) ) ;
#211 = APPLIED_DOCUMENT_REFERENCE ( #13,'',( #701) ) ;
#212 = ROLE_ASSOCIATION ( #529, #387 ) ;
#213 = PROPERTY_DEFINITION ('external definition','', #263 ) ;
#214 = IDENTIFICATION_ROLE ( 'external document id and location', $) ;
#215 = AXIS2_PLACEMENT_3D ( 'NONE', #640, #136, #322 ) ;
#216 =( NAMED_UNIT ( * ) PLANE_ANGLE_UNIT ( ) SI_UNIT ( $, .RADIAN. ) );
#217 = AXIS2_PLACEMENT_3D ( 'NONE', #974, #448, #272 ) ;
#218 = PROPERTY_DEFINITION ('document property','', #134 ) ;
#219 = APPLIED_EXTERNAL_IDENTIFICATION_ASSIGNMENT ( 'socket head cap screw 4762_din_EN ISO 4762 M3 x 10 - 10S.STEP' , #511, #113,( #958) ) ;
#220 = EXTERNAL_SOURCE (IDENTIFIER('') ) ;
#221 = PRODUCT_DEFINITION ( 'General', '', #1000, #767 ) ;
#222 = PROPERTY_DEFINITION_REPRESENTATION ( #676, #690 ) ;
#223 = APPLIED_DOCUMENT_REFERENCE ( #488,'',( #10) ) ;
#224 = PROPERTY_DEFINITION ('document property','', #449 ) ;
#225 = DIRECTION ( 'NONE',  ( 0.000000000000000000, 0.000000000000000000, 1.000000000000000000 ) ) ;
#226 = DOCUMENT_TYPE ( 'geometry' ) ;
#227 = DIRECTION ( 'NONE',  ( -1.011257790171583174E-17, 0.06336417679293569749, 0.9979904714471745653 ) ) ;
#228 = DOCUMENT_FILE ( 'encoder-stand_motor-mount.STEP' , '', '', #979, '' ,$ ) ;
#229 = PROPERTY_DEFINITION ('external definition','', #874 ) ;
#230 =( REPRESENTATION_RELATIONSHIP ('NONE','NONE', #918, #485 ) REPRESENTATION_RELATIONSHIP_WITH_TRANSFORMATION ( #850 )SHAPE_REPRESENTATION_RELATIONSHIP( ) );
#231 = APPLICATION_CONTEXT ( 'automotive_design' ) ;
#232 = DOCUMENT_TYPE ( 'geometry' ) ;
#233 = ITEM_DEFINED_TRANSFORMATION ( 'NONE', 'NONE', #119,  #352 ) ;
#234 = DIRECTION ( 'NONE',  ( -1.000000000000000000, 0.000000000000000000, 0.000000000000000000 ) ) ;
#235 = APPLICATION_PROTOCOL_DEFINITION ( 'draft international standard', 'automotive_design', 1998, #1057 ) ;
#236 = APPLIED_DOCUMENT_REFERENCE ( #332,'',( #633) ) ;
#237 =( GEOMETRIC_REPRESENTATION_CONTEXT ( 3 ) GLOBAL_UNCERTAINTY_ASSIGNED_CONTEXT ( ( #347 ) ) GLOBAL_UNIT_ASSIGNED_CONTEXT ( ( #1116, #1017, #43 ) ) REPRESENTATION_CONTEXT ( 'NONE', 'WORKASPACE' ) );
#238 = AXIS2_PLACEMENT_3D ( 'NONE', #210, #995, #407 ) ;
#239 = IDENTIFICATION_ROLE ( 'external document id and location', $) ;
#240 = AXIS2_PLACEMENT_3D ( 'NONE', #984, #873, #34 ) ;
#241 = DIRECTION ( 'NONE',  ( -1.386008923308469089E-16, 0.000000000000000000, 1.000000000000000000 ) ) ;
#242 = ROLE_ASSOCIATION ( #961, #325 ) ;
#243 = PRODUCT_DEFINITION_SHAPE ( 'NONE', 'NONE',  #1243 ) ;
#244 = DIRECTION ( 'NONE',  ( -1.000000000000000000, -1.848892746611747787E-32, -7.969271116853711353E-34 ) ) ;
#245 = ITEM_DEFINED_TRANSFORMATION ( 'NONE', 'NONE', #586,  #825 ) ;
#246 = PROPERTY_DEFINITION_REPRESENTATION ( #962, #690 ) ;
#247 = PROPERTY_DEFINITION_REPRESENTATION ( #425, #690 ) ;
#248 = CARTESIAN_POINT ( 'NONE',  ( 1053.633162675856738, 1016.093800830824193, 1042.769509437137003 ) ) ;
#249 = OBJECT_ROLE ('mandatory',$ ) ;
#250 =( LENGTH_UNIT ( ) NAMED_UNIT ( * ) SI_UNIT ( .MILLI., .METRE. ) );
#251 = ITEM_DEFINED_TRANSFORMATION ( 'NONE', 'NONE', #79,  #352 ) ;
#252 = CARTESIAN_POINT ( 'NONE',  ( 885.1366237186141461, 1006.093800830824421, 1061.769509437136776 ) ) ;
#253 = IDENTIFICATION_ROLE ( 'external document id and location', $) ;
#254 = APPLIED_DOCUMENT_REFERENCE ( #712,'',( #498) ) ;
#255 = DIRECTION ( 'NONE',  ( 0.000000000000000000, 0.000000000000000000, 1.000000000000000000 ) ) ;
#256 =( LENGTH_UNIT ( ) NAMED_UNIT ( * ) SI_UNIT ( .MILLI., .METRE. ) );
#257 = CARTESIAN_POINT ( 'NONE',  ( 1062.333162675856784, 1032.093800830824193, 1026.769509437137003 ) ) ;
#258 = PRODUCT_DEFINITION_FORMATION_WITH_SPECIFIED_SOURCE ( 'Symmetric', '', #8, .NOT_KNOWN. ) ;
#259 = PRODUCT_RELATED_PRODUCT_CATEGORY ( 'part', '', ( #462 ) ) ;
#260 = APPLIED_DOCUMENT_REFERENCE ( #73,'',( #1102) ) ;
#261 = OBJECT_ROLE ('mandatory',$ ) ;
#262 = PRODUCT_DEFINITION_CONTEXT ( 'detailed design', #330, 'design' ) ;
#263 = DOCUMENT_FILE ( 'socket head cap screw 4762_din_EN ISO 4762 M3 x 20 - 18S.STEP' , '', '', #181, '' ,$ ) ;
#264 = DIRECTION ( 'NONE',  ( 0.000000000000000000, 0.000000000000000000, 1.000000000000000000 ) ) ;
#265 =( NAMED_UNIT ( * ) SI_UNIT ( $, .STERADIAN. ) SOLID_ANGLE_UNIT ( ) );
#266 = CARTESIAN_POINT ( 'NONE',  ( 973.6366237186143735, 997.0938008308243070, 1026.769509437137003 ) ) ;
#267 = APPLIED_DOCUMENT_REFERENCE ( #967,'',( #444) ) ;
#268 = APPLICATION_CONTEXT ( 'automotive_design' ) ;
#269 = PRODUCT_DEFINITION_SHAPE ( 'NONE', 'NONE',  #718 ) ;
#270 = OBJECT_ROLE ('mandatory',$ ) ;
#271 = CARTESIAN_POINT ( 'NONE',  ( 0.000000000000000000, 0.000000000000000000, 0.000000000000000000 ) ) ;
#272 = DIRECTION ( 'NONE',  ( 4.464352084724204442E-16, 1.000000000000000222, 2.817194313118123739E-15 ) ) ;
#273 = PROPERTY_DEFINITION_REPRESENTATION ( #503, #485 ) ;
#274 = IDENTIFICATION_ROLE ( 'external document id and location', $) ;
#275 = PRODUCT_DEFINITION_CONTEXT ( 'detailed design', #90, 'design' ) ;
#276 = PRODUCT_DEFINITION ( 'General', '', #458, #358 ) ;
#277 = DOCUMENT_FILE ( 'socket head cap screw 4762_din_EN ISO 4762 M3 x 10 - 10S.STEP' , '', '', #399, '' ,$ ) ;
#278 = AXIS2_PLACEMENT_3D ( 'NONE', #1152, #368, #366 ) ;
#279 = DIRECTION ( 'NONE',  ( -1.000000000000000000, -1.848892746611747787E-32, -7.969271116853711353E-34 ) ) ;
#280 = AXIS2_PLACEMENT_3D ( 'NONE', #1217, #726, #1133 ) ;
#281 =( REPRESENTATION_RELATIONSHIP ('NONE','NONE', #918, #791 ) REPRESENTATION_RELATIONSHIP_WITH_TRANSFORMATION ( #124 )SHAPE_REPRESENTATION_RELATIONSHIP( ) );
#282 = AXIS2_PLACEMENT_3D ( 'NONE', #1040, #521, #514 ) ;
#283 = SHAPE_DEFINITION_REPRESENTATION ( #561, #485 ) ;
#284 = APPLIED_EXTERNAL_IDENTIFICATION_ASSIGNMENT ( 'socket head cap screw 4762_din_EN ISO 4762 M3 x 10 - 10S.STEP' , #762, #490,( #446) ) ;
#285 = PRODUCT ( 'socket head cap screw_am_B18.3.1M - 3 x 0.5 x 50 Hex SHCS -- 50SHX', 'socket head cap screw_am_B18.3.1M - 3 x 0.5 x 50 Hex SHCS -- 50SHX', '', ( #1148 ) ) ;
#286 = PRODUCT ( 'slotted pan head screw_din_DIN EN ISO 1580 - M2.5 x 8 - 8S', 'slotted pan head screw_din_DIN EN ISO 1580 - M2.5 x 8 - 8S', '', ( #372 ) ) ;
#287 = PROPERTY_DEFINITION ('external definition','', #524 ) ;
#288 = CARTESIAN_POINT ( 'NONE',  ( 905.9866237186141689, 1032.093800830824193, 1026.767843389040991 ) ) ;
#289 = OBJECT_ROLE ('mandatory',$ ) ;
#290 = PRODUCT ( 'main-shaft_assy', 'main-shaft_assy', '', ( #1144 ) ) ;
#291 = ROLE_ASSOCIATION ( #166, #1184 ) ;
#292 = APPLICATION_CONTEXT ( 'automotive_design' ) ;
#293 = SHAPE_DEFINITION_REPRESENTATION ( #957, #973 ) ;
#294 = PRODUCT_DEFINITION_SHAPE ( 'NONE', 'NONE',  #1250 ) ;
#295 = SHAPE_DEFINITION_REPRESENTATION ( #575, #1060 ) ;
#296 = IDENTIFICATION_ROLE ( 'external document id and location', $) ;
#297 = PROPERTY_DEFINITION_REPRESENTATION ( #1130, #791 ) ;
#298 = SHAPE_DEFINITION_REPRESENTATION ( #82, #171 ) ;
#299 = AXIS2_PLACEMENT_3D ( 'NONE', #554, #763, #651 ) ;
#300 = PRODUCT_DEFINITION_SHAPE ( 'NONE', 'NONE',  #1227 ) ;
#301 = AXIS2_PLACEMENT_3D ( 'NONE', #248, #152, #234 ) ;
#302 = APPLIED_EXTERNAL_IDENTIFICATION_ASSIGNMENT ( 'encoder-stand_base.STEP' , #1115, #813,( #1015) ) ;
#303 =( REPRESENTATION_RELATIONSHIP ('NONE','NONE', #918, #485 ) REPRESENTATION_RELATIONSHIP_WITH_TRANSFORMATION ( #1210 )SHAPE_REPRESENTATION_RELATIONSHIP( ) );
#304 = PROPERTY_DEFINITION_REPRESENTATION ( #410, #1192 ) ;
#305 = CONTEXT_DEPENDENT_SHAPE_REPRESENTATION ( #667, #872 ) ;
#306 = PROPERTY_DEFINITION ('document property','', #609 ) ;
#307 =( NAMED_UNIT ( * ) PLANE_ANGLE_UNIT ( ) SI_UNIT ( $, .RADIAN. ) );
#308 = ITEM_DEFINED_TRANSFORMATION ( 'NONE', 'NONE', #15,  #716 ) ;
#309 = IDENTIFICATION_ROLE ( 'external document id and location', $) ;
#310 = PRODUCT_RELATED_PRODUCT_CATEGORY ( 'part', '', ( #42 ) ) ;
#311 = EXTERNAL_SOURCE (IDENTIFIER('') ) ;
#312 = DIRECTION ( 'NONE',  ( -1.386008923308469089E-16, 0.000000000000000000, 1.000000000000000000 ) ) ;
#313 = ITEM_DEFINED_TRANSFORMATION ( 'NONE', 'NONE', #434,  #1214 ) ;
#314 = ITEM_DEFINED_TRANSFORMATION ( 'NONE', 'NONE', #1086,  #563 ) ;
#315 = AXIS2_PLACEMENT_3D ( 'NONE', #858, #1061, #639 ) ;
#316 = APPLIED_EXTERNAL_IDENTIFICATION_ASSIGNMENT ( 'socket head cap screw 4762_din_EN ISO 4762 M3 x 20 - 18S.STEP' , #998, #615,( #712) ) ;
#317 =( GEOMETRIC_REPRESENTATION_CONTEXT ( 3 ) GLOBAL_UNCERTAINTY_ASSIGNED_CONTEXT ( ( #869 ) ) GLOBAL_UNIT_ASSIGNED_CONTEXT ( ( #642, #456, #752 ) ) REPRESENTATION_CONTEXT ( 'NONE', 'WORKASPACE' ) );
#318 = DOCUMENT_TYPE ( 'geometry' ) ;
#319 = PROPERTY_DEFINITION ('external definition','', #493 ) ;
#320 = DIRECTION ( 'NONE',  ( 7.849794226131211678E-16, 0.8038536516868809434, 0.5948271233473361175 ) ) ;
#321 = ITEM_DEFINED_TRANSFORMATION ( 'NONE', 'NONE', #889,  #352 ) ;
#322 = DIRECTION ( 'NONE',  ( 3.250081887472109906E-48, 8.387686555071449978E-48, 1.000000000000000000 ) ) ;
#323 = CONTEXT_DEPENDENT_SHAPE_REPRESENTATION ( #923, #1109 ) ;
#324 =( NAMED_UNIT ( * ) SI_UNIT ( $, .STERADIAN. ) SOLID_ANGLE_UNIT ( ) );
#325 = APPLIED_DOCUMENT_REFERENCE ( #520,'',( #669) ) ;
#326 = CARTESIAN_POINT ( 'NONE',  ( 921.6366237186143735, 1047.593800830824421, 1011.267843389040763 ) ) ;
#327 = DOCUMENT_FILE ( 'socket head cap screw 4762_din_EN ISO 4762 M3 x 10 - 10S.STEP' , '', '', #504, '' ,$ ) ;
#328 = PROPERTY_DEFINITION ('document property','', #94 ) ;
#329 = PROPERTY_DEFINITION ('external definition','', #958 ) ;
#330 = APPLICATION_CONTEXT ( 'automotive_design' ) ;
#331 = DIRECTION ( 'NONE',  ( 1.224646799147353207E-16, 1.232595164407830946E-32, 1.000000000000000000 ) ) ;
#332 = DOCUMENT_FILE ( '42SHD0034-20B.STEP' , '', '', #1209, '' ,$ ) ;
#333 =( REPRESENTATION_RELATIONSHIP ('NONE','NONE', #918, #690 ) REPRESENTATION_RELATIONSHIP_WITH_TRANSFORMATION ( #540 )SHAPE_REPRESENTATION_RELATIONSHIP( ) );
#334 =( REPRESENTATION_RELATIONSHIP ('NONE','NONE', #918, #441 ) REPRESENTATION_RELATIONSHIP_WITH_TRANSFORMATION ( #551 )SHAPE_REPRESENTATION_RELATIONSHIP( ) );
#335 = APPLIED_EXTERNAL_IDENTIFICATION_ASSIGNMENT ( 'slotted pan head screw_din_DIN EN ISO 1580 - M2 x 5 - 5S.STEP' , #128, #1078,( #967) ) ;
#336 =( NAMED_UNIT ( * ) SI_UNIT ( $, .STERADIAN. ) SOLID_ANGLE_UNIT ( ) );
#337 = DOCUMENT_FILE ( 'Insert M3 D5 L5mm_(mod).STEP' , '', '', #318, '' ,$ ) ;
#338 = PRODUCT_DEFINITION_SHAPE ( 'NONE', 'NONE',  #1248 ) ;
#339 = DIRECTION ( 'NONE',  ( -1.000000000000000000, 0.000000000000000000, 0.000000000000000000 ) ) ;
#340 = ITEM_DEFINED_TRANSFORMATION ( 'NONE', 'NONE', #299,  #352 ) ;
#341 = OBJECT_ROLE ('mandatory',$ ) ;
#342 = ROLE_ASSOCIATION ( #944, #632 ) ;
#343 = DIRECTION ( 'NONE',  ( -1.386008923308469089E-16, 0.000000000000000000, 1.000000000000000000 ) ) ;
#344 = ROLE_ASSOCIATION ( #496, #634 ) ;
#345 = DIRECTION ( 'NONE',  ( 0.000000000000000000, 0.1864118593571964522, -0.9824716884933595296 ) ) ;
#346 =( REPRESENTATION_RELATIONSHIP ('NONE','NONE', #918, #1071 ) REPRESENTATION_RELATIONSHIP_WITH_TRANSFORMATION ( #468 )SHAPE_REPRESENTATION_RELATIONSHIP( ) );
#347 = UNCERTAINTY_MEASURE_WITH_UNIT (LENGTH_MEASURE( 1.000000000000000082E-05 ), #1116, 'distance_accuracy_value', 'NONE');
#348 = CARTESIAN_POINT ( 'NONE',  ( 0.000000000000000000, 0.000000000000000000, 0.000000000000000000 ) ) ;
#349 = PRODUCT_DEFINITION ( 'General', '', #62, #464 ) ;
#350 = PROPERTY_DEFINITION_REPRESENTATION ( #196, #690 ) ;
#351 = ROLE_ASSOCIATION ( #844, #1056 ) ;
#352 = AXIS2_PLACEMENT_3D ( 'NONE', #662, #757, #1163 ) ;
#353 = OBJECT_ROLE ('mandatory',$ ) ;
#354 = DIRECTION ( 'NONE',  ( 0.000000000000000000, 0.000000000000000000, 1.000000000000000000 ) ) ;
#355 =( NAMED_UNIT ( * ) SI_UNIT ( $, .STERADIAN. ) SOLID_ANGLE_UNIT ( ) );
#356 = PRODUCT ( 'encoder-stand_magnet-holder_4x2-round', 'encoder-stand_magnet-holder_4x2-round', '', ( #393 ) ) ;
#357 = ITEM_DEFINED_TRANSFORMATION ( 'NONE', 'NONE', #392,  #645 ) ;
#358 = PRODUCT_DEFINITION_CONTEXT ( 'detailed design', #775, 'design' ) ;
#359 = SHAPE_REPRESENTATION ( 'encoder-stand_bearing-support-assy', ( #695 ), #659 ) ;
#360 = UNCERTAINTY_MEASURE_WITH_UNIT (LENGTH_MEASURE( 1.000000000000000082E-05 ), #1068, 'distance_accuracy_value', 'NONE');
#361 =( NAMED_UNIT ( * ) PLANE_ANGLE_UNIT ( ) SI_UNIT ( $, .RADIAN. ) );
#362 =( REPRESENTATION_RELATIONSHIP ('NONE','NONE', #918, #690 ) REPRESENTATION_RELATIONSHIP_WITH_TRANSFORMATION ( #233 )SHAPE_REPRESENTATION_RELATIONSHIP( ) );
#363 = APPLICATION_CONTEXT ( 'automotive_design' ) ;
#364 = DOCUMENT_TYPE ( 'geometry' ) ;
#365 = PRODUCT_RELATED_PRODUCT_CATEGORY ( 'part', '', ( #1212 ) ) ;
#366 = DIRECTION ( 'NONE',  ( 1.000000000000000000, 0.000000000000000000, 0.000000000000000000 ) ) ;
#367 = PRODUCT_DEFINITION_SHAPE ( 'NONE', 'NONE',  #593 ) ;
#368 = DIRECTION ( 'NONE',  ( 0.000000000000000000, 0.000000000000000000, 1.000000000000000000 ) ) ;
#369 = PROPERTY_DEFINITION_REPRESENTATION ( #328, #834 ) ;
#370 = PROPERTY_DEFINITION ('document property','', #712 ) ;
#371 = UNCERTAINTY_MEASURE_WITH_UNIT (LENGTH_MEASURE( 1.000000000000000082E-05 ), #256, 'distance_accuracy_value', 'NONE');
#372 = PRODUCT_CONTEXT ( 'NONE', #388, 'mechanical' ) ;
#373 = DOCUMENT_TYPE ( 'geometry' ) ;
#374 = DIRECTION ( 'NONE',  ( 1.000000000000000000, 0.000000000000000000, 0.000000000000000000 ) ) ;
#375 = DIRECTION ( 'NONE',  ( 4.800650594797350222E-16, 0.4617150848599856361, 0.8870282861401528329 ) ) ;
#376 = CONTEXT_DEPENDENT_SHAPE_REPRESENTATION ( #346, #1007 ) ;
#377 = AXIS2_PLACEMENT_3D ( 'NONE', #740, #1153, #1164 ) ;
#378 = APPLIED_EXTERNAL_IDENTIFICATION_ASSIGNMENT ( 'socket head cap screw_am_B18.3.1M - 3 x 0.5 x 50 Hex SHCS -- 50SHX.STEP' , #1076, #1195,( #21) ) ;
#379 = DOCUMENT_TYPE ( 'geometry' ) ;
#380 = UNCERTAINTY_MEASURE_WITH_UNIT (LENGTH_MEASURE( 1.000000000000000082E-05 ), #892, 'distance_accuracy_value', 'NONE');
#381 = APPLICATION_PROTOCOL_DEFINITION ( 'draft international standard', 'automotive_design', 1998, #292 ) ;
#382 = PROPERTY_DEFINITION ('document property','', #127 ) ;
#383 =( NAMED_UNIT ( * ) PLANE_ANGLE_UNIT ( ) SI_UNIT ( $, .RADIAN. ) );
#384 = APPLICATION_PROTOCOL_DEFINITION ( 'draft international standard', 'automotive_design', 1998, #116 ) ;
#385 = CONTEXT_DEPENDENT_SHAPE_REPRESENTATION ( #595, #1093 ) ;
#386 = PRODUCT_DEFINITION_SHAPE ( 'NONE', 'NONE',  #1226 ) ;
#387 = APPLIED_DOCUMENT_REFERENCE ( #198,'',( #95) ) ;
#388 = APPLICATION_CONTEXT ( 'automotive_design' ) ;
#389 =( GEOMETRIC_REPRESENTATION_CONTEXT ( 3 ) GLOBAL_UNCERTAINTY_ASSIGNED_CONTEXT ( ( #579 ) ) GLOBAL_UNIT_ASSIGNED_CONTEXT ( ( #943, #569, #459 ) ) REPRESENTATION_CONTEXT ( 'NONE', 'WORKASPACE' ) );
#390 = CONTEXT_DEPENDENT_SHAPE_REPRESENTATION ( #281, #921 ) ;
#391 = PRODUCT_CONTEXT ( 'NONE', #541, 'mechanical' ) ;
#392 = AXIS2_PLACEMENT_3D ( 'NONE', #423, #543, #723 ) ;
#393 = PRODUCT_CONTEXT ( 'NONE', #737, 'mechanical' ) ;
#394 = CONTEXT_DEPENDENT_SHAPE_REPRESENTATION ( #571, #338 ) ;
#395 = AXIS2_PLACEMENT_3D ( 'NONE', #853, #354, #86 ) ;
#396 = OBJECT_ROLE ('mandatory',$ ) ;
#397 = PROPERTY_DEFINITION ('document property','', #1090 ) ;
#398 = APPLIED_EXTERNAL_IDENTIFICATION_ASSIGNMENT ( 'socket head cap screw_am_B18.3.1M - 3 x 0.5 x 50 Hex SHCS -- 50SHX.STEP' , #214, #516,( #874) ) ;
#399 = DOCUMENT_TYPE ( 'geometry' ) ;
#400 = APPLICATION_PROTOCOL_DEFINITION ( 'draft international standard', 'automotive_design', 1998, #965 ) ;
#401 = CONTEXT_DEPENDENT_SHAPE_REPRESENTATION ( #534, #300 ) ;
#402 = PROPERTY_DEFINITION ('document property','', #13 ) ;
#403 = PRODUCT_DEFINITION ( 'General', '', #1168, #415 ) ;
#404 = DOCUMENT_TYPE ( 'geometry' ) ;
#405 = PROPERTY_DEFINITION_REPRESENTATION ( #397, #791 ) ;
#406 = PRODUCT_DEFINITION_SHAPE ( 'NONE', 'NONE',  #1228 ) ;
#407 = DIRECTION ( 'NONE',  ( -1.000000000000000000, 0.000000000000000000, 0.000000000000000000 ) ) ;
#408 = PROPERTY_DEFINITION_REPRESENTATION ( #1081, #1060 ) ;
#409 = APPLICATION_PROTOCOL_DEFINITION ( 'draft international standard', 'automotive_design', 1998, #848 ) ;
#410 = PROPERTY_DEFINITION ('external definition','', #13 ) ;
#411 = PROPERTY_DEFINITION_REPRESENTATION ( #1193, #616 ) ;
#412 =( GEOMETRIC_REPRESENTATION_CONTEXT ( 3 ) GLOBAL_UNCERTAINTY_ASSIGNED_CONTEXT ( ( #665 ) ) GLOBAL_UNIT_ASSIGNED_CONTEXT ( ( #1156, #734, #433 ) ) REPRESENTATION_CONTEXT ( 'NONE', 'WORKASPACE' ) );
#413 = AXIS2_PLACEMENT_3D ( 'NONE', #823, #39, #1206 ) ;
#414 = SHAPE_DEFINITION_REPRESENTATION ( #552, #359 ) ;
#415 = PRODUCT_DEFINITION_CONTEXT ( 'detailed design', #1023, 'design' ) ;
#416 = PROPERTY_DEFINITION ('external definition','', #1172 ) ;
#417 = APPLIED_EXTERNAL_IDENTIFICATION_ASSIGNMENT ( '42SHD0034-20B.STEP' , #903, #206,( #332) ) ;
#418 = APPLIED_DOCUMENT_REFERENCE ( #134,'',( #349) ) ;
#419 = DIRECTION ( 'NONE',  ( 0.000000000000000000, 0.000000000000000000, 1.000000000000000000 ) ) ;
#420 = PRODUCT ( 'encoder-stand_motor-mount', 'encoder-stand_motor-mount', '', ( #12 ) ) ;
#421 = OBJECT_ROLE ('mandatory',$ ) ;
#422 = APPLIED_DOCUMENT_REFERENCE ( #337,'',( #403) ) ;
#423 = CARTESIAN_POINT ( 'NONE',  ( 1053.633162675856738, 1048.093800830824193, 1042.769509437137003 ) ) ;
#424 = APPLIED_DOCUMENT_REFERENCE ( #824,'',( #484) ) ;
#425 = PROPERTY_DEFINITION ('document property','', #958 ) ;
#426 =( REPRESENTATION_RELATIONSHIP ('NONE','NONE', #918, #834 ) REPRESENTATION_RELATIONSHIP_WITH_TRANSFORMATION ( #601 )SHAPE_REPRESENTATION_RELATIONSHIP( ) );
#427 = APPLIED_DOCUMENT_REFERENCE ( #524,'',( #498) ) ;
#428 = PRODUCT ( 'socket head cap screw 4762_din_EN ISO 4762 M3 x 10 - 10S', 'socket head cap screw 4762_din_EN ISO 4762 M3 x 10 - 10S', '', ( #189 ) ) ;
#429 = ROLE_ASSOCIATION ( #666, #785 ) ;
#430 = DIRECTION ( 'NONE',  ( -3.250081887472109906E-48, 8.387686555071449978E-48, -1.000000000000000000 ) ) ;
#431 = AXIS2_PLACEMENT_3D ( 'NONE', #956, #75, #1033 ) ;
#432 = PROPERTY_DEFINITION_REPRESENTATION ( #668, #690 ) ;
#433 =( NAMED_UNIT ( * ) SI_UNIT ( $, .STERADIAN. ) SOLID_ANGLE_UNIT ( ) );
#434 = AXIS2_PLACEMENT_3D ( 'NONE', #68, #803, #955 ) ;
#435 = AXIS2_PLACEMENT_3D ( 'NONE', #1160, #1053, #576 ) ;
#436 = OBJECT_ROLE ('mandatory',$ ) ;
#437 = DOCUMENT_FILE ( 'Insert M3 D5 L5mm_(mod).STEP' , '', '', #975, '' ,$ ) ;
#438 = CONTEXT_DEPENDENT_SHAPE_REPRESENTATION ( #151, #606 ) ;
#439 = APPLIED_EXTERNAL_IDENTIFICATION_ASSIGNMENT ( 'socket head cap screw 4762_din_EN ISO 4762 M3 x 20 - 18S.STEP' , #972, #74,( #449) ) ;
#440 = DIRECTION ( 'NONE',  ( 1.000000000000000000, 1.595945597898662527E-16, 0.000000000000000000 ) ) ;
#441 = SHAPE_REPRESENTATION ( 'socket head cap screw 4762_din_EN ISO 4762 M3 x 20 - 18S', ( #677 ), #783 ) ;
#442 = PROPERTY_DEFINITION_REPRESENTATION ( #769, #58 ) ;
#443 = IDENTIFICATION_ROLE ( 'external document id and location', $) ;
#444 = PRODUCT_DEFINITION ( 'General', '', #644, #275 ) ;
#445 = APPLICATION_CONTEXT ( 'automotive_design' ) ;
#446 = DOCUMENT_FILE ( 'socket head cap screw 4762_din_EN ISO 4762 M3 x 10 - 10S.STEP' , '', '', #831, '' ,$ ) ;
#447 = IDENTIFICATION_ROLE ( 'external document id and location', $) ;
#448 = DIRECTION ( 'NONE',  ( -7.163608270636201112E-16, 2.817194313118123739E-15, -1.000000000000000222 ) ) ;
#449 = DOCUMENT_FILE ( 'socket head cap screw 4762_din_EN ISO 4762 M3 x 20 - 18S.STEP' , '', '', #1158, '' ,$ ) ;
#450 = APPLICATION_PROTOCOL_DEFINITION ( 'draft international standard', 'automotive_design', 1998, #711 ) ;
#451 = CARTESIAN_POINT ( 'NONE',  ( 0.000000000000000000, 0.000000000000000000, 0.000000000000000000 ) ) ;
#452 = APPLICATION_PROTOCOL_DEFINITION ( 'draft international standard', 'automotive_design', 1998, #564 ) ;
#453 = PROPERTY_DEFINITION ('document property','', #73 ) ;
#454 = EXTERNAL_SOURCE (IDENTIFIER('') ) ;
#455 = CONTEXT_DEPENDENT_SHAPE_REPRESENTATION ( #856, #755 ) ;
#456 =( NAMED_UNIT ( * ) PLANE_ANGLE_UNIT ( ) SI_UNIT ( $, .RADIAN. ) );
#457 = PRODUCT_CONTEXT ( 'NONE', #711, 'mechanical' ) ;
#458 = PRODUCT_DEFINITION_FORMATION_WITH_SPECIFIED_SOURCE ( 'Symmetric', '', #286, .NOT_KNOWN. ) ;
#459 =( NAMED_UNIT ( * ) SI_UNIT ( $, .STERADIAN. ) SOLID_ANGLE_UNIT ( ) );
#460 = CARTESIAN_POINT ( 'NONE',  ( 921.6366237186143735, 1016.593800830824193, 1042.267843389040991 ) ) ;
#461 = APPLIED_EXTERNAL_IDENTIFICATION_ASSIGNMENT ( 'slotted pan head screw_din_DIN EN ISO 1580 - M2.5 x 8 - 8S.STEP' , #253, #989,( #1090) ) ;
#462 = PRODUCT ( 'encoder-stand_magnetic-encoder-holder-assy', 'encoder-stand_magnetic-encoder-holder-assy', '', ( #770 ) ) ;
#463 = APPLIED_DOCUMENT_REFERENCE ( #437,'',( #403) ) ;
#464 = PRODUCT_DEFINITION_CONTEXT ( 'detailed design', #876, 'design' ) ;
#465 = EXTERNAL_SOURCE (IDENTIFIER('') ) ;
#466 =( REPRESENTATION_RELATIONSHIP ('NONE','NONE', #918, #441 ) REPRESENTATION_RELATIONSHIP_WITH_TRANSFORMATION ( #532 )SHAPE_REPRESENTATION_RELATIONSHIP( ) );
#467 = CARTESIAN_POINT ( 'NONE',  ( 1056.583162675856556, 1032.093800830784176, 1026.767843389084419 ) ) ;
#468 = ITEM_DEFINED_TRANSFORMATION ( 'NONE', 'NONE', #953,  #315 ) ;
#469 = APPLICATION_PROTOCOL_DEFINITION ( 'draft international standard', 'automotive_design', 1998, #772 ) ;
#470 = EXTERNAL_SOURCE (IDENTIFIER('') ) ;
#471 = PRODUCT_CONTEXT ( 'NONE', #564, 'mechanical' ) ;
#472 = DOCUMENT_TYPE ( 'geometry' ) ;
#473 =( REPRESENTATION_RELATIONSHIP ('NONE','NONE', #918, #834 ) REPRESENTATION_RELATIONSHIP_WITH_TRANSFORMATION ( #764 )SHAPE_REPRESENTATION_RELATIONSHIP( ) );
#474 = DOCUMENT_TYPE ( 'geometry' ) ;
#475 = CARTESIAN_POINT ( 'NONE',  ( 913.6366237186142598, 1032.093800830824193, 1026.767843389040991 ) ) ;
#476 = PRODUCT_DEFINITION_CONTEXT ( 'detailed design', #168, 'design' ) ;
#477 = SHAPE_DEFINITION_REPRESENTATION ( #736, #690 ) ;
#478 = ROLE_ASSOCIATION ( #790, #970 ) ;
#479 = EXTERNAL_SOURCE (IDENTIFIER('') ) ;
#480 = CONTEXT_DEPENDENT_SHAPE_REPRESENTATION ( #539, #386 ) ;
#481 = PROPERTY_DEFINITION ('external definition','', #499 ) ;
#482 = APPLICATION_PROTOCOL_DEFINITION ( 'draft international standard', 'automotive_design', 1998, #822 ) ;
#483 = PRODUCT_DEFINITION_SHAPE ( 'NONE', 'NONE',  #498 ) ;
#484 = PRODUCT_DEFINITION ( 'General', '', #698, #905 ) ;
#485 = SHAPE_REPRESENTATION ( 'Insert M3 D5 L5mm_(mod)', ( #1214 ), #76 ) ;
#486 = PRODUCT_DEFINITION_SHAPE ( 'NONE', 'NONE',  #1258 ) ;
#487 = APPLICATION_PROTOCOL_DEFINITION ( 'draft international standard', 'automotive_design', 1998, #862 ) ;
#488 = DOCUMENT_FILE ( 'encoder-stand_flange-support-assy.STEP' , '', '', #1022, '' ,$ ) ;
#489 = OBJECT_ROLE ('mandatory',$ ) ;
#490 = EXTERNAL_SOURCE (IDENTIFIER('') ) ;
#491 = PROPERTY_DEFINITION ('external definition','', #824 ) ;
#492 = PRODUCT_DEFINITION_SHAPE ( 'NONE', 'NONE',  #1102 ) ;
#493 = DOCUMENT_FILE ( 'slotted pan head screw_din_DIN EN ISO 1580 - M2 x 5 - 5S.STEP' , '', '', #1055, '' ,$ ) ;
#494 = DOCUMENT_TYPE ( 'geometry' ) ;
#495 = APPLIED_DOCUMENT_REFERENCE ( #19,'',( #130) ) ;
#496 = OBJECT_ROLE ('mandatory',$ ) ;
#497 = CONTEXT_DEPENDENT_SHAPE_REPRESENTATION ( #157, #2 ) ;
#498 = PRODUCT_DEFINITION ( 'General', '', #1044, #1155 ) ;
#499 = DOCUMENT_FILE ( 'Insert M3 D5 L5mm_(mod).STEP' , '', '', #474, '' ,$ ) ;
#500 = AXIS2_PLACEMENT_3D ( 'NONE', #1194, #225, #149 ) ;
#501 = AXIS2_PLACEMENT_3D ( 'NONE', #1132, #343, #747 ) ;
#502 = PROPERTY_DEFINITION ('external definition','', #228 ) ;
#503 = PROPERTY_DEFINITION ('external definition','', #437 ) ;
#504 = DOCUMENT_TYPE ( 'geometry' ) ;
#505 = APPLIED_DOCUMENT_REFERENCE ( #1090,'',( #276) ) ;
#506 =( NAMED_UNIT ( * ) PLANE_ANGLE_UNIT ( ) SI_UNIT ( $, .RADIAN. ) );
#507 = APPLIED_DOCUMENT_REFERENCE ( #799,'',( #1001) ) ;
#508 = PRODUCT_DEFINITION_CONTEXT ( 'detailed design', #965, 'design' ) ;
#509 = PRODUCT_DEFINITION_SHAPE ( 'NONE', 'NONE',  #1231 ) ;
#510 = APPLICATION_PROTOCOL_DEFINITION ( 'draft international standard', 'automotive_design', 1998, #541 ) ;
#511 = IDENTIFICATION_ROLE ( 'external document id and location', $) ;
#512 = PROPERTY_DEFINITION ('document property','', #19 ) ;
#513 = ROLE_ASSOCIATION ( #558, #526 ) ;
#514 = DIRECTION ( 'NONE',  ( -2.480553026848586466E-16, -0.9666403209886823555, 0.2561376384659179717 ) ) ;
#515 = ROLE_ASSOCIATION ( #436, #137 ) ;
#516 = EXTERNAL_SOURCE (IDENTIFIER('') ) ;
#517 =( GEOMETRIC_REPRESENTATION_CONTEXT ( 3 ) GLOBAL_UNCERTAINTY_ASSIGNED_CONTEXT ( ( #566 ) ) GLOBAL_UNIT_ASSIGNED_CONTEXT ( ( #964, #506, #610 ) ) REPRESENTATION_CONTEXT ( 'NONE', 'WORKASPACE' ) );
#518 = PROPERTY_DEFINITION ('external definition','', #520 ) ;
#519 = APPLIED_EXTERNAL_IDENTIFICATION_ASSIGNMENT ( 'socket head cap screw 4762_din_EN ISO 4762 M3 x 10 - 10S.STEP' , #18, #45,( #914) ) ;
#520 = DOCUMENT_FILE ( 'socket head cap screw 4762_din_EN ISO 4762 M3 x 10 - 10S.STEP' , '', '', #649, '' ,$ ) ;
#521 = DIRECTION ( 'NONE',  ( 8.068121198426648501E-16, 0.2561376384659179717, 0.9666403209886823555 ) ) ;
#522 = PRODUCT_DEFINITION_SHAPE ( 'NONE', 'NONE',  #701 ) ;
#523 = PROPERTY_DEFINITION_REPRESENTATION ( #1208, #690 ) ;
#524 = DOCUMENT_FILE ( 'socket head cap screw 4762_din_EN ISO 4762 M3 x 20 - 18S.STEP' , '', '', #598, '' ,$ ) ;
#525 =( REPRESENTATION_RELATIONSHIP ('NONE','NONE', #918, #171 ) REPRESENTATION_RELATIONSHIP_WITH_TRANSFORMATION ( #148 )SHAPE_REPRESENTATION_RELATIONSHIP( ) );
#526 = APPLIED_DOCUMENT_REFERENCE ( #958,'',( #669) ) ;
#527 = DIRECTION ( 'NONE',  ( -2.775557561562891351E-16, -0.07044323750330519496, 0.9975157894941075742 ) ) ;
#528 = ROLE_ASSOCIATION ( #969, #929 ) ;
#529 = OBJECT_ROLE ('mandatory',$ ) ;
#530 = PRODUCT_DEFINITION_SHAPE ( 'NONE', 'NONE',  #1234 ) ;
#531 = APPLICATION_PROTOCOL_DEFINITION ( 'draft international standard', 'automotive_design', 1998, #32 ) ;
#532 = ITEM_DEFINED_TRANSFORMATION ( 'NONE', 'NONE', #240,  #677 ) ;
#533 = PROPERTY_DEFINITION_REPRESENTATION ( #689, #485 ) ;
#534 =( REPRESENTATION_RELATIONSHIP ('NONE','NONE', #918, #690 ) REPRESENTATION_RELATIONSHIP_WITH_TRANSFORMATION ( #774 )SHAPE_REPRESENTATION_RELATIONSHIP( ) );
#535 = DIRECTION ( 'NONE',  ( 1.000000000000000000, 0.000000000000000000, 0.000000000000000000 ) ) ;
#536 = PROPERTY_DEFINITION_REPRESENTATION ( #140, #973 ) ;
#537 = PRODUCT_RELATED_PRODUCT_CATEGORY ( 'part', '', ( #54 ) ) ;
#538 = AXIS2_PLACEMENT_3D ( 'NONE', #572, #565, #963 ) ;
#539 =( REPRESENTATION_RELATIONSHIP ('NONE','NONE', #918, #791 ) REPRESENTATION_RELATIONSHIP_WITH_TRANSFORMATION ( #691 )SHAPE_REPRESENTATION_RELATIONSHIP( ) );
#540 = ITEM_DEFINED_TRANSFORMATION ( 'NONE', 'NONE', #413,  #352 ) ;
#541 = APPLICATION_CONTEXT ( 'automotive_design' ) ;
#542 = PRODUCT_DEFINITION_FORMATION_WITH_SPECIFIED_SOURCE ( 'Symmetric', '', #285, .NOT_KNOWN. ) ;
#543 = DIRECTION ( 'NONE',  ( -0.000000000000000000, -0.9248285768973490972, -0.3803841523434225991 ) ) ;
#544 = PROPERTY_DEFINITION_REPRESENTATION ( #370, #441 ) ;
#545 =( LENGTH_UNIT ( ) NAMED_UNIT ( * ) SI_UNIT ( .MILLI., .METRE. ) );
#546 = DOCUMENT_TYPE ( 'geometry' ) ;
#547 = DIRECTION ( 'NONE',  ( 1.000000000000000000, 0.000000000000000000, 0.000000000000000000 ) ) ;
#548 = DIRECTION ( 'NONE',  ( -3.102974959439122466E-16, 0.5948271233473361175, -0.8038536516868809434 ) ) ;
#549 = APPLIED_DOCUMENT_REFERENCE ( #1162,'',( #669) ) ;
#550 = UNCERTAINTY_MEASURE_WITH_UNIT (LENGTH_MEASURE( 1.000000000000000082E-05 ), #129, 'distance_accuracy_value', 'NONE');
#551 = ITEM_DEFINED_TRANSFORMATION ( 'NONE', 'NONE', #501,  #677 ) ;
#552 = PRODUCT_DEFINITION_SHAPE ( 'NONE', 'NONE',  #1001 ) ;
#553 = IDENTIFICATION_ROLE ( 'external document id and location', $) ;
#554 = CARTESIAN_POINT ( 'NONE',  ( 885.1366237186136914, 1006.093800830823739, 991.7695094371368896 ) ) ;
#555 = PRODUCT_DEFINITION_SHAPE ( 'NONE', 'NONE',  #1221 ) ;
#556 = CONTEXT_DEPENDENT_SHAPE_REPRESENTATION ( #230, #165 ) ;
#557 = AXIS2_PLACEMENT_3D ( 'NONE', #937, #255, #1059 ) ;
#558 = OBJECT_ROLE ('mandatory',$ ) ;
#559 = PRODUCT_DEFINITION_FORMATION_WITH_SPECIFIED_SOURCE ( 'Symmetric', '', #175, .NOT_KNOWN. ) ;
#560 = DIRECTION ( 'NONE',  ( 1.224646799147353207E-16, 1.734723475976808080E-16, 1.000000000000000000 ) ) ;
#561 = PRODUCT_DEFINITION_SHAPE ( 'NONE', 'NONE',  #403 ) ;
#562 = SHAPE_DEFINITION_REPRESENTATION ( #492, #834 ) ;
#563 = AXIS2_PLACEMENT_3D ( 'NONE', #738, #724, #1135 ) ;
#564 = APPLICATION_CONTEXT ( 'automotive_design' ) ;
#565 = DIRECTION ( 'NONE',  ( 0.000000000000000000, 0.000000000000000000, 1.000000000000000000 ) ) ;
#566 = UNCERTAINTY_MEASURE_WITH_UNIT (LENGTH_MEASURE( 1.000000000000000082E-05 ), #964, 'distance_accuracy_value', 'NONE');
#567 = PRODUCT_DEFINITION_SHAPE ( 'NONE', 'NONE',  #1254 ) ;
#568 = IDENTIFICATION_ROLE ( 'external document id and location', $) ;
#569 =( NAMED_UNIT ( * ) PLANE_ANGLE_UNIT ( ) SI_UNIT ( $, .RADIAN. ) );
#570 = ROLE_ASSOCIATION ( #289, #260 ) ;
#571 =( REPRESENTATION_RELATIONSHIP ('NONE','NONE', #918, #733 ) REPRESENTATION_RELATIONSHIP_WITH_TRANSFORMATION ( #308 )SHAPE_REPRESENTATION_RELATIONSHIP( ) );
#572 = CARTESIAN_POINT ( 'NONE',  ( 0.000000000000000000, 0.000000000000000000, 0.000000000000000000 ) ) ;
#573 = APPLICATION_PROTOCOL_DEFINITION ( 'draft international standard', 'automotive_design', 1998, #168 ) ;
#574 = APPLIED_DOCUMENT_REFERENCE ( #184,'',( #669) ) ;
#575 = PRODUCT_DEFINITION_SHAPE ( 'NONE', 'NONE',  #130 ) ;
#576 = DIRECTION ( 'NONE',  ( 2.206130147077108816E-15, 0.7083386677660794550, 0.7058727447262544974 ) ) ;
#577 = PROPERTY_DEFINITION ('document property','', #524 ) ;
#578 = PRODUCT_RELATED_PRODUCT_CATEGORY ( 'part', '', ( #105 ) ) ;
#579 = UNCERTAINTY_MEASURE_WITH_UNIT (LENGTH_MEASURE( 1.000000000000000082E-05 ), #943, 'distance_accuracy_value', 'NONE');
#580 = APPLICATION_PROTOCOL_DEFINITION ( 'draft international standard', 'automotive_design', 1998, #363 ) ;
#581 = EXTERNAL_SOURCE (IDENTIFIER('') ) ;
#582 = AXIS2_PLACEMENT_3D ( 'NONE', #1039, #1103, #1087 ) ;
#583 = AXIS2_PLACEMENT_3D ( 'NONE', #348, #798, #30 ) ;
#584 = APPLIED_DOCUMENT_REFERENCE ( #21,'',( #1102) ) ;
#585 = PROPERTY_DEFINITION ('external definition','', #914 ) ;
#586 = AXIS2_PLACEMENT_3D ( 'NONE', #288, #185, #859 ) ;
#587 = APPLICATION_PROTOCOL_DEFINITION ( 'draft international standard', 'automotive_design', 1998, #981 ) ;
#588 = APPLIED_EXTERNAL_IDENTIFICATION_ASSIGNMENT ( 'encoder-stand_magnet-holder_4x2-round.STEP' , #1216, #89,( #134) ) ;
#589 = IDENTIFICATION_ROLE ( 'external document id and location', $) ;
#590 = PROPERTY_DEFINITION ('document property','', #263 ) ;
#591 = PROPERTY_DEFINITION_REPRESENTATION ( #1100, #834 ) ;
#592 = APPLICATION_PROTOCOL_DEFINITION ( 'draft international standard', 'automotive_design', 1998, #775 ) ;
#593 = PRODUCT_DEFINITION ( 'General', '', #258, #731 ) ;
#594 = PROPERTY_DEFINITION ('document property','', #867 ) ;
#595 =( REPRESENTATION_RELATIONSHIP ('NONE','NONE', #918, #1060 ) REPRESENTATION_RELATIONSHIP_WITH_TRANSFORMATION ( #314 )SHAPE_REPRESENTATION_RELATIONSHIP( ) );
#596 = PROPERTY_DEFINITION_REPRESENTATION ( #786, #791 ) ;
#597 = APPLICATION_PROTOCOL_DEFINITION ( 'draft international standard', 'automotive_design', 1998, #631 ) ;
#598 = DOCUMENT_TYPE ( 'geometry' ) ;
#599 = PROPERTY_DEFINITION ('document property','', #499 ) ;
#600 =( GEOMETRIC_REPRESENTATION_CONTEXT ( 3 ) GLOBAL_UNCERTAINTY_ASSIGNED_CONTEXT ( ( #614 ) ) GLOBAL_UNIT_ASSIGNED_CONTEXT ( ( #899, #216, #1199 ) ) REPRESENTATION_CONTEXT ( 'NONE', 'WORKASPACE' ) );
#601 = ITEM_DEFINED_TRANSFORMATION ( 'NONE', 'NONE', #301,  #645 ) ;
#602 =( LENGTH_UNIT ( ) NAMED_UNIT ( * ) SI_UNIT ( .MILLI., .METRE. ) );
#603 = EXTERNAL_SOURCE (IDENTIFIER('') ) ;
#604 = APPLICATION_CONTEXT ( 'automotive_design' ) ;
#605 = PRODUCT_DEFINITION_FORMATION_WITH_SPECIFIED_SOURCE ( 'Symmetric', '', #1147, .NOT_KNOWN. ) ;
#606 = PRODUCT_DEFINITION_SHAPE ( 'NONE', 'NONE',  #1235 ) ;
#607 = APPLIED_EXTERNAL_IDENTIFICATION_ASSIGNMENT ( 'encoder-stand_motor-mount.STEP' , #553, #465,( #228) ) ;
#608 = DIRECTION ( 'NONE',  ( 0.000000000000000000, 0.000000000000000000, 1.000000000000000000 ) ) ;
#609 = DOCUMENT_FILE ( 'Insert M3 D5 L5mm_(mod).STEP' , '', '', #626, '' ,$ ) ;
#610 =( NAMED_UNIT ( * ) SI_UNIT ( $, .STERADIAN. ) SOLID_ANGLE_UNIT ( ) );
#611 = APPLICATION_CONTEXT ( 'automotive_design' ) ;
#612 = PROPERTY_DEFINITION_REPRESENTATION ( #512, #1060 ) ;
#613 = PROPERTY_DEFINITION ('external definition','', #176 ) ;
#614 = UNCERTAINTY_MEASURE_WITH_UNIT (LENGTH_MEASURE( 1.000000000000000082E-05 ), #899, 'distance_accuracy_value', 'NONE');
#615 = EXTERNAL_SOURCE (IDENTIFIER('') ) ;
#616 = SHAPE_REPRESENTATION ( 'encoder-stand_base', ( #1166 ), #600 ) ;
#617 = CONTEXT_DEPENDENT_SHAPE_REPRESENTATION ( #1180, #992 ) ;
#618 = PROPERTY_DEFINITION ('document property','', #897 ) ;
#619 = DIRECTION ( 'NONE',  ( -3.250081887472111729E-48, -8.387686555071448762E-48, -1.000000000000000000 ) ) ;
#620 = PRODUCT_DEFINITION_SHAPE ( 'NONE', 'NONE',  #95 ) ;
#621 = IDENTIFICATION_ROLE ( 'external document id and location', $) ;
#622 = DIRECTION ( 'NONE',  ( 0.9878025414007340910, -0.1557117182560482926, 2.913238915212307004E-16 ) ) ;
#623 = ROLE_ASSOCIATION ( #270, #236 ) ;
#624 =( GEOMETRIC_REPRESENTATION_CONTEXT ( 3 ) GLOBAL_UNCERTAINTY_ASSIGNED_CONTEXT ( ( #88 ) ) GLOBAL_UNIT_ASSIGNED_CONTEXT ( ( #545, #942, #72 ) ) REPRESENTATION_CONTEXT ( 'NONE', 'WORKASPACE' ) );
#625 = PRODUCT_DEFINITION_SHAPE ( 'NONE', 'NONE',  #1239 ) ;
#626 = DOCUMENT_TYPE ( 'geometry' ) ;
#627 = DIRECTION ( 'NONE',  ( 0.7067482290783835275, -0.7074651515760824738, 4.376656641728485619E-48 ) ) ;
#628 = PRODUCT ( 'Insert M3 D5 L5mm_(mod)', 'Insert M3 D5 L5mm_(mod)', '', ( #112 ) ) ;
#629 = ITEM_DEFINED_TRANSFORMATION ( 'NONE', 'NONE', #910,  #1166 ) ;
#630 = EXTERNAL_SOURCE (IDENTIFIER('') ) ;
#631 = APPLICATION_CONTEXT ( 'automotive_design' ) ;
#632 = APPLIED_DOCUMENT_REFERENCE ( #263,'',( #498) ) ;
#633 = PRODUCT_DEFINITION ( 'General', '', #605, #476 ) ;
#634 = APPLIED_DOCUMENT_REFERENCE ( #914,'',( #669) ) ;
#635 = DIRECTION ( 'NONE',  ( -3.250081887472109906E-48, 8.387686555071449978E-48, -1.000000000000000000 ) ) ;
#636 = CONTEXT_DEPENDENT_SHAPE_REPRESENTATION ( #852, #680 ) ;
#637 = DOCUMENT_TYPE ( 'geometry' ) ;
#638 = ROLE_ASSOCIATION ( #421, #835 ) ;
#639 = DIRECTION ( 'NONE',  ( 1.000000000000000000, 0.000000000000000000, 0.000000000000000000 ) ) ;
#640 = CARTESIAN_POINT ( 'NONE',  ( 916.1366237186136914, 1006.093800830823739, 991.7695094371368896 ) ) ;
#641 = ROLE_ASSOCIATION ( #145, #254 ) ;
#642 =( LENGTH_UNIT ( ) NAMED_UNIT ( * ) SI_UNIT ( .MILLI., .METRE. ) );
#643 =( REPRESENTATION_RELATIONSHIP ('NONE','NONE', #918, #1071 ) REPRESENTATION_RELATIONSHIP_WITH_TRANSFORMATION ( #797 )SHAPE_REPRESENTATION_RELATIONSHIP( ) );
#644 = PRODUCT_DEFINITION_FORMATION_WITH_SPECIFIED_SOURCE ( 'Symmetric', '', #163, .NOT_KNOWN. ) ;
#645 = AXIS2_PLACEMENT_3D ( 'NONE', #271, #654, #547 ) ;
#646 = APPLIED_EXTERNAL_IDENTIFICATION_ASSIGNMENT ( 'socket head cap screw 4762_din_EN ISO 4762 M3 x 10 - 10S.STEP' , #274, #311,( #277) ) ;
#647 = DIRECTION ( 'NONE',  ( -1.129884910236594753E-16, 1.734723475976808820E-16, 1.000000000000000000 ) ) ;
#648 = DIRECTION ( 'NONE',  ( 1.000000000000000000, 0.000000000000000000, 0.000000000000000000 ) ) ;
#649 = DOCUMENT_TYPE ( 'geometry' ) ;
#650 =( NAMED_UNIT ( * ) SI_UNIT ( $, .STERADIAN. ) SOLID_ANGLE_UNIT ( ) );
#651 = DIRECTION ( 'NONE',  ( 3.250081887472109906E-48, 8.387686555071449978E-48, 1.000000000000000000 ) ) ;
#652 = UNCERTAINTY_MEASURE_WITH_UNIT (LENGTH_MEASURE( 1.000000000000000082E-05 ), #602, 'distance_accuracy_value', 'NONE');
#653 = CARTESIAN_POINT ( 'NONE',  ( 0.000000000000000000, 0.000000000000000000, 0.000000000000000000 ) ) ;
#654 = DIRECTION ( 'NONE',  ( 0.000000000000000000, 0.000000000000000000, 1.000000000000000000 ) ) ;
#655 = CARTESIAN_POINT ( 'NONE',  ( -42.28769033546727485, -51.15664991779489412, 0.2893596081940812415 ) ) ;
#656 = PROPERTY_DEFINITION_REPRESENTATION ( #1198, #485 ) ;
#657 =( REPRESENTATION_RELATIONSHIP ('NONE','NONE', #918, #690 ) REPRESENTATION_RELATIONSHIP_WITH_TRANSFORMATION ( #251 )SHAPE_REPRESENTATION_RELATIONSHIP( ) );
#658 = DIRECTION ( 'NONE',  ( 1.000000000000000000, 0.000000000000000000, 0.000000000000000000 ) ) ;
#659 =( GEOMETRIC_REPRESENTATION_CONTEXT ( 3 ) GLOBAL_UNCERTAINTY_ASSIGNED_CONTEXT ( ( #652 ) ) GLOBAL_UNIT_ASSIGNED_CONTEXT ( ( #602, #307, #1098 ) ) REPRESENTATION_CONTEXT ( 'NONE', 'WORKASPACE' ) );
#660 =( LENGTH_UNIT ( ) NAMED_UNIT ( * ) SI_UNIT ( .MILLI., .METRE. ) );
#661 = CARTESIAN_POINT ( 'NONE',  ( 1067.633162675856738, 1007.093800830824534, 1051.769509437137003 ) ) ;
#662 = CARTESIAN_POINT ( 'NONE',  ( 0.000000000000000000, 0.000000000000000000, 0.000000000000000000 ) ) ;
#663 = PRODUCT ( 'encoder-stand_flange-support-assy', 'encoder-stand_flange-support-assy', '', ( #25 ) ) ;
#664 = ROLE_ASSOCIATION ( #71, #549 ) ;
#665 = UNCERTAINTY_MEASURE_WITH_UNIT (LENGTH_MEASURE( 1.000000000000000082E-05 ), #1156, 'distance_accuracy_value', 'NONE');
#666 = OBJECT_ROLE ('mandatory',$ ) ;
#667 =( REPRESENTATION_RELATIONSHIP ('NONE','NONE', #918, #485 ) REPRESENTATION_RELATIONSHIP_WITH_TRANSFORMATION ( #313 )SHAPE_REPRESENTATION_RELATIONSHIP( ) );
#668 = PROPERTY_DEFINITION ('external definition','', #919 ) ;
#669 = PRODUCT_DEFINITION ( 'General', '', #102, #952 ) ;
#670 = PRODUCT_CONTEXT ( 'NONE', #268, 'mechanical' ) ;
#671 =( LENGTH_UNIT ( ) NAMED_UNIT ( * ) SI_UNIT ( .MILLI., .METRE. ) );
#672 = APPLIED_DOCUMENT_REFERENCE ( #176,'',( #669) ) ;
#673 = PROPERTY_DEFINITION ('external definition','', #449 ) ;
#674 = PRODUCT_CONTEXT ( 'NONE', #915, 'mechanical' ) ;
#675 = PROPERTY_DEFINITION_REPRESENTATION ( #879, #690 ) ;
#676 = PROPERTY_DEFINITION ('document property','', #176 ) ;
#677 = AXIS2_PLACEMENT_3D ( 'NONE', #1105, #875, #694 ) ;
#678 = OBJECT_ROLE ('mandatory',$ ) ;
#679 = PROPERTY_DEFINITION_REPRESENTATION ( #416, #791 ) ;
#680 = PRODUCT_DEFINITION_SHAPE ( 'NONE', 'NONE',  #1241 ) ;
#681 = PRODUCT_DEFINITION_FORMATION_WITH_SPECIFIED_SOURCE ( 'Symmetric', '', #290, .NOT_KNOWN. ) ;
#682 = PROPERTY_DEFINITION ('document property','', #277 ) ;
#683 = PROPERTY_DEFINITION_REPRESENTATION ( #9, #359 ) ;
#684 = CONTEXT_DEPENDENT_SHAPE_REPRESENTATION ( #643, #509 ) ;
#685 = PRODUCT_RELATED_PRODUCT_CATEGORY ( 'part', '', ( #285 ) ) ;
#686 = OBJECT_ROLE ('mandatory',$ ) ;
#687 = PROPERTY_DEFINITION_REPRESENTATION ( #402, #1192 ) ;
#688 =( LENGTH_UNIT ( ) NAMED_UNIT ( * ) SI_UNIT ( .MILLI., .METRE. ) );
#689 = PROPERTY_DEFINITION ('external definition','', #609 ) ;
#690 = SHAPE_REPRESENTATION ( 'socket head cap screw 4762_din_EN ISO 4762 M3 x 10 - 10S', ( #352 ), #169 ) ;
#691 = ITEM_DEFINED_TRANSFORMATION ( 'NONE', 'NONE', #760,  #582 ) ;
#692 = OBJECT_ROLE ('mandatory',$ ) ;
#693 = IDENTIFICATION_ROLE ( 'external document id and location', $) ;
#694 = DIRECTION ( 'NONE',  ( 1.000000000000000000, 0.000000000000000000, 0.000000000000000000 ) ) ;
#695 = AXIS2_PLACEMENT_3D ( 'NONE', #1046, #896, #1185 ) ;
#696 = SHAPE_DEFINITION_REPRESENTATION ( #367, #918 ) ;
#697 = PROPERTY_DEFINITION_REPRESENTATION ( #1065, #1151 ) ;
#698 = PRODUCT_DEFINITION_FORMATION_WITH_SPECIFIED_SOURCE ( 'Symmetric', '', #1120, .NOT_KNOWN. ) ;
#699 = PROPERTY_DEFINITION ('document property','', #327 ) ;
#700 = OBJECT_ROLE ('mandatory',$ ) ;
#701 = PRODUCT_DEFINITION ( 'General', '', #1183, #1112 ) ;
#702 = PROPERTY_DEFINITION_REPRESENTATION ( #382, #690 ) ;
#703 = CARTESIAN_POINT ( 'NONE',  ( 1053.633162675856738, 1048.093800830824193, 1010.769509437137003 ) ) ;
#704 = ITEM_DEFINED_TRANSFORMATION ( 'NONE', 'NONE', #173,  #557 ) ;
#705 = ROLE_ASSOCIATION ( #692, #418 ) ;
#706 = PROPERTY_DEFINITION ('document property','', #914 ) ;
#707 = EXTERNAL_SOURCE (IDENTIFIER('') ) ;
#708 = CARTESIAN_POINT ( 'NONE',  ( 921.6366237186143735, 1047.593800830824421, 1042.267843389040991 ) ) ;
#709 = CONTEXT_DEPENDENT_SHAPE_REPRESENTATION ( #57, #243 ) ;
#710 = APPLICATION_CONTEXT ( 'automotive_design' ) ;
#711 = APPLICATION_CONTEXT ( 'automotive_design' ) ;
#712 = DOCUMENT_FILE ( 'socket head cap screw 4762_din_EN ISO 4762 M3 x 20 - 18S.STEP' , '', '', #6, '' ,$ ) ;
#713 = OBJECT_ROLE ('mandatory',$ ) ;
#714 = CARTESIAN_POINT ( 'NONE',  ( 938.6270147346206159, 1032.093800830824193, 1026.767843389040991 ) ) ;
#715 = APPLIED_DOCUMENT_REFERENCE ( #228,'',( #941) ) ;
#716 = AXIS2_PLACEMENT_3D ( 'NONE', #1077, #745, #167 ) ;
#717 = AXIS2_PLACEMENT_3D ( 'NONE', #928, #1211, #635 ) ;
#718 = PRODUCT_DEFINITION ( 'General', '', #681, #750 ) ;
#719 =( REPRESENTATION_RELATIONSHIP ('NONE','NONE', #918, #985 ) REPRESENTATION_RELATIONSHIP_WITH_TRANSFORMATION ( #245 )SHAPE_REPRESENTATION_RELATIONSHIP( ) );
#720 = PRODUCT_DEFINITION_SHAPE ( 'NONE', 'NONE',  #1236 ) ;
#721 = APPLIED_EXTERNAL_IDENTIFICATION_ASSIGNMENT ( 'main-shaft_assy.STEP' , #1092, #997,( #878) ) ;
#722 = ROLE_ASSOCIATION ( #700, #422 ) ;
#723 = DIRECTION ( 'NONE',  ( -1.000000000000000000, 0.000000000000000000, 0.000000000000000000 ) ) ;
#724 = DIRECTION ( 'NONE',  ( 0.000000000000000000, 0.000000000000000000, 1.000000000000000000 ) ) ;
#725 = EXTERNAL_SOURCE (IDENTIFIER('') ) ;
#726 = DIRECTION ( 'NONE',  ( -3.330669073875461733E-16, -2.419885059049286102E-16, 0.9999999999999998890 ) ) ;
#727 = CONTEXT_DEPENDENT_SHAPE_REPRESENTATION ( #466, #871 ) ;
#728 = PROPERTY_DEFINITION_REPRESENTATION ( #24, #690 ) ;
#729 = DIRECTION ( 'NONE',  ( 0.9995717546953314381, -4.310733556882414591E-16, -0.02926272740699953009 ) ) ;
#730 = ITEM_DEFINED_TRANSFORMATION ( 'NONE', 'NONE', #1124,  #352 ) ;
#731 = PRODUCT_DEFINITION_CONTEXT ( 'detailed design', #611, 'design' ) ;
#732 = PROPERTY_DEFINITION_REPRESENTATION ( #885, #690 ) ;
#733 = SHAPE_REPRESENTATION ( 'encoder-stand_flange-support-assy', ( #716 ), #412 ) ;
#734 =( NAMED_UNIT ( * ) PLANE_ANGLE_UNIT ( ) SI_UNIT ( $, .RADIAN. ) );
#735 = PRODUCT_DEFINITION_FORMATION_WITH_SPECIFIED_SOURCE ( 'Symmetric', '', #663, .NOT_KNOWN. ) ;
#736 = PRODUCT_DEFINITION_SHAPE ( 'NONE', 'NONE',  #669 ) ;
#737 = APPLICATION_CONTEXT ( 'automotive_design' ) ;
#738 = CARTESIAN_POINT ( 'NONE',  ( 0.000000000000000000, 0.000000000000000000, 0.000000000000000000 ) ) ;
#739 =( NAMED_UNIT ( * ) PLANE_ANGLE_UNIT ( ) SI_UNIT ( $, .RADIAN. ) );
#740 = CARTESIAN_POINT ( 'NONE',  ( 921.6366237186143735, 1016.593800830824193, 1011.267843389040991 ) ) ;
#741 =( REPRESENTATION_RELATIONSHIP ('NONE','NONE', #918, #690 ) REPRESENTATION_RELATIONSHIP_WITH_TRANSFORMATION ( #172 )SHAPE_REPRESENTATION_RELATIONSHIP( ) );
#742 =( REPRESENTATION_RELATIONSHIP ('NONE','NONE', #918, #973 ) REPRESENTATION_RELATIONSHIP_WITH_TRANSFORMATION ( #1021 )SHAPE_REPRESENTATION_RELATIONSHIP( ) );
#743 = PROPERTY_DEFINITION ('document property','', #967 ) ;
#744 = PROPERTY_DEFINITION ('document property','', #1162 ) ;
#745 = DIRECTION ( 'NONE',  ( 0.000000000000000000, 0.000000000000000000, 1.000000000000000000 ) ) ;
#746 =( NAMED_UNIT ( * ) PLANE_ANGLE_UNIT ( ) SI_UNIT ( $, .RADIAN. ) );
#747 = DIRECTION ( 'NONE',  ( -1.000000000000000000, -5.734331479693103690E-16, -1.386008923308470075E-16 ) ) ;
#748 = DIRECTION ( 'NONE',  ( 1.435616257291063993E-17, 1.000000000000000000, 2.419885059049226937E-16 ) ) ;
#749 = PROPERTY_DEFINITION_REPRESENTATION ( #1188, #690 ) ;
#750 = PRODUCT_DEFINITION_CONTEXT ( 'detailed design', #710, 'design' ) ;
#751 = DOCUMENT_TYPE ( 'geometry' ) ;
#752 =( NAMED_UNIT ( * ) SI_UNIT ( $, .STERADIAN. ) SOLID_ANGLE_UNIT ( ) );
#753 =( NAMED_UNIT ( * ) SI_UNIT ( $, .STERADIAN. ) SOLID_ANGLE_UNIT ( ) );
#754 = CARTESIAN_POINT ( 'NONE',  ( 1067.633162675856738, 1007.093800830824534, 1001.769509437137231 ) ) ;
#755 = PRODUCT_DEFINITION_SHAPE ( 'NONE', 'NONE',  #1255 ) ;
#756 = DOCUMENT_TYPE ( 'geometry' ) ;
#757 = DIRECTION ( 'NONE',  ( 0.000000000000000000, 0.000000000000000000, 1.000000000000000000 ) ) ;
#758 = ROLE_ASSOCIATION ( #489, #463 ) ;
#759 = SHAPE_DEFINITION_REPRESENTATION ( #1069, #791 ) ;
#760 = AXIS2_PLACEMENT_3D ( 'NONE', #1203, #227, #440 ) ;
#761 = PRODUCT_DEFINITION_FORMATION_WITH_SPECIFIED_SOURCE ( 'Symmetric', '', #105, .NOT_KNOWN. ) ;
#762 = IDENTIFICATION_ROLE ( 'external document id and location', $) ;
#763 = DIRECTION ( 'NONE',  ( -0.3818493186865929423, -0.9242245927363029745, 8.253497424764700155E-48 ) ) ;
#764 = ITEM_DEFINED_TRANSFORMATION ( 'NONE', 'NONE', #238,  #645 ) ;
#765 = PRODUCT ( 'Magnet-round-4x2', 'Magnet-round-4x2', '', ( #471 ) ) ;
#766 =( REPRESENTATION_RELATIONSHIP ('NONE','NONE', #918, #690 ) REPRESENTATION_RELATIONSHIP_WITH_TRANSFORMATION ( #1207 )SHAPE_REPRESENTATION_RELATIONSHIP( ) );
#767 = PRODUCT_DEFINITION_CONTEXT ( 'detailed design', #116, 'design' ) ;
#768 = PRODUCT_CONTEXT ( 'NONE', #49, 'mechanical' ) ;
#769 = PROPERTY_DEFINITION ('document property','', #198 ) ;
#770 = PRODUCT_CONTEXT ( 'NONE', #1114, 'mechanical' ) ;
#771 = APPLICATION_PROTOCOL_DEFINITION ( 'draft international standard', 'automotive_design', 1998, #782 ) ;
#772 = APPLICATION_CONTEXT ( 'automotive_design' ) ;
#773 = IDENTIFICATION_ROLE ( 'external document id and location', $) ;
#774 = ITEM_DEFINED_TRANSFORMATION ( 'NONE', 'NONE', #215,  #352 ) ;
#775 = APPLICATION_CONTEXT ( 'automotive_design' ) ;
#776 = APPLICATION_PROTOCOL_DEFINITION ( 'draft international standard', 'automotive_design', 1998, #90 ) ;
#777 = PROPERTY_DEFINITION ('external definition','', #337 ) ;
#778 = PROPERTY_DEFINITION ('external definition','', #712 ) ;
#779 = SHAPE_DEFINITION_REPRESENTATION ( #269, #1151 ) ;
#780 = IDENTIFICATION_ROLE ( 'external document id and location', $) ;
#781 = CONTEXT_DEPENDENT_SHAPE_REPRESENTATION ( #525, #806 ) ;
#782 = APPLICATION_CONTEXT ( 'automotive_design' ) ;
#783 =( GEOMETRIC_REPRESENTATION_CONTEXT ( 3 ) GLOBAL_UNCERTAINTY_ASSIGNED_CONTEXT ( ( #550 ) ) GLOBAL_UNIT_ASSIGNED_CONTEXT ( ( #129, #383, #1177 ) ) REPRESENTATION_CONTEXT ( 'NONE', 'WORKASPACE' ) );
#784 = AXIS2_PLACEMENT_3D ( 'NONE', #475, #748, #158 ) ;
#785 = APPLIED_DOCUMENT_REFERENCE ( #493,'',( #444) ) ;
#786 = PROPERTY_DEFINITION ('external definition','', #1090 ) ;
#787 = APPLIED_EXTERNAL_IDENTIFICATION_ASSIGNMENT ( 'socket head cap screw 4762_din_EN ISO 4762 M3 x 10 - 10S.STEP' , #947, #838,( #176) ) ;
#788 = ROLE_ASSOCIATION ( #261, #211 ) ;
#789 = DOCUMENT_TYPE ( 'geometry' ) ;
#790 = OBJECT_ROLE ('mandatory',$ ) ;
#791 = SHAPE_REPRESENTATION ( 'slotted pan head screw_din_DIN EN ISO 1580 - M2.5 x 8 - 8S', ( #582 ), #951 ) ;
#792 = APPLIED_DOCUMENT_REFERENCE ( #874,'',( #1102) ) ;
#793 =( NAMED_UNIT ( * ) PLANE_ANGLE_UNIT ( ) SI_UNIT ( $, .RADIAN. ) );
#794 = ITEM_DEFINED_TRANSFORMATION ( 'NONE', 'NONE', #395,  #695 ) ;
#795 = PROPERTY_DEFINITION ('external definition','', #134 ) ;
#796 =( REPRESENTATION_RELATIONSHIP ('NONE','NONE', #918, #690 ) REPRESENTATION_RELATIONSHIP_WITH_TRANSFORMATION ( #1200 )SHAPE_REPRESENTATION_RELATIONSHIP( ) );
#797 = ITEM_DEFINED_TRANSFORMATION ( 'NONE', 'NONE', #1145,  #315 ) ;
#798 = DIRECTION ( 'NONE',  ( 0.000000000000000000, 0.000000000000000000, 1.000000000000000000 ) ) ;
#799 = DOCUMENT_FILE ( 'encoder-stand_bearing-support-assy.STEP' , '', '', #833, '' ,$ ) ;
#800 = PRODUCT_RELATED_PRODUCT_CATEGORY ( 'part', '', ( #290 ) ) ;
#801 = PRODUCT_DEFINITION_SHAPE ( 'NONE', 'NONE',  #1224 ) ;
#802 = PROPERTY_DEFINITION_REPRESENTATION ( #706, #690 ) ;
#803 = DIRECTION ( 'NONE',  ( 3.330669073875454830E-16, 2.998126217708191396E-16, -1.000000000000000000 ) ) ;
#804 = AXIS2_PLACEMENT_3D ( 'NONE', #1037, #264, #648 ) ;
#805 = AXIS2_PLACEMENT_3D ( 'NONE', #1030, #147, #430 ) ;
#806 = PRODUCT_DEFINITION_SHAPE ( 'NONE', 'NONE',  #1246 ) ;
#807 = APPLIED_EXTERNAL_IDENTIFICATION_ASSIGNMENT ( 'slotted pan head screw_din_DIN EN ISO 1580 - M2 x 5 - 5S.STEP' , #239, #603,( #493) ) ;
#808 = PROPERTY_DEFINITION_REPRESENTATION ( #795, #883 ) ;
#809 = ROLE_ASSOCIATION ( #686, #927 ) ;
#810 = CARTESIAN_POINT ( 'NONE',  ( 1060.233162675856875, 1026.093800830824193, 1026.769509437137003 ) ) ;
#811 = CONTEXT_DEPENDENT_SHAPE_REPRESENTATION ( #719, #131 ) ;
#812 = APPLICATION_PROTOCOL_DEFINITION ( 'draft international standard', 'automotive_design', 1998, #231 ) ;
#813 = EXTERNAL_SOURCE (IDENTIFIER('') ) ;
#814 = PROPERTY_DEFINITION_REPRESENTATION ( #329, #690 ) ;
#815 = PROPERTY_DEFINITION ('document property','', #493 ) ;
#816 = DIRECTION ( 'NONE',  ( -3.250081887472109906E-48, 8.387686555071449978E-48, -1.000000000000000000 ) ) ;
#817 = ROLE_ASSOCIATION ( #678, #715 ) ;
#818 = PRODUCT_DEFINITION_SHAPE ( 'NONE', 'NONE',  #349 ) ;
#819 = ROLE_ASSOCIATION ( #1134, #427 ) ;
#820 =( REPRESENTATION_RELATIONSHIP ('NONE','NONE', #918, #690 ) REPRESENTATION_RELATIONSHIP_WITH_TRANSFORMATION ( #321 )SHAPE_REPRESENTATION_RELATIONSHIP( ) );
#821 = ITEM_DEFINED_TRANSFORMATION ( 'NONE', 'NONE', #717,  #352 ) ;
#822 = APPLICATION_CONTEXT ( 'automotive_design' ) ;
#823 = CARTESIAN_POINT ( 'NONE',  ( 999.6831626758558969, 1006.093800830823739, 991.7695094371368896 ) ) ;
#824 = DOCUMENT_FILE ( '5mm to 8mm rigid shaft coupler v2.STEP' , '', '', #898, '' ,$ ) ;
#825 = AXIS2_PLACEMENT_3D ( 'NONE', #92, #1011, #132 ) ;
#826 = PRODUCT_DEFINITION_FORMATION_WITH_SPECIFIED_SOURCE ( 'Symmetric', '', #462, .NOT_KNOWN. ) ;
#827 = PROPERTY_DEFINITION_REPRESENTATION ( #287, #441 ) ;
#828 =( NAMED_UNIT ( * ) PLANE_ANGLE_UNIT ( ) SI_UNIT ( $, .RADIAN. ) );
#829 = DOCUMENT_TYPE ( 'geometry' ) ;
#830 = CARTESIAN_POINT ( 'NONE',  ( 982.4331626758549874, 1047.119819930999256, 1011.741824288870021 ) ) ;
#831 = DOCUMENT_TYPE ( 'geometry' ) ;
#832 = UNCERTAINTY_MEASURE_WITH_UNIT (LENGTH_MEASURE( 1.000000000000000082E-05 ), #67, 'distance_accuracy_value', 'NONE');
#833 = DOCUMENT_TYPE ( 'geometry' ) ;
#834 = SHAPE_REPRESENTATION ( 'socket head cap screw_am_B18.3.1M - 3 x 0.5 x 50 Hex SHCS -- 50SHX', ( #645 ), #389 ) ;
#835 = APPLIED_DOCUMENT_REFERENCE ( #446,'',( #669) ) ;
#836 = IDENTIFICATION_ROLE ( 'external document id and location', $) ;
#837 = SHAPE_DEFINITION_REPRESENTATION ( #1089, #733 ) ;
#838 = EXTERNAL_SOURCE (IDENTIFIER('') ) ;
#839 = PROPERTY_DEFINITION_REPRESENTATION ( #673, #441 ) ;
#840 =( NAMED_UNIT ( * ) PLANE_ANGLE_UNIT ( ) SI_UNIT ( $, .RADIAN. ) );
#841 =( GEOMETRIC_REPRESENTATION_CONTEXT ( 3 ) GLOBAL_UNCERTAINTY_ASSIGNED_CONTEXT ( ( #99 ) ) GLOBAL_UNIT_ASSIGNED_CONTEXT ( ( #192, #1123, #324 ) ) REPRESENTATION_CONTEXT ( 'NONE', 'WORKASPACE' ) );
#842 = UNCERTAINTY_MEASURE_WITH_UNIT (LENGTH_MEASURE( 1.000000000000000082E-05 ), #688, 'distance_accuracy_value', 'NONE');
#843 = OBJECT_ROLE ('mandatory',$ ) ;
#844 = OBJECT_ROLE ('mandatory',$ ) ;
#845 = AXIS2_PLACEMENT_3D ( 'NONE', #830, #527, #1139 ) ;
#846 = PRODUCT_DEFINITION_FORMATION_WITH_SPECIFIED_SOURCE ( 'Symmetric', '', #420, .NOT_KNOWN. ) ;
#847 = APPLIED_EXTERNAL_IDENTIFICATION_ASSIGNMENT ( 'Insert M3 D5 L5mm_(mod).STEP' , #443, #630,( #437) ) ;
#848 = APPLICATION_CONTEXT ( 'automotive_design' ) ;
#849 = DIRECTION ( 'NONE',  ( 1.739222753214340817E-32, -0.9242245927363030855, -0.3818493186865927203 ) ) ;
#850 = ITEM_DEFINED_TRANSFORMATION ( 'NONE', 'NONE', #280,  #1214 ) ;
#851 =( LENGTH_UNIT ( ) NAMED_UNIT ( * ) SI_UNIT ( .MILLI., .METRE. ) );
#852 =( REPRESENTATION_RELATIONSHIP ('NONE','NONE', #918, #1186 ) REPRESENTATION_RELATIONSHIP_WITH_TRANSFORMATION ( #704 )SHAPE_REPRESENTATION_RELATIONSHIP( ) );
#853 = CARTESIAN_POINT ( 'NONE',  ( 2069.778209995390625, 87.68873769755236935, -8.683653980769756586 ) ) ;
#854 = ROLE_ASSOCIATION ( #1127, #267 ) ;
#855 = PRODUCT_RELATED_PRODUCT_CATEGORY ( 'part', '', ( #765 ) ) ;
#856 =( REPRESENTATION_RELATIONSHIP ('NONE','NONE', #918, #441 ) REPRESENTATION_RELATIONSHIP_WITH_TRANSFORMATION ( #142 )SHAPE_REPRESENTATION_RELATIONSHIP( ) );
#857 = UNCERTAINTY_MEASURE_WITH_UNIT (LENGTH_MEASURE( 1.000000000000000082E-05 ), #671, 'distance_accuracy_value', 'NONE');
#858 = CARTESIAN_POINT ( 'NONE',  ( 0.000000000000000000, 0.000000000000000000, 0.000000000000000000 ) ) ;
#859 = DIRECTION ( 'NONE',  ( -2.220446049250313574E-16, 9.203657725432492767E-09, -1.000000000000000000 ) ) ;
#860 = DOCUMENT_TYPE ( 'geometry' ) ;
#861 = CONTEXT_DEPENDENT_SHAPE_REPRESENTATION ( #741, #801 ) ;
#862 = APPLICATION_CONTEXT ( 'automotive_design' ) ;
#863 = ROLE_ASSOCIATION ( #249, #574 ) ;
#864 = APPLIED_EXTERNAL_IDENTIFICATION_ASSIGNMENT ( 'Magnet-round-4x2.STEP' , #1084, #14,( #198) ) ;
#865 = AXIS2_PLACEMENT_3D ( 'NONE', #661, #312, #882 ) ;
#866 = APPLIED_EXTERNAL_IDENTIFICATION_ASSIGNMENT ( 'Insert M3 D5 L5mm_(mod).STEP' , #205, #479,( #499) ) ;
#867 = DOCUMENT_FILE ( 'socket head cap screw 4762_din_EN ISO 4762 M3 x 10 - 10S.STEP' , '', '', #404, '' ,$ ) ;
#868 = APPLIED_EXTERNAL_IDENTIFICATION_ASSIGNMENT ( 'socket head cap screw 4762_din_EN ISO 4762 M3 x 20 - 18S.STEP' , #1095, #900,( #263) ) ;
#869 = UNCERTAINTY_MEASURE_WITH_UNIT (LENGTH_MEASURE( 1.000000000000000082E-05 ), #642, 'distance_accuracy_value', 'NONE');
#870 = SHAPE_DEFINITION_REPRESENTATION ( #818, #883 ) ;
#871 = PRODUCT_DEFINITION_SHAPE ( 'NONE', 'NONE',  #1256 ) ;
#872 = PRODUCT_DEFINITION_SHAPE ( 'NONE', 'NONE',  #1225 ) ;
#873 = DIRECTION ( 'NONE',  ( -3.835302521603176736E-16, 0.000000000000000000, -1.000000000000000000 ) ) ;
#874 = DOCUMENT_FILE ( 'socket head cap screw_am_B18.3.1M - 3 x 0.5 x 50 Hex SHCS -- 50SHX.STEP' , '', '', #379, '' ,$ ) ;
#875 = DIRECTION ( 'NONE',  ( 0.000000000000000000, 0.000000000000000000, 1.000000000000000000 ) ) ;
#876 = APPLICATION_CONTEXT ( 'automotive_design' ) ;
#877 = APPLICATION_PROTOCOL_DEFINITION ( 'draft international standard', 'automotive_design', 1998, #604 ) ;
#878 = DOCUMENT_FILE ( 'main-shaft_assy.STEP' , '', '', #232, '' ,$ ) ;
#879 = PROPERTY_DEFINITION ('external definition','', #184 ) ;
#880 =( NAMED_UNIT ( * ) SI_UNIT ( $, .STERADIAN. ) SOLID_ANGLE_UNIT ( ) );
#881 = EXTERNAL_SOURCE (IDENTIFIER('') ) ;
#882 = DIRECTION ( 'NONE',  ( -1.000000000000000000, -5.734331479693103690E-16, -1.386008923308470075E-16 ) ) ;
#883 = SHAPE_REPRESENTATION ( 'encoder-stand_magnet-holder_4x2-round', ( #1142 ), #906 ) ;
#884 = PROPERTY_DEFINITION_REPRESENTATION ( #891, #834 ) ;
#885 = PROPERTY_DEFINITION ('external definition','', #277 ) ;
#886 = APPLICATION_PROTOCOL_DEFINITION ( 'draft international standard', 'automotive_design', 1998, #710 ) ;
#887 = CONTEXT_DEPENDENT_SHAPE_REPRESENTATION ( #1066, #294 ) ;
#888 = DOCUMENT_TYPE ( 'geometry' ) ;
#889 = AXIS2_PLACEMENT_3D ( 'NONE', #252, #627, #619 ) ;
#890 = PROPERTY_DEFINITION_REPRESENTATION ( #613, #690 ) ;
#891 = PROPERTY_DEFINITION ('document property','', #874 ) ;
#892 =( LENGTH_UNIT ( ) NAMED_UNIT ( * ) SI_UNIT ( .MILLI., .METRE. ) );
#893 = PROPERTY_DEFINITION_REPRESENTATION ( #590, #441 ) ;
#894 = APPLIED_DOCUMENT_REFERENCE ( #878,'',( #718) ) ;
#895 = ROLE_ASSOCIATION ( #713, #672 ) ;
#896 = DIRECTION ( 'NONE',  ( 0.000000000000000000, 0.000000000000000000, 1.000000000000000000 ) ) ;
#897 = DOCUMENT_FILE ( 'LIR-DA237T.STEP' , '', '', #1176, '' ,$ ) ;
#898 = DOCUMENT_TYPE ( 'geometry' ) ;
#899 =( LENGTH_UNIT ( ) NAMED_UNIT ( * ) SI_UNIT ( .MILLI., .METRE. ) );
#900 = EXTERNAL_SOURCE (IDENTIFIER('') ) ;
#901 = PROPERTY_DEFINITION ('external definition','', #327 ) ;
#902 = ROLE_ASSOCIATION ( #1121, #1118 ) ;
#903 = IDENTIFICATION_ROLE ( 'external document id and location', $) ;
#904 = DIRECTION ( 'NONE',  ( 1.000000000000000000, 0.000000000000000000, 0.000000000000000000 ) ) ;
#905 = PRODUCT_DEFINITION_CONTEXT ( 'detailed design', #292, 'design' ) ;
#906 =( GEOMETRIC_REPRESENTATION_CONTEXT ( 3 ) GLOBAL_UNCERTAINTY_ASSIGNED_CONTEXT ( ( #1063 ) ) GLOBAL_UNIT_ASSIGNED_CONTEXT ( ( #250, #746, #753 ) ) REPRESENTATION_CONTEXT ( 'NONE', 'WORKASPACE' ) );
#907 = ITEM_DEFINED_TRANSFORMATION ( 'NONE', 'NONE', #282,  #1142 ) ;
#908 = DIRECTION ( 'NONE',  ( 0.5877369174321613876, 0.8090521095005813734, 4.383197515452003162E-16 ) ) ;
#909 = PROPERTY_DEFINITION_REPRESENTATION ( #901, #690 ) ;
#910 = AXIS2_PLACEMENT_3D ( 'NONE', #266, #960, #170 ) ;
#911 = PRODUCT_DEFINITION_SHAPE ( 'NONE', 'NONE',  #1247 ) ;
#912 = APPLIED_EXTERNAL_IDENTIFICATION_ASSIGNMENT ( 'socket head cap screw 4762_din_EN ISO 4762 M3 x 10 - 10S.STEP' , #447, #913,( #867) ) ;
#913 = EXTERNAL_SOURCE (IDENTIFIER('') ) ;
#914 = DOCUMENT_FILE ( 'socket head cap screw 4762_din_EN ISO 4762 M3 x 10 - 10S.STEP' , '', '', #751, '' ,$ ) ;
#915 = APPLICATION_CONTEXT ( 'automotive_design' ) ;
#916 = CARTESIAN_POINT ( 'NONE',  ( 1044.136623718613919, 1006.093800830823966, 991.7695094371370033 ) ) ;
#917 = PROPERTY_DEFINITION_REPRESENTATION ( #111, #1186 ) ;
#918 = SHAPE_REPRESENTATION ( 'encoder-stand_assy', ( #538, #238, #953, #392, #1124, #280, #999, #434, #760, #215, #931, #301, #845, #1145, #61, #139, #119, #717, #889, #805, #282, #413, #79, #173, #784, #910, #299, #586, #435, #217, #15, #1086, #954, #395, #197, #377, #934, #865, #240, #501, #35 ), #1106 ) ;
#919 = DOCUMENT_FILE ( 'socket head cap screw 4762_din_EN ISO 4762 M3 x 10 - 10S.STEP' , '', '', #546, '' ,$ ) ;
#920 = PROPERTY_DEFINITION_REPRESENTATION ( #815, #1071 ) ;
#921 = PRODUCT_DEFINITION_SHAPE ( 'NONE', 'NONE',  #1230 ) ;
#922 = CARTESIAN_POINT ( 'NONE',  ( 916.1366237186139188, 1006.093800830823966, 1002.767843389040991 ) ) ;
#923 =( REPRESENTATION_RELATIONSHIP ('NONE','NONE', #918, #690 ) REPRESENTATION_RELATIONSHIP_WITH_TRANSFORMATION ( #340 )SHAPE_REPRESENTATION_RELATIONSHIP( ) );
#924 = EXTERNAL_SOURCE (IDENTIFIER('') ) ;
#925 = ROLE_ASSOCIATION ( #1213, #50 ) ;
#926 =( NAMED_UNIT ( * ) SI_UNIT ( $, .STERADIAN. ) SOLID_ANGLE_UNIT ( ) );
#927 = APPLIED_DOCUMENT_REFERENCE ( #609,'',( #403) ) ;
#928 = CARTESIAN_POINT ( 'NONE',  ( 999.6831626758565790, 1006.093800830824193, 1061.769509437136776 ) ) ;
#929 = APPLIED_DOCUMENT_REFERENCE ( #1015,'',( #1189) ) ;
#930 = OBJECT_ROLE ('mandatory',$ ) ;
#931 = AXIS2_PLACEMENT_3D ( 'NONE', #703, #345, #339 ) ;
#932 = IDENTIFICATION_ROLE ( 'external document id and location', $) ;
#933 = APPLICATION_CONTEXT ( 'automotive_design' ) ;
#934 = AXIS2_PLACEMENT_3D ( 'NONE', #460, #849, #279 ) ;
#935 = APPLIED_EXTERNAL_IDENTIFICATION_ASSIGNMENT ( 'socket head cap screw 4762_din_EN ISO 4762 M3 x 10 - 10S.STEP' , #621, #180,( #184) ) ;
#936 = PROPERTY_DEFINITION_REPRESENTATION ( #502, #973 ) ;
#937 = CARTESIAN_POINT ( 'NONE',  ( 0.000000000000000000, 0.000000000000000000, 0.000000000000000000 ) ) ;
#938 = PROPERTY_DEFINITION_REPRESENTATION ( #218, #883 ) ;
#939 = CARTESIAN_POINT ( 'NONE',  ( 1060.233162675856875, 1038.093800830824193, 1026.769509437137003 ) ) ;
#940 = PRODUCT_DEFINITION_SHAPE ( 'NONE', 'NONE',  #1219 ) ;
#941 = PRODUCT_DEFINITION ( 'General', '', #846, #262 ) ;
#942 =( NAMED_UNIT ( * ) PLANE_ANGLE_UNIT ( ) SI_UNIT ( $, .RADIAN. ) );
#943 =( LENGTH_UNIT ( ) NAMED_UNIT ( * ) SI_UNIT ( .MILLI., .METRE. ) );
#944 = OBJECT_ROLE ('mandatory',$ ) ;
#945 = PRODUCT_DEFINITION_SHAPE ( 'NONE', 'NONE',  #1189 ) ;
#946 = PROPERTY_DEFINITION_REPRESENTATION ( #744, #690 ) ;
#947 = IDENTIFICATION_ROLE ( 'external document id and location', $) ;
#948 = PROPERTY_DEFINITION ('external definition','', #967 ) ;
#949 = OBJECT_ROLE ('mandatory',$ ) ;
#950 = DIRECTION ( 'NONE',  ( 0.02926272740699953009, -1.242275109425228967E-17, 0.9995717546953314381 ) ) ;
#951 =( GEOMETRIC_REPRESENTATION_CONTEXT ( 3 ) GLOBAL_UNCERTAINTY_ASSIGNED_CONTEXT ( ( #857 ) ) GLOBAL_UNIT_ASSIGNED_CONTEXT ( ( #671, #983, #355 ) ) REPRESENTATION_CONTEXT ( 'NONE', 'WORKASPACE' ) );
#952 = PRODUCT_DEFINITION_CONTEXT ( 'detailed design', #933, 'design' ) ;
#953 = AXIS2_PLACEMENT_3D ( 'NONE', #939, #419, #1119 ) ;
#954 = AXIS2_PLACEMENT_3D ( 'NONE', #257, #77, #647 ) ;
#955 = DIRECTION ( 'NONE',  ( 0.5877369174321613876, 0.8090521095005813734, 4.383197515452003162E-16 ) ) ;
#956 = CARTESIAN_POINT ( 'NONE',  ( 0.000000000000000000, 0.000000000000000000, 0.000000000000000000 ) ) ;
#957 = PRODUCT_DEFINITION_SHAPE ( 'NONE', 'NONE',  #941 ) ;
#958 = DOCUMENT_FILE ( 'socket head cap screw 4762_din_EN ISO 4762 M3 x 10 - 10S.STEP' , '', '', #888, '' ,$ ) ;
#959 = PRODUCT_RELATED_PRODUCT_CATEGORY ( 'part', '', ( #356 ) ) ;
#960 = DIRECTION ( 'NONE',  ( 0.000000000000000000, 0.000000000000000000, 1.000000000000000000 ) ) ;
#961 = OBJECT_ROLE ('mandatory',$ ) ;
#962 = PROPERTY_DEFINITION ('document property','', #919 ) ;
#963 = DIRECTION ( 'NONE',  ( 1.000000000000000000, 0.000000000000000000, 0.000000000000000000 ) ) ;
#964 =( LENGTH_UNIT ( ) NAMED_UNIT ( * ) SI_UNIT ( .MILLI., .METRE. ) );
#965 = APPLICATION_CONTEXT ( 'automotive_design' ) ;
#966 = SHAPE_DEFINITION_REPRESENTATION ( #483, #441 ) ;
#967 = DOCUMENT_FILE ( 'slotted pan head screw_din_DIN EN ISO 1580 - M2 x 5 - 5S.STEP' , '', '', #190, '' ,$ ) ;
#968 = UNCERTAINTY_MEASURE_WITH_UNIT (LENGTH_MEASURE( 1.000000000000000082E-05 ), #851, 'distance_accuracy_value', 'NONE');
#969 = OBJECT_ROLE ('mandatory',$ ) ;
#970 = APPLIED_DOCUMENT_REFERENCE ( #277,'',( #669) ) ;
#971 = PROPERTY_DEFINITION ('document property','', #488 ) ;
#972 = IDENTIFICATION_ROLE ( 'external document id and location', $) ;
#973 = SHAPE_REPRESENTATION ( 'encoder-stand_motor-mount', ( #278 ), #841 ) ;
#974 = CARTESIAN_POINT ( 'NONE',  ( -0.4261445870838709293, 44.46120210923122329, 2034.776645857053154 ) ) ;
#975 = DOCUMENT_TYPE ( 'geometry' ) ;
#976 = ROLE_ASSOCIATION ( #930, #1108 ) ;
#977 = APPLICATION_PROTOCOL_DEFINITION ( 'draft international standard', 'automotive_design', 1998, #186 ) ;
#978 =( REPRESENTATION_RELATIONSHIP ('NONE','NONE', #918, #690 ) REPRESENTATION_RELATIONSHIP_WITH_TRANSFORMATION ( #730 )SHAPE_REPRESENTATION_RELATIONSHIP( ) );
#979 = DOCUMENT_TYPE ( 'geometry' ) ;
#980 = PROPERTY_DEFINITION ('external definition','', #867 ) ;
#981 = APPLICATION_CONTEXT ( 'automotive_design' ) ;
#982 = PRODUCT_DEFINITION_FORMATION_WITH_SPECIFIED_SOURCE ( 'Symmetric', '', #765, .NOT_KNOWN. ) ;
#983 =( NAMED_UNIT ( * ) PLANE_ANGLE_UNIT ( ) SI_UNIT ( $, .RADIAN. ) );
#984 = CARTESIAN_POINT ( 'NONE',  ( 1067.633162675856511, 1057.093800830824421, 1051.769509437137003 ) ) ;
#985 = SHAPE_REPRESENTATION ( '42SHD0034-20B', ( #825 ), #237 ) ;
#986 = ROLE_ASSOCIATION ( #1138, #584 ) ;
#987 = SHAPE_DEFINITION_REPRESENTATION ( #1054, #1071 ) ;
#988 = ROLE_ASSOCIATION ( #396, #223 ) ;
#989 = EXTERNAL_SOURCE (IDENTIFIER('') ) ;
#990 = CONTEXT_DEPENDENT_SHAPE_REPRESENTATION ( #426, #5 ) ;
#991 = SHAPE_DEFINITION_REPRESENTATION ( #1028, #1186 ) ;
#992 = PRODUCT_DEFINITION_SHAPE ( 'NONE', 'NONE',  #1238 ) ;
#993 = PROPERTY_DEFINITION_REPRESENTATION ( #29, #58 ) ;
#994 = ROLE_ASSOCIATION ( #341, #792 ) ;
#995 = DIRECTION ( 'NONE',  ( 0.000000000000000000, 0.3297984384772640332, 0.9440513704126266559 ) ) ;
#996 = ROLE_ASSOCIATION ( #1157, #894 ) ;
#997 = EXTERNAL_SOURCE (IDENTIFIER('') ) ;
#998 = IDENTIFICATION_ROLE ( 'external document id and location', $) ;
#999 = AXIS2_PLACEMENT_3D ( 'NONE', #708, #155, #244 ) ;
#1000 = PRODUCT_DEFINITION_FORMATION_WITH_SPECIFIED_SOURCE ( 'Symmetric', '', #1212, .NOT_KNOWN. ) ;
#1001 = PRODUCT_DEFINITION ( 'General', '', #559, #156 ) ;
#1002 = PROPERTY_DEFINITION_REPRESENTATION ( #229, #834 ) ;
#1003 = PROPERTY_DEFINITION ('external definition','', #21 ) ;
#1004 = PROPERTY_DEFINITION_REPRESENTATION ( #577, #441 ) ;
#1005 = APPLIED_EXTERNAL_IDENTIFICATION_ASSIGNMENT ( 'socket head cap screw 4762_din_EN ISO 4762 M3 x 20 - 18S.STEP' , #1191, #1070,( #524) ) ;
#1006 = ROLE_ASSOCIATION ( #949, #1111 ) ;
#1007 = PRODUCT_DEFINITION_SHAPE ( 'NONE', 'NONE',  #1220 ) ;
#1008 =( REPRESENTATION_RELATIONSHIP ('NONE','NONE', #918, #834 ) REPRESENTATION_RELATIONSHIP_WITH_TRANSFORMATION ( #1082 )SHAPE_REPRESENTATION_RELATIONSHIP( ) );
#1009 = SHAPE_DEFINITION_REPRESENTATION ( #620, #58 ) ;
#1010 = PROPERTY_DEFINITION_REPRESENTATION ( #150, #733 ) ;
#1011 = DIRECTION ( 'NONE',  ( 0.000000000000000000, 0.000000000000000000, 1.000000000000000000 ) ) ;
#1012 = PROPERTY_DEFINITION ('document property','', #332 ) ;
#1013 = PROPERTY_DEFINITION_REPRESENTATION ( #306, #485 ) ;
#1014 = DIRECTION ( 'NONE',  ( 1.739222753214340817E-32, -0.9242245927363030855, -0.3818493186865927203 ) ) ;
#1015 = DOCUMENT_FILE ( 'encoder-stand_base.STEP' , '', '', #373, '' ,$ ) ;
#1016 = OBJECT_ROLE ('mandatory',$ ) ;
#1017 =( NAMED_UNIT ( * ) PLANE_ANGLE_UNIT ( ) SI_UNIT ( $, .RADIAN. ) );
#1018 = PRODUCT_DEFINITION_CONTEXT ( 'detailed design', #1196, 'design' ) ;
#1019 = PROPERTY_DEFINITION_REPRESENTATION ( #1085, #485 ) ;
#1020 = CARTESIAN_POINT ( 'NONE',  ( 916.1366237186143735, 1006.093800830824193, 1061.769509437136776 ) ) ;
#1021 = ITEM_DEFINED_TRANSFORMATION ( 'NONE', 'NONE', #784,  #278 ) ;
#1022 = DOCUMENT_TYPE ( 'geometry' ) ;
#1023 = APPLICATION_CONTEXT ( 'automotive_design' ) ;
#1024 = PRODUCT_DEFINITION_SHAPE ( 'NONE', 'NONE',  #1222 ) ;
#1025 = PROPERTY_DEFINITION ('external definition','', #878 ) ;
#1026 = PRODUCT_RELATED_PRODUCT_CATEGORY ( 'part', '', ( #628 ) ) ;
#1027 = CONTEXT_DEPENDENT_SHAPE_REPRESENTATION ( #1042, #486 ) ;
#1028 = PRODUCT_DEFINITION_SHAPE ( 'NONE', 'NONE',  #484 ) ;
#1029 = CONTEXT_DEPENDENT_SHAPE_REPRESENTATION ( #1101, #209 ) ;
#1030 = CARTESIAN_POINT ( 'NONE',  ( 1044.136623718614374, 1006.093800830824193, 1061.769509437136776 ) ) ;
#1031 = PROPERTY_DEFINITION_REPRESENTATION ( #1012, #985 ) ;
#1032 = EXTERNAL_SOURCE (IDENTIFIER('') ) ;
#1033 = DIRECTION ( 'NONE',  ( 1.000000000000000000, 0.000000000000000000, 0.000000000000000000 ) ) ;
#1034 = CONTEXT_DEPENDENT_SHAPE_REPRESENTATION ( #362, #530 ) ;
#1035 = DIRECTION ( 'NONE',  ( -3.330669073875461733E-16, -2.419885059049286102E-16, 0.9999999999999998890 ) ) ;
#1036 = CONTEXT_DEPENDENT_SHAPE_REPRESENTATION ( #742, #1182 ) ;
#1037 = CARTESIAN_POINT ( 'NONE',  ( 0.000000000000000000, 0.000000000000000000, 0.000000000000000000 ) ) ;
#1038 = OBJECT_ROLE ('mandatory',$ ) ;
#1039 = CARTESIAN_POINT ( 'NONE',  ( 0.000000000000000000, 0.000000000000000000, 0.000000000000000000 ) ) ;
#1040 = CARTESIAN_POINT ( 'NONE',  ( 1026.683162675856465, 1032.093800830784176, 1026.767843389084419 ) ) ;
#1041 = PRODUCT_RELATED_PRODUCT_CATEGORY ( 'part', '', ( #175 ) ) ;
#1042 =( REPRESENTATION_RELATIONSHIP ('NONE','NONE', #918, #441 ) REPRESENTATION_RELATIONSHIP_WITH_TRANSFORMATION ( #56 )SHAPE_REPRESENTATION_RELATIONSHIP( ) );
#1043 = APPLIED_EXTERNAL_IDENTIFICATION_ASSIGNMENT ( 'encoder-stand_bearing-support-assy.STEP' , #693, #27,( #799) ) ;
#1044 = PRODUCT_DEFINITION_FORMATION_WITH_SPECIFIED_SOURCE ( 'Symmetric', '', #54, .NOT_KNOWN. ) ;
#1045 = PROPERTY_DEFINITION_REPRESENTATION ( #778, #441 ) ;
#1046 = CARTESIAN_POINT ( 'NONE',  ( 0.000000000000000000, 0.000000000000000000, 0.000000000000000000 ) ) ;
#1047 = APPLIED_EXTERNAL_IDENTIFICATION_ASSIGNMENT ( 'Insert M3 D5 L5mm_(mod).STEP' , #187, #454,( #337) ) ;
#1048 = DOCUMENT_TYPE ( 'geometry' ) ;
#1049 = PROPERTY_DEFINITION ('external definition','', #73 ) ;
#1050 = PROPERTY_DEFINITION_REPRESENTATION ( #1049, #834 ) ;
#1051 = PROPERTY_DEFINITION_REPRESENTATION ( #682, #690 ) ;
#1052 = DIRECTION ( 'NONE',  ( 0.000000000000000000, 0.000000000000000000, 1.000000000000000000 ) ) ;
#1053 = DIRECTION ( 'NONE',  ( 5.601158385457928805E-16, 0.7058727447262544974, -0.7083386677660794550 ) ) ;
#1054 = PRODUCT_DEFINITION_SHAPE ( 'NONE', 'NONE',  #444 ) ;
#1055 = DOCUMENT_TYPE ( 'geometry' ) ;
#1056 = APPLIED_DOCUMENT_REFERENCE ( #94,'',( #1102) ) ;
#1057 = APPLICATION_CONTEXT ( 'automotive_design' ) ;
#1058 = PRODUCT_RELATED_PRODUCT_CATEGORY ( 'part', '', ( #663 ) ) ;
#1059 = DIRECTION ( 'NONE',  ( 1.000000000000000000, 0.000000000000000000, 0.000000000000000000 ) ) ;
#1060 = SHAPE_REPRESENTATION ( 'encoder-stand_magnetic-encoder-holder-assy', ( #563 ), #624 ) ;
#1061 = DIRECTION ( 'NONE',  ( 0.000000000000000000, 0.000000000000000000, 1.000000000000000000 ) ) ;
#1062 = DIRECTION ( 'NONE',  ( -9.860761315262647568E-32, 1.000000000000000000, -1.734723475976808327E-16 ) ) ;
#1063 = UNCERTAINTY_MEASURE_WITH_UNIT (LENGTH_MEASURE( 1.000000000000000082E-05 ), #250, 'distance_accuracy_value', 'NONE');
#1064 =( NAMED_UNIT ( * ) SI_UNIT ( $, .STERADIAN. ) SOLID_ANGLE_UNIT ( ) );
#1065 = PROPERTY_DEFINITION ('document property','', #878 ) ;
#1066 =( REPRESENTATION_RELATIONSHIP ('NONE','NONE', #918, #1192 ) REPRESENTATION_RELATIONSHIP_WITH_TRANSFORMATION ( #204 )SHAPE_REPRESENTATION_RELATIONSHIP( ) );
#1067 = APPLIED_EXTERNAL_IDENTIFICATION_ASSIGNMENT ( 'socket head cap screw_am_B18.3.1M - 3 x 0.5 x 50 Hex SHCS -- 50SHX.STEP' , #114, #46,( #94) ) ;
#1068 =( LENGTH_UNIT ( ) NAMED_UNIT ( * ) SI_UNIT ( .MILLI., .METRE. ) );
#1069 = PRODUCT_DEFINITION_SHAPE ( 'NONE', 'NONE',  #276 ) ;
#1070 = EXTERNAL_SOURCE (IDENTIFIER('') ) ;
#1071 = SHAPE_REPRESENTATION ( 'slotted pan head screw_din_DIN EN ISO 1580 - M2 x 5 - 5S', ( #315 ), #193 ) ;
#1072 =( NAMED_UNIT ( * ) PLANE_ANGLE_UNIT ( ) SI_UNIT ( $, .RADIAN. ) );
#1073 = PROPERTY_DEFINITION_REPRESENTATION ( #743, #1071 ) ;
#1074 = APPLICATION_PROTOCOL_DEFINITION ( 'draft international standard', 'automotive_design', 1998, #1023 ) ;
#1075 = SHAPE_DEFINITION_REPRESENTATION ( #522, #1192 ) ;
#1076 = IDENTIFICATION_ROLE ( 'external document id and location', $) ;
#1077 = CARTESIAN_POINT ( 'NONE',  ( 0.000000000000000000, 0.000000000000000000, 0.000000000000000000 ) ) ;
#1078 = EXTERNAL_SOURCE (IDENTIFIER('') ) ;
#1079 = UNCERTAINTY_MEASURE_WITH_UNIT (LENGTH_MEASURE( 1.000000000000000082E-05 ), #660, 'distance_accuracy_value', 'NONE');
#1080 = APPLICATION_PROTOCOL_DEFINITION ( 'draft international standard', 'automotive_design', 1998, #876 ) ;
#1081 = PROPERTY_DEFINITION ('external definition','', #19 ) ;
#1082 = ITEM_DEFINED_TRANSFORMATION ( 'NONE', 'NONE', #931,  #645 ) ;
#1083 = APPLICATION_PROTOCOL_DEFINITION ( 'draft international standard', 'automotive_design', 1998, #268 ) ;
#1084 = IDENTIFICATION_ROLE ( 'external document id and location', $) ;
#1085 = PROPERTY_DEFINITION ('document property','', #337 ) ;
#1086 = AXIS2_PLACEMENT_3D ( 'NONE', #1141, #1062, #560 ) ;
#1087 = DIRECTION ( 'NONE',  ( 1.000000000000000000, 0.000000000000000000, 0.000000000000000000 ) ) ;
#1088 = APPLIED_EXTERNAL_IDENTIFICATION_ASSIGNMENT ( 'socket head cap screw 4762_din_EN ISO 4762 M3 x 10 - 10S.STEP' , #780, #707,( #127) ) ;
#1089 = PRODUCT_DEFINITION_SHAPE ( 'NONE', 'NONE',  #10 ) ;
#1090 = DOCUMENT_FILE ( 'slotted pan head screw_din_DIN EN ISO 1580 - M2.5 x 8 - 8S.STEP' , '', '', #64, '' ,$ ) ;
#1091 = APPLICATION_PROTOCOL_DEFINITION ( 'draft international standard', 'automotive_design', 1998, #202 ) ;
#1092 = IDENTIFICATION_ROLE ( 'external document id and location', $) ;
#1093 = PRODUCT_DEFINITION_SHAPE ( 'NONE', 'NONE',  #1249 ) ;
#1094 = APPLICATION_PROTOCOL_DEFINITION ( 'draft international standard', 'automotive_design', 1998, #1114 ) ;
#1095 = IDENTIFICATION_ROLE ( 'external document id and location', $) ;
#1096 = ITEM_DEFINED_TRANSFORMATION ( 'NONE', 'NONE', #197,  #583 ) ;
#1097 = PROPERTY_DEFINITION_REPRESENTATION ( #980, #690 ) ;
#1098 =( NAMED_UNIT ( * ) SI_UNIT ( $, .STERADIAN. ) SOLID_ANGLE_UNIT ( ) );
#1099 = PROPERTY_DEFINITION_REPRESENTATION ( #51, #171 ) ;
#1100 = PROPERTY_DEFINITION ('document property','', #21 ) ;
#1101 =( REPRESENTATION_RELATIONSHIP ('NONE','NONE', #918, #485 ) REPRESENTATION_RELATIONSHIP_WITH_TRANSFORMATION ( #1215 )SHAPE_REPRESENTATION_RELATIONSHIP( ) );
#1102 = PRODUCT_DEFINITION ( 'General', '', #542, #1018 ) ;
#1103 = DIRECTION ( 'NONE',  ( 0.000000000000000000, 0.000000000000000000, 1.000000000000000000 ) ) ;
#1104 = CONTEXT_DEPENDENT_SHAPE_REPRESENTATION ( #1008, #406 ) ;
#1105 = CARTESIAN_POINT ( 'NONE',  ( 0.000000000000000000, 0.000000000000000000, 0.000000000000000000 ) ) ;
#1106 =( GEOMETRIC_REPRESENTATION_CONTEXT ( 3 ) GLOBAL_UNCERTAINTY_ASSIGNED_CONTEXT ( ( #842 ) ) GLOBAL_UNIT_ASSIGNED_CONTEXT ( ( #688, #840, #880 ) ) REPRESENTATION_CONTEXT ( 'NONE', 'WORKASPACE' ) );
#1107 = EXTERNAL_SOURCE (IDENTIFIER('') ) ;
#1108 = APPLIED_DOCUMENT_REFERENCE ( #499,'',( #403) ) ;
#1109 = PRODUCT_DEFINITION_SHAPE ( 'NONE', 'NONE',  #1244 ) ;
#1110 = APPLIED_EXTERNAL_IDENTIFICATION_ASSIGNMENT ( 'encoder-stand_magnetic-encoder-holder-assy.STEP' , #296, #881,( #19) ) ;
#1111 = APPLIED_DOCUMENT_REFERENCE ( #897,'',( #221) ) ;
#1112 = PRODUCT_DEFINITION_CONTEXT ( 'detailed design', #445, 'design' ) ;
#1113 = DIRECTION ( 'NONE',  ( 3.330669073875454830E-16, 2.998126217708191396E-16, -1.000000000000000000 ) ) ;
#1114 = APPLICATION_CONTEXT ( 'automotive_design' ) ;
#1115 = IDENTIFICATION_ROLE ( 'external document id and location', $) ;
#1116 =( LENGTH_UNIT ( ) NAMED_UNIT ( * ) SI_UNIT ( .MILLI., .METRE. ) );
#1117 = PROPERTY_DEFINITION ('external definition','', #127 ) ;
#1118 = APPLIED_DOCUMENT_REFERENCE ( #127,'',( #669) ) ;
#1119 = DIRECTION ( 'NONE',  ( 1.000000000000000000, 0.000000000000000000, 0.000000000000000000 ) ) ;
#1120 = PRODUCT ( '5mm to 8mm rigid shaft coupler v2', '5mm to 8mm rigid shaft coupler v2', '', ( #670 ) ) ;
#1121 = OBJECT_ROLE ('mandatory',$ ) ;
#1122 = PROPERTY_DEFINITION_REPRESENTATION ( #224, #441 ) ;
#1123 =( NAMED_UNIT ( * ) PLANE_ANGLE_UNIT ( ) SI_UNIT ( $, .RADIAN. ) );
#1124 = AXIS2_PLACEMENT_3D ( 'NONE', #326, #1014, #53 ) ;
#1125 = PROPERTY_DEFINITION_REPRESENTATION ( #585, #690 ) ;
#1126 = CARTESIAN_POINT ( 'NONE',  ( 916.1366237186143735, 1006.093800830824421, 1050.767843389041445 ) ) ;
#1127 = OBJECT_ROLE ('mandatory',$ ) ;
#1128 = PROPERTY_DEFINITION_REPRESENTATION ( #1201, #985 ) ;
#1129 = APPLIED_EXTERNAL_IDENTIFICATION_ASSIGNMENT ( 'socket head cap screw 4762_din_EN ISO 4762 M3 x 10 - 10S.STEP' , #110, #470,( #1162) ) ;
#1130 = PROPERTY_DEFINITION ('document property','', #1172 ) ;
#1131 = EXTERNAL_SOURCE (IDENTIFIER('') ) ;
#1132 = CARTESIAN_POINT ( 'NONE',  ( 1067.633162675856738, 1057.093800830824421, 1001.769509437137231 ) ) ;
#1133 = DIRECTION ( 'NONE',  ( 0.9878025414007340910, -0.1557117182560482926, 2.913238915212307004E-16 ) ) ;
#1134 = OBJECT_ROLE ('mandatory',$ ) ;
#1135 = DIRECTION ( 'NONE',  ( 1.000000000000000000, 0.000000000000000000, 0.000000000000000000 ) ) ;
#1136 = PRODUCT_RELATED_PRODUCT_CATEGORY ( 'part', '', ( #1147 ) ) ;
#1137 = PROPERTY_DEFINITION_REPRESENTATION ( #16, #690 ) ;
#1138 = OBJECT_ROLE ('mandatory',$ ) ;
#1139 = DIRECTION ( 'NONE',  ( 1.000000000000000000, -1.040834085586084257E-16, 2.775557561562891351E-16 ) ) ;
#1140 = ROLE_ASSOCIATION ( #1016, #1146 ) ;
#1141 = CARTESIAN_POINT ( 'NONE',  ( 58.65660862900256944, 22.50692542674470786, 38.33261766855105179 ) ) ;
#1142 = AXIS2_PLACEMENT_3D ( 'NONE', #451, #85, #658 ) ;
#1143 =( GEOMETRIC_REPRESENTATION_CONTEXT ( 3 ) GLOBAL_UNCERTAINTY_ASSIGNED_CONTEXT ( ( #380 ) ) GLOBAL_UNIT_ASSIGNED_CONTEXT ( ( #892, #793, #1064 ) ) REPRESENTATION_CONTEXT ( 'NONE', 'WORKASPACE' ) );
#1144 = PRODUCT_CONTEXT ( 'NONE', #772, 'mechanical' ) ;
#1145 = AXIS2_PLACEMENT_3D ( 'NONE', #810, #141, #535 ) ;
#1146 = APPLIED_DOCUMENT_REFERENCE ( #919,'',( #669) ) ;
#1147 = PRODUCT ( '42SHD0034-20B', '42SHD0034-20B', '', ( #674 ) ) ;
#1148 = PRODUCT_CONTEXT ( 'NONE', #604, 'mechanical' ) ;
#1149 = ROLE_ASSOCIATION ( #1038, #424 ) ;
#1150 = OBJECT_ROLE ('mandatory',$ ) ;
#1151 = SHAPE_REPRESENTATION ( 'main-shaft_assy', ( #500 ), #138 ) ;
#1152 = CARTESIAN_POINT ( 'NONE',  ( 0.000000000000000000, 0.000000000000000000, 0.000000000000000000 ) ) ;
#1153 = DIRECTION ( 'NONE',  ( 1.739222753214340817E-32, -0.9242245927363030855, -0.3818493186865927203 ) ) ;
#1154 = PROPERTY_DEFINITION_REPRESENTATION ( #453, #834 ) ;
#1155 = PRODUCT_DEFINITION_CONTEXT ( 'detailed design', #631, 'design' ) ;
#1156 =( LENGTH_UNIT ( ) NAMED_UNIT ( * ) SI_UNIT ( .MILLI., .METRE. ) );
#1157 = OBJECT_ROLE ('mandatory',$ ) ;
#1158 = DOCUMENT_TYPE ( 'geometry' ) ;
#1159 =( NAMED_UNIT ( * ) SI_UNIT ( $, .STERADIAN. ) SOLID_ANGLE_UNIT ( ) );
#1160 = CARTESIAN_POINT ( 'NONE',  ( -40.38518347531382346, -374.9768547144736317, 1062.414829482188907 ) ) ;
#1161 = PRODUCT_DEFINITION_SHAPE ( 'NONE', 'NONE',  #633 ) ;
#1162 = DOCUMENT_FILE ( 'socket head cap screw 4762_din_EN ISO 4762 M3 x 10 - 10S.STEP' , '', '', #494, '' ,$ ) ;
#1163 = DIRECTION ( 'NONE',  ( 1.000000000000000000, 0.000000000000000000, 0.000000000000000000 ) ) ;
#1164 = DIRECTION ( 'NONE',  ( -1.000000000000000000, -1.848892746611747787E-32, -7.969271116853711353E-34 ) ) ;
#1165 = CONTEXT_DEPENDENT_SHAPE_REPRESENTATION ( #473, #940 ) ;
#1166 = AXIS2_PLACEMENT_3D ( 'NONE', #653, #608, #904 ) ;
#1167 = APPLICATION_PROTOCOL_DEFINITION ( 'draft international standard', 'automotive_design', 1998, #915 ) ;
#1168 = PRODUCT_DEFINITION_FORMATION_WITH_SPECIFIED_SOURCE ( 'Symmetric', '', #628, .NOT_KNOWN. ) ;
#1169 = APPLIED_EXTERNAL_IDENTIFICATION_ASSIGNMENT ( 'slotted pan head screw_din_DIN EN ISO 1580 - M2.5 x 8 - 8S.STEP' , #773, #1032,( #1172) ) ;
#1170 = SHAPE_DEFINITION_REPRESENTATION ( #945, #616 ) ;
#1171 = PRODUCT_RELATED_PRODUCT_CATEGORY ( 'part', '', ( #428 ) ) ;
#1172 = DOCUMENT_FILE ( 'slotted pan head screw_din_DIN EN ISO 1580 - M2.5 x 8 - 8S.STEP' , '', '', #126, '' ,$ ) ;
#1173 = PRODUCT_DEFINITION_SHAPE ( 'NONE', 'NONE',  #1232 ) ;
#1174 = APPLICATION_PROTOCOL_DEFINITION ( 'draft international standard', 'automotive_design', 1998, #49 ) ;
#1175 = CONTEXT_DEPENDENT_SHAPE_REPRESENTATION ( #657, #37 ) ;
#1176 = DOCUMENT_TYPE ( 'geometry' ) ;
#1177 =( NAMED_UNIT ( * ) SI_UNIT ( $, .STERADIAN. ) SOLID_ANGLE_UNIT ( ) );
#1178 = APPLICATION_PROTOCOL_DEFINITION ( 'draft international standard', 'automotive_design', 1998, #388 ) ;
#1179 = ROLE_ASSOCIATION ( #353, #495 ) ;
#1180 =( REPRESENTATION_RELATIONSHIP ('NONE','NONE', #918, #883 ) REPRESENTATION_RELATIONSHIP_WITH_TRANSFORMATION ( #907 )SHAPE_REPRESENTATION_RELATIONSHIP( ) );
#1181 = APPLIED_EXTERNAL_IDENTIFICATION_ASSIGNMENT ( 'socket head cap screw_am_B18.3.1M - 3 x 0.5 x 50 Hex SHCS -- 50SHX.STEP' , #568, #220,( #73) ) ;
#1182 = PRODUCT_DEFINITION_SHAPE ( 'NONE', 'NONE',  #1242 ) ;
#1183 = PRODUCT_DEFINITION_FORMATION_WITH_SPECIFIED_SOURCE ( 'Symmetric', '', #42, .NOT_KNOWN. ) ;
#1184 = APPLIED_DOCUMENT_REFERENCE ( #867,'',( #669) ) ;
#1185 = DIRECTION ( 'NONE',  ( 1.000000000000000000, 0.000000000000000000, 0.000000000000000000 ) ) ;
#1186 = SHAPE_REPRESENTATION ( '5mm to 8mm rigid shaft coupler v2', ( #557 ), #98 ) ;
#1187 = CONTEXT_DEPENDENT_SHAPE_REPRESENTATION ( #33, #911 ) ;
#1188 = PROPERTY_DEFINITION ('external definition','', #1162 ) ;
#1189 = PRODUCT_DEFINITION ( 'General', '', #761, #164 ) ;
#1190 = IDENTIFICATION_ROLE ( 'external document id and location', $) ;
#1191 = IDENTIFICATION_ROLE ( 'external document id and location', $) ;
#1192 = SHAPE_REPRESENTATION ( 'MT6835 Magnetic Encoder B.step', ( #804 ), #1143 ) ;
#1193 = PROPERTY_DEFINITION ('document property','', #1015 ) ;
#1194 = CARTESIAN_POINT ( 'NONE',  ( 0.000000000000000000, 0.000000000000000000, 0.000000000000000000 ) ) ;
#1195 = EXTERNAL_SOURCE (IDENTIFIER('') ) ;
#1196 = APPLICATION_CONTEXT ( 'automotive_design' ) ;
#1197 = ROLE_ASSOCIATION ( #1150, #507 ) ;
#1198 = PROPERTY_DEFINITION ('document property','', #437 ) ;
#1199 =( NAMED_UNIT ( * ) SI_UNIT ( $, .STERADIAN. ) SOLID_ANGLE_UNIT ( ) );
#1200 = ITEM_DEFINED_TRANSFORMATION ( 'NONE', 'NONE', #805,  #352 ) ;
#1201 = PROPERTY_DEFINITION ('external definition','', #332 ) ;
#1202 = APPLIED_EXTERNAL_IDENTIFICATION_ASSIGNMENT ( '5mm to 8mm rigid shaft coupler v2.STEP' , #309, #1107,( #824) ) ;
#1203 = CARTESIAN_POINT ( 'NONE',  ( 982.4331626758549874, 1017.067781730570687, 1041.793862489298135 ) ) ;
#1204 =( REPRESENTATION_RELATIONSHIP ('NONE','NONE', #918, #690 ) REPRESENTATION_RELATIONSHIP_WITH_TRANSFORMATION ( #159 )SHAPE_REPRESENTATION_RELATIONSHIP( ) );
#1205 = PROPERTY_DEFINITION_REPRESENTATION ( #319, #1071 ) ;
#1206 = DIRECTION ( 'NONE',  ( 3.250081887472109906E-48, 8.387686555071449978E-48, 1.000000000000000000 ) ) ;
#1207 = ITEM_DEFINED_TRANSFORMATION ( 'NONE', 'NONE', #934,  #352 ) ;
#1208 = PROPERTY_DEFINITION ('document property','', #184 ) ;
#1209 = DOCUMENT_TYPE ( 'geometry' ) ;
#1210 = ITEM_DEFINED_TRANSFORMATION ( 'NONE', 'NONE', #61,  #1214 ) ;
#1211 = DIRECTION ( 'NONE',  ( 0.3818493186865929423, -0.9242245927363029745, -8.253497424764700155E-48 ) ) ;
#1212 = PRODUCT ( 'LIR-DA237T', 'LIR-DA237T', '', ( #768 ) ) ;
#1213 = OBJECT_ROLE ('mandatory',$ ) ;
#1214 = AXIS2_PLACEMENT_3D ( 'NONE', #200, #1052, #374 ) ;
#1215 = ITEM_DEFINED_TRANSFORMATION ( 'NONE', 'NONE', #139,  #1214 ) ;
#1216 = IDENTIFICATION_ROLE ( 'external document id and location', $) ;
#1217 = CARTESIAN_POINT ( 'NONE',  ( 885.1366237186146009, 1006.093800830824193, 1050.767843389041445 ) ) ;
#1218 = PROPERTY_DEFINITION_REPRESENTATION ( #135, #359 ) ;
#1219 = NEXT_ASSEMBLY_USAGE_OCCURRENCE ( 'NAUO94', ' ', ' ', #593, #1102, $ ) ;
#1220 = NEXT_ASSEMBLY_USAGE_OCCURRENCE ( 'NAUO95', ' ', ' ', #593, #444, $ ) ;
#1221 = NEXT_ASSEMBLY_USAGE_OCCURRENCE ( 'NAUO96', ' ', ' ', #593, #1102, $ ) ;
#1222 = NEXT_ASSEMBLY_USAGE_OCCURRENCE ( 'NAUO97', ' ', ' ', #593, #669, $ ) ;
#1223 = NEXT_ASSEMBLY_USAGE_OCCURRENCE ( 'NAUO98', ' ', ' ', #593, #403, $ ) ;
#1224 = NEXT_ASSEMBLY_USAGE_OCCURRENCE ( 'NAUO99', ' ', ' ', #593, #669, $ ) ;
#1225 = NEXT_ASSEMBLY_USAGE_OCCURRENCE ( 'NAUO100', ' ', ' ', #593, #403, $ ) ;
#1226 = NEXT_ASSEMBLY_USAGE_OCCURRENCE ( 'NAUO101', ' ', ' ', #593, #276, $ ) ;
#1227 = NEXT_ASSEMBLY_USAGE_OCCURRENCE ( 'NAUO102', ' ', ' ', #593, #669, $ ) ;
#1228 = NEXT_ASSEMBLY_USAGE_OCCURRENCE ( 'NAUO103', ' ', ' ', #593, #1102, $ ) ;
#1229 = NEXT_ASSEMBLY_USAGE_OCCURRENCE ( 'NAUO104', ' ', ' ', #593, #1102, $ ) ;
#1230 = NEXT_ASSEMBLY_USAGE_OCCURRENCE ( 'NAUO105', ' ', ' ', #593, #276, $ ) ;
#1231 = NEXT_ASSEMBLY_USAGE_OCCURRENCE ( 'NAUO106', ' ', ' ', #593, #444, $ ) ;
#1232 = NEXT_ASSEMBLY_USAGE_OCCURRENCE ( 'NAUO107', ' ', ' ', #593, #403, $ ) ;
#1233 = NEXT_ASSEMBLY_USAGE_OCCURRENCE ( 'NAUO108', ' ', ' ', #593, #403, $ ) ;
#1234 = NEXT_ASSEMBLY_USAGE_OCCURRENCE ( 'NAUO109', ' ', ' ', #593, #669, $ ) ;
#1235 = NEXT_ASSEMBLY_USAGE_OCCURRENCE ( 'NAUO110', ' ', ' ', #593, #669, $ ) ;
#1236 = NEXT_ASSEMBLY_USAGE_OCCURRENCE ( 'NAUO111', ' ', ' ', #593, #669, $ ) ;
#1237 = NEXT_ASSEMBLY_USAGE_OCCURRENCE ( 'NAUO112', ' ', ' ', #593, #669, $ ) ;
#1238 = NEXT_ASSEMBLY_USAGE_OCCURRENCE ( 'NAUO113', ' ', ' ', #593, #349, $ ) ;
#1239 = NEXT_ASSEMBLY_USAGE_OCCURRENCE ( 'NAUO114', ' ', ' ', #593, #669, $ ) ;
#1240 = NEXT_ASSEMBLY_USAGE_OCCURRENCE ( 'NAUO115', ' ', ' ', #593, #669, $ ) ;
#1241 = NEXT_ASSEMBLY_USAGE_OCCURRENCE ( 'NAUO116', ' ', ' ', #593, #484, $ ) ;
#1242 = NEXT_ASSEMBLY_USAGE_OCCURRENCE ( 'NAUO117', ' ', ' ', #593, #941, $ ) ;
#1243 = NEXT_ASSEMBLY_USAGE_OCCURRENCE ( 'NAUO118', ' ', ' ', #593, #1189, $ ) ;
#1244 = NEXT_ASSEMBLY_USAGE_OCCURRENCE ( 'NAUO119', ' ', ' ', #593, #669, $ ) ;
#1245 = NEXT_ASSEMBLY_USAGE_OCCURRENCE ( 'NAUO120', ' ', ' ', #593, #633, $ ) ;
#1246 = NEXT_ASSEMBLY_USAGE_OCCURRENCE ( 'NAUO121', ' ', ' ', #593, #221, $ ) ;
#1247 = NEXT_ASSEMBLY_USAGE_OCCURRENCE ( 'NAUO122', ' ', ' ', #593, #718, $ ) ;
#1248 = NEXT_ASSEMBLY_USAGE_OCCURRENCE ( 'NAUO123', ' ', ' ', #593, #10, $ ) ;
#1249 = NEXT_ASSEMBLY_USAGE_OCCURRENCE ( 'NAUO124', ' ', ' ', #593, #130, $ ) ;
#1250 = NEXT_ASSEMBLY_USAGE_OCCURRENCE ( 'NAUO125', ' ', ' ', #593, #701, $ ) ;
#1251 = NEXT_ASSEMBLY_USAGE_OCCURRENCE ( 'NAUO126', ' ', ' ', #593, #1001, $ ) ;
#1252 = NEXT_ASSEMBLY_USAGE_OCCURRENCE ( 'NAUO127', ' ', ' ', #593, #95, $ ) ;
#1253 = NEXT_ASSEMBLY_USAGE_OCCURRENCE ( 'NAUO128', ' ', ' ', #593, #669, $ ) ;
#1254 = NEXT_ASSEMBLY_USAGE_OCCURRENCE ( 'NAUO129', ' ', ' ', #593, #669, $ ) ;
#1255 = NEXT_ASSEMBLY_USAGE_OCCURRENCE ( 'NAUO130', ' ', ' ', #593, #498, $ ) ;
#1256 = NEXT_ASSEMBLY_USAGE_OCCURRENCE ( 'NAUO131', ' ', ' ', #593, #498, $ ) ;
#1257 = NEXT_ASSEMBLY_USAGE_OCCURRENCE ( 'NAUO132', ' ', ' ', #593, #498, $ ) ;
#1258 = NEXT_ASSEMBLY_USAGE_OCCURRENCE ( 'NAUO133', ' ', ' ', #593, #498, $ ) ;
ENDSEC;
END-ISO-10303-21;
