ISO-10303-21;
HEADER;
FILE_DESCRIPTION (( 'STEP AP214' ),
    '1' );
FILE_NAME ('LIR-DA237T_SHAFT.STEP',
    '2026-01-08T13:34:32',
    ( '' ),
    ( '' ),
    'SwSTEP 2.0',
    'SolidWorks 2025',
    '' );
FILE_SCHEMA (( 'AUTOMOTIVE_DESIGN' ));
ENDSEC;

DATA;
#1 = CARTESIAN_POINT ( 'NONE',  ( 0.000000000000000000, 0.000000000000000000, 0.000000000000000000 ) ) ;
#2 = PRODUCT_DEFINITION_SHAPE ( 'NONE', 'NONE',  #11 ) ;
#3 = CARTESIAN_POINT ( 'NONE',  ( 0.000000000000000000, 33.50000000000000000, 0.000000000000000000 ) ) ;
#4 = VERTEX_POINT ( 'NONE', #18 ) ;
#5 = EDGE_CURVE ( 'NONE', #138, #75, #211, .T. ) ;
#6 = PRESENTATION_LAYER_ASSIGNMENT (  '', '', ( #48 ) ) ;
#7 = PRODUCT ( 'LIR-DA237T_SHAFT', 'LIR-DA237T_SHAFT', '', ( #83 ) ) ;
#8 = EDGE_CURVE ( 'NONE', #195, #21, #71, .T. ) ;
#9 = VECTOR ( 'NONE', #84, 1000.000000000000000 ) ;
#10 =( LENGTH_UNIT ( ) NAMED_UNIT ( * ) SI_UNIT ( .MILLI., .METRE. ) );
#11 = PRODUCT_DEFINITION ( 'General', '', #150, #123 ) ;
#12 =( GEOMETRIC_REPRESENTATION_CONTEXT ( 3 ) GLOBAL_UNCERTAINTY_ASSIGNED_CONTEXT ( ( #168 ) ) GLOBAL_UNIT_ASSIGNED_CONTEXT ( ( #29, #160, #176 ) ) REPRESENTATION_CONTEXT ( 'NONE', 'WORKASPACE' ) );
#13 = DIRECTION ( 'NONE',  ( 0.000000000000000000, 0.000000000000000000, 1.000000000000000000 ) ) ;
#14 = CARTESIAN_POINT ( 'NONE',  ( 0.000000000000000000, 33.50000000000000000, 0.000000000000000000 ) ) ;
#15 = SURFACE_SIDE_STYLE ('',( #146 ) ) ;
#16 = DIRECTION ( 'NONE',  ( 0.000000000000000000, 1.000000000000000000, 0.000000000000000000 ) ) ;
#17 = VECTOR ( 'NONE', #197, 1000.000000000000000 ) ;
#18 = CARTESIAN_POINT ( 'NONE',  ( 0.000000000000000000, 0.000000000000000000, -5.000000000000000888 ) ) ;
#19 = ORIENTED_EDGE ( 'NONE', *, *, #127, .T. ) ;
#20 = VERTEX_POINT ( 'NONE', #114 ) ;
#21 = VERTEX_POINT ( 'NONE', #133 ) ;
#22 = AXIS2_PLACEMENT_3D ( 'NONE', #39, #135, #122 ) ;
#23 = EDGE_CURVE ( 'NONE', #75, #21, #193, .T. ) ;
#24 = CARTESIAN_POINT ( 'NONE',  ( 0.000000000000000000, 0.000000000000000000, 0.000000000000000000 ) ) ;
#25 = AXIS2_PLACEMENT_3D ( 'NONE', #14, #36, #57 ) ;
#26 = ADVANCED_FACE ( 'NONE', ( #100 ), #144, .T. ) ;
#27 = AXIS2_PLACEMENT_3D ( 'NONE', #67, #95, #54 ) ;
#28 = FACE_OUTER_BOUND ( 'NONE', #147, .T. ) ;
#29 =( LENGTH_UNIT ( ) NAMED_UNIT ( * ) SI_UNIT ( .MILLI., .METRE. ) );
#30 = DIRECTION ( 'NONE',  ( 1.000000000000000000, 0.000000000000000000, 0.000000000000000000 ) ) ;
#31 =( NAMED_UNIT ( * ) SI_UNIT ( $, .STERADIAN. ) SOLID_ANGLE_UNIT ( ) );
#32 = STYLED_ITEM ( 'NONE', ( #177 ), #51 ) ;
#33 = APPLICATION_PROTOCOL_DEFINITION ( 'draft international standard', 'automotive_design', 1998, #113 ) ;
#34 = SURFACE_STYLE_USAGE ( .BOTH. , #15 ) ;
#35 = CARTESIAN_POINT ( 'NONE',  ( 0.000000000000000000, 0.000000000000000000, 0.000000000000000000 ) ) ;
#36 = DIRECTION ( 'NONE',  ( 0.000000000000000000, 1.000000000000000000, 0.000000000000000000 ) ) ;
#37 = ORIENTED_EDGE ( 'NONE', *, *, #92, .F. ) ;
#38 = AXIS2_PLACEMENT_3D ( 'NONE', #35, #164, #50 ) ;
#39 = CARTESIAN_POINT ( 'NONE',  ( 0.000000000000000000, 33.50000000000000000, 0.000000000000000000 ) ) ;
#40 = EDGE_CURVE ( 'NONE', #62, #20, #102, .T. ) ;
#41 = CARTESIAN_POINT ( 'NONE',  ( 0.000000000000000000, 33.50000000000000000, 0.000000000000000000 ) ) ;
#42 = ORIENTED_EDGE ( 'NONE', *, *, #214, .T. ) ;
#43 = CARTESIAN_POINT ( 'NONE',  ( 0.000000000000000000, 0.000000000000000000, 0.000000000000000000 ) ) ;
#44 = ORIENTED_EDGE ( 'NONE', *, *, #56, .F. ) ;
#45 = ADVANCED_FACE ( 'NONE', ( #117, #185 ), #166, .F. ) ;
#46 = CARTESIAN_POINT ( 'NONE',  ( 6.123233995736767268E-16, 33.50000000000000000, 5.000000000000000888 ) ) ;
#47 = VECTOR ( 'NONE', #178, 1000.000000000000000 ) ;
#48 = STYLED_ITEM ( 'NONE', ( #129 ), #58 ) ;
#49 = SHAPE_DEFINITION_REPRESENTATION ( #2, #51 ) ;
#50 = DIRECTION ( 'NONE',  ( 0.000000000000000000, 0.000000000000000000, 1.000000000000000000 ) ) ;
#51 = ADVANCED_BREP_SHAPE_REPRESENTATION ( 'LIR-DA237T_SHAFT', ( #58, #98 ), #208 ) ;
#52 = SURFACE_STYLE_FILL_AREA ( #181 ) ;
#53 =( NAMED_UNIT ( * ) PLANE_ANGLE_UNIT ( ) SI_UNIT ( $, .RADIAN. ) );
#54 = DIRECTION ( 'NONE',  ( 0.000000000000000000, 0.000000000000000000, -1.000000000000000000 ) ) ;
#55 = ORIENTED_EDGE ( 'NONE', *, *, #127, .F. ) ;
#56 = EDGE_CURVE ( 'NONE', #138, #195, #153, .T. ) ;
#57 = DIRECTION ( 'NONE',  ( 0.000000000000000000, 0.000000000000000000, 1.000000000000000000 ) ) ;
#58 = MANIFOLD_SOLID_BREP ( 'Boss-Extrude1', #88 ) ;
#59 = EDGE_LOOP ( 'NONE', ( #142, #132 ) ) ;
#60 = EDGE_CURVE ( 'NONE', #20, #62, #161, .T. ) ;
#61 = DIRECTION ( 'NONE',  ( 0.000000000000000000, 1.000000000000000000, 0.000000000000000000 ) ) ;
#62 = VERTEX_POINT ( 'NONE', #199 ) ;
#63 = PRESENTATION_LAYER_ASSIGNMENT (  '', '', ( #32 ) ) ;
#64 = EDGE_LOOP ( 'NONE', ( #151, #101, #42, #70 ) ) ;
#65 = VECTOR ( 'NONE', #126, 1000.000000000000000 ) ;
#66 = FACE_OUTER_BOUND ( 'NONE', #64, .T. ) ;
#67 = CARTESIAN_POINT ( 'NONE',  ( 0.000000000000000000, 33.50000000000000000, 0.000000000000000000 ) ) ;
#68 = SURFACE_SIDE_STYLE ('',( #52 ) ) ;
#69 = CARTESIAN_POINT ( 'NONE',  ( 0.000000000000000000, 33.50000000000000000, 0.000000000000000000 ) ) ;
#70 = ORIENTED_EDGE ( 'NONE', *, *, #155, .T. ) ;
#71 = LINE ( 'NONE', #87, #17 ) ;
#72 =( GEOMETRIC_REPRESENTATION_CONTEXT ( 3 ) GLOBAL_UNCERTAINTY_ASSIGNED_CONTEXT ( ( #80 ) ) GLOBAL_UNIT_ASSIGNED_CONTEXT ( ( #179, #53, #31 ) ) REPRESENTATION_CONTEXT ( 'NONE', 'WORKASPACE' ) );
#73 = CARTESIAN_POINT ( 'NONE',  ( 0.000000000000000000, 33.50000000000000000, 0.000000000000000000 ) ) ;
#74 = DIRECTION ( 'NONE',  ( 0.000000000000000000, 1.000000000000000000, 0.000000000000000000 ) ) ;
#75 = VERTEX_POINT ( 'NONE', #116 ) ;
#76 = CYLINDRICAL_SURFACE ( 'NONE', #22, 4.000000000000000000 ) ;
#77 = ORIENTED_EDGE ( 'NONE', *, *, #5, .F. ) ;
#78 = AXIS2_PLACEMENT_3D ( 'NONE', #105, #74, #203 ) ;
#79 = VERTEX_POINT ( 'NONE', #148 ) ;
#80 = UNCERTAINTY_MEASURE_WITH_UNIT (LENGTH_MEASURE( 1.000000000000000082E-05 ), #179, 'distance_accuracy_value', 'NONE');
#81 = DIRECTION ( 'NONE',  ( 0.000000000000000000, 0.000000000000000000, 1.000000000000000000 ) ) ;
#82 = CARTESIAN_POINT ( 'NONE',  ( 4.898587196589412829E-16, 33.50000000000000000, 4.000000000000000000 ) ) ;
#83 = PRODUCT_CONTEXT ( 'NONE', #113, 'mechanical' ) ;
#84 = DIRECTION ( 'NONE',  ( -0.000000000000000000, -1.000000000000000000, -0.000000000000000000 ) ) ;
#85 = EDGE_LOOP ( 'NONE', ( #37, #44 ) ) ;
#86 = CARTESIAN_POINT ( 'NONE',  ( 4.898587196589412829E-16, 33.50000000000000000, 4.000000000000000000 ) ) ;
#87 = CARTESIAN_POINT ( 'NONE',  ( 0.000000000000000000, 33.50000000000000000, -4.000000000000000000 ) ) ;
#88 = CLOSED_SHELL ( 'NONE', ( #184, #26, #172, #45, #93, #136 ) ) ;
#89 = FILL_AREA_STYLE ('',( #130 ) ) ;
#90 = ORIENTED_EDGE ( 'NONE', *, *, #8, .F. ) ;
#91 = CIRCLE ( 'NONE', #94, 5.000000000000000888 ) ;
#92 = EDGE_CURVE ( 'NONE', #195, #138, #128, .T. ) ;
#93 = ADVANCED_FACE ( 'NONE', ( #66 ), #175, .T. ) ;
#94 = AXIS2_PLACEMENT_3D ( 'NONE', #43, #61, #107 ) ;
#95 = DIRECTION ( 'NONE',  ( -0.000000000000000000, -1.000000000000000000, -0.000000000000000000 ) ) ;
#96 = MECHANICAL_DESIGN_GEOMETRIC_PRESENTATION_REPRESENTATION (  '', ( #48 ), #72 ) ;
#97 = DIRECTION ( 'NONE',  ( -0.000000000000000000, -1.000000000000000000, -0.000000000000000000 ) ) ;
#98 = AXIS2_PLACEMENT_3D ( 'NONE', #158, #13, #30 ) ;
#99 = APPLICATION_PROTOCOL_DEFINITION ( 'draft international standard', 'automotive_design', 1998, #111 ) ;
#100 = FACE_OUTER_BOUND ( 'NONE', #106, .T. ) ;
#101 = ORIENTED_EDGE ( 'NONE', *, *, #40, .F. ) ;
#102 = CIRCLE ( 'NONE', #212, 5.000000000000000888 ) ;
#103 = EDGE_LOOP ( 'NONE', ( #213, #210 ) ) ;
#104 = ORIENTED_EDGE ( 'NONE', *, *, #8, .T. ) ;
#105 = CARTESIAN_POINT ( 'NONE',  ( 0.000000000000000000, 0.000000000000000000, 0.000000000000000000 ) ) ;
#106 = EDGE_LOOP ( 'NONE', ( #170, #112, #121, #167 ) ) ;
#107 = DIRECTION ( 'NONE',  ( 0.000000000000000000, 0.000000000000000000, 1.000000000000000000 ) ) ;
#108 = CIRCLE ( 'NONE', #78, 4.000000000000000000 ) ;
#109 = AXIS2_PLACEMENT_3D ( 'NONE', #1, #159, #182 ) ;
#110 = FACE_OUTER_BOUND ( 'NONE', #59, .T. ) ;
#111 = APPLICATION_CONTEXT ( 'automotive_design' ) ;
#112 = ORIENTED_EDGE ( 'NONE', *, *, #163, .T. ) ;
#113 = APPLICATION_CONTEXT ( 'automotive_design' ) ;
#114 = CARTESIAN_POINT ( 'NONE',  ( 6.123233995736767268E-16, 33.50000000000000000, 5.000000000000000888 ) ) ;
#115 = COLOUR_RGB ( '',1.000000000000000000, 0.9490196078431372140, 0.9098039215686274384 ) ;
#116 = CARTESIAN_POINT ( 'NONE',  ( 4.898587196589412829E-16, 0.000000000000000000, 4.000000000000000000 ) ) ;
#117 = FACE_OUTER_BOUND ( 'NONE', #103, .T. ) ;
#118 = ORIENTED_EDGE ( 'NONE', *, *, #23, .T. ) ;
#119 = CARTESIAN_POINT ( 'NONE',  ( 0.000000000000000000, 33.50000000000000000, 0.000000000000000000 ) ) ;
#120 = COLOUR_RGB ( '',1.000000000000000000, 0.9490196078431372140, 0.9098039215686274384 ) ;
#121 = ORIENTED_EDGE ( 'NONE', *, *, #152, .T. ) ;
#122 = DIRECTION ( 'NONE',  ( 0.000000000000000000, 0.000000000000000000, -1.000000000000000000 ) ) ;
#123 = PRODUCT_DEFINITION_CONTEXT ( 'detailed design', #111, 'design' ) ;
#124 = CIRCLE ( 'NONE', #141, 5.000000000000000888 ) ;
#125 = AXIS2_PLACEMENT_3D ( 'NONE', #119, #186, #206 ) ;
#126 = DIRECTION ( 'NONE',  ( -0.000000000000000000, -1.000000000000000000, -0.000000000000000000 ) ) ;
#127 = EDGE_CURVE ( 'NONE', #21, #75, #108, .T. ) ;
#128 = CIRCLE ( 'NONE', #198, 4.000000000000000000 ) ;
#129 = PRESENTATION_STYLE_ASSIGNMENT (( #34 ) ) ;
#130 = FILL_AREA_STYLE_COLOUR ( '', #115 ) ;
#131 =( NAMED_UNIT ( * ) PLANE_ANGLE_UNIT ( ) SI_UNIT ( $, .RADIAN. ) );
#132 = ORIENTED_EDGE ( 'NONE', *, *, #60, .T. ) ;
#133 = CARTESIAN_POINT ( 'NONE',  ( 0.000000000000000000, 0.000000000000000000, -4.000000000000000000 ) ) ;
#134 = DIRECTION ( 'NONE',  ( 0.000000000000000000, 0.000000000000000000, -1.000000000000000000 ) ) ;
#135 = DIRECTION ( 'NONE',  ( -0.000000000000000000, -1.000000000000000000, -0.000000000000000000 ) ) ;
#136 = ADVANCED_FACE ( 'NONE', ( #169 ), #76, .F. ) ;
#137 = ORIENTED_EDGE ( 'NONE', *, *, #5, .T. ) ;
#138 = VERTEX_POINT ( 'NONE', #82 ) ;
#139 = AXIS2_PLACEMENT_3D ( 'NONE', #69, #143, #162 ) ;
#140 = LINE ( 'NONE', #46, #65 ) ;
#141 = AXIS2_PLACEMENT_3D ( 'NONE', #24, #190, #81 ) ;
#142 = ORIENTED_EDGE ( 'NONE', *, *, #40, .T. ) ;
#143 = DIRECTION ( 'NONE',  ( 0.000000000000000000, 1.000000000000000000, 0.000000000000000000 ) ) ;
#144 = CYLINDRICAL_SURFACE ( 'NONE', #145, 5.000000000000000888 ) ;
#145 = AXIS2_PLACEMENT_3D ( 'NONE', #73, #97, #134 ) ;
#146 = SURFACE_STYLE_FILL_AREA ( #89 ) ;
#147 = EDGE_LOOP ( 'NONE', ( #201, #137, #55, #90 ) ) ;
#148 = CARTESIAN_POINT ( 'NONE',  ( 6.123233995736767268E-16, 0.000000000000000000, 5.000000000000000888 ) ) ;
#149 = EDGE_LOOP ( 'NONE', ( #77, #183, #104, #202 ) ) ;
#150 = PRODUCT_DEFINITION_FORMATION_WITH_SPECIFIED_SOURCE ( 'Symmetric', '', #7, .NOT_KNOWN. ) ;
#151 = ORIENTED_EDGE ( 'NONE', *, *, #163, .F. ) ;
#152 = EDGE_CURVE ( 'NONE', #79, #4, #91, .T. ) ;
#153 = CIRCLE ( 'NONE', #139, 4.000000000000000000 ) ;
#154 = DIRECTION ( 'NONE',  ( 0.000000000000000000, 1.000000000000000000, 0.000000000000000000 ) ) ;
#155 = EDGE_CURVE ( 'NONE', #4, #79, #124, .T. ) ;
#156 = DIRECTION ( 'NONE',  ( -0.000000000000000000, -1.000000000000000000, -0.000000000000000000 ) ) ;
#157 = SURFACE_STYLE_USAGE ( .BOTH. , #68 ) ;
#158 = CARTESIAN_POINT ( 'NONE',  ( 0.000000000000000000, 0.000000000000000000, 0.000000000000000000 ) ) ;
#159 = DIRECTION ( 'NONE',  ( 0.000000000000000000, 1.000000000000000000, 0.000000000000000000 ) ) ;
#160 =( NAMED_UNIT ( * ) PLANE_ANGLE_UNIT ( ) SI_UNIT ( $, .RADIAN. ) );
#161 = CIRCLE ( 'NONE', #25, 5.000000000000000888 ) ;
#162 = DIRECTION ( 'NONE',  ( 0.000000000000000000, 0.000000000000000000, 1.000000000000000000 ) ) ;
#163 = EDGE_CURVE ( 'NONE', #20, #79, #140, .T. ) ;
#164 = DIRECTION ( 'NONE',  ( 0.000000000000000000, 1.000000000000000000, 0.000000000000000000 ) ) ;
#165 = CARTESIAN_POINT ( 'NONE',  ( 0.000000000000000000, 33.50000000000000000, 0.000000000000000000 ) ) ;
#166 = PLANE ( 'NONE',  #109 ) ;
#167 = ORIENTED_EDGE ( 'NONE', *, *, #214, .F. ) ;
#168 = UNCERTAINTY_MEASURE_WITH_UNIT (LENGTH_MEASURE( 1.000000000000000082E-05 ), #29, 'distance_accuracy_value', 'NONE');
#169 = FACE_OUTER_BOUND ( 'NONE', #149, .T. ) ;
#170 = ORIENTED_EDGE ( 'NONE', *, *, #60, .F. ) ;
#171 = PRODUCT_RELATED_PRODUCT_CATEGORY ( 'part', '', ( #7 ) ) ;
#172 = ADVANCED_FACE ( 'NONE', ( #110, #174 ), #191, .T. ) ;
#173 = MECHANICAL_DESIGN_GEOMETRIC_PRESENTATION_REPRESENTATION (  '', ( #32 ), #12 ) ;
#174 = FACE_BOUND ( 'NONE', #85, .T. ) ;
#175 = CYLINDRICAL_SURFACE ( 'NONE', #187, 5.000000000000000888 ) ;
#176 =( NAMED_UNIT ( * ) SI_UNIT ( $, .STERADIAN. ) SOLID_ANGLE_UNIT ( ) );
#177 = PRESENTATION_STYLE_ASSIGNMENT (( #157 ) ) ;
#178 = DIRECTION ( 'NONE',  ( -0.000000000000000000, -1.000000000000000000, -0.000000000000000000 ) ) ;
#179 =( LENGTH_UNIT ( ) NAMED_UNIT ( * ) SI_UNIT ( .MILLI., .METRE. ) );
#180 = FILL_AREA_STYLE_COLOUR ( '', #120 ) ;
#181 = FILL_AREA_STYLE ('',( #180 ) ) ;
#182 = DIRECTION ( 'NONE',  ( 0.000000000000000000, -0.000000000000000000, 1.000000000000000000 ) ) ;
#183 = ORIENTED_EDGE ( 'NONE', *, *, #56, .T. ) ;
#184 = ADVANCED_FACE ( 'NONE', ( #28 ), #194, .F. ) ;
#185 = FACE_BOUND ( 'NONE', #188, .T. ) ;
#186 = DIRECTION ( 'NONE',  ( 0.000000000000000000, 1.000000000000000000, 0.000000000000000000 ) ) ;
#187 = AXIS2_PLACEMENT_3D ( 'NONE', #3, #156, #205 ) ;
#188 = EDGE_LOOP ( 'NONE', ( #19, #118 ) ) ;
#189 = DIRECTION ( 'NONE',  ( 0.000000000000000000, 0.000000000000000000, 1.000000000000000000 ) ) ;
#190 = DIRECTION ( 'NONE',  ( 0.000000000000000000, 1.000000000000000000, 0.000000000000000000 ) ) ;
#191 = PLANE ( 'NONE',  #125 ) ;
#192 = LINE ( 'NONE', #196, #47 ) ;
#193 = CIRCLE ( 'NONE', #38, 4.000000000000000000 ) ;
#194 = CYLINDRICAL_SURFACE ( 'NONE', #27, 4.000000000000000000 ) ;
#195 = VERTEX_POINT ( 'NONE', #209 ) ;
#196 = CARTESIAN_POINT ( 'NONE',  ( 0.000000000000000000, 33.50000000000000000, -5.000000000000000888 ) ) ;
#197 = DIRECTION ( 'NONE',  ( -0.000000000000000000, -1.000000000000000000, -0.000000000000000000 ) ) ;
#198 = AXIS2_PLACEMENT_3D ( 'NONE', #41, #154, #189 ) ;
#199 = CARTESIAN_POINT ( 'NONE',  ( 0.000000000000000000, 33.50000000000000000, -5.000000000000000888 ) ) ;
#200 = DIRECTION ( 'NONE',  ( 0.000000000000000000, 0.000000000000000000, 1.000000000000000000 ) ) ;
#201 = ORIENTED_EDGE ( 'NONE', *, *, #92, .T. ) ;
#202 = ORIENTED_EDGE ( 'NONE', *, *, #23, .F. ) ;
#203 = DIRECTION ( 'NONE',  ( 0.000000000000000000, 0.000000000000000000, 1.000000000000000000 ) ) ;
#204 = UNCERTAINTY_MEASURE_WITH_UNIT (LENGTH_MEASURE( 1.000000000000000082E-05 ), #10, 'distance_accuracy_value', 'NONE');
#205 = DIRECTION ( 'NONE',  ( 0.000000000000000000, 0.000000000000000000, -1.000000000000000000 ) ) ;
#206 = DIRECTION ( 'NONE',  ( 0.000000000000000000, -0.000000000000000000, 1.000000000000000000 ) ) ;
#207 =( NAMED_UNIT ( * ) SI_UNIT ( $, .STERADIAN. ) SOLID_ANGLE_UNIT ( ) );
#208 =( GEOMETRIC_REPRESENTATION_CONTEXT ( 3 ) GLOBAL_UNCERTAINTY_ASSIGNED_CONTEXT ( ( #204 ) ) GLOBAL_UNIT_ASSIGNED_CONTEXT ( ( #10, #131, #207 ) ) REPRESENTATION_CONTEXT ( 'NONE', 'WORKASPACE' ) );
#209 = CARTESIAN_POINT ( 'NONE',  ( 0.000000000000000000, 33.50000000000000000, -4.000000000000000000 ) ) ;
#210 = ORIENTED_EDGE ( 'NONE', *, *, #152, .F. ) ;
#211 = LINE ( 'NONE', #86, #9 ) ;
#212 = AXIS2_PLACEMENT_3D ( 'NONE', #165, #16, #200 ) ;
#213 = ORIENTED_EDGE ( 'NONE', *, *, #155, .F. ) ;
#214 = EDGE_CURVE ( 'NONE', #62, #4, #192, .T. ) ;
ENDSEC;
END-ISO-10303-21;
