ISO-10303-21;
HEADER;
FILE_DESCRIPTION (( 'STEP AP214' ),
    '1' );
FILE_NAME ('TSSOP16.step.STEP',
    '2026-01-08T13:34:34',
    ( '' ),
    ( '' ),
    'SwSTEP 2.0',
    'SolidWorks 2025',
    '' );
FILE_SCHEMA (( 'AUTOMOTIVE_DESIGN' ));
ENDSEC;

DATA;
#1 =( GEOMETRIC_REPRESENTATION_CONTEXT ( 3 ) GLOBAL_UNCERTAINTY_ASSIGNED_CONTEXT ( ( #2 ) ) GLOBAL_UNIT_ASSIGNED_CONTEXT ( ( #33, #67, #19 ) ) REPRESENTATION_CONTEXT ( 'NONE', 'WORKASPACE' ) );
#2 = UNCERTAINTY_MEASURE_WITH_UNIT (LENGTH_MEASURE( 1.000000000000000082E-05 ), #33, 'distance_accuracy_value', 'NONE');
#3 = DIRECTION ( 'NONE',  ( 1.000000000000000000, -2.220446049250314067E-16, -1.040957192136566911E-31 ) ) ;
#4 = CARTESIAN_POINT ( 'NONE',  ( 0.000000000000000000, 0.000000000000000000, 0.000000000000000000 ) ) ;
#5 = APPLICATION_PROTOCOL_DEFINITION ( 'draft international standard', 'automotive_design', 1998, #69 ) ;
#6 = APPLICATION_PROTOCOL_DEFINITION ( 'draft international standard', 'automotive_design', 1998, #57 ) ;
#7 = CONTEXT_DEPENDENT_SHAPE_REPRESENTATION ( #55, #101 ) ;
#8 = UNCERTAINTY_MEASURE_WITH_UNIT (LENGTH_MEASURE( 1.000000000000000082E-05 ), #94, 'distance_accuracy_value', 'NONE');
#9 =( GEOMETRIC_REPRESENTATION_CONTEXT ( 3 ) GLOBAL_UNCERTAINTY_ASSIGNED_CONTEXT ( ( #24 ) ) GLOBAL_UNIT_ASSIGNED_CONTEXT ( ( #84, #32, #74 ) ) REPRESENTATION_CONTEXT ( 'NONE', 'WORKASPACE' ) );
#10 =( REPRESENTATION_RELATIONSHIP ('NONE','NONE', #18, #53 ) REPRESENTATION_RELATIONSHIP_WITH_TRANSFORMATION ( #30 )SHAPE_REPRESENTATION_RELATIONSHIP( ) );
#11 = SHAPE_DEFINITION_REPRESENTATION ( #75, #18 ) ;
#12 =( NAMED_UNIT ( * ) SI_UNIT ( $, .STERADIAN. ) SOLID_ANGLE_UNIT ( ) );
#13 = PRODUCT_DEFINITION ( 'General', '', #41, #89 ) ;
#14 = EXTERNAL_SOURCE (IDENTIFIER('') ) ;
#15 = PRODUCT_DEFINITION_FORMATION_WITH_SPECIFIED_SOURCE ( 'Symmetric', '', #35, .NOT_KNOWN. ) ;
#16 = APPLICATION_CONTEXT ( 'automotive_design' ) ;
#17 = APPLIED_EXTERNAL_IDENTIFICATION_ASSIGNMENT ( 'Array003.step.STEP' , #48, #43,( #44) ) ;
#18 = SHAPE_REPRESENTATION ( 'TSSOP16.step', ( #100, #47, #54 ), #1 ) ;
#19 =( NAMED_UNIT ( * ) SI_UNIT ( $, .STERADIAN. ) SOLID_ANGLE_UNIT ( ) );
#20 = PRODUCT_CONTEXT ( 'NONE', #57, 'mechanical' ) ;
#21 = APPLICATION_CONTEXT ( 'automotive_design' ) ;
#22 = DIRECTION ( 'NONE',  ( -1.040957192136566911E-31, 4.930380657631323784E-32, 1.000000000000000000 ) ) ;
#23 = PROPERTY_DEFINITION ('external definition','', #44 ) ;
#24 = UNCERTAINTY_MEASURE_WITH_UNIT (LENGTH_MEASURE( 1.000000000000000082E-05 ), #84, 'distance_accuracy_value', 'NONE');
#25 = PROPERTY_DEFINITION ('external definition','', #80 ) ;
#26 = APPLICATION_CONTEXT ( 'automotive_design' ) ;
#27 = PRODUCT_DEFINITION ( 'General', '', #28, #106 ) ;
#28 = PRODUCT_DEFINITION_FORMATION_WITH_SPECIFIED_SOURCE ( 'Symmetric', '', #77, .NOT_KNOWN. ) ;
#29 = DIRECTION ( 'NONE',  ( 0.000000000000000000, 0.000000000000000000, 1.000000000000000000 ) ) ;
#30 = ITEM_DEFINED_TRANSFORMATION ( 'NONE', 'NONE', #47,  #93 ) ;
#31 = APPLICATION_CONTEXT ( 'automotive_design' ) ;
#32 =( NAMED_UNIT ( * ) PLANE_ANGLE_UNIT ( ) SI_UNIT ( $, .RADIAN. ) );
#33 =( LENGTH_UNIT ( ) NAMED_UNIT ( * ) SI_UNIT ( .MILLI., .METRE. ) );
#34 = IDENTIFICATION_ROLE ( 'external document id and location', $) ;
#35 = PRODUCT ( 'Body008.step', 'Body008.step', '', ( #76 ) ) ;
#36 = APPLICATION_PROTOCOL_DEFINITION ( 'draft international standard', 'automotive_design', 1998, #21 ) ;
#37 = APPLIED_DOCUMENT_REFERENCE ( #80,'',( #40) ) ;
#38 = PROPERTY_DEFINITION_REPRESENTATION ( #61, #65 ) ;
#39 = APPLIED_EXTERNAL_IDENTIFICATION_ASSIGNMENT ( 'Body008.step.STEP' , #34, #14,( #80) ) ;
#40 = PRODUCT_DEFINITION ( 'General', '', #15, #78 ) ;
#41 = PRODUCT_DEFINITION_FORMATION_WITH_SPECIFIED_SOURCE ( 'Symmetric', '', #87, .NOT_KNOWN. ) ;
#42 = PRODUCT_DEFINITION_SHAPE ( 'NONE', 'NONE',  #107 ) ;
#43 = EXTERNAL_SOURCE (IDENTIFIER('') ) ;
#44 = DOCUMENT_FILE ( 'Array003.step.STEP' , '', '', #60, '' ,$ ) ;
#45 = DIRECTION ( 'NONE',  ( 0.000000000000000000, 0.000000000000000000, 1.000000000000000000 ) ) ;
#46 = CARTESIAN_POINT ( 'NONE',  ( 0.000000000000000000, 0.000000000000000000, 0.000000000000000000 ) ) ;
#47 = AXIS2_PLACEMENT_3D ( 'NONE', #4, #22, #49 ) ;
#48 = IDENTIFICATION_ROLE ( 'external document id and location', $) ;
#49 = DIRECTION ( 'NONE',  ( 1.000000000000000000, -2.220446049250314067E-16, -1.040957192136566911E-31 ) ) ;
#50 = APPLICATION_PROTOCOL_DEFINITION ( 'draft international standard', 'automotive_design', 1998, #26 ) ;
#51 = DIRECTION ( 'NONE',  ( -1.040957192136566911E-31, 4.930380657631323784E-32, 1.000000000000000000 ) ) ;
#52 = CARTESIAN_POINT ( 'NONE',  ( 0.000000000000000000, 0.000000000000000000, 0.000000000000000000 ) ) ;
#53 = SHAPE_REPRESENTATION ( 'Array003.step', ( #93 ), #9 ) ;
#54 = AXIS2_PLACEMENT_3D ( 'NONE', #104, #51, #3 ) ;
#55 =( REPRESENTATION_RELATIONSHIP ('NONE','NONE', #18, #65 ) REPRESENTATION_RELATIONSHIP_WITH_TRANSFORMATION ( #73 )SHAPE_REPRESENTATION_RELATIONSHIP( ) );
#56 = CARTESIAN_POINT ( 'NONE',  ( 0.000000000000000000, 0.000000000000000000, 0.000000000000000000 ) ) ;
#57 = APPLICATION_CONTEXT ( 'automotive_design' ) ;
#58 = APPLICATION_PROTOCOL_DEFINITION ( 'draft international standard', 'automotive_design', 1998, #31 ) ;
#59 = PRODUCT_DEFINITION_SHAPE ( 'NONE', 'NONE',  #27 ) ;
#60 = DOCUMENT_TYPE ( 'geometry' ) ;
#61 = PROPERTY_DEFINITION ('document property','', #80 ) ;
#62 = DOCUMENT_TYPE ( 'geometry' ) ;
#63 = ROLE_ASSOCIATION ( #91, #37 ) ;
#64 = AXIS2_PLACEMENT_3D ( 'NONE', #52, #45, #90 ) ;
#65 = SHAPE_REPRESENTATION ( 'Body008.step', ( #64 ), #71 ) ;
#66 = PRODUCT_RELATED_PRODUCT_CATEGORY ( 'part', '', ( #77 ) ) ;
#67 =( NAMED_UNIT ( * ) PLANE_ANGLE_UNIT ( ) SI_UNIT ( $, .RADIAN. ) );
#68 = PROPERTY_DEFINITION_REPRESENTATION ( #25, #65 ) ;
#69 = APPLICATION_CONTEXT ( 'automotive_design' ) ;
#70 = DIRECTION ( 'NONE',  ( 1.000000000000000000, 0.000000000000000000, 0.000000000000000000 ) ) ;
#71 =( GEOMETRIC_REPRESENTATION_CONTEXT ( 3 ) GLOBAL_UNCERTAINTY_ASSIGNED_CONTEXT ( ( #8 ) ) GLOBAL_UNIT_ASSIGNED_CONTEXT ( ( #94, #86, #12 ) ) REPRESENTATION_CONTEXT ( 'NONE', 'WORKASPACE' ) );
#72 = PRODUCT_RELATED_PRODUCT_CATEGORY ( 'part', '', ( #35 ) ) ;
#73 = ITEM_DEFINED_TRANSFORMATION ( 'NONE', 'NONE', #54,  #64 ) ;
#74 =( NAMED_UNIT ( * ) SI_UNIT ( $, .STERADIAN. ) SOLID_ANGLE_UNIT ( ) );
#75 = PRODUCT_DEFINITION_SHAPE ( 'NONE', 'NONE',  #13 ) ;
#76 = PRODUCT_CONTEXT ( 'NONE', #16, 'mechanical' ) ;
#77 = PRODUCT ( 'Array003.step', 'Array003.step', '', ( #20 ) ) ;
#78 = PRODUCT_DEFINITION_CONTEXT ( 'detailed design', #69, 'design' ) ;
#79 = OBJECT_ROLE ('mandatory',$ ) ;
#80 = DOCUMENT_FILE ( 'Body008.step.STEP' , '', '', #62, '' ,$ ) ;
#81 = CONTEXT_DEPENDENT_SHAPE_REPRESENTATION ( #10, #42 ) ;
#82 = PROPERTY_DEFINITION_REPRESENTATION ( #103, #53 ) ;
#83 = APPLIED_DOCUMENT_REFERENCE ( #44,'',( #27) ) ;
#84 =( LENGTH_UNIT ( ) NAMED_UNIT ( * ) SI_UNIT ( .MILLI., .METRE. ) );
#85 = PRODUCT_DEFINITION_SHAPE ( 'NONE', 'NONE',  #40 ) ;
#86 =( NAMED_UNIT ( * ) PLANE_ANGLE_UNIT ( ) SI_UNIT ( $, .RADIAN. ) );
#87 = PRODUCT ( 'TSSOP16.step', 'TSSOP16.step', '', ( #88 ) ) ;
#88 = PRODUCT_CONTEXT ( 'NONE', #26, 'mechanical' ) ;
#89 = PRODUCT_DEFINITION_CONTEXT ( 'detailed design', #31, 'design' ) ;
#90 = DIRECTION ( 'NONE',  ( 1.000000000000000000, 0.000000000000000000, 0.000000000000000000 ) ) ;
#91 = OBJECT_ROLE ('mandatory',$ ) ;
#92 = DIRECTION ( 'NONE',  ( 0.000000000000000000, 0.000000000000000000, 1.000000000000000000 ) ) ;
#93 = AXIS2_PLACEMENT_3D ( 'NONE', #46, #92, #70 ) ;
#94 =( LENGTH_UNIT ( ) NAMED_UNIT ( * ) SI_UNIT ( .MILLI., .METRE. ) );
#95 = APPLICATION_PROTOCOL_DEFINITION ( 'draft international standard', 'automotive_design', 1998, #16 ) ;
#96 = DIRECTION ( 'NONE',  ( 1.000000000000000000, 0.000000000000000000, 0.000000000000000000 ) ) ;
#97 = SHAPE_DEFINITION_REPRESENTATION ( #85, #65 ) ;
#98 = PROPERTY_DEFINITION_REPRESENTATION ( #23, #53 ) ;
#99 = ROLE_ASSOCIATION ( #79, #83 ) ;
#100 = AXIS2_PLACEMENT_3D ( 'NONE', #56, #29, #96 ) ;
#101 = PRODUCT_DEFINITION_SHAPE ( 'NONE', 'NONE',  #108 ) ;
#102 = PRODUCT_RELATED_PRODUCT_CATEGORY ( 'part', '', ( #87 ) ) ;
#103 = PROPERTY_DEFINITION ('document property','', #44 ) ;
#104 = CARTESIAN_POINT ( 'NONE',  ( 0.000000000000000000, 0.000000000000000000, 0.09999999999998898659 ) ) ;
#105 = SHAPE_DEFINITION_REPRESENTATION ( #59, #53 ) ;
#106 = PRODUCT_DEFINITION_CONTEXT ( 'detailed design', #21, 'design' ) ;
#107 = NEXT_ASSEMBLY_USAGE_OCCURRENCE ( 'NAUO65', ' ', ' ', #13, #27, $ ) ;
#108 = NEXT_ASSEMBLY_USAGE_OCCURRENCE ( 'NAUO66', ' ', ' ', #13, #40, $ ) ;
ENDSEC;
END-ISO-10303-21;
